<svg viewBox="0 0 2000 4000" fill="none" xmlns="http://www.w3.org/2000/svg">
<mask id="mask0_2902_142" style="mask-type:alpha" maskUnits="userSpaceOnUse" x="0" y="0" width="2000" height="4000">
<path d="M0 0H2000V4000H0V0Z" fill="white"/>
</mask>
<g mask="url(#mask0_2902_142)">
<g filter="url(#filter0_f_2902_142)">
<path opacity="0.988342" d="M384.348 1591.46L247.45 1672.96C194.991 1704.2 127.146 1686.99 95.9131 1634.53L14.4114 1497.64C-61.8349 1369.58 -19.8279 1203.95 108.236 1127.7C236.299 1051.46 401.925 1093.46 478.171 1221.52C554.416 1349.59 512.41 1515.21 384.348 1591.46Z" stroke="#6AB5FB" stroke-opacity="0.35" stroke-width="137.377"/>
<path opacity="0.844636" d="M725.23 701.901L772.126 775.674C790.096 803.944 781.746 841.428 753.477 859.398L679.707 906.291C610.695 950.16 519.185 929.777 475.316 860.764C431.447 791.752 451.83 700.243 520.841 656.374C589.854 612.506 681.362 632.888 725.23 701.901Z" stroke="#6AB5FB" stroke-opacity="0.35" stroke-width="75.3749"/>
<path opacity="0.276282" d="M969.128 647.255C969.221 766.936 1068.44 866.001 1188.12 865.908C1307.8 865.815 1406.86 766.596 1406.77 646.915C1406.67 527.234 1307.46 428.169 1187.78 428.262C1068.1 428.356 969.035 527.574 969.128 647.255Z" stroke="#6AB5FB" stroke-opacity="0.35" stroke-width="136.256"/>
<path opacity="0.42601" d="M1929.66 2826.15C2033.91 2855.65 2144.7 2793.73 2174.2 2689.48C2203.7 2585.24 2141.78 2474.45 2037.53 2444.95C1933.29 2415.45 1822.49 2477.37 1792.99 2581.61C1763.5 2685.86 1825.42 2796.65 1929.66 2826.15Z" stroke="#6AB5FB" stroke-opacity="0.35" stroke-width="123.345"/>
<path opacity="0.684637" d="M1405.41 -416.093L1583.73 -356.312C1652.06 -333.405 1688.88 -259.441 1665.98 -191.11L1606.2 -12.8016C1550.28 154.01 1369.71 243.903 1202.9 187.98C1036.09 132.057 946.196 -48.5038 1002.12 -215.313C1058.04 -382.123 1238.6 -472.016 1405.41 -416.093Z" stroke="#6AB5FB" stroke-opacity="0.35" stroke-width="162.165"/>
<path opacity="0.575892" d="M2082.91 3137.25L2102.12 3218.59C2109.49 3249.76 2090.19 3281 2059.02 3288.36L1977.68 3307.57C1901.59 3325.55 1825.34 3278.44 1807.36 3202.35C1789.39 3126.26 1836.5 3050 1912.59 3032.03C1988.68 3014.05 2064.93 3061.16 2082.91 3137.25Z" stroke="#6AB5FB" stroke-opacity="0.35" stroke-width="72.0647"/>
<path opacity="0.532008" d="M40.3881 690.857C-24.5711 660.669 -103.39 689.472 -133.578 754.43C-163.766 819.388 -134.962 898.207 -70.0033 928.395C-5.04409 958.584 73.7748 929.781 103.963 864.823C134.151 799.864 105.347 721.046 40.3881 690.857Z" stroke="#6AB5FB" stroke-opacity="0.35" stroke-width="81.552"/>
<path opacity="0.524635" d="M2200.67 71.3736C2339.04 38.4953 2426.42 -103.361 2393.55 -241.726C2360.67 -380.092 2218.81 -467.476 2080.44 -434.598C1942.08 -401.719 1854.69 -259.863 1887.57 -121.498C1920.45 16.8676 2062.3 104.252 2200.67 71.3736Z" stroke="#6AB5FB" stroke-opacity="0.35" stroke-width="161.917"/>
<path opacity="0.360882" d="M1056.52 1761.79C987.572 1633.73 824.368 1584.76 696.305 1653.71C568.243 1722.66 519.276 1885.86 588.227 2013.93C657.179 2141.99 820.383 2190.96 948.446 2122.01C1076.51 2053.06 1125.48 1889.85 1056.52 1761.79Z" stroke="#6AB5FB" stroke-opacity="0.35" stroke-width="165.591"/>
<path opacity="0.954823" d="M739.272 251.63C806.618 102.69 739.027 -76.4785 590.088 -143.823C441.149 -211.168 261.982 -143.575 194.636 5.36563C127.291 154.306 194.882 333.474 343.82 400.819C492.759 468.164 671.926 400.571 739.272 251.63Z" stroke="#6AB5FB" stroke-opacity="0.35" stroke-width="186.097"/>
<path opacity="0.424303" d="M1398.92 3138.11L1484.94 3115.41C1517.9 3106.71 1551.67 3126.38 1560.36 3159.34L1583.06 3245.35C1604.29 3325.81 1556.28 3408.25 1475.82 3429.49C1395.35 3450.72 1312.91 3402.71 1291.68 3322.24C1270.45 3241.78 1318.46 3159.34 1398.92 3138.11Z" stroke="#6AB5FB" stroke-opacity="0.35" stroke-width="76.7032"/>
<path opacity="0.781092" d="M232.972 2736.85L341.068 2770.61C382.49 2783.55 405.58 2827.62 392.641 2869.04L358.878 2977.13C327.293 3078.25 219.712 3134.62 118.591 3103.03C17.4715 3071.45 -38.8974 2963.87 -7.3119 2862.75C24.2737 2761.63 131.852 2705.26 232.972 2736.85Z" stroke="#6AB5FB" stroke-opacity="0.35" stroke-width="97.6465"/>
<path opacity="0.320908" d="M-164.315 194.906L-89.2318 365.279C-60.4605 430.565 -90.0613 506.813 -155.347 535.584L-325.71 610.663C-485.088 680.9 -671.23 608.637 -741.468 449.258C-811.705 289.881 -739.443 103.741 -580.067 33.5044C-420.69 -36.7325 -234.552 35.5295 -164.315 194.906Z" stroke="#6AB5FB" stroke-opacity="0.35" stroke-width="160.536"/>
<path opacity="0.874104" d="M1074.29 3475.21C974.257 3372.75 806.513 3370.74 704.053 3470.78C601.594 3570.81 599.585 3738.56 699.621 3841.02C799.657 3943.48 967.401 3945.49 1069.86 3845.45C1172.32 3745.42 1174.33 3577.67 1074.29 3475.21Z" stroke="#6AB5FB" stroke-opacity="0.35" stroke-width="163.029"/>
<path opacity="0.594851" d="M566.13 2374.42C528.002 2424.2 537.653 2497.02 587.432 2535.15C637.211 2573.28 710.031 2563.62 748.159 2513.84C786.287 2464.06 776.636 2391.24 726.857 2353.12C677.078 2314.99 604.258 2324.64 566.13 2374.42Z" stroke="#6AB5FB" stroke-opacity="0.35" stroke-width="71.3876"/>
<path opacity="0.406926" d="M1579.76 2797.37L1530.89 2883.53C1512.16 2916.54 1470.21 2928.13 1437.2 2909.4L1351.04 2860.53C1270.44 2814.82 1242.16 2712.41 1287.88 2631.81C1333.6 2551.21 1436 2522.93 1516.6 2568.65C1597.2 2614.37 1625.47 2716.77 1579.76 2797.37Z" stroke="#6AB5FB" stroke-opacity="0.35" stroke-width="85.4102"/>
<path opacity="0.990339" d="M1696.9 4000.43C1756.92 3911.61 1733.07 3788.32 1644.26 3728.3C1555.46 3668.28 1432.16 3692.12 1372.14 3780.93C1312.11 3869.74 1335.96 3993.04 1424.77 4053.06C1513.58 4113.08 1636.87 4089.24 1696.9 4000.43Z" stroke="#6AB5FB" stroke-opacity="0.35" stroke-width="122.038"/>
<path opacity="0.5" d="M178.589 4130.57L136.968 4151.55C121.019 4159.58 101.575 4153.17 93.5369 4137.22L72.5626 4095.6C52.9408 4056.67 68.5974 4009.2 107.533 3989.58C146.467 3969.95 193.937 3985.61 213.558 4024.55C233.18 4063.48 217.524 4110.95 178.589 4130.57Z" stroke="#6AB5FB" stroke-opacity="0.35" stroke-width="40.1872"/>
<path opacity="0.612358" d="M1116.35 2288.33L1168.52 2273.15C1188.51 2267.33 1209.43 2278.82 1215.25 2298.81L1230.43 2350.98C1244.63 2399.79 1216.58 2450.87 1167.78 2465.07C1118.97 2479.27 1067.89 2451.22 1053.69 2402.41C1039.49 2353.61 1067.54 2302.53 1116.35 2288.33Z" stroke="#6AB5FB" stroke-opacity="0.35" stroke-width="46.8512"/>
<path opacity="0.822684" d="M-421.367 1732.39C-473.809 1815.67 -448.268 1928.09 -364.993 1980.53C-281.718 2032.98 -169.291 2007.43 -116.849 1924.16C-64.4061 1840.88 -89.9476 1728.45 -173.223 1676.01C-256.498 1623.57 -368.924 1649.11 -421.367 1732.39Z" stroke="#6AB5FB" stroke-opacity="0.35" stroke-width="112.043"/>
<path opacity="0.762893" d="M1950.22 379.173C1919.4 293.672 1823.04 248.373 1737.54 279.19C1652.04 310.007 1606.74 406.363 1637.56 491.864C1668.38 577.364 1764.73 622.664 1850.23 591.847C1935.73 561.03 1981.03 464.674 1950.22 379.173Z" stroke="#6AB5FB" stroke-opacity="0.35" stroke-width="103.472"/>
<path opacity="0.985951" d="M2090.71 3668.64C2049.84 3661.32 2009.91 3689.11 2002.59 3729.98C1995.26 3770.86 2023.06 3810.78 2063.93 3818.11C2104.8 3825.43 2144.73 3797.64 2152.05 3756.76C2159.38 3715.89 2131.58 3675.96 2090.71 3668.64Z" stroke="#6AB5FB" stroke-opacity="0.35" stroke-width="47.2756"/>
<path opacity="0.795146" d="M213.234 2440.01C323.982 2432.49 409.496 2334.52 401.977 2223.77C394.459 2113.02 296.488 2027.51 185.74 2035.03C74.9919 2042.55 -10.5218 2140.52 -3.0031 2251.26C4.51563 2362.01 102.486 2447.52 213.234 2440.01Z" stroke="#6AB5FB" stroke-opacity="0.35" stroke-width="126.377"/>
<path opacity="0.221721" d="M1342.27 2002.08L1330.5 1833.77C1325.99 1769.27 1374.62 1713.33 1439.12 1708.82L1607.42 1697.05C1764.87 1686.04 1901.43 1804.76 1912.44 1962.21C1923.45 2119.65 1804.74 2256.22 1647.29 2267.23C1489.84 2278.24 1353.28 2159.52 1342.27 2002.08Z" stroke="#6AB5FB" stroke-opacity="0.35" stroke-width="145.479"/>
<path opacity="0.900747" d="M348.937 3631.92L296.274 3722C276.094 3756.52 231.752 3768.14 197.234 3747.96L107.16 3695.3C22.8941 3646.04 -5.48064 3537.79 43.7838 3453.52C93.0477 3369.26 201.295 3340.88 285.56 3390.15C369.826 3439.41 398.2 3547.66 348.937 3631.92Z" stroke="#6AB5FB" stroke-opacity="0.35" stroke-width="89.9701"/>
<path opacity="0.756829" d="M649.821 2986.03C693.286 3095.89 820.292 3150.88 930.144 3107.42C1040 3063.95 1094.99 2936.95 1051.52 2827.09C1008.06 2717.24 881.053 2662.25 771.201 2705.71C661.349 2749.17 606.356 2876.18 649.821 2986.03Z" stroke="#6AB5FB" stroke-opacity="0.35" stroke-width="134.501"/>
<path opacity="0.581574" d="M2092.66 1293.85L2016.12 1423.8C1986.79 1473.59 1922.64 1490.18 1872.85 1460.85L1742.91 1384.31C1621.35 1312.71 1580.85 1156.11 1652.45 1034.55C1724.06 912.992 1880.65 872.494 2002.21 944.097C2123.77 1015.7 2164.27 1172.29 2092.66 1293.85Z" stroke="#6AB5FB" stroke-opacity="0.35" stroke-width="130.04"/>
<path opacity="0.438022" d="M410.445 4067.85C456.28 4089.44 512.131 4069.35 533.718 4023.52C555.305 3977.69 535.218 3921.83 489.383 3900.25C443.548 3878.66 387.697 3898.75 366.11 3944.58C344.523 3990.41 364.61 4046.27 410.445 4067.85Z" stroke="#6AB5FB" stroke-opacity="0.35" stroke-width="57.681"/>
<path opacity="0.82463" d="M1103.89 1096.45L1182.15 1169.74C1212.14 1197.82 1213.68 1244.9 1185.6 1274.89L1112.32 1353.14C1043.76 1426.35 928.84 1430.12 855.63 1361.57C782.421 1293.01 778.647 1178.09 847.202 1104.88C915.757 1031.67 1030.68 1027.9 1103.89 1096.45Z" stroke="#6AB5FB" stroke-opacity="0.35" stroke-width="92.4467"/>
</g>
</g>
<defs>
<filter id="filter0_f_2902_142" x="-1005.17" y="-605.627" width="4083.87" height="5248.55" filterUnits="userSpaceOnUse" color-interpolation-filters="sRGB">
<feFlood flood-opacity="0" result="BackgroundImageFix"/>
<feBlend mode="normal" in="SourceGraphic" in2="BackgroundImageFix" result="shape"/>
<feGaussianBlur stdDeviation="41.5613" result="effect1_foregroundBlur_2902_142"/>
</filter>
</defs>
</svg>
