<svg viewBox="0 0 256 256" fill="none" xmlns="http://www.w3.org/2000/svg">
<mask id="mask0_2239_14" style="mask-type:alpha" maskUnits="userSpaceOnUse" x="0" y="0" width="256" height="256">
<rect width="256" height="256" fill="black"/>
</mask>
<g mask="url(#mask0_2239_14)">
<path d="M141 33V58C141 64.6274 146.373 70 153 70H178" stroke="#48A7FF" stroke-width="14"/>
<path d="M138.6 26H88C78.6112 26 71 33.6112 71 43V153C71 162.389 78.6112 170 88 170H168C177.389 170 185 162.389 185 153V72.0418C185 67.4969 183.18 63.1413 179.947 59.9474L150.546 30.9057C147.365 27.7625 143.072 26 138.6 26Z" stroke="#48A7FF" stroke-width="14"/>
<path d="M120.757 127.7C120.757 125.367 121.123 123.3 121.857 121.5C122.657 119.7 123.623 118.1 124.757 116.7C125.957 115.3 127.223 114 128.557 112.8C129.89 111.6 131.123 110.467 132.257 109.4C133.457 108.267 134.423 107.1 135.157 105.9C135.957 104.7 136.357 103.367 136.357 101.9C136.357 99.5 135.357 97.5667 133.357 96.1C131.423 94.6333 128.823 93.9 125.557 93.9C122.423 93.9 119.623 94.5667 117.157 95.9C114.69 97.1667 112.657 98.9667 111.057 101.3L98.9566 94.2C101.623 90.1333 105.323 86.9 110.057 84.5C114.79 82.0333 120.523 80.8 127.257 80.8C132.257 80.8 136.657 81.5333 140.457 83C144.257 84.4 147.223 86.4667 149.357 89.2C151.557 91.9333 152.657 95.3 152.657 99.3C152.657 101.9 152.257 104.2 151.457 106.2C150.657 108.2 149.623 109.933 148.357 111.4C147.09 112.867 145.723 114.233 144.257 115.5C142.857 116.767 141.523 118 140.257 119.2C138.99 120.4 137.923 121.667 137.057 123C136.257 124.333 135.857 125.9 135.857 127.7H120.757ZM128.357 152.8C125.557 152.8 123.257 151.9 121.457 150.1C119.657 148.3 118.757 146.167 118.757 143.7C118.757 141.167 119.657 139.067 121.457 137.4C123.257 135.667 125.557 134.8 128.357 134.8C131.223 134.8 133.523 135.667 135.257 137.4C137.057 139.067 137.957 141.167 137.957 143.7C137.957 146.167 137.057 148.3 135.257 150.1C133.523 151.9 131.223 152.8 128.357 152.8Z" fill="#48A7FF"/>
</g>
</svg>
