<svg viewBox="0 0 256 256" fill="none" xmlns="http://www.w3.org/2000/svg">
<mask id="mask0_2317_177" style="mask-type:alpha" maskUnits="userSpaceOnUse" x="0" y="0" width="256" height="256">
<rect width="256" height="256" fill="white"/>
</mask>
<g mask="url(#mask0_2317_177)">
<path d="M44 213C44 206.925 48.9249 202 55 202H128.5H202C208.075 202 213 206.925 213 213V221C213 227.075 208.075 232 202 232H148.444C145.588 232 142.844 230.889 140.793 228.903L128.5 217L116.207 228.903C114.156 230.889 111.412 232 108.556 232H55C48.9249 232 44 227.075 44 221V213Z" fill="#0084FF"/>
<path d="M44 42C44 48.0751 48.9249 53 55 53H128.5H202C208.075 53 213 48.0751 213 42V34C213 27.9249 208.075 23 202 23H148.444C145.588 23 142.844 24.1108 140.793 26.0974L128.5 38L116.207 26.0974C114.156 24.1108 111.412 23 108.556 23H55C48.9249 23 44 27.9249 44 34V42Z" fill="#0084FF"/>
<rect x="113" y="43" width="30" height="169" rx="11" fill="#0084FF"/>
</g>
</svg>
