<svg viewBox="0 0 256 256" fill="none" xmlns="http://www.w3.org/2000/svg">
<mask id="mask0_57_813" style="mask-type:alpha" maskUnits="userSpaceOnUse" x="0" y="0" width="256" height="256">
<rect width="256" height="256" fill="var(--gray)"/>
</mask>
<g mask="url(#mask0_57_813)">
<mask id="path-2-outside-1_57_813" maskUnits="userSpaceOnUse" x="61" y="60" width="136" height="137" fill="black">
<rect fill="var(--pageColor)" x="61" y="60" width="136" height="137"/>
<path d="M113.207 185C105.34 185 98.407 182.867 92.407 178.6C86.407 174.333 81.7404 168.067 78.407 159.8C75.0737 151.4 73.407 141.067 73.407 128.8C73.407 110.133 77.207 96 84.807 86.4C92.5404 76.8 102.807 72 115.607 72C120.407 72 124.607 72.6 128.207 73.8C131.807 75 134.94 76.8 137.607 79.2C140.274 81.6 142.607 84.6667 144.607 88.4H146.007L149.007 73.8H171.807V148.4C171.807 152.933 172.54 156 174.007 157.6C175.474 159.2 177.274 160 179.407 160C180.207 160 181.14 159.867 182.207 159.6C183.407 159.333 184.274 159.133 184.807 159V182.4C184.274 182.8 183.14 183.2 181.407 183.6C179.807 184 178.074 184.333 176.207 184.6C174.34 184.867 172.74 185 171.407 185C164.474 185 158.94 183.8 154.807 181.4C150.807 179 147.54 174.733 145.007 168.6H142.807C141.074 171.533 138.807 174.267 136.007 176.8C133.34 179.333 130.14 181.333 126.407 182.8C122.674 184.267 118.274 185 113.207 185ZM123.607 161.2C128.14 161.2 131.74 160.133 134.407 158C137.207 155.733 139.207 152.267 140.407 147.6C141.607 142.933 142.207 137 142.207 129.8V128.6C142.207 117.933 140.807 109.8 138.007 104.2C135.34 98.6 130.407 95.8 123.207 95.8C117.474 95.8 113.14 98.6667 110.207 104.4C107.407 110 106.007 118.2 106.007 129C106.007 139.667 107.407 147.733 110.207 153.2C113.14 158.533 117.607 161.2 123.607 161.2Z"/>
</mask>
<path d="M113.207 185C105.34 185 98.407 182.867 92.407 178.6C86.407 174.333 81.7404 168.067 78.407 159.8C75.0737 151.4 73.407 141.067 73.407 128.8C73.407 110.133 77.207 96 84.807 86.4C92.5404 76.8 102.807 72 115.607 72C120.407 72 124.607 72.6 128.207 73.8C131.807 75 134.94 76.8 137.607 79.2C140.274 81.6 142.607 84.6667 144.607 88.4H146.007L149.007 73.8H171.807V148.4C171.807 152.933 172.54 156 174.007 157.6C175.474 159.2 177.274 160 179.407 160C180.207 160 181.14 159.867 182.207 159.6C183.407 159.333 184.274 159.133 184.807 159V182.4C184.274 182.8 183.14 183.2 181.407 183.6C179.807 184 178.074 184.333 176.207 184.6C174.34 184.867 172.74 185 171.407 185C164.474 185 158.94 183.8 154.807 181.4C150.807 179 147.54 174.733 145.007 168.6H142.807C141.074 171.533 138.807 174.267 136.007 176.8C133.34 179.333 130.14 181.333 126.407 182.8C122.674 184.267 118.274 185 113.207 185ZM123.607 161.2C128.14 161.2 131.74 160.133 134.407 158C137.207 155.733 139.207 152.267 140.407 147.6C141.607 142.933 142.207 137 142.207 129.8V128.6C142.207 117.933 140.807 109.8 138.007 104.2C135.34 98.6 130.407 95.8 123.207 95.8C117.474 95.8 113.14 98.6667 110.207 104.4C107.407 110 106.007 118.2 106.007 129C106.007 139.667 107.407 147.733 110.207 153.2C113.14 158.533 117.607 161.2 123.607 161.2Z" fill="var(--pageColor)"/>
<path d="M92.407 178.6L99.3613 168.821L99.3613 168.821L92.407 178.6ZM78.407 159.8L67.2531 164.226L67.2654 164.257L67.2777 164.288L78.407 159.8ZM84.807 86.4L75.462 78.872L75.4301 78.9117L75.3985 78.9516L84.807 86.4ZM128.207 73.8L132.002 62.4158L132.002 62.4158L128.207 73.8ZM137.607 79.2L145.635 70.2805L145.635 70.2804L137.607 79.2ZM144.607 88.4L134.029 94.0666L137.422 100.4H144.607V88.4ZM146.007 88.4V100.4H155.792L157.761 90.8153L146.007 88.4ZM149.007 73.8V61.8H139.222L137.253 71.3847L149.007 73.8ZM171.807 73.8H183.807V61.8H171.807V73.8ZM174.007 157.6L165.161 165.709L165.161 165.709L174.007 157.6ZM182.207 159.6L179.604 147.886L179.45 147.92L179.297 147.958L182.207 159.6ZM184.807 159H196.807V143.631L181.897 147.358L184.807 159ZM184.807 182.4L192.007 192L196.807 188.4V182.4H184.807ZM181.407 183.6L178.709 171.907L178.602 171.932L178.497 171.958L181.407 183.6ZM154.807 181.4L148.633 191.69L148.707 191.734L148.781 191.777L154.807 181.4ZM145.007 168.6L156.098 164.019L153.034 156.6H145.007V168.6ZM142.807 168.6V156.6H135.959L132.476 162.495L142.807 168.6ZM136.007 176.8L127.956 167.902L127.848 167.999L127.742 168.1L136.007 176.8ZM126.407 182.8L122.019 171.631L122.019 171.631L126.407 182.8ZM134.407 158L141.903 167.37L141.93 167.349L141.957 167.327L134.407 158ZM140.407 147.6L152.029 150.588L152.029 150.588L140.407 147.6ZM138.007 104.2L127.173 109.359L127.222 109.463L127.274 109.567L138.007 104.2ZM110.207 104.4L99.5241 98.9343L99.4988 98.9837L99.4739 99.0334L110.207 104.4ZM110.207 153.2L99.5265 158.671L99.6072 158.828L99.6924 158.983L110.207 153.2ZM113.207 185V173C107.652 173 103.188 171.542 99.3613 168.821L92.407 178.6L85.4527 188.379C93.6263 194.192 103.028 197 113.207 197V185ZM92.407 178.6L99.3613 168.821C95.5907 166.139 92.1942 161.904 89.5363 155.312L78.407 159.8L67.2777 164.288C71.2865 174.229 77.2234 182.527 85.4527 188.379L92.407 178.6ZM78.407 159.8L89.5609 155.374C86.9475 148.788 85.407 140.059 85.407 128.8H73.407H61.407C61.407 142.075 63.1999 154.012 67.2531 164.226L78.407 159.8ZM73.407 128.8H85.407C85.407 111.489 88.9734 100.47 94.2156 93.8484L84.807 86.4L75.3985 78.9516C65.4407 91.5298 61.407 108.778 61.407 128.8H73.407ZM84.807 86.4L94.1521 93.928C99.5082 87.2789 106.277 84 115.607 84V72V60C99.337 60 85.5725 66.3211 75.462 78.872L84.807 86.4ZM115.607 72V84C119.443 84 122.311 84.4836 124.412 85.1842L128.207 73.8L132.002 62.4158C126.903 60.7163 121.371 60 115.607 60V72ZM128.207 73.8L124.412 85.1842C126.539 85.8931 128.209 86.8864 129.579 88.1195L137.607 79.2L145.635 70.2804C141.671 66.7136 137.075 64.1069 132.002 62.4158L128.207 73.8ZM137.607 79.2L129.579 88.1195C131.047 89.4401 132.569 91.3411 134.029 94.0666L144.607 88.4L155.185 82.7333C152.645 77.9922 149.501 73.7598 145.635 70.2805L137.607 79.2ZM144.607 88.4V100.4H146.007V88.4V76.4H144.607V88.4ZM146.007 88.4L157.761 90.8153L160.761 76.2153L149.007 73.8L137.253 71.3847L134.253 85.9847L146.007 88.4ZM149.007 73.8V85.8H171.807V73.8V61.8H149.007V73.8ZM171.807 73.8H159.807V148.4H171.807H183.807V73.8H171.807ZM171.807 148.4H159.807C159.807 151.235 160.029 154.141 160.686 156.891C161.327 159.569 162.565 162.876 165.161 165.709L174.007 157.6L182.853 149.491C183.439 150.131 183.753 150.698 183.899 151.008C184.043 151.313 184.06 151.444 184.028 151.309C183.997 151.18 183.938 150.881 183.889 150.372C183.84 149.868 183.807 149.217 183.807 148.4H171.807ZM174.007 157.6L165.161 165.709C168.856 169.739 173.844 172 179.407 172V160V148C179.878 148 180.572 148.097 181.331 148.434C182.084 148.769 182.587 149.201 182.853 149.491L174.007 157.6ZM179.407 160V172C181.476 172 183.426 171.664 185.117 171.242L182.207 159.6L179.297 147.958C179.2 147.982 179.128 147.998 179.079 148.008C179.029 148.018 179.007 148.021 179.01 148.021C179.013 148.02 179.048 148.015 179.112 148.01C179.175 148.005 179.275 148 179.407 148V160ZM182.207 159.6L184.81 171.314C186.019 171.046 187.019 170.816 187.717 170.642L184.807 159L181.897 147.358C181.528 147.45 180.795 147.621 179.604 147.886L182.207 159.6ZM184.807 159H172.807V182.4H184.807H196.807V159H184.807ZM184.807 182.4L177.607 172.8C177.965 172.532 178.279 172.333 178.517 172.194C178.757 172.053 178.958 171.951 179.102 171.882C179.379 171.749 179.552 171.688 179.563 171.684C179.57 171.682 179.323 171.765 178.709 171.907L181.407 183.6L184.105 195.293C185.224 195.035 186.411 194.718 187.551 194.316C188.502 193.98 190.278 193.297 192.007 192L184.807 182.4ZM181.407 183.6L178.497 171.958C177.349 172.245 176.025 172.504 174.51 172.721L176.207 184.6L177.904 196.479C180.122 196.162 182.266 195.755 184.317 195.242L181.407 183.6ZM176.207 184.6L174.51 172.721C172.995 172.937 171.994 173 171.407 173V185V197C173.487 197 175.686 196.796 177.904 196.479L176.207 184.6ZM171.407 185V173C165.695 173 162.492 171.986 160.833 171.023L154.807 181.4L148.781 191.777C155.389 195.614 163.252 197 171.407 197V185ZM154.807 181.4L160.981 171.11C159.95 170.491 158.051 168.746 156.098 164.019L145.007 168.6L133.916 173.181C137.03 180.721 141.664 187.509 148.633 191.69L154.807 181.4ZM145.007 168.6V156.6H142.807V168.6V180.6H145.007V168.6ZM142.807 168.6L132.476 162.495C131.42 164.282 129.956 166.092 127.956 167.902L136.007 176.8L144.058 185.698C147.658 182.441 150.727 178.785 153.138 174.705L142.807 168.6ZM136.007 176.8L127.742 168.1C126.294 169.475 124.444 170.678 122.019 171.631L126.407 182.8L130.795 193.969C135.837 191.988 140.386 189.191 144.272 185.5L136.007 176.8ZM126.407 182.8L122.019 171.631C119.998 172.425 117.151 173 113.207 173V185V197C119.396 197 125.35 196.108 130.795 193.969L126.407 182.8ZM123.607 161.2V173.2C129.971 173.2 136.502 171.691 141.903 167.37L134.407 158L126.911 148.63C126.904 148.635 126.759 148.758 126.298 148.894C125.806 149.04 124.95 149.2 123.607 149.2V161.2ZM134.407 158L141.957 167.327C147.339 162.97 150.402 156.916 152.029 150.588L140.407 147.6L128.785 144.612C128.012 147.618 127.075 148.497 126.857 148.673L134.407 158ZM140.407 147.6L152.029 150.588C153.571 144.593 154.207 137.564 154.207 129.8H142.207H130.207C130.207 136.436 129.643 141.274 128.785 144.612L140.407 147.6ZM142.207 129.8H154.207V128.6H142.207H130.207V129.8H142.207ZM142.207 128.6H154.207C154.207 117.21 152.766 106.884 148.74 98.8334L138.007 104.2L127.274 109.567C128.849 112.716 130.207 118.657 130.207 128.6H142.207ZM138.007 104.2L148.841 99.0408C146.554 94.2376 143.037 90.1916 138.23 87.4638C133.534 84.7982 128.335 83.8 123.207 83.8V95.8V107.8C125.279 107.8 126.147 108.202 126.384 108.336C126.511 108.408 126.793 108.562 127.173 109.359L138.007 104.2ZM123.207 95.8V83.8C118.239 83.8 113.368 85.0763 109.036 87.9418C104.781 90.757 101.709 94.6645 99.5241 98.9343L110.207 104.4L120.89 109.866C121.639 108.402 122.2 108.01 122.278 107.958C122.327 107.925 122.372 107.902 122.456 107.879C122.549 107.852 122.78 107.8 123.207 107.8V95.8ZM110.207 104.4L99.4739 99.0334C95.4412 107.099 94.007 117.504 94.007 129H106.007H118.007C118.007 118.896 119.373 112.901 120.94 109.767L110.207 104.4ZM106.007 129H94.007C94.007 140.359 95.4385 150.689 99.5265 158.671L110.207 153.2L120.888 147.729C119.376 144.777 118.007 138.974 118.007 129H106.007ZM110.207 153.2L99.6924 158.983C102.01 163.196 105.252 166.904 109.606 169.503C113.969 172.108 118.779 173.2 123.607 173.2V161.2V149.2C122.435 149.2 122.012 148.958 121.908 148.897C121.796 148.829 121.338 148.537 120.722 147.417L110.207 153.2Z" fill="var(--pageColor)" mask="url(#path-2-outside-1_57_813)"/>
<path d="M113.207 185C105.34 185 98.407 182.867 92.407 178.6C86.407 174.333 81.7404 168.067 78.407 159.8C75.0737 151.4 73.407 141.067 73.407 128.8C73.407 110.133 77.207 96 84.807 86.4C92.5404 76.8 102.807 72 115.607 72C120.407 72 124.607 72.6 128.207 73.8C131.807 75 134.94 76.8 137.607 79.2C140.274 81.6 142.607 84.6667 144.607 88.4H146.007L149.007 73.8H171.807V148.4C171.807 152.933 172.54 156 174.007 157.6C175.474 159.2 177.274 160 179.407 160C180.207 160 181.14 159.867 182.207 159.6C183.407 159.333 184.274 159.133 184.807 159V182.4C184.274 182.8 183.14 183.2 181.407 183.6C179.807 184 178.074 184.333 176.207 184.6C174.34 184.867 172.74 185 171.407 185C164.474 185 158.94 183.8 154.807 181.4C150.807 179 147.54 174.733 145.007 168.6H142.807C141.074 171.533 138.807 174.267 136.007 176.8C133.34 179.333 130.14 181.333 126.407 182.8C122.674 184.267 118.274 185 113.207 185ZM123.607 161.2C128.14 161.2 131.74 160.133 134.407 158C137.207 155.733 139.207 152.267 140.407 147.6C141.607 142.933 142.207 137 142.207 129.8V128.6C142.207 117.933 140.807 109.8 138.007 104.2C135.34 98.6 130.407 95.8 123.207 95.8C117.474 95.8 113.14 98.6667 110.207 104.4C107.407 110 106.007 118.2 106.007 129C106.007 139.667 107.407 147.733 110.207 153.2C113.14 158.533 117.607 161.2 123.607 161.2Z" fill="var(--darkGray)"/>
</g>
</svg>
