<svg viewBox="0 0 256 256" fill="none" xmlns="http://www.w3.org/2000/svg">
<mask id="mask0_57_832" style="mask-type:alpha" maskUnits="userSpaceOnUse" x="0" y="0" width="256" height="256">
<rect width="256" height="256" fill="var(--gray)"/>
</mask>
<g mask="url(#mask0_57_832)">
<mask id="path-2-outside-1_57_832" maskUnits="userSpaceOnUse" x="74" y="42" width="113" height="206" fill="black">
<rect fill="var(--pageColor)" x="74" y="42" width="113" height="206"/>
<path d="M86.2752 235.2V96.96C86.2752 87.24 87.9552 79.26 91.3152 73.02C94.7952 66.66 99.6552 61.98 105.895 58.98C112.255 55.86 119.695 54.3 128.215 54.3C136.495 54.3 143.515 55.62 149.275 58.26C155.155 60.78 159.595 64.62 162.595 69.78C165.715 74.82 167.275 81.18 167.275 88.86C167.275 94.62 166.375 99.6 164.575 103.8C162.775 108 160.195 111.36 156.835 113.88C153.475 116.4 149.455 118.14 144.775 119.1V119.64C150.775 120.48 155.995 122.22 160.435 124.86C164.875 127.5 168.355 131.22 170.875 136.02C173.395 140.7 174.655 146.7 174.655 154.02C174.655 162.42 172.975 169.62 169.615 175.62C166.375 181.5 161.875 186 156.115 189.12C150.355 192.24 143.755 193.8 136.315 193.8C133.675 193.8 131.155 193.56 128.755 193.08C126.475 192.72 124.195 192.12 121.915 191.28C119.755 190.44 117.475 189.42 115.075 188.22V235.2H86.2752ZM129.655 172.02C135.295 172.02 139.315 170.28 141.715 166.8C144.235 163.2 145.495 158.16 145.495 151.68C145.495 146.76 144.715 142.8 143.155 139.8C141.715 136.68 139.615 134.46 136.855 133.14C134.095 131.7 130.915 130.98 127.315 130.98H121.015V110.82H127.315C130.435 110.82 132.835 110.04 134.515 108.48C136.315 106.8 137.575 104.58 138.295 101.82C139.135 98.94 139.555 95.7 139.555 92.1C139.555 86.46 138.475 82.38 136.315 79.86C134.275 77.22 131.335 75.9 127.495 75.9C124.495 75.9 122.035 76.62 120.115 78.06C118.315 79.38 116.995 81.6 116.155 84.72C115.435 87.72 115.075 91.86 115.075 97.14V165.9C117.235 167.7 119.395 169.2 121.555 170.4C123.715 171.48 126.415 172.02 129.655 172.02Z"/>
</mask>
<path d="M86.2752 235.2V96.96C86.2752 87.24 87.9552 79.26 91.3152 73.02C94.7952 66.66 99.6552 61.98 105.895 58.98C112.255 55.86 119.695 54.3 128.215 54.3C136.495 54.3 143.515 55.62 149.275 58.26C155.155 60.78 159.595 64.62 162.595 69.78C165.715 74.82 167.275 81.18 167.275 88.86C167.275 94.62 166.375 99.6 164.575 103.8C162.775 108 160.195 111.36 156.835 113.88C153.475 116.4 149.455 118.14 144.775 119.1V119.64C150.775 120.48 155.995 122.22 160.435 124.86C164.875 127.5 168.355 131.22 170.875 136.02C173.395 140.7 174.655 146.7 174.655 154.02C174.655 162.42 172.975 169.62 169.615 175.62C166.375 181.5 161.875 186 156.115 189.12C150.355 192.24 143.755 193.8 136.315 193.8C133.675 193.8 131.155 193.56 128.755 193.08C126.475 192.72 124.195 192.12 121.915 191.28C119.755 190.44 117.475 189.42 115.075 188.22V235.2H86.2752ZM129.655 172.02C135.295 172.02 139.315 170.28 141.715 166.8C144.235 163.2 145.495 158.16 145.495 151.68C145.495 146.76 144.715 142.8 143.155 139.8C141.715 136.68 139.615 134.46 136.855 133.14C134.095 131.7 130.915 130.98 127.315 130.98H121.015V110.82H127.315C130.435 110.82 132.835 110.04 134.515 108.48C136.315 106.8 137.575 104.58 138.295 101.82C139.135 98.94 139.555 95.7 139.555 92.1C139.555 86.46 138.475 82.38 136.315 79.86C134.275 77.22 131.335 75.9 127.495 75.9C124.495 75.9 122.035 76.62 120.115 78.06C118.315 79.38 116.995 81.6 116.155 84.72C115.435 87.72 115.075 91.86 115.075 97.14V165.9C117.235 167.7 119.395 169.2 121.555 170.4C123.715 171.48 126.415 172.02 129.655 172.02Z" fill="var(--pageColor)"/>
<path d="M86.2752 235.2H74.2752V247.2H86.2752V235.2ZM91.3152 73.02L80.788 67.2599L80.7686 67.2953L80.7495 67.3308L91.3152 73.02ZM105.895 58.98L111.095 69.795L111.138 69.7744L111.18 69.7535L105.895 58.98ZM149.275 58.26L144.275 69.1688L144.411 69.231L144.548 69.2897L149.275 58.26ZM162.595 69.78L152.221 75.8114L152.305 75.955L152.392 76.0963L162.595 69.78ZM164.575 103.8L175.605 108.527L175.605 108.527L164.575 103.8ZM156.835 113.88L149.635 104.28L149.635 104.28L156.835 113.88ZM144.775 119.1L142.364 107.345L132.775 109.312V119.1H144.775ZM144.775 119.64H132.775V130.077L143.111 131.524L144.775 119.64ZM160.435 124.86L166.568 114.546L166.568 114.546L160.435 124.86ZM170.875 136.02L160.25 141.598L160.28 141.654L160.31 141.709L170.875 136.02ZM169.615 175.62L159.145 169.757L159.125 169.793L159.105 169.829L169.615 175.62ZM156.115 189.12L161.831 199.672L161.831 199.672L156.115 189.12ZM128.755 193.08L131.109 181.313L130.869 181.265L130.627 181.227L128.755 193.08ZM121.915 191.28L117.566 202.464L117.666 202.503L117.767 202.54L121.915 191.28ZM115.075 188.22L120.442 177.487L103.075 168.804V188.22H115.075ZM115.075 235.2V247.2H127.075V235.2H115.075ZM141.715 166.8L131.884 159.918L131.86 159.953L131.837 159.987L141.715 166.8ZM143.155 139.8L132.26 144.829L132.378 145.085L132.509 145.336L143.155 139.8ZM136.855 133.14L131.304 143.779L131.489 143.876L131.678 143.966L136.855 133.14ZM121.015 130.98H109.015V142.98H121.015V130.98ZM121.015 110.82V98.82H109.015V110.82H121.015ZM134.515 108.48L142.681 117.274L142.692 117.263L142.703 117.253L134.515 108.48ZM138.295 101.82L126.775 98.46L126.727 98.6248L126.684 98.7909L138.295 101.82ZM136.315 79.86L126.82 87.1974L127.006 87.4383L127.204 87.6695L136.315 79.86ZM120.115 78.06L127.212 87.7369L127.264 87.6987L127.315 87.66L120.115 78.06ZM116.155 84.72L104.568 81.6003L104.525 81.7594L104.487 81.9195L116.155 84.72ZM115.075 165.9H103.075V171.52L107.393 175.119L115.075 165.9ZM121.555 170.4L115.727 180.89L115.955 181.017L116.189 181.133L121.555 170.4ZM86.2752 235.2H98.2752V96.96H86.2752H74.2752V235.2H86.2752ZM86.2752 96.96H98.2752C98.2752 88.5237 99.7469 82.6722 101.881 78.7092L91.3152 73.02L80.7495 67.3308C76.1634 75.8478 74.2752 85.9563 74.2752 96.96H86.2752ZM91.3152 73.02L101.842 78.7801C104.179 74.5102 107.226 71.655 111.095 69.795L105.895 58.98L100.696 48.165C92.0844 52.305 85.4116 58.8098 80.788 67.2599L91.3152 73.02ZM105.895 58.98L111.18 69.7535C115.595 67.5878 121.161 66.3 128.215 66.3V54.3V42.3C118.23 42.3 108.915 44.1322 100.61 48.2065L105.895 58.98ZM128.215 54.3V66.3C135.276 66.3 140.487 67.4326 144.275 69.1688L149.275 58.26L154.275 47.3512C146.543 43.8074 137.714 42.3 128.215 42.3V54.3ZM149.275 58.26L144.548 69.2897C148.238 70.8712 150.613 73.0453 152.221 75.8114L162.595 69.78L172.969 63.7486C168.577 56.1947 162.072 50.6887 154.002 47.2303L149.275 58.26ZM162.595 69.78L152.392 76.0963C154.037 78.7544 155.275 82.7633 155.275 88.86H167.275H179.275C179.275 79.5967 177.393 70.8856 172.798 63.4637L162.595 69.78ZM167.275 88.86H155.275C155.275 93.4034 154.562 96.7013 153.545 99.073L164.575 103.8L175.605 108.527C178.188 102.499 179.275 95.8366 179.275 88.86H167.275ZM164.575 103.8L153.545 99.073C152.498 101.516 151.168 103.13 149.635 104.28L156.835 113.88L164.035 123.48C169.222 119.59 173.052 114.484 175.605 108.527L164.575 103.8ZM156.835 113.88L149.635 104.28C147.876 105.6 145.547 106.692 142.364 107.345L144.775 119.1L147.186 130.855C153.363 129.588 159.075 127.2 164.035 123.48L156.835 113.88ZM144.775 119.1H132.775V119.64H144.775H156.775V119.1H144.775ZM144.775 119.64L143.111 131.524C147.801 132.181 151.449 133.478 154.302 135.174L160.435 124.86L166.568 114.546C160.542 110.962 153.749 108.779 146.439 107.756L144.775 119.64ZM160.435 124.86L154.302 135.174C156.74 136.624 158.708 138.66 160.25 141.598L170.875 136.02L181.5 130.442C178.002 123.78 173.011 118.376 166.568 114.546L160.435 124.86ZM170.875 136.02L160.31 141.709C161.6 144.106 162.655 147.974 162.655 154.02H174.655H186.655C186.655 145.426 185.19 137.294 181.441 130.331L170.875 136.02ZM174.655 154.02H162.655C162.655 160.818 161.302 165.905 159.145 169.757L169.615 175.62L180.085 181.483C184.648 173.335 186.655 164.022 186.655 154.02H174.655ZM169.615 175.62L159.105 169.829C156.945 173.748 154.086 176.572 150.4 178.568L156.115 189.12L161.831 199.672C169.664 195.428 175.805 189.252 180.125 181.411L169.615 175.62ZM156.115 189.12L150.4 178.568C146.621 180.615 142.034 181.8 136.315 181.8V193.8V205.8C145.477 205.8 154.089 203.865 161.831 199.672L156.115 189.12ZM136.315 193.8V181.8C134.404 181.8 132.676 181.626 131.109 181.313L128.755 193.08L126.402 204.847C129.635 205.494 132.946 205.8 136.315 205.8V193.8ZM128.755 193.08L130.627 181.227C129.163 180.996 127.645 180.602 126.064 180.02L121.915 191.28L117.767 202.54C120.746 203.638 123.787 204.444 126.884 204.933L128.755 193.08ZM121.915 191.28L126.265 180.096C124.499 179.409 122.56 178.546 120.442 177.487L115.075 188.22L109.709 198.953C112.39 200.294 115.011 201.471 117.566 202.464L121.915 191.28ZM115.075 188.22H103.075V235.2H115.075H127.075V188.22H115.075ZM115.075 235.2V223.2H86.2752V235.2V247.2H115.075V235.2ZM129.655 172.02V184.02C137.789 184.02 146.24 181.376 151.594 173.613L141.715 166.8L131.837 159.987C131.869 159.94 131.94 159.855 132.041 159.773C132.139 159.693 132.19 159.678 132.133 159.702C131.994 159.763 131.288 160.02 129.655 160.02V172.02ZM141.715 166.8L151.546 173.682C156.003 167.315 157.495 159.513 157.495 151.68H145.495H133.495C133.495 156.807 132.468 159.085 131.884 159.918L141.715 166.8ZM145.495 151.68H157.495C157.495 145.647 156.563 139.574 153.802 134.264L143.155 139.8L132.509 145.336C132.867 146.026 133.495 147.873 133.495 151.68H145.495ZM143.155 139.8L154.051 134.771C151.592 129.444 147.628 124.99 142.033 122.314L136.855 133.14L131.678 143.966C131.731 143.991 131.746 144.002 131.783 144.041C131.833 144.094 132.019 144.307 132.26 144.829L143.155 139.8ZM136.855 133.14L142.406 122.501C137.682 120.036 132.544 118.98 127.315 118.98V130.98V142.98C129.286 142.98 130.508 143.364 131.304 143.779L136.855 133.14ZM127.315 130.98V118.98H121.015V130.98V142.98H127.315V130.98ZM121.015 130.98H133.015V110.82H121.015H109.015V130.98H121.015ZM121.015 110.82V122.82H127.315V110.82V98.82H121.015V110.82ZM127.315 110.82V122.82C132.355 122.82 138.084 121.542 142.681 117.274L134.515 108.48L126.35 99.6865C126.911 99.1651 127.457 98.9166 127.746 98.8226C127.988 98.7439 127.901 98.82 127.315 98.82V110.82ZM134.515 108.48L142.703 117.253C146.415 113.788 148.705 109.453 149.907 104.849L138.295 101.82L126.684 98.7909C126.557 99.2759 126.431 99.5305 126.374 99.6317C126.322 99.7226 126.305 99.7278 126.327 99.7073L134.515 108.48ZM138.295 101.82L149.815 105.18C151.03 101.016 151.555 96.6177 151.555 92.1H139.555H127.555C127.555 94.7823 127.241 96.8639 126.775 98.46L138.295 101.82ZM139.555 92.1H151.555C151.555 85.4332 150.373 77.8214 145.426 72.0505L136.315 79.86L127.204 87.6695C126.833 87.2371 126.945 87.1277 127.145 87.8807C127.348 88.6476 127.555 89.9926 127.555 92.1H139.555ZM136.315 79.86L145.811 72.5226C141.136 66.4732 134.416 63.9 127.495 63.9V75.9V87.9C128.04 87.9 128.008 87.9912 127.665 87.8372C127.499 87.7628 127.318 87.6558 127.148 87.52C126.978 87.3854 126.871 87.2642 126.82 87.1974L136.315 79.86ZM127.495 75.9V63.9C122.558 63.9 117.384 65.1084 112.915 68.46L120.115 78.06L127.315 87.66C127.191 87.7529 127.07 87.825 126.964 87.8774C126.859 87.9292 126.789 87.9515 126.771 87.9568C126.738 87.9664 126.947 87.9 127.495 87.9V75.9ZM120.115 78.06L113.019 68.3831C108.225 71.8988 105.808 76.9923 104.568 81.6003L116.155 84.72L127.743 87.8397C127.841 87.4731 127.932 87.2154 128 87.0485C128.067 86.8818 128.104 86.8242 128.09 86.8479C128.075 86.8732 128.004 86.9875 127.858 87.1532C127.709 87.3216 127.496 87.5282 127.212 87.7369L120.115 78.06ZM116.155 84.72L104.487 81.9195C103.445 86.2591 103.075 91.4822 103.075 97.14H115.075H127.075C127.075 92.2378 127.425 89.1809 127.824 87.5205L116.155 84.72ZM115.075 97.14H103.075V165.9H115.075H127.075V97.14H115.075ZM115.075 165.9L107.393 175.119C110.053 177.335 112.828 179.279 115.727 180.89L121.555 170.4L127.383 159.91C125.962 159.121 124.418 158.065 122.757 156.681L115.075 165.9ZM121.555 170.4L116.189 181.133C120.484 183.281 125.159 184.02 129.655 184.02V172.02V160.02C127.671 160.02 126.946 159.679 126.922 159.667L121.555 170.4Z" fill="var(--pageColor)" mask="url(#path-2-outside-1_57_832)"/>
<path d="M86.2752 235.2V96.96C86.2752 87.24 87.9552 79.26 91.3152 73.02C94.7952 66.66 99.6552 61.98 105.895 58.98C112.255 55.86 119.695 54.3 128.215 54.3C136.495 54.3 143.515 55.62 149.275 58.26C155.155 60.78 159.595 64.62 162.595 69.78C165.715 74.82 167.275 81.18 167.275 88.86C167.275 94.62 166.375 99.6 164.575 103.8C162.775 108 160.195 111.36 156.835 113.88C153.475 116.4 149.455 118.14 144.775 119.1V119.64C150.775 120.48 155.995 122.22 160.435 124.86C164.875 127.5 168.355 131.22 170.875 136.02C173.395 140.7 174.655 146.7 174.655 154.02C174.655 162.42 172.975 169.62 169.615 175.62C166.375 181.5 161.875 186 156.115 189.12C150.355 192.24 143.755 193.8 136.315 193.8C133.675 193.8 131.155 193.56 128.755 193.08C126.475 192.72 124.195 192.12 121.915 191.28C119.755 190.44 117.475 189.42 115.075 188.22V235.2H86.2752ZM129.655 172.02C135.295 172.02 139.315 170.28 141.715 166.8C144.235 163.2 145.495 158.16 145.495 151.68C145.495 146.76 144.715 142.8 143.155 139.8C141.715 136.68 139.615 134.46 136.855 133.14C134.095 131.7 130.915 130.98 127.315 130.98H121.015V110.82H127.315C130.435 110.82 132.835 110.04 134.515 108.48C136.315 106.8 137.575 104.58 138.295 101.82C139.135 98.94 139.555 95.7 139.555 92.1C139.555 86.46 138.475 82.38 136.315 79.86C134.275 77.22 131.335 75.9 127.495 75.9C124.495 75.9 122.035 76.62 120.115 78.06C118.315 79.38 116.995 81.6 116.155 84.72C115.435 87.72 115.075 91.86 115.075 97.14V165.9C117.235 167.7 119.395 169.2 121.555 170.4C123.715 171.48 126.415 172.02 129.655 172.02Z" fill="var(--darkGray)"/>
</g>
</svg>
