<svg viewBox="0 0 256 256" fill="none" xmlns="http://www.w3.org/2000/svg">
<mask id="mask0_57_738" style="mask-type:alpha" maskUnits="userSpaceOnUse" x="0" y="0" width="256" height="256">
<rect width="256" height="256" fill="var(--gray)"/>
</mask>
<g mask="url(#mask0_57_738)">
<path d="M193.541 61.64C202.222 61.6402 209.26 68.6781 209.26 77.3597C209.26 86.0415 202.222 93.0802 193.541 93.0804H183.341V165.08C183.341 169.701 184.337 171.271 184.703 171.637C185.553 172.487 186.618 173 188.381 173C190.359 173 191.998 172.803 193.342 172.473C196.347 171.632 199.398 172.285 201.702 173.79C204.105 175.361 206.14 178.187 206.14 181.835V193.055C206.14 196.408 204.348 200.274 200.319 201.876C198.491 202.603 196.335 203.226 193.933 203.777C190.017 204.876 185.833 205.4 181.421 205.4C170.79 205.4 161.748 202.297 155.212 195.352L155.178 195.318L155.146 195.283C148.777 188.297 146.14 178.327 146.14 166.52V93.0804H107.98V184.4C107.98 194.672 99.653 203 89.3806 203C79.1081 203 70.78 194.672 70.78 184.4V93.0804H59.86C51.1783 93.0803 44.1403 86.0415 44.1403 77.3597C44.1405 68.678 51.1783 61.6401 59.86 61.64H193.541Z" fill="var(--pageColor)" stroke="var(--pageColor)" stroke-width="12"/>
<path d="M181.42 199.4C171.98 199.4 164.7 196.68 159.58 191.24C154.62 185.8 152.14 177.56 152.14 166.52V91.08C152.14 88.8709 150.349 87.08 148.14 87.08H105.98C103.771 87.08 101.98 88.8709 101.98 91.08V184.4C101.98 191.359 96.3391 197 89.3803 197C82.4215 197 76.7803 191.359 76.7803 184.4V91.08C76.7803 88.8709 74.9895 87.08 72.7803 87.08H59.8603C54.4921 87.08 50.1403 82.7282 50.1403 77.36C50.1403 71.9918 54.4921 67.64 59.8603 67.64H193.54C198.909 67.64 203.26 71.9918 203.26 77.36C203.26 82.7282 198.909 87.08 193.54 87.08H181.34C179.131 87.08 177.34 88.8709 177.34 91.08V165.08C177.34 170.2 178.38 173.8 180.46 175.88C182.54 177.96 185.18 179 188.38 179C190.78 179 192.94 178.76 194.86 178.28C197.311 177.526 200.14 179.271 200.14 181.835V193.055C200.14 194.46 199.408 195.782 198.102 196.301C196.626 196.888 194.746 197.441 192.46 197.96C189.1 198.92 185.42 199.4 181.42 199.4Z" fill="var(--darkGray)"/>
</g>
</svg>
