<svg viewBox="0 0 256 256" fill="none" xmlns="http://www.w3.org/2000/svg">
<mask id="mask0_57_916" style="mask-type:alpha" maskUnits="userSpaceOnUse" x="0" y="0" width="256" height="256">
<rect width="256" height="256" fill="var(--gray)"/>
</mask>
<g mask="url(#mask0_57_916)">
<mask id="path-2-outside-1_57_916" maskUnits="userSpaceOnUse" x="64" y="40" width="131" height="173" fill="black">
<rect fill="var(--pageColor)" x="64" y="40" width="131" height="173"/>
<path d="M120.253 200.6C111.239 200.6 103.439 198.78 96.8528 195.14C90.2661 191.327 85.2395 185.953 81.7728 179.02C78.3061 172.087 76.5728 163.767 76.5728 154.06C76.5728 142.1 77.9595 130.227 80.7328 118.44C83.5061 106.48 87.6661 95.56 93.2128 85.68C98.9328 75.8 106.126 67.9133 114.793 62.02C123.459 55.9533 133.773 52.92 145.733 52.92C156.653 52.92 165.579 56.04 172.513 62.28C179.446 68.52 182.913 77.0133 182.913 87.76C182.913 96.2533 181.266 103.707 177.973 110.12C174.679 116.36 170.086 121.647 164.193 125.98C158.299 130.14 151.193 133.26 142.873 135.34C134.726 137.42 125.626 138.46 115.573 138.46H113.233C112.886 140.193 112.539 142.1 112.193 144.18C112.019 146.26 111.933 148.253 111.933 150.16C111.933 157.787 113.319 163.247 116.093 166.54C119.039 169.833 123.373 171.48 129.093 171.48C134.639 171.48 139.839 170.787 144.693 169.4C149.546 167.84 155.179 165.24 161.593 161.6V188.9C154.659 193.407 147.813 196.44 141.053 198C134.293 199.733 127.359 200.6 120.253 200.6ZM119.213 112.46C127.186 112.46 133.339 111.593 137.673 109.86C142.179 107.953 145.299 105.44 147.033 102.32C148.939 99.0267 149.893 95.3867 149.893 91.4C149.893 88.28 149.026 85.8533 147.293 84.12C145.559 82.2133 143.219 81.26 140.273 81.26C137.499 81.26 134.726 82.4733 131.953 84.9C129.353 87.1533 126.926 90.62 124.673 95.3C122.419 99.8067 120.339 105.527 118.433 112.46H119.213Z"/>
</mask>
<path d="M120.253 200.6C111.239 200.6 103.439 198.78 96.8528 195.14C90.2661 191.327 85.2395 185.953 81.7728 179.02C78.3061 172.087 76.5728 163.767 76.5728 154.06C76.5728 142.1 77.9595 130.227 80.7328 118.44C83.5061 106.48 87.6661 95.56 93.2128 85.68C98.9328 75.8 106.126 67.9133 114.793 62.02C123.459 55.9533 133.773 52.92 145.733 52.92C156.653 52.92 165.579 56.04 172.513 62.28C179.446 68.52 182.913 77.0133 182.913 87.76C182.913 96.2533 181.266 103.707 177.973 110.12C174.679 116.36 170.086 121.647 164.193 125.98C158.299 130.14 151.193 133.26 142.873 135.34C134.726 137.42 125.626 138.46 115.573 138.46H113.233C112.886 140.193 112.539 142.1 112.193 144.18C112.019 146.26 111.933 148.253 111.933 150.16C111.933 157.787 113.319 163.247 116.093 166.54C119.039 169.833 123.373 171.48 129.093 171.48C134.639 171.48 139.839 170.787 144.693 169.4C149.546 167.84 155.179 165.24 161.593 161.6V188.9C154.659 193.407 147.813 196.44 141.053 198C134.293 199.733 127.359 200.6 120.253 200.6ZM119.213 112.46C127.186 112.46 133.339 111.593 137.673 109.86C142.179 107.953 145.299 105.44 147.033 102.32C148.939 99.0267 149.893 95.3867 149.893 91.4C149.893 88.28 149.026 85.8533 147.293 84.12C145.559 82.2133 143.219 81.26 140.273 81.26C137.499 81.26 134.726 82.4733 131.953 84.9C129.353 87.1533 126.926 90.62 124.673 95.3C122.419 99.8067 120.339 105.527 118.433 112.46H119.213Z" fill="var(--pageColor)"/>
<path d="M96.8528 195.14L90.8404 205.525L90.9439 205.585L91.0486 205.643L96.8528 195.14ZM80.7328 118.44L92.4138 121.188L92.4183 121.17L92.4226 121.151L80.7328 118.44ZM93.2128 85.68L82.8277 79.6676L82.7879 79.7363L82.749 79.8056L93.2128 85.68ZM114.793 62.02L121.541 71.9431L121.608 71.8974L121.674 71.8508L114.793 62.02ZM172.513 62.28L164.485 71.1995L164.485 71.1995L172.513 62.28ZM177.973 110.12L188.585 115.721L188.617 115.662L188.648 115.602L177.973 110.12ZM164.193 125.98L171.113 135.784L171.208 135.717L171.301 135.648L164.193 125.98ZM142.873 135.34L139.962 123.698L139.933 123.706L139.904 123.713L142.873 135.34ZM113.233 138.46V126.46H103.395L101.466 136.107L113.233 138.46ZM112.193 144.18L100.356 142.207L100.275 142.693L100.234 143.183L112.193 144.18ZM116.093 166.54L106.914 174.27L107.03 174.407L107.15 174.542L116.093 166.54ZM144.693 169.4L147.989 180.938L148.178 180.884L148.365 180.824L144.693 169.4ZM161.593 161.6H173.593V140.991L155.67 151.164L161.593 161.6ZM161.593 188.9L168.133 198.961L173.593 195.412V188.9H161.593ZM141.053 198L138.355 186.307L138.213 186.34L138.072 186.376L141.053 198ZM137.673 109.86L142.13 121.002L142.239 120.958L142.348 120.912L137.673 109.86ZM147.033 102.32L136.648 96.3076L136.595 96.3994L136.543 96.4923L147.033 102.32ZM147.293 84.12L138.414 92.1921L138.606 92.4034L138.808 92.6053L147.293 84.12ZM131.953 84.9L139.812 93.9683L139.833 93.9496L139.855 93.9309L131.953 84.9ZM124.673 95.3L135.406 100.667L135.446 100.586L135.485 100.506L124.673 95.3ZM118.433 112.46L106.862 109.278L102.687 124.46H118.433V112.46ZM120.253 200.6V188.6C112.869 188.6 107.146 187.118 102.657 184.637L96.8528 195.14L91.0486 205.643C99.7326 210.442 109.61 212.6 120.253 212.6V200.6ZM96.8528 195.14L102.865 184.755C98.3484 182.14 94.9441 178.53 92.5059 173.653L81.7728 179.02L71.0397 184.387C75.5349 193.377 82.1839 200.513 90.8404 205.525L96.8528 195.14ZM81.7728 179.02L92.5059 173.653C90.0558 168.753 88.5728 162.362 88.5728 154.06H76.5728H64.5728C64.5728 165.171 66.5565 175.42 71.0397 184.387L81.7728 179.02ZM76.5728 154.06H88.5728C88.5728 143.037 89.8498 132.086 92.4138 121.188L80.7328 118.44L69.0518 115.692C66.0692 128.368 64.5728 141.163 64.5728 154.06H76.5728ZM80.7328 118.44L92.4226 121.151C94.9605 110.206 98.7308 100.364 103.677 91.5544L93.2128 85.68L82.749 79.8056C76.6015 90.7559 72.0518 102.754 69.043 115.729L80.7328 118.44ZM93.2128 85.68L103.598 91.6924C108.497 83.2312 114.494 76.7346 121.541 71.9431L114.793 62.02L108.045 52.0969C97.758 59.0921 89.3691 68.3688 82.8277 79.6676L93.2128 85.68ZM114.793 62.02L121.674 71.8508C128.067 67.3761 135.901 64.92 145.733 64.92V52.92V40.92C131.645 40.92 118.852 44.5306 107.911 52.1892L114.793 62.02ZM145.733 52.92V64.92C154.226 64.92 160.124 67.2749 164.485 71.1995L172.513 62.28L180.54 53.3605C171.034 44.8051 159.08 40.92 145.733 40.92V52.92ZM172.513 62.28L164.485 71.1995C168.495 74.8082 170.913 79.8446 170.913 87.76H182.913H194.913C194.913 74.182 190.397 62.2318 180.54 53.3605L172.513 62.28ZM182.913 87.76H170.913C170.913 94.6854 169.578 100.199 167.298 104.638L177.973 110.12L188.648 115.602C192.954 107.215 194.913 97.8213 194.913 87.76H182.913ZM177.973 110.12L167.36 104.519C164.944 109.097 161.573 113.012 157.084 116.312L164.193 125.98L171.301 135.648C178.6 130.282 184.415 123.623 188.585 115.721L177.973 110.12ZM164.193 125.98L157.273 116.176C152.796 119.336 147.109 121.912 139.962 123.698L142.873 135.34L145.783 146.982C155.276 144.608 163.803 140.944 171.113 135.784L164.193 125.98ZM142.873 135.34L139.904 123.713C132.895 125.503 124.814 126.46 115.573 126.46V138.46V150.46C126.439 150.46 136.557 149.337 145.841 146.967L142.873 135.34ZM115.573 138.46V126.46H113.233V138.46V150.46H115.573V138.46ZM113.233 138.46L101.466 136.107C101.09 137.988 100.72 140.023 100.356 142.207L112.193 144.18L124.03 146.153C124.359 144.177 124.683 142.399 125 140.813L113.233 138.46ZM112.193 144.18L100.234 143.183C100.036 145.564 99.9328 147.891 99.9328 150.16H111.933H123.933C123.933 148.615 124.003 146.956 124.151 145.177L112.193 144.18ZM111.933 150.16H99.9328C99.9328 158.655 101.364 167.679 106.914 174.27L116.093 166.54L125.272 158.81C125.355 158.909 124.983 158.515 124.604 157.021C124.224 155.528 123.933 153.303 123.933 150.16H111.933ZM116.093 166.54L107.15 174.542C112.999 181.079 121.027 183.48 129.093 183.48V171.48V159.48C125.719 159.48 125.08 158.587 125.036 158.538L116.093 166.54ZM129.093 171.48V183.48C135.645 183.48 141.964 182.66 147.989 180.938L144.693 169.4L141.396 157.862C137.715 158.913 133.634 159.48 129.093 159.48V171.48ZM144.693 169.4L148.365 180.824C154.262 178.929 160.675 175.919 167.516 172.036L161.593 161.6L155.67 151.164C149.684 154.561 144.83 156.751 141.021 157.976L144.693 169.4ZM161.593 161.6H149.593V188.9H161.593H173.593V161.6H161.593ZM161.593 188.9L155.053 178.839C149.075 182.724 143.514 185.117 138.355 186.307L141.053 198L143.751 209.693C152.111 207.763 160.244 204.089 168.133 198.961L161.593 188.9ZM141.053 198L138.072 186.376C132.304 187.855 126.373 188.6 120.253 188.6V200.6V212.6C128.346 212.6 136.282 211.612 144.033 209.624L141.053 198ZM119.213 112.46V124.46C127.786 124.46 135.717 123.567 142.13 121.002L137.673 109.86L133.216 98.7183C130.962 99.62 126.586 100.46 119.213 100.46V112.46ZM137.673 109.86L142.348 120.912C148.417 118.344 154.081 114.343 157.523 108.148L147.033 102.32L136.543 96.4923C136.518 96.5369 135.941 97.5627 132.997 98.8084L137.673 109.86ZM147.033 102.32L157.418 108.332C160.434 103.123 161.893 97.3933 161.893 91.4H149.893H137.893C137.893 93.38 137.445 94.9299 136.648 96.3076L147.033 102.32ZM149.893 91.4H161.893C161.893 86.0089 160.333 80.1901 155.778 75.6347L147.293 84.12L138.808 92.6053C138.598 92.396 138.41 92.1596 138.254 91.91C138.099 91.6621 138.001 91.4413 137.942 91.276C137.827 90.9535 137.893 90.9345 137.893 91.4H149.893ZM147.293 84.12L156.172 76.0479C151.828 71.2691 146.065 69.26 140.273 69.26V81.26V93.26C140.448 93.26 140.196 93.286 139.71 93.0881C139.187 92.875 138.728 92.5375 138.414 92.1921L147.293 84.12ZM140.273 81.26V69.26C133.751 69.26 128.282 72.1666 124.051 75.8691L131.953 84.9L139.855 93.9309C140.511 93.357 140.875 93.1849 140.923 93.1639C140.941 93.156 140.883 93.1827 140.757 93.2103C140.628 93.2385 140.462 93.26 140.273 93.26V81.26ZM131.953 84.9L124.094 75.8317C119.79 79.5612 116.497 84.6194 113.861 90.0942L124.673 95.3L135.485 100.506C137.355 96.6206 138.915 94.7455 139.812 93.9683L131.953 84.9ZM124.673 95.3L113.94 89.9334C111.224 95.3653 108.896 101.882 106.862 109.278L118.433 112.46L130.003 115.642C131.783 109.172 133.615 104.248 135.406 100.667L124.673 95.3ZM118.433 112.46V124.46H119.213V112.46V100.46H118.433V112.46Z" fill="var(--pageColor)" mask="url(#path-2-outside-1_57_916)"/>
<path d="M120.253 200.6C111.239 200.6 103.439 198.78 96.8528 195.14C90.2661 191.327 85.2395 185.953 81.7728 179.02C78.3061 172.087 76.5728 163.767 76.5728 154.06C76.5728 142.1 77.9595 130.227 80.7328 118.44C83.5061 106.48 87.6661 95.56 93.2128 85.68C98.9328 75.8 106.126 67.9133 114.793 62.02C123.459 55.9533 133.773 52.92 145.733 52.92C156.653 52.92 165.579 56.04 172.513 62.28C179.446 68.52 182.913 77.0133 182.913 87.76C182.913 96.2533 181.266 103.707 177.973 110.12C174.679 116.36 170.086 121.647 164.193 125.98C158.299 130.14 151.193 133.26 142.873 135.34C134.726 137.42 125.626 138.46 115.573 138.46H113.233C112.886 140.193 112.539 142.1 112.193 144.18C112.019 146.26 111.933 148.253 111.933 150.16C111.933 157.787 113.319 163.247 116.093 166.54C119.039 169.833 123.373 171.48 129.093 171.48C134.639 171.48 139.839 170.787 144.693 169.4C149.546 167.84 155.179 165.24 161.593 161.6V188.9C154.659 193.407 147.813 196.44 141.053 198C134.293 199.733 127.359 200.6 120.253 200.6ZM119.213 112.46C127.186 112.46 133.339 111.593 137.673 109.86C142.179 107.953 145.299 105.44 147.033 102.32C148.939 99.0267 149.893 95.3867 149.893 91.4C149.893 88.28 149.026 85.8533 147.293 84.12C145.559 82.2133 143.219 81.26 140.273 81.26C137.499 81.26 134.726 82.4733 131.953 84.9C129.353 87.1533 126.926 90.62 124.673 95.3C122.419 99.8067 120.339 105.527 118.433 112.46H119.213Z" fill="var(--darkGray)"/>
</g>
</svg>
