<svg viewBox="0 0 256 256" fill="none" xmlns="http://www.w3.org/2000/svg">
<mask id="mask0_57_838" style="mask-type:alpha" maskUnits="userSpaceOnUse" x="0" y="0" width="256" height="256">
<rect width="256" height="256" fill="var(--gray)"/>
</mask>
<g mask="url(#mask0_57_838)">
<mask id="path-2-outside-1_57_838" maskUnits="userSpaceOnUse" x="54" y="39" width="137" height="176" fill="black">
<rect fill="var(--pageColor)" x="54" y="39" width="137" height="176"/>
<path d="M109.652 203V158.4L71.6523 51.8H102.252L121.452 112.4C122.119 114.4 122.852 116.8 123.652 119.6C124.586 122.4 125.452 125.133 126.252 127.8C127.052 130.467 127.719 132.733 128.252 134.6H129.052C133.452 127.933 137.052 120.6 139.852 112.6C142.786 104.6 144.919 95.6667 146.252 85.8C147.586 75.8 148.252 64.4667 148.252 51.8H178.252C178.252 65.9333 177.119 79.0667 174.852 91.2C172.586 103.333 168.586 114.933 162.852 126C157.252 136.933 149.452 147.933 139.452 159V203H109.652Z"/>
</mask>
<path d="M109.652 203V158.4L71.6523 51.8H102.252L121.452 112.4C122.119 114.4 122.852 116.8 123.652 119.6C124.586 122.4 125.452 125.133 126.252 127.8C127.052 130.467 127.719 132.733 128.252 134.6H129.052C133.452 127.933 137.052 120.6 139.852 112.6C142.786 104.6 144.919 95.6667 146.252 85.8C147.586 75.8 148.252 64.4667 148.252 51.8H178.252C178.252 65.9333 177.119 79.0667 174.852 91.2C172.586 103.333 168.586 114.933 162.852 126C157.252 136.933 149.452 147.933 139.452 159V203H109.652Z" fill="var(--pageColor)"/>
<path d="M109.652 203H97.6523V215H109.652V203ZM109.652 158.4H121.652V156.325L120.956 154.371L109.652 158.4ZM71.6523 51.8V39.8H54.635L60.349 55.8293L71.6523 51.8ZM102.252 51.8L113.692 48.1756L111.038 39.8H102.252V51.8ZM121.452 112.4L110.013 116.024L110.04 116.11L110.068 116.195L121.452 112.4ZM123.652 119.6L112.114 122.897L112.186 123.147L112.268 123.395L123.652 119.6ZM126.252 127.8L114.758 131.248L114.758 131.248L126.252 127.8ZM128.252 134.6L116.714 137.897L119.201 146.6H128.252V134.6ZM129.052 134.6V146.6H135.51L139.068 141.21L129.052 134.6ZM139.852 112.6L128.586 108.469L128.555 108.552L128.526 108.636L139.852 112.6ZM146.252 85.8L158.144 87.407L158.146 87.3965L158.147 87.386L146.252 85.8ZM148.252 51.8V39.8H136.252V51.8H148.252ZM178.252 51.8H190.252V39.8H178.252V51.8ZM174.852 91.2L186.648 93.4036L186.648 93.4036L174.852 91.2ZM162.852 126L152.197 120.48L152.185 120.505L152.172 120.529L162.852 126ZM139.452 159L130.549 150.955L127.452 154.381V159H139.452ZM139.452 203V215H151.452V203H139.452ZM109.652 203H121.652V158.4H109.652H97.6523V203H109.652ZM109.652 158.4L120.956 154.371L82.9556 47.7707L71.6523 51.8L60.349 55.8293L98.349 162.429L109.652 158.4ZM71.6523 51.8V63.8H102.252V51.8V39.8H71.6523V51.8ZM102.252 51.8L90.8128 55.4244L110.013 116.024L121.452 112.4L132.892 108.776L113.692 48.1756L102.252 51.8ZM121.452 112.4L110.068 116.195C110.664 117.981 111.345 120.206 112.114 122.897L123.652 119.6L135.191 116.303C134.359 113.394 133.574 110.819 132.837 108.605L121.452 112.4ZM123.652 119.6L112.268 123.395C113.165 126.087 113.995 128.704 114.758 131.248L126.252 127.8L137.746 124.352C136.909 121.562 136.006 118.713 135.037 115.805L123.652 119.6ZM126.252 127.8L114.758 131.248C115.549 133.884 116.2 136.097 116.714 137.897L128.252 134.6L139.791 131.303C139.238 129.37 138.556 127.049 137.746 124.352L126.252 127.8ZM128.252 134.6V146.6H129.052V134.6V122.6H128.252V134.6ZM129.052 134.6L139.068 141.21C144.044 133.67 148.072 125.44 151.179 116.564L139.852 112.6L128.526 108.636C126.033 115.76 122.861 122.197 119.037 127.99L129.052 134.6ZM139.852 112.6L151.119 116.731C154.397 107.792 156.713 97.9949 158.144 87.407L146.252 85.8L134.36 84.193C133.125 93.3384 131.175 101.408 128.586 108.469L139.852 112.6ZM146.252 85.8L158.147 87.386C159.566 76.7475 160.252 64.8696 160.252 51.8H148.252H136.252C136.252 64.0637 135.606 74.8525 134.358 84.214L146.252 85.8ZM148.252 51.8V63.8H178.252V51.8V39.8H148.252V51.8ZM178.252 51.8H166.252C166.252 65.2981 165.169 77.6853 163.056 88.9964L174.852 91.2L186.648 93.4036C189.069 80.4481 190.252 66.5686 190.252 51.8H178.252ZM174.852 91.2L163.056 88.9964C161.008 99.9629 157.395 110.447 152.197 120.48L162.852 126L173.507 131.52C179.776 119.42 184.164 106.704 186.648 93.4036L174.852 91.2ZM162.852 126L152.172 120.529C147.138 130.357 139.991 140.505 130.549 150.955L139.452 159L148.356 167.045C158.914 155.361 167.366 143.51 173.533 131.471L162.852 126ZM139.452 159H127.452V203H139.452H151.452V159H139.452ZM139.452 203V191H109.652V203V215H139.452V203Z" fill="var(--pageColor)" mask="url(#path-2-outside-1_57_838)"/>
<path d="M109.652 203V158.4L71.6523 51.8H102.252L121.452 112.4C122.119 114.4 122.852 116.8 123.652 119.6C124.586 122.4 125.452 125.133 126.252 127.8C127.052 130.467 127.719 132.733 128.252 134.6H129.052C133.452 127.933 137.052 120.6 139.852 112.6C142.786 104.6 144.919 95.6667 146.252 85.8C147.586 75.8 148.252 64.4667 148.252 51.8H178.252C178.252 65.9333 177.119 79.0667 174.852 91.2C172.586 103.333 168.586 114.933 162.852 126C157.252 136.933 149.452 147.933 139.452 159V203H109.652Z" fill="var(--darkGray)"/>
</g>
</svg>
