<svg viewBox="0 0 256 256" fill="none" xmlns="http://www.w3.org/2000/svg">
<mask id="mask0_57_941" style="mask-type:alpha" maskUnits="userSpaceOnUse" x="0" y="0" width="256" height="256">
<rect width="256" height="256" fill="var(--gray)"/>
</mask>
<g mask="url(#mask0_57_941)">
<mask id="path-2-outside-1_57_941" maskUnits="userSpaceOnUse" x="87" y="35" width="87" height="178" fill="white">
<rect x="87" y="35" width="87" height="178"/>
<path d="M102.762 201L126.163 91.2H153.763L130.563 201H102.762ZM143.363 78.6C139.096 78.6 135.829 77.6667 133.563 75.8C131.429 73.9333 130.363 71.2 130.363 67.6C130.363 64.5333 130.963 61.4667 132.163 58.4C133.496 55.3333 135.496 52.8 138.163 50.8C140.829 48.8 144.229 47.8 148.363 47.8C152.496 47.8 155.696 48.7333 157.963 50.6C160.229 52.3333 161.363 55.0667 161.363 58.8C161.363 64.2667 159.696 68.9333 156.363 72.8C153.163 76.6667 148.829 78.6 143.363 78.6Z"/>
</mask>
<path d="M102.762 201L126.163 91.2H153.763L130.563 201H102.762ZM143.363 78.6C139.096 78.6 135.829 77.6667 133.563 75.8C131.429 73.9333 130.363 71.2 130.363 67.6C130.363 64.5333 130.963 61.4667 132.163 58.4C133.496 55.3333 135.496 52.8 138.163 50.8C140.829 48.8 144.229 47.8 148.363 47.8C152.496 47.8 155.696 48.7333 157.963 50.6C160.229 52.3333 161.363 55.0667 161.363 58.8C161.363 64.2667 159.696 68.9333 156.363 72.8C153.163 76.6667 148.829 78.6 143.363 78.6Z" fill="var(--pageColor)"/>
<path d="M102.762 201L91.0261 198.499L87.9356 213H102.762V201ZM126.163 91.2V79.2H116.45L114.426 88.6988L126.163 91.2ZM153.763 91.2L165.503 93.6807L168.563 79.2H153.763V91.2ZM130.563 201V213H140.292L142.303 203.481L130.563 201ZM133.563 75.8L125.66 84.8309L125.795 84.9491L125.934 85.0632L133.563 75.8ZM132.163 58.4L121.158 53.6153L121.069 53.8197L120.988 54.0272L132.163 58.4ZM138.163 50.8L145.362 60.4L145.362 60.4L138.163 50.8ZM157.963 50.6L150.334 59.8632L150.501 60.0008L150.673 60.1323L157.963 50.6ZM156.363 72.8L147.274 64.9647L147.195 65.0562L147.118 65.1492L156.363 72.8ZM102.762 201L114.499 203.501L137.899 93.7012L126.163 91.2L114.426 88.6988L91.0261 198.499L102.762 201ZM126.163 91.2V103.2H153.763V91.2V79.2H126.163V91.2ZM153.763 91.2L142.022 88.7192L118.822 198.519L130.563 201L142.303 203.481L165.503 93.6807L153.763 91.2ZM130.563 201V189H102.762V201V213H130.563V201ZM143.363 78.6V66.6C142.073 66.6 141.338 66.4556 141.009 66.3617C140.714 66.2773 140.868 66.2706 141.191 66.5368L133.563 75.8L125.934 85.0632C131.137 89.3477 137.54 90.6 143.363 90.6V78.6ZM133.563 75.8L141.465 66.7691C141.658 66.9387 141.848 67.1475 142.013 67.3847C142.177 67.6204 142.281 67.8328 142.341 67.9875C142.458 68.2873 142.363 68.2355 142.363 67.6H130.363H118.363C118.363 73.6572 120.253 80.0991 125.66 84.8309L133.563 75.8ZM130.363 67.6H142.363C142.363 66.137 142.642 64.5497 143.337 62.7728L132.163 58.4L120.988 54.0272C119.283 58.3836 118.363 62.9296 118.363 67.6H130.363ZM132.163 58.4L143.167 63.1847C143.674 62.0194 144.366 61.1476 145.362 60.4L138.163 50.8L130.963 41.2C126.626 44.4523 123.318 48.6473 121.158 53.6153L132.163 58.4ZM138.163 50.8L145.362 60.4C145.496 60.2997 146.191 59.8 148.363 59.8V47.8V35.8C142.267 35.8 136.162 37.3003 130.963 41.2L138.163 50.8ZM148.363 47.8V59.8C150.83 59.8 150.944 60.3656 150.334 59.8632L157.963 50.6L165.591 41.3368C160.448 37.101 154.161 35.8 148.363 35.8V47.8ZM157.963 50.6L150.673 60.1323C150.403 59.926 150.136 59.6637 149.902 59.3557C149.669 59.0498 149.518 58.7642 149.428 58.5462C149.255 58.1288 149.363 58.1132 149.363 58.8H161.363H173.363C173.363 52.583 171.359 45.7379 165.252 41.0677L157.963 50.6ZM161.363 58.8H149.363C149.363 61.611 148.59 63.438 147.274 64.9647L156.363 72.8L165.451 80.6353C170.802 74.4287 173.363 66.9223 173.363 58.8H161.363ZM156.363 72.8L147.118 65.1492C146.419 65.9935 145.616 66.6 143.363 66.6V78.6V90.6C152.042 90.6 159.906 87.3398 165.607 80.4508L156.363 72.8Z" fill="var(--pageColor)" mask="url(#path-2-outside-1_57_941)"/>
<path d="M102.762 201L126.163 91.2H153.763L130.563 201H102.762ZM143.363 78.6C139.096 78.6 135.829 77.6667 133.563 75.8C131.429 73.9333 130.363 71.2 130.363 67.6C130.363 64.5333 130.963 61.4667 132.163 58.4C133.496 55.3333 135.496 52.8 138.163 50.8C140.829 48.8 144.229 47.8 148.363 47.8C152.496 47.8 155.696 48.7333 157.963 50.6C160.229 52.3333 161.363 55.0667 161.363 58.8C161.363 64.2667 159.696 68.9333 156.363 72.8C153.163 76.6667 148.829 78.6 143.363 78.6Z" fill="var(--darkGray)"/>
</g>
</svg>
