<svg viewBox="0 0 256 256" fill="none" xmlns="http://www.w3.org/2000/svg">
<mask id="mask0_57_856" style="mask-type:alpha" maskUnits="userSpaceOnUse" x="0" y="0" width="256" height="256">
<rect width="256" height="256" fill="var(--gray)"/>
</mask>
<g mask="url(#mask0_57_856)">
<mask id="path-2-outside-1_57_856" maskUnits="userSpaceOnUse" x="53" y="41" width="145" height="179" fill="black">
<rect fill="var(--pageColor)" x="53" y="41" width="145" height="179"/>
<path d="M168.178 208C162.845 208 158.445 207.067 154.978 205.2C151.645 203.333 148.978 200.733 146.978 197.4C144.978 194.067 143.245 190.2 141.778 185.8L133.178 159.2C132.378 156.533 131.445 153.867 130.378 151.2C129.445 148.4 128.511 145.6 127.578 142.8C126.645 139.867 125.845 137 125.178 134.2C124.645 131.267 124.245 128.4 123.978 125.6H123.378C122.978 131.467 122.178 136.867 120.978 141.8C119.911 146.6 118.445 152.2 116.578 158.6L103.178 206H70.5781L109.978 97.6L107.778 91.2C105.645 84.9333 102.578 81 98.5781 79.4C94.7115 77.8 90.1781 77 84.9781 77C82.7115 77 80.6448 77.1333 78.7781 77.4C76.9115 77.6667 75.3115 77.9333 73.9781 78.2V54.6C75.1781 54.3333 76.5781 54.0667 78.1781 53.8C79.9115 53.5333 81.7781 53.3333 83.7781 53.2C85.7781 53.0667 87.9115 53 90.1781 53C97.7781 53 104.311 53.8667 109.778 55.6C115.245 57.3333 119.911 60.4 123.778 64.8C127.778 69.2 131.311 75.4667 134.378 83.6L164.178 163.2C166.311 168.667 168.045 172.867 169.378 175.8C170.845 178.6 172.245 180.533 173.578 181.6C175.045 182.533 176.711 183 178.578 183C180.045 183 181.245 182.933 182.178 182.8C183.111 182.533 184.178 182.267 185.378 182V205C184.311 205.533 182.711 206 180.578 206.4C178.578 206.933 176.445 207.333 174.178 207.6C171.911 207.867 169.911 208 168.178 208Z"/>
</mask>
<path d="M168.178 208C162.845 208 158.445 207.067 154.978 205.2C151.645 203.333 148.978 200.733 146.978 197.4C144.978 194.067 143.245 190.2 141.778 185.8L133.178 159.2C132.378 156.533 131.445 153.867 130.378 151.2C129.445 148.4 128.511 145.6 127.578 142.8C126.645 139.867 125.845 137 125.178 134.2C124.645 131.267 124.245 128.4 123.978 125.6H123.378C122.978 131.467 122.178 136.867 120.978 141.8C119.911 146.6 118.445 152.2 116.578 158.6L103.178 206H70.5781L109.978 97.6L107.778 91.2C105.645 84.9333 102.578 81 98.5781 79.4C94.7115 77.8 90.1781 77 84.9781 77C82.7115 77 80.6448 77.1333 78.7781 77.4C76.9115 77.6667 75.3115 77.9333 73.9781 78.2V54.6C75.1781 54.3333 76.5781 54.0667 78.1781 53.8C79.9115 53.5333 81.7781 53.3333 83.7781 53.2C85.7781 53.0667 87.9115 53 90.1781 53C97.7781 53 104.311 53.8667 109.778 55.6C115.245 57.3333 119.911 60.4 123.778 64.8C127.778 69.2 131.311 75.4667 134.378 83.6L164.178 163.2C166.311 168.667 168.045 172.867 169.378 175.8C170.845 178.6 172.245 180.533 173.578 181.6C175.045 182.533 176.711 183 178.578 183C180.045 183 181.245 182.933 182.178 182.8C183.111 182.533 184.178 182.267 185.378 182V205C184.311 205.533 182.711 206 180.578 206.4C178.578 206.933 176.445 207.333 174.178 207.6C171.911 207.867 169.911 208 168.178 208Z" fill="var(--pageColor)"/>
<path d="M154.978 205.2L149.115 215.67L149.202 215.719L149.289 215.766L154.978 205.2ZM146.978 197.4L157.268 191.226L157.268 191.226L146.978 197.4ZM141.778 185.8L130.36 189.492L130.377 189.543L130.394 189.595L141.778 185.8ZM133.178 159.2L121.684 162.648L121.721 162.77L121.76 162.892L133.178 159.2ZM130.378 151.2L118.994 154.995L119.105 155.329L119.236 155.657L130.378 151.2ZM127.578 142.8L116.143 146.438L116.168 146.517L116.194 146.595L127.578 142.8ZM125.178 134.2L113.372 136.347L113.43 136.665L113.504 136.979L125.178 134.2ZM123.978 125.6L135.924 124.462L134.89 113.6H123.978V125.6ZM123.378 125.6V113.6H112.168L111.406 124.784L123.378 125.6ZM120.978 141.8L109.318 138.964L109.29 139.08L109.264 139.197L120.978 141.8ZM116.578 158.6L105.058 155.24L105.044 155.288L105.031 155.336L116.578 158.6ZM103.178 206V218H112.256L114.726 209.264L103.178 206ZM70.5781 206L59.3 201.901L53.4484 218H70.5781V206ZM109.978 97.6L121.256 101.699L122.706 97.7115L121.326 93.699L109.978 97.6ZM107.778 91.2L96.4183 95.0672L96.4241 95.0841L96.4299 95.101L107.778 91.2ZM98.5781 79.4L93.9899 90.4882L94.0555 90.5153L94.1214 90.5417L98.5781 79.4ZM78.7781 77.4L80.4752 89.2794L80.4752 89.2794L78.7781 77.4ZM73.9781 78.2H61.9781V92.8376L76.3315 89.967L73.9781 78.2ZM73.9781 54.6L71.3749 42.8858L61.9781 44.974V54.6H73.9781ZM78.1781 53.8L76.3535 41.9395L76.2793 41.9509L76.2054 41.9633L78.1781 53.8ZM83.7781 53.2L82.9799 41.2266L82.9799 41.2266L83.7781 53.2ZM123.778 64.8L114.764 72.7214L114.831 72.7973L114.899 72.8721L123.778 64.8ZM134.378 83.6L145.616 79.3927L145.611 79.3795L145.606 79.3663L134.378 83.6ZM164.178 163.2L152.94 167.407L152.969 167.485L152.999 167.563L164.178 163.2ZM169.378 175.8L158.454 180.766L158.593 181.071L158.748 181.368L169.378 175.8ZM173.578 181.6L166.082 190.97L166.588 191.376L167.136 191.724L173.578 181.6ZM182.178 182.8L183.875 194.679L184.687 194.563L185.475 194.338L182.178 182.8ZM185.378 182H197.378V167.041L182.775 170.286L185.378 182ZM185.378 205L190.745 215.733L197.378 212.416V205H185.378ZM180.578 206.4L178.367 194.606L177.923 194.689L177.486 194.805L180.578 206.4ZM174.178 207.6L172.776 195.682L172.776 195.682L174.178 207.6ZM168.178 208V196C164.158 196 161.876 195.285 160.667 194.634L154.978 205.2L149.289 215.766C155.014 218.848 161.532 220 168.178 220V208ZM154.978 205.2L160.841 194.73C159.366 193.904 158.212 192.799 157.268 191.226L146.978 197.4L136.688 203.574C139.744 208.668 143.924 212.763 149.115 215.67L154.978 205.2ZM146.978 197.4L157.268 191.226C155.795 188.771 154.403 185.729 153.162 182.005L141.778 185.8L130.394 189.595C132.086 194.671 134.161 199.362 136.688 203.574L146.978 197.4ZM141.778 185.8L153.196 182.108L144.596 155.508L133.178 159.2L121.76 162.892L130.36 189.492L141.778 185.8ZM133.178 159.2L144.672 155.752C143.767 152.733 142.715 149.73 141.52 146.743L130.378 151.2L119.236 155.657C120.175 158.003 120.99 160.333 121.684 162.648L133.178 159.2ZM130.378 151.2L141.762 147.405C141.581 146.861 141.769 147.424 141.587 146.88C141.406 146.336 141.594 146.899 141.412 146.355C141.231 145.811 141.419 146.374 141.237 145.83C141.056 145.286 141.244 145.849 141.062 145.305C140.881 144.761 141.069 145.324 140.887 144.78C140.706 144.236 140.894 144.799 140.712 144.255C140.531 143.711 140.719 144.274 140.537 143.73C140.356 143.186 140.544 143.749 140.362 143.205C140.154 142.581 139.87 141.729 139.662 141.105C139.636 141.027 139.601 140.921 139.575 140.843C139.549 140.765 139.513 140.658 139.487 140.58C139.461 140.502 139.426 140.396 139.4 140.318C139.374 140.24 139.338 140.133 139.312 140.055C139.286 139.977 139.251 139.871 139.225 139.793C139.199 139.715 139.163 139.608 139.137 139.53C139.111 139.452 139.076 139.346 139.05 139.268C139.024 139.19 138.988 139.083 138.962 139.005L127.578 142.8L116.194 146.595C116.35 147.062 116.388 147.178 116.544 147.645C116.7 148.112 116.738 148.228 116.894 148.695C117.05 149.162 117.088 149.278 117.244 149.745C117.4 150.212 117.438 150.328 117.594 150.795C117.802 151.419 118.086 152.271 118.294 152.895C118.502 153.519 118.786 154.371 118.994 154.995L130.378 151.2ZM127.578 142.8L139.013 139.162C138.164 136.492 137.445 133.912 136.852 131.421L125.178 134.2L113.504 136.979C114.245 140.088 115.126 143.241 116.143 146.438L127.578 142.8ZM125.178 134.2L136.985 132.053C136.508 129.434 136.157 126.905 135.924 124.462L123.978 125.6L112.032 126.738C112.333 129.895 112.781 133.099 113.372 136.347L125.178 134.2ZM123.978 125.6V113.6H123.378V125.6V137.6H123.978V125.6ZM123.378 125.6L111.406 124.784C111.045 130.073 110.334 134.788 109.318 138.964L120.978 141.8L132.638 144.636C134.022 138.946 134.911 132.86 135.35 126.416L123.378 125.6ZM120.978 141.8L109.264 139.197C108.27 143.671 106.876 149.009 105.058 155.24L116.578 158.6L128.098 161.96C130.014 155.391 131.553 149.529 132.692 144.403L120.978 141.8ZM116.578 158.6L105.031 155.336L91.6307 202.736L103.178 206L114.726 209.264L128.126 161.864L116.578 158.6ZM103.178 206V194H70.5781V206V218H103.178V206ZM70.5781 206L81.8563 210.099L121.256 101.699L109.978 97.6L98.7 93.5007L59.3 201.901L70.5781 206ZM109.978 97.6L121.326 93.699L119.126 87.299L107.778 91.2L96.4299 95.101L98.6299 101.501L109.978 97.6ZM107.778 91.2L119.138 87.3328C116.483 79.5348 111.704 71.7258 103.035 68.2583L98.5781 79.4L94.1214 90.5417C93.4525 90.2742 94.8063 90.3319 96.4183 95.0672L107.778 91.2ZM98.5781 79.4L103.166 68.3118C97.5384 65.983 91.3829 65 84.9781 65V77V89C88.9733 89 91.8845 89.617 93.9899 90.4882L98.5781 79.4ZM84.9781 77V65C82.253 65 79.6086 65.1595 77.081 65.5206L78.7781 77.4L80.4752 89.2794C81.6809 89.1071 83.1699 89 84.9781 89V77ZM78.7781 77.4L77.0811 65.5206C75.0717 65.8077 73.2407 66.1098 71.6248 66.433L73.9781 78.2L76.3315 89.967C77.3823 89.7568 78.7512 89.5257 80.4752 89.2794L78.7781 77.4ZM73.9781 78.2H85.9781V54.6H73.9781H61.9781V78.2H73.9781ZM73.9781 54.6L76.5813 66.3142C77.5187 66.1059 78.6999 65.8786 80.1509 65.6367L78.1781 53.8L76.2054 41.9633C74.4564 42.2548 72.8376 42.5607 71.3749 42.8858L73.9781 54.6ZM78.1781 53.8L80.0028 65.6605C81.3518 65.4529 82.8725 65.287 84.5764 65.1734L83.7781 53.2L82.9799 41.2266C80.6837 41.3797 78.4711 41.6137 76.3535 41.9395L78.1781 53.8ZM83.7781 53.2L84.5763 65.1734C86.279 65.0599 88.144 65 90.1781 65V53V41C87.6789 41 85.2773 41.0734 82.9799 41.2266L83.7781 53.2ZM90.1781 53V65C96.9224 65 102.168 65.7758 106.151 67.0388L109.778 55.6L113.405 44.1612C106.455 41.9575 98.6339 41 90.1781 41V53ZM109.778 55.6L106.151 67.0388C109.489 68.0971 112.307 69.9254 114.764 72.7214L123.778 64.8L132.792 56.8786C127.516 50.8746 121 46.5695 113.405 44.1612L109.778 55.6ZM123.778 64.8L114.899 72.8721C117.525 75.7613 120.392 80.5199 123.15 87.8336L134.378 83.6L145.606 79.3663C142.231 70.4134 138.031 62.6387 132.657 56.7279L123.778 64.8ZM134.378 83.6L123.14 87.8073L152.94 167.407L164.178 163.2L175.416 158.993L145.616 79.3927L134.378 83.6ZM164.178 163.2L152.999 167.563C155.159 173.097 156.985 177.535 158.454 180.766L169.378 175.8L180.303 170.834C179.104 168.199 177.464 164.236 175.357 158.837L164.178 163.2ZM169.378 175.8L158.748 181.368C160.44 184.599 162.773 188.324 166.082 190.97L173.578 181.6L181.074 172.23C181.51 172.578 181.545 172.723 181.247 172.312C180.974 171.934 180.554 171.274 180.008 170.232L169.378 175.8ZM173.578 181.6L167.136 191.724C170.671 193.974 174.605 195 178.578 195V183V171C178.653 171 178.865 171.011 179.164 171.094C179.469 171.18 179.765 171.314 180.021 171.476L173.578 181.6ZM178.578 183V195C180.338 195 182.161 194.924 183.875 194.679L182.178 182.8L180.481 170.921C180.329 170.942 179.752 171 178.578 171V183ZM182.178 182.8L185.475 194.338C186.128 194.152 186.956 193.942 187.981 193.714L185.378 182L182.775 170.286C181.4 170.591 180.095 170.915 178.881 171.262L182.178 182.8ZM185.378 182H173.378V205H185.378H197.378V182H185.378ZM185.378 205L180.012 194.267C180.319 194.113 180.377 194.125 180.018 194.23C179.689 194.326 179.155 194.458 178.367 194.606L180.578 206.4L182.79 218.194C185.279 217.728 188.178 217.016 190.745 215.733L185.378 205ZM180.578 206.4L177.486 194.805C176.094 195.176 174.53 195.476 172.776 195.682L174.178 207.6L175.58 219.518C178.36 219.191 181.062 218.69 183.67 217.995L180.578 206.4ZM174.178 207.6L172.776 195.682C170.838 195.91 169.323 196 168.178 196V208V220C170.5 220 172.984 219.823 175.58 219.518L174.178 207.6Z" fill="var(--pageColor)" mask="url(#path-2-outside-1_57_856)"/>
<path d="M168.178 208C162.845 208 158.445 207.067 154.978 205.2C151.645 203.333 148.978 200.733 146.978 197.4C144.978 194.067 143.245 190.2 141.778 185.8L133.178 159.2C132.378 156.533 131.445 153.867 130.378 151.2C129.445 148.4 128.511 145.6 127.578 142.8C126.645 139.867 125.845 137 125.178 134.2C124.645 131.267 124.245 128.4 123.978 125.6H123.378C122.978 131.467 122.178 136.867 120.978 141.8C119.911 146.6 118.445 152.2 116.578 158.6L103.178 206H70.5781L109.978 97.6L107.778 91.2C105.645 84.9333 102.578 81 98.5781 79.4C94.7115 77.8 90.1781 77 84.9781 77C82.7115 77 80.6448 77.1333 78.7781 77.4C76.9115 77.6667 75.3115 77.9333 73.9781 78.2V54.6C75.1781 54.3333 76.5781 54.0667 78.1781 53.8C79.9115 53.5333 81.7781 53.3333 83.7781 53.2C85.7781 53.0667 87.9115 53 90.1781 53C97.7781 53 104.311 53.8667 109.778 55.6C115.245 57.3333 119.911 60.4 123.778 64.8C127.778 69.2 131.311 75.4667 134.378 83.6L164.178 163.2C166.311 168.667 168.045 172.867 169.378 175.8C170.845 178.6 172.245 180.533 173.578 181.6C175.045 182.533 176.711 183 178.578 183C180.045 183 181.245 182.933 182.178 182.8C183.111 182.533 184.178 182.267 185.378 182V205C184.311 205.533 182.711 206 180.578 206.4C178.578 206.933 176.445 207.333 174.178 207.6C171.911 207.867 169.911 208 168.178 208Z" fill="var(--darkGray)"/>
</g>
</svg>
