<svg viewBox="0 0 256 256" fill="none" xmlns="http://www.w3.org/2000/svg">
<mask id="mask0_57_862" style="mask-type:alpha" maskUnits="userSpaceOnUse" x="0" y="0" width="256" height="256">
<rect width="256" height="256" fill="var(--gray)"/>
</mask>
<g mask="url(#mask0_57_862)">
<mask id="path-2-outside-1_57_862" maskUnits="userSpaceOnUse" x="64" y="39" width="136" height="182" fill="white">
<rect x="64" y="39" width="136" height="182"/>
<path d="M76.3656 209V51.8H108.366V115.6C108.366 123.333 109.699 129.2 112.366 133.2C115.166 137.2 119.032 139.2 123.966 139.2C128.232 139.2 131.699 137.8 134.366 135C137.166 132.2 139.166 128.133 140.366 122.8C141.699 117.467 142.366 110.933 142.366 103.2V51.8H174.166V126.4C174.166 130.933 174.899 134 176.366 135.6C177.832 137.2 179.632 138 181.766 138C182.699 138 183.699 137.867 184.766 137.6C185.832 137.333 186.632 137.133 187.166 137V160.4C186.499 160.8 185.432 161.2 183.966 161.6C182.499 162 180.832 162.333 178.966 162.6C177.232 162.867 175.632 163 174.166 163C167.499 163 161.899 161.8 157.366 159.4C152.966 157 149.632 152.733 147.366 146.6H145.166C143.432 150.2 141.632 153.267 139.766 155.8C137.899 158.2 135.766 160 133.366 161.2C130.966 162.4 128.032 163 124.566 163C121.899 163 119.566 162.667 117.566 162C115.699 161.333 113.966 160.333 112.366 159C110.899 157.667 109.432 156.067 107.966 154.2H107.366C107.632 155.533 107.832 157.667 107.966 160.6C108.099 163.4 108.166 166.333 108.166 169.4C108.299 172.6 108.366 175.4 108.366 177.8V209H76.3656Z"/>
</mask>
<path d="M76.3656 209V51.8H108.366V115.6C108.366 123.333 109.699 129.2 112.366 133.2C115.166 137.2 119.032 139.2 123.966 139.2C128.232 139.2 131.699 137.8 134.366 135C137.166 132.2 139.166 128.133 140.366 122.8C141.699 117.467 142.366 110.933 142.366 103.2V51.8H174.166V126.4C174.166 130.933 174.899 134 176.366 135.6C177.832 137.2 179.632 138 181.766 138C182.699 138 183.699 137.867 184.766 137.6C185.832 137.333 186.632 137.133 187.166 137V160.4C186.499 160.8 185.432 161.2 183.966 161.6C182.499 162 180.832 162.333 178.966 162.6C177.232 162.867 175.632 163 174.166 163C167.499 163 161.899 161.8 157.366 159.4C152.966 157 149.632 152.733 147.366 146.6H145.166C143.432 150.2 141.632 153.267 139.766 155.8C137.899 158.2 135.766 160 133.366 161.2C130.966 162.4 128.032 163 124.566 163C121.899 163 119.566 162.667 117.566 162C115.699 161.333 113.966 160.333 112.366 159C110.899 157.667 109.432 156.067 107.966 154.2H107.366C107.632 155.533 107.832 157.667 107.966 160.6C108.099 163.4 108.166 166.333 108.166 169.4C108.299 172.6 108.366 175.4 108.366 177.8V209H76.3656Z" fill="var(--pageColor)"/>
<path d="M76.3656 209H64.3656V221H76.3656V209ZM76.3656 51.8V39.8H64.3656V51.8H76.3656ZM108.366 51.8H120.366V39.8H108.366V51.8ZM112.366 133.2L102.381 139.856L102.457 139.97L102.535 140.082L112.366 133.2ZM134.366 135L125.88 126.515L125.777 126.618L125.676 126.724L134.366 135ZM140.366 122.8L128.724 119.89L128.689 120.027L128.658 120.166L140.366 122.8ZM142.366 51.8V39.8H130.366V51.8H142.366ZM174.166 51.8H186.166V39.8H174.166V51.8ZM176.366 135.6L167.52 143.709L167.52 143.709L176.366 135.6ZM184.766 137.6L181.855 125.958L181.855 125.958L184.766 137.6ZM187.166 137H199.166V121.631L184.255 125.358L187.166 137ZM187.166 160.4L193.34 170.69L199.166 167.194V160.4H187.166ZM183.966 161.6L180.808 150.023L180.808 150.023L183.966 161.6ZM178.966 162.6L177.269 150.721L177.205 150.73L177.141 150.74L178.966 162.6ZM157.366 159.4L151.619 169.935L151.685 169.971L151.751 170.005L157.366 159.4ZM147.366 146.6L158.622 142.44L155.724 134.6H147.366V146.6ZM145.166 146.6V134.6H137.625L134.354 141.394L145.166 146.6ZM139.766 155.8L149.238 163.167L149.334 163.044L149.426 162.918L139.766 155.8ZM133.366 161.2L127.999 150.467L127.999 150.467L133.366 161.2ZM117.566 162L113.53 173.301L113.65 173.344L113.771 173.384L117.566 162ZM112.366 159L104.294 167.879L104.485 168.053L104.683 168.219L112.366 159ZM107.966 154.2L117.401 146.786L113.798 142.2H107.966V154.2ZM107.366 154.2V142.2H92.728L95.5987 156.553L107.366 154.2ZM107.966 160.6L95.978 161.145L95.9786 161.158L95.9792 161.171L107.966 160.6ZM108.166 169.4H96.1656V169.65L96.176 169.9L108.166 169.4ZM108.366 209V221H120.366V209H108.366ZM76.3656 209H88.3656V51.8H76.3656H64.3656V209H76.3656ZM76.3656 51.8V63.8H108.366V51.8V39.8H76.3656V51.8ZM108.366 51.8H96.3656V115.6H108.366H120.366V51.8H108.366ZM108.366 115.6H96.3656C96.3656 124.387 97.8229 133.019 102.381 139.856L112.366 133.2L122.35 126.544C121.575 125.381 120.366 122.279 120.366 115.6H108.366ZM112.366 133.2L102.535 140.082C107.608 147.329 115.165 151.2 123.966 151.2V139.2V127.2C123.159 127.2 122.893 127.049 122.879 127.041C122.869 127.037 122.621 126.925 122.196 126.318L112.366 133.2ZM123.966 139.2V151.2C131.141 151.2 137.877 148.713 143.055 143.276L134.366 135L125.676 126.724C125.481 126.929 125.365 126.986 125.272 127.023C125.154 127.071 124.775 127.2 123.966 127.2V139.2ZM134.366 135L142.851 143.485C147.759 138.578 150.557 132.171 152.073 125.434L140.366 122.8L128.658 120.166C127.774 124.095 126.573 125.822 125.88 126.515L134.366 135ZM140.366 122.8L152.007 125.71C153.653 119.127 154.366 111.551 154.366 103.2H142.366H130.366C130.366 110.316 129.745 115.806 128.724 119.89L140.366 122.8ZM142.366 103.2H154.366V51.8H142.366H130.366V103.2H142.366ZM142.366 51.8V63.8H174.166V51.8V39.8H142.366V51.8ZM174.166 51.8H162.166V126.4H174.166H186.166V51.8H174.166ZM174.166 126.4H162.166C162.166 129.235 162.387 132.141 163.045 134.891C163.685 137.569 164.924 140.876 167.52 143.709L176.366 135.6L185.211 127.491C185.798 128.131 186.111 128.698 186.257 129.008C186.401 129.313 186.419 129.444 186.387 129.309C186.356 129.18 186.297 128.881 186.248 128.372C186.199 127.868 186.166 127.217 186.166 126.4H174.166ZM176.366 135.6L167.52 143.709C171.214 147.739 176.202 150 181.766 150V138V126C182.237 126 182.931 126.097 183.689 126.434C184.443 126.769 184.945 127.201 185.211 127.491L176.366 135.6ZM181.766 138V150C183.836 150 185.821 149.705 187.676 149.242L184.766 137.6L181.855 125.958C181.72 125.992 181.646 126.003 181.63 126.005C181.614 126.007 181.661 126 181.766 126V138ZM184.766 137.6L187.676 149.242C188.743 148.975 189.543 148.775 190.076 148.642L187.166 137L184.255 125.358C183.722 125.492 182.922 125.692 181.855 125.958L184.766 137.6ZM187.166 137H175.166V160.4H187.166H199.166V137H187.166ZM187.166 160.4L180.992 150.11C181.134 150.025 181.254 149.959 181.346 149.911C181.439 149.863 181.512 149.828 181.562 149.804C181.658 149.76 181.694 149.748 181.652 149.764C181.613 149.779 181.524 149.811 181.377 149.857C181.231 149.903 181.043 149.959 180.808 150.023L183.966 161.6L187.123 173.177C188.843 172.708 191.214 171.965 193.34 170.69L187.166 160.4ZM183.966 161.6L180.808 150.023C179.919 150.265 178.754 150.508 177.269 150.721L178.966 162.6L180.663 174.479C182.91 174.158 185.079 173.735 187.123 173.177L183.966 161.6ZM178.966 162.6L177.141 150.74C175.898 150.931 174.917 151 174.166 151V163V175C176.348 175 178.566 174.803 180.79 174.46L178.966 162.6ZM174.166 163V151C168.888 151 165.343 150.045 162.98 148.795L157.366 159.4L151.751 170.005C158.455 173.555 166.11 175 174.166 175V163ZM157.366 159.4L163.112 148.865C161.952 148.233 160.195 146.698 158.622 142.44L147.366 146.6L136.11 150.76C139.069 158.768 143.979 165.767 151.619 169.935L157.366 159.4ZM147.366 146.6V134.6H145.166V146.6V158.6H147.366V146.6ZM145.166 146.6L134.354 141.394C132.862 144.493 131.43 146.884 130.105 148.682L139.766 155.8L149.426 162.918C151.835 159.65 154.003 155.907 155.978 151.806L145.166 146.6ZM139.766 155.8L130.293 148.433C129.38 149.607 128.595 150.169 127.999 150.467L133.366 161.2L138.732 171.933C142.936 169.831 146.418 166.793 149.238 163.167L139.766 155.8ZM133.366 161.2L127.999 150.467C127.679 150.627 126.695 151 124.566 151V163V175C129.37 175 134.252 174.173 138.732 171.933L133.366 161.2ZM124.566 163V151C122.863 151 121.862 150.783 121.36 150.616L117.566 162L113.771 173.384C117.269 174.55 120.935 175 124.566 175V163ZM117.566 162L121.602 150.699C121.13 150.531 120.62 150.258 120.048 149.781L112.366 159L104.683 168.219C107.311 170.409 110.268 172.136 113.53 173.301L117.566 162ZM112.366 159L120.438 150.121C119.551 149.315 118.533 148.227 117.401 146.786L107.966 154.2L98.5298 161.614C100.331 163.907 102.247 166.019 104.294 167.879L112.366 159ZM107.966 154.2V142.2H107.366V154.2V166.2H107.966V154.2ZM107.366 154.2L95.5987 156.553C95.6743 156.932 95.8482 158.289 95.978 161.145L107.966 160.6L119.953 160.055C119.816 157.044 119.59 154.135 119.133 151.847L107.366 154.2ZM107.966 160.6L95.9792 161.171C96.1027 163.764 96.1656 166.506 96.1656 169.4H108.166H120.166C120.166 166.16 120.095 163.036 119.952 160.029L107.966 160.6ZM108.166 169.4L96.176 169.9C96.3046 172.984 96.3656 175.611 96.3656 177.8H108.366H120.366C120.366 175.189 120.293 172.216 120.155 168.9L108.166 169.4ZM108.366 177.8H96.3656V209H108.366H120.366V177.8H108.366ZM108.366 209V197H76.3656V209V221H108.366V209Z" fill="var(--pageColor)" mask="url(#path-2-outside-1_57_862)"/>
<path d="M76.3656 209V51.8H108.366V115.6C108.366 123.333 109.699 129.2 112.366 133.2C115.166 137.2 119.032 139.2 123.966 139.2C128.232 139.2 131.699 137.8 134.366 135C137.166 132.2 139.166 128.133 140.366 122.8C141.699 117.467 142.366 110.933 142.366 103.2V51.8H174.166V126.4C174.166 130.933 174.899 134 176.366 135.6C177.832 137.2 179.632 138 181.766 138C182.699 138 183.699 137.867 184.766 137.6C185.832 137.333 186.632 137.133 187.166 137V160.4C186.499 160.8 185.432 161.2 183.966 161.6C182.499 162 180.832 162.333 178.966 162.6C177.232 162.867 175.632 163 174.166 163C167.499 163 161.899 161.8 157.366 159.4C152.966 157 149.632 152.733 147.366 146.6H145.166C143.432 150.2 141.632 153.267 139.766 155.8C137.899 158.2 135.766 160 133.366 161.2C130.966 162.4 128.032 163 124.566 163C121.899 163 119.566 162.667 117.566 162C115.699 161.333 113.966 160.333 112.366 159C110.899 157.667 109.432 156.067 107.966 154.2H107.366C107.632 155.533 107.832 157.667 107.966 160.6C108.099 163.4 108.166 166.333 108.166 169.4C108.299 172.6 108.366 175.4 108.366 177.8V209H76.3656Z" fill="var(--darkGray)"/>
</g>
</svg>
