<svg viewBox="0 0 256 256" fill="none" xmlns="http://www.w3.org/2000/svg">
<mask id="mask0_57_880" style="mask-type:alpha" maskUnits="userSpaceOnUse" x="0" y="0" width="256" height="256">
<rect width="256" height="256" fill="var(--gray)"/>
</mask>
<g mask="url(#mask0_57_880)">
<mask id="path-2-outside-1_57_880" maskUnits="userSpaceOnUse" x="42" y="59" width="173" height="136" fill="black">
<rect fill="var(--pageColor)" x="42" y="59" width="173" height="136"/>
<path d="M97.0203 183C87.5536 183 79.6203 180.667 73.2203 176C66.8203 171.333 62.0203 164.867 58.8203 156.6C55.6203 148.2 54.0203 138.667 54.0203 128C54.0203 114.667 55.8203 103.333 59.4203 94C63.0203 84.6667 67.4203 77.2667 72.6203 71.8H102.42C99.2203 75.4 96.2203 79.8667 93.4203 85.2C90.7536 90.5333 88.6203 96.7333 87.0203 103.8C85.4203 110.733 84.6203 118.467 84.6203 127C84.6203 136.733 85.687 144.667 87.8203 150.8C89.9536 156.8 93.8203 159.8 99.4203 159.8C103.287 159.8 106.154 158.867 108.02 157C110.02 155 111.287 152.2 111.82 148.6C112.487 145 112.82 140.6 112.82 135.4V106.6H143.02V135.4C143.02 140.6 143.354 145 144.02 148.6C144.687 152.2 145.954 155 147.82 157C149.82 158.867 152.754 159.8 156.62 159.8C160.354 159.8 163.287 158.467 165.42 155.8C167.687 153 169.287 149.133 170.22 144.2C171.154 139.267 171.62 133.667 171.62 127.4C171.62 119.133 170.887 111.6 169.42 104.8C168.087 97.8667 166.087 91.6667 163.42 86.2C160.754 80.6 157.554 75.8 153.82 71.8H183.42C187.42 75.9333 190.754 80.7333 193.42 86.2C196.22 91.6667 198.354 97.8667 199.82 104.8C201.287 111.6 202.02 119.333 202.02 128C202.02 138.667 200.42 148.2 197.22 156.6C194.02 164.867 189.22 171.333 182.82 176C176.554 180.667 168.62 183 159.02 183C150.754 183 144.22 181.067 139.42 177.2C134.62 173.333 130.954 167.733 128.42 160.4H127.62C126.02 165.2 123.887 169.333 121.22 172.8C118.554 176.133 115.22 178.667 111.22 180.4C107.354 182.133 102.62 183 97.0203 183Z"/>
</mask>
<path d="M97.0203 183C87.5536 183 79.6203 180.667 73.2203 176C66.8203 171.333 62.0203 164.867 58.8203 156.6C55.6203 148.2 54.0203 138.667 54.0203 128C54.0203 114.667 55.8203 103.333 59.4203 94C63.0203 84.6667 67.4203 77.2667 72.6203 71.8H102.42C99.2203 75.4 96.2203 79.8667 93.4203 85.2C90.7536 90.5333 88.6203 96.7333 87.0203 103.8C85.4203 110.733 84.6203 118.467 84.6203 127C84.6203 136.733 85.687 144.667 87.8203 150.8C89.9536 156.8 93.8203 159.8 99.4203 159.8C103.287 159.8 106.154 158.867 108.02 157C110.02 155 111.287 152.2 111.82 148.6C112.487 145 112.82 140.6 112.82 135.4V106.6H143.02V135.4C143.02 140.6 143.354 145 144.02 148.6C144.687 152.2 145.954 155 147.82 157C149.82 158.867 152.754 159.8 156.62 159.8C160.354 159.8 163.287 158.467 165.42 155.8C167.687 153 169.287 149.133 170.22 144.2C171.154 139.267 171.62 133.667 171.62 127.4C171.62 119.133 170.887 111.6 169.42 104.8C168.087 97.8667 166.087 91.6667 163.42 86.2C160.754 80.6 157.554 75.8 153.82 71.8H183.42C187.42 75.9333 190.754 80.7333 193.42 86.2C196.22 91.6667 198.354 97.8667 199.82 104.8C201.287 111.6 202.02 119.333 202.02 128C202.02 138.667 200.42 148.2 197.22 156.6C194.02 164.867 189.22 171.333 182.82 176C176.554 180.667 168.62 183 159.02 183C150.754 183 144.22 181.067 139.42 177.2C134.62 173.333 130.954 167.733 128.42 160.4H127.62C126.02 165.2 123.887 169.333 121.22 172.8C118.554 176.133 115.22 178.667 111.22 180.4C107.354 182.133 102.62 183 97.0203 183Z" fill="var(--pageColor)"/>
<path d="M73.2203 176L66.1502 185.696L66.1502 185.696L73.2203 176ZM58.8203 156.6L47.6065 160.872L47.6179 160.902L47.6295 160.932L58.8203 156.6ZM59.4203 94L48.2243 89.6815L48.2243 89.6815L59.4203 94ZM72.6203 71.8V59.8H67.4731L63.9256 63.5294L72.6203 71.8ZM102.42 71.8L111.389 79.7724L129.142 59.8H102.42V71.8ZM93.4203 85.2L82.7955 79.622L82.7403 79.7272L82.6872 79.8334L93.4203 85.2ZM87.0203 103.8L98.713 106.498L98.7186 106.474L98.7241 106.45L87.0203 103.8ZM87.8203 150.8L76.4864 154.742L76.4999 154.781L76.5137 154.82L87.8203 150.8ZM108.02 157L99.535 148.515L99.535 148.515L108.02 157ZM111.82 148.6L100.021 146.415L99.9816 146.628L99.9499 146.841L111.82 148.6ZM112.82 106.6V94.6H100.82V106.6H112.82ZM143.02 106.6H155.02V94.6H143.02V106.6ZM144.02 148.6L155.82 146.415L155.82 146.415L144.02 148.6ZM147.82 157L139.048 165.188L139.33 165.49L139.632 165.773L147.82 157ZM165.42 155.8L156.093 148.25L156.072 148.277L156.05 148.304L165.42 155.8ZM170.22 144.2L158.429 141.969L158.429 141.969L170.22 144.2ZM169.42 104.8L157.636 107.066L157.662 107.198L157.69 107.33L169.42 104.8ZM163.42 86.2L152.586 91.3592L152.61 91.4103L152.635 91.4611L163.42 86.2ZM153.82 71.8V59.8H126.206L145.048 79.9878L153.82 71.8ZM183.42 71.8L192.044 63.4549L188.506 59.8H183.42V71.8ZM193.42 86.2L182.635 91.4611L182.686 91.5663L182.74 91.6705L193.42 86.2ZM199.82 104.8L188.08 107.283L188.085 107.307L188.09 107.33L199.82 104.8ZM197.22 156.6L208.411 160.932L208.423 160.902L208.434 160.872L197.22 156.6ZM182.82 176L175.75 166.304L175.702 166.339L175.653 166.375L182.82 176ZM139.42 177.2L146.948 167.855L146.948 167.855L139.42 177.2ZM128.42 160.4L139.763 156.482L136.971 148.4H128.42V160.4ZM127.62 160.4V148.4H118.971L116.236 156.605L127.62 160.4ZM121.22 172.8L130.591 180.296L130.662 180.207L130.732 180.117L121.22 172.8ZM111.22 180.4L106.449 169.389L106.38 169.419L106.312 169.45L111.22 180.4ZM97.0203 183V171C89.5858 171 84.2608 169.199 80.2904 166.304L73.2203 176L66.1502 185.696C74.9798 192.134 85.5215 195 97.0203 195V183ZM73.2203 176L80.2904 166.304C75.9662 163.151 72.4825 158.653 70.0111 152.268L58.8203 156.6L47.6295 160.932C51.5581 171.081 57.6745 179.516 66.1502 185.696L73.2203 176ZM58.8203 156.6L70.0342 152.328C67.441 145.521 66.0203 137.473 66.0203 128H54.0203H42.0203C42.0203 139.86 43.7996 150.879 47.6065 160.872L58.8203 156.6ZM54.0203 128H66.0203C66.0203 115.68 67.6922 105.9 70.6163 98.3185L59.4203 94L48.2243 89.6815C43.9484 100.767 42.0203 113.653 42.0203 128H54.0203ZM59.4203 94L70.6163 98.3185C73.8246 90.0006 77.4909 84.0908 81.315 80.0706L72.6203 71.8L63.9256 63.5294C57.3497 70.4425 52.216 79.3327 48.2243 89.6815L59.4203 94ZM72.6203 71.8V83.8H102.42V71.8V59.8H72.6203V71.8ZM102.42 71.8L93.4514 63.8276C89.4667 68.3104 85.9407 73.6313 82.7955 79.622L93.4203 85.2L104.045 90.778C106.5 86.102 108.974 82.4896 111.389 79.7724L102.42 71.8ZM93.4203 85.2L82.6872 79.8334C79.5083 86.1913 77.0858 93.3359 75.3166 101.15L87.0203 103.8L98.7241 106.45C100.155 100.131 101.999 94.8754 104.153 90.5666L93.4203 85.2ZM87.0203 103.8L75.3276 101.102C73.4877 109.074 72.6203 117.732 72.6203 127H84.6203H96.6203C96.6203 119.201 97.3529 112.392 98.713 106.498L87.0203 103.8ZM84.6203 127H72.6203C72.6203 137.474 73.7504 146.876 76.4864 154.742L87.8203 150.8L99.1543 146.858C97.6236 142.457 96.6203 135.993 96.6203 127H84.6203ZM87.8203 150.8L76.5137 154.82C78.1208 159.34 80.7484 163.76 84.9644 167.031C89.2996 170.395 94.3593 171.8 99.4203 171.8V159.8V147.8C99.0954 147.8 99.0422 147.758 99.1705 147.798C99.3164 147.844 99.5081 147.938 99.6763 148.069C100.026 148.34 99.6532 148.26 99.1269 146.78L87.8203 150.8ZM99.4203 159.8V171.8C104.994 171.8 111.525 170.466 116.506 165.485L108.02 157L99.535 148.515C99.8089 148.241 100.085 148.038 100.323 147.897C100.556 147.759 100.716 147.702 100.755 147.69C100.791 147.678 100.712 147.707 100.485 147.739C100.258 147.77 99.9093 147.8 99.4203 147.8V159.8ZM108.02 157L116.506 165.485C120.789 161.202 122.889 155.773 123.691 150.359L111.82 148.6L99.9499 146.841C99.8172 147.737 99.6365 148.234 99.537 148.454C99.448 148.651 99.4273 148.622 99.535 148.515L108.02 157ZM111.82 148.6L123.62 150.785C124.462 146.234 124.82 141.055 124.82 135.4H112.82H100.82C100.82 140.145 100.512 143.766 100.021 146.415L111.82 148.6ZM112.82 135.4H124.82V106.6H112.82H100.82V135.4H112.82ZM112.82 106.6V118.6H143.02V106.6V94.6H112.82V106.6ZM143.02 106.6H131.02V135.4H143.02H155.02V106.6H143.02ZM143.02 135.4H131.02C131.02 141.055 131.378 146.234 132.221 150.785L144.02 148.6L155.82 146.415C155.329 143.766 155.02 140.145 155.02 135.4H143.02ZM144.02 148.6L132.221 150.785C133.167 155.892 135.176 161.039 139.048 165.188L147.82 157L156.593 148.812C156.731 148.961 156.207 148.508 155.82 146.415L144.02 148.6ZM147.82 157L139.632 165.773C144.629 170.436 150.972 171.8 156.62 171.8V159.8V147.8C155.62 147.8 155.192 147.676 155.159 147.665C155.153 147.663 155.252 147.694 155.419 147.789C155.589 147.886 155.796 148.03 156.008 148.227L147.82 157ZM156.62 159.8V171.8C163.611 171.8 170.148 169.1 174.791 163.296L165.42 155.8L156.05 148.304C156.05 148.304 156.051 148.302 156.053 148.3C156.055 148.298 156.058 148.294 156.062 148.29C156.07 148.281 156.082 148.268 156.098 148.252C156.13 148.22 156.175 148.178 156.235 148.131C156.36 148.033 156.505 147.943 156.655 147.876C156.802 147.809 156.899 147.787 156.917 147.783C156.93 147.78 156.84 147.8 156.62 147.8V159.8ZM165.42 155.8L174.747 163.35C178.657 158.521 180.846 152.587 182.011 146.431L170.22 144.2L158.429 141.969C157.728 145.679 156.717 147.479 156.093 148.25L165.42 155.8ZM170.22 144.2L182.011 146.431C183.113 140.608 183.62 134.24 183.62 127.4H171.62H159.62C159.62 133.094 159.194 137.926 158.429 141.969L170.22 144.2ZM171.62 127.4H183.62C183.62 118.437 182.826 110.039 181.151 102.27L169.42 104.8L157.69 107.33C158.948 113.161 159.62 119.83 159.62 127.4H171.62ZM169.42 104.8L181.204 102.534C179.703 94.7249 177.403 87.4934 174.206 80.9389L163.42 86.2L152.635 91.4611C154.771 95.8399 156.471 101.008 157.636 107.066L169.42 104.8ZM163.42 86.2L174.255 81.0408C171.129 74.4775 167.268 68.6211 162.593 63.6122L153.82 71.8L145.048 79.9878C147.839 82.9789 150.378 86.7225 152.586 91.3592L163.42 86.2ZM153.82 71.8V83.8H183.42V71.8V59.8H153.82V71.8ZM183.42 71.8L174.797 80.1451C177.869 83.3197 180.49 87.0643 182.635 91.4611L193.42 86.2L204.206 80.9389C201.017 74.4024 196.971 68.547 192.044 63.4549L183.42 71.8ZM193.42 86.2L182.74 91.6705C184.989 96.0609 186.8 101.233 188.08 107.283L199.82 104.8L211.561 102.317C209.907 94.5006 207.452 87.2724 204.101 80.7295L193.42 86.2ZM199.82 104.8L188.09 107.33C189.34 113.125 190.02 119.986 190.02 128H202.02H214.02C214.02 118.681 213.234 110.075 211.551 102.27L199.82 104.8ZM202.02 128H190.02C190.02 137.473 188.6 145.521 186.006 152.328L197.22 156.6L208.434 160.872C212.241 150.879 214.02 139.86 214.02 128H202.02ZM197.22 156.6L186.029 152.268C183.558 158.653 180.074 163.151 175.75 166.304L182.82 176L189.89 185.696C198.366 179.516 204.483 171.081 208.411 160.932L197.22 156.6ZM182.82 176L175.653 166.375C171.894 169.175 166.64 171 159.02 171V183V195C170.601 195 181.214 192.158 189.988 185.625L182.82 176ZM159.02 183V171C152.558 171 148.987 169.497 146.948 167.855L139.42 177.2L131.892 186.545C139.454 192.636 148.949 195 159.02 195V183ZM139.42 177.2L146.948 167.855C144.307 165.727 141.749 162.232 139.763 156.482L128.42 160.4L117.078 164.318C120.158 173.235 124.934 180.94 131.892 186.545L139.42 177.2ZM128.42 160.4V148.4H127.62V160.4V172.4H128.42V160.4ZM127.62 160.4L116.236 156.605C114.994 160.331 113.442 163.23 111.709 165.483L121.22 172.8L130.732 180.117C134.332 175.437 137.046 170.069 139.005 164.195L127.62 160.4ZM121.22 172.8L111.85 165.304C110.433 167.074 108.692 168.417 106.449 169.389L111.22 180.4L115.992 191.411C121.749 188.916 126.674 185.192 130.591 180.296L121.22 172.8ZM111.22 180.4L106.312 169.45C104.4 170.307 101.446 171 97.0203 171V183V195C103.794 195 110.307 193.96 116.129 191.35L111.22 180.4Z" fill="var(--pageColor)" mask="url(#path-2-outside-1_57_880)"/>
<path d="M97.0203 183C87.5536 183 79.6203 180.667 73.2203 176C66.8203 171.333 62.0203 164.867 58.8203 156.6C55.6203 148.2 54.0203 138.667 54.0203 128C54.0203 114.667 55.8203 103.333 59.4203 94C63.0203 84.6667 67.4203 77.2667 72.6203 71.8H102.42C99.2203 75.4 96.2203 79.8667 93.4203 85.2C90.7536 90.5333 88.6203 96.7333 87.0203 103.8C85.4203 110.733 84.6203 118.467 84.6203 127C84.6203 136.733 85.687 144.667 87.8203 150.8C89.9536 156.8 93.8203 159.8 99.4203 159.8C103.287 159.8 106.154 158.867 108.02 157C110.02 155 111.287 152.2 111.82 148.6C112.487 145 112.82 140.6 112.82 135.4V106.6H143.02V135.4C143.02 140.6 143.354 145 144.02 148.6C144.687 152.2 145.954 155 147.82 157C149.82 158.867 152.754 159.8 156.62 159.8C160.354 159.8 163.287 158.467 165.42 155.8C167.687 153 169.287 149.133 170.22 144.2C171.154 139.267 171.62 133.667 171.62 127.4C171.62 119.133 170.887 111.6 169.42 104.8C168.087 97.8667 166.087 91.6667 163.42 86.2C160.754 80.6 157.554 75.8 153.82 71.8H183.42C187.42 75.9333 190.754 80.7333 193.42 86.2C196.22 91.6667 198.354 97.8667 199.82 104.8C201.287 111.6 202.02 119.333 202.02 128C202.02 138.667 200.42 148.2 197.22 156.6C194.02 164.867 189.22 171.333 182.82 176C176.554 180.667 168.62 183 159.02 183C150.754 183 144.22 181.067 139.42 177.2C134.62 173.333 130.954 167.733 128.42 160.4H127.62C126.02 165.2 123.887 169.333 121.22 172.8C118.554 176.133 115.22 178.667 111.22 180.4C107.354 182.133 102.62 183 97.0203 183Z" fill="var(--darkGray)"/>
</g>
</svg>
