<svg viewBox="0 0 256 256" fill="none" xmlns="http://www.w3.org/2000/svg">
<mask id="mask0_57_874" style="mask-type:alpha" maskUnits="userSpaceOnUse" x="0" y="0" width="256" height="256">
<rect width="256" height="256" fill="var(--gray)"/>
</mask>
<g mask="url(#mask0_57_874)">
<mask id="path-2-outside-1_57_874" maskUnits="userSpaceOnUse" x="43" y="17" width="170" height="224" fill="black">
<rect fill="var(--pageColor)" x="43" y="17" width="170" height="224"/>
<path d="M114.434 229V181.8C101.9 180.6 91.2336 177.6 82.4336 172.8C73.7669 167.867 67.1003 161.467 62.4336 153.6C57.9003 145.6 55.6336 136.533 55.6336 126.4C55.6336 116 57.7003 106.8 61.8336 98.8C66.1003 90.8 72.5669 84.4 81.2336 79.6C90.0336 74.8 101.1 72 114.434 71.2V29H142.034V71.2C154.7 72.2667 165.367 75.2667 174.034 80.2C182.7 85 189.234 91.3333 193.634 99.2C198.167 107.067 200.434 116.133 200.434 126.4C200.434 136.533 198.234 145.6 193.834 153.6C189.567 161.6 183.1 168.067 174.434 173C165.9 177.8 155.1 180.733 142.034 181.8V229H114.434ZM114.434 160.2V92.6C108.7 93.4 103.7 95.3333 99.4336 98.4C95.1669 101.333 91.9003 105.2 89.6336 110C87.3669 114.8 86.2336 120.267 86.2336 126.4C86.2336 132.667 87.3003 138.2 89.4336 143C91.7003 147.8 94.9003 151.667 99.0336 154.6C103.3 157.533 108.434 159.4 114.434 160.2ZM142.034 160.2C148.034 159.4 153.1 157.533 157.234 154.6C161.367 151.667 164.5 147.8 166.634 143C168.767 138.2 169.834 132.667 169.834 126.4C169.834 117.2 167.367 109.6 162.434 103.6C157.5 97.6 150.7 94.0667 142.034 93V160.2Z"/>
</mask>
<path d="M114.434 229V181.8C101.9 180.6 91.2336 177.6 82.4336 172.8C73.7669 167.867 67.1003 161.467 62.4336 153.6C57.9003 145.6 55.6336 136.533 55.6336 126.4C55.6336 116 57.7003 106.8 61.8336 98.8C66.1003 90.8 72.5669 84.4 81.2336 79.6C90.0336 74.8 101.1 72 114.434 71.2V29H142.034V71.2C154.7 72.2667 165.367 75.2667 174.034 80.2C182.7 85 189.234 91.3333 193.634 99.2C198.167 107.067 200.434 116.133 200.434 126.4C200.434 136.533 198.234 145.6 193.834 153.6C189.567 161.6 183.1 168.067 174.434 173C165.9 177.8 155.1 180.733 142.034 181.8V229H114.434ZM114.434 160.2V92.6C108.7 93.4 103.7 95.3333 99.4336 98.4C95.1669 101.333 91.9003 105.2 89.6336 110C87.3669 114.8 86.2336 120.267 86.2336 126.4C86.2336 132.667 87.3003 138.2 89.4336 143C91.7003 147.8 94.9003 151.667 99.0336 154.6C103.3 157.533 108.434 159.4 114.434 160.2ZM142.034 160.2C148.034 159.4 153.1 157.533 157.234 154.6C161.367 151.667 164.5 147.8 166.634 143C168.767 138.2 169.834 132.667 169.834 126.4C169.834 117.2 167.367 109.6 162.434 103.6C157.5 97.6 150.7 94.0667 142.034 93V160.2Z" fill="var(--pageColor)"/>
<path d="M114.434 229H102.434V241H114.434V229ZM114.434 181.8H126.434V170.894L115.577 169.855L114.434 181.8ZM82.4336 172.8L76.4972 183.229L76.5918 183.283L76.6874 183.335L82.4336 172.8ZM62.4336 153.6L51.9933 159.516L52.0521 159.62L52.1129 159.722L62.4336 153.6ZM61.8336 98.8L51.2454 93.1529L51.2085 93.2221L51.1725 93.2918L61.8336 98.8ZM81.2336 79.6L75.4874 69.0652L75.4534 69.0838L75.4196 69.1025L81.2336 79.6ZM114.434 71.2L115.152 83.1785L126.434 82.5016V71.2H114.434ZM114.434 29V17H102.434V29H114.434ZM142.034 29H154.034V17H142.034V29ZM142.034 71.2H130.034V82.2319L141.027 83.1577L142.034 71.2ZM174.034 80.2L168.097 90.6288L168.158 90.6635L168.22 90.6975L174.034 80.2ZM193.634 99.2L183.16 105.058L183.198 105.125L183.236 105.192L193.634 99.2ZM193.834 153.6L183.319 147.817L183.282 147.885L183.245 147.953L193.834 153.6ZM174.434 173L180.317 183.459L180.343 183.444L180.37 183.429L174.434 173ZM142.034 181.8L141.057 169.84L130.034 170.74V181.8H142.034ZM142.034 229V241H154.034V229H142.034ZM114.434 160.2L112.848 172.095L126.434 173.906V160.2H114.434ZM114.434 92.6H126.434V78.8093L112.775 80.7151L114.434 92.6ZM99.4336 98.4L106.232 108.289L106.335 108.217L106.437 108.144L99.4336 98.4ZM89.4336 143L78.4679 147.874L78.5238 148L78.5826 148.124L89.4336 143ZM99.0336 154.6L92.0886 164.386L92.1616 164.438L92.2353 164.489L99.0336 154.6ZM142.034 160.2H130.034V173.906L143.62 172.095L142.034 160.2ZM157.234 154.6L164.179 164.386L164.179 164.386L157.234 154.6ZM166.634 143L155.668 138.126L155.668 138.126L166.634 143ZM162.434 103.6L171.703 95.9787L171.703 95.9787L162.434 103.6ZM142.034 93L143.499 81.0899L130.034 79.4325V93H142.034ZM114.434 229H126.434V181.8H114.434H102.434V229H114.434ZM114.434 181.8L115.577 169.855C104.259 168.771 95.2425 166.118 88.1798 162.265L82.4336 172.8L76.6874 183.335C87.2247 189.082 99.542 192.429 113.29 193.745L114.434 181.8ZM82.4336 172.8L88.37 162.371C81.3457 158.373 76.2635 153.393 72.7543 147.478L62.4336 153.6L52.1129 159.722C57.937 169.54 66.1882 177.361 76.4972 183.229L82.4336 172.8ZM62.4336 153.6L72.8739 147.684C69.4647 141.668 67.6336 134.677 67.6336 126.4H55.6336H43.6336C43.6336 138.39 46.3358 149.532 51.9933 159.516L62.4336 153.6ZM55.6336 126.4H67.6336C67.6336 117.619 69.3685 110.359 72.4947 104.308L61.8336 98.8L51.1725 93.2918C46.032 103.241 43.6336 114.381 43.6336 126.4H55.6336ZM61.8336 98.8L72.4218 104.447C75.498 98.6793 80.2117 93.8835 87.0476 90.0975L81.2336 79.6L75.4196 69.1025C64.9222 74.9165 56.7026 82.9207 51.2454 93.1529L61.8336 98.8ZM81.2336 79.6L86.9798 90.1347C93.8052 86.4118 103.023 83.9062 115.152 83.1785L114.434 71.2L113.715 59.2215C99.1778 60.0938 86.262 63.1882 75.4874 69.0652L81.2336 79.6ZM114.434 71.2H126.434V29H114.434H102.434V71.2H114.434ZM114.434 29V41H142.034V29V17H114.434V29ZM142.034 29H130.034V71.2H142.034H154.034V29H142.034ZM142.034 71.2L141.027 83.1577C152.419 84.117 161.299 86.759 168.097 90.6288L174.034 80.2L179.97 69.7712C169.435 63.7743 156.982 60.4163 143.041 59.2423L142.034 71.2ZM174.034 80.2L168.22 90.6975C175.132 94.5259 179.958 99.332 183.16 105.058L193.634 99.2L204.107 93.3422C198.509 83.3346 190.269 75.4741 179.848 69.7025L174.034 80.2ZM193.634 99.2L183.236 105.192C186.588 111.008 188.434 117.956 188.434 126.4H200.434H212.434C212.434 114.31 209.746 103.126 204.031 93.2084L193.634 99.2ZM200.434 126.4H188.434C188.434 134.738 186.641 141.777 183.319 147.817L193.834 153.6L204.348 159.383C209.826 149.423 212.434 138.329 212.434 126.4H200.434ZM193.834 153.6L183.245 147.953C180.152 153.754 175.396 158.644 168.497 162.571L174.434 173L180.37 183.429C190.804 177.489 198.982 169.446 204.422 159.247L193.834 153.6ZM174.434 173L168.55 162.541C161.945 166.257 152.954 168.869 141.057 169.84L142.034 181.8L143.01 193.76C157.246 192.598 169.855 189.343 180.317 183.459L174.434 173ZM142.034 181.8H130.034V229H142.034H154.034V181.8H142.034ZM142.034 229V217H114.434V229V241H142.034V229ZM114.434 160.2H126.434V92.6H114.434H102.434V160.2H114.434ZM114.434 92.6L112.775 80.7151C105.313 81.7564 98.4344 84.3401 92.43 88.6558L99.4336 98.4L106.437 108.144C108.966 106.327 112.088 105.044 116.092 104.485L114.434 92.6ZM99.4336 98.4L92.6353 88.5115C86.5747 92.6781 81.9313 98.2081 78.7826 104.876L89.6336 110L100.485 115.124C101.869 112.192 103.759 109.989 106.232 108.289L99.4336 98.4ZM89.6336 110L78.7826 104.876C75.6502 111.509 74.2336 118.769 74.2336 126.4H86.2336H98.2336C98.2336 121.764 99.0837 118.091 100.485 115.124L89.6336 110ZM86.2336 126.4H74.2336C74.2336 134.027 75.534 141.272 78.4679 147.874L89.4336 143L100.399 138.126C99.0665 135.128 98.2336 131.307 98.2336 126.4H86.2336ZM89.4336 143L78.5826 148.124C81.6861 154.696 86.1938 160.203 92.0886 164.386L99.0336 154.6L105.979 144.814C103.607 143.131 101.714 140.904 100.285 137.876L89.4336 143ZM99.0336 154.6L92.2353 164.489C98.3004 168.658 105.293 171.087 112.848 172.095L114.434 160.2L116.02 148.305C111.575 147.713 108.3 146.408 105.832 144.711L99.0336 154.6ZM142.034 160.2L143.62 172.095C151.177 171.087 158.175 168.646 164.179 164.386L157.234 154.6L150.289 144.814C148.025 146.42 144.89 147.713 140.448 148.305L142.034 160.2ZM157.234 154.6L164.179 164.386C170.135 160.159 174.624 154.567 177.599 147.874L166.634 143L155.668 138.126C154.376 141.033 152.599 143.174 150.289 144.814L157.234 154.6ZM166.634 143L177.599 147.874C180.533 141.272 181.834 134.027 181.834 126.4H169.834H157.834C157.834 131.307 157.001 135.127 155.668 138.126L166.634 143ZM169.834 126.4H181.834C181.834 114.955 178.714 104.506 171.703 95.9787L162.434 103.6L153.164 111.221C156.02 114.694 157.834 119.445 157.834 126.4H169.834ZM162.434 103.6L171.703 95.9787C164.567 87.2997 154.81 82.4819 143.499 81.0899L142.034 93L140.568 104.91C146.59 105.651 150.434 107.9 153.164 111.221L162.434 103.6ZM142.034 93H130.034V160.2H142.034H154.034V93H142.034Z" fill="var(--pageColor)" mask="url(#path-2-outside-1_57_874)"/>
<path d="M114.434 229V181.8C101.9 180.6 91.2336 177.6 82.4336 172.8C73.7669 167.867 67.1003 161.467 62.4336 153.6C57.9003 145.6 55.6336 136.533 55.6336 126.4C55.6336 116 57.7003 106.8 61.8336 98.8C66.1003 90.8 72.5669 84.4 81.2336 79.6C90.0336 74.8 101.1 72 114.434 71.2V29H142.034V71.2C154.7 72.2667 165.367 75.2667 174.034 80.2C182.7 85 189.234 91.3333 193.634 99.2C198.167 107.067 200.434 116.133 200.434 126.4C200.434 136.533 198.234 145.6 193.834 153.6C189.567 161.6 183.1 168.067 174.434 173C165.9 177.8 155.1 180.733 142.034 181.8V229H114.434ZM114.434 160.2V92.6C108.7 93.4 103.7 95.3333 99.4336 98.4C95.1669 101.333 91.9003 105.2 89.6336 110C87.3669 114.8 86.2336 120.267 86.2336 126.4C86.2336 132.667 87.3003 138.2 89.4336 143C91.7003 147.8 94.9003 151.667 99.0336 154.6C103.3 157.533 108.434 159.4 114.434 160.2ZM142.034 160.2C148.034 159.4 153.1 157.533 157.234 154.6C161.367 151.667 164.5 147.8 166.634 143C168.767 138.2 169.834 132.667 169.834 126.4C169.834 117.2 167.367 109.6 162.434 103.6C157.5 97.6 150.7 94.0667 142.034 93V160.2Z" fill="var(--darkGray)"/>
</g>
</svg>
