<svg viewBox="0 0 256 256" fill="none" xmlns="http://www.w3.org/2000/svg">
<mask id="mask0_57_910" style="mask-type:alpha" maskUnits="userSpaceOnUse" x="0" y="0" width="256" height="256">
<rect width="256" height="256" fill="var(--gray)"/>
</mask>
<g mask="url(#mask0_57_910)">
<mask id="path-2-outside-1_57_910" maskUnits="userSpaceOnUse" x="47" y="59" width="160" height="136" fill="black">
<rect fill="var(--pageColor)" x="47" y="59" width="160" height="136"/>
<path d="M170.246 183C160.513 183 153.113 180.467 148.046 175.4C143.113 170.333 140.646 162.2 140.646 151V94.2H113.646V181H81.6461V94.2H59.8461V71.8H194.846V94.2H172.646V149.8C172.646 153.133 173.446 155.6 175.046 157.2C176.779 158.8 178.846 159.6 181.246 159.6C183.379 159.6 185.579 159.267 187.846 158.6C190.246 157.933 192.379 157.133 194.246 156.2V177.6C191.713 178.933 188.246 180.133 183.846 181.2C179.446 182.4 174.913 183 170.246 183Z"/>
</mask>
<path d="M170.246 183C160.513 183 153.113 180.467 148.046 175.4C143.113 170.333 140.646 162.2 140.646 151V94.2H113.646V181H81.6461V94.2H59.8461V71.8H194.846V94.2H172.646V149.8C172.646 153.133 173.446 155.6 175.046 157.2C176.779 158.8 178.846 159.6 181.246 159.6C183.379 159.6 185.579 159.267 187.846 158.6C190.246 157.933 192.379 157.133 194.246 156.2V177.6C191.713 178.933 188.246 180.133 183.846 181.2C179.446 182.4 174.913 183 170.246 183Z" fill="var(--pageColor)"/>
<path d="M148.046 175.4L139.448 183.771L139.504 183.829L139.561 183.885L148.046 175.4ZM140.646 94.2H152.646V82.2H140.646V94.2ZM113.646 94.2V82.2H101.646V94.2H113.646ZM113.646 181V193H125.646V181H113.646ZM81.6461 181H69.6461V193H81.6461V181ZM81.6461 94.2H93.6461V82.2H81.6461V94.2ZM59.8461 94.2H47.8461V106.2H59.8461V94.2ZM59.8461 71.8V59.8H47.8461V71.8H59.8461ZM194.846 71.8H206.846V59.8H194.846V71.8ZM194.846 94.2V106.2H206.846V94.2H194.846ZM172.646 94.2V82.2H160.646V94.2H172.646ZM175.046 157.2L166.561 165.685L166.73 165.855L166.907 166.018L175.046 157.2ZM187.846 158.6L184.634 147.038L184.547 147.062L184.46 147.088L187.846 158.6ZM194.246 156.2H206.246V136.784L188.88 145.467L194.246 156.2ZM194.246 177.6L199.835 188.219L206.246 184.845V177.6H194.246ZM183.846 181.2L181.019 169.538L180.853 169.578L180.689 169.623L183.846 181.2ZM170.246 183V171C162.525 171 158.637 169.02 156.531 166.915L148.046 175.4L139.561 183.885C147.589 191.913 158.501 195 170.246 195V183ZM148.046 175.4L156.644 167.029C154.87 165.206 152.646 160.83 152.646 151H140.646H128.646C128.646 163.57 131.356 175.46 139.448 183.771L148.046 175.4ZM140.646 151H152.646V94.2H140.646H128.646V151H140.646ZM140.646 94.2V82.2H113.646V94.2V106.2H140.646V94.2ZM113.646 94.2H101.646V181H113.646H125.646V94.2H113.646ZM113.646 181V169H81.6461V181V193H113.646V181ZM81.6461 181H93.6461V94.2H81.6461H69.6461V181H81.6461ZM81.6461 94.2V82.2H59.8461V94.2V106.2H81.6461V94.2ZM59.8461 94.2H71.8461V71.8H59.8461H47.8461V94.2H59.8461ZM59.8461 71.8V83.8H194.846V71.8V59.8H59.8461V71.8ZM194.846 71.8H182.846V94.2H194.846H206.846V71.8H194.846ZM194.846 94.2V82.2H172.646V94.2V106.2H194.846V94.2ZM172.646 94.2H160.646V149.8H172.646H184.646V94.2H172.646ZM172.646 149.8H160.646C160.646 154.817 161.835 160.96 166.561 165.685L175.046 157.2L183.531 148.715C184.256 149.439 184.562 150.143 184.661 150.448C184.741 150.696 184.646 150.549 184.646 149.8H172.646ZM175.046 157.2L166.907 166.018C170.899 169.703 175.888 171.6 181.246 171.6V159.6V147.6C181.404 147.6 181.769 147.631 182.228 147.809C182.691 147.988 183.016 148.226 183.185 148.382L175.046 157.2ZM181.246 159.6V171.6C184.641 171.6 187.983 171.068 191.232 170.112L187.846 158.6L184.46 147.088C183.176 147.465 182.118 147.6 181.246 147.6V159.6ZM187.846 158.6L191.058 170.162C194.063 169.327 196.939 168.27 199.613 166.933L194.246 156.2L188.88 145.467C187.82 145.997 186.429 146.539 184.634 147.038L187.846 158.6ZM194.246 156.2H182.246V177.6H194.246H206.246V156.2H194.246ZM194.246 177.6L188.657 166.981C187.351 167.668 184.945 168.586 181.019 169.538L183.846 181.2L186.673 192.862C191.547 191.681 196.074 190.198 199.835 188.219L194.246 177.6ZM183.846 181.2L180.689 169.623C177.342 170.536 173.871 171 170.246 171V183V195C175.954 195 181.551 194.264 187.004 192.777L183.846 181.2Z" fill="var(--pageColor)" mask="url(#path-2-outside-1_57_910)"/>
<path d="M170.246 183C160.513 183 153.113 180.467 148.046 175.4C143.113 170.333 140.646 162.2 140.646 151V94.2H113.646V181H81.6461V94.2H59.8461V71.8H194.846V94.2H172.646V149.8C172.646 153.133 173.446 155.6 175.046 157.2C176.779 158.8 178.846 159.6 181.246 159.6C183.379 159.6 185.579 159.267 187.846 158.6C190.246 157.933 192.379 157.133 194.246 156.2V177.6C191.713 178.933 188.246 180.133 183.846 181.2C179.446 182.4 174.913 183 170.246 183Z" fill="var(--darkGray)"/>
</g>
</svg>
