<svg viewBox="0 0 256 256" fill="none" xmlns="http://www.w3.org/2000/svg">
<mask id="mask0_57_868" style="mask-type:alpha" maskUnits="userSpaceOnUse" x="0" y="0" width="256" height="256">
<rect width="256" height="256" fill="var(--gray)"/>
</mask>
<g mask="url(#mask0_57_868)">
<mask id="path-2-outside-1_57_868" maskUnits="userSpaceOnUse" x="59" y="59" width="138" height="136" fill="white">
<rect x="59" y="59" width="138" height="136"/>
<path d="M123.347 183C113.08 183 104.014 180.933 96.1469 176.8C88.4135 172.533 82.4135 166.333 78.1469 158.2C73.8802 149.933 71.7469 139.8 71.7469 127.8C71.7469 114.333 73.9469 103.533 78.3469 95.4C82.8802 87.1333 89.6135 81.1333 98.5469 77.4C107.48 73.5333 118.614 71.6 131.947 71.6H184.547V94.2H158.747C162.08 97.5333 164.947 101.2 167.347 105.2C169.88 109.067 171.814 113.4 173.147 118.2C174.614 123 175.347 128.467 175.347 134.6C175.347 141.4 174.214 147.733 171.947 153.6C169.68 159.467 166.347 164.6 161.947 169C157.547 173.4 152.08 176.867 145.547 179.4C139.147 181.8 131.747 183 123.347 183ZM123.747 159C128.28 159 131.88 157.8 134.547 155.4C137.347 153 139.414 149.6 140.747 145.2C142.08 140.8 142.747 135.733 142.747 130C142.747 124.667 142.347 119.933 141.547 115.8C140.747 111.667 139.547 107.867 137.947 104.4C136.48 100.8 134.614 97.4 132.347 94.2H128.947C123.347 94.2 118.68 95.2667 114.947 97.4C111.347 99.5333 108.68 103.067 106.947 108C105.214 112.8 104.347 119.4 104.347 127.8C104.347 134.067 105.014 139.533 106.347 144.2C107.68 148.867 109.747 152.533 112.547 155.2C115.48 157.733 119.214 159 123.747 159Z"/>
</mask>
<path d="M123.347 183C113.08 183 104.014 180.933 96.1469 176.8C88.4135 172.533 82.4135 166.333 78.1469 158.2C73.8802 149.933 71.7469 139.8 71.7469 127.8C71.7469 114.333 73.9469 103.533 78.3469 95.4C82.8802 87.1333 89.6135 81.1333 98.5469 77.4C107.48 73.5333 118.614 71.6 131.947 71.6H184.547V94.2H158.747C162.08 97.5333 164.947 101.2 167.347 105.2C169.88 109.067 171.814 113.4 173.147 118.2C174.614 123 175.347 128.467 175.347 134.6C175.347 141.4 174.214 147.733 171.947 153.6C169.68 159.467 166.347 164.6 161.947 169C157.547 173.4 152.08 176.867 145.547 179.4C139.147 181.8 131.747 183 123.347 183ZM123.747 159C128.28 159 131.88 157.8 134.547 155.4C137.347 153 139.414 149.6 140.747 145.2C142.08 140.8 142.747 135.733 142.747 130C142.747 124.667 142.347 119.933 141.547 115.8C140.747 111.667 139.547 107.867 137.947 104.4C136.48 100.8 134.614 97.4 132.347 94.2H128.947C123.347 94.2 118.68 95.2667 114.947 97.4C111.347 99.5333 108.68 103.067 106.947 108C105.214 112.8 104.347 119.4 104.347 127.8C104.347 134.067 105.014 139.533 106.347 144.2C107.68 148.867 109.747 152.533 112.547 155.2C115.48 157.733 119.214 159 123.747 159Z" fill="var(--pageColor)"/>
<path d="M96.1469 176.8L90.3499 187.307L90.4571 187.366L90.5653 187.423L96.1469 176.8ZM78.1469 158.2L67.4834 163.704L67.5018 163.739L67.5203 163.775L78.1469 158.2ZM78.3469 95.4L67.8251 89.63L67.8087 89.66L67.7924 89.6902L78.3469 95.4ZM98.5469 77.4L103.174 88.472L103.244 88.4428L103.314 88.4127L98.5469 77.4ZM184.547 71.6H196.547V59.6H184.547V71.6ZM184.547 94.2V106.2H196.547V94.2H184.547ZM158.747 94.2V82.2H129.776L150.262 102.685L158.747 94.2ZM167.347 105.2L157.057 111.374L157.179 111.578L157.309 111.776L167.347 105.2ZM173.147 118.2L161.585 121.412L161.626 121.56L161.671 121.707L173.147 118.2ZM171.947 153.6L183.14 157.925L183.14 157.925L171.947 153.6ZM161.947 169L153.462 160.515L153.462 160.515L161.947 169ZM145.547 179.4L149.76 190.636L149.823 190.612L149.885 190.588L145.547 179.4ZM134.547 155.4L126.737 146.289L126.627 146.383L126.519 146.48L134.547 155.4ZM140.747 145.2L129.263 141.72L129.263 141.72L140.747 145.2ZM141.547 115.8L129.766 118.08L129.766 118.08L141.547 115.8ZM137.947 104.4L126.834 108.928L126.937 109.181L127.051 109.429L137.947 104.4ZM132.347 94.2L142.139 87.2638L138.552 82.2H132.347V94.2ZM114.947 97.4L108.993 86.9811L108.911 87.0281L108.829 87.0765L114.947 97.4ZM106.947 108L118.234 112.076L118.251 112.027L118.268 111.978L106.947 108ZM106.347 144.2L117.885 140.903L117.885 140.903L106.347 144.2ZM112.547 155.2L104.271 163.89L104.482 164.091L104.703 164.282L112.547 155.2ZM123.347 183V171C114.721 171 107.624 169.275 101.728 166.177L96.1469 176.8L90.5653 187.423C100.403 192.592 111.439 195 123.347 195V183ZM96.1469 176.8L101.944 166.293C96.3538 163.209 91.9941 158.765 88.7734 152.625L78.1469 158.2L67.5203 163.775C72.833 173.902 80.4733 181.858 90.3499 187.307L96.1469 176.8ZM78.1469 158.2L88.8103 152.696C85.6393 146.552 83.7469 138.423 83.7469 127.8H71.7469H59.7469C59.7469 141.177 62.1211 153.314 67.4834 163.704L78.1469 158.2ZM71.7469 127.8H83.7469C83.7469 115.48 85.7848 106.871 88.9014 101.11L78.3469 95.4L67.7924 89.6902C62.109 100.196 59.7469 113.187 59.7469 127.8H71.7469ZM78.3469 95.4L88.8686 101.17C92.0569 95.3561 96.6763 91.1875 103.174 88.472L98.5469 77.4L93.9198 66.328C82.5508 71.0792 73.7036 78.9105 67.8251 89.63L78.3469 95.4ZM98.5469 77.4L103.314 88.4127C110.296 85.3906 119.684 83.6 131.947 83.6V71.6V59.6C117.543 59.6 104.665 61.6761 93.7802 66.3873L98.5469 77.4ZM131.947 71.6V83.6H184.547V71.6V59.6H131.947V71.6ZM184.547 71.6H172.547V94.2H184.547H196.547V71.6H184.547ZM184.547 94.2V82.2H158.747V94.2V106.2H184.547V94.2ZM158.747 94.2L150.262 102.685C152.909 105.332 155.167 108.224 157.057 111.374L167.347 105.2L177.637 99.026C174.727 94.1758 171.252 89.7344 167.232 85.7147L158.747 94.2ZM167.347 105.2L157.309 111.776C159.113 114.529 160.557 117.713 161.585 121.412L173.147 118.2L184.709 114.988C183.07 109.087 180.647 103.604 177.384 98.6237L167.347 105.2ZM173.147 118.2L161.671 121.707C162.723 125.151 163.347 129.402 163.347 134.6H175.347H187.347C187.347 127.532 186.504 120.849 184.623 114.693L173.147 118.2ZM175.347 134.6H163.347C163.347 140.042 162.445 144.896 160.753 149.275L171.947 153.6L183.14 157.925C185.982 150.57 187.347 142.758 187.347 134.6H175.347ZM171.947 153.6L160.753 149.275C159.083 153.599 156.666 157.311 153.462 160.515L161.947 169L170.432 177.485C176.028 171.889 180.278 165.335 183.14 157.925L171.947 153.6ZM161.947 169L153.462 160.515C150.381 163.595 146.383 166.205 141.209 168.212L145.547 179.4L149.885 190.588C157.777 187.528 164.712 183.205 170.432 177.485L161.947 169ZM145.547 179.4L141.333 168.164C136.55 169.958 130.626 171 123.347 171V183V195C132.867 195 141.744 193.642 149.76 190.636L145.547 179.4ZM123.747 159V171C130.435 171 137.169 169.185 142.574 164.32L134.547 155.4L126.519 146.48C126.483 146.514 126.379 146.607 126.052 146.716C125.687 146.837 124.967 147 123.747 147V159ZM134.547 155.4L142.356 164.511C147.276 160.294 150.398 154.73 152.231 148.68L140.747 145.2L129.263 141.72C128.429 144.47 127.418 145.706 126.737 146.289L134.547 155.4ZM140.747 145.2L152.231 148.68C153.979 142.913 154.747 136.634 154.747 130H142.747H130.747C130.747 134.832 130.182 138.687 129.263 141.72L140.747 145.2ZM142.747 130H154.747C154.747 124.093 154.306 118.572 153.328 113.52L141.547 115.8L129.766 118.08C130.388 121.295 130.747 125.24 130.747 130H142.747ZM141.547 115.8L153.328 113.52C152.363 108.534 150.886 103.8 148.842 99.3713L137.947 104.4L127.051 109.429C128.208 111.934 129.131 114.799 129.766 118.08L141.547 115.8ZM137.947 104.4L149.06 99.8724C147.244 95.4141 144.932 91.2068 142.139 87.2638L132.347 94.2L122.555 101.136C124.295 103.593 125.717 106.186 126.834 108.928L137.947 104.4ZM132.347 94.2V82.2H128.947V94.2V106.2H132.347V94.2ZM128.947 94.2V82.2C121.873 82.2 115.008 83.5442 108.993 86.9811L114.947 97.4L120.901 107.819C122.353 106.989 124.82 106.2 128.947 106.2V94.2ZM114.947 97.4L108.829 87.0765C102.245 90.9785 98.0534 97.1116 95.6254 104.022L106.947 108L118.268 111.978C119.307 109.022 120.449 108.088 121.065 107.723L114.947 97.4ZM106.947 108L95.6602 103.924C93.2481 110.604 92.3469 118.788 92.3469 127.8H104.347H116.347C116.347 120.012 117.179 114.996 118.234 112.076L106.947 108ZM104.347 127.8H92.3469C92.3469 134.876 93.095 141.499 94.8086 147.497L106.347 144.2L117.885 140.903C116.932 137.568 116.347 133.257 116.347 127.8H104.347ZM106.347 144.2L94.8086 147.497C96.5813 153.701 99.5737 159.416 104.271 163.89L112.547 155.2L120.823 146.51C119.92 145.651 118.779 144.032 117.885 140.903L106.347 144.2ZM112.547 155.2L104.703 164.282C110.177 169.009 116.849 171 123.747 171V159V147C121.578 147 120.783 146.457 120.39 146.118L112.547 155.2Z" fill="var(--pageColor)" mask="url(#path-2-outside-1_57_868)"/>
<path d="M123.347 183C113.08 183 104.014 180.933 96.1469 176.8C88.4135 172.533 82.4135 166.333 78.1469 158.2C73.8802 149.933 71.7469 139.8 71.7469 127.8C71.7469 114.333 73.9469 103.533 78.3469 95.4C82.8802 87.1333 89.6135 81.1333 98.5469 77.4C107.48 73.5333 118.614 71.6 131.947 71.6H184.547V94.2H158.747C162.08 97.5333 164.947 101.2 167.347 105.2C169.88 109.067 171.814 113.4 173.147 118.2C174.614 123 175.347 128.467 175.347 134.6C175.347 141.4 174.214 147.733 171.947 153.6C169.68 159.467 166.347 164.6 161.947 169C157.547 173.4 152.08 176.867 145.547 179.4C139.147 181.8 131.747 183 123.347 183ZM123.747 159C128.28 159 131.88 157.8 134.547 155.4C137.347 153 139.414 149.6 140.747 145.2C142.08 140.8 142.747 135.733 142.747 130C142.747 124.667 142.347 119.933 141.547 115.8C140.747 111.667 139.547 107.867 137.947 104.4C136.48 100.8 134.614 97.4 132.347 94.2H128.947C123.347 94.2 118.68 95.2667 114.947 97.4C111.347 99.5333 108.68 103.067 106.947 108C105.214 112.8 104.347 119.4 104.347 127.8C104.347 134.067 105.014 139.533 106.347 144.2C107.68 148.867 109.747 152.533 112.547 155.2C115.48 157.733 119.214 159 123.747 159Z" fill="var(--darkGray)"/>
</g>
</svg>
