<svg viewBox="0 0 256 256" fill="none" xmlns="http://www.w3.org/2000/svg">
<mask id="mask0_57_850" style="mask-type:alpha" maskUnits="userSpaceOnUse" x="0" y="0" width="256" height="256">
<rect width="256" height="256" fill="var(--gray)"/>
</mask>
<g mask="url(#mask0_57_850)">
<mask id="path-2-outside-1_57_850" maskUnits="userSpaceOnUse" x="65" y="41" width="126" height="179" fill="black">
<rect fill="var(--pageColor)" x="65" y="41" width="126" height="179"/>
<path d="M127.816 208C116.482 208 107.016 204.933 99.4156 198.8C91.949 192.533 86.349 183.6 82.6156 172C79.0156 160.4 77.2156 146.533 77.2156 130.4C77.2156 114.133 78.8823 100.267 82.2156 88.8C85.549 77.2 90.949 68.3333 98.4156 62.2C105.882 56.0667 115.749 53 128.016 53C139.349 53 148.749 56.0667 156.216 62.2C163.682 68.2 169.282 77 173.016 88.6C176.882 100.067 178.816 114 178.816 130.4C178.816 146.533 177.082 160.4 173.616 172C170.282 183.6 164.882 192.533 157.416 198.8C149.949 204.933 140.082 208 127.816 208ZM128.016 186C132.816 186 136.682 184.533 139.616 181.6C142.682 178.667 144.949 173.933 146.416 167.4C147.882 160.867 148.682 152.2 148.816 141.4H107.016C107.149 151.933 107.882 160.533 109.216 167.2C110.682 173.733 112.882 178.533 115.816 181.6C118.882 184.533 122.949 186 128.016 186ZM107.216 119H148.816C148.549 108.467 147.682 100 146.216 93.6C144.749 87.0667 142.549 82.3333 139.616 79.4C136.682 76.4667 132.882 75 128.216 75C123.416 75 119.482 76.4667 116.416 79.4C113.482 82.3333 111.282 87.0667 109.816 93.6C108.482 100 107.616 108.467 107.216 119Z"/>
</mask>
<path d="M127.816 208C116.482 208 107.016 204.933 99.4156 198.8C91.949 192.533 86.349 183.6 82.6156 172C79.0156 160.4 77.2156 146.533 77.2156 130.4C77.2156 114.133 78.8823 100.267 82.2156 88.8C85.549 77.2 90.949 68.3333 98.4156 62.2C105.882 56.0667 115.749 53 128.016 53C139.349 53 148.749 56.0667 156.216 62.2C163.682 68.2 169.282 77 173.016 88.6C176.882 100.067 178.816 114 178.816 130.4C178.816 146.533 177.082 160.4 173.616 172C170.282 183.6 164.882 192.533 157.416 198.8C149.949 204.933 140.082 208 127.816 208ZM128.016 186C132.816 186 136.682 184.533 139.616 181.6C142.682 178.667 144.949 173.933 146.416 167.4C147.882 160.867 148.682 152.2 148.816 141.4H107.016C107.149 151.933 107.882 160.533 109.216 167.2C110.682 173.733 112.882 178.533 115.816 181.6C118.882 184.533 122.949 186 128.016 186ZM107.216 119H148.816C148.549 108.467 147.682 100 146.216 93.6C144.749 87.0667 142.549 82.3333 139.616 79.4C136.682 76.4667 132.882 75 128.216 75C123.416 75 119.482 76.4667 116.416 79.4C113.482 82.3333 111.282 87.0667 109.816 93.6C108.482 100 107.616 108.467 107.216 119Z" fill="var(--pageColor)"/>
<path d="M99.4156 198.8L91.7012 207.992L91.7896 208.066L91.8794 208.138L99.4156 198.8ZM82.6156 172L71.1549 175.557L71.1734 175.617L71.1926 175.676L82.6156 172ZM82.2156 88.8L93.7386 92.1497L93.7438 92.1319L93.7489 92.1142L82.2156 88.8ZM98.4156 62.2L90.7988 52.9273L90.7988 52.9273L98.4156 62.2ZM156.216 62.2L148.599 71.4727L148.649 71.5137L148.699 71.5541L156.216 62.2ZM173.016 88.6L161.593 92.2764L161.618 92.3555L161.645 92.4344L173.016 88.6ZM173.616 172L162.118 168.564L162.1 168.625L162.082 168.686L173.616 172ZM157.416 198.8L165.033 208.073L165.082 208.032L165.13 207.992L157.416 198.8ZM139.616 181.6L131.321 172.928L131.225 173.02L131.13 173.115L139.616 181.6ZM146.416 167.4L158.124 170.028L158.124 170.028L146.416 167.4ZM148.816 141.4L160.815 141.548L160.965 129.4H148.816V141.4ZM107.016 141.4V129.4H94.8628L95.0166 141.552L107.016 141.4ZM109.216 167.2L97.4487 169.553L97.4762 169.691L97.507 169.828L109.216 167.2ZM115.816 181.6L107.144 189.895L107.328 190.087L107.521 190.272L115.816 181.6ZM107.216 119L95.2243 118.545L94.7513 131H107.216V119ZM148.816 119V131H161.123L160.812 118.696L148.816 119ZM146.216 93.6L134.507 96.2284L134.513 96.2545L134.519 96.2805L146.216 93.6ZM139.616 79.4L131.13 87.8853L131.13 87.8853L139.616 79.4ZM116.416 79.4L108.121 70.7283L108.025 70.8204L107.93 70.9147L116.416 79.4ZM109.816 93.6L98.107 90.9715L98.0867 91.0619L98.0679 91.1525L109.816 93.6ZM127.816 208V196C118.763 196 112.084 193.604 106.952 189.462L99.4156 198.8L91.8794 208.138C101.947 216.263 114.201 220 127.816 220V208ZM99.4156 198.8L107.13 189.608C101.78 185.118 97.2521 178.308 94.0386 168.324L82.6156 172L71.1926 175.676C75.4458 188.892 82.118 199.949 91.7012 207.992L99.4156 198.8ZM82.6156 172L94.0764 168.443C90.9291 158.302 89.2156 145.698 89.2156 130.4H77.2156H65.2156C65.2156 147.369 67.1021 162.498 71.1549 175.557L82.6156 172ZM77.2156 130.4H89.2156C89.2156 114.887 90.8126 102.215 93.7386 92.1497L82.2156 88.8L70.6926 85.4503C66.952 98.3182 65.2156 113.38 65.2156 130.4H77.2156ZM82.2156 88.8L93.7489 92.1142C96.5788 82.266 100.866 75.7165 106.032 71.4727L98.4156 62.2L90.7988 52.9273C81.0318 60.9501 74.5191 72.134 70.6824 85.4858L82.2156 88.8ZM98.4156 62.2L106.032 71.4727C110.828 67.5338 117.762 65 128.016 65V53V41C113.736 41 100.937 44.5995 90.7988 52.9273L98.4156 62.2ZM128.016 53V65C137.074 65 143.638 67.3977 148.599 71.4727L156.216 62.2L163.833 52.9273C153.86 44.7356 141.624 41 128.016 41V53ZM156.216 62.2L148.699 71.5541C153.897 75.7312 158.384 82.3054 161.593 92.2764L173.016 88.6L184.439 84.9236C180.181 71.6946 173.468 60.6688 163.732 52.8459L156.216 62.2ZM173.016 88.6L161.645 92.4344C164.976 102.314 166.816 114.872 166.816 130.4H178.816H190.816C190.816 113.128 188.788 97.8192 184.387 84.7656L173.016 88.6ZM178.816 130.4H166.816C166.816 145.731 165.162 158.379 162.118 168.564L173.616 172L185.113 175.436C189.003 162.421 190.816 147.336 190.816 130.4H178.816ZM173.616 172L162.082 168.686C159.251 178.54 154.944 185.208 149.701 189.608L157.416 198.8L165.13 207.992C174.82 199.859 181.314 188.66 185.149 175.314L173.616 172ZM157.416 198.8L149.799 189.527C145.004 193.466 138.069 196 127.816 196V208V220C142.096 220 154.894 216.4 165.033 208.073L157.416 198.8ZM128.016 186V198C135.457 198 142.561 195.625 148.101 190.085L139.616 181.6L131.13 173.115C130.803 173.442 130.174 174 128.016 174V186ZM139.616 181.6L147.91 190.272C153.41 185.011 156.415 177.643 158.124 170.028L146.416 167.4L134.707 164.772C133.483 170.223 131.954 172.322 131.321 172.928L139.616 181.6ZM146.416 167.4L158.124 170.028C159.85 162.341 160.677 152.742 160.815 141.548L148.816 141.4L136.817 141.252C136.688 151.658 135.915 159.393 134.707 164.772L146.416 167.4ZM148.816 141.4V129.4H107.016V141.4V153.4H148.816V141.4ZM107.016 141.4L95.0166 141.552C95.1548 152.469 95.9142 161.881 97.4487 169.553L109.216 167.2L120.983 164.847C119.85 159.186 119.143 151.397 119.015 141.248L107.016 141.4ZM109.216 167.2L97.507 169.828C99.2002 177.371 102.068 184.588 107.144 189.895L115.816 181.6L124.487 173.305C123.697 172.479 122.164 170.096 120.924 164.572L109.216 167.2ZM115.816 181.6L107.521 190.272C113.243 195.745 120.497 198 128.016 198V186V174C125.401 174 124.522 173.322 124.11 172.928L115.816 181.6ZM107.216 119V131H148.816V119V107H107.216V119ZM148.816 119L160.812 118.696C160.535 107.78 159.632 98.4224 157.912 90.9195L146.216 93.6L134.519 96.2805C135.733 101.578 136.562 109.153 136.819 119.304L148.816 119ZM146.216 93.6L157.924 90.9715C156.237 83.4546 153.349 76.1624 148.101 70.9147L139.616 79.4L131.13 87.8853C131.749 88.5043 133.261 90.6787 134.507 96.2284L146.216 93.6ZM139.616 79.4L148.101 70.9147C142.628 65.4415 135.631 63 128.216 63V75V87C130.134 87 130.737 87.4918 131.13 87.8853L139.616 79.4ZM128.216 75V63C120.764 63 113.719 65.3739 108.121 70.7283L116.416 79.4L124.71 88.0717C125.246 87.5595 126.067 87 128.216 87V75ZM116.416 79.4L107.93 70.9147C102.683 76.1624 99.7945 83.4546 98.107 90.9715L109.816 93.6L121.524 96.2285C122.77 90.6787 124.282 88.5043 124.901 87.8853L116.416 79.4ZM109.816 93.6L98.0679 91.1525C96.541 98.4815 95.6363 107.694 95.2243 118.545L107.216 119L119.207 119.455C119.595 109.239 120.424 101.518 121.563 96.0474L109.816 93.6Z" fill="var(--pageColor)" mask="url(#path-2-outside-1_57_850)"/>
<path d="M127.816 208C116.482 208 107.016 204.933 99.4156 198.8C91.949 192.533 86.349 183.6 82.6156 172C79.0156 160.4 77.2156 146.533 77.2156 130.4C77.2156 114.133 78.8823 100.267 82.2156 88.8C85.549 77.2 90.949 68.3333 98.4156 62.2C105.882 56.0667 115.749 53 128.016 53C139.349 53 148.749 56.0667 156.216 62.2C163.682 68.2 169.282 77 173.016 88.6C176.882 100.067 178.816 114 178.816 130.4C178.816 146.533 177.082 160.4 173.616 172C170.282 183.6 164.882 192.533 157.416 198.8C149.949 204.933 140.082 208 127.816 208ZM128.016 186C132.816 186 136.682 184.533 139.616 181.6C142.682 178.667 144.949 173.933 146.416 167.4C147.882 160.867 148.682 152.2 148.816 141.4H107.016C107.149 151.933 107.882 160.533 109.216 167.2C110.682 173.733 112.882 178.533 115.816 181.6C118.882 184.533 122.949 186 128.016 186ZM107.216 119H148.816C148.549 108.467 147.682 100 146.216 93.6C144.749 87.0667 142.549 82.3333 139.616 79.4C136.682 76.4667 132.882 75 128.216 75C123.416 75 119.482 76.4667 116.416 79.4C113.482 82.3333 111.282 87.0667 109.816 93.6C108.482 100 107.616 108.467 107.216 119Z" fill="var(--darkGray)"/>
</g>
</svg>
