<svg viewBox="0 0 256 256" fill="none" xmlns="http://www.w3.org/2000/svg">
<mask id="mask0_57_904" style="mask-type:alpha" maskUnits="userSpaceOnUse" x="0" y="0" width="256" height="256">
<rect width="256" height="256" fill="var(--gray)"/>
</mask>
<g mask="url(#mask0_57_904)">
<mask id="path-2-outside-1_57_904" maskUnits="userSpaceOnUse" x="49" y="42" width="158" height="169" fill="black">
<rect fill="var(--pageColor)" x="49" y="42" width="158" height="169"/>
<path d="M61.8461 199V173.6H91.0461C84.7794 169.733 79.5794 165.067 75.4461 159.6C71.3128 154 68.1794 147.733 66.0461 140.8C64.0461 133.733 63.0461 126.067 63.0461 117.8C63.0461 105.667 65.5128 94.8 70.4461 85.2C75.5128 75.6 82.9128 68 92.6461 62.4C102.379 56.8 114.179 54 128.046 54C142.046 54 153.846 56.8 163.446 62.4C173.179 68 180.513 75.6667 185.446 85.4C190.513 95 193.046 105.867 193.046 118C193.046 126.267 191.979 133.867 189.846 140.8C187.846 147.733 184.713 154 180.446 159.6C176.313 165.067 171.046 169.733 164.646 173.6H194.246V199H138.446V171.8C145.113 168.333 150.113 163.933 153.446 158.6C156.779 153.133 158.979 147.267 160.046 141C161.246 134.6 161.846 128.267 161.846 122C161.846 113.067 160.579 105.467 158.046 99.2C155.646 92.8 151.913 87.8667 146.846 84.4C141.913 80.9333 135.646 79.2 128.046 79.2C120.446 79.2 114.113 80.9333 109.046 84.4C104.113 87.8667 100.379 92.8 97.8461 99.2C95.4461 105.6 94.2461 113.267 94.2461 122.2C94.2461 128.467 94.9128 134.733 96.2461 141C97.5794 147.267 99.9128 153.067 103.246 158.4C106.713 163.733 111.379 168.2 117.246 171.8V199H61.8461Z"/>
</mask>
<path d="M61.8461 199V173.6H91.0461C84.7794 169.733 79.5794 165.067 75.4461 159.6C71.3128 154 68.1794 147.733 66.0461 140.8C64.0461 133.733 63.0461 126.067 63.0461 117.8C63.0461 105.667 65.5128 94.8 70.4461 85.2C75.5128 75.6 82.9128 68 92.6461 62.4C102.379 56.8 114.179 54 128.046 54C142.046 54 153.846 56.8 163.446 62.4C173.179 68 180.513 75.6667 185.446 85.4C190.513 95 193.046 105.867 193.046 118C193.046 126.267 191.979 133.867 189.846 140.8C187.846 147.733 184.713 154 180.446 159.6C176.313 165.067 171.046 169.733 164.646 173.6H194.246V199H138.446V171.8C145.113 168.333 150.113 163.933 153.446 158.6C156.779 153.133 158.979 147.267 160.046 141C161.246 134.6 161.846 128.267 161.846 122C161.846 113.067 160.579 105.467 158.046 99.2C155.646 92.8 151.913 87.8667 146.846 84.4C141.913 80.9333 135.646 79.2 128.046 79.2C120.446 79.2 114.113 80.9333 109.046 84.4C104.113 87.8667 100.379 92.8 97.8461 99.2C95.4461 105.6 94.2461 113.267 94.2461 122.2C94.2461 128.467 94.9128 134.733 96.2461 141C97.5794 147.267 99.9128 153.067 103.246 158.4C106.713 163.733 111.379 168.2 117.246 171.8V199H61.8461Z" fill="var(--pageColor)"/>
<path d="M61.8461 199H49.8461V211H61.8461V199ZM61.8461 173.6V161.6H49.8461V173.6H61.8461ZM91.0461 173.6V185.6H133.347L97.3474 163.388L91.0461 173.6ZM75.4461 159.6L65.7912 166.726L65.8324 166.782L65.8742 166.837L75.4461 159.6ZM66.0461 140.8L54.4996 144.068L54.5367 144.199L54.5767 144.329L66.0461 140.8ZM70.4461 85.2L59.8335 79.5989L59.8029 79.6569L59.7729 79.7152L70.4461 85.2ZM92.6461 62.4L86.6618 51.9987L86.6618 51.9987L92.6461 62.4ZM163.446 62.4L157.4 72.7653L157.431 72.7834L157.462 72.8013L163.446 62.4ZM185.446 85.4L174.742 90.8251L174.787 90.9135L174.833 91.0011L185.446 85.4ZM189.846 140.8L178.377 137.271L178.346 137.372L178.316 137.474L189.846 140.8ZM180.446 159.6L170.901 152.327L170.888 152.345L170.874 152.363L180.446 159.6ZM164.646 173.6L158.441 163.329L121.578 185.6H164.646V173.6ZM194.246 173.6H206.246V161.6H194.246V173.6ZM194.246 199V211H206.246V199H194.246ZM138.446 199H126.446V211H138.446V199ZM138.446 171.8L132.91 161.153L126.446 164.515V171.8H138.446ZM153.446 158.6L163.622 164.96L163.657 164.904L163.692 164.847L153.446 158.6ZM160.046 141L148.252 138.789L148.233 138.887L148.216 138.986L160.046 141ZM158.046 99.2L146.81 103.413L146.864 103.556L146.921 103.697L158.046 99.2ZM146.846 84.4L139.947 94.2183L140.008 94.2614L140.07 94.3037L146.846 84.4ZM109.046 84.4L102.27 74.4963L102.208 74.5386L102.147 74.5817L109.046 84.4ZM97.8461 99.2L86.6884 94.7834L86.6484 94.8846L86.6101 94.9865L97.8461 99.2ZM96.2461 141L107.983 138.503L107.983 138.503L96.2461 141ZM103.246 158.4L93.0701 164.76L93.1266 164.85L93.1848 164.94L103.246 158.4ZM117.246 171.8H129.246V165.084L123.522 161.572L117.246 171.8ZM117.246 199V211H129.246V199H117.246ZM61.8461 199H73.8461V173.6H61.8461H49.8461V199H61.8461ZM61.8461 173.6V185.6H91.0461V173.6V161.6H61.8461V173.6ZM91.0461 173.6L97.3474 163.388C92.2509 160.243 88.19 156.558 85.018 152.363L75.4461 159.6L65.8742 166.837C70.9689 173.575 77.3079 179.224 84.7448 183.812L91.0461 173.6ZM75.4461 159.6L85.101 152.474C81.8045 148.008 79.268 142.967 77.5154 137.271L66.0461 140.8L54.5767 144.329C57.0909 152.5 60.8211 159.992 65.7912 166.726L75.4461 159.6ZM66.0461 140.8L77.5926 137.532C75.9285 131.652 75.0461 125.098 75.0461 117.8H63.0461H51.0461C51.0461 127.035 52.1637 135.814 54.4996 144.068L66.0461 140.8ZM63.0461 117.8H75.0461C75.0461 107.335 77.1612 98.3871 81.1193 90.6848L70.4461 85.2L59.7729 79.7152C53.8644 91.2129 51.0461 103.998 51.0461 117.8H63.0461ZM70.4461 85.2L81.0587 90.8011C85.0293 83.2779 90.791 77.3117 98.6304 72.8013L92.6461 62.4L86.6618 51.9987C75.0345 58.6883 65.9962 67.9221 59.8335 79.5989L70.4461 85.2ZM92.6461 62.4L98.6304 72.8013C106.162 68.4683 115.791 66 128.046 66V54V42C112.568 42 98.5973 45.1317 86.6618 51.9987L92.6461 62.4ZM128.046 54V66C140.466 66 150.054 68.4803 157.4 72.7653L163.446 62.4L169.493 52.0346C157.638 45.1197 143.627 42 128.046 42V54ZM163.446 62.4L157.462 72.8013C165.234 77.2728 170.897 83.2375 174.742 90.8251L185.446 85.4L196.15 79.9749C190.129 68.0959 181.125 58.7272 169.43 51.9987L163.446 62.4ZM185.446 85.4L174.833 91.0011C178.886 98.6795 181.046 107.585 181.046 118H193.046H205.046C205.046 104.148 202.14 91.3205 196.059 79.7989L185.446 85.4ZM193.046 118H181.046C181.046 125.234 180.113 131.628 178.377 137.271L189.846 140.8L201.315 144.329C203.846 136.106 205.046 127.299 205.046 118H193.046ZM189.846 140.8L178.316 137.474C176.717 143.017 174.245 147.939 170.901 152.327L180.446 159.6L189.991 166.873C195.181 160.061 198.975 152.45 201.376 144.126L189.846 140.8ZM180.446 159.6L170.874 152.363C167.741 156.507 163.655 160.179 158.441 163.329L164.646 173.6L170.851 183.871C178.437 179.288 184.885 173.626 190.018 166.837L180.446 159.6ZM164.646 173.6V185.6H194.246V173.6V161.6H164.646V173.6ZM194.246 173.6H182.246V199H194.246H206.246V173.6H194.246ZM194.246 199V187H138.446V199V211H194.246V199ZM138.446 199H150.446V171.8H138.446H126.446V199H138.446ZM138.446 171.8L143.982 182.447C152.179 178.184 158.949 172.436 163.622 164.96L153.446 158.6L143.27 152.24C141.276 155.43 138.047 158.482 132.91 161.153L138.446 171.8ZM153.446 158.6L163.692 164.847C167.811 158.092 170.552 150.79 171.876 143.014L160.046 141L148.216 138.986C147.407 143.743 145.748 148.175 143.201 152.353L153.446 158.6ZM160.046 141L171.841 143.211C173.172 136.111 173.846 129.037 173.846 122H161.846H149.846C149.846 127.496 149.32 133.089 148.252 138.789L160.046 141ZM161.846 122H173.846C173.846 111.995 172.436 102.777 169.171 94.7025L158.046 99.2L146.921 103.697C148.723 108.156 149.846 114.139 149.846 122H161.846ZM158.046 99.2L169.282 94.9865C166.118 86.5498 160.954 79.5124 153.622 74.4963L146.846 84.4L140.07 94.3037C142.872 96.2209 145.174 99.0502 146.81 103.413L158.046 99.2ZM146.846 84.4L153.745 74.5817C146.32 69.3641 137.469 67.2 128.046 67.2V79.2V91.2C133.823 91.2 137.505 92.5025 139.947 94.2183L146.846 84.4ZM128.046 79.2V67.2C118.608 67.2 109.763 69.3696 102.27 74.4963L109.046 84.4L115.822 94.3037C118.463 92.497 122.285 91.2 128.046 91.2V79.2ZM109.046 84.4L102.147 74.5817C95.0361 79.5784 89.9581 86.5231 86.6884 94.7834L97.8461 99.2L109.004 103.617C110.801 99.0769 113.189 96.1549 115.945 94.2183L109.046 84.4ZM97.8461 99.2L86.6101 94.9865C83.5763 103.077 82.2461 112.246 82.2461 122.2H94.2461H106.246C106.246 114.287 107.316 108.123 109.082 103.413L97.8461 99.2ZM94.2461 122.2H82.2461C82.2461 129.325 83.0047 136.428 84.5088 143.497L96.2461 141L107.983 138.503C106.821 133.039 106.246 127.609 106.246 122.2H94.2461ZM96.2461 141L84.5088 143.497C86.1278 151.107 88.9811 158.218 93.0701 164.76L103.246 158.4L113.422 152.04C110.844 147.916 109.031 143.427 107.983 138.503L96.2461 141ZM103.246 158.4L93.1848 164.94C97.7014 171.889 103.71 177.573 110.97 182.028L117.246 171.8L123.522 161.572C119.049 158.827 115.724 155.578 113.307 151.86L103.246 158.4ZM117.246 171.8H105.246V199H117.246H129.246V171.8H117.246ZM117.246 199V187H61.8461V199V211H117.246V199Z" fill="var(--pageColor)" mask="url(#path-2-outside-1_57_904)"/>
<path d="M61.8461 199V173.6H91.0461C84.7794 169.733 79.5794 165.067 75.4461 159.6C71.3128 154 68.1794 147.733 66.0461 140.8C64.0461 133.733 63.0461 126.067 63.0461 117.8C63.0461 105.667 65.5128 94.8 70.4461 85.2C75.5128 75.6 82.9128 68 92.6461 62.4C102.379 56.8 114.179 54 128.046 54C142.046 54 153.846 56.8 163.446 62.4C173.179 68 180.513 75.6667 185.446 85.4C190.513 95 193.046 105.867 193.046 118C193.046 126.267 191.979 133.867 189.846 140.8C187.846 147.733 184.713 154 180.446 159.6C176.313 165.067 171.046 169.733 164.646 173.6H194.246V199H138.446V171.8C145.113 168.333 150.113 163.933 153.446 158.6C156.779 153.133 158.979 147.267 160.046 141C161.246 134.6 161.846 128.267 161.846 122C161.846 113.067 160.579 105.467 158.046 99.2C155.646 92.8 151.913 87.8667 146.846 84.4C141.913 80.9333 135.646 79.2 128.046 79.2C120.446 79.2 114.113 80.9333 109.046 84.4C104.113 87.8667 100.379 92.8 97.8461 99.2C95.4461 105.6 94.2461 113.267 94.2461 122.2C94.2461 128.467 94.9128 134.733 96.2461 141C97.5794 147.267 99.9128 153.067 103.246 158.4C106.713 163.733 111.379 168.2 117.246 171.8V199H61.8461Z" fill="var(--darkGray)"/>
</g>
</svg>
