<svg viewBox="0 0 256 256" fill="none" xmlns="http://www.w3.org/2000/svg">
<mask id="mask0_57_898" style="mask-type:alpha" maskUnits="userSpaceOnUse" x="0" y="0" width="256" height="256">
<rect width="256" height="256" fill="var(--gray)"/>
</mask>
<g mask="url(#mask0_57_898)">
<mask id="path-2-outside-1_57_898" maskUnits="userSpaceOnUse" x="65" y="44" width="127" height="167" fill="black">
<rect fill="var(--pageColor)" x="65" y="44" width="127" height="167"/>
<path d="M77.1406 199V175.2L117.141 124.2L78.9406 78.6V56.2H177.541V81H134.541C131.874 81 128.874 80.9333 125.541 80.8C122.341 80.6667 118.874 80.4 115.141 80L146.941 119.6V127.2L109.141 175.2C113.807 174.8 118.074 174.533 121.941 174.4C125.941 174.133 130.207 174 134.741 174H179.341V199H77.1406Z"/>
</mask>
<path d="M77.1406 199V175.2L117.141 124.2L78.9406 78.6V56.2H177.541V81H134.541C131.874 81 128.874 80.9333 125.541 80.8C122.341 80.6667 118.874 80.4 115.141 80L146.941 119.6V127.2L109.141 175.2C113.807 174.8 118.074 174.533 121.941 174.4C125.941 174.133 130.207 174 134.741 174H179.341V199H77.1406Z" fill="var(--pageColor)"/>
<path d="M77.1406 199H65.1406V211H77.1406V199ZM77.1406 175.2L67.6984 167.794L65.1406 171.055V175.2H77.1406ZM117.141 124.2L126.583 131.606L132.586 123.951L126.339 116.494L117.141 124.2ZM78.9406 78.6H66.9406V82.9621L69.7418 86.306L78.9406 78.6ZM78.9406 56.2V44.2H66.9406V56.2H78.9406ZM177.541 56.2H189.541V44.2H177.541V56.2ZM177.541 81V93H189.541V81H177.541ZM125.541 80.8L125.041 92.7896L125.051 92.79L125.061 92.7904L125.541 80.8ZM115.141 80L116.419 68.0683L87.6977 64.991L105.784 87.5136L115.141 80ZM146.941 119.6H158.941V115.378L156.297 112.086L146.941 119.6ZM146.941 127.2L156.368 134.624L158.941 131.358V127.2H146.941ZM109.141 175.2L99.713 167.776L82.5895 189.52L110.165 187.156L109.141 175.2ZM121.941 174.4L122.354 186.393L122.547 186.386L122.739 186.373L121.941 174.4ZM179.341 174H191.341V162H179.341V174ZM179.341 199V211H191.341V199H179.341ZM77.1406 199H89.1406V175.2H77.1406H65.1406V199H77.1406ZM77.1406 175.2L86.5829 182.606L126.583 131.606L117.141 124.2L107.698 116.794L67.6984 167.794L77.1406 175.2ZM117.141 124.2L126.339 116.494L88.1394 70.894L78.9406 78.6L69.7418 86.306L107.942 131.906L117.141 124.2ZM78.9406 78.6H90.9406V56.2H78.9406H66.9406V78.6H78.9406ZM78.9406 56.2V68.2H177.541V56.2V44.2H78.9406V56.2ZM177.541 56.2H165.541V81H177.541H189.541V56.2H177.541ZM177.541 81V69H134.541V81V93H177.541V81ZM134.541 81V69C132.068 69 129.231 68.938 126.02 68.8096L125.541 80.8L125.061 92.7904C128.517 92.9286 131.68 93 134.541 93V81ZM125.541 80.8L126.04 68.8104C123.14 68.6896 119.936 68.4451 116.419 68.0683L115.141 80L113.862 91.9317C117.812 92.3549 121.541 92.6438 125.041 92.7896L125.541 80.8ZM115.141 80L105.784 87.5136L137.584 127.114L146.941 119.6L156.297 112.086L124.497 72.4864L115.141 80ZM146.941 119.6H134.941V127.2H146.941H158.941V119.6H146.941ZM146.941 127.2L137.513 119.776L99.713 167.776L109.141 175.2L118.568 182.624L156.368 134.624L146.941 127.2ZM109.141 175.2L110.165 187.156C114.669 186.77 118.729 186.518 122.354 186.393L121.941 174.4L121.527 162.407C117.419 162.549 112.945 162.83 108.116 163.244L109.141 175.2ZM121.941 174.4L122.739 186.373C126.441 186.127 130.44 186 134.741 186V174V162C129.975 162 125.44 162.14 121.142 162.427L121.941 174.4ZM134.741 174V186H179.341V174V162H134.741V174ZM179.341 174H167.341V199H179.341H191.341V174H179.341ZM179.341 199V187H77.1406V199V211H179.341V199Z" fill="var(--pageColor)" mask="url(#path-2-outside-1_57_898)"/>
<path d="M77.1406 199V175.2L117.141 124.2L78.9406 78.6V56.2H177.541V81H134.541C131.874 81 128.874 80.9333 125.541 80.8C122.341 80.6667 118.874 80.4 115.141 80L146.941 119.6V127.2L109.141 175.2C113.807 174.8 118.074 174.533 121.941 174.4C125.941 174.133 130.207 174 134.741 174H179.341V199H77.1406Z" fill="var(--darkGray)"/>
</g>
</svg>
