<svg viewBox="0 0 256 256" fill="none" xmlns="http://www.w3.org/2000/svg">
<mask id="mask0_57_892" style="mask-type:alpha" maskUnits="userSpaceOnUse" x="0" y="0" width="256" height="256">
<rect width="256" height="256" fill="var(--gray)"/>
</mask>
<g mask="url(#mask0_57_892)">
<mask id="path-2-outside-1_57_892" maskUnits="userSpaceOnUse" x="52" y="43" width="152" height="168" fill="black">
<rect fill="var(--pageColor)" x="52" y="43" width="152" height="168"/>
<path d="M64.668 199V182.6L107.068 55.6H148.668L191.268 183.2V199H64.668ZM100.668 173.6H155.468L136.268 106.4C135.601 103.867 134.735 100.933 133.668 97.6C132.601 94.1333 131.535 90.6667 130.468 87.2C129.535 83.6 128.735 80.4667 128.068 77.8C127.401 80.4667 126.535 83.5333 125.468 87C124.535 90.4667 123.535 93.9333 122.468 97.4C121.535 100.733 120.668 103.733 119.868 106.4L100.668 173.6Z"/>
</mask>
<path d="M64.668 199V182.6L107.068 55.6H148.668L191.268 183.2V199H64.668ZM100.668 173.6H155.468L136.268 106.4C135.601 103.867 134.735 100.933 133.668 97.6C132.601 94.1333 131.535 90.6667 130.468 87.2C129.535 83.6 128.735 80.4667 128.068 77.8C127.401 80.4667 126.535 83.5333 125.468 87C124.535 90.4667 123.535 93.9333 122.468 97.4C121.535 100.733 120.668 103.733 119.868 106.4L100.668 173.6Z" fill="var(--pageColor)"/>
<path d="M64.668 199H52.668V211H64.668V199ZM64.668 182.6L53.2856 178.8L52.668 180.65V182.6H64.668ZM107.068 55.6V43.6H98.4232L95.6856 51.7999L107.068 55.6ZM148.668 55.6L160.05 51.7999L157.313 43.6H148.668V55.6ZM191.268 183.2H203.268V181.25L202.65 179.4L191.268 183.2ZM191.268 199V211H203.268V199H191.268ZM100.668 173.6L89.1297 170.303L84.7592 185.6H100.668V173.6ZM155.468 173.6V185.6H171.377L167.006 170.303L155.468 173.6ZM136.268 106.4L124.663 109.454L124.695 109.576L124.73 109.697L136.268 106.4ZM133.668 97.6L122.199 101.129L122.218 101.193L122.239 101.257L133.668 97.6ZM130.468 87.2L118.852 90.2115L118.92 90.4719L118.999 90.729L130.468 87.2ZM128.068 77.8L139.71 74.8896H116.426L128.068 77.8ZM125.468 87L113.999 83.471L113.936 83.6746L113.881 83.8803L125.468 87ZM122.468 97.4L110.999 93.871L110.954 94.0172L110.912 94.1644L122.468 97.4ZM119.868 106.4L108.374 102.952L108.351 103.027L108.33 103.103L119.868 106.4ZM64.668 199H76.668V182.6H64.668H52.668V199H64.668ZM64.668 182.6L76.0504 186.4L118.45 59.4001L107.068 55.6L95.6856 51.7999L53.2856 178.8L64.668 182.6ZM107.068 55.6V67.6H148.668V55.6V43.6H107.068V55.6ZM148.668 55.6L137.286 59.4001L179.886 187L191.268 183.2L202.65 179.4L160.05 51.7999L148.668 55.6ZM191.268 183.2H179.268V199H191.268H203.268V183.2H191.268ZM191.268 199V187H64.668V199V211H191.268V199ZM100.668 173.6V185.6H155.468V173.6V161.6H100.668V173.6ZM155.468 173.6L167.006 170.303L147.806 103.103L136.268 106.4L124.73 109.697L143.93 176.897L155.468 173.6ZM136.268 106.4L147.873 103.346C147.139 100.556 146.208 97.414 145.097 93.9427L133.668 97.6L122.239 101.257C123.261 104.453 124.064 107.177 124.663 109.454L136.268 106.4ZM133.668 97.6L145.137 94.071C144.071 90.6043 143.004 87.1376 141.937 83.671L130.468 87.2L118.999 90.729C120.065 94.1957 121.132 97.6624 122.199 101.129L133.668 97.6ZM130.468 87.2L142.084 84.1885C141.157 80.6113 140.366 77.5131 139.71 74.8896L128.068 77.8L116.426 80.7104C117.104 83.4202 117.913 86.5887 118.852 90.2115L130.468 87.2ZM128.068 77.8L116.426 74.8896C115.825 77.2952 115.021 80.1486 113.999 83.471L125.468 87L136.937 90.529C138.048 86.918 138.978 83.6381 139.71 80.7104L128.068 77.8ZM125.468 87L113.881 83.8803C112.985 87.2084 112.024 90.5386 110.999 93.871L122.468 97.4L133.937 100.929C135.045 97.328 136.085 93.7249 137.055 90.1197L125.468 87ZM122.468 97.4L110.912 94.1644C109.994 97.443 109.149 100.37 108.374 102.952L119.868 106.4L131.362 109.848C132.187 107.096 133.075 104.024 134.024 100.636L122.468 97.4ZM119.868 106.4L108.33 103.103L89.1297 170.303L100.668 173.6L112.206 176.897L131.406 109.697L119.868 106.4Z" fill="var(--pageColor)" mask="url(#path-2-outside-1_57_892)"/>
<path d="M64.668 199V182.6L107.068 55.6H148.668L191.268 183.2V199H64.668ZM100.668 173.6H155.468L136.268 106.4C135.601 103.867 134.735 100.933 133.668 97.6C132.601 94.1333 131.535 90.6667 130.468 87.2C129.535 83.6 128.735 80.4667 128.068 77.8C127.401 80.4667 126.535 83.5333 125.468 87C124.535 90.4667 123.535 93.9333 122.468 97.4C121.535 100.733 120.668 103.733 119.868 106.4L100.668 173.6Z" fill="var(--darkGray)"/>
</g>
</svg>
