<svg viewBox="0 0 256 256" fill="none" xmlns="http://www.w3.org/2000/svg">
<mask id="mask0_67_159" style="mask-type:alpha" maskUnits="userSpaceOnUse" x="0" y="0" width="256" height="256">
<rect width="256" height="256" fill="var(--gray)"/>
</mask>
<g mask="url(#mask0_67_159)">
<path d="M93.4004 53V126.8C93.4004 144.174 96.8618 155.345 102.298 162.065C107.425 168.403 115.481 172.2 128.4 172.2C141.289 172.2 149.355 168.371 154.495 161.999C159.943 155.244 163.4 144.062 163.4 126.8V53H195.8V126.2C195.8 149.762 190.562 169.334 178.862 183.123C166.944 197.17 149.538 203.8 128.4 203.8C107.35 203.8 89.9556 197.163 78.0195 183.132C66.2966 169.351 61 149.782 61 126.2V53H93.4004Z" fill="var(--pageColor)" stroke="var(--pageColor)" stroke-width="18"/>
<path d="M87.4004 59V126.8C87.4004 144.791 90.9542 157.581 97.6328 165.838C104.208 173.967 114.227 178.2 128.4 178.2C142.563 178.2 152.585 173.924 159.165 165.767C165.848 157.482 169.4 144.687 169.4 126.8V59H189.8V126.2C189.8 148.987 184.72 166.945 174.287 179.241C163.781 191.623 148.246 197.8 128.4 197.8C108.65 197.8 93.1185 191.621 82.5898 179.244C72.1322 166.95 67 148.994 67 126.2V59H87.4004Z" fill="var(--darkGray)" stroke="var(--darkGray)" stroke-width="6"/>
</g>
</svg>
