<svg viewBox="0 0 256 256" fill="none" xmlns="http://www.w3.org/2000/svg">
<mask id="mask0_67_240" style="mask-type:alpha" maskUnits="userSpaceOnUse" x="0" y="0" width="256" height="256">
<rect width="256" height="256" fill="var(--gray)"/>
</mask>
<g mask="url(#mask0_67_240)">
<path d="M120.073 57L113.423 70.0791C109.533 77.7286 105.012 85.6673 100.064 93.5996H228V125.8H77.3213C76.6231 126.67 75.9258 127.539 75.2305 128.399C75.9259 129.26 76.6229 130.13 77.3213 131H228V163.2H100.064C105.012 171.133 109.533 179.071 113.423 186.721L120.073 199.8H89.6875L86.9961 196.691C72.9525 180.472 54.7347 160.667 30.7441 137.47L28 134.816V121.983L30.7441 119.33C54.7346 96.1327 72.9525 76.3278 86.9961 60.1084L89.6875 57H120.073Z" fill="var(--pageColor)" stroke="var(--pageColor)" stroke-width="18"/>
<path d="M110.291 63L108.074 67.3594C102.776 77.7788 96.2563 88.7917 89.0547 99.5996H222V119.8H74.4414C72.0981 122.728 69.7522 125.65 67.4922 128.399C69.7523 131.149 72.0979 134.072 74.4414 137H222V157.2H89.0547C96.2563 168.008 102.776 179.021 108.074 189.44L110.291 193.8H92.4297L91.5322 192.764C77.3843 176.424 59.0452 156.489 34.915 133.156L34 132.272V124.527L34.915 123.644C59.0452 100.311 77.3844 80.3759 91.5322 64.0361L92.4297 63H110.291Z" fill="var(--darkGray)" stroke="var(--darkGray)" stroke-width="6"/>
</g>
</svg>
