<svg viewBox="0 0 256 256" fill="none" xmlns="http://www.w3.org/2000/svg">
<mask id="mask0_67_229" style="mask-type:alpha" maskUnits="userSpaceOnUse" x="0" y="0" width="256" height="256">
<rect width="256" height="256" fill="var(--gray)"/>
</mask>
<g mask="url(#mask0_67_229)">
<path d="M228 134.816L225.256 137.47C201.265 160.667 183.048 180.472 169.004 196.691L166.312 199.8H135.927L142.577 186.721C146.467 179.071 150.988 171.133 155.936 163.2H28V131H178.679C179.377 130.13 180.073 129.26 180.769 128.399C180.073 127.539 179.377 126.67 178.679 125.8H28V93.5996H155.936C150.988 85.6673 146.467 77.7286 142.577 70.0791L135.927 57H166.312L169.004 60.1084C183.048 76.3278 201.265 96.1327 225.256 119.33L228 121.983V134.816Z" fill="var(--pageColor)" stroke="var(--pageColor)" stroke-width="18"/>
<path d="M222 132.272L221.085 133.156C196.955 156.489 178.616 176.424 164.468 192.764L163.57 193.8H145.709L147.926 189.44C153.224 179.021 159.744 168.008 166.945 157.2H34V137H181.559C183.902 134.072 186.247 131.149 188.507 128.399C186.247 125.65 183.902 122.728 181.559 119.8H34V99.5996H166.945C159.744 88.7917 153.224 77.7788 147.926 67.3594L145.709 63H163.57L164.468 64.0361C178.616 80.3759 196.955 100.311 221.085 123.644L222 124.527V132.272Z" fill="var(--darkGray)" stroke="var(--darkGray)" stroke-width="6"/>
</g>
</svg>
