<svg viewBox="0 0 256 256" fill="none" xmlns="http://www.w3.org/2000/svg">
<path d="M103.825 156.6C103.825 150.44 104.758 145.027 106.625 140.36C108.678 135.507 111.198 131.213 114.185 127.48C117.172 123.747 120.345 120.387 123.705 117.4C127.252 114.227 130.518 111.24 133.505 108.44C136.492 105.453 138.918 102.467 140.785 99.48C142.838 96.4933 143.865 93.2267 143.865 89.68C143.865 84.08 141.532 79.6933 136.865 76.52C132.385 73.3467 126.505 71.76 119.225 71.76C111.758 71.76 104.945 73.5333 98.7848 77.08C92.8115 80.6267 87.9582 85.5733 84.2248 91.92L42.5048 69.52C49.7848 57.0133 60.3315 47.0267 74.1448 39.56C87.9582 31.9067 105.132 28.08 125.665 28.08C140.038 28.08 152.732 30.1333 163.745 34.24C174.945 38.16 183.718 44.04 190.065 51.88C196.412 59.72 199.585 69.3333 199.585 80.72C199.585 88 198.465 94.3467 196.225 99.76C193.985 105.173 191.092 109.933 187.545 114.04C184.185 118.147 180.545 121.973 176.625 125.52C172.705 128.88 168.972 132.147 165.425 135.32C162.065 138.493 159.265 141.76 157.025 145.12C154.785 148.48 153.665 152.307 153.665 156.6H103.825ZM128.745 230.52C119.598 230.52 112.038 227.627 106.065 221.84C100.092 216.053 97.1048 209.147 97.1048 201.12C97.1048 192.907 100.092 186.093 106.065 180.68C112.038 175.08 119.598 172.28 128.745 172.28C138.265 172.28 145.918 175.08 151.705 180.68C157.678 186.093 160.665 192.907 160.665 201.12C160.665 209.147 157.678 216.053 151.705 221.84C145.918 227.627 138.265 230.52 128.745 230.52Z" fill="#0084FF"/>
</svg>