<svg viewBox="0 0 256 256" fill="none" xmlns="http://www.w3.org/2000/svg">
<path d="M196 127.5C196 164.779 165.779 195 128.5 195C91.2208 195 61 164.779 61 127.5C61 90.2208 91.2208 60 128.5 60C165.779 60 196 90.2208 196 127.5Z" stroke="#0084FF" stroke-width="40"/>
<path d="M163 52L154.703 21.5795C153.161 15.9237 148.024 12 142.162 12H113.838C107.976 12 102.839 15.9237 101.297 21.5795L93 52H163Z" fill="#0084FF"/>
<path d="M93 204L101.297 234.421C102.839 240.076 107.976 244 113.838 244H142.162C148.024 244 153.161 240.076 154.703 234.421L163 204H93Z" fill="#0084FF"/>
<path d="M79.682 59.6893L49.1888 51.664C43.5195 50.1719 37.553 52.6589 34.6218 57.7359L20.4602 82.2644C17.5291 87.3414 18.3585 93.7521 22.4853 97.9158L44.682 120.311L79.682 59.6893Z" fill="#0084FF"/>
<path d="M176.318 196.311L206.811 204.337C212.48 205.829 218.447 203.342 221.378 198.265L235.54 173.736C238.471 168.659 237.641 162.248 233.515 158.085L211.318 135.689L176.318 196.311Z" fill="#0084FF"/>
<path d="M44.682 135.689L22.4853 158.085C18.3585 162.248 17.5291 168.659 20.4602 173.736L34.6218 198.264C37.553 203.341 43.5195 205.828 49.1888 204.336L79.682 196.311L44.682 135.689Z" fill="#0084FF"/>
<path d="M211.318 120.311L233.515 97.916C237.641 93.7522 238.471 87.3416 235.54 82.2646L221.378 57.7361C218.447 52.6591 212.48 50.1721 206.811 51.6642L176.318 59.6895L211.318 120.311Z" fill="#0084FF"/>
</svg>