<svg viewBox="0 0 256 256" fill="none" xmlns="http://www.w3.org/2000/svg">
<mask id="mask0_597_4" style="mask-type:alpha" maskUnits="userSpaceOnUse" x="0" y="0" width="256" height="256">
<rect width="256" height="256" fill="var(--gray)"/>
</mask>
<g mask="url(#mask0_597_4)">
<path d="M123.411 222H164.774C169.33 222 173.716 220.273 177.048 217.166L199.274 196.447C202.926 193.043 205 188.274 205 183.281V90.4706C205 85.6967 203.104 81.1183 199.728 77.7426L197.314 75.3284C194.862 72.8771 191.538 71.5 188.071 71.5C183.407 71.5 179.313 73.943 177 77.6192V60.5C177 52.2157 170.284 45.5 162 45.5C156.443 45.5 151.592 48.5217 149 53.0117V49C149 40.7157 142.284 34 134 34C125.716 34 119 40.7157 119 49V60.5117C116.408 56.0217 111.557 53 106 53C97.7157 53 91 59.7157 91 68V119.937C91 124.977 85.1636 127.771 81.2379 124.611L75.8412 120.268C65.4495 111.904 50 119.301 50 132.64C50 136.142 51.1569 139.545 53.2907 142.32L109.141 214.97C112.548 219.403 117.821 222 123.411 222Z" fill="var(--pageColor)" stroke="var(--pageColor)" stroke-width="12"/>
<path d="M164.774 216H123.411C119.684 216 116.169 214.268 113.897 211.314L58.0476 138.664C56.7198 136.936 56 134.819 56 132.64C56 124.34 65.6131 119.737 72.0791 124.942L77.4759 129.285C85.3273 135.605 97 130.016 97 119.937V68C97 63.0294 101.029 59 106 59C110.971 59 115 63.0294 115 68V107C115 109.761 117.239 112 120 112C122.761 112 125 109.761 125 107V49C125 44.0294 129.029 40 134 40C138.971 40 143 44.0294 143 49V107C143 109.761 145.239 112 148 112C150.761 112 153 109.761 153 107V60.5C153 55.5294 157.029 51.5 162 51.5C166.971 51.5 171 55.5294 171 60.5V107C171 109.761 173.239 112 176 112C178.761 112 181 109.761 181 107V84.5711C181 80.6658 184.166 77.5 188.071 77.5C189.946 77.5 191.745 78.245 193.071 79.5711L195.485 81.9853C197.736 84.2357 199 87.288 199 90.4706V183.281C199 186.61 197.617 189.789 195.183 192.059L172.957 212.778C170.735 214.848 167.811 216 164.774 216Z" fill="var(--darkGray)"/>
</g>
</svg>
