<svg viewBox="0 0 256 256" fill="none" xmlns="http://www.w3.org/2000/svg">
<mask id="mask0_5159_90" style="mask-type:alpha" maskUnits="userSpaceOnUse" x="0" y="0" width="256" height="256">
<rect width="256" height="256" fill="var(--gray)"/>
</mask>
<g mask="url(#mask0_5159_90)">
<path d="M204 163C212.837 163 220 170.163 220 179C220 187.837 212.837 195 204 195H154C145.163 195 138 187.837 138 179C138 170.163 145.163 163 154 163H204Z" fill="var(--pageColor)" stroke="var(--pageColor)" stroke-width="12"/>
<path d="M179 138C187.837 138 195 145.163 195 154V204C195 212.837 187.837 220 179 220C170.163 220 163 212.837 163 204V154C163 145.163 170.163 138 179 138Z" fill="var(--pageColor)" stroke="var(--pageColor)" stroke-width="12"/>
<path d="M144 179C144 173.477 148.477 169 154 169H204C209.523 169 214 173.477 214 179C214 184.523 209.523 189 204 189H154C148.477 189 144 184.523 144 179Z" fill="var(--darkGray)"/>
<path d="M169 154C169 148.477 173.477 144 179 144C184.523 144 189 148.477 189 154V204C189 209.523 184.523 214 179 214C173.477 214 169 209.523 169 204V154Z" fill="var(--darkGray)"/>
<path d="M77 138C83.8974 138 89.5222 137.993 94.0381 138.452C98.6542 138.922 102.773 139.928 106.445 142.382C109.284 144.279 111.721 146.716 113.618 149.555C116.072 153.227 117.078 157.346 117.548 161.962C118.007 166.478 118 172.103 118 179C118 185.897 118.007 191.522 117.548 196.038C117.078 200.654 116.072 204.773 113.618 208.445C111.721 211.284 109.284 213.721 106.445 215.618C102.773 218.072 98.6542 219.078 94.0381 219.548C89.5222 220.007 83.8974 220 77 220C70.1026 220 64.4778 220.007 59.9619 219.548C55.3458 219.078 51.2271 218.072 47.5547 215.618C44.716 213.721 42.2786 211.284 40.3818 208.445C37.928 204.773 36.9217 200.654 36.4521 196.038C35.9928 191.522 36 185.897 36 179C36 172.103 35.9928 166.478 36.4521 161.962C36.9217 157.346 37.928 153.227 40.3818 149.555C42.2786 146.716 44.716 144.279 47.5547 142.382C51.2271 139.928 55.3458 138.922 59.9619 138.452C64.4778 137.993 70.1026 138 77 138Z" fill="var(--pageColor)" stroke="var(--pageColor)" stroke-width="12"/>
<path d="M42 179C42 164.955 42 157.933 45.3706 152.889C46.8298 150.705 48.7048 148.83 50.8886 147.371C55.9331 144 62.9554 144 77 144C91.0446 144 98.0669 144 103.111 147.371C105.295 148.83 107.17 150.705 108.629 152.889C112 157.933 112 164.955 112 179C112 193.045 112 200.067 108.629 205.111C107.17 207.295 105.295 209.17 103.111 210.629C98.0669 214 91.0446 214 77 214C62.9554 214 55.9331 214 50.8886 210.629C48.7048 209.17 46.8298 207.295 45.3706 205.111C42 200.067 42 193.045 42 179Z" fill="var(--darkGray)"/>
<path d="M179 36C185.897 36 191.522 35.9928 196.038 36.4521C200.654 36.9217 204.773 37.928 208.445 40.3818C211.284 42.2786 213.721 44.716 215.618 47.5547C218.072 51.2271 219.078 55.3458 219.548 59.9619C220.007 64.4778 220 70.1026 220 77C220 83.8974 220.007 89.5222 219.548 94.0381C219.078 98.6542 218.072 102.773 215.618 106.445C213.721 109.284 211.284 111.721 208.445 113.618C204.773 116.072 200.654 117.078 196.038 117.548C191.522 118.007 185.897 118 179 118C172.103 118 166.478 118.007 161.962 117.548C157.346 117.078 153.227 116.072 149.555 113.618C146.716 111.721 144.279 109.284 142.382 106.445C139.928 102.773 138.922 98.6542 138.452 94.0381C137.993 89.5222 138 83.8974 138 77C138 70.1026 137.993 64.4778 138.452 59.9619C138.922 55.3458 139.928 51.2271 142.382 47.5547C144.279 44.716 146.716 42.2786 149.555 40.3818C153.227 37.928 157.346 36.9217 161.962 36.4521C166.478 35.9928 172.103 36 179 36Z" fill="var(--pageColor)" stroke="var(--pageColor)" stroke-width="12"/>
<path d="M144 77C144 62.9554 144 55.9331 147.371 50.8886C148.83 48.7048 150.705 46.8298 152.889 45.3706C157.933 42 164.955 42 179 42C193.045 42 200.067 42 205.111 45.3706C207.295 46.8298 209.17 48.7048 210.629 50.8886C214 55.9331 214 62.9554 214 77C214 91.0446 214 98.0669 210.629 103.111C209.17 105.295 207.295 107.17 205.111 108.629C200.067 112 193.045 112 179 112C164.955 112 157.933 112 152.889 108.629C150.705 107.17 148.83 105.295 147.371 103.111C144 98.0669 144 91.0446 144 77Z" fill="var(--darkGray)"/>
<path d="M77 36C83.8974 36 89.5222 35.9928 94.0381 36.4521C98.6542 36.9217 102.773 37.928 106.445 40.3818C109.284 42.2786 111.721 44.716 113.618 47.5547C116.072 51.2271 117.078 55.3458 117.548 59.9619C118.007 64.4778 118 70.1026 118 77C118 83.8974 118.007 89.5222 117.548 94.0381C117.078 98.6542 116.072 102.773 113.618 106.445C111.721 109.284 109.284 111.721 106.445 113.618C102.773 116.072 98.6542 117.078 94.0381 117.548C89.5222 118.007 83.8974 118 77 118C70.1026 118 64.4778 118.007 59.9619 117.548C55.3458 117.078 51.2271 116.072 47.5547 113.618C44.716 111.721 42.2786 109.284 40.3818 106.445C37.928 102.773 36.9217 98.6542 36.4521 94.0381C35.9928 89.5222 36 83.8974 36 77C36 70.1026 35.9928 64.4778 36.4521 59.9619C36.9217 55.3458 37.928 51.2271 40.3818 47.5547C42.2786 44.716 44.716 42.2786 47.5547 40.3818C51.2271 37.928 55.3458 36.9217 59.9619 36.4521C64.4778 35.9928 70.1026 36 77 36Z" fill="var(--pageColor)" stroke="var(--pageColor)" stroke-width="12"/>
<path d="M42 77C42 62.9554 42 55.9331 45.3706 50.8886C46.8298 48.7048 48.7048 46.8298 50.8886 45.3706C55.9331 42 62.9554 42 77 42C91.0446 42 98.0669 42 103.111 45.3706C105.295 46.8298 107.17 48.7048 108.629 50.8886C112 55.9331 112 62.9554 112 77C112 91.0446 112 98.0669 108.629 103.111C107.17 105.295 105.295 107.17 103.111 108.629C98.0669 112 91.0446 112 77 112C62.9554 112 55.9331 112 50.8886 108.629C48.7048 107.17 46.8298 105.295 45.3706 103.111C42 98.0669 42 91.0446 42 77Z" fill="var(--darkGray)"/>
</g>
</svg>
