<svg viewBox="0 0 175 175" fill="none" xmlns="http://www.w3.org/2000/svg">
<path d="M40 164.734C23.4315 164.734 10 151.303 10 134.734C10 118.166 23.4315 104.734 40 104.734C56.5685 104.734 70 118.166 70 134.734C70 151.303 56.5685 164.734 40 164.734Z" stroke="#48A7FF" stroke-width="20"/>
<path d="M40.1685 70H60.1685C65.6913 70 70.1685 65.5228 70.1685 60V40C70.1685 23.4315 56.737 10 40.1685 10C23.5999 10 10.1685 23.4315 10.1685 40C10.1685 56.5685 23.5999 70 40.1685 70Z" stroke="#48A7FF" stroke-width="20"/>
<path d="M135 104.996H115C109.477 104.996 105 109.473 105 114.996V134.996C105 151.565 118.431 164.996 135 164.996C151.569 164.996 165 151.565 165 134.996C165 118.428 151.569 104.996 135 104.996Z" stroke="#48A7FF" stroke-width="20"/>
<path d="M135 10C151.569 10 165 23.4315 165 40C165 56.5685 151.569 70 135 70C118.431 70 105 56.5685 105 40C105 23.4315 118.431 10 135 10Z" stroke="#48A7FF" stroke-width="20"/>
</svg>
