<svg viewBox="0 0 300 100" fill="none" xmlns="http://www.w3.org/2000/svg">
<mask id="mask0_2262_47" style="mask-type:alpha" maskUnits="userSpaceOnUse" x="0" y="0" width="101" height="101">
<rect x="0.0874023" y="50.5518" width="70.71" height="70.71" transform="rotate(-45 0.0874023 50.5518)" fill="#D9D9D9"/>
</mask>
<g mask="url(#mask0_2262_47)">
<path fill-rule="evenodd" clip-rule="evenodd" d="M100.086 150.551C127.7 122.937 127.7 78.1657 100.086 50.5518C72.4725 22.9378 27.7014 22.9378 0.0874096 50.5518C-27.5266 78.1657 -27.5266 122.937 0.0874096 150.551C27.7014 178.165 72.4725 178.165 100.086 150.551ZM86.9287 137.393C107.276 117.046 107.276 84.0568 86.9287 63.7096C66.5816 43.3625 33.5924 43.3625 13.2452 63.7096C-7.10192 84.0568 -7.10192 117.046 13.2452 137.393C33.5924 157.74 66.5816 157.74 86.9287 137.393Z" fill="#E7E7E7"/>
<path fill-rule="evenodd" clip-rule="evenodd" d="M81.6662 132.13C99.1066 114.69 99.1066 86.4135 81.6662 68.9731C64.2257 51.5327 35.9492 51.5327 18.5088 68.9731C1.06842 86.4135 1.06842 114.69 18.5088 132.13C35.9492 149.571 64.2257 149.571 81.6662 132.13ZM68.5079 118.972C78.6815 108.799 78.6815 92.3041 68.5079 82.1305C58.3343 71.957 41.8397 71.957 31.6661 82.1305C21.4926 92.3041 21.4926 108.799 31.6661 118.972C41.8397 129.146 58.3343 129.146 68.5079 118.972Z" fill="#E7E7E7"/>
<circle cx="50.087" cy="100.551" r="18.6079" transform="rotate(-45 50.087 100.551)" fill="#FF3D64"/>
</g>
<mask id="mask1_2262_47" style="mask-type:alpha" maskUnits="userSpaceOnUse" x="100" y="0" width="101" height="101">
<rect x="100.086" y="50.5518" width="70.71" height="70.71" transform="rotate(-45 100.086 50.5518)" fill="#D9D9D9"/>
</mask>
<g mask="url(#mask1_2262_47)">
<path fill-rule="evenodd" clip-rule="evenodd" d="M200.085 150.551C227.699 122.937 227.699 78.1657 200.085 50.5518C172.471 22.9378 127.7 22.9378 100.086 50.5518C72.4725 78.1657 72.4725 122.937 100.086 150.551C127.7 178.165 172.471 178.165 200.085 150.551ZM186.928 137.393C207.275 117.046 207.275 84.0568 186.928 63.7096C166.581 43.3625 133.591 43.3625 113.244 63.7096C92.8971 84.0568 92.8971 117.046 113.244 137.393C133.591 157.74 166.581 157.74 186.928 137.393Z" fill="#E7E7E7"/>
<path fill-rule="evenodd" clip-rule="evenodd" d="M181.665 132.13C199.106 114.69 199.106 86.4135 181.665 68.9731C164.225 51.5327 135.948 51.5327 118.508 68.9731C101.067 86.4135 101.067 114.69 118.508 132.13C135.948 149.571 164.225 149.571 181.665 132.13ZM168.507 118.972C178.68 108.799 178.68 92.3041 168.507 82.1305C158.333 71.957 141.839 71.957 131.665 82.1305C121.492 92.3041 121.492 108.799 131.665 118.972C141.839 129.146 158.333 129.146 168.507 118.972Z" fill="#FFA400"/>
<circle cx="150.086" cy="100.551" r="18.6079" transform="rotate(-45 150.086 100.551)" fill="#FFA400"/>
</g>
<mask id="mask2_2262_47" style="mask-type:alpha" maskUnits="userSpaceOnUse" x="200" y="0" width="101" height="101">
<rect x="200.085" y="50.5518" width="70.71" height="70.71" transform="rotate(-45 200.085 50.5518)" fill="#D9D9D9"/>
</mask>
<g mask="url(#mask2_2262_47)">
<path fill-rule="evenodd" clip-rule="evenodd" d="M300.084 150.551C327.698 122.937 327.698 78.1657 300.084 50.5518C272.471 22.9378 227.699 22.9378 200.085 50.5518C172.471 78.1657 172.471 122.937 200.085 150.551C227.699 178.165 272.471 178.165 300.084 150.551ZM286.927 137.393C307.274 117.046 307.274 84.0568 286.927 63.7096C266.58 43.3625 233.59 43.3625 213.243 63.7096C192.896 84.0568 192.896 117.046 213.243 137.393C233.59 157.74 266.58 157.74 286.927 137.393Z" fill="#0084FF"/>
<path fill-rule="evenodd" clip-rule="evenodd" d="M281.664 132.13C299.105 114.69 299.105 86.4135 281.664 68.9731C264.224 51.5327 235.947 51.5327 218.507 68.9731C201.066 86.4135 201.066 114.69 218.507 132.13C235.947 149.571 264.224 149.571 281.664 132.13ZM268.506 118.972C278.68 108.799 278.68 92.3041 268.506 82.1305C258.332 71.957 241.838 71.957 231.664 82.1305C221.491 92.3041 221.491 108.799 231.664 118.972C241.838 129.146 258.332 129.146 268.506 118.972Z" fill="#0084FF"/>
<circle cx="250.085" cy="100.551" r="18.6079" transform="rotate(-45 250.085 100.551)" fill="#0084FF"/>
</g>
</svg>
