<svg viewBox="0 0 256 256" fill="none" xmlns="http://www.w3.org/2000/svg">
<mask id="mask0_2239_14" style="mask-type:alpha" maskUnits="userSpaceOnUse" x="0" y="0" width="256" height="256">
<rect width="256" height="256" fill="black"/>
</mask>
<g mask="url(#mask0_2239_14)">
<path d="M141 63V88C141 94.6274 146.373 100 153 100H178" stroke="#48A7FF" stroke-width="14"/>
<path d="M138.6 56H88C78.6112 56 71 63.6112 71 73V183C71 192.389 78.6112 200 88 200H168C177.389 200 185 192.389 185 183V102.042C185 97.4969 183.18 93.1413 179.947 89.9474L150.546 60.9057C147.365 57.7625 143.072 56 138.6 56Z" stroke="#48A7FF" stroke-width="14"/>
<path d="M120.757 157.7C120.757 155.367 121.123 153.3 121.857 151.5C122.657 149.7 123.623 148.1 124.757 146.7C125.957 145.3 127.223 144 128.557 142.8C129.89 141.6 131.123 140.467 132.257 139.4C133.457 138.267 134.423 137.1 135.157 135.9C135.957 134.7 136.357 133.367 136.357 131.9C136.357 129.5 135.357 127.567 133.357 126.1C131.423 124.633 128.823 123.9 125.557 123.9C122.423 123.9 119.623 124.567 117.157 125.9C114.69 127.167 112.657 128.967 111.057 131.3L98.9566 124.2C101.623 120.133 105.323 116.9 110.057 114.5C114.79 112.033 120.523 110.8 127.257 110.8C132.257 110.8 136.657 111.533 140.457 113C144.257 114.4 147.223 116.467 149.357 119.2C151.557 121.933 152.657 125.3 152.657 129.3C152.657 131.9 152.257 134.2 151.457 136.2C150.657 138.2 149.623 139.933 148.357 141.4C147.09 142.867 145.723 144.233 144.257 145.5C142.857 146.767 141.523 148 140.257 149.2C138.99 150.4 137.923 151.667 137.057 153C136.257 154.333 135.857 155.9 135.857 157.7H120.757ZM128.357 182.8C125.557 182.8 123.257 181.9 121.457 180.1C119.657 178.3 118.757 176.167 118.757 173.7C118.757 171.167 119.657 169.067 121.457 167.4C123.257 165.667 125.557 164.8 128.357 164.8C131.223 164.8 133.523 165.667 135.257 167.4C137.057 169.067 137.957 171.167 137.957 173.7C137.957 176.167 137.057 178.3 135.257 180.1C133.523 181.9 131.223 182.8 128.357 182.8Z" fill="#48A7FF"/>
</g>
</svg>
