<svg viewBox="0 0 256 256" fill="none" xmlns="http://www.w3.org/2000/svg">
<mask id="mask0_72_502" style="mask-type:alpha" maskUnits="userSpaceOnUse" x="0" y="0" width="256" height="256">
<rect width="256" height="256" fill="var(--gray)"/>
</mask>
<g mask="url(#mask0_72_502)">
<path d="M161.427 69.6992L171.427 79.8994L177.275 85.8652L171.761 92.1406L147.676 119.547C155.703 130.588 161.435 142.689 164.937 155.8H192V188H64V165.598L66.251 163.046L109.65 113.847L109.68 113.813L110.285 113.134C110.303 113.114 110.32 113.095 110.337 113.075C110.344 113.067 110.351 113.059 110.357 113.052L110.419 112.982C110.426 112.974 110.433 112.967 110.44 112.959C110.448 112.95 110.456 112.941 110.464 112.933L111.072 112.25C111.088 112.233 111.103 112.215 111.118 112.198C111.133 112.181 111.149 112.164 111.164 112.147V112.146L111.227 112.076C111.235 112.066 111.244 112.057 111.253 112.047C111.261 112.038 111.269 112.029 111.276 112.021L111.317 111.975C111.325 111.966 111.333 111.957 111.341 111.948C111.349 111.939 111.357 111.929 111.365 111.92L111.429 111.85C111.442 111.834 111.456 111.819 111.47 111.804C111.477 111.796 111.484 111.787 111.491 111.779L111.771 111.466C111.779 111.456 111.788 111.446 111.797 111.437C111.81 111.422 111.824 111.407 111.837 111.393C111.85 111.378 111.862 111.364 111.875 111.35C111.888 111.335 111.901 111.32 111.914 111.306C111.915 111.305 111.915 111.304 111.916 111.303L111.972 111.24C111.978 111.234 111.983 111.227 111.989 111.221C112.002 111.207 112.015 111.193 112.027 111.179C112.04 111.165 112.051 111.151 112.063 111.138C112.076 111.124 112.088 111.11 112.101 111.097C112.113 111.083 112.125 111.069 112.137 111.056C112.149 111.042 112.161 111.029 112.173 111.016L112.243 110.936C112.255 110.922 112.267 110.909 112.278 110.896C112.29 110.884 112.301 110.87 112.312 110.857L112.381 110.781L112.48 110.67L112.577 110.562L112.64 110.491L112.73 110.389C112.74 110.377 112.751 110.367 112.761 110.355L112.819 110.289C112.829 110.278 112.839 110.268 112.849 110.257C112.858 110.246 112.868 110.235 112.877 110.225C112.886 110.214 112.896 110.204 112.905 110.193C112.915 110.183 112.923 110.172 112.933 110.162C112.942 110.152 112.952 110.141 112.961 110.131C112.97 110.121 112.979 110.111 112.988 110.101L113.041 110.04L113.12 109.952C113.129 109.943 113.137 109.933 113.146 109.924C113.154 109.914 113.162 109.905 113.17 109.896C113.178 109.886 113.187 109.876 113.195 109.867L113.244 109.812C113.247 109.809 113.25 109.806 113.253 109.803L113.315 109.732C113.323 109.724 113.33 109.715 113.338 109.707C113.346 109.698 113.354 109.69 113.361 109.682L113.406 109.631C113.414 109.623 113.421 109.614 113.428 109.606C113.435 109.598 113.443 109.59 113.45 109.582C113.457 109.574 113.465 109.566 113.472 109.558C113.479 109.55 113.485 109.542 113.492 109.534C113.499 109.526 113.507 109.519 113.514 109.511C113.521 109.503 113.527 109.495 113.534 109.487C113.541 109.48 113.548 109.472 113.555 109.465C113.561 109.457 113.568 109.449 113.574 109.441C113.581 109.434 113.588 109.427 113.595 109.42C113.601 109.413 113.608 109.405 113.614 109.397C113.621 109.39 113.627 109.383 113.633 109.376C113.639 109.369 113.646 109.362 113.652 109.354C113.659 109.347 113.665 109.34 113.671 109.333L113.708 109.292C113.714 109.285 113.72 109.278 113.726 109.271C113.732 109.265 113.738 109.259 113.744 109.252C113.75 109.245 113.756 109.239 113.762 109.232C113.767 109.226 113.773 109.219 113.778 109.213C113.784 109.206 113.79 109.2 113.796 109.193L113.846 109.138C113.851 109.132 113.856 109.126 113.861 109.12C113.867 109.114 113.872 109.107 113.877 109.102C113.882 109.096 113.887 109.09 113.893 109.084C113.898 109.078 113.903 109.073 113.908 109.067C113.913 109.062 113.919 109.055 113.924 109.05L113.953 109.017C113.958 109.011 113.963 109.006 113.968 109.001C113.973 108.996 113.977 108.99 113.981 108.984C113.986 108.979 113.991 108.974 113.996 108.969C114.001 108.964 114.005 108.958 114.01 108.953C114.014 108.948 114.019 108.943 114.023 108.938C114.028 108.933 114.032 108.928 114.036 108.923C114.041 108.918 114.045 108.913 114.05 108.908C114.054 108.903 114.058 108.898 114.062 108.894C114.067 108.889 114.071 108.884 114.075 108.88C114.079 108.875 114.084 108.87 114.088 108.865C114.092 108.861 114.097 108.856 114.101 108.852C114.105 108.847 114.108 108.842 114.112 108.838C114.116 108.834 114.12 108.829 114.124 108.825C114.128 108.821 114.132 108.816 114.136 108.812C114.14 108.807 114.144 108.803 114.147 108.799C114.151 108.795 114.155 108.79 114.158 108.786C114.162 108.782 114.166 108.778 114.17 108.773C114.173 108.769 114.177 108.766 114.181 108.762C114.184 108.758 114.188 108.753 114.191 108.749C114.195 108.745 114.199 108.741 114.202 108.737C114.205 108.734 114.209 108.73 114.212 108.727C114.215 108.723 114.219 108.719 114.223 108.715C114.226 108.711 114.229 108.707 114.232 108.703L114.252 108.682C114.255 108.678 114.258 108.674 114.261 108.671C114.264 108.667 114.268 108.664 114.271 108.661C114.273 108.658 114.276 108.655 114.279 108.651C114.282 108.648 114.285 108.644 114.288 108.641C114.291 108.637 114.294 108.634 114.297 108.631C114.3 108.628 114.302 108.625 114.305 108.622C114.307 108.619 114.311 108.615 114.313 108.612C114.316 108.609 114.319 108.606 114.321 108.604C114.324 108.6 114.327 108.597 114.33 108.594C114.333 108.591 114.335 108.588 114.338 108.585C114.34 108.582 114.342 108.58 114.345 108.577C114.347 108.574 114.35 108.571 114.353 108.568C114.355 108.566 114.358 108.563 114.36 108.561C114.363 108.558 114.365 108.554 114.367 108.552L114.381 108.536C114.383 108.534 114.386 108.532 114.388 108.529C114.39 108.527 114.392 108.524 114.395 108.521C114.397 108.519 114.398 108.517 114.4 108.515C114.402 108.512 114.405 108.51 114.407 108.508L114.425 108.487C114.427 108.485 114.429 108.483 114.431 108.481C114.433 108.479 114.435 108.477 114.437 108.475L114.446 108.463C114.448 108.461 114.45 108.459 114.452 108.457C114.454 108.455 114.455 108.453 114.457 108.451C114.459 108.449 114.46 108.448 114.462 108.446C114.464 108.444 114.465 108.442 114.467 108.44C114.468 108.439 114.469 108.437 114.471 108.436C114.472 108.434 114.474 108.432 114.476 108.431C114.477 108.429 114.478 108.427 114.479 108.426C114.481 108.424 114.483 108.422 114.484 108.421C114.486 108.419 114.487 108.417 114.488 108.416C114.49 108.415 114.491 108.413 114.492 108.412C114.493 108.411 114.495 108.409 114.496 108.407L114.504 108.399C114.505 108.398 114.506 108.397 114.507 108.396C114.508 108.394 114.51 108.393 114.511 108.392L114.517 108.384C114.518 108.383 114.519 108.382 114.521 108.381C114.522 108.38 114.522 108.378 114.523 108.377C114.524 108.376 114.525 108.375 114.526 108.374C114.527 108.373 114.528 108.372 114.528 108.371L114.534 108.365C114.535 108.364 114.535 108.363 114.536 108.362C114.537 108.361 114.538 108.36 114.539 108.359C114.54 108.359 114.54 108.357 114.541 108.356C114.542 108.356 114.543 108.355 114.544 108.354C114.545 108.354 114.545 108.352 114.546 108.352L114.55 108.348L114.552 108.345L114.556 108.341L114.557 108.339L114.559 108.338L114.56 108.336L114.565 108.33L114.566 108.328L114.573 108.321V108.32L114.574 108.319H114.575V108.318L114.579 108.314L114.58 108.313L114.581 108.312V108.312H114.582V108.311L114.583 108.31H114.584V108.309L114.587 108.306V108.305H114.588L114.591 108.302L114.592 108.3L114.595 108.297L114.596 108.295L114.598 108.294L114.599 108.292L114.6 108.291L114.603 108.287L114.612 108.277C114.613 108.277 114.614 108.275 114.614 108.274L114.619 108.27C114.62 108.269 114.62 108.267 114.621 108.267C114.622 108.266 114.623 108.265 114.624 108.265C114.625 108.264 114.625 108.263 114.626 108.262L114.632 108.256C114.633 108.255 114.633 108.254 114.634 108.253C114.635 108.252 114.636 108.25 114.637 108.249L114.644 108.242C114.645 108.241 114.645 108.239 114.646 108.238L114.653 108.231C114.654 108.23 114.655 108.229 114.656 108.228C114.657 108.226 114.659 108.224 114.66 108.223L114.668 108.215L114.676 108.205C114.677 108.204 114.678 108.203 114.679 108.202L114.689 108.19C114.691 108.189 114.692 108.187 114.693 108.186C114.695 108.184 114.697 108.182 114.698 108.181L114.708 108.169C114.71 108.167 114.712 108.165 114.714 108.163L114.724 108.151C114.725 108.149 114.728 108.148 114.729 108.146C114.731 108.143 114.733 108.141 114.735 108.139C114.737 108.137 114.739 108.135 114.741 108.133L114.753 108.119C114.755 108.117 114.758 108.115 114.76 108.112C114.762 108.11 114.763 108.107 114.766 108.104C114.768 108.102 114.77 108.1 114.772 108.098L114.8 108.066C114.802 108.064 114.805 108.06 114.808 108.058C114.81 108.055 114.813 108.053 114.815 108.05C114.818 108.047 114.82 108.044 114.822 108.041C114.825 108.038 114.828 108.035 114.83 108.032C114.833 108.029 114.836 108.026 114.839 108.023C114.842 108.02 114.844 108.017 114.847 108.014C114.849 108.011 114.852 108.008 114.854 108.005L114.881 107.976C114.884 107.972 114.887 107.968 114.89 107.965C114.893 107.961 114.896 107.959 114.899 107.955C114.902 107.952 114.905 107.948 114.908 107.944L114.928 107.923C114.931 107.919 114.934 107.915 114.938 107.911C114.941 107.907 114.945 107.904 114.948 107.9C114.952 107.897 114.955 107.893 114.958 107.889L114.979 107.865C114.983 107.861 114.987 107.857 114.99 107.853C114.994 107.848 114.998 107.844 115.002 107.84C115.006 107.836 115.009 107.831 115.013 107.827L115.036 107.802L115.06 107.774L115.085 107.747L115.11 107.718C115.115 107.713 115.12 107.708 115.124 107.703C115.128 107.698 115.132 107.693 115.137 107.688L115.164 107.657C115.169 107.652 115.174 107.647 115.179 107.642C115.183 107.636 115.188 107.631 115.192 107.626L115.236 107.576C115.241 107.571 115.247 107.565 115.252 107.56L115.299 107.507C115.304 107.501 115.309 107.494 115.314 107.488L115.364 107.433C115.37 107.426 115.376 107.42 115.382 107.414C115.387 107.408 115.393 107.401 115.398 107.395C115.404 107.388 115.41 107.381 115.416 107.374C115.422 107.367 115.429 107.361 115.435 107.354C115.44 107.348 115.446 107.341 115.452 107.334L115.489 107.293C115.495 107.286 115.502 107.279 115.508 107.271C115.514 107.264 115.521 107.257 115.527 107.25C115.534 107.243 115.54 107.236 115.546 107.229C115.552 107.221 115.559 107.214 115.565 107.207C115.572 107.2 115.579 107.192 115.586 107.185C115.592 107.177 115.599 107.17 115.605 107.162C115.612 107.155 115.619 107.146 115.626 107.139C115.633 107.131 115.64 107.124 115.646 107.116C115.653 107.108 115.661 107.101 115.668 107.093C115.675 107.085 115.681 107.076 115.688 107.068C115.695 107.061 115.703 107.053 115.71 107.045C115.717 107.037 115.725 107.029 115.732 107.021C115.74 107.012 115.747 107.003 115.754 106.995C115.761 106.987 115.769 106.979 115.776 106.971C115.784 106.962 115.791 106.954 115.799 106.945C115.806 106.937 115.814 106.928 115.821 106.919C115.829 106.91 115.837 106.902 115.845 106.894L115.892 106.841L115.965 106.759C115.973 106.75 115.982 106.74 115.99 106.73C115.998 106.721 116.006 106.711 116.015 106.702C116.023 106.693 116.032 106.683 116.04 106.674C116.049 106.664 116.058 106.655 116.066 106.646C116.075 106.636 116.083 106.626 116.092 106.616C116.101 106.606 116.11 106.596 116.119 106.586C116.128 106.576 116.137 106.567 116.146 106.557C116.154 106.547 116.163 106.536 116.172 106.526C116.181 106.516 116.19 106.505 116.199 106.495C116.208 106.485 116.218 106.474 116.228 106.464C116.237 106.454 116.246 106.443 116.255 106.433C116.264 106.422 116.274 106.412 116.283 106.401C116.293 106.391 116.302 106.38 116.312 106.369C116.321 106.358 116.331 106.348 116.341 106.337L116.399 106.271C116.409 106.259 116.42 106.248 116.43 106.237C116.439 106.226 116.449 106.215 116.459 106.204C116.469 106.193 116.48 106.181 116.49 106.17C116.5 106.158 116.51 106.146 116.521 106.135L116.583 106.064C116.594 106.053 116.605 106.041 116.615 106.029C116.626 106.017 116.637 106.005 116.647 105.993C116.658 105.981 116.669 105.968 116.68 105.956C116.691 105.944 116.702 105.932 116.713 105.92C116.724 105.908 116.735 105.895 116.746 105.883C116.757 105.87 116.768 105.857 116.779 105.845C116.79 105.832 116.802 105.819 116.813 105.807C116.825 105.794 116.835 105.781 116.847 105.769L116.952 105.651C116.964 105.638 116.975 105.625 116.987 105.611C116.999 105.598 117.011 105.584 117.023 105.57C117.035 105.557 117.048 105.544 117.06 105.53C117.072 105.517 117.084 105.503 117.097 105.489C117.109 105.476 117.12 105.461 117.133 105.447C117.145 105.433 117.158 105.419 117.171 105.405C117.183 105.391 117.196 105.377 117.208 105.363C117.221 105.349 117.233 105.335 117.246 105.32C117.259 105.306 117.272 105.292 117.285 105.277C117.298 105.263 117.31 105.248 117.323 105.233C117.336 105.219 117.35 105.204 117.363 105.189C117.376 105.175 117.389 105.16 117.402 105.146C117.416 105.131 117.429 105.116 117.442 105.101C117.456 105.086 117.469 105.07 117.482 105.055C117.496 105.04 117.51 105.025 117.523 105.01C117.537 104.994 117.551 104.978 117.564 104.963C117.578 104.948 117.592 104.932 117.605 104.917C117.619 104.902 117.634 104.886 117.647 104.87C117.661 104.854 117.676 104.838 117.69 104.822C117.704 104.807 117.718 104.79 117.732 104.774C117.747 104.758 117.761 104.743 117.775 104.727C117.79 104.71 117.805 104.694 117.819 104.678C117.834 104.662 117.848 104.645 117.862 104.629C117.877 104.612 117.892 104.596 117.907 104.579C117.922 104.563 117.936 104.546 117.951 104.529C117.966 104.513 117.981 104.495 117.996 104.479C118.011 104.462 118.027 104.445 118.042 104.428L118.18 104.272C118.195 104.255 118.212 104.237 118.228 104.22C118.243 104.202 118.259 104.184 118.274 104.166L118.37 104.059L118.468 103.949L118.567 103.838C118.584 103.819 118.6 103.8 118.617 103.781C118.634 103.762 118.651 103.744 118.668 103.725C118.685 103.706 118.703 103.686 118.72 103.667C118.737 103.648 118.753 103.629 118.771 103.609C118.788 103.59 118.806 103.57 118.823 103.551C118.841 103.531 118.858 103.512 118.875 103.492C118.893 103.473 118.91 103.452 118.928 103.433C118.945 103.413 118.964 103.393 118.981 103.373L119.089 103.252L119.198 103.129C119.217 103.108 119.235 103.088 119.254 103.067C119.272 103.047 119.291 103.025 119.31 103.004C119.328 102.983 119.347 102.962 119.366 102.941L119.451 102.845L148.237 70.0615L154.637 62.7734L161.427 69.6992ZM115.802 155.8H130.777C129.273 152.011 127.475 148.361 125.375 144.83L115.802 155.8Z" fill="var(--pageColor)" stroke="var(--pageColor)" stroke-width="18"/>
<path d="M157.143 73.8994L167.143 84.0996L169.092 86.0889L167.254 88.1807L139.929 119.274C150.013 131.929 156.732 146.114 160.229 161.8H186V182H70V167.866L70.75 167.016L114.15 117.815L114.155 117.81L114.16 117.805C114.179 117.783 114.198 117.761 114.217 117.74C114.236 117.719 114.256 117.698 114.274 117.677C114.293 117.656 114.311 117.634 114.33 117.613L114.441 117.488L114.551 117.365C114.569 117.345 114.588 117.325 114.605 117.305C114.623 117.285 114.641 117.264 114.659 117.244L114.765 117.125C114.782 117.105 114.8 117.086 114.817 117.066C114.835 117.047 114.852 117.028 114.869 117.009C114.886 116.989 114.904 116.969 114.921 116.95C114.938 116.931 114.955 116.912 114.972 116.894C114.989 116.875 115.006 116.855 115.022 116.836C115.039 116.817 115.057 116.799 115.073 116.78C115.077 116.776 115.08 116.772 115.084 116.769L115.127 116.72C115.142 116.703 115.157 116.685 115.172 116.668L115.27 116.559L115.365 116.451C115.381 116.433 115.397 116.416 115.413 116.398C115.414 116.397 115.416 116.396 115.417 116.395L115.495 116.307C115.499 116.302 115.503 116.297 115.507 116.293L115.599 116.189C115.614 116.173 115.629 116.155 115.644 116.139C115.658 116.122 115.674 116.105 115.688 116.089C115.703 116.072 115.719 116.055 115.733 116.038C115.748 116.022 115.763 116.006 115.777 115.989C115.792 115.973 115.807 115.956 115.821 115.939C115.836 115.923 115.85 115.908 115.864 115.892C115.879 115.875 115.893 115.859 115.907 115.843C115.921 115.827 115.936 115.811 115.95 115.795L116.034 115.701C116.048 115.686 116.062 115.67 116.075 115.654C116.089 115.639 116.104 115.624 116.117 115.608C116.131 115.593 116.144 115.578 116.157 115.562L116.277 115.428C116.29 115.413 116.303 115.398 116.316 115.384C116.329 115.369 116.343 115.355 116.355 115.341C116.368 115.326 116.381 115.311 116.394 115.297C116.406 115.283 116.419 115.269 116.432 115.255C116.444 115.241 116.457 115.226 116.47 115.212C116.482 115.198 116.495 115.184 116.507 115.17C116.519 115.156 116.532 115.143 116.544 115.129C116.556 115.115 116.568 115.101 116.58 115.088C116.592 115.074 116.605 115.06 116.617 115.047C116.629 115.034 116.641 115.02 116.652 115.007C116.664 114.993 116.677 114.98 116.688 114.967C116.7 114.954 116.712 114.94 116.724 114.927C116.735 114.914 116.747 114.901 116.759 114.888C116.77 114.875 116.782 114.861 116.793 114.849L116.861 114.772L116.928 114.698C116.939 114.686 116.949 114.673 116.96 114.661C116.971 114.649 116.982 114.637 116.993 114.625C117.004 114.613 117.015 114.601 117.025 114.589C117.036 114.577 117.046 114.565 117.057 114.553L117.119 114.482C117.129 114.471 117.14 114.46 117.15 114.448L117.211 114.38C117.221 114.369 117.23 114.358 117.24 114.347C117.25 114.336 117.261 114.324 117.271 114.313C117.28 114.303 117.289 114.291 117.299 114.28C117.309 114.269 117.319 114.259 117.328 114.248C117.338 114.237 117.347 114.226 117.356 114.216L117.413 114.153C117.422 114.143 117.431 114.132 117.44 114.122L117.495 114.062C117.504 114.052 117.513 114.041 117.521 114.031L117.574 113.973C117.583 113.963 117.591 113.953 117.6 113.943L117.65 113.887C117.659 113.877 117.667 113.868 117.675 113.858C117.683 113.849 117.692 113.84 117.7 113.831C117.708 113.822 117.716 113.813 117.724 113.804C117.732 113.795 117.74 113.786 117.748 113.777C117.756 113.768 117.764 113.759 117.771 113.75C117.779 113.741 117.787 113.732 117.795 113.724C117.803 113.715 117.811 113.707 117.818 113.698L117.886 113.622C117.893 113.614 117.901 113.606 117.908 113.598L117.951 113.549C117.958 113.541 117.966 113.533 117.973 113.525L118.014 113.479C118.02 113.471 118.028 113.464 118.034 113.456C118.041 113.448 118.048 113.44 118.055 113.433C118.061 113.425 118.068 113.418 118.074 113.411C118.081 113.404 118.087 113.396 118.094 113.389C118.1 113.381 118.107 113.374 118.113 113.367C118.12 113.36 118.126 113.353 118.132 113.346C118.138 113.339 118.145 113.331 118.151 113.324C118.157 113.317 118.164 113.31 118.17 113.304C118.176 113.297 118.182 113.29 118.188 113.283C118.194 113.276 118.2 113.269 118.206 113.263L118.259 113.204C118.265 113.198 118.27 113.191 118.275 113.185L118.325 113.129C118.331 113.123 118.336 113.117 118.342 113.111C118.347 113.105 118.352 113.099 118.357 113.093C118.363 113.087 118.368 113.081 118.373 113.075C118.378 113.07 118.384 113.064 118.389 113.059C118.394 113.053 118.398 113.047 118.403 113.041L118.433 113.008C118.437 113.002 118.443 112.997 118.447 112.992C118.452 112.987 118.457 112.981 118.462 112.976L118.489 112.944C118.494 112.939 118.499 112.935 118.503 112.93C118.507 112.925 118.512 112.919 118.517 112.914C118.521 112.909 118.525 112.904 118.529 112.899C118.534 112.895 118.539 112.89 118.543 112.885C118.547 112.88 118.552 112.876 118.556 112.871C118.56 112.866 118.563 112.861 118.567 112.856C118.572 112.852 118.576 112.847 118.58 112.843C118.584 112.838 118.588 112.834 118.592 112.829C118.596 112.825 118.601 112.821 118.604 112.816C118.608 112.812 118.612 112.807 118.616 112.803C118.62 112.799 118.623 112.794 118.627 112.79C118.631 112.786 118.635 112.782 118.639 112.777C118.642 112.773 118.646 112.769 118.649 112.765L118.671 112.741C118.674 112.737 118.678 112.732 118.682 112.729C118.685 112.725 118.689 112.722 118.692 112.718C118.696 112.714 118.699 112.71 118.702 112.706C118.705 112.702 118.709 112.699 118.712 112.695C118.715 112.692 118.718 112.687 118.722 112.684C118.725 112.68 118.728 112.676 118.731 112.673C118.735 112.669 118.738 112.666 118.741 112.663C118.744 112.66 118.747 112.656 118.75 112.652C118.753 112.649 118.756 112.646 118.759 112.643C118.762 112.639 118.765 112.635 118.768 112.632C118.77 112.629 118.774 112.625 118.776 112.622C118.779 112.619 118.782 112.616 118.785 112.613C118.788 112.61 118.791 112.607 118.794 112.604L118.833 112.56C118.835 112.557 118.838 112.554 118.84 112.552C118.842 112.549 118.844 112.546 118.847 112.543C118.849 112.54 118.852 112.538 118.854 112.535C118.857 112.533 118.859 112.53 118.861 112.527C118.863 112.525 118.866 112.523 118.868 112.521C118.87 112.518 118.872 112.515 118.874 112.513C118.876 112.51 118.879 112.508 118.881 112.506L118.893 112.492C118.895 112.49 118.897 112.488 118.899 112.485C118.901 112.483 118.903 112.481 118.905 112.479C118.907 112.477 118.908 112.475 118.91 112.473C118.912 112.471 118.914 112.468 118.916 112.466C118.918 112.464 118.92 112.462 118.922 112.46L118.937 112.442C118.938 112.441 118.94 112.439 118.941 112.438C118.943 112.436 118.945 112.433 118.946 112.432C118.948 112.43 118.95 112.428 118.951 112.427C118.953 112.425 118.954 112.423 118.955 112.422C118.957 112.42 118.959 112.419 118.96 112.417L118.968 112.407C118.969 112.406 118.971 112.405 118.973 112.403C118.974 112.402 118.974 112.4 118.976 112.398L118.987 112.387C118.988 112.386 118.989 112.384 118.99 112.383C118.991 112.382 118.993 112.38 118.994 112.379C118.995 112.378 118.996 112.376 118.997 112.375C118.998 112.374 118.999 112.373 119 112.372C119.001 112.371 119.002 112.369 119.003 112.368L119.012 112.359C119.012 112.359 119.013 112.357 119.014 112.356C119.014 112.356 119.016 112.354 119.017 112.354C119.017 112.353 119.018 112.351 119.019 112.351L119.023 112.346C119.024 112.345 119.025 112.344 119.025 112.343L119.029 112.339L119.031 112.336L119.04 112.327L119.041 112.325L119.043 112.324L119.044 112.322L119.052 112.314V112.313L119.056 112.31V112.309H119.057V112.308H119.058V112.307H119.059V112.306L119.06 112.305H119.061V112.304L119.064 112.3V112.299H119.065V112.298L119.066 112.297H119.067L119.068 112.296V112.295L119.071 112.292L119.072 112.29L119.073 112.289L119.075 112.288L119.076 112.286L119.082 112.28L119.083 112.278L119.091 112.271L119.097 112.263L119.106 112.253C119.107 112.252 119.108 112.251 119.108 112.25L119.114 112.244C119.115 112.243 119.116 112.241 119.117 112.24C119.118 112.239 119.119 112.238 119.12 112.237L119.126 112.229C119.127 112.228 119.129 112.228 119.13 112.227C119.131 112.225 119.132 112.224 119.133 112.223C119.134 112.221 119.136 112.22 119.137 112.219H119.136L119.142 112.213C119.142 112.212 119.143 112.211 119.144 112.21C119.145 112.209 119.146 112.207 119.147 112.206C119.149 112.205 119.15 112.203 119.151 112.201L119.16 112.192H119.159L119.166 112.185L119.179 112.172L119.198 112.148L119.21 112.137C119.212 112.135 119.213 112.132 119.215 112.13C119.217 112.128 119.219 112.126 119.221 112.124C119.223 112.122 119.225 112.119 119.227 112.117C119.229 112.115 119.231 112.113 119.233 112.11C119.235 112.108 119.237 112.106 119.239 112.104C119.241 112.101 119.244 112.098 119.246 112.096C119.248 112.093 119.25 112.091 119.252 112.089L119.272 112.065C119.275 112.063 119.278 112.06 119.28 112.058C119.283 112.055 119.285 112.052 119.287 112.049C119.29 112.046 119.292 112.044 119.295 112.041L119.318 112.015C119.321 112.012 119.323 112.008 119.326 112.005C119.329 112.002 119.332 111.999 119.335 111.996L119.361 111.967C119.364 111.963 119.367 111.959 119.37 111.956C119.373 111.953 119.376 111.95 119.379 111.946L119.408 111.914C119.411 111.91 119.415 111.906 119.418 111.902C119.421 111.899 119.424 111.895 119.428 111.892L119.449 111.868C119.453 111.864 119.456 111.86 119.459 111.856C119.463 111.852 119.467 111.848 119.471 111.844C119.474 111.84 119.478 111.835 119.481 111.831C119.485 111.827 119.489 111.823 119.493 111.818C119.497 111.814 119.5 111.81 119.504 111.806C119.508 111.801 119.512 111.797 119.516 111.793C119.519 111.789 119.523 111.784 119.527 111.779C119.531 111.775 119.536 111.77 119.54 111.766C119.544 111.761 119.548 111.756 119.552 111.752C119.556 111.747 119.56 111.743 119.564 111.738C119.569 111.734 119.573 111.728 119.577 111.724C119.581 111.719 119.586 111.714 119.591 111.709C119.595 111.704 119.599 111.699 119.604 111.694C119.608 111.689 119.613 111.685 119.617 111.68L119.658 111.633C119.663 111.628 119.668 111.623 119.673 111.617C119.678 111.612 119.682 111.606 119.687 111.601C119.691 111.595 119.697 111.59 119.702 111.584L119.731 111.551L119.778 111.498C119.784 111.492 119.79 111.486 119.795 111.479C119.8 111.474 119.805 111.468 119.811 111.462C119.816 111.456 119.822 111.449 119.827 111.442C119.833 111.436 119.839 111.43 119.845 111.424C119.85 111.418 119.856 111.412 119.861 111.405L119.896 111.366L119.932 111.325L119.969 111.284C119.975 111.277 119.981 111.27 119.987 111.263L120.046 111.198C120.052 111.191 120.059 111.183 120.065 111.176C120.072 111.168 120.079 111.161 120.086 111.153C120.093 111.146 120.1 111.138 120.106 111.13C120.113 111.122 120.12 111.115 120.127 111.107C120.134 111.1 120.141 111.092 120.147 111.084C120.154 111.076 120.162 111.068 120.169 111.06C120.176 111.052 120.183 111.044 120.19 111.036C120.198 111.028 120.205 111.02 120.212 111.012C120.219 111.004 120.227 110.995 120.234 110.986C120.242 110.978 120.249 110.97 120.256 110.962C120.263 110.954 120.272 110.945 120.279 110.937C120.287 110.928 120.294 110.919 120.302 110.91C120.309 110.902 120.318 110.893 120.325 110.885L120.372 110.832C120.38 110.823 120.388 110.814 120.396 110.805C120.404 110.796 120.412 110.786 120.42 110.777C120.428 110.768 120.437 110.759 120.445 110.75C120.453 110.741 120.461 110.731 120.47 110.722L120.546 110.637C120.554 110.627 120.564 110.617 120.572 110.607C120.581 110.598 120.59 110.587 120.599 110.577C120.607 110.567 120.616 110.558 120.625 110.548C120.634 110.538 120.643 110.528 120.652 110.518L120.707 110.455L120.764 110.393L120.82 110.328C120.83 110.317 120.84 110.306 120.85 110.295C120.859 110.284 120.87 110.273 120.88 110.262C120.89 110.251 120.899 110.24 120.909 110.229C120.919 110.217 120.929 110.207 120.939 110.195C120.949 110.184 120.96 110.172 120.97 110.161L121.095 110.021C121.105 110.009 121.116 109.996 121.127 109.984C121.138 109.972 121.149 109.959 121.16 109.947C121.171 109.935 121.182 109.923 121.192 109.911C121.203 109.899 121.215 109.886 121.226 109.874C121.237 109.862 121.248 109.848 121.259 109.836L121.327 109.76C121.339 109.747 121.35 109.734 121.361 109.721L121.432 109.643C121.443 109.629 121.456 109.616 121.468 109.603C121.48 109.589 121.491 109.575 121.503 109.562C121.515 109.548 121.527 109.535 121.539 109.521C121.551 109.508 121.564 109.494 121.576 109.48L121.65 109.396C121.663 109.382 121.676 109.369 121.688 109.354L121.765 109.269L121.843 109.181C121.856 109.166 121.87 109.152 121.883 109.137C121.896 109.122 121.909 109.107 121.922 109.092C121.935 109.077 121.949 109.061 121.963 109.046C121.976 109.031 121.99 109.016 122.003 109.001C122.017 108.986 122.03 108.97 122.044 108.954C122.058 108.939 122.072 108.924 122.086 108.908C122.1 108.893 122.114 108.877 122.128 108.861C122.142 108.846 122.156 108.829 122.17 108.813L122.256 108.718C122.27 108.702 122.284 108.685 122.299 108.669C122.313 108.653 122.328 108.637 122.343 108.62C122.357 108.604 122.372 108.587 122.387 108.57C122.402 108.554 122.417 108.537 122.432 108.521L122.521 108.419L122.613 108.315C122.629 108.298 122.645 108.281 122.66 108.264C122.676 108.246 122.691 108.229 122.707 108.211L122.755 108.157C122.771 108.14 122.786 108.121 122.802 108.104C122.818 108.086 122.834 108.068 122.851 108.05L122.948 107.94C122.965 107.922 122.981 107.903 122.997 107.885C123.014 107.866 123.03 107.848 123.047 107.829L123.148 107.716C123.165 107.697 123.182 107.677 123.199 107.658C123.216 107.639 123.234 107.62 123.251 107.601C123.268 107.581 123.285 107.562 123.303 107.542C123.32 107.522 123.338 107.503 123.355 107.483L123.461 107.364C123.479 107.344 123.497 107.324 123.515 107.304C123.533 107.284 123.551 107.263 123.569 107.243C123.587 107.223 123.605 107.202 123.623 107.182C123.641 107.161 123.66 107.141 123.679 107.12C123.684 107.114 123.688 107.108 123.693 107.103L123.846 106.933C123.865 106.911 123.883 106.889 123.902 106.868C123.917 106.852 123.931 106.836 123.945 106.82L152.746 74.0205L154.879 71.5908L157.143 73.8994ZM102.601 161.8H139.128C136.393 152.074 132.035 143.197 126.035 134.95L102.601 161.8Z" fill="var(--darkGray)" stroke="var(--darkGray)" stroke-width="6"/>
</g>
</svg>
