<svg viewBox="0 0 256 256" fill="none" xmlns="http://www.w3.org/2000/svg">
<mask id="mask0_71_292" style="mask-type:alpha" maskUnits="userSpaceOnUse" x="0" y="0" width="256" height="256">
<rect width="256" height="256" fill="var(--gray)"/>
</mask>
<g mask="url(#mask0_71_292)">
<path d="M198.075 171.55C208.251 171.55 216.5 179.799 216.5 189.975C216.5 200.15 208.251 208.4 198.075 208.4H58.4248C48.2491 208.4 40 200.15 40 189.975C40.0002 179.799 48.2492 171.55 58.4248 171.55H198.075ZM198.075 115.55C208.251 115.55 216.5 123.799 216.5 133.975C216.5 144.15 208.251 152.4 198.075 152.4H58.4248C48.2491 152.4 40 144.15 40 133.975C40.0002 123.799 48.2492 115.55 58.4248 115.55H198.075ZM87.6504 48C103.342 48.0001 118.535 51.7447 134.223 59.0332C148.533 65.5071 160.595 68.6504 170.25 68.6504C175.716 68.6504 182.299 66.8252 189.274 62.9678C194.898 59.8575 201.53 60.1732 206.676 62.5908C211.876 65.0338 216.5 70.1444 216.5 77.2715C216.5 81.0728 215.104 84.9821 212.136 87.8848C199.944 99.8058 185.016 105.85 168.5 105.85C153.168 105.85 137.626 102.11 121.927 94.8164C107.631 88.3495 95.5656 85.2002 85.5498 85.2002C80.663 85.2002 74.4017 86.9203 67.4336 90.8125C61.7559 93.984 55.0656 93.6987 49.8604 91.2422C44.5954 88.7574 40.0001 83.5756 40 76.4062C40 72.4643 41.4773 68.4286 44.5781 65.4717C56.6051 54.0036 70.8649 48 87.6504 48Z" fill="var(--pageColor)" stroke="var(--pageColor)" stroke-width="12"/>
<path d="M198.075 177.55C204.937 177.55 210.5 183.113 210.5 189.975C210.5 196.837 204.937 202.4 198.075 202.4H58.4248C51.5628 202.4 46 196.837 46 189.975C46.0002 183.113 51.5629 177.55 58.4248 177.55H198.075ZM198.075 121.55C204.937 121.55 210.5 127.113 210.5 133.975C210.5 140.837 204.937 146.4 198.075 146.4H58.4248C51.5628 146.4 46 140.837 46 133.975C46.0002 127.113 51.5629 121.55 58.4248 121.55H198.075ZM87.6504 54C102.35 54.0001 116.7 57.5001 131.75 64.5C146.45 71.15 159.4 74.6504 170.25 74.6504C176.985 74.6504 184.566 72.4281 192.179 68.2178C199.606 64.1107 210.5 68.7846 210.5 77.2715C210.5 79.6376 209.632 81.9405 207.94 83.5947C196.857 94.4316 183.431 99.8496 168.5 99.8496C154.15 99.8496 139.45 96.3496 124.4 89.3496C109.7 82.6996 96.7498 79.2002 85.5498 79.2002C79.3507 79.2002 72.0789 81.3446 64.5068 85.5742C56.954 89.7928 46.0001 85.0574 46 76.4062C46 73.9296 46.9264 71.5226 48.7188 69.8135C59.6788 59.3627 72.4732 54 87.6504 54Z" fill="var(--darkGray)"/>
<path d="M198.075 177.55C204.937 177.55 210.5 183.113 210.5 189.975C210.5 196.837 204.937 202.4 198.075 202.4H58.4248C51.5628 202.4 46 196.837 46 189.975C46.0002 183.113 51.5629 177.55 58.4248 177.55H198.075ZM198.075 121.55C204.937 121.55 210.5 127.113 210.5 133.975C210.5 140.837 204.937 146.4 198.075 146.4H58.4248C51.5628 146.4 46 140.837 46 133.975C46.0002 127.113 51.5629 121.55 58.4248 121.55H198.075ZM87.6504 54C102.35 54.0001 116.7 57.5001 131.75 64.5C146.45 71.15 159.4 74.6504 170.25 74.6504C176.985 74.6504 184.566 72.4281 192.179 68.2178C199.606 64.1107 210.5 68.7846 210.5 77.2715C210.5 79.6376 209.632 81.9405 207.94 83.5947C196.857 94.4316 183.431 99.8496 168.5 99.8496C154.15 99.8496 139.45 96.3496 124.4 89.3496C109.7 82.6996 96.7498 79.2002 85.5498 79.2002C79.3507 79.2002 72.0789 81.3446 64.5068 85.5742C56.954 89.7928 46.0001 85.0574 46 76.4062C46 73.9296 46.9264 71.5226 48.7188 69.8135C59.6788 59.3627 72.4732 54 87.6504 54Z" stroke="var(--darkGray)"/>
</g>
</svg>
