<svg viewBox="0 0 256 256" fill="none" xmlns="http://www.w3.org/2000/svg">
<mask id="mask0_71_356" style="mask-type:alpha" maskUnits="userSpaceOnUse" x="0" y="0" width="256" height="256">
<rect width="256" height="256" fill="var(--gray)"/>
</mask>
<g mask="url(#mask0_71_356)">
<path d="M207 134.43L201.938 136.894C198.397 138.616 194.525 141.777 190.256 146.171C186.014 150.537 181.948 155.508 177.698 160.58L175.001 163.8H142.296L147 151.569C147.792 149.51 148.636 147.52 149.529 145.6H49V111.2H149.701C148.821 109.265 147.986 107.275 147.2 105.23L142.496 93H174.964L177.66 96.1738C181.94 101.213 186.002 106.169 190.277 110.602C194.566 115.048 198.487 118.333 202.111 120.194L207 122.704V134.43Z" fill="var(--pageColor)" stroke="var(--pageColor)" stroke-width="18"/>
<path d="M201 131.677L199.312 132.498C190.124 136.968 181.455 146.754 173.1 156.727L172.2 157.8H151.032L152.6 153.723C153.803 150.593 155.118 147.659 156.547 144.924L157.166 143.764C157.913 142.335 158.704 140.948 159.536 139.6H55V117.2H159.658C158.867 115.905 158.102 114.585 157.366 113.236L157.354 113.212L157.34 113.188C155.684 110.013 154.171 106.642 152.8 103.077L151.231 99H172.188L173.087 100.058C177.269 104.982 181.512 110.157 185.959 114.768C190.411 119.383 194.873 123.222 199.37 125.531L201 126.368V131.677Z" fill="var(--darkGray)" stroke="var(--darkGray)" stroke-width="6"/>
</g>
</svg>
