<svg viewBox="0 0 1102 230" fill="none" xmlns="http://www.w3.org/2000/svg">
<path d="M101.3 166.3C94.4 166.3 87.8 165.05 81.5 162.55C75.2 160.05 69.6 156.5 64.7 151.9L74.9 140.05C78.6 143.35 82.8 146.05 87.5 148.15C92.2 150.15 97.15 151.15 102.35 151.15C108.05 151.15 112.4 150.05 115.4 147.85C118.4 145.55 119.9 142.7 119.9 139.3C119.9 136.4 119.2 134.1 117.8 132.4C116.4 130.6 114.45 129.1 111.95 127.9C109.55 126.7 106.7 125.45 103.4 124.15L90.05 118.3C86.65 116.9 83.3 115.1 80 112.9C76.8 110.7 74.15 107.9 72.05 104.5C70.05 101.1 69.05 97 69.05 92.2C69.05 87 70.5 82.35 73.4 78.25C76.3 74.05 80.3 70.75 85.4 68.35C90.6 65.85 96.5 64.6 103.1 64.6C109.1 64.6 114.8 65.75 120.2 68.05C125.7 70.25 130.5 73.25 134.6 77.05L125.6 88.15C122.3 85.45 118.8 83.4 115.1 82C111.5 80.5 107.2 79.75 102.2 79.75C97.6 79.75 93.85 80.75 90.95 82.75C88.05 84.75 86.6 87.6 86.6 91.3C86.6 93.8 87.4 95.85 89 97.45C90.6 99.05 92.65 100.45 95.15 101.65C97.75 102.85 100.5 104 103.4 105.1L116.3 110.65C120.5 112.25 124.2 114.2 127.4 116.5C130.6 118.8 133.1 121.65 134.9 125.05C136.7 128.35 137.6 132.4 137.6 137.2C137.6 142.5 136.15 147.35 133.25 151.75C130.35 156.15 126.2 159.7 120.8 162.4C115.4 165 108.9 166.3 101.3 166.3ZM190.941 166.3C184.441 166.3 178.391 164.8 172.791 161.8C167.191 158.7 162.641 154.3 159.141 148.6C155.641 142.8 153.891 135.85 153.891 127.75C153.891 119.55 155.641 112.6 159.141 106.9C162.641 101.1 167.191 96.7 172.791 93.7C178.391 90.6 184.441 89.05 190.941 89.05C197.441 89.05 203.491 90.6 209.091 93.7C214.691 96.7 219.241 101.1 222.741 106.9C226.241 112.6 227.991 119.55 227.991 127.75C227.991 135.85 226.241 142.8 222.741 148.6C219.241 154.3 214.691 158.7 209.091 161.8C203.491 164.8 197.441 166.3 190.941 166.3ZM190.941 152.2C194.941 152.2 198.391 151.2 201.291 149.2C204.191 147.2 206.391 144.35 207.891 140.65C209.391 136.95 210.141 132.65 210.141 127.75C210.141 122.85 209.391 118.55 207.891 114.85C206.391 111.15 204.191 108.3 201.291 106.3C198.391 104.2 194.941 103.15 190.941 103.15C186.941 103.15 183.491 104.2 180.591 106.3C177.791 108.3 175.591 111.15 173.991 114.85C172.491 118.55 171.741 122.85 171.741 127.75C171.741 132.65 172.491 136.95 173.991 140.65C175.591 144.35 177.791 147.2 180.591 149.2C183.491 151.2 186.941 152.2 190.941 152.2ZM270.983 166.3C262.383 166.3 256.133 163.7 252.233 158.5C248.333 153.3 246.383 145.95 246.383 136.45V90.85H263.633V134.2C263.633 140.1 264.633 144.45 266.633 147.25C268.733 150.05 272.333 151.45 277.433 151.45C280.833 151.45 283.933 150.65 286.733 149.05C289.633 147.35 292.683 144.5 295.883 140.5V90.85H313.133V164.5H299.033L297.683 152.8H297.083C293.583 156.8 289.733 160.05 285.533 162.55C281.333 165.05 276.483 166.3 270.983 166.3ZM345.324 164.5V90.85H359.574L361.074 107.5H361.524C365.224 101.5 369.774 96.95 375.174 93.85C380.674 90.65 386.574 89.05 392.874 89.05C395.874 89.05 398.474 89.3 400.674 89.8C402.874 90.3 405.024 91.05 407.124 92.05L403.524 106.6C401.124 105.8 398.974 105.25 397.074 104.95C395.274 104.55 392.974 104.35 390.174 104.35C385.174 104.35 380.274 105.8 375.474 108.7C370.774 111.6 366.524 116.65 362.724 123.85V164.5H345.324ZM467.366 166.3C459.666 166.3 452.716 164.8 446.516 161.8C440.416 158.7 435.566 154.3 431.966 148.6C428.466 142.8 426.716 135.85 426.716 127.75C426.716 119.55 428.616 112.6 432.416 106.9C436.316 101.1 441.466 96.7 447.866 93.7C454.266 90.6 461.166 89.05 468.566 89.05C474.566 89.05 479.866 90.05 484.466 92.05C489.066 93.95 492.866 96.4 495.866 99.4L487.616 110.2C484.716 107.9 481.766 106.15 478.766 104.95C475.866 103.75 472.766 103.15 469.466 103.15C464.566 103.15 460.216 104.2 456.416 106.3C452.716 108.3 449.816 111.15 447.716 114.85C445.616 118.55 444.566 122.85 444.566 127.75C444.566 132.65 445.566 136.95 447.566 140.65C449.666 144.35 452.516 147.2 456.116 149.2C459.816 151.2 464.116 152.2 469.016 152.2C473.216 152.2 477.066 151.4 480.566 149.8C484.066 148.2 487.216 146.3 490.016 144.1L497.216 155.2C493.016 158.8 488.316 161.55 483.116 163.45C477.916 165.35 472.666 166.3 467.366 166.3ZM555.207 166.3C547.707 166.3 540.907 164.8 534.807 161.8C528.707 158.7 523.857 154.3 520.257 148.6C516.657 142.8 514.857 135.8 514.857 127.6C514.857 119.6 516.657 112.75 520.257 107.05C523.857 101.25 528.557 96.8 534.357 93.7C540.157 90.6 546.357 89.05 552.957 89.05C560.257 89.05 566.407 90.55 571.407 93.55C576.507 96.55 580.357 100.7 582.957 106C585.657 111.2 587.007 117.2 587.007 124C587.007 125.7 586.907 127.35 586.707 128.95C586.607 130.45 586.457 131.7 586.257 132.7H527.307V120.4H575.157L571.857 124.3C571.857 117 570.207 111.55 566.907 107.95C563.707 104.25 559.207 102.4 553.407 102.4C549.307 102.4 545.607 103.35 542.307 105.25C539.107 107.15 536.557 110 534.657 113.8C532.757 117.5 531.807 122.1 531.807 127.6C531.807 133.3 532.857 138 534.957 141.7C537.157 145.4 540.157 148.2 543.957 150.1C547.857 152 552.357 152.95 557.457 152.95C561.357 152.95 564.957 152.4 568.257 151.3C571.557 150.2 574.857 148.7 578.157 146.8L584.007 157.6C580.107 160.1 575.707 162.2 570.807 163.9C565.907 165.5 560.707 166.3 555.207 166.3ZM738.69 166.3C732.59 166.3 726.84 165.2 721.44 163C716.14 160.8 711.44 157.55 707.34 153.25C703.34 148.95 700.19 143.65 697.89 137.35C695.69 131.05 694.59 123.85 694.59 115.75C694.59 105.05 696.54 95.9 700.44 88.3C704.44 80.6 709.84 74.75 716.64 70.75C723.54 66.65 731.29 64.6 739.89 64.6C745.99 64.6 751.44 65.85 756.24 68.35C761.04 70.85 764.94 73.7 767.94 76.9L758.34 87.7C755.94 85.2 753.24 83.25 750.24 81.85C747.24 80.45 743.79 79.75 739.89 79.75C734.49 79.75 729.69 81.2 725.49 84.1C721.39 86.9 718.19 90.95 715.89 96.25C713.59 101.55 712.44 107.9 712.44 115.3C712.44 122.7 713.59 129.1 715.89 134.5C718.19 139.9 721.44 144.05 725.64 146.95C729.84 149.75 734.74 151.15 740.34 151.15C744.44 151.15 748.09 150.3 751.29 148.6C754.49 146.8 757.49 144.4 760.29 141.4L769.89 152.05C765.99 156.65 761.44 160.2 756.24 162.7C751.04 165.1 745.19 166.3 738.69 166.3ZM820.531 166.3C814.031 166.3 807.981 164.8 802.381 161.8C796.781 158.7 792.231 154.3 788.731 148.6C785.231 142.8 783.481 135.85 783.481 127.75C783.481 119.55 785.231 112.6 788.731 106.9C792.231 101.1 796.781 96.7 802.381 93.7C807.981 90.6 814.031 89.05 820.531 89.05C827.031 89.05 833.081 90.6 838.681 93.7C844.281 96.7 848.831 101.1 852.331 106.9C855.831 112.6 857.581 119.55 857.581 127.75C857.581 135.85 855.831 142.8 852.331 148.6C848.831 154.3 844.281 158.7 838.681 161.8C833.081 164.8 827.031 166.3 820.531 166.3ZM820.531 152.2C824.531 152.2 827.981 151.2 830.881 149.2C833.781 147.2 835.981 144.35 837.481 140.65C838.981 136.95 839.731 132.65 839.731 127.75C839.731 122.85 838.981 118.55 837.481 114.85C835.981 111.15 833.781 108.3 830.881 106.3C827.981 104.2 824.531 103.15 820.531 103.15C816.531 103.15 813.081 104.2 810.181 106.3C807.381 108.3 805.181 111.15 803.581 114.85C802.081 118.55 801.331 122.85 801.331 127.75C801.331 132.65 802.081 136.95 803.581 140.65C805.181 144.35 807.381 147.2 810.181 149.2C813.081 151.2 816.531 152.2 820.531 152.2ZM904.923 166.3C895.523 166.3 887.923 162.9 882.123 156.1C876.323 149.3 873.423 139.85 873.423 127.75C873.423 119.75 874.973 112.85 878.073 107.05C881.173 101.25 885.223 96.8 890.223 93.7C895.223 90.6 900.473 89.05 905.973 89.05C910.173 89.05 913.873 89.8 917.073 91.3C920.373 92.8 923.423 94.95 926.223 97.75H926.673L925.773 85.3V58.6H943.173V164.5H928.923L927.573 155.95H927.123C924.323 158.75 920.973 161.2 917.073 163.3C913.173 165.3 909.123 166.3 904.923 166.3ZM909.123 152.05C912.123 152.05 915.023 151.35 917.823 149.95C920.623 148.45 923.273 146.2 925.773 143.2V110.05C923.173 107.55 920.573 105.8 917.973 104.8C915.373 103.8 912.723 103.3 910.023 103.3C906.623 103.3 903.473 104.25 900.573 106.15C897.773 108.05 895.523 110.8 893.823 114.4C892.123 118 891.273 122.4 891.273 127.6C891.273 135.5 892.823 141.55 895.923 145.75C899.123 149.95 903.523 152.05 909.123 152.05ZM1004.91 166.3C997.414 166.3 990.614 164.8 984.514 161.8C978.414 158.7 973.564 154.3 969.964 148.6C966.364 142.8 964.564 135.8 964.564 127.6C964.564 119.6 966.364 112.75 969.964 107.05C973.564 101.25 978.264 96.8 984.064 93.7C989.864 90.6 996.064 89.05 1002.66 89.05C1009.96 89.05 1016.11 90.55 1021.11 93.55C1026.21 96.55 1030.06 100.7 1032.66 106C1035.36 111.2 1036.71 117.2 1036.71 124C1036.71 125.7 1036.61 127.35 1036.41 128.95C1036.31 130.45 1036.16 131.7 1035.96 132.7H977.014V120.4H1024.86L1021.56 124.3C1021.56 117 1019.91 111.55 1016.61 107.95C1013.41 104.25 1008.91 102.4 1003.11 102.4C999.014 102.4 995.314 103.35 992.014 105.25C988.814 107.15 986.264 110 984.364 113.8C982.464 117.5 981.514 122.1 981.514 127.6C981.514 133.3 982.564 138 984.664 141.7C986.864 145.4 989.864 148.2 993.664 150.1C997.564 152 1002.06 152.95 1007.16 152.95C1011.06 152.95 1014.66 152.4 1017.96 151.3C1021.26 150.2 1024.56 148.7 1027.86 146.8L1033.71 157.6C1029.81 160.1 1025.41 162.2 1020.51 163.9C1015.61 165.5 1010.41 166.3 1004.91 166.3Z" fill="var(--darkGray)"/>
</svg>
