<svg viewBox="0 0 100 100" fill="none" xmlns="http://www.w3.org/2000/svg">
<rect width="100" height="100" rx="20" fill="black"/>
<path d="M50 15C30.6705 15 15 30.751 15 50.1799C15 67.8178 27.9261 82.3807 44.7691 84.9248V59.5042H36.1098V50.2567H44.7691V44.1034C44.7691 33.9156 49.7073 29.4429 58.1311 29.4429C62.1657 29.4429 64.2991 29.7436 65.3093 29.8811V37.9533H59.563C55.9866 37.9533 54.7377 41.3609 54.7377 45.2019V50.2567H65.2186L63.7964 59.5042H54.7377V85C71.8209 82.6701 85 67.9889 85 50.1799C85 30.751 69.3295 15 50 15Z" fill="white"/>
</svg>
