<svg viewBox="0 0 100 100" fill="none" xmlns="http://www.w3.org/2000/svg">
<rect width="100" height="100" rx="20" fill="black"/>
<path d="M35.5047 15.2448C31.7806 15.4205 29.2375 16.0148 27.0143 16.8884C24.7134 17.7851 22.7631 18.9884 20.8227 20.9358C18.8823 22.8833 17.6874 24.8349 16.797 27.1393C15.9353 29.3674 15.3515 31.9127 15.187 35.6388C15.0225 39.3649 14.9861 40.5626 15.0043 50.0673C15.0225 59.572 15.0645 60.7634 15.2451 64.4973C15.4229 68.2206 16.0151 70.763 16.8887 72.987C17.7868 75.2879 18.9887 77.2374 20.9368 79.1785C22.8849 81.1197 24.8352 82.3118 27.1452 83.2036C29.3712 84.0639 31.9171 84.6505 35.6426 84.8136C39.368 84.9767 40.5671 85.0145 50.069 84.9963C59.5709 84.9781 60.7672 84.9361 64.5004 84.759C68.2335 84.5819 70.7626 83.9855 72.9872 83.1161C75.2882 82.2159 77.2391 81.016 79.1788 79.0672C81.1185 77.1184 82.3127 75.1654 83.2024 72.8596C84.0649 70.6335 84.6508 68.0876 84.8125 64.365C84.9756 60.629 85.0141 59.4362 84.9959 49.9329C84.9777 40.4296 84.935 39.2382 84.7579 35.5058C84.5808 31.7734 83.9879 29.2386 83.1149 27.0133C82.2154 24.7124 81.0149 22.7643 79.0675 20.8217C77.1201 18.8792 75.1657 17.6857 72.8605 16.7981C70.6331 15.9364 68.0886 15.3491 64.3632 15.1881C60.6377 15.0271 59.4386 14.9858 49.9332 15.004C40.4278 15.0222 39.2378 15.0628 35.5047 15.2448ZM35.9135 78.517C32.5009 78.3686 30.648 77.8016 29.4132 77.327C27.778 76.697 26.6132 75.9354 25.3826 74.7167C24.1519 73.498 23.3959 72.329 22.7575 70.6972C22.278 69.4624 21.7005 67.6116 21.5409 64.1991C21.3673 60.5107 21.3309 59.4033 21.3106 50.0589C21.2903 40.7145 21.326 39.6085 21.4877 35.9188C21.6333 32.5091 22.2038 30.654 22.6777 29.4199C23.3077 27.7826 24.0665 26.6199 25.2881 25.39C26.5096 24.1601 27.6751 23.4027 29.3082 22.7643C30.5416 22.2827 32.3924 21.71 35.8036 21.5476C39.4947 21.3726 40.6007 21.3376 49.9437 21.3173C59.2867 21.297 60.3955 21.332 64.0881 21.4944C67.4978 21.6428 69.3535 22.2078 70.5862 22.6845C72.2221 23.3145 73.3862 24.0712 74.6162 25.2948C75.8461 26.5184 76.6042 27.6797 77.2426 29.3163C77.7249 30.5462 78.2975 32.3964 78.4585 35.8096C78.6342 39.5007 78.6741 40.6074 78.6909 49.9497C78.7077 59.292 78.6748 60.4015 78.5131 64.0899C78.364 67.5024 77.7984 69.356 77.3231 70.5922C76.6931 72.2268 75.9336 73.3923 74.7114 74.6215C73.4891 75.8507 72.325 76.6081 70.6912 77.2465C69.4592 77.7274 67.6063 78.3014 64.198 78.4638C60.5068 78.6374 59.4008 78.6738 50.0543 78.6941C40.7078 78.7144 39.6053 78.6766 35.9142 78.517M64.4465 31.2938C64.4478 32.1246 64.6956 32.9363 65.1583 33.6262C65.621 34.3162 66.2779 34.8534 67.046 35.17C67.8141 35.4865 68.6588 35.5682 69.4733 35.4047C70.2878 35.2412 71.0355 34.8398 71.6218 34.2513C72.2082 33.6628 72.6068 32.9136 72.7674 32.0985C72.9279 31.2834 72.8431 30.439 72.5237 29.6721C72.2044 28.9052 71.6647 28.2503 70.9731 27.7901C70.2814 27.3299 69.4688 27.0851 68.6381 27.0868C67.5244 27.089 66.4572 27.5335 65.6712 28.3224C64.8851 29.1113 64.4446 30.1802 64.4465 31.2938ZM32.0291 50.0351C32.0487 59.9612 40.11 67.9896 50.034 67.9707C59.958 67.9518 67.992 59.8912 67.9731 49.9651C67.9542 40.039 59.8908 32.0086 49.9654 32.0282C40.04 32.0478 32.0102 40.1104 32.0291 50.0351ZM38.3334 50.0225C38.3288 47.715 39.0086 45.458 40.2868 43.5368C41.565 41.6157 43.3842 40.1167 45.5143 39.2294C47.6444 38.3421 49.9898 38.1064 52.2539 38.5521C54.5179 38.9978 56.599 40.1049 58.2339 41.7333C59.8688 43.3617 60.984 45.4384 61.4387 47.7007C61.8934 49.963 61.667 52.3093 60.7881 54.4429C59.9093 56.5765 58.4175 58.4016 56.5014 59.6874C54.5854 60.9732 52.331 61.6619 50.0235 61.6665C48.4913 61.6697 46.9735 61.371 45.5568 60.7876C44.14 60.2041 42.8521 59.3473 41.7665 58.266C40.6809 57.1847 39.819 55.9002 39.23 54.4858C38.6409 53.0713 38.3362 51.5547 38.3334 50.0225Z" fill="white"/>
</svg>
