<svg viewBox="0 0 100 100" fill="none" xmlns="http://www.w3.org/2000/svg">
<rect width="100" height="100" rx="20" fill="black"/>
<path d="M79.6943 15.334C82.3506 15.334 84.6943 17.6777 84.6943 20.4902V80.334C84.6943 83.1465 82.3506 85.334 79.6943 85.334H19.5381C16.8818 85.334 14.6943 83.1465 14.6943 80.334V20.4902C14.6943 17.6777 16.8818 15.334 19.5381 15.334H79.6943ZM35.7881 75.334V42.0527H25.4756V75.334H35.7881ZM30.6318 37.3652C33.9131 37.3652 36.5693 34.709 36.5693 31.4277C36.5693 28.1465 33.9131 25.334 30.6318 25.334C27.1943 25.334 24.5381 28.1465 24.5381 31.4277C24.5381 34.709 27.1943 37.3652 30.6318 37.3652ZM74.6943 75.334V57.0527C74.6943 48.1465 72.6631 41.1152 62.1943 41.1152C57.1943 41.1152 53.7568 43.9277 52.3506 46.584H52.1943V42.0527H42.3506V75.334H52.6631V58.9277C52.6631 54.5527 53.4443 50.334 58.9131 50.334C64.2256 50.334 64.2256 55.334 64.2256 59.084V75.334H74.6943Z" fill="white"/>
</svg>
