<svg viewBox="0 0 100 100" fill="none" xmlns="http://www.w3.org/2000/svg">
<rect width="100" height="100" rx="20" fill="black"/>
<path d="M83.4644 32.7839C85 38.1432 85 49.6276 85 49.6276C85 49.6276 85 60.9844 83.4644 66.4714C82.6965 69.5339 80.2651 71.8307 77.3218 72.5964C71.819 74 50.064 74 50.064 74C50.064 74 28.181 74 22.6782 72.5964C19.7349 71.8307 17.3035 69.5339 16.5356 66.4714C15 60.9844 15 49.6276 15 49.6276C15 49.6276 15 38.1432 16.5356 32.7839C17.3035 29.7214 19.7349 27.2969 22.6782 26.5312C28.181 25 50.064 25 50.064 25C50.064 25 71.819 25 77.3218 26.5312C80.2651 27.2969 82.6965 29.7214 83.4644 32.7839ZM42.8976 59.9635L61.0695 49.6276L42.8976 39.2917V59.9635Z" fill="white"/>
</svg>
