<svg viewBox="0 0 256 256" fill="none" xmlns="http://www.w3.org/2000/svg">
<g clip-path="url(#clip0_4657_2)">
<rect width="256" height="256" rx="128" fill="var(--error)" fill-opacity="0.25"/>
<path d="M110.406 152.8L101.526 46H155.766L146.646 152.8H110.406ZM128.646 216.16C120.646 216.16 114.086 213.68 108.966 208.72C103.846 203.76 101.286 197.84 101.286 190.96C101.286 183.92 103.846 178.08 108.966 173.44C114.086 168.64 120.646 166.24 128.646 166.24C136.646 166.24 143.126 168.64 148.086 173.44C153.206 178.08 155.766 183.92 155.766 190.96C155.766 197.84 153.206 203.76 148.086 208.72C143.126 213.68 136.646 216.16 128.646 216.16Z" fill="var(--error)"/>
</g>
<defs>
<clipPath id="clip0_4657_2">
<rect width="256" height="256" fill="var(--pageColor)"/>
</clipPath>
</defs>
</svg>
