<svg viewBox="0 0 256 256" fill="none" xmlns="http://www.w3.org/2000/svg">
<mask id="mask0_69_276" style="mask-type:alpha" maskUnits="userSpaceOnUse" x="0" y="0" width="256" height="256">
<rect width="256" height="256" fill="var(--gray)"/>
</mask>
<g mask="url(#mask0_69_276)">
<path d="M88 133.95C101.853 133.95 113.883 136.153 134.527 144.775L136.553 145.631L136.579 145.642L136.604 145.653C152.963 152.81 161.915 154.6 170.6 154.6C176.373 154.6 182.942 152.572 189.587 148.895C195.221 145.777 201.867 146.12 207.011 148.545C212.204 150.993 216.85 156.105 216.85 163.236C216.85 167.026 215.461 170.921 212.512 173.818C200.681 185.44 186.035 191.8 168.85 191.8C154.569 191.8 141.855 189.461 120.265 180.105L120.255 180.102L120.245 180.097C103.902 172.947 94.9469 171.15 85.9004 171.15C80.5777 171.15 74.1668 173.116 67.5342 176.754C61.8365 179.878 55.122 179.502 49.9326 177.043C44.697 174.562 40 169.403 40 162.211C40 158.394 41.3982 154.46 44.3887 151.539C56.2698 139.935 70.9196 133.95 88 133.95ZM88 65C101.853 65 113.883 67.2038 134.527 75.8262L136.553 76.6807L136.579 76.6914L136.604 76.7031C152.963 83.86 161.915 85.6503 170.6 85.6504C176.373 85.6504 182.942 83.6222 189.587 79.9453C195.221 76.8274 201.867 77.1702 207.011 79.5947C212.204 82.0427 216.849 87.1546 216.85 94.2861C216.85 98.0763 215.461 101.971 212.512 104.868C200.681 116.49 186.035 122.85 168.85 122.85C154.569 122.85 141.855 120.511 120.265 111.155L120.255 111.151L120.245 111.146C103.902 103.997 94.9469 102.2 85.9004 102.2C80.5777 102.2 74.1668 104.166 67.5342 107.804C61.8365 110.928 55.122 110.551 49.9326 108.093C44.697 105.612 40 100.453 40 93.2607C40.0001 89.4438 41.3982 85.5096 44.3887 82.5889C56.2697 70.9851 70.9197 65 88 65Z" fill="var(--pageColor)" stroke="var(--pageColor)" stroke-width="12"/>
<path d="M64.6494 102.543C57.1202 106.672 46 101.848 46 93.2611C46 90.8739 46.8727 88.5494 48.5805 86.8813C59.3266 76.386 72.4664 71 88 71C101.3 71 112.85 73.1 134.2 82.2C151 89.55 160.8 91.65 170.6 91.65C177.703 91.65 185.28 89.1858 192.492 85.1946C199.91 81.0901 210.85 85.8093 210.85 94.2864C210.85 96.6431 209.988 98.9365 208.306 100.588C197.554 111.152 184.401 116.85 168.85 116.85C155.55 116.85 143.65 114.75 122.65 105.65C105.85 98.3 96.05 96.2 85.9 96.2C79.2249 96.2 71.8058 98.6178 64.6494 102.543ZM64.6494 171.493C57.1202 175.622 46 170.798 46 162.211C46 159.824 46.8727 157.499 48.5805 155.831C59.3266 145.336 72.4664 139.95 88 139.95C101.3 139.95 112.85 142.05 134.2 151.15C151 158.5 160.8 160.6 170.6 160.6C177.703 160.6 185.28 158.136 192.492 154.145C199.91 150.04 210.85 154.759 210.85 163.236C210.85 165.593 209.988 167.886 208.306 169.538C197.554 180.102 184.401 185.8 168.85 185.8C155.55 185.8 143.65 183.7 122.65 174.6C105.85 167.25 96.05 165.15 85.9 165.15C79.2249 165.15 71.8058 167.568 64.6494 171.493Z" fill="var(--darkGray)"/>
</g>
</svg>
