<svg viewBox="0 0 256 256" fill="none" xmlns="http://www.w3.org/2000/svg">
<mask id="mask0_4272_228" style="mask-type:alpha" maskUnits="userSpaceOnUse" x="0" y="0" width="256" height="256">
<rect width="256" height="256" fill="var(--gray)"/>
</mask>
<g mask="url(#mask0_4272_228)">
<rect x="86.4941" y="171" width="130" height="34" rx="17" fill="var(--darkGray)" stroke="var(--pageColor)" stroke-width="12"/>
<rect x="86.4941" y="111" width="130" height="34" rx="17" fill="var(--darkGray)" stroke="var(--pageColor)" stroke-width="12"/>
<rect x="86.4941" y="51" width="130" height="34" rx="17" fill="var(--darkGray)" stroke="var(--pageColor)" stroke-width="12"/>
<path d="M65.4702 169.4C69.3362 169.4 72.4702 172.534 72.4702 176.4V180.503C72.4702 182.111 71.9156 183.663 70.9126 184.903C71.7254 185.891 72.3763 186.967 72.8608 188.116C75.6461 187.597 78.6183 188.328 80.8774 190.311L81.229 190.636L81.5776 190.991C85.0575 194.732 84.9643 200.606 81.2817 204.232C77.7459 207.715 72.1672 207.867 68.4497 204.694C67.4839 205.462 66.4302 206.114 65.3228 206.66L65.3218 206.659C62.4424 208.091 59.1367 208.608 55.7544 208.608C53.4828 208.608 51.2079 208.356 48.938 207.865C47.0325 207.453 45.2146 206.863 43.52 206.059C39.8628 204.324 38.7138 200.104 40.2026 196.865L42.396 192.093L42.5698 191.74C43.4095 190.142 44.7305 189.058 46.2202 188.488V188.021C43.032 187.368 40.6343 184.546 40.6343 181.164V176.4C40.6343 172.534 43.7683 169.4 47.6343 169.4H65.4702ZM76.3618 195.683C75.6707 195.002 74.6825 194.808 73.8198 195.097C73.6576 196.49 73.2855 197.827 72.731 199.096C72.7769 199.148 72.8244 199.2 72.8755 199.25C73.8429 200.188 75.3807 200.188 76.3481 199.25C77.353 198.275 77.3592 196.665 76.3618 195.683Z" fill="var(--pageColor)" stroke="var(--pageColor)" stroke-width="12"/>
<path d="M55.7541 202.608C53.9301 202.608 52.0808 202.405 50.2061 202C48.3315 201.595 46.6848 200.999 45.2661 200.214L48.3061 193.602C49.4461 194.261 50.6368 194.755 51.8781 195.084C53.1448 195.388 54.3355 195.54 55.4501 195.54C56.4635 195.54 57.2868 195.375 57.9201 195.046C58.5788 194.691 58.9081 194.172 58.9081 193.488C58.9081 192.905 58.6675 192.462 58.1861 192.158C57.7048 191.829 56.8941 191.664 55.7541 191.664H52.2201V186.154L59.0981 179.162L59.8961 182.164H46.6341V175.4H66.4701V180.91L59.5921 187.902L55.2981 185.47H57.6541C60.9981 185.47 63.5441 186.217 65.2921 187.712C67.0401 189.207 67.9141 191.132 67.9141 193.488C67.9141 195.008 67.4835 196.465 66.6221 197.858C65.7861 199.251 64.4688 200.391 62.6701 201.278C60.8968 202.165 58.5915 202.608 55.7541 202.608ZM74.6119 202.38C73.1933 202.38 72.0026 201.924 71.0399 201.012C70.0773 200.075 69.5959 198.884 69.5959 197.44C69.5959 195.971 70.0773 194.793 71.0399 193.906C72.0026 193.019 73.1933 192.576 74.6119 192.576C76.0306 192.576 77.2213 193.019 78.1839 193.906C79.1466 194.793 79.6279 195.971 79.6279 197.44C79.6279 198.884 79.1466 200.075 78.1839 201.012C77.2213 201.924 76.0306 202.38 74.6119 202.38Z" fill="var(--darkGray)"/>
<path d="M56.5137 108.792C59.2643 108.792 61.9441 109.24 64.4326 110.29C66.9063 111.334 69.0956 112.921 70.7354 115.153C72.4813 117.53 73.2676 120.276 73.2676 123.114C73.2676 124.456 73.0943 125.778 72.7656 127.071C72.6714 127.472 72.5566 127.863 72.4248 128.245C75.3731 127.501 78.6074 128.188 81.0254 130.311L81.3779 130.635L81.7256 130.99C85.2059 134.731 85.1134 140.605 81.4307 144.232C78.7028 146.919 74.7582 147.622 71.3906 146.348C70.1717 147.378 68.5969 148 66.876 148H47.5576C43.6918 148 40.5576 144.866 40.5576 141V136.927C40.5578 134.976 41.3723 133.113 42.8047 131.788L46.4746 128.393L43.2314 126.771C39.8763 125.094 38.0112 120.574 40.5029 116.776L40.7871 116.357C42.2346 114.291 44.1023 112.626 46.2754 111.339C49.3508 109.518 52.871 108.792 56.5137 108.792ZM76.4951 135.669C75.7637 134.96 74.7068 134.787 73.8164 135.15C73.8539 135.444 73.876 135.742 73.876 136.046V139.79C74.7539 140.123 75.7805 139.944 76.4961 139.25C77.4383 138.336 77.5029 136.864 76.6855 135.874L76.5107 135.683L76.4951 135.669Z" fill="var(--pageColor)" stroke="var(--pageColor)" stroke-width="12"/>
<path d="M46.5581 142V136.49L56.1721 127.598C56.7801 127.015 57.2235 126.509 57.5021 126.078C57.8061 125.647 58.0088 125.267 58.1101 124.938C58.2115 124.583 58.2621 124.254 58.2621 123.95C58.2621 123.291 58.0468 122.785 57.6161 122.43C57.1855 122.05 56.5395 121.86 55.6781 121.86C54.8928 121.86 54.1455 122.075 53.4361 122.506C52.7268 122.911 52.1695 123.519 51.7641 124.33L45.0001 120.948C45.9628 119.124 47.4068 117.642 49.3321 116.502C51.2575 115.362 53.6515 114.792 56.5141 114.792C58.6168 114.792 60.4788 115.134 62.1001 115.818C63.7215 116.502 64.9881 117.465 65.9001 118.706C66.8121 119.947 67.2681 121.417 67.2681 123.114C67.2681 123.975 67.1541 124.837 66.9261 125.698C66.7235 126.559 66.2928 127.471 65.6341 128.434C64.9755 129.371 64.0001 130.423 62.7081 131.588L55.4881 138.162L54.0821 135.046H67.8761V142H46.5581ZM74.7604 142.38C73.3417 142.38 72.151 141.924 71.1884 141.012C70.2257 140.075 69.7444 138.884 69.7444 137.44C69.7444 135.971 70.2257 134.793 71.1884 133.906C72.151 133.019 73.3417 132.576 74.7604 132.576C76.179 132.576 77.3697 133.019 78.3324 133.906C79.295 134.793 79.7764 135.971 79.7764 137.44C79.7764 138.884 79.295 140.075 78.3324 141.012C77.3697 141.924 76.179 142.38 74.7604 142.38Z" fill="var(--darkGray)"/>
<path d="M65.2124 49.4004C69.0783 49.4006 72.2124 52.5345 72.2124 56.4004V68.1553C75.0519 67.5656 78.108 68.2825 80.4185 70.3105L80.77 70.6357L81.1187 70.9912C84.5985 74.7317 84.5053 80.6056 80.8228 84.2324C77.8982 87.1126 73.5761 87.7137 70.0649 86.041C68.8065 87.2529 67.0975 87.9999 65.2124 88H58.2437C54.3779 87.9998 51.2437 84.8659 51.2437 81V67.7256C48.5812 66.7349 46.6841 64.1715 46.6841 61.1641V56.4004C46.6841 52.5344 49.8181 49.4004 53.6841 49.4004H65.2124ZM75.9028 75.6826C74.9364 74.731 73.3882 74.727 72.4165 75.6699L72.4028 75.6826C72.3345 75.7499 72.2713 75.8208 72.2124 75.8936V79.0234C72.2756 79.1016 72.3425 79.1782 72.4165 79.25C73.384 80.1881 74.9217 80.1881 75.8892 79.25C76.894 78.2754 76.9002 76.6649 75.9028 75.6826Z" fill="var(--pageColor)" stroke="var(--pageColor)" stroke-width="12"/>
<path d="M57.2441 82V58.516L61.0821 62.164H52.6841V55.4H66.2121V82H57.2441ZM74.153 82.38C72.7343 82.38 71.5436 81.924 70.581 81.012C69.6183 80.0747 69.137 78.884 69.137 77.44C69.137 75.9707 69.6183 74.7927 70.581 73.906C71.5436 73.0193 72.7343 72.576 74.153 72.576C75.5716 72.576 76.7623 73.0193 77.725 73.906C78.6876 74.7927 79.169 75.9707 79.169 77.44C79.169 78.884 78.6876 80.0747 77.725 81.012C76.7623 81.924 75.5716 82.38 74.153 82.38Z" fill="var(--darkGray)"/>
</g>
</svg>
