<svg viewBox="0 0 256 256" fill="none" xmlns="http://www.w3.org/2000/svg">
<path fill-rule="evenodd" clip-rule="evenodd" d="M153.223 43.7913L143.257 53.7574C140.914 56.1005 140.914 59.8995 143.257 62.2426C145.6 64.5858 149.399 64.5858 151.742 62.2426L163.807 50.1782C169.828 55.2802 174.308 62.2312 176.328 70.3141C177.685 75.742 173.58 81 167.985 81H89.0145C83.4195 81 79.3142 75.742 80.6712 70.3141C82.6616 62.3523 87.0382 55.4887 92.9231 50.4087L104.757 62.2426C107.1 64.5858 110.899 64.5858 113.242 62.2426C115.585 59.8995 115.585 56.1005 113.242 53.7574L103.421 43.9363C108.008 42.0369 113.014 41 118.216 41H138.783C143.851 41 148.733 41.9842 153.223 43.7913Z" fill="var(--theme)"/>
<path d="M39.5 77L50.3759 95.8516C53.0173 100.43 57.3636 103.777 62.465 105.16L84 111" stroke="var(--theme)" stroke-width="22" stroke-linecap="round"/>
<path d="M30 144H53H84" stroke="var(--theme)" stroke-width="22" stroke-linecap="round"/>
<path d="M32 195L47.3827 181.815C51.0075 178.708 55.6243 177 60.3985 177H84.5" stroke="var(--theme)" stroke-width="22" stroke-linecap="round"/>
<path d="M217 77L206.124 95.8516C203.483 100.43 199.136 103.777 194.035 105.16L172.5 111" stroke="var(--theme)" stroke-width="22" stroke-linecap="round"/>
<path d="M226.5 144H203.5H172.5" stroke="var(--theme)" stroke-width="22" stroke-linecap="round"/>
<path d="M224.5 195L209.117 181.815C205.492 178.708 200.876 177 196.102 177H172" stroke="var(--theme)" stroke-width="22" stroke-linecap="round"/>
<path fill-rule="evenodd" clip-rule="evenodd" d="M90 86C83.3726 86 78 91.3726 78 98V166C78 191.415 97.3849 212.4 122 215.583V123C122 119.686 124.686 117 128 117C131.314 117 134 119.686 134 123V215.702C159.088 212.966 179 191.758 179 166V98C179 91.3726 173.627 86 167 86H90Z" fill="var(--theme)"/>
</svg>
