<svg viewBox="0 0 360 500" fill="none" xmlns="http://www.w3.org/2000/svg">
<mask id="mask0_1298_125" style="mask-type:alpha" maskUnits="userSpaceOnUse" x="0" y="0" width="360" height="500">
<rect width="360" height="500" fill="#D9D9D9"/>
</mask>
<g mask="url(#mask0_1298_125)">
<path d="M293.86 47.2256V47.2256C304.999 62.5567 326.457 65.9553 341.788 54.8166V54.8166" stroke="#20BA6C" stroke-width="6" stroke-linecap="round"/>
<path d="M311.427 20.3252L309.766 30.8094" stroke="#20BA6C" stroke-width="6" stroke-linecap="round"/>
<path d="M332.395 23.6465L330.734 34.1307" stroke="#20BA6C" stroke-width="6" stroke-linecap="round"/>
<g filter="url(#filter0_d_1298_125)">
<path d="M341.631 42.2186L340.692 41.8766L340.35 42.8163L337.516 50.6032C336.571 53.1976 336.87 56.0818 338.326 58.4275L338.668 58.9791C339.155 59.7631 340.115 60.1125 340.991 59.8247L341.608 59.6222C344.231 58.7611 346.314 56.7437 347.258 54.1493L350.093 46.3624L350.435 45.4227L349.495 45.0807L341.631 42.2186Z" fill="#20BA6C" stroke="white" stroke-width="2"/>
<path d="M346.508 53.2844L347.447 53.6264L347.789 52.6867L353.085 38.1356C354.065 35.4452 352.678 32.4704 349.987 31.4911C347.297 30.5119 344.322 31.8991 343.343 34.5895L338.046 49.1406L337.704 50.0803L338.644 50.4224L346.508 53.2844Z" fill="#2F2F2F" stroke="white" stroke-width="2"/>
</g>
<path d="M-3.37028 95.8966L4.6109 94.0328C10.1774 92.7328 15.3003 89.9817 19.4585 86.0593L26.7427 79.1882C29.4587 76.6262 30.8307 72.9481 30.4561 69.2332L30.2894 67.5805C29.648 61.2193 23.5509 56.8787 17.3301 58.3548V58.3548C10.5346 59.9671 7.1422 67.6088 10.5043 73.7305L15.4038 82.6512C20.4561 91.8503 32.1883 94.9333 41.1104 89.4066L42.3227 88.6556C46.7558 85.9096 49.9173 81.5159 51.1127 76.4401L51.5693 74.5012C52.9984 68.4332 52.0593 62.0487 48.9435 56.6492L41.44 43.6462" stroke="#20BA6C" stroke-width="6" stroke-linecap="round"/>
<g filter="url(#filter1_d_1298_125)">
<path d="M41.6315 29.2186L40.6918 28.8766L40.3498 29.8163L37.5155 37.6032C36.5713 40.1976 36.87 43.0818 38.3259 45.4275L38.6683 45.9791C39.1549 46.7631 40.1147 47.1125 40.9914 46.8247L41.6082 46.6222C44.2313 45.7611 46.3141 43.7437 47.2584 41.1493L50.0926 33.3624L50.4346 32.4227L49.4949 32.0807L41.6315 29.2186Z" fill="#20BA6C" stroke="white" stroke-width="2"/>
<path d="M46.5076 40.2844L47.4473 40.6264L47.7893 39.6867L53.0855 25.1356C54.0647 22.4452 52.6775 19.4704 49.9871 18.4911C47.2967 17.5119 44.3219 18.8991 43.3427 21.5895L38.0465 36.1406L37.7045 37.0803L38.6441 37.4224L46.5076 40.2844Z" fill="#2F2F2F" stroke="white" stroke-width="2"/>
</g>
<path d="M-2 468.21C-0.0699701 469.941 2.9302 470.998 5.35781 471.784C7.81637 472.58 10.3382 472.971 12.8761 473.463C19.186 474.685 28.5063 476.38 34.7376 473.977C37.8829 472.764 39.356 471.798 41.803 469.462C43.1482 468.177 44.9399 465.955 45.0035 464.054C45.0672 462.149 45.2098 460.248 45.2098 458.322C45.2098 456.644 44.4639 455.184 43.9262 453.618C43.6489 452.81 42.69 452.126 42.1612 451.448C41.4029 450.477 40.3136 449.26 39.3419 448.525C37.9701 447.489 35.3094 445.013 33.4825 445.013C30.9084 445.013 28.1049 444.815 25.7236 445.95C23.9119 446.813 20.5144 449.225 19.2683 450.855C18.0409 452.46 17.0227 454.095 15.8759 455.764C14.4639 457.821 15.028 459.98 15.3401 462.467C15.4787 463.572 16.1755 464.461 16.5206 465.493C16.989 466.893 18.3256 468.073 19.2024 469.238C20.4788 470.934 22.3541 472.527 24.1993 473.554C25.7946 474.442 27.314 475.443 28.9097 476.317C29.9596 476.893 31.0929 477.393 32.1416 477.973C33.4582 478.702 36.4257 478.97 37.8978 479.206C40.0122 479.546 43.2091 479.337 45.3617 479.337C48.6013 479.337 51.9281 481.814 54.3699 483.899C56.687 485.878 57 488.446 57 491.641C57 493.443 56.8143 494.774 56.0144 496.368C55.5168 497.359 55.3138 498.339 54.364 499.04C53.5285 499.656 52.5206 500.785 51.8656 501.586C50.6366 503.089 49.1381 503.976 47.5105 505" stroke="#20BA6C" stroke-width="6" stroke-linecap="round"/>
<path d="M338.164 505.495C336.278 505.495 334.651 504.557 332.988 503.797C330.891 502.839 328.707 501.377 327.016 499.816C324.571 497.559 322.329 495.102 320.552 492.31C319.39 490.484 319.193 488.115 319.193 485.998C319.193 482.048 319.376 478.439 321.313 474.85C322.7 472.28 325.14 468.578 328 467.5C330.93 466.395 333.135 465.704 336.267 465.704C339.597 465.704 343.324 468.285 344.066 471.992C344.649 474.909 344.747 477.828 343 480.5C341.955 482.098 338.015 484.063 336.267 484.5C334.495 484.943 331.095 484.212 329.264 483.785C326.886 483.23 326.148 481.103 324.627 479.147C323.143 477.24 321.328 474.801 320.681 472.426C320.078 470.217 319.615 467.988 319.615 465.704C319.615 463.205 320.494 460.739 321.816 458.661C322.644 457.361 323.77 456.296 324.931 455.289C326.419 454 327.707 452.581 329.264 451.378C330.762 450.22 333.595 448.707 335.264 447.848C337.664 446.614 340.337 445.739 342.864 444.78C346.536 443.387 349.958 443.211 353.849 443.211C356.139 443.211 357.638 443.36 359.875 443.843C361.329 444.158 362.812 444.476 364.301 444.476" stroke="#20BA6C" stroke-width="6" stroke-linecap="round"/>
</g>
<defs>
<filter id="filter0_d_1298_125" x="331.973" y="26.1768" width="26.4268" height="38.748" filterUnits="userSpaceOnUse" color-interpolation-filters="sRGB">
<feFlood flood-opacity="0" result="BackgroundImageFix"/>
<feColorMatrix in="SourceAlpha" type="matrix" values="0 0 0 0 0 0 0 0 0 0 0 0 0 0 0 0 0 0 127 0" result="hardAlpha"/>
<feOffset/>
<feGaussianBlur stdDeviation="2"/>
<feComposite in2="hardAlpha" operator="out"/>
<feColorMatrix type="matrix" values="0 0 0 0 0 0 0 0 0 0 0 0 0 0 0 0 0 0 0.25 0"/>
<feBlend mode="normal" in2="BackgroundImageFix" result="effect1_dropShadow_1298_125"/>
<feBlend mode="normal" in="SourceGraphic" in2="effect1_dropShadow_1298_125" result="shape"/>
</filter>
<filter id="filter1_d_1298_125" x="31.9727" y="13.1768" width="26.4268" height="38.748" filterUnits="userSpaceOnUse" color-interpolation-filters="sRGB">
<feFlood flood-opacity="0" result="BackgroundImageFix"/>
<feColorMatrix in="SourceAlpha" type="matrix" values="0 0 0 0 0 0 0 0 0 0 0 0 0 0 0 0 0 0 127 0" result="hardAlpha"/>
<feOffset/>
<feGaussianBlur stdDeviation="2"/>
<feComposite in2="hardAlpha" operator="out"/>
<feColorMatrix type="matrix" values="0 0 0 0 0 0 0 0 0 0 0 0 0 0 0 0 0 0 0.25 0"/>
<feBlend mode="normal" in2="BackgroundImageFix" result="effect1_dropShadow_1298_125"/>
<feBlend mode="normal" in="SourceGraphic" in2="effect1_dropShadow_1298_125" result="shape"/>
</filter>
</defs>
</svg>
