<svg width="512" height="512" viewBox="0 0 512 512" fill="none" xmlns="http://www.w3.org/2000/svg">
<path d="M118 28C68.2944 28 28 68.2944 28 118C28 167.706 68.2944 208 118 208H172C191.882 208 208 191.882 208 172V118C208 68.2944 167.706 28 118 28Z" stroke="#FF4C6C" stroke-width="56"/>
<path d="M394 28C344.294 28 304 68.2944 304 118V172C304 191.882 320.118 208 340 208H394C443.706 208 484 167.706 484 118C484 68.2944 443.706 28 394 28Z" stroke="#FF4C6C" stroke-width="56"/>
<path d="M118 304C68.2944 304 28 344.294 28 394C28 443.706 68.2944 484 118 484C167.706 484 208 443.706 208 394V340C208 320.118 191.882 304 172 304H118Z" stroke="#FF4C6C" stroke-width="56"/>
<path d="M340 304C320.118 304 304 320.118 304 340V394C304 443.706 344.294 484 394 484C443.706 484 484 443.706 484 394C484 344.294 443.706 304 394 304H340Z" stroke="#FF4C6C" stroke-width="56"/>
</svg>
