<svg width="1281" height="332" viewBox="0 0 1281 332" fill="none" xmlns="http://www.w3.org/2000/svg">
<path d="M95.9219 50.2188C70.6807 50.2188 50.2188 70.6807 50.2188 95.9219C50.2188 121.163 70.6807 141.625 95.9219 141.625H123.344C133.44 141.625 141.625 133.44 141.625 123.344V95.9219C141.625 70.6807 121.163 50.2188 95.9219 50.2188Z" stroke="#FF4C6C" stroke-width="28.4375"/>
<path d="M236.078 50.2188C210.837 50.2188 190.375 70.6807 190.375 95.9219V123.344C190.375 133.44 198.56 141.625 208.656 141.625H236.078C261.319 141.625 281.781 121.163 281.781 95.9219C281.781 70.6807 261.319 50.2188 236.078 50.2188Z" stroke="#FF4C6C" stroke-width="28.4375"/>
<path d="M95.9219 190.375C70.6807 190.375 50.2188 210.837 50.2188 236.078C50.2188 261.319 70.6807 281.781 95.9219 281.781C121.163 281.781 141.625 261.319 141.625 236.078V208.656C141.625 198.56 133.44 190.375 123.344 190.375H95.9219Z" stroke="#FF4C6C" stroke-width="28.4375"/>
<path d="M208.656 190.375C198.56 190.375 190.375 198.56 190.375 208.656V236.078C190.375 261.319 210.837 281.781 236.078 281.781C261.319 281.781 281.781 261.319 281.781 236.078C281.781 210.837 261.319 190.375 236.078 190.375H208.656Z" stroke="#FF4C6C" stroke-width="28.4375"/>
<path d="M363.1 236V96H415.2C429.2 96 440.4 99 448.8 105C457.267 110.933 461.5 119.733 461.5 131.4C461.5 135.733 460.567 139.767 458.7 143.5C456.833 147.233 454.367 150.533 451.3 153.4C448.233 156.2 444.867 158.4 441.2 160C448.8 162.533 454.967 166.9 459.7 173.1C464.5 179.3 466.9 186.767 466.9 195.5C466.9 203.633 464.867 210.733 460.8 216.8C456.733 222.867 450.967 227.6 443.5 231C436.033 234.333 427.133 236 416.8 236H363.1ZM392.7 213.8H412.4C420.4 213.8 426.367 212.2 430.3 209C434.233 205.8 436.2 200.967 436.2 194.5C436.2 188.233 434.267 183.433 430.4 180.1C426.533 176.7 420.733 175 413 175H392.7V213.8ZM392.7 154.2H411.1C415.567 154.2 419.4 153.467 422.6 152C425.867 150.533 428.367 148.433 430.1 145.7C431.9 142.9 432.8 139.533 432.8 135.6C432.8 130 430.867 125.7 427 122.7C423.2 119.7 417.733 118.2 410.6 118.2H392.7V154.2ZM490.278 236V135H519.478V147.5C522.745 141.9 526.945 137.9 532.078 135.5C537.211 133.1 542.811 131.9 548.878 131.9C551.011 131.9 552.978 132.033 554.778 132.3C556.578 132.5 558.345 132.767 560.078 133.1L556.478 163.2C554.345 162.4 552.078 161.8 549.678 161.4C547.278 160.933 544.911 160.7 542.578 160.7C535.845 160.7 530.311 162.667 525.978 166.6C521.645 170.533 519.478 176.133 519.478 183.4V236H490.278ZM622.048 239C611.048 239 601.382 236.767 593.048 232.3C584.715 227.833 578.215 221.6 573.548 213.6C568.882 205.6 566.548 196.233 566.548 185.5C566.548 177.7 567.882 170.533 570.548 164C573.282 157.467 577.082 151.833 581.948 147.1C586.882 142.3 592.648 138.6 599.248 136C605.915 133.333 613.215 132 621.148 132C629.882 132 637.615 133.533 644.348 136.6C651.148 139.667 656.782 143.967 661.248 149.5C665.715 154.967 668.815 161.4 670.548 168.8C672.348 176.2 672.515 184.233 671.048 192.9H593.648C593.648 197.567 594.848 201.633 597.248 205.1C599.715 208.567 603.148 211.3 607.548 213.3C612.015 215.233 617.215 216.2 623.148 216.2C629.015 216.2 634.615 215.4 639.948 213.8C645.282 212.2 650.315 209.767 655.048 206.5L664.748 226.5C661.548 228.967 657.548 231.167 652.748 233.1C647.948 234.967 642.848 236.4 637.448 237.4C632.115 238.467 626.982 239 622.048 239ZM595.348 172.8H643.048C642.848 166.867 640.748 162.167 636.748 158.7C632.815 155.233 627.382 153.5 620.448 153.5C613.515 153.5 607.748 155.233 603.148 158.7C598.615 162.167 596.015 166.867 595.348 172.8ZM720.431 239C713.631 239 707.565 237.7 702.231 235.1C696.898 232.5 692.698 228.8 689.631 224C686.565 219.133 685.031 213.333 685.031 206.6C685.031 200.867 686.465 195.767 689.331 191.3C692.198 186.833 696.531 183.167 702.331 180.3C708.198 177.367 715.598 175.4 724.531 174.4C733.531 173.333 744.131 173.4 756.331 174.6L756.631 193.2C749.365 192 742.931 191.433 737.331 191.5C731.798 191.567 727.131 192.133 723.331 193.2C719.598 194.267 716.765 195.833 714.831 197.9C712.898 199.9 711.931 202.333 711.931 205.2C711.931 209.133 713.398 212.167 716.331 214.3C719.265 216.367 723.231 217.4 728.231 217.4C732.565 217.4 736.465 216.633 739.931 215.1C743.398 213.567 746.165 211.333 748.231 208.4C750.298 205.467 751.331 201.9 751.331 197.7V173.5C751.331 169.567 750.498 166.133 748.831 163.2C747.231 160.2 744.698 157.9 741.231 156.3C737.765 154.633 733.231 153.8 727.631 153.8C722.431 153.8 717.231 154.6 712.031 156.2C706.898 157.733 702.198 160.1 697.931 163.3L690.231 142.9C696.698 138.767 703.565 135.767 710.831 133.9C718.098 131.967 725.198 131 732.131 131C741.598 131 749.865 132.5 756.931 135.5C763.998 138.5 769.465 143.133 773.331 149.4C777.265 155.6 779.231 163.5 779.231 173.1V236H753.831V224.9C750.498 229.433 745.931 232.933 740.131 235.4C734.331 237.8 727.765 239 720.431 239ZM806.294 236V92H835.494V171L868.894 135H902.894L867.494 175.1L906.794 236H872.094L846.294 194.2L835.494 205.4V236H806.294ZM969.419 239C958.552 239 948.919 236.567 940.519 231.7C932.119 226.833 925.519 220.367 920.719 212.3C915.985 204.167 913.619 195.233 913.619 185.5C913.619 178.367 914.985 171.6 917.719 165.2C920.452 158.733 924.319 153.033 929.319 148.1C934.319 143.1 940.219 139.167 947.019 136.3C953.819 133.433 961.285 132 969.419 132C980.285 132 989.885 134.433 998.219 139.3C1006.62 144.167 1013.19 150.667 1017.92 158.8C1022.72 166.867 1025.12 175.767 1025.12 185.5C1025.12 192.567 1023.75 199.333 1021.02 205.8C1018.29 212.267 1014.42 218 1009.42 223C1004.49 227.933 998.619 231.833 991.819 234.7C985.019 237.567 977.552 239 969.419 239ZM969.419 213.7C974.552 213.7 979.152 212.567 983.219 210.3C987.285 207.967 990.485 204.7 992.819 200.5C995.152 196.233 996.319 191.233 996.319 185.5C996.319 179.7 995.152 174.7 992.819 170.5C990.552 166.3 987.385 163.067 983.319 160.8C979.252 158.467 974.619 157.3 969.419 157.3C964.219 157.3 959.552 158.467 955.419 160.8C951.352 163.067 948.152 166.3 945.819 170.5C943.552 174.7 942.419 179.7 942.419 185.5C942.419 191.3 943.585 196.3 945.919 200.5C948.252 204.7 951.452 207.967 955.519 210.3C959.585 212.567 964.219 213.7 969.419 213.7ZM1084.56 239C1075.43 239 1067.86 237.2 1061.86 233.6C1055.93 230 1051.49 225.067 1048.56 218.8C1045.63 212.533 1044.16 205.433 1044.16 197.5V135H1073.36V192.8C1073.36 198.8 1074.99 203.567 1078.26 207.1C1081.59 210.633 1086.36 212.4 1092.56 212.4C1096.56 212.4 1100.09 211.533 1103.16 209.8C1106.23 208 1108.59 205.5 1110.26 202.3C1111.99 199.1 1112.86 195.4 1112.86 191.2V135H1142.06V236H1116.66V224.9C1113.19 228.9 1108.89 232.267 1103.76 235C1098.69 237.667 1092.29 239 1084.56 239ZM1214.35 239C1203.55 239 1195.02 235.967 1188.75 229.9C1182.55 223.767 1179.45 214.533 1179.45 202.2V105.9H1208.65V135H1233.75V158.4H1208.65V196.9C1208.65 202.833 1209.88 207 1212.35 209.4C1214.82 211.8 1218.12 213 1222.25 213C1224.38 213 1226.45 212.767 1228.45 212.3C1230.52 211.767 1232.42 211.033 1234.15 210.1L1238.25 233.1C1235.25 234.767 1231.65 236.167 1227.45 237.3C1223.32 238.433 1218.95 239 1214.35 239ZM1158.95 158.4V135H1182.35V158.4H1158.95Z" fill="#FF4C6C"/>
</svg>
