<svg viewBox="0 0 783 756" fill="none" xmlns="http://www.w3.org/2000/svg">
<mask id="mask0_1011_51" style="mask-type:alpha" maskUnits="userSpaceOnUse" x="0" y="0" width="783" height="756">
<rect width="783" height="756" fill="#C4C4C4"/>
</mask>
<g mask="url(#mask0_1011_51)">
<path d="M210.115 527.34V646H186.315V568.82L154.525 646H136.505L104.545 568.82V646H80.7446V527.34H107.775L145.515 615.57L183.255 527.34H210.115ZM227.525 598.57C227.525 589.05 229.395 580.607 233.135 573.24C236.988 565.873 242.145 560.207 248.605 556.24C255.178 552.273 262.488 550.29 270.535 550.29C277.562 550.29 283.682 551.707 288.895 554.54C294.222 557.373 298.472 560.943 301.645 565.25V551.82H325.615V646H301.645V632.23C298.585 636.65 294.335 640.333 288.895 643.28C283.568 646.113 277.392 647.53 270.365 647.53C262.432 647.53 255.178 645.49 248.605 641.41C242.145 637.33 236.988 631.607 233.135 624.24C229.395 616.76 227.525 608.203 227.525 598.57ZM301.645 598.91C301.645 593.13 300.512 588.2 298.245 584.12C295.978 579.927 292.918 576.753 289.065 574.6C285.212 572.333 281.075 571.2 276.655 571.2C272.235 571.2 268.155 572.277 264.415 574.43C260.675 576.583 257.615 579.757 255.235 583.95C252.968 588.03 251.835 592.903 251.835 598.57C251.835 604.237 252.968 609.223 255.235 613.53C257.615 617.723 260.675 620.953 264.415 623.22C268.268 625.487 272.348 626.62 276.655 626.62C281.075 626.62 285.212 625.543 289.065 623.39C292.918 621.123 295.978 617.95 298.245 613.87C300.512 609.677 301.645 604.69 301.645 598.91ZM372.66 566.44C375.72 561.453 379.687 557.543 384.56 554.71C389.547 551.877 395.213 550.46 401.56 550.46V575.45H395.27C387.79 575.45 382.123 577.207 378.27 580.72C374.53 584.233 372.66 590.353 372.66 599.08V646H348.86V551.82H372.66V566.44ZM473.35 646L441.39 605.88V646H417.59V520.2H441.39V591.77L473.01 551.82H503.95L462.47 599.08L504.29 646H473.35ZM528.938 540.6C524.744 540.6 521.231 539.297 518.398 536.69C515.678 533.97 514.318 530.627 514.318 526.66C514.318 522.693 515.678 519.407 518.398 516.8C521.231 514.08 524.744 512.72 528.938 512.72C533.131 512.72 536.588 514.08 539.308 516.8C542.141 519.407 543.558 522.693 543.558 526.66C543.558 530.627 542.141 533.97 539.308 536.69C536.588 539.297 533.131 540.6 528.938 540.6ZM540.668 551.82V646H516.868V551.82H540.668ZM607.362 571.37H590.872V646H566.732V571.37H556.022V551.82H566.732V547.06C566.732 535.5 570.019 527 576.592 521.56C583.165 516.12 593.082 513.57 606.342 513.91V533.97C600.562 533.857 596.539 534.82 594.272 536.86C592.005 538.9 590.872 542.583 590.872 547.91V551.82H607.362V571.37ZM712.886 551.82L654.576 690.54H629.246L649.646 643.62L611.906 551.82H638.596L662.906 617.61L687.556 551.82H712.886Z" fill="#0084FF"/>
<path d="M234 334.198C234 299.025 262.518 270.473 297.645 270.473C332.773 270.473 361.29 299.025 361.29 334.198C361.29 369.371 332.773 397.922 297.645 397.922C262.518 397.922 234 369.371 234 334.198Z" stroke="#0084FF" stroke-width="36"/>
<path d="M234.336 147.463C234.336 182.545 262.778 211.004 297.838 211.004H343.183C353.124 211.004 361.183 202.945 361.183 193.004V147.424C361.183 112.396 332.787 84.0001 297.76 84.0001C262.743 84.0001 234.336 112.424 234.336 147.463Z" stroke="#0084FF" stroke-width="36"/>
<path d="M548 334.537C548 299.455 519.558 270.996 484.498 270.996H439.153C429.212 270.996 421.153 279.055 421.153 288.996V334.576C421.153 369.604 449.549 398 484.576 398C519.593 398 548 369.576 548 334.537Z" stroke="#0084FF" stroke-width="36"/>
<path d="M548 147.502C548 182.552 519.582 211.004 484.576 211.004C449.571 211.004 421.153 182.552 421.153 147.502C421.153 112.452 449.571 84.0001 484.576 84.0001C519.582 84.0001 548 112.452 548 147.502Z" stroke="#0084FF" stroke-width="36"/>
</g>
</svg>
