<svg width="800" height="800" viewBox="0 0 800 800" fill="none" xmlns="http://www.w3.org/2000/svg">
<mask id="mask0_3285_11" style="mask-type:alpha" maskUnits="userSpaceOnUse" x="0" y="0" width="800" height="800">
<rect width="800" height="800" fill="#C4C4C4"/>
</mask>
<g mask="url(#mask0_3285_11)">
<path d="M75.0775 702.128V576.128H100.728L149.778 656.948L139.248 657.128L186.048 576.128H211.518V702.128H185.688L186.138 610.508L190.908 612.218L152.388 677.288H134.208L94.5175 612.218L99.0175 610.508L99.4675 702.128H75.0775ZM265.015 704.828C258.895 704.828 253.435 703.658 248.635 701.318C243.835 698.978 240.055 695.648 237.295 691.328C234.535 686.948 233.155 681.728 233.155 675.668C233.155 670.508 234.445 665.918 237.025 661.898C239.605 657.878 243.505 654.578 248.725 651.998C254.005 649.358 260.665 647.588 268.705 646.688C276.805 645.728 286.345 645.788 297.325 646.868L297.595 663.608C291.055 662.528 285.265 662.018 280.225 662.078C275.245 662.138 271.045 662.648 267.625 663.608C264.265 664.568 261.715 665.978 259.975 667.838C258.235 669.638 257.365 671.828 257.365 674.408C257.365 677.948 258.685 680.678 261.325 682.598C263.965 684.458 267.535 685.388 272.035 685.388C275.935 685.388 279.445 684.698 282.565 683.318C285.685 681.938 288.175 679.928 290.035 677.288C291.895 674.648 292.825 671.438 292.825 667.658V645.878C292.825 642.338 292.075 639.248 290.575 636.608C289.135 633.908 286.855 631.838 283.735 630.398C280.615 628.898 276.535 628.148 271.495 628.148C266.815 628.148 262.135 628.868 257.455 630.308C252.835 631.688 248.605 633.818 244.765 636.698L237.835 618.338C243.655 614.618 249.835 611.918 256.375 610.238C262.915 608.498 269.305 607.628 275.545 607.628C284.065 607.628 291.505 608.978 297.865 611.678C304.225 614.378 309.145 618.548 312.625 624.188C316.165 629.768 317.935 636.878 317.935 645.518V702.128H295.075V692.138C292.075 696.218 287.965 699.368 282.745 701.588C277.525 703.748 271.615 704.828 265.015 704.828ZM342.292 702.128V611.228H368.572V622.478C371.512 617.438 375.292 613.838 379.912 611.678C384.532 609.518 389.572 608.438 395.032 608.438C396.952 608.438 398.722 608.558 400.342 608.798C401.962 608.978 403.552 609.218 405.112 609.518L401.872 636.608C399.952 635.888 397.912 635.348 395.752 634.988C393.592 634.568 391.462 634.358 389.362 634.358C383.302 634.358 378.322 636.128 374.422 639.668C370.522 643.208 368.572 648.248 368.572 654.788V702.128H342.292ZM420.163 702.128V572.528H446.443V643.628L476.503 611.228H507.103L475.243 647.318L510.613 702.128H479.383L456.163 664.508L446.443 674.588V702.128H420.163ZM525.983 702.128V611.228H552.263V702.128H525.983ZM539.123 596.828C534.743 596.828 530.963 595.478 527.783 592.778C524.603 590.018 523.013 586.358 523.013 581.798C523.013 577.178 524.603 573.518 527.783 570.818C530.963 568.058 534.743 566.678 539.123 566.678C543.503 566.678 547.283 568.058 550.463 570.818C553.643 573.518 555.233 577.178 555.233 581.798C555.233 586.358 553.643 590.018 550.463 592.778C547.283 595.478 543.503 596.828 539.123 596.828ZM585.849 702.128V600.788C585.849 591.308 588.639 583.778 594.219 578.198C599.859 572.618 607.809 569.828 618.069 569.828C621.489 569.828 624.759 570.188 627.879 570.908C630.999 571.628 633.999 572.708 636.879 574.148L632.829 594.308C631.089 593.348 629.409 592.688 627.789 592.328C626.169 591.968 624.639 591.788 623.199 591.788C619.779 591.788 617.049 592.598 615.009 594.218C613.029 595.838 612.039 598.478 612.039 602.138V611.228H634.719V632.288H612.039V702.128H585.849ZM569.199 632.288V611.228H588.459V632.288H569.199ZM662.925 742.358C659.085 742.358 655.305 741.968 651.585 741.188C647.865 740.408 644.355 739.118 641.055 737.318L646.725 715.178C648.645 716.258 650.745 717.098 653.025 717.698C655.365 718.298 657.525 718.598 659.505 718.598C663.105 718.598 666.075 717.818 668.415 716.258C670.755 714.698 672.495 712.148 673.635 708.608L675.525 702.848L640.065 611.228H668.595L690.375 676.208L711.525 611.228H739.335L701.175 712.478C698.175 720.038 694.725 725.978 690.825 730.298C686.925 734.678 682.635 737.768 677.955 739.568C673.275 741.428 668.265 742.358 662.925 742.358Z" fill="#0084FF"/>
<path d="M318.901 276.891L271.538 285.242C227.941 292.929 186.368 263.819 178.68 220.222C170.993 176.626 200.103 135.052 243.7 127.365C287.296 119.678 328.87 148.788 336.557 192.384L344.909 239.748C347.984 257.186 336.34 273.816 318.901 276.891Z" stroke="#0084FF" stroke-width="49.875"/>
<path d="M578.636 149.7C586.323 193.296 557.213 234.87 513.616 242.557C470.02 250.245 428.446 221.134 420.759 177.538C413.071 133.941 442.182 92.3676 485.778 84.6804C529.375 76.9931 570.948 106.103 578.636 149.7Z" stroke="#0084FF" stroke-width="49.875"/>
<path d="M379.242 434.463C386.929 478.059 357.819 519.633 314.222 527.32C270.626 535.007 229.052 505.897 221.365 462.301C213.678 418.704 242.788 377.13 286.385 369.443C329.981 361.756 371.555 390.866 379.242 434.463Z" stroke="#0084FF" stroke-width="49.875"/>
<path d="M481.1 335.11L528.463 326.759C572.059 319.071 613.633 348.181 621.32 391.778C629.007 435.375 599.897 476.948 556.301 484.635C512.704 492.323 471.13 463.213 463.443 419.616L455.092 372.253C452.017 354.814 463.661 338.185 481.1 335.11Z" stroke="#0084FF" stroke-width="49.875"/>
</g>
</svg>
