<svg width="512" height="512" viewBox="0 0 512 512" fill="none" xmlns="http://www.w3.org/2000/svg">
<path d="M172 208H118C68.2944 208 28 167.706 28 118C28 68.2944 68.2944 28 118 28C167.706 28 208 68.2944 208 118V172C208 191.882 191.882 208 172 208Z" stroke="#0084FF" stroke-width="56"/>
<path d="M484 118C484 167.706 443.706 208 394 208C344.294 208 304 167.706 304 118C304 68.2944 344.294 28 394 28C443.706 28 484 68.2944 484 118Z" stroke="#0084FF" stroke-width="56"/>
<path d="M208 394C208 443.706 167.706 484 118 484C68.2944 484 28 443.706 28 394C28 344.294 68.2944 304 118 304C167.706 304 208 344.294 208 394Z" stroke="#0084FF" stroke-width="56"/>
<path d="M340 304H394C443.706 304 484 344.294 484 394C484 443.706 443.706 484 394 484C344.294 484 304 443.706 304 394V340C304 320.118 320.118 304 340 304Z" stroke="#0084FF" stroke-width="56"/>
</svg>
