<svg width="234" height="234" viewBox="0 0 234 234" fill="none" xmlns="http://www.w3.org/2000/svg">
<path d="M12.0343 179.311C12.0343 155.795 31.1004 136.706 54.5857 136.706C78.0709 136.706 97.137 155.795 97.137 179.311C97.137 202.826 78.0709 221.915 54.5857 221.915C31.1004 221.915 12.0343 202.826 12.0343 179.311Z" stroke="#0084FF" stroke-width="24.0686"/>
<path d="M12.2589 54.4635C12.2589 77.9186 31.2744 96.9452 54.7144 96.9452H85.031C91.6774 96.9452 97.0653 91.5573 97.0653 84.9109V54.4373C97.0653 31.0187 78.0807 12.0341 54.6621 12.0341C31.251 12.0341 12.2589 31.0373 12.2589 54.4635Z" stroke="#0084FF" stroke-width="24.0686"/>
<path d="M221.966 179.538C221.966 156.082 202.95 137.056 179.51 137.056H149.194C142.547 137.056 137.159 142.444 137.159 149.09V179.564C137.159 202.982 156.144 221.967 179.563 221.967C202.974 221.967 221.966 202.964 221.966 179.538Z" stroke="#0084FF" stroke-width="24.0686"/>
<path d="M221.966 54.4897C221.966 77.9234 202.966 96.9452 179.563 96.9452C156.159 96.9452 137.159 77.9234 137.159 54.4897C137.159 31.056 156.159 12.0341 179.563 12.0341C202.966 12.0341 221.966 31.056 221.966 54.4897Z" stroke="#0084FF" stroke-width="24.0686"/>
</svg>
