<svg viewBox="0 0 1115 306" fill="none" xmlns="http://www.w3.org/2000/svg">
<path d="M90.5 256.354C67.663 256.354 49 237.691 49 214.854C49 192.018 67.663 173.354 90.5 173.354C113.337 173.354 132 192.018 132 214.854C132 237.691 113.337 256.354 90.5 256.354Z" stroke="#0084FF" stroke-width="26"/>
<path d="M90.5762 131.703H116.154C124.866 131.703 131.929 124.641 131.929 115.929V90.3521C131.929 67.514 113.415 49 90.5764 49C67.7385 49 49.2246 67.5138 49.2246 90.3516C49.2246 113.189 67.7383 131.703 90.5762 131.703Z" stroke="#0084FF" stroke-width="26"/>
<path d="M215.281 173.703H189.703C180.991 173.703 173.929 180.766 173.929 189.477V215.054C173.929 237.892 192.443 256.406 215.281 256.406C238.119 256.406 256.633 237.892 256.633 215.055C256.633 192.217 238.119 173.703 215.281 173.703Z" stroke="#0084FF" stroke-width="26"/>
<path d="M215.281 49C238.118 49 256.633 67.5147 256.633 90.3516C256.633 113.188 238.118 131.703 215.281 131.703C192.444 131.703 173.929 113.188 173.929 90.3516C173.929 67.5147 192.444 49 215.281 49Z" stroke="#0084FF" stroke-width="26"/>
<path d="M485.633 83.1031V222.703H457.633V131.903L420.233 222.703H399.033L361.433 131.903V222.703H333.433V83.1031H365.233L409.633 186.903L454.033 83.1031H485.633ZM506.116 166.903C506.116 155.703 508.316 145.77 512.716 137.103C517.249 128.436 523.316 121.77 530.916 117.103C538.649 112.436 547.249 110.103 556.716 110.103C564.982 110.103 572.182 111.77 578.316 115.103C584.582 118.436 589.582 122.636 593.316 127.703V111.903H621.516V222.703H593.316V206.503C589.716 211.703 584.716 216.036 578.316 219.503C572.049 222.836 564.782 224.503 556.516 224.503C547.182 224.503 538.649 222.103 530.916 217.303C523.316 212.503 517.249 205.77 512.716 197.103C508.316 188.303 506.116 178.236 506.116 166.903ZM593.316 167.303C593.316 160.503 591.982 154.703 589.316 149.903C586.649 144.97 583.049 141.236 578.516 138.703C573.982 136.036 569.116 134.703 563.916 134.703C558.716 134.703 553.916 135.97 549.516 138.503C545.116 141.036 541.516 144.77 538.716 149.703C536.049 154.503 534.716 160.236 534.716 166.903C534.716 173.57 536.049 179.436 538.716 184.503C541.516 189.436 545.116 193.236 549.516 195.903C554.049 198.57 558.849 199.903 563.916 199.903C569.116 199.903 573.982 198.636 578.516 196.103C583.049 193.436 586.649 189.703 589.316 184.903C591.982 179.97 593.316 174.103 593.316 167.303ZM676.863 129.103C680.463 123.236 685.129 118.636 690.863 115.303C696.729 111.97 703.396 110.303 710.863 110.303V139.703H703.463C694.663 139.703 687.996 141.77 683.463 145.903C679.063 150.036 676.863 157.236 676.863 167.503V222.703H648.863V111.903H676.863V129.103ZM795.322 222.703L757.722 175.503V222.703H729.722V74.7031H757.722V158.903L794.922 111.903H831.322L782.522 167.503L831.722 222.703H795.322ZM860.719 98.7031C855.785 98.7031 851.652 97.1698 848.319 94.1031C845.119 90.9031 843.519 86.9698 843.519 82.3031C843.519 77.6365 845.119 73.7698 848.319 70.7031C851.652 67.5031 855.785 65.9031 860.719 65.9031C865.652 65.9031 869.719 67.5031 872.919 70.7031C876.252 73.7698 877.919 77.6365 877.919 82.3031C877.919 86.9698 876.252 90.9031 872.919 94.1031C869.719 97.1698 865.652 98.7031 860.719 98.7031ZM874.519 111.903V222.703H846.519V111.903H874.519ZM952.983 134.903H933.583V222.703H905.183V134.903H892.583V111.903H905.183V106.303C905.183 92.7031 909.049 82.7031 916.783 76.3031C924.516 69.9031 936.183 66.9031 951.783 67.3031V90.9031C944.983 90.7698 940.249 91.9031 937.583 94.3031C934.916 96.7031 933.583 101.036 933.583 107.303V111.903H952.983V134.903ZM1077.13 111.903L1008.53 275.103H978.728L1002.73 219.903L958.328 111.903H989.728L1018.33 189.303L1047.33 111.903H1077.13Z" fill="#0084FF"/>
<path d="M747.54 272.42C751.26 273.26 754.2 275.12 756.36 278C758.58 280.82 759.69 284.06 759.69 287.72C759.69 293.12 757.83 297.35 754.11 300.41C750.39 303.47 745.17 305 738.45 305H707.04V241.55H737.46C743.94 241.55 749.01 242.99 752.67 245.87C756.39 248.75 758.25 252.8 758.25 258.02C758.25 261.74 757.26 264.86 755.28 267.38C753.36 269.84 750.78 271.52 747.54 272.42ZM724.68 266.75H733.59C738.03 266.75 740.25 264.92 740.25 261.26C740.25 257.48 738.03 255.59 733.59 255.59H724.68V266.75ZM734.94 290.78C739.38 290.78 741.6 288.92 741.6 285.2C741.6 283.28 741 281.81 739.8 280.79C738.66 279.77 737.01 279.26 734.85 279.26H724.68V290.78H734.94ZM785.061 255.68V266.03H805.311V279.44H785.061V290.87H808.011V305H767.421V241.55H808.011V255.68H785.061ZM864.518 241.55V255.59H847.598V305H829.958V255.59H813.218V241.55H864.518ZM911.184 294.65H888.684L885.264 305H866.724L889.854 241.55H910.194L933.234 305H914.604L911.184 294.65ZM906.774 281.15L899.934 260.63L893.184 281.15H906.774Z" fill="#6AB5FB"/>
</svg>
