<svg viewBox="0 0 1115 306" fill="none" xmlns="http://www.w3.org/2000/svg">
<path d="M49.2695 215.062C49.2695 192.225 67.9326 173.562 90.7695 173.562C113.606 173.562 132.27 192.225 132.27 215.062C132.27 237.898 113.606 256.562 90.7695 256.562C67.9326 256.562 49.2695 237.898 49.2695 215.062Z" stroke="#0084FF" stroke-width="26"/>
<path d="M49.4941 90.5586C49.4941 113.396 68.0079 131.91 90.8457 131.91H116.424C125.136 131.91 132.198 124.848 132.198 116.136V90.5591C132.198 67.7211 113.684 49.207 90.8459 49.207C68.008 49.207 49.4941 67.7208 49.4941 90.5586Z" stroke="#0084FF" stroke-width="26"/>
<path d="M256.902 215.262C256.902 192.424 238.389 173.91 215.551 173.91H189.973C181.261 173.91 174.198 180.973 174.198 189.685V215.261C174.198 238.099 192.712 256.613 215.551 256.613C238.388 256.613 256.902 238.099 256.902 215.262Z" stroke="#0084FF" stroke-width="26"/>
<path d="M256.902 90.5586C256.902 113.395 238.387 131.91 215.55 131.91C192.713 131.91 174.198 113.395 174.198 90.5586C174.198 67.7218 192.713 49.207 215.55 49.207C238.387 49.207 256.902 67.7218 256.902 90.5586Z" stroke="#0084FF" stroke-width="26"/>
<path d="M485.902 83.3102V222.91H457.902V132.11L420.502 222.91H399.302L361.702 132.11V222.91H333.702V83.3102H365.502L409.902 187.11L454.302 83.3102H485.902ZM506.385 167.11C506.385 155.91 508.585 145.977 512.985 137.31C517.518 128.643 523.585 121.977 531.185 117.31C538.918 112.643 547.518 110.31 556.985 110.31C565.252 110.31 572.452 111.977 578.585 115.31C584.852 118.643 589.852 122.843 593.585 127.91V112.11H621.785V222.91H593.585V206.71C589.985 211.91 584.985 216.243 578.585 219.71C572.318 223.043 565.052 224.71 556.785 224.71C547.452 224.71 538.918 222.31 531.185 217.51C523.585 212.71 517.518 205.977 512.985 197.31C508.585 188.51 506.385 178.443 506.385 167.11ZM593.585 167.51C593.585 160.71 592.252 154.91 589.585 150.11C586.918 145.177 583.318 141.443 578.785 138.91C574.252 136.243 569.385 134.91 564.185 134.91C558.985 134.91 554.185 136.177 549.785 138.71C545.385 141.243 541.785 144.977 538.985 149.91C536.318 154.71 534.985 160.443 534.985 167.11C534.985 173.777 536.318 179.643 538.985 184.71C541.785 189.643 545.385 193.443 549.785 196.11C554.318 198.777 559.118 200.11 564.185 200.11C569.385 200.11 574.252 198.843 578.785 196.31C583.318 193.643 586.918 189.91 589.585 185.11C592.252 180.177 593.585 174.31 593.585 167.51ZM677.132 129.31C680.732 123.443 685.399 118.843 691.132 115.51C696.999 112.177 703.665 110.51 711.132 110.51V139.91H703.732C694.932 139.91 688.265 141.977 683.732 146.11C679.332 150.243 677.132 157.443 677.132 167.71V222.91H649.132V112.11H677.132V129.31ZM795.591 222.91L757.991 175.71V222.91H729.991V74.9102H757.991V159.11L795.191 112.11H831.591L782.791 167.71L831.991 222.91H795.591ZM860.988 98.9102C856.055 98.9102 851.922 97.3768 848.588 94.3102C845.388 91.1101 843.788 87.1768 843.788 82.5102C843.788 77.8435 845.388 73.9768 848.588 70.9101C851.922 67.7101 856.055 66.1101 860.988 66.1101C865.922 66.1101 869.988 67.7101 873.188 70.9101C876.522 73.9768 878.188 77.8435 878.188 82.5102C878.188 87.1768 876.522 91.1101 873.188 94.3102C869.988 97.3768 865.922 98.9102 860.988 98.9102ZM874.788 112.11V222.91H846.788V112.11H874.788ZM953.252 135.11H933.852V222.91H905.452V135.11H892.852V112.11H905.452V106.51C905.452 92.9102 909.319 82.9102 917.052 76.5101C924.786 70.1101 936.452 67.1102 952.052 67.5102V91.1101C945.252 90.9768 940.519 92.1102 937.852 94.5102C935.186 96.9102 933.852 101.243 933.852 107.51V112.11H953.252V135.11ZM1077.4 112.11L1008.8 275.31H978.998L1003 220.11L958.598 112.11H989.998L1018.6 189.51L1047.6 112.11H1077.4Z" fill="#0084FF"/>
</svg>
