<svg width="1169" height="332" viewBox="0 0 1169 332" fill="none" xmlns="http://www.w3.org/2000/svg">
<path d="M123.344 141.625H95.9219C70.6807 141.625 50.2188 121.163 50.2188 95.9219C50.2188 70.6807 70.6807 50.2188 95.9219 50.2188C121.163 50.2188 141.625 70.6807 141.625 95.9219V123.344C141.625 133.44 133.44 141.625 123.344 141.625Z" stroke="white" stroke-width="28.4375"/>
<path d="M281.781 95.9219C281.781 121.163 261.319 141.625 236.078 141.625C210.837 141.625 190.375 121.163 190.375 95.9219C190.375 70.6807 210.837 50.2188 236.078 50.2188C261.319 50.2188 281.781 70.6807 281.781 95.9219Z" stroke="white" stroke-width="28.4375"/>
<path d="M141.625 236.078C141.625 261.319 121.163 281.781 95.9219 281.781C70.6807 281.781 50.2188 261.319 50.2188 236.078C50.2188 210.837 70.6807 190.375 95.9219 190.375C121.163 190.375 141.625 210.837 141.625 236.078Z" stroke="white" stroke-width="28.4375"/>
<path d="M208.656 190.375H236.078C261.319 190.375 281.781 210.837 281.781 236.078C281.781 261.319 261.319 281.781 236.078 281.781C210.837 281.781 190.375 261.319 190.375 236.078V208.656C190.375 198.56 198.56 190.375 208.656 190.375Z" stroke="white" stroke-width="28.4375"/>
<path d="M363.1 236V96H391.6L446.1 185.8L434.4 186L486.4 96H514.7V236H486L486.5 134.2L491.8 136.1L449 208.4H428.8L384.7 136.1L389.7 134.2L390.2 236H363.1ZM574.142 239C567.342 239 561.276 237.7 555.942 235.1C550.609 232.5 546.409 228.8 543.342 224C540.276 219.133 538.742 213.333 538.742 206.6C538.742 200.867 540.176 195.767 543.042 191.3C545.909 186.833 550.242 183.167 556.042 180.3C561.909 177.367 569.309 175.4 578.242 174.4C587.242 173.333 597.842 173.4 610.042 174.6L610.342 193.2C603.076 192 596.642 191.433 591.042 191.5C585.509 191.567 580.842 192.133 577.042 193.2C573.309 194.267 570.476 195.833 568.542 197.9C566.609 199.9 565.642 202.333 565.642 205.2C565.642 209.133 567.109 212.167 570.042 214.3C572.976 216.367 576.942 217.4 581.942 217.4C586.276 217.4 590.176 216.633 593.642 215.1C597.109 213.567 599.876 211.333 601.942 208.4C604.009 205.467 605.042 201.9 605.042 197.7V173.5C605.042 169.567 604.209 166.133 602.542 163.2C600.942 160.2 598.409 157.9 594.942 156.3C591.476 154.633 586.942 153.8 581.342 153.8C576.142 153.8 570.942 154.6 565.742 156.2C560.609 157.733 555.909 160.1 551.642 163.3L543.942 142.9C550.409 138.767 557.276 135.767 564.542 133.9C571.809 131.967 578.909 131 585.842 131C595.309 131 603.576 132.5 610.642 135.5C617.709 138.5 623.176 143.133 627.042 149.4C630.976 155.6 632.942 163.5 632.942 173.1V236H607.542V224.9C604.209 229.433 599.642 232.933 593.842 235.4C588.042 237.8 581.476 239 574.142 239ZM660.005 236V135H689.205V147.5C692.471 141.9 696.671 137.9 701.805 135.5C706.938 133.1 712.538 131.9 718.605 131.9C720.738 131.9 722.705 132.033 724.505 132.3C726.305 132.5 728.071 132.767 729.805 133.1L726.205 163.2C724.071 162.4 721.805 161.8 719.405 161.4C717.005 160.933 714.638 160.7 712.305 160.7C705.571 160.7 700.038 162.667 695.705 166.6C691.371 170.533 689.205 176.133 689.205 183.4V236H660.005ZM746.528 236V92H775.728V171L809.128 135H843.128L807.728 175.1L847.028 236H812.328L786.528 194.2L775.728 205.4V236H746.528ZM864.106 236V135H893.306V236H864.106ZM878.706 119C873.84 119 869.64 117.5 866.106 114.5C862.573 111.433 860.806 107.367 860.806 102.3C860.806 97.1667 862.573 93.1 866.106 90.1C869.64 87.0333 873.84 85.5 878.706 85.5C883.573 85.5 887.773 87.0333 891.306 90.1C894.84 93.1 896.606 97.1667 896.606 102.3C896.606 107.367 894.84 111.433 891.306 114.5C887.773 117.5 883.573 119 878.706 119ZM930.623 236V123.4C930.623 112.867 933.723 104.5 939.923 98.3C946.19 92.1 955.023 89 966.423 89C970.223 89 973.857 89.4 977.323 90.2C980.79 91 984.123 92.2 987.323 93.8L982.823 116.2C980.89 115.133 979.023 114.4 977.223 114C975.423 113.6 973.723 113.4 972.123 113.4C968.323 113.4 965.29 114.3 963.023 116.1C960.823 117.9 959.723 120.833 959.723 124.9V135H984.923V158.4H959.723V236H930.623ZM912.123 158.4V135H933.523V158.4H912.123ZM1016.26 280.7C1012 280.7 1007.8 280.267 1003.66 279.4C999.531 278.533 995.631 277.1 991.964 275.1L998.264 250.5C1000.4 251.7 1002.73 252.633 1005.26 253.3C1007.86 253.967 1010.26 254.3 1012.46 254.3C1016.46 254.3 1019.76 253.433 1022.36 251.7C1024.96 249.967 1026.9 247.133 1028.16 243.2L1030.26 236.8L990.864 135H1022.56L1046.76 207.2L1070.26 135H1101.16L1058.76 247.5C1055.43 255.9 1051.6 262.5 1047.26 267.3C1042.93 272.167 1038.16 275.6 1032.96 277.6C1027.76 279.667 1022.2 280.7 1016.26 280.7Z" fill="white"/>
</svg>
