<svg viewBox="0 0 256 256" fill="none" xmlns="http://www.w3.org/2000/svg">
<rect x="10" y="12" width="236" height="234" rx="60" fill="#FFA400" fill-opacity="0.25"/>
<path d="M110.732 150C110.732 145.6 111.399 141.733 112.732 138.4C114.199 134.933 115.999 131.867 118.132 129.2C120.265 126.533 122.532 124.133 124.932 122C127.465 119.733 129.799 117.6 131.932 115.6C134.065 113.467 135.799 111.333 137.132 109.2C138.599 107.067 139.332 104.733 139.332 102.2C139.332 98.2 137.665 95.0667 134.332 92.8C131.132 90.5333 126.932 89.4 121.732 89.4C116.399 89.4 111.532 90.6667 107.132 93.2C102.865 95.7333 99.3987 99.2667 96.732 103.8L66.932 87.8C72.132 78.8667 79.6654 71.7333 89.532 66.4C99.3987 60.9333 111.665 58.2 126.332 58.2C136.599 58.2 145.665 59.6667 153.532 62.6C161.532 65.4 167.799 69.6 172.332 75.2C176.865 80.8 179.132 87.6667 179.132 95.8C179.132 101 178.332 105.533 176.732 109.4C175.132 113.267 173.065 116.667 170.532 119.6C168.132 122.533 165.532 125.267 162.732 127.8C159.932 130.2 157.265 132.533 154.732 134.8C152.332 137.067 150.332 139.4 148.732 141.8C147.132 144.2 146.332 146.933 146.332 150H110.732ZM128.532 202.8C121.999 202.8 116.599 200.733 112.332 196.6C108.065 192.467 105.932 187.533 105.932 181.8C105.932 175.933 108.065 171.067 112.332 167.2C116.599 163.2 121.999 161.2 128.532 161.2C135.332 161.2 140.799 163.2 144.932 167.2C149.199 171.067 151.332 175.933 151.332 181.8C151.332 187.533 149.199 192.467 144.932 196.6C140.799 200.733 135.332 202.8 128.532 202.8Z" fill="#FFA400"/>
</svg>
