<svg viewBox="0 0 256 256" fill="none" xmlns="http://www.w3.org/2000/svg">
<mask id="mask0_57_844" style="mask-type:alpha" maskUnits="userSpaceOnUse" x="0" y="0" width="256" height="256">
<rect width="256" height="256" fill="var(--gray)"/>
</mask>
<g mask="url(#mask0_57_844)">
<mask id="path-2-outside-1_57_844" maskUnits="userSpaceOnUse" x="64" y="41" width="126" height="179" fill="white">
<rect x="64" y="41" width="126" height="179"/>
<path d="M126.592 208C116.859 208 108.192 206.133 100.592 202.4C92.9922 198.667 86.9922 193.333 82.5922 186.4C78.3255 179.467 76.1922 171.133 76.1922 161.4C76.1922 152.333 77.7255 144.733 80.7922 138.6C83.9922 132.467 88.0589 127.467 92.9922 123.6C98.0589 119.6 103.326 116.467 108.792 114.2C105.592 112.333 102.592 110.067 99.7922 107.4C97.1255 104.733 94.9922 101.533 93.3922 97.8C91.7922 94.0667 90.9922 89.7333 90.9922 84.8C90.9922 78.2667 92.7255 72.6667 96.1922 68C99.6589 63.2 104.459 59.5333 110.592 57C116.859 54.3333 124.059 53 132.192 53C137.659 53 142.859 53.5333 147.792 54.6C152.859 55.5333 157.592 57.1333 161.992 59.4C166.392 61.5333 170.326 64.4 173.792 68L162.992 88C158.459 83.4667 153.659 80.1333 148.592 78C143.526 75.7333 138.526 74.6 133.592 74.6C129.859 74.6 126.992 75.2 124.992 76.4C122.992 77.4667 121.592 78.8667 120.792 80.6C119.992 82.3333 119.592 84.0667 119.592 85.8C119.592 88.6 120.326 91 121.792 93C123.392 95 125.659 96.8667 128.592 98.6C131.659 100.333 135.259 102.333 139.392 104.6C148.726 109.533 156.192 114.667 161.792 120C167.392 125.333 171.459 131.133 173.992 137.4C176.526 143.533 177.792 150.4 177.792 158C177.792 169.2 175.659 178.533 171.392 186C167.126 193.333 161.126 198.867 153.392 202.6C145.792 206.2 136.859 208 126.592 208ZM127.192 184C131.859 184 135.726 182.867 138.792 180.6C141.992 178.333 144.326 175.2 145.792 171.2C147.392 167.2 148.192 162.667 148.192 157.6C148.192 152.667 147.392 148.267 145.792 144.4C144.326 140.533 142.059 137.133 138.992 134.2C136.059 131.133 132.459 128.533 128.192 126.4C124.592 127.733 121.392 129.4 118.592 131.4C115.926 133.4 113.592 135.667 111.592 138.2C109.726 140.733 108.326 143.667 107.392 147C106.459 150.333 105.992 154.067 105.992 158.2C105.992 163.533 106.792 168.133 108.392 172C110.126 175.867 112.526 178.867 115.592 181C118.792 183 122.659 184 127.192 184Z"/>
</mask>
<path d="M126.592 208C116.859 208 108.192 206.133 100.592 202.4C92.9922 198.667 86.9922 193.333 82.5922 186.4C78.3255 179.467 76.1922 171.133 76.1922 161.4C76.1922 152.333 77.7255 144.733 80.7922 138.6C83.9922 132.467 88.0589 127.467 92.9922 123.6C98.0589 119.6 103.326 116.467 108.792 114.2C105.592 112.333 102.592 110.067 99.7922 107.4C97.1255 104.733 94.9922 101.533 93.3922 97.8C91.7922 94.0667 90.9922 89.7333 90.9922 84.8C90.9922 78.2667 92.7255 72.6667 96.1922 68C99.6589 63.2 104.459 59.5333 110.592 57C116.859 54.3333 124.059 53 132.192 53C137.659 53 142.859 53.5333 147.792 54.6C152.859 55.5333 157.592 57.1333 161.992 59.4C166.392 61.5333 170.326 64.4 173.792 68L162.992 88C158.459 83.4667 153.659 80.1333 148.592 78C143.526 75.7333 138.526 74.6 133.592 74.6C129.859 74.6 126.992 75.2 124.992 76.4C122.992 77.4667 121.592 78.8667 120.792 80.6C119.992 82.3333 119.592 84.0667 119.592 85.8C119.592 88.6 120.326 91 121.792 93C123.392 95 125.659 96.8667 128.592 98.6C131.659 100.333 135.259 102.333 139.392 104.6C148.726 109.533 156.192 114.667 161.792 120C167.392 125.333 171.459 131.133 173.992 137.4C176.526 143.533 177.792 150.4 177.792 158C177.792 169.2 175.659 178.533 171.392 186C167.126 193.333 161.126 198.867 153.392 202.6C145.792 206.2 136.859 208 126.592 208ZM127.192 184C131.859 184 135.726 182.867 138.792 180.6C141.992 178.333 144.326 175.2 145.792 171.2C147.392 167.2 148.192 162.667 148.192 157.6C148.192 152.667 147.392 148.267 145.792 144.4C144.326 140.533 142.059 137.133 138.992 134.2C136.059 131.133 132.459 128.533 128.192 126.4C124.592 127.733 121.392 129.4 118.592 131.4C115.926 133.4 113.592 135.667 111.592 138.2C109.726 140.733 108.326 143.667 107.392 147C106.459 150.333 105.992 154.067 105.992 158.2C105.992 163.533 106.792 168.133 108.392 172C110.126 175.867 112.526 178.867 115.592 181C118.792 183 122.659 184 127.192 184Z" fill="var(--pageColor)"/>
<path d="M100.592 202.4L105.883 191.629L105.883 191.629L100.592 202.4ZM82.5922 186.4L72.3723 192.689L72.4158 192.76L72.4602 192.83L82.5922 186.4ZM80.7922 138.6L70.1532 133.049L70.1053 133.141L70.0591 133.233L80.7922 138.6ZM92.9922 123.6L100.395 133.045L100.411 133.032L100.428 133.019L92.9922 123.6ZM108.792 114.2L113.388 125.285L135.73 116.021L114.839 103.835L108.792 114.2ZM99.7922 107.4L91.3069 115.885L91.4104 115.989L91.5163 116.09L99.7922 107.4ZM96.1922 68L105.825 75.1559L105.873 75.0912L105.92 75.0259L96.1922 68ZM110.592 57L115.173 68.0911L115.232 68.0668L115.291 68.0418L110.592 57ZM147.792 54.6L145.256 66.329L145.437 66.368L145.618 66.4014L147.792 54.6ZM161.992 59.4L156.497 70.0677L156.626 70.1343L156.757 70.1978L161.992 59.4ZM173.792 68L184.351 73.7018L188.516 65.9897L182.436 59.6763L173.792 68ZM162.992 88L154.507 96.4853L165.897 107.876L173.551 93.7018L162.992 88ZM148.592 78L143.692 88.9538L143.813 89.0081L143.935 89.0596L148.592 78ZM124.992 76.4L130.639 86.9882L130.906 86.8457L131.166 86.6899L124.992 76.4ZM120.792 80.6L109.897 75.5713L109.897 75.5713L120.792 80.6ZM121.792 93L112.115 100.096L112.264 100.3L112.422 100.496L121.792 93ZM128.592 98.6L122.487 108.931L122.587 108.99L122.688 109.047L128.592 98.6ZM139.392 104.6L133.622 115.122L133.703 115.166L133.785 115.209L139.392 104.6ZM161.792 120L153.516 128.69L153.516 128.69L161.792 120ZM173.992 137.4L162.867 141.897L162.884 141.939L162.901 141.981L173.992 137.4ZM171.392 186L181.764 192.035L181.788 191.994L181.811 191.954L171.392 186ZM153.392 202.6L158.529 213.445L158.569 213.426L158.609 213.407L153.392 202.6ZM138.792 180.6L131.856 170.808L131.757 170.878L131.659 170.95L138.792 180.6ZM145.792 171.2L134.65 166.743L134.586 166.905L134.526 167.069L145.792 171.2ZM145.792 144.4L134.572 148.656L134.636 148.823L134.704 148.988L145.792 144.4ZM138.992 134.2L130.32 142.495L130.505 142.687L130.698 142.872L138.992 134.2ZM128.192 126.4L133.559 115.667L128.904 113.34L124.024 115.147L128.192 126.4ZM118.592 131.4L111.617 121.635L111.504 121.716L111.392 121.8L118.592 131.4ZM111.592 138.2L102.174 130.764L102.05 130.921L101.932 131.082L111.592 138.2ZM108.392 172L97.304 176.588L97.3707 176.749L97.4421 176.909L108.392 172ZM115.592 181L108.739 190.851L108.982 191.019L109.232 191.176L115.592 181ZM126.592 208V196C118.419 196 111.607 194.441 105.883 191.629L100.592 202.4L95.3013 213.171C104.778 217.826 115.299 220 126.592 220V208ZM100.592 202.4L105.883 191.629C100.201 188.838 95.9025 184.978 92.7241 179.97L82.5922 186.4L72.4602 192.83C78.0819 201.688 85.7838 208.495 95.3013 213.171L100.592 202.4ZM82.5922 186.4L92.8121 180.111C89.9192 175.41 88.1922 169.35 88.1922 161.4H76.1922H64.1922C64.1922 172.916 66.7319 183.523 72.3723 192.689L82.5922 186.4ZM76.1922 161.4H88.1922C88.1922 153.621 89.5158 147.986 91.5253 143.967L80.7922 138.6L70.0591 133.233C65.9353 141.481 64.1922 151.046 64.1922 161.4H76.1922ZM80.7922 138.6L91.4312 144.151C93.9241 139.373 96.9386 135.754 100.395 133.045L92.9922 123.6L85.5896 114.155C79.1791 119.18 74.0602 125.561 70.1532 133.049L80.7922 138.6ZM92.9922 123.6L100.428 133.019C104.707 129.64 109.028 127.093 113.388 125.285L108.792 114.2L104.196 103.115C97.623 105.84 91.4107 109.56 85.5565 114.181L92.9922 123.6ZM108.792 114.2L114.839 103.835C112.479 102.458 110.222 100.762 108.068 98.7103L99.7922 107.4L91.5163 116.09C94.9623 119.372 98.7055 122.209 102.746 124.565L108.792 114.2ZM99.7922 107.4L108.277 98.9147C106.771 97.4083 105.467 95.5121 104.422 93.073L93.3922 97.8L82.3624 102.527C84.5171 107.555 87.48 112.058 91.3069 115.885L99.7922 107.4ZM93.3922 97.8L104.422 93.073C103.584 91.1174 102.992 88.4487 102.992 84.8H90.9922H78.9922C78.9922 91.0179 80.0005 97.0159 82.3624 102.527L93.3922 97.8ZM90.9922 84.8H102.992C102.992 80.5098 104.084 77.5001 105.825 75.1559L96.1922 68L86.5593 60.8441C81.3673 67.8332 78.9922 76.0235 78.9922 84.8H90.9922ZM96.1922 68L105.92 75.0259C107.929 72.2445 110.844 69.8793 115.173 68.0911L110.592 57L106.011 45.9089C98.0736 49.1874 91.3886 54.1555 86.464 60.9741L96.1922 68ZM110.592 57L115.291 68.0418C119.813 66.1177 125.366 65 132.192 65V53V41C122.752 41 113.905 42.5489 105.894 45.9581L110.592 57ZM132.192 53V65C136.876 65 141.222 65.4567 145.256 66.329L147.792 54.6L150.328 42.871C144.496 41.61 138.441 41 132.192 41V53ZM147.792 54.6L145.618 66.4014C149.576 67.1304 153.184 68.3614 156.497 70.0677L161.992 59.4L167.488 48.7323C162 45.9053 156.142 43.9362 149.966 42.7986L147.792 54.6ZM161.992 59.4L156.757 70.1978C159.855 71.7001 162.641 73.72 165.148 76.3237L173.792 68L182.436 59.6763C178.01 55.08 172.929 51.3666 167.227 48.6022L161.992 59.4ZM173.792 68L163.233 62.2982L152.433 82.2982L162.992 88L173.551 93.7018L184.351 73.7018L173.792 68ZM162.992 88L171.477 79.5147C166.026 74.0636 159.963 69.7675 153.249 66.9404L148.592 78L143.935 89.0596C147.354 90.4991 150.891 92.8697 154.507 96.4853L162.992 88ZM148.592 78L153.493 67.0462C147.077 64.1763 140.414 62.6 133.592 62.6V74.6V86.6C136.637 86.6 139.974 87.2904 143.692 88.9538L148.592 78ZM133.592 74.6V62.6C128.866 62.6 123.487 63.3087 118.818 66.1101L124.992 76.4L131.166 86.6899C130.767 86.9296 130.658 86.8882 131.101 86.7955C131.54 86.7034 132.338 86.6 133.592 86.6V74.6ZM124.992 76.4L119.345 65.8118C115.483 67.8715 111.988 71.0401 109.897 75.5713L120.792 80.6L131.688 85.6287C131.473 86.0949 131.191 86.472 130.927 86.7353C130.679 86.9835 130.536 87.0435 130.639 86.9882L124.992 76.4ZM120.792 80.6L109.897 75.5713C108.444 78.7198 107.592 82.1609 107.592 85.8H119.592H131.592C131.592 85.8293 131.59 85.8552 131.588 85.8755C131.586 85.8956 131.584 85.9038 131.585 85.8983C131.587 85.8898 131.608 85.8021 131.688 85.6287L120.792 80.6ZM119.592 85.8H107.592C107.592 90.8084 108.948 95.7771 112.115 100.096L121.792 93L131.469 85.9037C131.499 85.9449 131.533 85.9981 131.563 86.0584C131.593 86.1186 131.61 86.1667 131.618 86.1934C131.626 86.2191 131.62 86.2078 131.612 86.1493C131.604 86.0896 131.592 85.9761 131.592 85.8H119.592ZM121.792 93L112.422 100.496C115.175 103.938 118.692 106.688 122.487 108.931L128.592 98.6L134.697 88.2689C132.626 87.0449 131.61 86.0625 131.163 85.5036L121.792 93ZM128.592 98.6L122.688 109.047C125.811 110.812 129.458 112.838 133.622 115.122L139.392 104.6L145.162 94.0782C141.06 91.8286 137.507 89.8545 134.497 88.1532L128.592 98.6ZM139.392 104.6L133.785 115.209C142.473 119.802 148.944 124.335 153.516 128.69L161.792 120L170.068 111.31C163.441 104.998 154.978 99.2651 145 93.9909L139.392 104.6ZM161.792 120L153.516 128.69C158.057 133.014 161.06 137.428 162.867 141.897L173.992 137.4L185.118 132.903C181.858 124.839 176.728 117.653 170.068 111.31L161.792 120ZM173.992 137.4L162.901 141.981C164.754 146.466 165.792 151.745 165.792 158H177.792H189.792C189.792 149.055 188.298 140.601 185.083 132.819L173.992 137.4ZM177.792 158H165.792C165.792 167.727 163.936 174.861 160.973 180.046L171.392 186L181.811 191.954C187.381 182.206 189.792 170.673 189.792 158H177.792ZM171.392 186L161.02 179.965C157.973 185.203 153.781 189.087 148.175 191.793L153.392 202.6L158.609 213.407C168.47 208.646 176.278 201.464 181.764 192.035L171.392 186ZM153.392 202.6L148.255 191.755C142.576 194.445 135.467 196 126.592 196V208V220C138.251 220 149.009 217.955 158.529 213.445L153.392 202.6ZM127.192 184V196C133.84 196 140.367 194.358 145.925 190.25L138.792 180.6L131.659 170.95C131.084 171.375 129.877 172 127.192 172V184ZM138.792 180.6L145.728 190.392C151.084 186.598 154.831 181.406 157.059 175.331L145.792 171.2L134.526 167.069C133.82 168.994 132.9 170.068 131.856 170.808L138.792 180.6ZM145.792 171.2L156.934 175.657C159.191 170.013 160.192 163.929 160.192 157.6H148.192H136.192C136.192 161.404 135.593 164.387 134.65 166.743L145.792 171.2ZM148.192 157.6H160.192C160.192 151.369 159.18 145.369 156.88 139.812L145.792 144.4L134.704 148.988C135.604 151.164 136.192 153.964 136.192 157.6H148.192ZM145.792 144.4L157.012 140.144C154.895 134.561 151.611 129.664 147.287 125.528L138.992 134.2L130.698 142.872C132.507 144.603 133.756 146.505 134.572 148.656L145.792 144.4ZM138.992 134.2L147.664 125.905C143.667 121.726 138.907 118.341 133.559 115.667L128.192 126.4L122.826 137.133C126.01 138.725 128.451 140.54 130.32 142.495L138.992 134.2ZM128.192 126.4L124.024 115.147C119.54 116.808 115.376 118.95 111.617 121.635L118.592 131.4L125.567 141.165C127.408 139.85 129.644 138.659 132.36 137.653L128.192 126.4ZM118.592 131.4L111.392 121.8C107.923 124.402 104.837 127.39 102.174 130.764L111.592 138.2L121.011 145.636C122.347 143.943 123.928 142.398 125.792 141L118.592 131.4ZM111.592 138.2L101.932 131.082C99.1214 134.895 97.1223 139.173 95.8366 143.764L107.392 147L118.948 150.236C119.529 148.161 120.33 146.571 121.253 145.318L111.592 138.2ZM107.392 147L95.8366 143.764C94.5578 148.332 93.9922 153.178 93.9922 158.2H105.992H117.992C117.992 154.956 118.36 152.335 118.948 150.236L107.392 147ZM105.992 158.2H93.9922C93.9922 164.693 94.9615 170.927 97.304 176.588L108.392 172L119.48 167.412C118.623 165.34 117.992 162.374 117.992 158.2H105.992ZM108.392 172L97.4421 176.909C99.9446 182.491 103.653 187.312 108.739 190.851L115.592 181L122.445 171.149C121.398 170.421 120.306 169.242 119.342 167.091L108.392 172ZM115.592 181L109.232 191.176C114.693 194.589 120.866 196 127.192 196V184V172C124.451 172 122.892 171.411 121.952 170.824L115.592 181Z" fill="var(--pageColor)" mask="url(#path-2-outside-1_57_844)"/>
<path d="M126.592 208C116.859 208 108.192 206.133 100.592 202.4C92.9922 198.667 86.9922 193.333 82.5922 186.4C78.3255 179.467 76.1922 171.133 76.1922 161.4C76.1922 152.333 77.7255 144.733 80.7922 138.6C83.9922 132.467 88.0589 127.467 92.9922 123.6C98.0589 119.6 103.326 116.467 108.792 114.2C105.592 112.333 102.592 110.067 99.7922 107.4C97.1255 104.733 94.9922 101.533 93.3922 97.8C91.7922 94.0667 90.9922 89.7333 90.9922 84.8C90.9922 78.2667 92.7255 72.6667 96.1922 68C99.6589 63.2 104.459 59.5333 110.592 57C116.859 54.3333 124.059 53 132.192 53C137.659 53 142.859 53.5333 147.792 54.6C152.859 55.5333 157.592 57.1333 161.992 59.4C166.392 61.5333 170.326 64.4 173.792 68L162.992 88C158.459 83.4667 153.659 80.1333 148.592 78C143.526 75.7333 138.526 74.6 133.592 74.6C129.859 74.6 126.992 75.2 124.992 76.4C122.992 77.4667 121.592 78.8667 120.792 80.6C119.992 82.3333 119.592 84.0667 119.592 85.8C119.592 88.6 120.326 91 121.792 93C123.392 95 125.659 96.8667 128.592 98.6C131.659 100.333 135.259 102.333 139.392 104.6C148.726 109.533 156.192 114.667 161.792 120C167.392 125.333 171.459 131.133 173.992 137.4C176.526 143.533 177.792 150.4 177.792 158C177.792 169.2 175.659 178.533 171.392 186C167.126 193.333 161.126 198.867 153.392 202.6C145.792 206.2 136.859 208 126.592 208ZM127.192 184C131.859 184 135.726 182.867 138.792 180.6C141.992 178.333 144.326 175.2 145.792 171.2C147.392 167.2 148.192 162.667 148.192 157.6C148.192 152.667 147.392 148.267 145.792 144.4C144.326 140.533 142.059 137.133 138.992 134.2C136.059 131.133 132.459 128.533 128.192 126.4C124.592 127.733 121.392 129.4 118.592 131.4C115.926 133.4 113.592 135.667 111.592 138.2C109.726 140.733 108.326 143.667 107.392 147C106.459 150.333 105.992 154.067 105.992 158.2C105.992 163.533 106.792 168.133 108.392 172C110.126 175.867 112.526 178.867 115.592 181C118.792 183 122.659 184 127.192 184Z" fill="var(--darkGray)"/>
</g>
</svg>
