<svg viewBox="0 0 256 256" fill="none" xmlns="http://www.w3.org/2000/svg">
<mask id="mask0_57_930" style="mask-type:alpha" maskUnits="userSpaceOnUse" x="0" y="0" width="256" height="256">
<rect width="256" height="256" fill="var(--gray)"/>
</mask>
<g mask="url(#mask0_57_930)">
<path d="M85.7998 71C94.7103 71 104.081 73.1386 113.04 79.1934C118.516 82.8941 123.607 87.9041 128.278 94.3955C132.334 88.4561 136.72 83.6749 141.705 80.0479C150.36 73.7501 159.888 71.5996 170.4 71.5996C184.864 71.5997 197.426 77.4501 206.248 87.7061C214.979 97.8562 219.6 111.766 219.6 127.4C219.6 142.737 215.439 157.057 206.947 167.748C198.292 178.644 185.549 185.2 170 185.2C159.671 185.2 150.061 183.044 141.287 176.854C136.148 173.229 131.6 168.432 127.436 162.436C123.823 167.265 119.749 171.425 115.129 174.796C106.471 181.112 96.4164 184.281 85.0938 184.399H85.0771C70.8357 184.521 58.2791 178.907 49.4111 168.629C40.64 158.463 36 144.376 36 128.2C36 112.696 40.5512 98.5003 49.2441 88.0078C58.048 77.3814 70.7718 71.0001 85.7998 71ZM169.6 103C164.604 103 160.909 104.74 157.018 108.997C153.195 113.179 149.499 119.47 145.087 128.434C148.99 137.286 152.717 143.574 156.548 147.704C160.586 152.057 164.502 153.8 169.2 153.8C174.965 153.8 179.469 151.296 182.769 147.01C186.206 142.545 188.4 135.971 188.4 128.4C188.4 112.151 179.467 103 169.6 103ZM86 102.2C80.4991 102.2 76.2318 104.651 73.0527 109.021C69.7175 113.604 67.5996 120.391 67.5996 128.2C67.5996 135.688 69.5549 142.15 72.7051 146.483C75.6564 150.543 79.7782 153 85.5996 153C93.8282 153 101.949 147.285 111.117 128.799C107.016 119.539 103.092 112.933 99.0713 108.59C94.8251 104.004 90.7522 102.2 86 102.2Z" fill="var(--pageColor)" stroke="var(--pageColor)" stroke-width="18"/>
<path d="M85.7998 77C93.7032 77 101.86 78.8793 109.68 84.1641C116.388 88.6979 122.698 95.6391 128.386 105.738C133.627 96.197 139.03 89.4144 145.235 84.8994C152.587 79.5502 160.763 77.5996 170.4 77.5996C183.155 77.5997 194.042 82.7165 201.699 91.6182C209.326 100.485 213.6 112.922 213.6 127.4C213.6 141.713 209.713 154.619 202.249 164.016C194.731 173.481 183.716 179.2 170 179.2C160.557 179.2 152.254 177.248 144.746 171.951C138.393 167.469 132.817 160.738 127.578 151.253C123.088 159.116 117.822 165.404 111.593 169.948C104.024 175.47 95.2055 178.293 85.0312 178.399H85.0254C72.4783 178.507 61.6257 173.603 53.9531 164.71C46.3128 155.855 42 143.259 42 128.2C42 113.832 46.2176 101.067 53.8652 91.8359C61.5498 82.5607 72.5906 77.0001 85.7998 77ZM169.6 97C162.668 97.0001 157.436 99.6469 152.589 104.949C147.785 110.204 143.449 117.976 138.488 128.281C142.876 138.673 147.26 146.514 152.149 151.785C157.129 157.153 162.568 159.8 169.2 159.8C176.988 159.8 183.189 156.299 187.522 150.67C191.902 144.982 194.4 137.057 194.4 128.4C194.4 110.317 184.089 97 169.6 97ZM86 96.2002C78.3664 96.2002 72.3775 99.7506 68.2012 105.49C63.9727 111.302 61.5996 119.397 61.5996 128.2C61.5996 136.629 63.785 144.416 67.8516 150.011C71.852 155.514 77.7259 159 85.5996 159C98.0081 159 107.937 149.614 117.715 128.938C113.127 118.143 108.546 109.991 103.474 104.514C98.3083 98.9351 92.7174 96.2002 86 96.2002Z" fill="var(--darkGray)" stroke="var(--darkGray)" stroke-width="6"/>
</g>
</svg>
