<svg viewBox="0 0 256 256" fill="none" xmlns="http://www.w3.org/2000/svg">
<mask id="mask0_212_2" style="mask-type:alpha" maskUnits="userSpaceOnUse" x="0" y="0" width="256" height="256">
<rect width="256" height="256" fill="#D9D9D9"/>
</mask>
<g mask="url(#mask0_212_2)">
<path d="M81.2144 85.752L113.499 174.452L149.057 216.224C155.064 223.279 166.606 219.078 166.672 209.813L167.061 154.957L134.777 66.2568" stroke="#0084FF" stroke-width="18"/>
<path d="M63.5223 63.4579C57.4777 46.8506 66.0405 28.4876 82.6478 22.443L92.0447 19.0228C108.652 12.9783 127.015 21.5411 133.06 38.1484L150.503 86.0727L80.9653 111.382L63.5223 63.4579Z" fill="#0084FF"/>
<path d="M69.5994 100.621C67.7105 95.4308 70.3863 89.6924 75.5761 87.8034L141.355 63.862C146.544 61.9731 152.283 64.649 154.172 69.8387L155.54 73.5975C157.429 78.7873 154.753 84.5257 149.563 86.4146L83.7846 110.356C78.5948 112.245 72.8564 109.569 70.9675 104.379L69.5994 100.621Z" fill="#0084FF"/>
</g>
</svg>
