<svg viewBox="0 0 168 168" fill="none" xmlns="http://www.w3.org/2000/svg">
<rect width="168" height="168" rx="84" fill="#0084FF" fill-opacity="0.25"/>
<path fill-rule="evenodd" clip-rule="evenodd" d="M42.5089 59.4805C34.1639 64.7228 26.6278 71.7011 20.4363 80.4152C20.1973 80.736 19.9932 81.0775 19.8251 81.4337C19.4416 82.2417 19.2532 83.1068 19.2491 83.9666C19.2436 84.8263 19.4223 85.6934 19.7966 86.5056C19.9608 86.8638 20.1611 87.2076 20.3966 87.5312C39.6065 115.218 72.3818 125.63 101.794 118.766L91.4229 108.395C69.9436 110.814 47.4572 102.696 32.7362 84.0413C38.069 77.4312 44.3763 72.1623 51.2629 68.2345L42.5089 59.4805ZM116.948 99.979C123.776 96.0065 130.013 90.6939 135.263 84.0413C120.498 65.7401 98.2623 57.7195 76.9491 59.9796L66.5328 49.5633C95.7792 42.918 128.228 53.2021 147.563 80.4154C147.801 80.7356 148.005 81.0764 148.173 81.4319C148.557 82.2405 148.746 83.1063 148.75 83.9667C148.756 84.8262 148.577 85.6932 148.203 86.5052C148.038 86.8636 147.838 87.2076 147.602 87.5313C141.489 96.3427 134.001 103.404 125.686 108.716L116.948 99.979Z" fill="#0084FF"/>
<path d="M41.999 42L125.999 126" stroke="#0084FF" stroke-width="12" stroke-linecap="round"/>
</svg>
