<svg viewBox="0 0 256 256" fill="none" xmlns="http://www.w3.org/2000/svg">
<mask id="mask0_2037_69" style="mask-type:alpha" maskUnits="userSpaceOnUse" x="0" y="0" width="256" height="256">
<rect width="256" height="256" fill="#D9D9D9"/>
</mask>
<g mask="url(#mask0_2037_69)">
<rect x="51.1177" y="101.118" width="153.765" height="123.765" rx="35.647" stroke="#2F2F2F" stroke-width="23.7647"/>
<rect width="18" height="40" rx="9" transform="matrix(1 0 0 -1 119 195)" fill="#2F2F2F"/>
<rect width="40" height="40" rx="20" transform="matrix(1 0 0 -1 108 171)" fill="#2F2F2F"/>
<path fill-rule="evenodd" clip-rule="evenodd" d="M77.8308 106.198L91.8333 94.4485C84.1197 79.7826 87.3658 61.2265 100.578 50.1404C115.552 37.5753 137.754 39.2844 150.642 53.8204C150.863 54.0691 151.081 54.3215 151.296 54.5777L162.161 67.5263L175.95 55.9561L165.084 43.0075C145.914 20.1615 111.854 17.1816 89.0075 36.3517C68.1585 53.8461 63.8543 83.7418 77.8308 106.198Z" fill="#2F2F2F"/>
</g>
</svg>
