<svg viewBox="0 0 134 149" fill="none" xmlns="http://www.w3.org/2000/svg">
<path d="M82 133.101C82 141.385 75.2843 148.101 67 148.101V148.101C58.7157 148.101 52 141.385 52 133.101L52 14.0001H82L82 133.101Z" fill="#0084FF"/>
<path d="M123.056 55.0762C128.603 61.2295 127.807 70.3518 121.278 75.4513V75.4513C114.75 80.5509 104.961 79.6966 99.414 73.5432L54.4017 23.6078L78.0442 5.14075L123.056 55.0762Z" fill="#0084FF"/>
<path d="M10.0431 55.0762C4.49647 61.2295 5.29255 70.3518 11.8212 75.4513V75.4513C18.3499 80.5509 28.1389 79.6966 33.6856 73.5432L78.6979 23.6078L55.0554 5.14075L10.0431 55.0762Z" fill="#0084FF"/>
<ellipse cx="66.611" cy="13.7539" rx="14.7752" ry="13.7539" transform="rotate(-180 66.611 13.7539)" fill="#0084FF"/>
</svg>
