<svg viewBox="0 0 256 256" fill="none" xmlns="http://www.w3.org/2000/svg">
<mask id="mask0_67_111" style="mask-type:alpha" maskUnits="userSpaceOnUse" x="0" y="0" width="256" height="256">
<rect width="256" height="256" fill="var(--gray)"/>
</mask>
<g mask="url(#mask0_67_111)">
<path d="M196.4 61V93.2002H134.2C119.775 93.2002 109.716 96.1518 103.164 100.843C99.2844 103.62 96.2732 107.265 94.2676 112H196.4V144.2H94.2773C96.2987 148.961 99.3396 152.651 103.257 155.47C109.848 160.213 119.913 163.2 134.2 163.2H196.4V195.4H136.6C113.128 195.4 93.5718 190.158 79.7686 178.501C65.7039 166.623 59 149.275 59 128.2C59 107.17 65.575 89.8095 79.6035 77.9111C93.3712 66.234 112.947 61.0001 136.6 61H196.4Z" fill="var(--pageColor)" stroke="var(--pageColor)" stroke-width="18"/>
<path d="M190.4 67V87.2002H134.2C119.059 87.2002 107.606 90.2838 99.6719 95.9639C92.6214 101.012 88.0836 108.301 86.2832 118H190.4V138.2H86.2842C88.0919 147.904 92.6698 155.243 99.752 160.34C107.716 166.071 119.171 169.2 134.2 169.2H190.4V189.4H136.6C113.909 189.4 95.9573 184.319 83.6396 173.917C71.2348 163.441 65 147.958 65 128.2C65 108.457 71.125 92.9701 83.4844 82.4873C95.7569 72.0783 113.715 67.0001 136.6 67H190.4Z" fill="var(--darkGray)" stroke="var(--darkGray)" stroke-width="6"/>
</g>
</svg>
