<svg viewBox="0 0 256 256" fill="none" xmlns="http://www.w3.org/2000/svg">
<mask id="mask0_67_122" style="mask-type:alpha" maskUnits="userSpaceOnUse" x="0" y="0" width="256" height="256">
<rect width="256" height="256" fill="var(--gray)"/>
</mask>
<g mask="url(#mask0_67_122)">
<path d="M153.77 49.6494C156.964 41.8622 165.836 38.0765 173.668 41.1582L174.046 41.3125L174.399 41.4678C181.768 44.8064 185.323 53.306 182.467 60.9219L181.987 62.2002H196.4V94.4004H169.837L162.787 113.2H196.4V145.4H150.649L143.562 164.4H196.4V196.6H136.6C134.825 196.6 133.128 196.561 131.494 196.504L127.955 205.826C124.882 213.92 115.77 217.921 107.732 214.706C99.9286 211.585 96.0408 202.806 98.9736 194.93L100.367 191.186C88.9009 187.166 79.343 180.847 72.2686 171.992C63.2519 160.706 59.0001 146.218 59 129.4C59 108.371 65.575 91.0097 79.6035 79.1113C93.3712 67.4341 112.947 62.2003 136.6 62.2002H148.993L153.62 50.0293L153.77 49.6494ZM94.2451 145.4C95.6065 148.635 97.4236 151.339 99.6201 153.593C102.57 156.619 106.517 159.154 111.665 160.998L117.57 145.4H94.2451ZM134.2 94.4004C119.775 94.4004 109.716 97.352 103.164 102.043C99.2844 104.821 96.2732 108.465 94.2676 113.2H129.763L136.813 94.4004H134.2Z" fill="var(--pageColor)" stroke="var(--pageColor)" stroke-width="18"/>
<path d="M159.229 52.1611C161.126 47.1705 166.789 44.7538 171.705 46.8369C176.352 48.806 178.621 54.0888 176.849 58.8145L173.328 68.2002H190.4V88.4004H165.679L154.129 119.2H190.4V139.4H146.482L134.921 170.4H190.4V190.6H136.6C133.333 190.6 130.331 190.468 127.427 190.313L122.346 203.697C120.464 208.654 114.884 211.105 109.961 209.136C105.182 207.224 102.801 201.847 104.597 197.023L108.211 187.314C94.8911 183.794 84.324 177.469 76.9561 168.247C68.984 158.268 65.0001 145.206 65 129.4C65 109.657 71.125 94.1703 83.4844 83.6875C95.7569 73.2785 113.715 68.2003 136.6 68.2002H153.131L159.229 52.1611ZM86.2744 139.4C87.6665 146.982 90.7404 153.079 95.3232 157.781C100.124 162.707 106.757 166.28 115.31 168.319L126.256 139.4H86.2744ZM134.2 88.4004C119.059 88.4004 107.606 91.4839 99.6719 97.1641C92.6214 102.212 88.0836 109.501 86.2832 119.2H133.921L145.471 88.4004H134.2Z" fill="var(--darkGray)" stroke="var(--darkGray)" stroke-width="6"/>
</g>
</svg>
