<svg viewBox="0 0 256 256" fill="none" xmlns="http://www.w3.org/2000/svg">
<mask id="mask0_4071_77" style="mask-type:alpha" maskUnits="userSpaceOnUse" x="0" y="0" width="256" height="256">
<rect width="256" height="256" fill="var(--gray)"/>
</mask>
<g mask="url(#mask0_4071_77)">
<path d="M112 62.4854C112 43.0385 135.328 33.2239 149.229 46.6084L149.557 46.9287L215.071 112.443C223.663 121.035 223.663 134.965 215.071 143.557L149.557 209.071C135.697 222.93 112 213.115 112 193.515V170.667H54C41.8499 170.667 32.0002 160.817 32 148.667V107.333C32.0002 95.1829 41.8498 85.333 54 85.333H112V62.4854Z" stroke="var(--pageColor)" stroke-width="32" stroke-linecap="round"/>
<path d="M134 62.4854L199.515 128L134 193.515V160.667C134 154.04 128.627 148.667 122 148.667H54V107.333H122C128.627 107.333 134 101.96 134 95.333V62.4854Z" stroke="var(--pageColor)" stroke-width="12" stroke-linecap="round"/>
<path d="M118 62.4854C118 48.4535 134.7 41.3172 144.836 50.7119L145.313 51.1719L210.828 116.687C217.076 122.935 217.076 133.065 210.828 139.313L145.313 204.828C135.234 214.908 118 207.769 118 193.515V164.667H54C45.1636 164.667 38.0002 157.503 38 148.667V107.333C38.0002 98.4966 45.1636 91.333 54 91.333H118V62.4854Z" stroke="var(--darkGray)" stroke-width="20" stroke-linecap="round"/>
</g>
</svg>
