<svg viewBox="0 0 256 256" fill="none" xmlns="http://www.w3.org/2000/svg"> <mask id="mask0_808_8" style="mask-type:alpha" maskUnits="userSpaceOnUse" x="0" y="0" width="256" height="256"> <rect width="256" height="256" fill="var(--gray)"/> </mask> <g mask="url(#mask0_808_8)"> <mask id="path-2-outside-1_808_8" maskUnits="userSpaceOnUse" x="44" y="37" width="178" height="185" fill="black"> <rect fill="var(--textColor)" x="44" y="37" width="178" height="185"/> <path d="M56.1 210V49H138.44C159.6 49 175.393 52.91 185.82 60.73C196.247 68.3967 201.46 78.5167 201.46 91.09C201.46 99.37 199.237 106.653 194.79 112.94C190.497 119.073 184.363 123.98 176.39 127.66C168.57 131.187 159.217 132.95 148.33 132.95L152.93 121.91C164.277 121.91 174.167 123.673 182.6 127.2C191.033 130.573 197.55 135.557 202.15 142.15C206.903 148.59 209.28 156.487 209.28 165.84C209.28 179.793 203.607 190.68 192.26 198.5C181.067 206.167 164.66 210 143.04 210H56.1ZM101.18 177.11H139.36C147.18 177.11 153.083 175.807 157.07 173.2C161.21 170.44 163.28 166.3 163.28 160.78C163.28 155.26 161.21 151.197 157.07 148.59C153.083 145.83 147.18 144.45 139.36 144.45H97.96V112.94H132.46C140.127 112.94 145.877 111.637 149.71 109.03C153.543 106.423 155.46 102.513 155.46 97.3C155.46 92.0867 153.543 88.2533 149.71 85.8C145.877 83.1933 140.127 81.89 132.46 81.89H101.18V177.11Z"/> </mask> <path d="M56.1 210H44.1V222H56.1V210ZM56.1 49V37H44.1V49H56.1ZM185.82 60.73L178.62 70.33L178.665 70.3641L178.711 70.3978L185.82 60.73ZM194.79 112.94L184.993 106.01L184.976 106.034L184.959 106.058L194.79 112.94ZM176.39 127.66L181.323 138.599L181.371 138.577L181.419 138.556L176.39 127.66ZM148.33 132.95L137.253 128.335L130.33 144.95H148.33V132.95ZM152.93 121.91V109.91H144.93L141.853 117.295L152.93 121.91ZM182.6 127.2L177.97 138.271L178.057 138.307L178.143 138.342L182.6 127.2ZM202.15 142.15L192.308 149.016L192.4 149.147L192.495 149.276L202.15 142.15ZM192.26 198.5L199.041 208.4L199.055 208.391L199.07 208.381L192.26 198.5ZM101.18 177.11H89.18V189.11H101.18V177.11ZM157.07 173.2L163.637 183.244L163.682 183.214L163.726 183.185L157.07 173.2ZM157.07 148.59L150.239 158.456L150.455 158.605L150.676 158.745L157.07 148.59ZM97.96 144.45H85.96V156.45H97.96V144.45ZM97.96 112.94V100.94H85.96V112.94H97.96ZM149.71 109.03L156.458 118.953L156.458 118.953L149.71 109.03ZM149.71 85.8L142.962 95.7231L143.101 95.8171L143.241 95.9073L149.71 85.8ZM101.18 81.89V69.89H89.18V81.89H101.18ZM68.1 210V49H44.1V210H68.1ZM56.1 61H138.44V37H56.1V61ZM138.44 61C158.494 61 171.21 64.7722 178.62 70.33L193.02 51.13C179.577 41.0478 160.706 37 138.44 37V61ZM178.711 70.3978C186.169 75.8814 189.46 82.4639 189.46 91.09H213.46C213.46 74.5694 206.324 60.9119 192.929 51.0622L178.711 70.3978ZM189.46 91.09C189.46 97.085 187.897 101.905 184.993 106.01L204.587 119.87C210.577 111.401 213.46 101.655 213.46 91.09H189.46ZM184.959 106.058C182.08 110.172 177.743 113.819 171.361 116.764L181.419 138.556C190.983 134.141 198.914 127.974 204.621 119.822L184.959 106.058ZM171.457 116.721C165.545 119.387 157.958 120.95 148.33 120.95V144.95C160.476 144.95 171.595 142.986 181.323 138.599L171.457 116.721ZM159.407 137.565L164.007 126.525L141.853 117.295L137.253 128.335L159.407 137.565ZM152.93 133.91C163.059 133.91 171.311 135.486 177.97 138.271L187.23 116.129C177.022 111.86 165.495 109.91 152.93 109.91V133.91ZM178.143 138.342C184.694 140.962 189.217 144.585 192.308 149.016L211.992 135.284C205.883 126.529 197.372 120.185 187.057 116.058L178.143 138.342ZM192.495 149.276C195.479 153.319 197.28 158.604 197.28 165.84H221.28C221.28 154.369 218.327 143.861 211.805 135.024L192.495 149.276ZM197.28 165.84C197.28 175.906 193.499 183.072 185.45 188.619L199.07 208.381C213.715 198.288 221.28 183.681 221.28 165.84H197.28ZM185.479 188.6C177.148 194.306 163.559 198 143.04 198V222C165.761 222 184.986 218.027 199.041 208.4L185.479 188.6ZM143.04 198H56.1V222H143.04V198ZM101.18 189.11H139.36V165.11H101.18V189.11ZM139.36 189.11C148.161 189.11 156.812 187.706 163.637 183.244L150.503 163.156C149.355 163.907 146.199 165.11 139.36 165.11V189.11ZM163.726 183.185C171.613 177.927 175.28 169.796 175.28 160.78H151.28C151.28 162.033 151.051 162.546 150.994 162.658C150.963 162.721 150.881 162.904 150.414 163.215L163.726 183.185ZM175.28 160.78C175.28 151.763 171.592 143.553 163.464 138.435L150.676 158.745C150.897 158.884 150.985 158.975 151.004 158.995C151.019 159.012 151.024 159.017 151.035 159.04C151.048 159.065 151.28 159.52 151.28 160.78H175.28ZM163.901 138.724C157.018 133.959 148.253 132.45 139.36 132.45V156.45C146.107 156.45 149.149 157.701 150.239 158.456L163.901 138.724ZM139.36 132.45H97.96V156.45H139.36V132.45ZM109.96 144.45V112.94H85.96V144.45H109.96ZM97.96 124.94H132.46V100.94H97.96V124.94ZM132.46 124.94C141.112 124.94 149.716 123.537 156.458 118.953L142.962 99.1069C142.037 99.736 139.142 100.94 132.46 100.94V124.94ZM156.458 118.953C164.028 113.806 167.46 105.908 167.46 97.3H143.46C143.46 98.4328 143.256 98.8429 143.247 98.8606C143.238 98.879 143.237 98.8809 143.228 98.8912C143.216 98.9046 143.146 98.9822 142.962 99.1069L156.458 118.953ZM167.46 97.3C167.46 88.6942 164.009 80.704 156.179 75.6927L143.241 95.9073C143.38 95.9961 143.403 96.033 143.371 95.9977C143.335 95.959 143.304 95.9104 143.289 95.8816C143.253 95.8096 143.46 96.1589 143.46 97.3H167.46ZM156.458 75.8769C149.716 71.2927 141.112 69.89 132.46 69.89V93.89C139.142 93.89 142.037 95.094 142.962 95.7231L156.458 75.8769ZM132.46 69.89H101.18V93.89H132.46V69.89ZM89.18 81.89V177.11H113.18V81.89H89.18Z" fill="var(--pageColor)" mask="url(#path-2-outside-1_808_8)"/> <path d="M56.1 210V49H138.44C159.6 49 175.393 52.91 185.82 60.73C196.247 68.3967 201.46 78.5167 201.46 91.09C201.46 99.37 199.237 106.653 194.79 112.94C190.497 119.073 184.363 123.98 176.39 127.66C168.57 131.187 159.217 132.95 148.33 132.95L152.93 121.91C164.277 121.91 174.167 123.673 182.6 127.2C191.033 130.573 197.55 135.557 202.15 142.15C206.903 148.59 209.28 156.487 209.28 165.84C209.28 179.793 203.607 190.68 192.26 198.5C181.067 206.167 164.66 210 143.04 210H56.1ZM101.18 177.11H139.36C147.18 177.11 153.083 175.807 157.07 173.2C161.21 170.44 163.28 166.3 163.28 160.78C163.28 155.26 161.21 151.197 157.07 148.59C153.083 145.83 147.18 144.45 139.36 144.45H97.96V112.94H132.46C140.127 112.94 145.877 111.637 149.71 109.03C153.543 106.423 155.46 102.513 155.46 97.3C155.46 92.0867 153.543 88.2533 149.71 85.8C145.877 83.1933 140.127 81.89 132.46 81.89H101.18V177.11Z" fill="var(--darkGray)"/> </g> </svg>