<svg viewBox="0 0 256 256" fill="none" xmlns="http://www.w3.org/2000/svg"> <mask id="mask0_673_23" style="mask-type:alpha" maskUnits="userSpaceOnUse" x="0" y="0" width="256" height="256"> <rect width="256" height="256" fill="var(--gray)"/> </mask> <g mask="url(#mask0_673_23)"> <path d="M170.895 45H85.3463C67.613 45 53.7495 60.2992 55.4914 77.9467L65.9071 183.474C67.4224 198.827 80.3347 210.528 95.762 210.528H160.479C175.906 210.528 188.819 198.827 190.334 183.474L200.75 77.9467C202.492 60.2992 188.628 45 170.895 45Z" fill="var(--pageColor)" stroke="var(--pageColor)" stroke-width="34"/> <path d="M128.811 171.731L128.811 83.0442" stroke="var(--darkGray)" stroke-width="14" stroke-linecap="round"/> <path d="M100.615 172.88L95.0507 83.8926" stroke="var(--darkGray)" stroke-width="14" stroke-linecap="round"/> <path d="M156.256 172.88L161.82 83.8926" stroke="var(--darkGray)" stroke-width="14" stroke-linecap="round"/> <path d="M170.895 51H85.3463C71.1597 51 60.0689 63.2393 61.4623 77.3574L71.8781 182.885C73.0903 195.167 83.4201 204.528 95.762 204.528H160.479C172.821 204.528 183.151 195.167 184.363 182.885L194.779 77.3574C196.172 63.2394 185.082 51 170.895 51Z" stroke="var(--darkGray)" stroke-width="22"/> </g> </svg>