<svg viewBox="0 0 256 256" fill="none" xmlns="http://www.w3.org/2000/svg"> <mask id="mask0_2337_30" style="mask-type:alpha" maskUnits="userSpaceOnUse" x="0" y="0" width="256" height="256"> <rect width="256" height="256" fill="var(--gray)"/> </mask> <g mask="url(#mask0_2337_30)"> <path d="M58 102V78C58 66.9543 66.9543 58 78 58H102" stroke="var(--pageColor)" stroke-width="44" stroke-linecap="round"/> <path d="M198 102V78C198 66.9543 189.046 58 178 58H154" stroke="var(--pageColor)" stroke-width="44" stroke-linecap="round"/> <path d="M58 154V178C58 189.046 66.9543 198 78 198H102" stroke="var(--pageColor)" stroke-width="44" stroke-linecap="round"/> <path d="M198 154V178C198 189.046 189.046 198 178 198H154" stroke="var(--pageColor)" stroke-width="44" stroke-linecap="round"/> <path d="M58 102V78C58 66.9543 66.9543 58 78 58H102" stroke="var(--darkGray)" stroke-width="20" stroke-linecap="round"/> <path d="M198 102V78C198 66.9543 189.046 58 178 58H154" stroke="var(--darkGray)" stroke-width="20" stroke-linecap="round"/> <path d="M58 154V178C58 189.046 66.9543 198 78 198H102" stroke="var(--darkGray)" stroke-width="20" stroke-linecap="round"/> <path d="M198 154V178C198 189.046 189.046 198 178 198H154" stroke="var(--darkGray)" stroke-width="20" stroke-linecap="round"/> </g> </svg>