<svg viewBox="0 0 256 256" fill="none" xmlns="http://www.w3.org/2000/svg">
<mask id="mask0_1893_2" style="mask-type:alpha" maskUnits="userSpaceOnUse" x="0" y="0" width="256" height="256">
<rect width="256" height="256" fill="#D9D9D9"/>
</mask>
<g mask="url(#mask0_1893_2)">
<path d="M154.613 154.645L158.856 158.888L163.098 154.645L196.12 121.623C206.274 111.469 206.274 95.0072 196.12 84.8535L170.166 58.8995C160.012 48.7459 143.55 48.7459 133.396 58.8995L100.375 91.9214L96.1319 96.164L100.375 100.407L154.613 154.645Z" fill="#2F2F2F" stroke="white" stroke-width="12"/>
<path d="M154.626 163.118L158.908 158.875L154.645 154.613L100.407 100.375L96.1646 96.1319L91.9219 100.375L58.9 133.396C48.7463 143.55 48.7463 160.012 58.9 170.166L79.1943 190.46C82.945 194.211 88.0321 196.318 93.3365 196.318L112.889 196.318C118.161 196.318 123.221 194.236 126.966 190.525L154.626 163.118Z" fill="#2F2F2F" stroke="white" stroke-width="12"/>
</g>
</svg>
