<svg width="256" height="256" viewBox="0 0 256 256" fill="none" xmlns="http://www.w3.org/2000/svg">
<mask id="mask0_4071_90" style="mask-type:alpha" maskUnits="userSpaceOnUse" x="0" y="0" width="256" height="256">
<rect width="256" height="256" fill="var(--gray)"/>
</mask>
<g mask="url(#mask0_4071_90)">
<path d="M163.993 67C168.456 67.0001 172.875 67.8825 176.999 69.5967C181.123 71.3109 184.872 73.8239 188.029 76.9932L188.031 76.9951C191.19 80.1629 193.697 83.9252 195.408 88.0674C197.119 92.2097 198 96.6508 198 101.136C198 105.621 197.119 110.061 195.408 114.203C193.697 118.345 191.19 122.108 188.031 125.276L188.03 125.277L129.414 184.08C128.633 184.864 127.364 184.864 126.582 184.08L67.9658 125.277C61.5869 118.878 58.0001 110.194 58 101.136C58 92.0774 61.587 83.3936 67.9658 76.9941C74.3442 70.5953 82.9918 67.0039 92.0039 67.0039C101.016 67.004 109.663 70.5955 116.041 76.9941L118.083 79.043C123.554 84.531 132.442 84.531 137.913 79.043L139.955 76.9941L139.956 76.9932C143.114 73.8239 146.862 71.3109 150.986 69.5967C155.11 67.8824 159.53 67 163.993 67Z" stroke="var(--pageColor)" stroke-width="12" stroke-linecap="round" stroke-linejoin="round"/>
<path d="M163.993 45C171.356 45.0001 178.645 46.4552 185.443 49.2812C192.242 52.1074 198.417 56.2482 203.614 61.4648H203.613C208.811 66.6779 212.932 72.864 215.742 79.6689C218.554 86.4759 220 93.7705 220 101.136C220 108.501 218.554 115.795 215.742 122.602C212.931 129.407 208.809 135.594 203.61 140.808L144.996 199.611C135.617 209.02 120.379 209.02 111 199.611L52.3848 140.809C41.8878 130.278 36.0001 116.006 36 101.136C36 86.2653 41.8879 71.9935 52.3848 61.4629C62.8835 50.9305 77.1343 45.0039 92.0039 45.0039C105.226 45.004 117.957 49.6907 127.997 58.1338C132.359 54.4648 137.262 51.4761 142.542 49.2812C149.341 46.4551 156.631 45 163.993 45Z" stroke="var(--pageColor)" stroke-width="32" stroke-linecap="round" stroke-linejoin="round"/>
<path d="M163.993 51C170.565 51.0001 177.071 52.2994 183.141 54.8223C189.208 57.3445 194.719 61.0399 199.359 65.6963C204.003 70.3523 207.685 75.8796 210.196 81.96C212.708 88.0401 214 94.5561 214 101.136C214 107.715 212.708 114.231 210.196 120.312C207.685 126.392 204.004 131.918 199.36 136.574L199.359 136.573L140.746 195.376C133.712 202.432 122.284 202.432 115.25 195.376L56.6348 136.572C47.2609 127.168 42.0001 114.421 42 101.136C42 87.8503 47.2609 75.1022 56.6348 65.6982C66.0097 56.2934 78.732 51.0039 92.0039 51.0039C105.276 51.004 117.997 56.2935 127.372 65.6982L127.998 66.3262L128.624 65.6982C133.265 61.041 138.776 57.3448 144.845 54.8223C150.914 52.2993 157.421 51 163.993 51Z" stroke="var(--darkGray)" stroke-width="20" stroke-linecap="round" stroke-linejoin="round"/>
</g>
</svg>
