<svg viewBox="0 0 256 256" fill="none" xmlns="http://www.w3.org/2000/svg"> <mask id="mask0_2388_117" style="mask-type:alpha" maskUnits="userSpaceOnUse" x="0" y="0" width="256" height="256"> <rect width="256" height="256" fill="var(--gray)"/> </mask> <g mask="url(#mask0_2388_117)"> <path d="M41 127.162L53.8865 111.018C91.9186 63.3708 164.349 63.3708 202.381 111.018L215.268 127.162" stroke="var(--pageColor)" stroke-width="44" stroke-linecap="round"/> <path d="M41 128L53.8865 144.144C91.9186 191.791 164.349 191.791 202.381 144.144L215.268 128" stroke="var(--pageColor)" stroke-width="44" stroke-linecap="round"/> <circle cx="128" cy="128" r="32" fill="var(--pageColor)"/> <path d="M41 127.162L53.8865 111.018C91.9186 63.3708 164.349 63.3708 202.381 111.018L215.268 127.162" stroke="var(--darkGray)" stroke-width="20" stroke-linecap="round"/> <path d="M41 128L53.8865 144.144C91.9186 191.791 164.349 191.791 202.381 144.144L215.268 128" stroke="var(--darkGray)" stroke-width="20" stroke-linecap="round"/> <circle cx="128" cy="128" r="20" fill="var(--darkGray)"/> </g> </svg>