<svg viewBox="0 0 256 256" fill="none" xmlns="http://www.w3.org/2000/svg">
<mask id="mask0_3183_13" style="mask-type:alpha" maskUnits="userSpaceOnUse" x="0" y="0" width="256" height="256">
<rect width="256" height="256" fill="#D9D9D9"/>
</mask>
<g mask="url(#mask0_3183_13)">
<path d="M119.886 197.86C123.286 207.202 133.615 212.018 142.957 208.618L168.329 199.384C177.67 195.983 182.487 185.654 179.087 176.313L162.157 129.798L102.956 151.345L119.886 197.86Z" fill="white"/>
<path d="M160.105 124.16L165.743 122.108L167.795 127.746L184.725 174.261C189.258 186.716 182.836 200.488 170.381 205.022L145.009 214.256C132.554 218.79 118.781 212.368 114.248 199.912L97.318 153.397L95.2658 147.759L100.904 145.707L160.105 124.16Z" fill="#FFC24A" fill-opacity="0.75" stroke="white" stroke-width="12"/>
<path d="M114.608 183.358L108.97 185.41L106.918 179.772L71.5184 82.5136C66.985 70.0582 73.4071 56.286 85.8626 51.7525L111.234 42.518C123.69 37.9846 137.462 44.4067 141.995 56.8621L177.394 154.12L179.447 159.758L173.808 161.811L114.608 183.358Z" fill="#2F2F2F" stroke="white" stroke-width="12"/>
</g>
</svg>
