<svg viewBox="0 0 256 256" fill="none" xmlns="http://www.w3.org/2000/svg"> <mask id="mask0_808_19" style="mask-type:alpha" maskUnits="userSpaceOnUse" x="0" y="0" width="256" height="256"> <rect width="256" height="256" fill="#D9D9D9"/> </mask> <g mask="url(#mask0_808_19)"> <mask id="path-2-outside-1_808_19" maskUnits="userSpaceOnUse" x="82" y="37" width="99" height="185" fill="black"> <rect fill="white" x="82" y="37" width="99" height="185"/> <path d="M96.67 210L128.87 49H166.36L134.16 210H96.67Z"/> </mask> <path d="M96.67 210L84.903 207.647L82.0324 222H96.67V210ZM128.87 49V37H119.032L117.103 46.6466L128.87 49ZM166.36 49L178.127 51.3534L180.998 37H166.36V49ZM134.16 210V222H143.998L145.927 212.353L134.16 210ZM108.437 212.353L140.637 51.3534L117.103 46.6466L84.903 207.647L108.437 212.353ZM128.87 61H166.36V37H128.87V61ZM154.593 46.6466L122.393 207.647L145.927 212.353L178.127 51.3534L154.593 46.6466ZM134.16 198H96.67V222H134.16V198Z" fill="white" mask="url(#path-2-outside-1_808_19)"/> <path d="M96.67 210L128.87 49H166.36L134.16 210H96.67Z" fill="#2F2F2F"/> </g> </svg>