<svg viewBox="0 0 256 256" fill="none" xmlns="http://www.w3.org/2000/svg">
<mask id="mask0_3183_52" style="mask-type:alpha" maskUnits="userSpaceOnUse" x="0" y="0" width="256" height="256">
<rect width="256" height="256" fill="#D9D9D9"/>
</mask>
<g mask="url(#mask0_3183_52)">
<mask id="path-2-outside-1_3183_52" maskUnits="userSpaceOnUse" x="14" y="35" width="228" height="187" fill="black">
<rect fill="white" x="14" y="35" width="228" height="187"/>
<path fill-rule="evenodd" clip-rule="evenodd" d="M199.316 89.3961C211.023 89.3961 220.514 79.9054 220.514 68.198C220.514 56.4907 211.023 47 199.316 47C187.608 47 178.118 56.4907 178.118 68.198C178.118 79.9054 187.608 89.3961 199.316 89.3961ZM86.563 88.9414C91.7592 79.9414 104.75 79.9414 109.946 88.9414L143.937 147.816L161.99 116.548C167.186 107.548 180.177 107.548 185.373 116.548L227.311 189.186C232.507 198.186 226.011 209.436 215.619 209.436H131.744C130.84 209.436 129.966 209.351 129.127 209.19H40.5201C30.1278 209.19 23.6326 197.94 28.8288 188.94L86.563 88.9414Z"/>
</mask>
<path fill-rule="evenodd" clip-rule="evenodd" d="M199.316 89.3961C211.023 89.3961 220.514 79.9054 220.514 68.198C220.514 56.4907 211.023 47 199.316 47C187.608 47 178.118 56.4907 178.118 68.198C178.118 79.9054 187.608 89.3961 199.316 89.3961ZM86.563 88.9414C91.7592 79.9414 104.75 79.9414 109.946 88.9414L143.937 147.816L161.99 116.548C167.186 107.548 180.177 107.548 185.373 116.548L227.311 189.186C232.507 198.186 226.011 209.436 215.619 209.436H131.744C130.84 209.436 129.966 209.351 129.127 209.19H40.5201C30.1278 209.19 23.6326 197.94 28.8288 188.94L86.563 88.9414Z" fill="#2F2F2F"/>
<path d="M109.946 88.9414L99.5534 94.9414L99.5534 94.9414L109.946 88.9414ZM86.563 88.9414L96.9553 94.9414L96.9553 94.9414L86.563 88.9414ZM143.937 147.816L133.545 153.816L143.937 171.816L154.33 153.816L143.937 147.816ZM161.99 116.548L172.382 122.548L172.382 122.548L161.99 116.548ZM185.373 116.548L174.98 122.548L174.98 122.548L185.373 116.548ZM227.311 189.186L237.703 183.186L237.703 183.186L227.311 189.186ZM129.127 209.19L131.39 197.405L130.268 197.19H129.127V209.19ZM28.8288 188.94L18.4365 182.94L28.8288 188.94ZM208.514 68.198C208.514 73.278 204.396 77.3961 199.316 77.3961V101.396C217.65 101.396 232.514 86.5328 232.514 68.198H208.514ZM199.316 59C204.396 59 208.514 63.1181 208.514 68.198H232.514C232.514 49.8633 217.65 35 199.316 35V59ZM190.118 68.198C190.118 63.1181 194.236 59 199.316 59V35C180.981 35 166.118 49.8633 166.118 68.198H190.118ZM199.316 77.3961C194.236 77.3961 190.118 73.278 190.118 68.198H166.118C166.118 86.5328 180.981 101.396 199.316 101.396V77.3961ZM120.338 82.9414C110.523 65.9414 85.9857 65.9414 76.1707 82.9414L96.9553 94.9414C97.1463 94.6106 97.3363 94.4627 97.4953 94.3746C97.6863 94.2687 97.9483 94.1914 98.2544 94.1914C98.5604 94.1914 98.8224 94.2687 99.0134 94.3746C99.1724 94.4627 99.3624 94.6106 99.5534 94.9414L120.338 82.9414ZM154.329 141.816L120.338 82.9414L99.5534 94.9414L133.545 153.816L154.329 141.816ZM151.598 110.548L133.545 141.816L154.33 153.816L172.382 122.548L151.598 110.548ZM195.765 110.548C185.95 93.5478 161.413 93.5479 151.598 110.548L172.382 122.548C172.573 122.217 172.763 122.069 172.922 121.981C173.113 121.875 173.375 121.798 173.681 121.798C173.987 121.798 174.249 121.875 174.441 121.981C174.599 122.069 174.789 122.217 174.98 122.548L195.765 110.548ZM237.703 183.186L195.765 110.548L174.98 122.548L216.918 195.186L237.703 183.186ZM215.619 221.436C235.249 221.436 247.518 200.186 237.703 183.186L216.918 195.186C217.109 195.517 217.142 195.755 217.139 195.937C217.135 196.156 217.071 196.421 216.918 196.686C216.765 196.951 216.567 197.139 216.38 197.252C216.224 197.346 216.001 197.436 215.619 197.436V221.436ZM131.744 221.436H215.619V197.436H131.744V221.436ZM126.864 220.975C128.453 221.28 130.085 221.436 131.744 221.436V197.436C131.596 197.436 131.479 197.422 131.39 197.405L126.864 220.975ZM40.5201 221.19H129.127V197.19H40.5201V221.19ZM18.4365 182.94C8.62154 199.94 20.8902 221.19 40.5201 221.19V197.19C40.1382 197.19 39.9151 197.099 39.7593 197.006C39.572 196.893 39.3741 196.705 39.2211 196.44C39.0681 196.175 39.004 195.909 39.0002 195.691C38.997 195.509 39.0301 195.271 39.2211 194.94L18.4365 182.94ZM76.1707 82.9414L18.4365 182.94L39.2211 194.94L96.9553 94.9414L76.1707 82.9414Z" fill="white" mask="url(#path-2-outside-1_3183_52)"/>
</g>
</svg>
