<svg width="175" height="175" viewBox="0 0 175 175" fill="none" xmlns="http://www.w3.org/2000/svg">
<path fill-rule="evenodd" clip-rule="evenodd" d="M87.5 0C81.6665 0 75.9587 0.571969 70.4321 1.6653C70.2591 1.69952 70.0886 1.73907 69.9206 1.78376C58.9626 4.03128 48.5327 8.36103 39.2041 14.5355C39.0944 14.6017 38.9856 14.6708 38.878 14.7428C34.2764 17.8235 29.9838 21.3289 26.056 25.2032C25.9129 25.3444 25.7703 25.486 25.6282 25.6282C21.5849 29.6714 17.9358 34.1087 14.7428 38.878C14.6707 38.9856 14.6017 39.0944 14.5355 39.2041C8.36103 48.5327 4.03129 58.9626 1.78376 69.9206C1.73907 70.0886 1.69952 70.2591 1.6653 70.4321C0.571969 75.9587 0 81.6665 0 87.5C0 93.3335 0.571969 99.0413 1.6653 104.568C1.69952 104.741 1.73907 104.911 1.78376 105.079C4.03128 116.037 8.36103 126.467 14.5355 135.796C14.6017 135.906 14.6708 136.014 14.7428 136.122C17.811 140.705 21.3005 144.981 25.1562 148.896C25.3129 149.055 25.4702 149.214 25.6281 149.372C26.1376 149.881 26.6533 150.384 27.1751 150.881C30.7949 154.327 34.7097 157.467 38.878 160.257C38.9856 160.329 39.0944 160.398 39.2041 160.464C48.5327 166.639 58.9626 170.969 69.9205 173.216C70.0885 173.261 70.2591 173.3 70.4321 173.335C75.9587 174.428 81.6665 175 87.5 175C93.3335 175 99.0413 174.428 104.568 173.335C108.902 172.477 111.721 168.269 110.863 163.934C110.006 159.6 105.797 156.781 101.463 157.639C96.9533 158.531 92.2854 159 87.5 159V87.5V16C92.2854 16 96.9533 16.469 101.463 17.3611C105.797 18.2186 110.006 15.4 110.863 11.0658C111.721 6.73148 108.902 2.52275 104.568 1.6653C99.0413 0.571969 93.3335 0 87.5 0ZM136.122 14.7428C132.451 12.2848 127.482 13.2685 125.024 16.94C122.566 20.6114 123.549 25.5803 127.221 28.0383C135.022 33.2607 141.739 39.9785 146.962 47.7791C149.42 51.4506 154.389 52.4343 158.06 49.9763C161.731 47.5183 162.715 42.5494 160.257 38.878C153.871 29.3394 145.661 21.1287 136.122 14.7428ZM173.335 70.4321C172.477 66.0978 168.269 63.2793 163.934 64.1367C159.6 64.9942 156.781 69.2029 157.639 73.5372C158.531 78.0467 159 82.7146 159 87.5C159 92.2854 158.531 96.9533 157.639 101.463C156.781 105.797 159.6 110.006 163.934 110.863C168.269 111.721 172.477 108.902 173.335 104.568C174.428 99.0413 175 93.3335 175 87.5C175 81.6665 174.428 75.9587 173.335 70.4321ZM160.257 136.122C162.715 132.451 161.731 127.482 158.06 125.024C154.389 122.566 149.42 123.549 146.962 127.221C141.739 135.022 135.022 141.739 127.221 146.962C123.549 149.42 122.566 154.389 125.024 158.06C127.482 161.731 132.451 162.715 136.122 160.257C145.661 153.871 153.871 145.661 160.257 136.122Z" fill="var(--toolColor)"/>
</svg>
