<svg viewBox="0 0 256 256" fill="none" xmlns="http://www.w3.org/2000/svg">
<mask id="mask0_1880_2" style="mask-type:alpha" maskUnits="userSpaceOnUse" x="0" y="0" width="256" height="256">
<rect width="256" height="256" fill="#D9D9D9"/>
</mask>
<g mask="url(#mask0_1880_2)">
<circle cx="128.5" cy="127.5" r="95.5" fill="white" stroke="white" stroke-width="16" stroke-miterlimit="3.99393" stroke-linecap="round"/>
<path fill-rule="evenodd" clip-rule="evenodd" d="M128.5 40C122.667 40 116.959 40.572 111.432 41.6653C111.259 41.6995 111.089 41.7391 110.921 41.7838C99.9626 44.0313 89.5327 48.361 80.2041 54.5355C80.0944 54.6017 79.9856 54.6708 79.878 54.7428C75.2764 57.8235 70.9838 61.3289 67.056 65.2032C66.9129 65.3444 66.7703 65.486 66.6282 65.6282C62.5849 69.6714 58.9358 74.1087 55.7428 78.878C55.6707 78.9856 55.6017 79.0944 55.5355 79.2041C49.361 88.5327 45.0313 98.9626 42.7838 109.921C42.7391 110.089 42.6995 110.259 42.6653 110.432C41.572 115.959 41 121.667 41 127.5C41 133.333 41.572 139.041 42.6653 144.568C42.6995 144.741 42.7391 144.911 42.7838 145.079C45.0313 156.037 49.361 166.467 55.5355 175.796C55.6017 175.906 55.6708 176.014 55.7428 176.122C58.811 180.705 62.3005 184.981 66.1562 188.896C66.3129 189.055 66.4702 189.214 66.6281 189.372C67.1376 189.881 67.6533 190.384 68.1751 190.881C71.7949 194.327 75.7097 197.467 79.878 200.257C79.9856 200.329 80.0944 200.398 80.2041 200.464C89.5327 206.639 99.9626 210.969 110.921 213.216C111.089 213.261 111.259 213.3 111.432 213.335C116.959 214.428 122.667 215 128.5 215C134.333 215 140.041 214.428 145.568 213.335C149.902 212.477 152.721 208.269 151.863 203.934C151.006 199.6 146.797 196.781 142.463 197.639C137.953 198.531 133.285 199 128.5 199V127.5V56C133.285 56 137.953 56.469 142.463 57.3611C146.797 58.2186 151.006 55.4 151.863 51.0658C152.721 46.7315 149.902 42.5228 145.568 41.6653C140.041 40.572 134.333 40 128.5 40ZM177.122 54.7428C173.451 52.2848 168.482 53.2685 166.024 56.94C163.566 60.6114 164.549 65.5803 168.221 68.0383C176.022 73.2607 182.739 79.9785 187.962 87.7791C190.42 91.4506 195.389 92.4343 199.06 89.9763C202.731 87.5183 203.715 82.5494 201.257 78.878C194.871 69.3394 186.661 61.1287 177.122 54.7428ZM214.335 110.432C213.477 106.098 209.269 103.279 204.934 104.137C200.6 104.994 197.781 109.203 198.639 113.537C199.531 118.047 200 122.715 200 127.5C200 132.285 199.531 136.953 198.639 141.463C197.781 145.797 200.6 150.006 204.934 150.863C209.269 151.721 213.477 148.902 214.335 144.568C215.428 139.041 216 133.333 216 127.5C216 121.667 215.428 115.959 214.335 110.432ZM201.257 176.122C203.715 172.451 202.731 167.482 199.06 165.024C195.389 162.566 190.42 163.549 187.962 167.221C182.739 175.022 176.022 181.739 168.221 186.962C164.549 189.42 163.566 194.389 166.024 198.06C168.482 201.731 173.451 202.715 177.122 200.257C186.661 193.871 194.871 185.661 201.257 176.122Z" fill="var(--toolColor)"/>
</g>
</svg>
