<svg viewBox="0 0 256 256" fill="none" xmlns="http://www.w3.org/2000/svg">
<mask id="mask0_2372_2" style="mask-type:alpha" maskUnits="userSpaceOnUse" x="0" y="0" width="256" height="256">
<rect width="256" height="256" fill="#D9D9D9"/>
</mask>
<g mask="url(#mask0_2372_2)">
<path d="M87 41C72.6406 41 61 52.6406 61 67V188.211C61 202.487 72.5109 214.093 86.7864 214.21L168.786 214.884C183.229 215.002 195 203.327 195 188.885V67C195 52.6406 183.359 41 169 41H87Z" fill="white" stroke="white" stroke-width="24"/>
<path d="M87 47C75.9543 47 67 55.9543 67 67V188.211C67 199.193 75.8545 208.12 86.8357 208.21L168.836 208.884C179.945 208.975 189 199.994 189 188.885V67C189 55.9543 180.046 47 169 47H87Z" stroke="#2F2F2F" stroke-width="12"/>
<path d="M68 58C68 52.4772 72.4772 48 78 48H156V64C156 69.5228 151.523 74 146 74H68V58Z" fill="#2F2F2F"/>
</g>
</svg>
