<svg viewBox="0 0 256 256" fill="none" xmlns="http://www.w3.org/2000/svg">
<mask id="mask0_2372_2" style="mask-type:alpha" maskUnits="userSpaceOnUse" x="0" y="0" width="256" height="256">
<rect width="256" height="256" fill="var(--gray)"/>
</mask>
<g mask="url(#mask0_2372_2)">
<path d="M169 41C183.359 41 195 52.6406 195 67V189C195 203.359 183.359 215 169 215H87C72.6406 215 61 203.359 61 189V67C61 52.6406 72.6406 41 87 41H169Z" fill="var(--pageColor)" stroke="var(--pageColor)" stroke-width="24"/>
<path d="M169 47C180.046 47 189 55.9543 189 67V189C189 200.046 180.046 209 169 209H87C75.9543 209 67 200.046 67 189V67C67 55.9543 75.9543 47 87 47H169Z" stroke="var(--darkGray)" stroke-width="12"/>
<path d="M68 58C68 52.4772 72.4772 48 78 48H156V64C156 69.5228 151.523 74 146 74H68V58Z" fill="var(--darkGray)"/>
</g>
</svg>
