<svg viewBox="0 0 256 256" fill="none" xmlns="http://www.w3.org/2000/svg">
<mask id="mask0_134_57" style="mask-type:alpha" maskUnits="userSpaceOnUse" x="0" y="0" width="256" height="256">
<rect width="256" height="256" fill="var(--gray)"/>
</mask>
<g mask="url(#mask0_134_57)">
<path d="M80.8849 75.7621L46.135 167.183C40.6624 181.581 51.2972 197 66.6995 197H150.812C161.607 197 171.279 190.329 175.115 180.238L209.865 88.8167C215.338 74.4194 204.703 59 189.301 59H105.188C94.3929 59 84.7206 65.671 80.8849 75.7621Z" stroke="var(--pageColor)" stroke-width="32"/>
<path d="M66.6995 175L101.449 83.5788C102.039 82.0263 103.528 81 105.188 81L189.301 81L154.551 172.421C153.961 173.974 152.472 175 150.812 175H66.6995Z" stroke="var(--pageColor)" stroke-width="12"/>
<path d="M86.4934 77.8939L51.7435 169.315C47.7634 179.786 55.4978 191 66.6995 191H150.812C159.116 191 166.556 185.868 169.507 178.106L204.257 86.6849C208.237 76.2141 200.502 65 189.301 65H105.188C96.8842 65 89.4439 70.1315 86.4934 77.8939Z" stroke="var(--darkGray)" stroke-width="20"/>
</g>
</svg>
