<svg viewBox="0 0 256 256" fill="none" xmlns="http://www.w3.org/2000/svg">
<mask id="mask0_4072_27" style="mask-type:alpha" maskUnits="userSpaceOnUse" x="0" y="0" width="256" height="256">
<rect width="256" height="256" fill="var(--gray)"/>
</mask>
<g mask="url(#mask0_4072_27)">
<path d="M89.4227 75.1817C91.8454 70.9856 96.2583 68.35 101.079 68.1892L101.547 68.1817L154.454 68.1816C159.455 68.1818 164.077 70.8499 166.578 75.1813L193.031 120.999C195.532 125.331 195.531 130.668 193.031 134.999L166.577 180.817C164.155 185.014 159.742 187.649 154.921 187.81L154.453 187.817L101.547 187.818C96.5451 187.817 91.9232 185.149 89.4224 180.818L62.9693 135C60.4686 130.668 60.4688 125.331 62.9694 121L89.4227 75.1817Z" stroke="var(--pageColor)" stroke-width="12"/>
<path d="M70.6758 63.6622C77.1728 52.8303 88.8866 46.1816 101.547 46.1816L154.453 46.1814C167.315 46.1816 179.2 53.043 185.63 64.1813L212.083 109.999C218.514 121.138 218.514 134.861 212.083 145.999L185.63 191.818C179.3 202.782 167.685 209.602 155.056 209.812L154.453 209.818L101.547 209.818C88.6853 209.818 76.8006 202.956 70.3698 191.818L43.9167 146C37.4861 134.861 37.4862 121.138 43.9168 110L70.3701 64.1816L70.6758 63.6622Z" stroke="var(--pageColor)" stroke-width="32"/>
<path d="M75.8208 66.7494C81.235 57.7225 90.9965 52.1817 101.547 52.1817L154.454 52.1816C165.171 52.1817 175.075 57.8995 180.434 67.1813L206.887 112.999C212.246 122.281 212.246 133.717 206.887 142.999L180.434 188.817C175.159 197.955 165.479 203.638 154.955 203.813L154.453 203.817L101.547 203.818C90.8289 203.817 80.9249 198.1 75.566 188.818L49.1129 143C43.754 133.718 43.7543 122.282 49.113 113L75.5663 67.1817L75.8208 66.7494Z" stroke="var(--darkGray)" stroke-width="20"/>
</g>
</svg>
