<svg viewBox="0 0 256 256" fill="none" xmlns="http://www.w3.org/2000/svg">
<mask id="mask0_3187_69" style="mask-type:alpha" maskUnits="userSpaceOnUse" x="0" y="0" width="256" height="256">
<rect width="256" height="256" fill="#D9D9D9"/>
</mask>
<g mask="url(#mask0_3187_69)">
<path d="M208.563 111.418C194.902 131.023 177.294 154.298 160.5 171.466V214.5C160.5 220.023 156.023 224.5 150.5 224.5H63.5C59.9113 224.5 56.7642 222.609 55 219.77C53.2357 222.609 50.0886 224.5 46.5 224.5H30C24.4771 224.5 20 220.023 20 214.5V185.5V182C20 149.415 46.4152 123 79 123H81.5H123.5C127.252 123 132.662 120.069 139.443 113.181C145.926 106.595 152.543 97.5531 158.708 87.9967C164.845 78.4851 170.391 68.6909 174.773 60.7185C176.092 58.3203 177.27 56.1516 178.337 54.1856C179.07 52.8368 179.751 51.5835 180.389 50.4169C181.853 47.7445 183.156 45.4087 184.056 44.1003C187.552 39.0157 193.352 34.4588 200.436 32.6279C207.744 30.739 216.094 31.8475 224.04 37.6552C231.942 43.4295 235.151 50.4625 235.898 56.9372C236.614 63.1452 235.02 68.4135 234.192 70.897C233.92 71.7129 233.451 72.6295 233.099 73.2957C232.674 74.0986 232.123 75.0825 231.469 76.2102C230.156 78.4725 228.353 81.4451 226.148 84.9532C221.735 91.9752 215.655 101.239 208.563 111.418Z" fill="#2F2F2F" stroke="white" stroke-width="12"/>
<path d="M154.5 214.5V169C188.373 135.134 227 73.4993 228.5 68.9997C230 64.5 233.5 52 220.5 42.4994C207.5 32.9988 194.5 39.5001 189 47.4996C183.5 55.4992 149 129 123.5 129H81.5H79C49.7289 129 26 152.729 26 182V185.5V214.5C26 216.709 27.7908 218.5 30 218.5H46.5C48.7091 218.5 50.5 216.709 50.5 214.5V188C50.5 185.514 52.5147 183.5 55 183.5C57.4852 183.5 59.5 185.514 59.5 188V214.5C59.5 216.709 61.2908 218.5 63.5 218.5H150.5C152.709 218.5 154.5 216.709 154.5 214.5Z" fill="#2F2F2F"/>
<circle cx="40" cy="40" r="46" transform="matrix(-1 0 0 1 147.5 37)" fill="#2F2F2F" stroke="white" stroke-width="12"/>
</g>
</svg>
