<svg viewBox="0 0 256 256" fill="none" xmlns="http://www.w3.org/2000/svg"> <mask id="mask0_1765_4" style="mask-type:alpha" maskUnits="userSpaceOnUse" x="0" y="0" width="256" height="256"> <rect width="256" height="256" fill="#C4C4C4"/> </mask> <g mask="url(#mask0_1765_4)"> <mask id="path-2-outside-1_1765_4" maskUnits="userSpaceOnUse" x="33" y="33.8643" width="190" height="190" fill="black"> <rect fill="var(--pageColor)" x="33" y="33.8643" width="190" height="190"/> <path fill-rule="evenodd" clip-rule="evenodd" d="M161.422 53.1009C151.092 48.4513 139.632 45.8643 127.569 45.8643C81.9673 45.8643 45 82.8316 45 128.433C45 174.035 81.9673 211.002 127.569 211.002C173.17 211.002 210.138 174.035 210.138 128.433C210.138 116.37 207.551 104.911 202.901 94.5807H199.404V111.094C199.404 120.215 192.01 127.608 182.89 127.608H177.936C168.815 127.608 161.422 120.215 161.422 111.094V94.5807H144.908C135.788 94.5807 128.394 87.1872 128.394 78.0669V73.1128C128.394 63.9925 135.788 56.599 144.908 56.599H161.422V53.1009Z"/> </mask> <path fill-rule="evenodd" clip-rule="evenodd" d="M161.422 53.1009C151.092 48.4513 139.632 45.8643 127.569 45.8643C81.9673 45.8643 45 82.8316 45 128.433C45 174.035 81.9673 211.002 127.569 211.002C173.17 211.002 210.138 174.035 210.138 128.433C210.138 116.37 207.551 104.911 202.901 94.5807H199.404V111.094C199.404 120.215 192.01 127.608 182.89 127.608H177.936C168.815 127.608 161.422 120.215 161.422 111.094V94.5807H144.908C135.788 94.5807 128.394 87.1872 128.394 78.0669V73.1128C128.394 63.9925 135.788 56.599 144.908 56.599H161.422V53.1009Z" fill="var(--pageColor)"/> <path d="M161.422 53.1009H173.422V45.3424L166.347 42.1581L161.422 53.1009ZM202.901 94.5807L213.844 89.6556L210.66 82.5807H202.901V94.5807ZM199.404 94.5807V82.5807H187.404V94.5807H199.404ZM161.422 94.5807H173.422V82.5807H161.422V94.5807ZM161.422 56.599V68.599H173.422V56.599H161.422ZM166.347 42.1581C154.499 36.8254 141.363 33.8643 127.569 33.8643V57.8643C137.901 57.8643 147.684 60.0772 156.497 64.0436L166.347 42.1581ZM127.569 33.8643C75.3399 33.8643 33 76.2042 33 128.433H57C57 89.459 88.5947 57.8643 127.569 57.8643V33.8643ZM33 128.433C33 180.662 75.3399 223.002 127.569 223.002V199.002C88.5947 199.002 57 167.407 57 128.433H33ZM127.569 223.002C179.798 223.002 222.138 180.662 222.138 128.433H198.138C198.138 167.407 166.543 199.002 127.569 199.002V223.002ZM222.138 128.433C222.138 114.639 219.177 101.504 213.844 89.6556L191.959 99.5057C195.925 108.318 198.138 118.101 198.138 128.433H222.138ZM202.901 82.5807H199.404V106.581H202.901V82.5807ZM187.404 94.5807V111.094H211.404V94.5807H187.404ZM187.404 111.094C187.404 113.587 185.383 115.608 182.89 115.608V139.608C198.638 139.608 211.404 126.842 211.404 111.094H187.404ZM182.89 115.608H177.936V139.608H182.89V115.608ZM177.936 115.608C175.443 115.608 173.422 113.587 173.422 111.094H149.422C149.422 126.842 162.188 139.608 177.936 139.608V115.608ZM173.422 111.094V94.5807H149.422V111.094H173.422ZM161.422 82.5807H144.908V106.581H161.422V82.5807ZM144.908 82.5807C142.415 82.5807 140.394 80.5598 140.394 78.0669H116.394C116.394 93.8146 129.16 106.581 144.908 106.581V82.5807ZM140.394 78.0669V73.1128H116.394V78.0669H140.394ZM140.394 73.1128C140.394 70.6199 142.415 68.599 144.908 68.599V44.599C129.16 44.599 116.394 57.365 116.394 73.1128H140.394ZM144.908 68.599H161.422V44.599H144.908V68.599ZM173.422 56.599V53.1009H149.422V56.599H173.422Z" fill="var(--pageColor)" mask="url(#path-2-outside-1_1765_4)"/> <rect x="162.854" y="25" width="35.1193" height="101.174" rx="14.2569" fill="var(--pageColor)" stroke="var(--pageColor)" stroke-width="12"/> <rect x="129.826" y="58.0273" width="101.174" height="35.1193" rx="14.2569" fill="var(--pageColor)" stroke="var(--pageColor)" stroke-width="12"/> <path fill-rule="evenodd" clip-rule="evenodd" d="M161.422 53.1009C151.092 48.4513 139.632 45.8643 127.569 45.8643C81.9673 45.8643 45 82.8316 45 128.433C45 174.035 81.9673 211.002 127.569 211.002C173.17 211.002 210.138 174.035 210.138 128.433C210.138 116.37 207.551 104.911 202.901 94.5807H199.404V111.094C199.404 116.193 197.093 120.751 193.463 123.78C193.569 125.317 193.624 126.869 193.624 128.433C193.624 164.914 164.05 194.488 127.569 194.488C91.0876 194.488 61.5138 164.914 61.5138 128.433C61.5138 91.9519 91.0876 62.378 127.569 62.378C129.133 62.378 130.685 62.4324 132.223 62.5394C135.252 58.909 139.81 56.599 144.908 56.599H161.422V53.1009Z" fill="var(--darkGray)"/> <path d="M87.936 149.074V149.074C109.825 170.963 145.313 170.963 167.202 149.074V149.074" stroke="var(--darkGray)" stroke-width="16" stroke-linecap="round"/> <circle cx="105.275" cy="107.788" r="9.90826" fill="var(--darkGray)"/> <circle cx="149.862" cy="107.788" r="9.90826" fill="var(--darkGray)"/> <rect x="168.854" y="31" width="23.1193" height="89.1743" rx="8.25688" fill="var(--darkGray)"/> <rect x="135.826" y="64.0273" width="89.1743" height="23.1193" rx="8.25688" fill="var(--darkGray)"/> </g> </svg>