<svg viewBox="0 0 256 256" fill="none" xmlns="http://www.w3.org/2000/svg">
<mask id="mask0_135_73" style="mask-type:alpha" maskUnits="userSpaceOnUse" x="0" y="0" width="256" height="256">
<rect width="256" height="256" fill="var(--gray)"/>
</mask>
<g mask="url(#mask0_135_73)">
<path d="M104.703 44.1017L59.1248 112.468C52.8547 121.874 52.8547 134.126 59.1248 143.532L104.703 211.898L118.015 203.023L104.703 211.898C115.786 228.523 140.214 228.523 151.297 211.898L196.875 143.532C203.145 134.126 203.145 121.874 196.875 112.468L151.297 44.1017L137.985 52.9769L151.297 44.1017C140.214 27.4772 115.786 27.4772 104.703 44.1017Z" stroke="var(--pageColor)" stroke-width="32"/>
<path d="M77.4299 124.672L123.008 56.3051C125.383 52.7427 130.617 52.7427 132.992 56.3051L178.57 124.672C179.914 126.687 179.914 129.313 178.57 131.328L132.992 199.695C130.617 203.257 125.383 203.257 123.008 199.695L77.4299 131.328C76.0863 129.313 76.0863 126.687 77.4299 124.672Z" stroke="var(--pageColor)" stroke-width="12"/>
<path d="M109.695 47.4299L64.1171 115.797C59.1906 123.186 59.1906 132.814 64.1171 140.203L109.695 208.57C118.403 221.632 137.597 221.632 146.305 208.57L191.883 140.203C196.809 132.814 196.809 123.186 191.883 115.797L146.305 47.4299C137.597 34.3678 118.403 34.3678 109.695 47.4299Z" stroke="var(--darkGray)" stroke-width="20"/>
</g>
</svg>
