<svg viewBox="0 0 256 256" fill="none" xmlns="http://www.w3.org/2000/svg"> <mask id="mask0_2782_5" style="mask-type:alpha" maskUnits="userSpaceOnUse" x="0" y="0" width="256" height="256"> <rect width="256" height="256" fill="#D9D9D9"/> </mask> <g mask="url(#mask0_2782_5)"> <rect x="62" y="84" width="132" height="132" rx="36" stroke="white" stroke-width="32"/> <rect x="84" y="106" width="88" height="88" rx="14" stroke="white" stroke-width="12"/> <rect x="68" y="90" width="120" height="120" rx="30" stroke="#2F2F2F" stroke-width="20"/> <path d="M166 52H188.185C209.07 52 226 68.107 226 89.8151V112" stroke="white" stroke-width="28" stroke-linecap="round"/> <path d="M174.601 80.3995C180.068 85.8668 188.932 85.8668 194.399 80.3995C199.867 74.9322 199.867 66.0678 194.399 60.6005L174.601 80.3995ZM184.899 51.1005L175 41.201L155.201 61L165.101 70.8995L184.899 51.1005ZM194.399 60.6005L184.899 51.1005L165.101 70.8995L174.601 80.3995L194.399 60.6005Z" fill="white"/> <path d="M165.101 33.1005L155.201 43L175 62.799L184.899 52.8995L165.101 33.1005ZM194.399 43.3995C199.867 37.9322 199.867 29.0678 194.399 23.6005C188.932 18.1332 180.068 18.1332 174.601 23.6005L194.399 43.3995ZM184.899 52.8995L194.399 43.3995L174.601 23.6005L165.101 33.1005L184.899 52.8995Z" fill="white"/> <path d="M155.65 61.4499C150.431 56.2309 150.431 47.7691 155.65 42.55L165.1 33.1001L184 52L165.1 70.8999L155.65 61.4499Z" fill="white"/> <path d="M166 52.001H188.185C209.07 52.001 226 68.108 226 89.8161V112.001" stroke="#2F2F2F" stroke-width="12" stroke-linecap="round"/> <path d="M180.257 74.7426C182.601 77.0858 186.399 77.0858 188.743 74.7426C191.086 72.3995 191.086 68.6005 188.743 66.2574L180.257 74.7426ZM174.243 51.7574L170 47.5147L161.515 56L165.757 60.2426L174.243 51.7574ZM188.743 66.2574L174.243 51.7574L165.757 60.2426L180.257 74.7426L188.743 66.2574Z" fill="#2F2F2F"/> <path d="M165.757 43.7574L161.515 48L170 56.4853L174.243 52.2426L165.757 43.7574ZM188.743 37.7426C191.086 35.3995 191.086 31.6005 188.743 29.2574C186.399 26.9142 182.601 26.9142 180.257 29.2574L188.743 37.7426ZM174.243 52.2426L188.743 37.7426L180.257 29.2574L165.757 43.7574L174.243 52.2426Z" fill="#2F2F2F"/> <path d="M161.757 56.2426C159.414 53.8995 159.414 50.1005 161.757 47.7574L166 43.5147L174.485 52L166 60.4853L161.757 56.2426Z" fill="#2F2F2F"/> </g> </svg>