<svg viewBox="0 0 256 256" fill="none" xmlns="http://www.w3.org/2000/svg">
<mask id="mask0_850_2" style="mask-type:alpha" maskUnits="userSpaceOnUse" x="0" y="0" width="256" height="256">
<rect width="256" height="256" fill="var(--gray)"/>
</mask>
<g mask="url(#mask0_850_2)">
<path d="M185 38C202.673 38 217 52.3269 217 70V145.971C217 150.797 215.061 155.421 211.62 158.805L158.709 210.834C155.343 214.144 150.81 216 146.089 216H72C54.3269 216 40 201.673 40 184V70C40 52.3269 54.3269 38 72 38H185Z" fill="var(--darkGray)" stroke="var(--pageColor)" stroke-width="12"/>
<path d="M211 144H171C156.641 144 145 155.641 145 170V210" stroke="var(--pageColor)" stroke-width="12"/>
<rect x="62" y="60" width="133" height="20" rx="10" fill="var(--pageColor)"/>
<rect x="62" y="88" width="101" height="20" rx="10" fill="var(--pageColor)"/>
</g>
</svg>
