<svg viewBox="0 0 256 256" fill="none" xmlns="http://www.w3.org/2000/svg"> <mask id="mask0_810_34" style="mask-type:alpha" maskUnits="userSpaceOnUse" x="0" y="0" width="256" height="256"> <rect width="256" height="256" fill="var(--gray)"/> </mask> <g mask="url(#mask0_810_34)"> <mask id="path-2-outside-1_810_34" maskUnits="userSpaceOnUse" x="46" y="34" width="162" height="191" fill="black"> <rect fill="white" x="46" y="34" width="162" height="191"/> <path d="M127.155 212.76C114.275 212.76 101.932 211.073 90.125 207.7C78.3184 204.173 68.8117 199.65 61.605 194.13L74.255 166.07C81.155 170.977 89.2817 175.04 98.635 178.26C108.142 181.327 117.725 182.86 127.385 182.86C134.745 182.86 140.648 182.17 145.095 180.79C149.695 179.257 153.068 177.187 155.215 174.58C157.362 171.973 158.435 168.983 158.435 165.61C158.435 161.317 156.748 157.943 153.375 155.49C150.002 152.883 145.555 150.813 140.035 149.28C134.515 147.593 128.382 146.06 121.635 144.68C115.042 143.147 108.372 141.307 101.625 139.16C95.0317 137.013 88.975 134.253 83.455 130.88C77.935 127.507 73.4117 123.06 69.885 117.54C66.5117 112.02 64.825 104.967 64.825 96.38C64.825 87.18 67.2784 78.8233 72.185 71.31C77.245 63.6433 84.7584 57.5867 94.725 53.14C104.845 48.54 117.495 46.24 132.675 46.24C142.795 46.24 152.762 47.4667 162.575 49.92C172.388 52.22 181.052 55.7467 188.565 60.5L177.065 88.79C169.552 84.4967 162.038 81.3533 154.525 79.36C147.012 77.2133 139.652 76.14 132.445 76.14C125.238 76.14 119.335 76.9833 114.735 78.67C110.135 80.3567 106.838 82.58 104.845 85.34C102.852 87.9467 101.855 91.0133 101.855 94.54C101.855 98.68 103.542 102.053 106.915 104.66C110.288 107.113 114.735 109.107 120.255 110.64C125.775 112.173 131.832 113.707 138.425 115.24C145.172 116.773 151.842 118.537 158.435 120.53C165.182 122.523 171.315 125.207 176.835 128.58C182.355 131.953 186.802 136.4 190.175 141.92C193.702 147.44 195.465 154.417 195.465 162.85C195.465 171.897 192.935 180.177 187.875 187.69C182.815 195.203 175.225 201.26 165.105 205.86C155.138 210.46 142.488 212.76 127.155 212.76Z"/> </mask> <path d="M90.125 207.7L86.6906 219.198L86.7594 219.219L86.8284 219.238L90.125 207.7ZM61.605 194.13L50.6653 189.198L46.7553 197.871L54.3081 203.657L61.605 194.13ZM74.255 166.07L81.2093 156.291L69.3141 147.832L63.3153 161.138L74.255 166.07ZM98.635 178.26L94.7289 189.606L94.8396 189.645L94.951 189.681L98.635 178.26ZM145.095 180.79L148.652 192.251L148.771 192.214L148.89 192.174L145.095 180.79ZM155.215 174.58L145.952 166.952L145.952 166.952L155.215 174.58ZM153.375 155.49L146.038 164.985L146.176 165.092L146.317 165.195L153.375 155.49ZM140.035 149.28L136.528 160.756L136.675 160.801L136.823 160.842L140.035 149.28ZM121.635 144.68L118.917 156.368L119.073 156.404L119.23 156.437L121.635 144.68ZM101.625 139.16L97.91 150.57L97.9483 150.583L97.9866 150.595L101.625 139.16ZM83.455 130.88L77.1976 141.119L77.1976 141.119L83.455 130.88ZM69.885 117.54L59.6457 123.797L59.7082 123.9L59.7727 124.001L69.885 117.54ZM72.185 71.31L62.1697 64.6999L62.1537 64.7242L62.1378 64.7485L72.185 71.31ZM94.725 53.14L99.6143 64.0988L99.6526 64.0817L99.6907 64.0644L94.725 53.14ZM162.575 49.92L159.665 61.5617L159.751 61.5832L159.837 61.6034L162.575 49.92ZM188.565 60.5L199.682 65.0189L203.46 55.7236L194.981 50.359L188.565 60.5ZM177.065 88.79L171.111 99.2089L183.018 106.012L188.182 93.3089L177.065 88.79ZM154.525 79.36L151.228 90.8983L151.338 90.9295L151.448 90.9587L154.525 79.36ZM114.735 78.67L110.604 67.4035L110.604 67.4035L114.735 78.67ZM104.845 85.34L114.377 92.6294L114.477 92.499L114.573 92.3659L104.845 85.34ZM106.915 104.66L99.5777 114.155L99.7158 114.262L99.857 114.365L106.915 104.66ZM120.255 110.64L117.043 122.202L117.043 122.202L120.255 110.64ZM138.425 115.24L135.707 126.928L135.736 126.935L135.766 126.942L138.425 115.24ZM158.435 120.53L154.962 132.017L154.999 132.027L155.035 132.038L158.435 120.53ZM176.835 128.58L183.092 118.341L183.092 118.341L176.835 128.58ZM190.175 141.92L179.936 148.177L179.998 148.28L180.063 148.381L190.175 141.92ZM187.875 187.69L197.828 194.393L197.828 194.393L187.875 187.69ZM165.105 205.86L160.139 194.936L160.108 194.95L160.076 194.964L165.105 205.86ZM127.155 200.76C115.335 200.76 104.105 199.214 93.4217 196.162L86.8284 219.238C99.7585 222.933 113.215 224.76 127.155 224.76V200.76ZM93.5595 196.202C82.6825 192.953 74.6193 188.983 68.902 184.603L54.3081 203.657C63.0042 210.317 73.9542 215.394 86.6906 219.198L93.5595 196.202ZM72.5447 199.062L85.1947 171.002L63.3153 161.138L50.6653 189.198L72.5447 199.062ZM67.3008 175.849C75.2784 181.522 84.4676 186.074 94.7289 189.606L102.541 166.914C94.0958 164.006 87.0317 160.431 81.2093 156.291L67.3008 175.849ZM94.951 189.681C105.607 193.118 116.432 194.86 127.385 194.86V170.86C119.018 170.86 110.676 169.535 102.319 166.839L94.951 189.681ZM127.385 194.86C135.337 194.86 142.586 194.133 148.652 192.251L141.538 169.329C138.711 170.207 134.153 170.86 127.385 170.86V194.86ZM148.89 192.174C154.745 190.223 160.402 187.158 164.478 182.208L145.952 166.952C145.734 167.216 144.645 168.291 141.3 169.406L148.89 192.174ZM164.478 182.208C168.392 177.456 170.435 171.77 170.435 165.61H146.435C146.435 166.197 146.331 166.491 145.952 166.952L164.478 182.208ZM170.435 165.61C170.435 157.61 167.017 150.574 160.433 145.785L146.317 165.195C146.484 165.317 146.538 165.381 146.528 165.371C146.516 165.356 146.476 165.305 146.437 165.227C146.398 165.149 146.392 165.11 146.399 165.141C146.407 165.178 146.435 165.324 146.435 165.61H170.435ZM160.712 145.995C155.767 142.173 149.778 139.532 143.247 137.718L136.823 160.842C141.332 162.095 144.236 163.594 146.038 164.985L160.712 145.995ZM143.542 137.804C137.598 135.988 131.09 134.365 124.04 132.923L119.23 156.437C125.674 157.755 131.432 159.199 136.528 160.756L143.542 137.804ZM124.353 132.992C118.084 131.534 111.721 129.779 105.263 127.725L97.9866 150.595C105.023 152.834 112 154.759 118.917 156.368L124.353 132.992ZM105.34 127.75C99.5735 125.872 94.3786 123.492 89.7124 120.641L77.1976 141.119C83.5715 145.015 90.4899 148.155 97.91 150.57L105.34 127.75ZM89.7124 120.641C85.7679 118.23 82.5555 115.083 79.9974 111.079L59.7727 124.001C64.2679 131.037 70.1022 136.783 77.1976 141.119L89.7124 120.641ZM80.1244 111.283C78.2211 108.168 76.825 103.462 76.825 96.38H52.825C52.825 106.471 54.8023 115.872 59.6457 123.797L80.1244 111.283ZM76.825 96.38C76.825 89.4481 78.6335 83.3821 82.2323 77.8715L62.1378 64.7485C55.9233 74.2645 52.825 84.9119 52.825 96.38H76.825ZM82.2004 77.9201C85.7806 72.4955 91.3377 67.7914 99.6143 64.0988L89.8357 42.1812C78.179 47.3819 68.7095 54.7911 62.1697 64.6999L82.2004 77.9201ZM99.6907 64.0644C107.791 60.3824 118.618 58.24 132.675 58.24V34.24C116.372 34.24 101.899 36.6976 89.7594 42.2156L99.6907 64.0644ZM132.675 58.24C141.814 58.24 150.804 59.3464 159.665 61.5617L165.485 38.2783C154.72 35.5869 143.776 34.24 132.675 34.24V58.24ZM159.837 61.6034C168.519 63.6382 175.907 66.692 182.149 70.6409L194.981 50.359C186.196 44.8013 176.258 40.8017 165.313 38.2366L159.837 61.6034ZM177.448 55.981L165.948 84.271L188.182 93.3089L199.682 65.0189L177.448 55.981ZM183.019 78.3711C174.702 73.6189 166.228 70.0497 157.602 67.7613L151.448 90.9587C157.849 92.657 164.401 95.3744 171.111 99.2089L183.019 78.3711ZM157.822 67.8217C149.326 65.3944 140.856 64.14 132.445 64.14V88.14C138.447 88.14 144.697 89.0323 151.228 90.8983L157.822 67.8217ZM132.445 64.14C124.431 64.14 116.994 65.0604 110.604 67.4035L118.866 89.9365C121.676 88.9062 126.046 88.14 132.445 88.14V64.14ZM110.604 67.4035C104.699 69.5687 99.0017 72.9351 95.1169 78.3141L114.573 92.3659C114.675 92.2248 115.571 91.1447 118.866 89.9365L110.604 67.4035ZM95.3127 78.0506C91.596 82.9109 89.855 88.5881 89.855 94.54H113.855C113.855 93.4385 114.107 92.9824 114.377 92.6294L95.3127 78.0506ZM89.855 94.54C89.855 102.524 93.3658 109.355 99.5777 114.155L114.252 95.1646C114.018 94.9836 113.904 94.8598 113.862 94.8099C113.823 94.7638 113.831 94.7647 113.853 94.8084C113.875 94.853 113.882 94.883 113.88 94.8728C113.877 94.8584 113.855 94.7567 113.855 94.54H89.855ZM99.857 114.365C104.736 117.913 110.621 120.418 117.043 122.202L123.467 99.0778C118.849 97.795 115.841 96.3137 113.973 94.9552L99.857 114.365ZM117.043 122.202C122.753 123.788 128.977 125.363 135.707 126.928L141.143 103.552C134.687 102.05 128.797 100.558 123.467 99.0778L117.043 122.202ZM135.766 126.942C142.24 128.413 148.639 130.105 154.962 132.017L161.908 109.043C155.045 106.969 148.103 105.134 141.085 103.538L135.766 126.942ZM155.035 132.038C160.865 133.761 166.025 136.037 170.578 138.819L183.092 118.341C176.605 114.376 169.499 111.286 161.835 109.022L155.035 132.038ZM170.578 138.819C174.473 141.2 177.555 144.282 179.936 148.177L200.414 135.663C196.048 128.518 190.237 122.707 183.092 118.341L170.578 138.819ZM180.063 148.381C182.048 151.488 183.465 156.056 183.465 162.85H207.465C207.465 152.777 205.355 143.392 200.287 135.459L180.063 148.381ZM183.465 162.85C183.465 169.505 181.65 175.452 177.922 180.987L197.828 194.393C204.221 184.902 207.465 174.288 207.465 162.85H183.465ZM177.922 180.987C174.356 186.281 168.697 191.046 160.139 194.936L170.071 216.784C181.753 211.474 191.274 204.125 197.828 194.393L177.922 180.987ZM160.076 194.964C152.182 198.608 141.397 200.76 127.155 200.76V224.76C143.58 224.76 158.095 222.312 170.134 216.756L160.076 194.964Z" fill="var(--pageColor)" mask="url(#path-2-outside-1_810_34)"/> <rect x="22" y="111" width="212" height="34" rx="17" fill="var(--darkGray)" stroke="var(--pageColor)" stroke-width="12"/> <path d="M127.155 212.76C114.275 212.76 101.932 211.073 90.125 207.7C78.3184 204.173 68.8117 199.65 61.605 194.13L74.255 166.07C81.155 170.977 89.2817 175.04 98.635 178.26C108.142 181.327 117.725 182.86 127.385 182.86C134.745 182.86 140.648 182.17 145.095 180.79C149.695 179.257 153.068 177.187 155.215 174.58C157.362 171.973 158.435 168.983 158.435 165.61C158.435 161.317 156.748 157.943 153.375 155.49C150.002 152.883 145.555 150.813 140.035 149.28C134.515 147.593 128.382 146.06 121.635 144.68C115.042 143.147 108.372 141.307 101.625 139.16C95.0317 137.013 88.975 134.253 83.455 130.88C77.935 127.507 73.4117 123.06 69.885 117.54C66.5117 112.02 64.825 104.967 64.825 96.38C64.825 87.18 67.2784 78.8233 72.185 71.31C77.245 63.6433 84.7584 57.5867 94.725 53.14C104.845 48.54 117.495 46.24 132.675 46.24C142.795 46.24 152.762 47.4667 162.575 49.92C172.388 52.22 181.052 55.7467 188.565 60.5L177.065 88.79C169.552 84.4967 162.038 81.3533 154.525 79.36C147.012 77.2133 139.652 76.14 132.445 76.14C125.238 76.14 119.335 76.9833 114.735 78.67C110.135 80.3567 106.838 82.58 104.845 85.34C102.852 87.9467 101.855 91.0133 101.855 94.54C101.855 98.68 103.542 102.053 106.915 104.66C110.288 107.113 114.735 109.107 120.255 110.64C125.775 112.173 131.832 113.707 138.425 115.24C145.172 116.773 151.842 118.537 158.435 120.53C165.182 122.523 171.315 125.207 176.835 128.58C182.355 131.953 186.802 136.4 190.175 141.92C193.702 147.44 195.465 154.417 195.465 162.85C195.465 171.897 192.935 180.177 187.875 187.69C182.815 195.203 175.225 201.26 165.105 205.86C155.138 210.46 142.488 212.76 127.155 212.76Z" fill="var(--darkGray)"/> </g> </svg>