<svg viewBox="0 0 256 256" fill="none" xmlns="http://www.w3.org/2000/svg">
<mask id="mask0_3183_36" style="mask-type:alpha" maskUnits="userSpaceOnUse" x="0" y="0" width="256" height="256">
<rect width="256" height="256" fill="#D9D9D9"/>
</mask>
<g mask="url(#mask0_3183_36)">
<mask id="path-2-outside-1_3183_36" maskUnits="userSpaceOnUse" x="19" y="57" width="229" height="143" fill="black">
<rect fill="white" x="19" y="57" width="229" height="143"/>
<path d="M71.12 188V87.7H31.68V69H132.66V87.7H93.22V188H71.12Z"/>
<path d="M129.151 188L169.101 135.98L168.761 147.37L130.681 97.22H154.311L181.001 132.92H171.991L198.851 97.22H221.801L183.381 147.37L183.551 135.98L223.331 188H199.361L171.311 150.09L180.151 151.28L152.611 188H129.151Z"/>
</mask>
<path d="M71.12 188V87.7H31.68V69H132.66V87.7H93.22V188H71.12Z" fill="#2F2F2F"/>
<path d="M129.151 188L169.101 135.98L168.761 147.37L130.681 97.22H154.311L181.001 132.92H171.991L198.851 97.22H221.801L183.381 147.37L183.551 135.98L223.331 188H199.361L171.311 150.09L180.151 151.28L152.611 188H129.151Z" fill="var(--toolColorOpacity)"/>
<path d="M71.12 188H59.12V200H71.12V188ZM71.12 87.7H83.12V75.7H71.12V87.7ZM31.68 87.7H19.68V99.7H31.68V87.7ZM31.68 69V57H19.68V69H31.68ZM132.66 69H144.66V57H132.66V69ZM132.66 87.7V99.7H144.66V87.7H132.66ZM93.22 87.7V75.7H81.22V87.7H93.22ZM93.22 188V200H105.22V188H93.22ZM83.12 188V87.7H59.12V188H83.12ZM71.12 75.7H31.68V99.7H71.12V75.7ZM43.68 87.7V69H19.68V87.7H43.68ZM31.68 81H132.66V57H31.68V81ZM120.66 69V87.7H144.66V69H120.66ZM132.66 75.7H93.22V99.7H132.66V75.7ZM81.22 87.7V188H105.22V87.7H81.22ZM93.22 176H71.12V200H93.22V176ZM129.151 188L119.634 180.691L104.805 200H129.151V188ZM169.101 135.98L181.096 136.338L182.204 99.2168L159.584 128.671L169.101 135.98ZM168.761 147.37L159.204 154.627L179.742 181.675L180.756 147.728L168.761 147.37ZM130.681 97.22V85.22H106.502L121.124 104.477L130.681 97.22ZM154.311 97.22L163.922 90.0346L160.323 85.22H154.311V97.22ZM181.001 132.92V144.92H204.955L190.612 125.735L181.001 132.92ZM171.991 132.92L162.402 125.705L147.945 144.92H171.991V132.92ZM198.851 97.22V85.22H192.863L189.262 90.0054L198.851 97.22ZM221.801 97.22L231.327 104.518L246.111 85.22H221.801V97.22ZM183.381 147.37L171.382 147.191L170.841 183.471L192.907 154.668L183.381 147.37ZM183.551 135.98L193.083 128.691L172.069 101.21L171.552 135.801L183.551 135.98ZM223.331 188V200H247.614L232.863 180.711L223.331 188ZM199.361 188L189.715 195.138L193.312 200H199.361V188ZM171.311 150.09L172.912 138.197L144.782 134.411L161.665 157.228L171.311 150.09ZM180.151 151.28L189.751 158.48L202.024 142.116L181.752 139.387L180.151 151.28ZM152.611 188V200H158.611L162.211 195.2L152.611 188ZM138.668 195.309L178.618 143.289L159.584 128.671L119.634 180.691L138.668 195.309ZM157.106 135.622L156.766 147.012L180.756 147.728L181.096 136.338L157.106 135.622ZM178.318 140.113L140.238 89.9631L121.124 104.477L159.204 154.627L178.318 140.113ZM130.681 109.22H154.311V85.22H130.681V109.22ZM144.7 104.405L171.39 140.105L190.612 125.735L163.922 90.0346L144.7 104.405ZM181.001 120.92H171.991V144.92H181.001V120.92ZM181.58 140.135L208.44 104.435L189.262 90.0054L162.402 125.705L181.58 140.135ZM198.851 109.22H221.801V85.22H198.851V109.22ZM212.275 89.9222L173.855 140.072L192.907 154.668L231.327 104.518L212.275 89.9222ZM195.38 147.549L195.55 136.159L171.552 135.801L171.382 147.191L195.38 147.549ZM174.019 143.269L213.799 195.289L232.863 180.711L193.083 128.691L174.019 143.269ZM223.331 176H199.361V200H223.331V176ZM209.008 180.862L180.958 142.952L161.665 157.228L189.715 195.138L209.008 180.862ZM169.71 161.983L178.55 163.173L181.752 139.387L172.912 138.197L169.71 161.983ZM170.551 144.08L143.011 180.8L162.211 195.2L189.751 158.48L170.551 144.08ZM152.611 176H129.151V200H152.611V176Z" fill="white" mask="url(#path-2-outside-1_3183_36)"/>
</g>
</svg>
