<svg viewBox="0 0 256 256" fill="none" xmlns="http://www.w3.org/2000/svg">
<mask id="mask0_135_65" style="mask-type:alpha" maskUnits="userSpaceOnUse" x="0" y="0" width="256" height="256">
<rect width="256" height="256" fill="var(--gray)"/>
</mask>
<g mask="url(#mask0_135_65)">
<path d="M72.4615 71.8814L43.377 167.881C37.9295 185.862 51.3863 204 70.1742 204H186.826C205.614 204 219.07 185.862 213.623 167.881L184.539 71.8814C180.961 60.0745 170.078 52 157.741 52H99.2587C86.9217 52 76.0385 60.0745 72.4615 71.8814Z" stroke="var(--pageColor)" stroke-width="32"/>
<path d="M64.4319 174.26L93.5164 78.2603C94.2829 75.7303 96.615 74 99.2587 74H157.741C160.385 74 162.717 75.7303 163.484 78.2603L192.568 174.26C193.735 178.113 190.852 182 186.826 182H70.1742C66.1482 182 63.2646 178.113 64.4319 174.26Z" stroke="var(--pageColor)" stroke-width="12"/>
<path d="M78.2037 73.6211L49.1193 169.621C44.8391 183.749 55.4123 198 70.1742 198H186.826C201.588 198 212.161 183.749 207.881 169.621L178.796 73.6211C175.986 64.3442 167.435 58 157.741 58H99.2587C89.5654 58 81.0143 64.3443 78.2037 73.6211L87.7741 76.5206L78.2037 73.6211Z" stroke="var(--darkGray)" stroke-width="20"/>
</g>
</svg>
