<svg viewBox="0 0 256 256" fill="none" xmlns="http://www.w3.org/2000/svg">
<mask id="mask0_134_41" style="mask-type:alpha" maskUnits="userSpaceOnUse" x="0" y="0" width="256" height="256">
<rect width="256" height="256" fill="var(--gray)"/>
</mask>
<g mask="url(#mask0_134_41)">
<path d="M203.978 168.037L190.107 176.012L203.978 168.037L148.806 72.0858C139.578 56.0368 116.422 56.0369 107.194 72.0858L52.0225 168.037C42.8225 184.037 54.3718 204 72.8282 204H183.172C201.628 204 213.177 184.037 203.978 168.037Z" stroke="var(--pageColor)" stroke-width="32"/>
<path d="M183.172 182H72.8282C71.2902 182 70.3277 180.336 71.0944 179.003L126.266 83.0521C127.035 81.7147 128.965 81.7147 129.734 83.0521L184.906 179.003C185.672 180.336 184.71 182 183.172 182Z" stroke="var(--pageColor)" stroke-width="12"/>
<path d="M72.8282 198H183.172C197.014 198 205.676 183.027 198.776 171.028L143.604 75.0766C136.683 63.0399 119.317 63.0399 112.396 75.0766L57.2239 171.028C50.3239 183.028 58.9859 198 72.8282 198Z" stroke="var(--darkGray)" stroke-width="20"/>
</g>
</svg>
