<svg viewBox="0 0 256 256" fill="none" xmlns="http://www.w3.org/2000/svg"> <mask id="mask0_808_24" style="mask-type:alpha" maskUnits="userSpaceOnUse" x="0" y="0" width="256" height="256"> <rect width="256" height="256" fill="var(--gray)"/> </mask> <g mask="url(#mask0_808_24)"> <mask id="path-2-outside-1_808_24" maskUnits="userSpaceOnUse" x="52" y="25" width="152" height="167" fill="black"> <rect fill="var(--textColor)" x="52" y="25" width="152" height="167"/> <path d="M127.991 179.4C108.125 179.4 92.5914 173.867 81.3914 162.8C70.1914 151.733 64.5914 135.933 64.5914 115.4V37H96.9914V114.2C96.9914 127.533 99.7247 137.133 105.191 143C110.658 148.867 118.325 151.8 128.191 151.8C138.058 151.8 145.725 148.867 151.191 143C156.658 137.133 159.391 127.533 159.391 114.2V37H191.391V115.4C191.391 135.933 185.791 151.733 174.591 162.8C163.391 173.867 147.858 179.4 127.991 179.4Z"/> </mask> <path d="M81.3914 162.8L89.8257 154.264L89.8257 154.264L81.3914 162.8ZM64.5914 37V25H52.5914V37H64.5914ZM96.9914 37H108.991V25H96.9914V37ZM105.191 143L96.4121 151.181L96.4121 151.181L105.191 143ZM151.191 143L159.971 151.181L159.971 151.181L151.191 143ZM159.391 37V25H147.391V37H159.391ZM191.391 37H203.391V25H191.391V37ZM174.591 162.8L183.026 171.336L183.026 171.336L174.591 162.8ZM127.991 167.4C110.414 167.4 98.2292 162.567 89.8257 154.264L72.9571 171.336C86.9536 185.166 105.836 191.4 127.991 191.4V167.4ZM89.8257 154.264C81.5415 146.078 76.5914 133.743 76.5914 115.4H52.5914C52.5914 138.123 58.8413 157.388 72.9571 171.336L89.8257 154.264ZM76.5914 115.4V37H52.5914V115.4H76.5914ZM64.5914 49H96.9914V25H64.5914V49ZM84.9914 37V114.2H108.991V37H84.9914ZM84.9914 114.2C84.9914 128.684 87.8744 142.018 96.4121 151.181L113.971 134.819C111.575 132.248 108.991 126.382 108.991 114.2H84.9914ZM96.4121 151.181C104.655 160.027 115.819 163.8 128.191 163.8V139.8C120.83 139.8 116.661 137.706 113.971 134.819L96.4121 151.181ZM128.191 163.8C140.564 163.8 151.728 160.027 159.971 151.181L142.412 134.819C139.722 137.706 135.552 139.8 128.191 139.8V163.8ZM159.971 151.181C168.508 142.018 171.391 128.684 171.391 114.2H147.391C147.391 126.382 144.808 132.248 142.412 134.819L159.971 151.181ZM171.391 114.2V37H147.391V114.2H171.391ZM159.391 49H191.391V25H159.391V49ZM179.391 37V115.4H203.391V37H179.391ZM179.391 115.4C179.391 133.743 174.441 146.078 166.157 154.264L183.026 171.336C197.142 157.388 203.391 138.123 203.391 115.4H179.391ZM166.157 154.264C157.754 162.567 145.569 167.4 127.991 167.4V191.4C150.147 191.4 169.029 185.166 183.026 171.336L166.157 154.264Z" fill="var(--pageColor)" mask="url(#path-2-outside-1_808_24)"/> <rect x="47" y="192" width="162" height="34" rx="17" fill="var(--darkGray)" stroke="var(--pageColor)" stroke-width="12"/> <path d="M127.991 179.4C108.125 179.4 92.5914 173.867 81.3914 162.8C70.1914 151.733 64.5914 135.933 64.5914 115.4V37H96.9914V114.2C96.9914 127.533 99.7247 137.133 105.191 143C110.658 148.867 118.325 151.8 128.191 151.8C138.058 151.8 145.725 148.867 151.191 143C156.658 137.133 159.391 127.533 159.391 114.2V37H191.391V115.4C191.391 135.933 185.791 151.733 174.591 162.8C163.391 173.867 147.858 179.4 127.991 179.4Z" fill="var(--darkGray)"/> </g> </svg>