<svg viewBox="0 0 256 256" fill="none" xmlns="http://www.w3.org/2000/svg">
<mask id="mask0_125_40" style="mask-type:alpha" maskUnits="userSpaceOnUse" x="0" y="0" width="256" height="256">
<rect width="256" height="256" fill="var(--gray)"/>
</mask>
<g mask="url(#mask0_125_40)">
<path d="M33 128H79.1974H109.403C113.002 128 116.562 128.747 119.857 130.194L126.891 133.283C136.209 137.375 147.058 135.655 154.652 128.881L156.548 127.189C164.183 120.379 175.102 118.68 184.445 122.847L190.945 125.746C194.278 127.232 197.886 128 201.535 128H223" stroke="var(--pageColor)" stroke-width="44" stroke-linecap="round"/>
<mask id="path-3-outside-1_125_40" maskUnits="userSpaceOnUse" x="53" y="48" width="152" height="167" fill="black">
<rect fill="var(--textColor)" x="53" y="48" width="152" height="167"/>
<path d="M128.991 202.4C109.125 202.4 93.5914 196.867 82.3914 185.8C71.1914 174.733 65.5914 158.933 65.5914 138.4V60H97.9914V137.2C97.9914 150.533 100.725 160.133 106.191 166C111.658 171.867 119.325 174.8 129.191 174.8C139.058 174.8 146.725 171.867 152.191 166C157.658 160.133 160.391 150.533 160.391 137.2V60H192.391V138.4C192.391 158.933 186.791 174.733 175.591 185.8C164.391 196.867 148.858 202.4 128.991 202.4Z"/>
</mask>
<path d="M128.991 202.4C109.125 202.4 93.5914 196.867 82.3914 185.8C71.1914 174.733 65.5914 158.933 65.5914 138.4V60H97.9914V137.2C97.9914 150.533 100.725 160.133 106.191 166C111.658 171.867 119.325 174.8 129.191 174.8C139.058 174.8 146.725 171.867 152.191 166C157.658 160.133 160.391 150.533 160.391 137.2V60H192.391V138.4C192.391 158.933 186.791 174.733 175.591 185.8C164.391 196.867 148.858 202.4 128.991 202.4Z" fill="var(--pageColor)"/>
<path d="M82.3914 185.8L90.8257 177.264L82.3914 185.8ZM65.5914 60V48H53.5914V60H65.5914ZM97.9914 60H109.991V48H97.9914V60ZM106.191 166L97.4121 174.181H97.4121L106.191 166ZM152.191 166L160.971 174.181L160.971 174.181L152.191 166ZM160.391 60V48H148.391V60H160.391ZM192.391 60H204.391V48H192.391V60ZM175.591 185.8L184.026 194.336H184.026L175.591 185.8ZM128.991 190.4C111.414 190.4 99.2292 185.567 90.8257 177.264L73.9571 194.336C87.9536 208.166 106.836 214.4 128.991 214.4V190.4ZM90.8257 177.264C82.5415 169.078 77.5914 156.743 77.5914 138.4H53.5914C53.5914 161.123 59.8413 180.388 73.9571 194.336L90.8257 177.264ZM77.5914 138.4V60H53.5914V138.4H77.5914ZM65.5914 72H97.9914V48H65.5914V72ZM85.9914 60V137.2H109.991V60H85.9914ZM85.9914 137.2C85.9914 151.684 88.8744 165.018 97.4121 174.181L114.971 157.819C112.575 155.248 109.991 149.382 109.991 137.2H85.9914ZM97.4121 174.181C105.655 183.027 116.819 186.8 129.191 186.8V162.8C121.83 162.8 117.661 160.706 114.971 157.819L97.4121 174.181ZM129.191 186.8C141.564 186.8 152.728 183.027 160.971 174.181L143.412 157.819C140.722 160.706 136.552 162.8 129.191 162.8V186.8ZM160.971 174.181C169.508 165.018 172.391 151.684 172.391 137.2H148.391C148.391 149.382 145.808 155.248 143.412 157.819L160.971 174.181ZM172.391 137.2V60H148.391V137.2H172.391ZM160.391 72H192.391V48H160.391V72ZM180.391 60V138.4H204.391V60H180.391ZM180.391 138.4C180.391 156.743 175.441 169.078 167.157 177.264L184.026 194.336C198.142 180.388 204.391 161.123 204.391 138.4H180.391ZM167.157 177.264C158.754 185.567 146.569 190.4 128.991 190.4V214.4C151.147 214.4 170.029 208.166 184.026 194.336L167.157 177.264Z" fill="var(--pageColor)" mask="url(#path-3-outside-1_125_40)"/>
<path d="M128.991 202.4C109.125 202.4 93.5914 196.867 82.3914 185.8C71.1914 174.733 65.5914 158.933 65.5914 138.4V60H97.9914V137.2C97.9914 150.533 100.725 160.133 106.191 166C111.658 171.867 119.325 174.8 129.191 174.8C139.058 174.8 146.725 171.867 152.191 166C157.658 160.133 160.391 150.533 160.391 137.2V60H192.391V138.4C192.391 158.933 186.791 174.733 175.591 185.8C164.391 196.867 148.858 202.4 128.991 202.4Z" fill="var(--darkGray)"/>
<path d="M33 128H79.1974H109.403C113.002 128 116.562 128.747 119.857 130.194L126.891 133.283C136.209 137.375 147.058 135.655 154.652 128.881L156.548 127.189C164.183 120.379 175.102 118.68 184.445 122.847L190.945 125.746C194.278 127.232 197.886 128 201.535 128H223" stroke="var(--toolColor)" stroke-width="20" stroke-linecap="round"/>
</g>
</svg>
