<svg viewBox="0 0 256 256" fill="none" xmlns="http://www.w3.org/2000/svg"> <mask id="mask0_2387_72" style="mask-type:alpha" maskUnits="userSpaceOnUse" x="0" y="0" width="256" height="256"> <rect width="256" height="256" fill="var(--gray)"/> </mask> <g mask="url(#mask0_2387_72)"> <path d="M56 145V165C56 181.569 69.4315 195 86 195H171C187.569 195 201 181.569 201 165V145" stroke="var(--pageColor)" stroke-width="44" stroke-linecap="round"/> <path d="M128 60V156" stroke="var(--pageColor)" stroke-width="44" stroke-linecap="round"/> <path d="M128 60L164 96" stroke="var(--pageColor)" stroke-width="44" stroke-linecap="round"/> <path d="M128 60L92 96" stroke="var(--pageColor)" stroke-width="44" stroke-linecap="round"/> <path d="M56 145V165C56 181.569 69.4315 195 86 195H171C187.569 195 201 181.569 201 165V145" stroke="var(--darkGray)" stroke-width="20" stroke-linecap="round"/> <path d="M128 60V156" stroke="var(--darkGray)" stroke-width="20" stroke-linecap="round"/> <path d="M128 60L164 96" stroke="var(--darkGray)" stroke-width="20" stroke-linecap="round"/> <path d="M128 60L92 96" stroke="var(--darkGray)" stroke-width="20" stroke-linecap="round"/> </g> </svg>