<svg viewBox="0 0 256 256" fill="none" xmlns="http://www.w3.org/2000/svg">
<mask id="mask0_67_171" style="mask-type:alpha" maskUnits="userSpaceOnUse" x="0" y="0" width="256" height="256">
<rect width="256" height="256" fill="var(--gray)"/>
</mask>
<g mask="url(#mask0_67_171)">
<path d="M128.4 53C149.538 53.0001 166.944 59.6299 178.862 73.6768C190.562 87.4654 195.8 107.038 195.8 130.6V203.8H163.4V130C163.4 112.738 159.943 101.555 154.495 94.8008C149.355 88.4283 141.289 84.5997 128.4 84.5996C115.481 84.5996 107.425 88.3972 102.298 94.7354C96.8618 101.456 93.4004 112.626 93.4004 130V203.8H61V130.6C61.0001 107.018 66.2968 87.45 78.0195 73.6689C89.9556 59.6372 107.35 53 128.4 53Z" fill="var(--darkGray)" stroke="var(--pageColor)" stroke-width="18"/>
<path d="M128.4 59C148.246 59.0001 163.781 65.1766 174.287 77.5586C184.72 89.8548 189.8 107.812 189.8 130.6V197.8H169.4V130C169.4 112.112 165.848 99.318 159.165 91.0332C152.585 82.8759 142.563 78.5997 128.4 78.5996C114.227 78.5996 104.208 82.8326 97.6328 90.9619C90.9541 99.2188 87.4004 112.009 87.4004 130V197.8H67V130.6C67.0001 107.806 72.1324 89.8503 82.5898 77.5566C93.1185 65.1794 108.65 59 128.4 59Z" fill="var(--darkGray)" stroke="var(--darkGray)" stroke-width="6"/>
</g>
</svg>
