<svg viewBox="0 0 256 256" fill="none" xmlns="http://www.w3.org/2000/svg">
<mask id="mask0_67_183" style="mask-type:alpha" maskUnits="userSpaceOnUse" x="0" y="0" width="256" height="256">
<rect width="256" height="256" fill="var(--gray)"/>
</mask>
<g mask="url(#mask0_67_183)">
<path d="M127.6 45.2002C144.809 45.2002 160.751 50.4278 173.986 59.4854L181.336 52.1357L181.62 51.8594C187.544 46.2284 196.857 46.2283 202.78 51.8594L203.064 52.1357L203.341 52.4199C209.063 58.4391 208.97 67.958 203.063 73.8643L195.713 81.2139C204.771 94.449 210 110.39 210 127.6C210 173.202 172.738 210 127.6 210C110.39 210 94.449 204.771 81.2139 195.713L73.8643 203.063C67.8643 209.063 58.1358 209.063 52.1357 203.063C46.1362 197.063 46.136 187.336 52.1357 181.336L59.4854 173.986C50.4278 160.751 45.2002 144.809 45.2002 127.6C45.2004 82.0294 82.0294 45.2004 127.6 45.2002ZM104.79 172.137C111.636 175.648 119.361 177.6 127.6 177.6C155.229 177.6 177.6 155.229 177.6 127.6C177.6 119.361 175.648 111.636 172.137 104.79L104.79 172.137ZM127.6 77.5996C99.9705 77.5998 77.5998 99.9705 77.5996 127.6C77.5996 135.838 79.5507 143.564 83.0615 150.41L150.41 83.0615C143.564 79.5507 135.838 77.5996 127.6 77.5996Z" fill="var(--pageColor)" stroke="var(--pageColor)" stroke-width="18"/>
<path d="M127.6 51.2002C145.339 51.2002 161.599 57.1798 174.591 67.3652L185.579 56.3789C189.236 52.7222 195.164 52.7221 198.821 56.3789C202.478 60.0357 202.478 65.9643 198.821 69.6211L187.834 80.6074C198.02 93.5991 204 109.86 204 127.6C204 169.867 169.446 204 127.6 204C109.86 204 93.5991 198.02 80.6074 187.834L69.6211 198.821C65.9643 202.478 60.0357 202.478 56.3789 198.821C52.7221 195.164 52.7222 189.236 56.3789 185.579L67.3652 174.591C57.1798 161.599 51.2002 145.339 51.2002 127.6C51.2004 85.3431 85.3431 51.2004 127.6 51.2002ZM95.1562 173.286C104.36 179.829 115.501 183.6 127.6 183.6C158.543 183.6 183.6 158.543 183.6 127.6C183.6 115.501 179.829 104.36 173.286 95.1562L95.1562 173.286ZM127.6 71.5996C96.6568 71.5998 71.5998 96.6568 71.5996 127.6C71.5996 139.698 75.3712 150.838 81.9141 160.042L160.042 81.9141C150.838 75.3712 139.698 71.5996 127.6 71.5996Z" fill="var(--darkGray)" stroke="var(--darkGray)" stroke-width="6"/>
</g>
</svg>
