<svg viewBox="0 0 256 256" fill="none" xmlns="http://www.w3.org/2000/svg">
<mask id="mask0_67_252" style="mask-type:alpha" maskUnits="userSpaceOnUse" x="0" y="0" width="256" height="256">
<rect width="256" height="256" fill="var(--gray)"/>
</mask>
<g mask="url(#mask0_67_252)">
<path d="M62.4434 125.8C61.7634 126.67 61.0761 127.539 60.3809 128.399C61.0761 129.26 61.7624 130.13 62.4424 131H193.558C194.237 130.13 194.923 129.26 195.618 128.399C194.923 127.539 194.236 126.67 193.557 125.8H62.4434ZM243 134.816L240.256 137.47C216.265 160.667 198.048 180.472 184.004 196.691L181.312 199.8H150.927L157.577 186.721C161.467 179.071 165.988 171.133 170.936 163.2H85.0645C90.0121 171.133 94.5333 179.071 98.4229 186.721L105.073 199.8H74.6875L71.9961 196.691C57.9525 180.472 39.7347 160.667 15.7441 137.47L13 134.816V121.983L15.7441 119.33C39.7346 96.1327 57.9525 76.3278 71.9961 60.1084L74.6875 57H105.073L98.4229 70.0791C94.5333 77.7286 90.0121 85.6673 85.0645 93.5996H170.936C165.988 85.6673 161.467 77.7286 157.577 70.0791L150.927 57H181.312L184.004 60.1084C198.048 76.3278 216.265 96.1327 240.256 119.33L243 121.983V134.816Z" fill="var(--darkGray)" stroke="var(--pageColor)" stroke-width="18"/>
<path d="M59.4932 119.8C57.2664 122.729 54.9338 125.646 52.5762 128.399C54.9338 131.152 57.2654 134.07 59.4922 137H196.508C198.735 134.071 201.065 131.152 203.423 128.399C201.065 125.647 198.733 122.729 196.507 119.8H59.4932ZM237 132.272L236.085 133.156C211.955 156.489 193.616 176.424 179.468 192.764L178.57 193.8H160.709L162.926 189.44C168.224 179.021 174.744 168.008 181.945 157.2H74.0547C81.2563 168.008 87.7762 179.021 93.0742 189.44L95.291 193.8H77.4297L76.5322 192.764C62.3843 176.424 44.0452 156.489 19.915 133.156L19 132.272V124.527L19.915 123.644C44.0452 100.311 62.3844 80.3759 76.5322 64.0361L77.4297 63H95.291L93.0742 67.3594C87.7762 77.7788 81.2563 88.7917 74.0547 99.5996H181.945C174.744 88.7917 168.224 77.7788 162.926 67.3594L160.709 63H178.57L179.468 64.0361C193.616 80.3759 211.955 100.311 236.085 123.644L237 124.527V132.272Z" fill="var(--darkGray)" stroke="var(--darkGray)" stroke-width="6"/>
</g>
</svg>
