<svg viewBox="0 0 256 256" fill="none" xmlns="http://www.w3.org/2000/svg">
<mask id="mask0_67_219" style="mask-type:alpha" maskUnits="userSpaceOnUse" x="0" y="0" width="256" height="256">
<rect width="256" height="256" fill="var(--gray)"/>
</mask>
<g mask="url(#mask0_67_219)">
<mask id="path-2-outside-1_67_219" maskUnits="userSpaceOnUse" x="69.1868" y="86" width="117" height="82" fill="white">
<rect fill="var(--pageColor)" x="69.1868" y="86" width="117" height="82"/>
<path d="M174.173 98.8V155.8H151.573V120.2H81.9735V98.8H174.173Z"/>
</mask>
<path d="M174.173 98.8V155.8H151.573V120.2H81.9735V98.8H174.173Z" fill="var(--pageColor)"/>
<path d="M174.173 98.8H186.173V86.8H174.173V98.8ZM174.173 155.8V167.8H186.173V155.8H174.173ZM151.573 155.8H139.573V167.8H151.573V155.8ZM151.573 120.2H163.573V108.2H151.573V120.2ZM81.9735 120.2H69.9735V132.2H81.9735V120.2ZM81.9735 98.8V86.8H69.9735V98.8H81.9735ZM174.173 98.8H162.173V155.8H174.173H186.173V98.8H174.173ZM174.173 155.8V143.8H151.573V155.8V167.8H174.173V155.8ZM151.573 155.8H163.573V120.2H151.573H139.573V155.8H151.573ZM151.573 120.2V108.2H81.9735V120.2V132.2H151.573V120.2ZM81.9735 120.2H93.9735V98.8H81.9735H69.9735V120.2H81.9735ZM81.9735 98.8V110.8H174.173V98.8V86.8H81.9735V98.8Z" fill="var(--pageColor)" mask="url(#path-2-outside-1_67_219)"/>
<path d="M174.173 98.8V155.8H151.573V120.2H81.9735V98.8H174.173Z" fill="var(--darkGray)"/>
</g>
</svg>
