<svg viewBox="0 0 256 256" fill="none" xmlns="http://www.w3.org/2000/svg">
<mask id="mask0_67_135" style="mask-type:alpha" maskUnits="userSpaceOnUse" x="0" y="0" width="256" height="256">
<rect width="256" height="256" fill="var(--gray)"/>
</mask>
<g mask="url(#mask0_67_135)">
<path d="M196.4 61V93.2002H133.6C117.152 93.2002 106.918 96.3914 100.828 101.529C95.0759 106.382 91.4004 114.383 91.4004 128.2C91.4004 142.05 95.0448 150.107 100.787 155C106.848 160.164 117.066 163.4 133.6 163.4H196.4V195.4H133.6C110.64 195.4 91.7425 190.015 78.5225 178.181C65.1297 166.191 59 148.883 59 128.2C59 107.429 65.1225 90.1091 78.5303 78.1367C91.7584 66.3248 110.66 61.0001 133.6 61H196.4Z" fill="var(--pageColor)" stroke="var(--pageColor)" stroke-width="18"/>
<path d="M190.4 67V87.2002H133.6C116.584 87.2002 104.64 90.4642 96.96 96.9434C89.3925 103.328 85.4004 113.328 85.4004 128.2C85.4004 143.083 89.3482 153.135 96.8955 159.566C104.549 166.088 116.488 169.4 133.6 169.4H190.4V189.4H133.6C111.48 189.4 94.2477 184.205 82.5244 173.71C70.7435 163.164 65 147.695 65 128.2C65 108.61 70.7406 93.1364 82.5264 82.6123C94.2524 72.1417 111.487 67.0001 133.6 67H190.4Z" fill="var(--darkGray)" stroke="var(--darkGray)" stroke-width="6"/>
</g>
</svg>
