<svg viewBox="0 0 256 256" fill="none" xmlns="http://www.w3.org/2000/svg">
<mask id="mask0_67_147" style="mask-type:alpha" maskUnits="userSpaceOnUse" x="0" y="0" width="256" height="256">
<rect width="256" height="256" fill="var(--gray)"/>
</mask>
<g mask="url(#mask0_67_147)">
<path d="M180.3 182.2C189.192 182.2 196.4 189.408 196.4 198.3C196.4 207.192 189.192 214.4 180.3 214.4H83.0996C74.347 214.4 67.2254 207.415 67.0049 198.716L67 198.3L67.0049 197.885C67.2251 189.185 74.3468 182.2 83.0996 182.2H180.3ZM196.4 42V74.2002H133.6C117.152 74.2002 106.918 77.3914 100.828 82.5293C95.0759 87.3824 91.4004 95.3828 91.4004 109.2C91.4004 123.05 95.0448 131.107 100.787 136C106.848 141.164 117.066 144.4 133.6 144.4H196.4V176.4H133.6C110.64 176.4 91.7425 171.015 78.5225 159.181C65.1297 147.191 59 129.883 59 109.2C59 88.4289 65.1225 71.1091 78.5303 59.1367C91.7584 47.3248 110.66 42.0001 133.6 42H196.4Z" fill="var(--pageColor)" stroke="var(--pageColor)" stroke-width="18"/>
<path d="M180.3 188.2C185.878 188.2 190.4 192.722 190.4 198.3C190.4 203.878 185.878 208.4 180.3 208.4H83.0996C77.5217 208.4 73 203.878 73 198.3C73.0001 192.722 77.5218 188.2 83.0996 188.2H180.3ZM190.4 48V68.2002H133.6C116.584 68.2002 104.64 71.4642 96.96 77.9434C89.3925 84.3277 85.4004 94.3276 85.4004 109.2C85.4004 124.083 89.3482 134.135 96.8955 140.566C104.549 147.088 116.488 150.4 133.6 150.4H190.4V170.4H133.6C111.48 170.4 94.2477 165.205 82.5244 154.71C70.7435 144.164 65 128.695 65 109.2C65 89.6099 70.7406 74.1364 82.5264 63.6123C94.2524 53.1417 111.487 48.0001 133.6 48H190.4Z" fill="var(--darkGray)" stroke="var(--darkGray)" stroke-width="6"/>
</g>
</svg>
