<svg viewBox="0 0 256 256" fill="none" xmlns="http://www.w3.org/2000/svg">
<mask id="mask0_67_264" style="mask-type:alpha" maskUnits="userSpaceOnUse" x="0" y="0" width="256" height="256">
<rect width="256" height="256" fill="var(--gray)"/>
</mask>
<g mask="url(#mask0_67_264)">
<path d="M93 141.2C104.571 141.2 114 150.63 114 162.2C114 173.771 104.57 183.2 93 183.2C81.4295 183.2 72.0001 173.771 72 162.2C72 150.63 81.4294 141.2 93 141.2ZM163 141.2C174.571 141.2 184 150.63 184 162.2C184 173.771 174.57 183.2 163 183.2C151.43 183.2 142 173.771 142 162.2C142 150.63 151.429 141.2 163 141.2ZM128 73C139.571 73 149 82.4294 149 94C149 105.571 139.571 115 128 115C116.429 115 107 105.571 107 94C107 82.4294 116.429 73 128 73Z" fill="var(--pageColor)" stroke="var(--pageColor)" stroke-width="18"/>
<path d="M93 147.2C101.257 147.2 108 153.943 108 162.2C108 170.457 101.257 177.2 93 177.2C84.7432 177.2 78.0001 170.457 78 162.2C78 153.943 84.7431 147.2 93 147.2ZM163 147.2C171.257 147.2 178 153.943 178 162.2C178 170.457 171.257 177.2 163 177.2C154.743 177.2 148 170.457 148 162.2C148 153.943 154.743 147.2 163 147.2ZM128 79C136.257 79 143 85.7431 143 94C143 102.257 136.257 109 128 109C119.743 109 113 102.257 113 94C113 85.7431 119.743 79 128 79Z" fill="var(--darkGray)" stroke="var(--darkGray)" stroke-width="6"/>
</g>
</svg>
