<svg viewBox="0 0 256 256" fill="none" xmlns="http://www.w3.org/2000/svg">
<mask id="mask0_71_362" style="mask-type:alpha" maskUnits="userSpaceOnUse" x="0" y="0" width="256" height="256">
<rect width="256" height="256" fill="var(--gray)"/>
</mask>
<g mask="url(#mask0_71_362)">
<path d="M49 134.43L54.0625 136.894C57.6035 138.616 61.4755 141.777 65.7441 146.171C69.9858 150.537 74.052 155.508 78.3018 160.58L80.999 163.8H113.704L109 151.569C108.208 149.51 107.364 147.52 106.471 145.6H207V111.2H106.299C107.179 109.265 108.014 107.275 108.8 105.23L113.504 93H81.0361L78.3398 96.1738C74.0596 101.213 69.9982 106.169 65.7227 110.602C61.4336 115.048 57.5129 118.333 53.8887 120.194L49 122.704V134.43Z" fill="var(--pageColor)" stroke="var(--pageColor)" stroke-width="18"/>
<path d="M55 131.677L56.6875 132.498C65.8761 136.968 74.545 146.754 82.9004 156.727L83.7998 157.8H104.968L103.4 153.723C102.197 150.593 100.882 147.659 99.4531 144.924L98.834 143.764C98.0873 142.335 97.2957 140.948 96.4639 139.6H201V117.2H96.3418C97.1327 115.905 97.8984 114.585 98.6338 113.236L98.6465 113.212L98.6602 113.188C100.316 110.013 101.829 106.642 103.2 103.077L104.769 99H83.8115L82.9131 100.058C78.7307 104.982 74.4885 110.157 70.041 114.768C65.5892 119.383 61.1268 123.222 56.6299 125.531L55 126.368V131.677Z" fill="var(--darkGray)" stroke="var(--darkGray)" stroke-width="6"/>
</g>
</svg>
