<svg viewBox="0 0 256 256" fill="none" xmlns="http://www.w3.org/2000/svg">
<mask id="mask0_72_530" style="mask-type:alpha" maskUnits="userSpaceOnUse" x="0" y="0" width="256" height="256">
<rect width="256" height="256" fill="var(--gray)"/>
</mask>
<g mask="url(#mask0_72_530)">
<path d="M167.9 160.6C176.24 160.6 183 167.361 183 175.7C183 184.039 176.24 190.8 167.9 190.8H88.0996C79.8906 190.8 73.2117 184.249 73.0049 176.09L73 175.7L73.0049 175.311C73.2115 167.151 79.8905 160.6 88.0996 160.6H167.9ZM167.9 118.6C176.24 118.6 183 125.361 183 133.7C183 142.039 176.24 148.8 167.9 148.8H88.0996C79.8906 148.8 73.2117 142.249 73.0049 134.09L73 133.7L73.0049 133.311C73.2115 125.151 79.8905 118.6 88.0996 118.6H167.9ZM104.8 65C114.522 65 123.846 67.3258 133.297 71.7109L134.756 72.3555C141.949 75.4604 147.681 76.7998 152 76.7998C154.157 76.7998 157.159 76.0595 160.659 74.124L161.099 73.8906C165.662 71.5631 170.807 71.9151 174.759 73.7715C178.91 75.7216 183 80.0283 183 86.2979C183 89.5634 181.8 93.021 179.131 95.6309C171.319 103.269 161.646 107.2 151 107.2C141.491 107.2 131.97 104.881 122.503 100.489L121.048 99.8457C113.87 96.7472 108.119 95.4004 103.6 95.4004C101.807 95.4005 98.9981 96.0593 95.4766 98.0264C90.7836 100.648 85.3894 100.367 81.2549 98.416C77.1722 96.4893 73.2526 92.3372 73.0117 86.3848L73 85.8037L73.0146 85.1699C73.1636 81.9944 74.4371 78.7215 77.0332 76.2461C84.7185 68.918 93.983 65 104.8 65Z" fill="var(--pageColor)" stroke="var(--pageColor)" stroke-width="16"/>
<path d="M57 198.421L198.421 57" stroke="var(--pageColor)" stroke-width="44" stroke-linecap="round"/>
<path d="M167.9 166.6C172.926 166.6 177 170.675 177 175.7C177 180.726 172.926 184.8 167.9 184.8H88.0996C83.0741 184.8 79.0001 180.726 79 175.7C79 170.675 83.074 166.6 88.0996 166.6H167.9ZM167.9 124.6C172.926 124.6 177 128.675 177 133.7C177 138.726 172.926 142.8 167.9 142.8H88.0996C83.0741 142.8 79.0001 138.726 79 133.7C79 128.675 83.074 124.6 88.0996 124.6H167.9ZM104.8 71C113.531 71 122.012 73.0816 130.824 77.1777C139.094 80.919 146.198 82.7998 152 82.7998C155.425 82.7998 159.425 81.6632 163.562 79.375C166.321 77.8493 169.622 77.9878 172.207 79.2021C174.81 80.425 177 82.9118 177 86.2979C177 88.1283 176.328 89.9794 174.936 91.3408C168.233 97.8947 160.06 101.2 151 101.2C142.472 101.2 133.792 99.1203 124.976 95.0225L123.439 94.3428C115.827 91.0551 109.23 89.4004 103.6 89.4004C100.495 89.4005 96.6762 90.4837 92.5508 92.7881C89.759 94.3475 86.4274 94.2219 83.8154 92.9893C81.1838 91.7472 79.0001 89.2232 79 85.8037C79 83.9 79.7134 81.9815 81.1738 80.5889C87.7923 74.278 95.5912 71 104.8 71Z" fill="var(--darkGray)" stroke="var(--darkGray)" stroke-width="4"/>
<path d="M57 198.421L198.421 57" stroke="var(--darkGray)" stroke-width="20" stroke-linecap="round"/>
</g>
</svg>
