<svg viewBox="0 0 256 256" fill="none" xmlns="http://www.w3.org/2000/svg">
<mask id="mask0_2206_69" style="mask-type:alpha" maskUnits="userSpaceOnUse" x="0" y="0" width="256" height="256">
<rect width="256" height="256" fill="black"/>
</mask>
<g mask="url(#mask0_2206_69)">
<path fill-rule="evenodd" clip-rule="evenodd" d="M127.996 66H203C210.18 66 216 71.8203 216 79V176C216 183.18 210.18 189 203 189H174.202L185.749 209H203C221.225 209 236 194.225 236 176V79C236 60.7746 221.225 46 203 46H120.285C125.069 51.0979 128 57.9567 128 65.5C128 65.667 127.999 65.8337 127.996 66ZM137.251 209L148.798 189H54C46.8203 189 41 183.18 41 176V79C41 71.8203 46.8203 66 54 66H71.0043C71.0014 65.8337 71 65.667 71 65.5C71 57.9567 73.9306 51.0979 78.7153 46H54C35.7746 46 21 60.7746 21 79V176C21 194.225 35.7746 209 54 209H137.251Z" fill="var(--themeColor)"/>
<circle cx="99.5" cy="65.5" r="38.5" stroke="var(--themeColor)" stroke-width="20"/>
<path d="M198.306 210.75L171.026 163.5C166.792 156.167 156.208 156.167 151.974 163.5L124.694 210.75C120.46 218.083 125.752 227.25 134.22 227.25H188.78C197.248 227.25 202.54 218.083 198.306 210.75Z" stroke="var(--themeColor)" stroke-width="20"/>
</g>
</svg>
