<svg viewBox="0 0 256 256" fill="none" xmlns="http://www.w3.org/2000/svg">
<mask id="mask0_2206_83" style="mask-type:alpha" maskUnits="userSpaceOnUse" x="0" y="0" width="256" height="256">
<rect width="256" height="256" fill="black"/>
</mask>
<g mask="url(#mask0_2206_83)">
<path fill-rule="evenodd" clip-rule="evenodd" d="M162 180C162 180.685 161.931 181.354 161.8 182C160.873 186.564 156.838 190 152 190H144.764V210H152C166.73 210 178.981 199.383 181.518 185.384C178.095 184.843 174.806 183.253 172.168 180.615L162 170.447V180ZM117.945 98C120.864 95.9833 124.273 94.9834 127.679 95.0002L127.764 95C131.346 95 134.669 96.108 137.41 98H152C157.523 98 162 102.477 162 108V122.364L182 142.364V108C182 91.4315 168.569 78 152 78H134V40C134 34.4771 138.477 30 144 30H216C221.523 30 226 34.4772 226 40V152C226 157.523 221.523 162 216 162H199.862C202.459 168.18 201.242 175.582 196.209 180.615C195.71 181.114 195.187 181.576 194.645 182H216C232.569 182 246 168.569 246 152V40C246 23.4315 232.569 10 216 10H144C127.431 10 114 23.4315 114 40V78H40C23.4315 78 10 91.4314 10 108V180C10 196.569 23.4315 210 40 210H110.764V190H40C34.4771 190 30 185.523 30 180V108C30 102.477 34.4772 98 40 98H114H117.945Z" fill="#48A7FF"/>
<path d="M127.764 237L127.764 112" stroke="#48A7FF" stroke-width="20" stroke-linecap="round"/>
<path d="M70.9996 168.594L127.594 112" stroke="#48A7FF" stroke-width="20" stroke-linecap="round"/>
<path d="M184.188 168.594L127.594 112" stroke="#48A7FF" stroke-width="20" stroke-linecap="round"/>
</g>
</svg>
