<svg viewBox="0 0 953 230" fill="none" xmlns="http://www.w3.org/2000/svg">
<path d="M123.5 175C115.4 175 107.8 173.5 100.7 170.5C93.7 167.4 87.55 163.1 82.25 157.6C77.05 152.1 72.95 145.7 69.95 138.4C66.95 131.1 65.45 123.25 65.45 114.85C65.45 106.55 66.9 98.8 69.8 91.6C72.8 84.3 76.95 77.9 82.25 72.4C87.55 66.9 93.7 62.6 100.7 59.5C107.7 56.4 115.3 54.85 123.5 54.85C131 54.85 137.6 55.9 143.3 58C149 60 154.65 63.3 160.25 67.9C161.05 68.5 161.6 69.2 161.9 70C162.3 70.7 162.45 71.45 162.35 72.25C162.35 72.95 162.2 73.65 161.9 74.35C161.8 75.85 161.15 77.05 159.95 77.95C158.85 78.85 157.5 79.35 155.9 79.45C154.4 79.45 152.9 78.9 151.4 77.8C147.6 74.5 143.6 72 139.4 70.3C135.2 68.6 129.9 67.75 123.5 67.75C117.4 67.75 111.65 69 106.25 71.5C100.95 74 96.25 77.4 92.15 81.7C88.05 86 84.85 91 82.55 96.7C80.25 102.4 79.1 108.45 79.1 114.85C79.1 121.45 80.25 127.6 82.55 133.3C84.85 138.9 88.05 143.9 92.15 148.3C96.25 152.6 100.95 155.95 106.25 158.35C111.65 160.75 117.4 161.95 123.5 161.95C128.8 161.95 133.8 161.1 138.5 159.4C143.2 157.6 147.65 155.1 151.85 151.9C153.45 150.7 155.05 150.2 156.65 150.4C158.25 150.5 159.6 151.15 160.7 152.35C161.8 153.45 162.35 155 162.35 157C162.35 157.9 162.2 158.8 161.9 159.7C161.6 160.5 161.05 161.25 160.25 161.95C155.05 166.45 149.3 169.75 143 171.85C136.8 173.95 130.3 175 123.5 175ZM216.856 174.1C208.856 174.1 201.706 172.35 195.406 168.85C189.206 165.25 184.306 160.35 180.706 154.15C177.206 147.85 175.456 140.65 175.456 132.55C175.456 124.35 177.206 117.15 180.706 110.95C184.306 104.65 189.206 99.75 195.406 96.25C201.706 92.65 208.856 90.85 216.856 90.85C224.856 90.85 231.956 92.65 238.156 96.25C244.456 99.75 249.356 104.65 252.856 110.95C256.456 117.15 258.306 124.35 258.406 132.55C258.406 140.65 256.606 147.85 253.006 154.15C249.406 160.35 244.506 165.25 238.306 168.85C232.106 172.35 224.956 174.1 216.856 174.1ZM216.856 161.8C222.356 161.8 227.206 160.55 231.406 158.05C235.606 155.55 238.906 152.1 241.306 147.7C243.706 143.3 244.906 138.25 244.906 132.55C244.906 126.85 243.706 121.8 241.306 117.4C238.906 112.9 235.606 109.4 231.406 106.9C227.206 104.4 222.356 103.15 216.856 103.15C211.456 103.15 206.606 104.4 202.306 106.9C198.106 109.4 194.806 112.9 192.406 117.4C190.006 121.8 188.806 126.85 188.806 132.55C188.806 138.25 190.006 143.3 192.406 147.7C194.806 152.1 198.106 155.55 202.306 158.05C206.606 160.55 211.456 161.8 216.856 161.8ZM389.923 173.65C387.923 173.65 386.273 173 384.973 171.7C383.673 170.4 383.023 168.75 383.023 166.75V123.7C383.023 117.1 381.323 112.05 377.923 108.55C374.623 105.05 370.323 103.3 365.023 103.3C359.423 103.3 354.823 105.25 351.223 109.15C347.723 112.95 345.973 117.9 345.973 124H334.273C334.373 117.4 335.823 111.6 338.623 106.6C341.423 101.6 345.323 97.7 350.323 94.9C355.323 92.1 360.973 90.7 367.273 90.7C373.073 90.7 378.173 92 382.573 94.6C387.073 97.2 390.573 101 393.073 106C395.573 110.9 396.823 116.8 396.823 123.7V166.75C396.823 168.75 396.173 170.4 394.873 171.7C393.673 173 392.023 173.65 389.923 173.65ZM287.923 173.65C285.923 173.65 284.273 173 282.973 171.7C281.673 170.4 281.023 168.75 281.023 166.75V98.5C281.023 96.4 281.673 94.75 282.973 93.55C284.273 92.25 285.923 91.6 287.923 91.6C290.023 91.6 291.673 92.25 292.873 93.55C294.173 94.75 294.823 96.4 294.823 98.5V166.75C294.823 168.75 294.173 170.4 292.873 171.7C291.673 173 290.023 173.65 287.923 173.65ZM339.073 173.65C337.073 173.65 335.423 173 334.123 171.7C332.823 170.4 332.173 168.75 332.173 166.75V123.7C332.173 117.1 330.473 112.05 327.073 108.55C323.773 105.05 319.473 103.3 314.173 103.3C308.573 103.3 303.923 105.2 300.223 109C296.623 112.8 294.823 117.65 294.823 123.55H285.823C285.923 117.15 287.273 111.5 289.873 106.6C292.573 101.6 296.223 97.7 300.823 94.9C305.423 92.1 310.623 90.7 316.423 90.7C322.223 90.7 327.323 92 331.723 94.6C336.223 97.2 339.723 101 342.223 106C344.723 110.9 345.973 116.8 345.973 123.7V166.75C345.973 168.75 345.323 170.4 344.023 171.7C342.823 173 341.173 173.65 339.073 173.65ZM431.534 173.5C429.834 173.5 428.284 172.9 426.884 171.7C425.584 170.4 424.934 168.7 424.934 166.6V91.75C424.934 84.65 426.284 78.45 428.984 73.15C431.684 67.85 435.484 63.75 440.384 60.85C445.384 57.85 451.234 56.35 457.934 56.35C459.934 56.35 461.584 56.95 462.884 58.15C464.184 59.35 464.834 60.85 464.834 62.65C464.834 64.35 464.184 65.85 462.884 67.15C461.584 68.35 459.934 68.95 457.934 68.95C453.934 68.95 450.484 69.85 447.584 71.65C444.784 73.45 442.584 76 440.984 79.3C439.484 82.5 438.734 86.3 438.734 90.7V166.6C438.734 168.7 438.084 170.4 436.784 171.7C435.584 172.9 433.834 173.5 431.534 173.5ZM417.284 106.3C415.384 106.3 413.834 105.75 412.634 104.65C411.534 103.55 410.984 102.15 410.984 100.45C410.984 98.65 411.534 97.2 412.634 96.1C413.834 95 415.384 94.45 417.284 94.45H455.084C456.984 94.45 458.534 95 459.734 96.1C460.934 97.2 461.534 98.65 461.534 100.45C461.534 102.15 460.934 103.55 459.734 104.65C458.534 105.75 456.984 106.3 455.084 106.3H417.284ZM511.583 174.1C503.583 174.1 496.433 172.35 490.133 168.85C483.933 165.25 479.033 160.35 475.433 154.15C471.933 147.85 470.183 140.65 470.183 132.55C470.183 124.35 471.933 117.15 475.433 110.95C479.033 104.65 483.933 99.75 490.133 96.25C496.433 92.65 503.583 90.85 511.583 90.85C519.583 90.85 526.683 92.65 532.883 96.25C539.183 99.75 544.083 104.65 547.583 110.95C551.183 117.15 553.033 124.35 553.133 132.55C553.133 140.65 551.333 147.85 547.733 154.15C544.133 160.35 539.233 165.25 533.033 168.85C526.833 172.35 519.683 174.1 511.583 174.1ZM511.583 161.8C517.083 161.8 521.933 160.55 526.133 158.05C530.333 155.55 533.633 152.1 536.033 147.7C538.433 143.3 539.633 138.25 539.633 132.55C539.633 126.85 538.433 121.8 536.033 117.4C533.633 112.9 530.333 109.4 526.133 106.9C521.933 104.4 517.083 103.15 511.583 103.15C506.183 103.15 501.333 104.4 497.033 106.9C492.833 109.4 489.533 112.9 487.133 117.4C484.733 121.8 483.533 126.85 483.533 132.55C483.533 138.25 484.733 143.3 487.133 147.7C489.533 152.1 492.833 155.55 497.033 158.05C501.333 160.55 506.183 161.8 511.583 161.8ZM582.05 122.5C582.25 116.4 583.8 110.95 586.7 106.15C589.7 101.35 593.65 97.55 598.55 94.75C603.45 91.95 608.85 90.55 614.75 90.55C620.25 90.55 624.35 91.4 627.05 93.1C629.85 94.8 630.9 96.95 630.2 99.55C629.9 101.05 629.3 102.15 628.4 102.85C627.5 103.45 626.45 103.8 625.25 103.9C624.05 103.9 622.75 103.8 621.35 103.6C615.25 102.6 609.8 102.75 605 104.05C600.2 105.35 596.4 107.6 593.6 110.8C590.8 114 589.4 117.9 589.4 122.5H582.05ZM582.5 173.5C580.4 173.5 578.75 172.95 577.55 171.85C576.35 170.65 575.75 168.95 575.75 166.75V98.2C575.75 96.1 576.35 94.45 577.55 93.25C578.75 92.05 580.4 91.45 582.5 91.45C584.8 91.45 586.5 92.05 587.6 93.25C588.8 94.35 589.4 96 589.4 98.2V166.75C589.4 168.85 588.8 170.5 587.6 171.7C586.5 172.9 584.8 173.5 582.5 173.5ZM677.691 173.5C672.591 173.5 667.991 172.25 663.891 169.75C659.791 167.15 656.591 163.7 654.291 159.4C651.991 155 650.841 150 650.841 144.4V72.25C650.841 70.25 651.441 68.6 652.641 67.3C653.941 66 655.591 65.35 657.591 65.35C659.591 65.35 661.241 66 662.541 67.3C663.841 68.6 664.491 70.25 664.491 72.25V144.4C664.491 148.9 665.741 152.6 668.241 155.5C670.741 158.4 673.891 159.85 677.691 159.85H682.341C684.041 159.85 685.441 160.5 686.541 161.8C687.741 163.1 688.341 164.75 688.341 166.75C688.341 168.75 687.591 170.4 686.091 171.7C684.691 172.9 682.841 173.5 680.541 173.5H677.691ZM642.741 106.3C640.941 106.3 639.441 105.75 638.241 104.65C637.041 103.55 636.441 102.15 636.441 100.45C636.441 98.65 637.041 97.2 638.241 96.1C639.441 95 640.941 94.45 642.741 94.45H678.891C680.691 94.45 682.191 95 683.391 96.1C684.591 97.2 685.191 98.65 685.191 100.45C685.191 102.15 684.591 103.55 683.391 104.65C682.191 105.75 680.691 106.3 678.891 106.3H642.741ZM742.096 174.1C734.596 174.1 727.896 172.3 721.996 168.7C716.096 165.1 711.446 160.15 708.046 153.85C704.646 147.55 702.946 140.45 702.946 132.55C702.946 124.55 704.746 117.45 708.346 111.25C712.046 104.95 716.996 100 723.196 96.4C729.496 92.7 736.546 90.85 744.346 90.85C752.246 90.85 759.296 92.7 765.496 96.4C771.696 100 776.596 104.95 780.196 111.25C783.896 117.55 785.796 124.65 785.896 132.55L780.496 133.9C780.496 141.5 778.796 148.35 775.396 154.45C771.996 160.55 767.396 165.35 761.596 168.85C755.896 172.35 749.396 174.1 742.096 174.1ZM744.346 161.8C749.746 161.8 754.546 160.55 758.746 158.05C762.946 155.45 766.246 151.95 768.646 147.55C771.146 143.05 772.396 138.05 772.396 132.55C772.396 126.95 771.146 121.95 768.646 117.55C766.246 113.05 762.946 109.55 758.746 107.05C754.546 104.45 749.746 103.15 744.346 103.15C739.146 103.15 734.396 104.45 730.096 107.05C725.796 109.55 722.396 113.05 719.896 117.55C717.496 121.95 716.296 126.95 716.296 132.55C716.296 138.05 717.496 143.05 719.896 147.55C722.396 151.95 725.796 155.45 730.096 158.05C734.396 160.55 739.146 161.8 744.346 161.8ZM778.846 173.65C776.846 173.65 775.196 173 773.896 171.7C772.596 170.4 771.946 168.75 771.946 166.75V142.75L774.796 128.35L785.896 132.55V166.75C785.896 168.75 785.196 170.4 783.796 171.7C782.496 173 780.846 173.65 778.846 173.65ZM843.464 174.1C835.964 174.1 829.264 172.3 823.364 168.7C817.464 165.1 812.814 160.15 809.414 153.85C806.014 147.55 804.314 140.45 804.314 132.55C804.314 124.55 806.114 117.45 809.714 111.25C813.414 104.95 818.364 100 824.564 96.4C830.864 92.7 837.914 90.85 845.714 90.85C853.614 90.85 860.664 92.7 866.864 96.4C873.064 100 877.964 104.95 881.564 111.25C885.264 117.55 887.164 124.65 887.264 132.55L881.864 133.9C881.864 141.5 880.164 148.35 876.764 154.45C873.364 160.55 868.764 165.35 862.964 168.85C857.264 172.35 850.764 174.1 843.464 174.1ZM845.714 161.8C851.114 161.8 855.914 160.55 860.114 158.05C864.314 155.45 867.614 151.95 870.014 147.55C872.514 143.05 873.764 138.05 873.764 132.55C873.764 126.95 872.514 121.95 870.014 117.55C867.614 113.05 864.314 109.55 860.114 107.05C855.914 104.45 851.114 103.15 845.714 103.15C840.514 103.15 835.764 104.45 831.464 107.05C827.164 109.55 823.764 113.05 821.264 117.55C818.864 121.95 817.664 126.95 817.664 132.55C817.664 138.05 818.864 143.05 821.264 147.55C823.764 151.95 827.164 155.45 831.464 158.05C835.764 160.55 840.514 161.8 845.714 161.8ZM880.214 173.65C878.214 173.65 876.564 173 875.264 171.7C873.964 170.4 873.314 168.75 873.314 166.75V142.75L876.164 128.35L887.264 132.55V166.75C887.264 168.75 886.564 170.4 885.164 171.7C883.864 173 882.214 173.65 880.214 173.65Z" fill="var(--darkGray)"/>
</svg>
