<svg viewBox="0 0 256 256" fill="none" xmlns="http://www.w3.org/2000/svg">
<mask id="mask0_4249_34" style="mask-type:alpha" maskUnits="userSpaceOnUse" x="0" y="0" width="256" height="256">
<rect width="256" height="256" fill="var(--gray)"/>
</mask>
<g mask="url(#mask0_4249_34)">
<mask id="path-2-outside-1_4249_34" maskUnits="userSpaceOnUse" x="16" y="61" width="208" height="134" fill="black">
<rect fill="var(--pageColor)" x="16" y="61" width="208" height="134"/>
<path d="M114.1 181L104.35 152.65H64L54.4 181H34L73.3 73.45H95.2L134.5 181H114.1ZM90.1 108.55C89.7 107.15 89.1 105.25 88.3 102.85C87.5 100.45 86.7 98 85.9 95.5C85.2 92.9 84.65 90.75 84.25 89.05C83.75 91.05 83.1 93.35 82.3 95.95C81.6 98.55 80.9 101 80.2 103.3C79.6 105.6 79.1 107.35 78.7 108.55L69.25 136.15H99.4L90.1 108.55ZM179.185 98.2C189.685 98.2 197.635 100.5 203.035 105.1C208.535 109.6 211.285 116.7 211.285 126.4V181H197.935L194.185 169.75H193.585C191.285 172.65 188.885 175.1 186.385 177.1C183.985 179 181.185 180.35 177.985 181.15C174.885 182.05 171.085 182.5 166.585 182.5C161.785 182.5 157.435 181.6 153.535 179.8C149.735 178 146.735 175.25 144.535 171.55C142.335 167.75 141.235 163 141.235 157.3C141.235 148.9 144.285 142.6 150.385 138.4C156.585 134.1 165.935 131.75 178.435 131.35L192.535 130.9V126.85C192.535 121.65 191.285 117.95 188.785 115.75C186.285 113.55 182.785 112.45 178.285 112.45C174.185 112.45 170.235 113.05 166.435 114.25C162.635 115.45 158.935 116.85 155.335 118.45L149.335 105.25C153.335 103.15 157.885 101.45 162.985 100.15C168.185 98.85 173.585 98.2 179.185 98.2ZM182.635 142.9C174.335 143.2 168.585 144.65 165.385 147.25C162.185 149.75 160.585 153.15 160.585 157.45C160.585 161.25 161.735 164 164.035 165.7C166.335 167.4 169.285 168.25 172.885 168.25C178.385 168.25 183.035 166.7 186.835 163.6C190.635 160.4 192.535 155.7 192.535 149.5V142.6L182.635 142.9Z"/>
</mask>
<path d="M114.1 181L104.35 152.65H64L54.4 181H34L73.3 73.45H95.2L134.5 181H114.1ZM90.1 108.55C89.7 107.15 89.1 105.25 88.3 102.85C87.5 100.45 86.7 98 85.9 95.5C85.2 92.9 84.65 90.75 84.25 89.05C83.75 91.05 83.1 93.35 82.3 95.95C81.6 98.55 80.9 101 80.2 103.3C79.6 105.6 79.1 107.35 78.7 108.55L69.25 136.15H99.4L90.1 108.55ZM179.185 98.2C189.685 98.2 197.635 100.5 203.035 105.1C208.535 109.6 211.285 116.7 211.285 126.4V181H197.935L194.185 169.75H193.585C191.285 172.65 188.885 175.1 186.385 177.1C183.985 179 181.185 180.35 177.985 181.15C174.885 182.05 171.085 182.5 166.585 182.5C161.785 182.5 157.435 181.6 153.535 179.8C149.735 178 146.735 175.25 144.535 171.55C142.335 167.75 141.235 163 141.235 157.3C141.235 148.9 144.285 142.6 150.385 138.4C156.585 134.1 165.935 131.75 178.435 131.35L192.535 130.9V126.85C192.535 121.65 191.285 117.95 188.785 115.75C186.285 113.55 182.785 112.45 178.285 112.45C174.185 112.45 170.235 113.05 166.435 114.25C162.635 115.45 158.935 116.85 155.335 118.45L149.335 105.25C153.335 103.15 157.885 101.45 162.985 100.15C168.185 98.85 173.585 98.2 179.185 98.2ZM182.635 142.9C174.335 143.2 168.585 144.65 165.385 147.25C162.185 149.75 160.585 153.15 160.585 157.45C160.585 161.25 161.735 164 164.035 165.7C166.335 167.4 169.285 168.25 172.885 168.25C178.385 168.25 183.035 166.7 186.835 163.6C190.635 160.4 192.535 155.7 192.535 149.5V142.6L182.635 142.9Z" fill="var(--pageColor)"/>
<path d="M114.1 181L102.752 184.903L105.537 193H114.1V181ZM104.35 152.65L115.698 148.747L112.913 140.65H104.35V152.65ZM64 152.65V140.65H55.3942L52.634 148.801L64 152.65ZM54.4 181V193H63.0058L65.766 184.849L54.4 181ZM34 181L22.7289 176.881L16.839 193H34V181ZM73.3 73.45V61.45H64.9089L62.0289 69.3314L73.3 73.45ZM95.2 73.45L106.471 69.3314L103.591 61.45H95.2V73.45ZM134.5 181V193H151.661L145.771 176.881L134.5 181ZM90.1 108.55L78.5617 111.847L78.6387 112.116L78.7282 112.382L90.1 108.55ZM88.3 102.85L99.6842 99.0553L99.6842 99.0553L88.3 102.85ZM85.9 95.5L74.3126 98.6197L74.3855 98.8903L74.4709 99.1573L85.9 95.5ZM84.25 89.05L95.931 86.3015L72.6083 86.1396L84.25 89.05ZM82.3 95.95L70.8307 92.421L70.768 92.6246L70.7126 92.8303L82.3 95.95ZM80.2 103.3L68.7199 99.8061L68.6496 100.037L68.5886 100.271L80.2 103.3ZM78.7 108.55L90.053 112.437L90.0688 112.391L90.0842 112.345L78.7 108.55ZM69.25 136.15L57.897 132.263L52.4574 148.15H69.25V136.15ZM99.4 136.15V148.15H116.106L110.772 132.318L99.4 136.15ZM114.1 181L125.448 177.097L115.698 148.747L104.35 152.65L93.0023 156.553L102.752 184.903L114.1 181ZM104.35 152.65V140.65H64V152.65V164.65H104.35V152.65ZM64 152.65L52.634 148.801L43.034 177.151L54.4 181L65.766 184.849L75.366 156.499L64 152.65ZM54.4 181V169H34V181V193H54.4V181ZM34 181L45.2711 185.119L84.5711 77.5686L73.3 73.45L62.0289 69.3314L22.7289 176.881L34 181ZM73.3 73.45V85.45H95.2V73.45V61.45H73.3V73.45ZM95.2 73.45L83.9289 77.5686L123.229 185.119L134.5 181L145.771 176.881L106.471 69.3314L95.2 73.45ZM134.5 181V169H114.1V181V193H134.5V181ZM90.1 108.55L101.638 105.253C101.168 103.608 100.506 101.519 99.6842 99.0553L88.3 102.85L76.9158 106.645C77.6945 108.981 78.2317 110.692 78.5617 111.847L90.1 108.55ZM88.3 102.85L99.6842 99.0553C98.9 96.7027 98.115 94.2985 97.3291 91.8427L85.9 95.5L74.4709 99.1573C75.2851 101.701 76.1 104.197 76.9158 106.645L88.3 102.85ZM85.9 95.5L97.4874 92.3803C96.8049 89.8454 96.2906 87.83 95.931 86.3015L84.25 89.05L72.569 91.7985C73.0094 93.67 73.5951 95.9546 74.3126 98.6197L85.9 95.5ZM84.25 89.05L72.6083 86.1396C72.1735 87.8786 71.5862 89.9653 70.8307 92.421L82.3 95.95L93.7694 99.479C94.6138 96.7347 95.3265 94.2214 95.8917 91.9604L84.25 89.05ZM82.3 95.95L70.7126 92.8303C70.0424 95.3196 69.378 97.6439 68.7199 99.8061L80.2 103.3L91.6801 106.794C92.422 104.356 93.1576 101.78 93.8874 99.0697L82.3 95.95ZM80.2 103.3L68.5886 100.271C68.0085 102.495 67.588 103.939 67.3158 104.755L78.7 108.55L90.0842 112.345C90.612 110.761 91.1915 108.705 91.8114 106.329L80.2 103.3ZM78.7 108.55L67.347 104.663L57.897 132.263L69.25 136.15L80.603 140.037L90.053 112.437L78.7 108.55ZM69.25 136.15V148.15H99.4V136.15V124.15H69.25V136.15ZM99.4 136.15L110.772 132.318L101.472 104.718L90.1 108.55L78.7282 112.382L88.0282 139.982L99.4 136.15ZM203.035 105.1L195.253 114.235L195.344 114.312L195.436 114.387L203.035 105.1ZM211.285 181V193H223.285V181H211.285ZM197.935 181L186.551 184.795L189.286 193H197.935V181ZM194.185 169.75L205.569 165.955L202.834 157.75H194.185V169.75ZM193.585 169.75V157.75H187.786L184.183 162.293L193.585 169.75ZM186.385 177.1L193.833 186.509L193.857 186.49L193.881 186.47L186.385 177.1ZM177.985 181.15L175.074 169.508L174.856 169.563L174.639 169.626L177.985 181.15ZM153.535 179.8L148.398 190.645L148.452 190.67L148.506 190.696L153.535 179.8ZM144.535 171.55L134.15 177.562L134.185 177.623L134.22 177.683L144.535 171.55ZM150.385 138.4L157.19 148.284L157.207 148.272L157.224 148.261L150.385 138.4ZM178.435 131.35L178.052 119.356L178.051 119.356L178.435 131.35ZM192.535 130.9L192.918 142.894L204.535 142.523V130.9H192.535ZM188.785 115.75L196.712 106.741L196.712 106.741L188.785 115.75ZM166.435 114.25L170.048 125.693L170.048 125.693L166.435 114.25ZM155.335 118.45L144.41 123.416L149.334 134.249L160.208 129.416L155.335 118.45ZM149.335 105.25L143.757 94.6252L133.719 99.895L138.41 110.216L149.335 105.25ZM162.985 100.15L160.074 88.5083L160.048 88.515L160.021 88.5218L162.985 100.15ZM182.635 142.9L182.271 130.906L182.236 130.907L182.201 130.908L182.635 142.9ZM165.385 147.25L172.772 156.706L172.863 156.636L172.952 156.563L165.385 147.25ZM164.035 165.7L171.167 156.05L171.167 156.05L164.035 165.7ZM186.835 163.6L194.42 172.898L194.493 172.839L194.564 172.779L186.835 163.6ZM192.535 142.6H204.535V130.231L192.171 130.606L192.535 142.6ZM179.185 98.2V110.2C188.162 110.2 192.858 112.194 195.253 114.235L203.035 105.1L210.816 95.9651C202.412 88.8056 191.207 86.2 179.185 86.2V98.2ZM203.035 105.1L195.436 114.387C197.228 115.854 199.285 118.908 199.285 126.4H211.285H223.285C223.285 114.492 219.842 103.346 210.634 95.8125L203.035 105.1ZM211.285 126.4H199.285V181H211.285H223.285V126.4H211.285ZM211.285 181V169H197.935V181V193H211.285V181ZM197.935 181L209.319 177.205L205.569 165.955L194.185 169.75L182.801 173.545L186.551 184.795L197.935 181ZM194.185 169.75V157.75H193.585V169.75V181.75H194.185V169.75ZM193.585 169.75L184.183 162.293C182.359 164.593 180.584 166.373 178.888 167.73L186.385 177.1L193.881 186.47C197.186 183.827 200.211 180.707 202.987 177.207L193.585 169.75ZM186.385 177.1L178.936 167.691C177.975 168.453 176.75 169.089 175.074 169.508L177.985 181.15L180.895 192.792C185.619 191.611 189.995 189.547 193.833 186.509L186.385 177.1ZM177.985 181.15L174.639 169.626C172.96 170.113 170.362 170.5 166.585 170.5V182.5V194.5C171.808 194.5 176.81 193.987 181.33 192.674L177.985 181.15ZM166.585 182.5V170.5C163.316 170.5 160.711 169.896 158.563 168.904L153.535 179.8L148.506 190.696C154.159 193.304 160.254 194.5 166.585 194.5V182.5ZM153.535 179.8L158.672 168.955C157.081 168.202 155.861 167.119 154.849 165.417L144.535 171.55L134.22 177.683C137.609 183.381 142.388 187.798 148.398 190.645L153.535 179.8ZM144.535 171.55L154.92 165.538C154.048 164.032 153.235 161.503 153.235 157.3H141.235H129.235C129.235 164.497 130.621 171.468 134.15 177.562L144.535 171.55ZM141.235 157.3H153.235C153.235 152.233 154.819 149.917 157.19 148.284L150.385 138.4L143.58 128.516C133.751 135.283 129.235 145.567 129.235 157.3H141.235ZM150.385 138.4L157.224 148.261C160.647 145.886 167.265 143.714 178.819 143.344L178.435 131.35L178.051 119.356C164.604 119.786 152.523 122.314 143.546 128.539L150.385 138.4ZM178.435 131.35L178.818 143.344L192.918 142.894L192.535 130.9L192.152 118.906L178.052 119.356L178.435 131.35ZM192.535 130.9H204.535V126.85H192.535H180.535V130.9H192.535ZM192.535 126.85H204.535C204.535 120.122 202.959 112.238 196.712 106.741L188.785 115.75L180.857 124.759C180.272 124.244 180.16 123.813 180.229 124.016C180.323 124.295 180.535 125.15 180.535 126.85H192.535ZM188.785 115.75L196.712 106.741C191.353 102.025 184.669 100.45 178.285 100.45V112.45V124.45C179.58 124.45 180.33 124.611 180.687 124.723C181.003 124.822 180.987 124.873 180.857 124.759L188.785 115.75ZM178.285 112.45V100.45C172.995 100.45 167.824 101.227 162.821 102.807L166.435 114.25L170.048 125.693C172.646 124.873 175.375 124.45 178.285 124.45V112.45ZM166.435 114.25L162.821 102.807C158.597 104.141 154.477 105.7 150.461 107.484L155.335 118.45L160.208 129.416C163.393 128 166.672 126.759 170.048 125.693L166.435 114.25ZM155.335 118.45L166.259 113.484L160.259 100.284L149.335 105.25L138.41 110.216L144.41 123.416L155.335 118.45ZM149.335 105.25L154.913 115.875C157.961 114.275 161.611 112.884 165.949 111.778L162.985 100.15L160.021 88.5218C154.158 90.0162 148.709 92.0254 143.757 94.6252L149.335 105.25ZM162.985 100.15L165.895 111.792C170.102 110.74 174.522 110.2 179.185 110.2V98.2V86.2C172.648 86.2 166.268 86.9599 160.074 88.5083L162.985 100.15ZM182.635 142.9L182.201 130.908C173.5 131.222 164.262 132.701 157.818 137.937L165.385 147.25L172.952 156.563C172.735 156.739 173.164 156.319 175.031 155.848C176.835 155.393 179.454 155.023 183.068 154.892L182.635 142.9ZM165.385 147.25L157.997 137.794C151.693 142.719 148.585 149.708 148.585 157.45H160.585H172.585C172.585 157.12 172.615 156.924 172.634 156.835C172.651 156.751 172.661 156.745 172.643 156.785C172.623 156.826 172.6 156.858 172.593 156.867C172.589 156.872 172.634 156.815 172.772 156.706L165.385 147.25ZM160.585 157.45H148.585C148.585 163.695 150.59 170.685 156.902 175.35L164.035 165.7L171.167 156.05C171.464 156.269 171.755 156.548 172.009 156.876C172.261 157.201 172.423 157.504 172.518 157.733C172.7 158.167 172.585 158.18 172.585 157.45H160.585ZM164.035 165.7L156.902 175.35C161.749 178.932 167.389 180.25 172.885 180.25V168.25V156.25C172.02 156.25 171.522 156.147 171.295 156.082C171.09 156.023 171.088 155.991 171.167 156.05L164.035 165.7ZM172.885 168.25V180.25C180.793 180.25 188.218 177.958 194.42 172.898L186.835 163.6L179.249 154.302C177.852 155.442 175.977 156.25 172.885 156.25V168.25ZM186.835 163.6L194.564 172.779C201.726 166.748 204.535 158.285 204.535 149.5H192.535H180.535C180.535 153.115 179.544 154.052 179.105 154.421L186.835 163.6ZM192.535 149.5H204.535V142.6H192.535H180.535V149.5H192.535ZM192.535 142.6L192.171 130.606L182.271 130.906L182.635 142.9L182.998 154.894L192.898 154.594L192.535 142.6Z" fill="var(--pageColor)" mask="url(#path-2-outside-1_4249_34)"/>
<path d="M114.1 181L104.35 152.65H64L54.4 181H34L73.3 73.45H95.2L134.5 181H114.1ZM90.1 108.55C89.7 107.15 89.1 105.25 88.3 102.85C87.5 100.45 86.7 98 85.9 95.5C85.2 92.9 84.65 90.75 84.25 89.05C83.75 91.05 83.1 93.35 82.3 95.95C81.6 98.55 80.9 101 80.2 103.3C79.6 105.6 79.1 107.35 78.7 108.55L69.25 136.15H99.4L90.1 108.55ZM179.185 98.2C189.685 98.2 197.635 100.5 203.035 105.1C208.535 109.6 211.285 116.7 211.285 126.4V181H197.935L194.185 169.75H193.585C191.285 172.65 188.885 175.1 186.385 177.1C183.985 179 181.185 180.35 177.985 181.15C174.885 182.05 171.085 182.5 166.585 182.5C161.785 182.5 157.435 181.6 153.535 179.8C149.735 178 146.735 175.25 144.535 171.55C142.335 167.75 141.235 163 141.235 157.3C141.235 148.9 144.285 142.6 150.385 138.4C156.585 134.1 165.935 131.75 178.435 131.35L192.535 130.9V126.85C192.535 121.65 191.285 117.95 188.785 115.75C186.285 113.55 182.785 112.45 178.285 112.45C174.185 112.45 170.235 113.05 166.435 114.25C162.635 115.45 158.935 116.85 155.335 118.45L149.335 105.25C153.335 103.15 157.885 101.45 162.985 100.15C168.185 98.85 173.585 98.2 179.185 98.2ZM182.635 142.9C174.335 143.2 168.585 144.65 165.385 147.25C162.185 149.75 160.585 153.15 160.585 157.45C160.585 161.25 161.735 164 164.035 165.7C166.335 167.4 169.285 168.25 172.885 168.25C178.385 168.25 183.035 166.7 186.835 163.6C190.635 160.4 192.535 155.7 192.535 149.5V142.6L182.635 142.9Z" fill="var(--darkGray)"/>
</g>
</svg>
