<svg viewBox="0 0 256 256" fill="none" xmlns="http://www.w3.org/2000/svg">
<mask id="mask0_4249_24" style="mask-type:alpha" maskUnits="userSpaceOnUse" x="0" y="0" width="256" height="256">
<rect width="256" height="256" fill="var(--gray)"/>
</mask>
<g mask="url(#mask0_4249_24)">
<mask id="path-2-outside-1_4249_24" maskUnits="userSpaceOnUse" x="27" y="61" width="205" height="134" fill="black">
<rect fill="var(--pageColor)" x="27" y="61" width="205" height="134"/>
<path d="M93.95 74.35L130.4 168.4C131.9 172 133.5 174.5 135.2 175.9C137 177.2 138.65 177.9 140.15 178V181C137.55 180.8 134.4 180.7 130.7 180.7C127.1 180.6 123.4 180.55 119.6 180.55C115.2 180.55 111.1 180.6 107.3 180.7C103.5 180.7 100.4 180.8 98 181V178C103.1 177.8 106.35 176.95 107.75 175.45C109.15 173.85 108.85 170.5 106.85 165.4L80.45 94.15L83.15 90.85L59.15 153.1C57.25 158.1 56.1 162.2 55.7 165.4C55.3 168.6 55.55 171.1 56.45 172.9C57.35 174.7 58.85 176 60.95 176.8C63.05 177.5 65.65 177.9 68.75 178V181C65.55 180.8 62.45 180.7 59.45 180.7C56.45 180.6 53.45 180.55 50.45 180.55C48.25 180.55 46.15 180.6 44.15 180.7C42.25 180.7 40.55 180.8 39.05 181V178C41.25 177.5 43.4 176.2 45.5 174.1C47.7 172 49.8 168.35 51.8 163.15L86.15 74.35C87.35 74.45 88.65 74.5 90.05 74.5C91.45 74.5 92.75 74.45 93.95 74.35ZM107 137.8V140.8H62.3L63.8 137.8H107ZM164.041 182.05C159.741 182.05 156.091 181.25 153.091 179.65C150.091 177.95 147.841 175.7 146.341 172.9C144.841 170 144.091 166.8 144.091 163.3C144.091 159 145.091 155.5 147.091 152.8C149.091 150 151.641 147.8 154.741 146.2C157.941 144.5 161.291 143.1 164.791 142C168.291 140.8 171.591 139.7 174.691 138.7C177.791 137.6 180.341 136.35 182.341 134.95C184.341 133.55 185.341 131.7 185.341 129.4V118.45C185.341 115.25 184.841 112.65 183.841 110.65C182.941 108.55 181.541 107 179.641 106C177.841 104.9 175.541 104.35 172.741 104.35C170.641 104.35 168.441 104.65 166.141 105.25C163.841 105.85 161.941 107 160.441 108.7C163.041 109.4 165.041 110.7 166.441 112.6C167.941 114.5 168.691 116.8 168.691 119.5C168.691 122.6 167.641 125.05 165.541 126.85C163.541 128.55 160.991 129.4 157.891 129.4C154.591 129.4 152.091 128.35 150.391 126.25C148.691 124.15 147.841 121.7 147.841 118.9C147.841 116.1 148.541 113.8 149.941 112C151.341 110.1 153.291 108.4 155.791 106.9C158.291 105.2 161.491 103.85 165.391 102.85C169.291 101.85 173.541 101.35 178.141 101.35C182.541 101.35 186.441 101.85 189.841 102.85C193.241 103.75 196.141 105.4 198.541 107.8C200.941 110.1 202.491 112.95 203.191 116.35C203.891 119.75 204.241 123.9 204.241 128.8V169.9C204.241 172.4 204.541 174.2 205.141 175.3C205.741 176.3 206.691 176.8 207.991 176.8C208.991 176.8 209.941 176.55 210.841 176.05C211.741 175.55 212.741 174.85 213.841 173.95L215.491 176.5C213.291 178.2 210.991 179.55 208.591 180.55C206.191 181.55 203.291 182.05 199.891 182.05C196.391 182.05 193.591 181.55 191.491 180.55C189.491 179.55 187.991 178.1 186.991 176.2C186.091 174.3 185.591 172.05 185.491 169.45C183.091 173.45 180.141 176.55 176.641 178.75C173.141 180.95 168.941 182.05 164.041 182.05ZM173.041 173.65C175.441 173.65 177.641 173 179.641 171.7C181.741 170.4 183.641 168.45 185.341 165.85V135.55C184.341 137.05 182.891 138.4 180.991 139.6C179.191 140.8 177.241 142 175.141 143.2C173.041 144.4 171.041 145.8 169.141 147.4C167.341 148.9 165.791 150.8 164.491 153.1C163.291 155.3 162.691 158.15 162.691 161.65C162.691 165.55 163.641 168.55 165.541 170.65C167.441 172.65 169.941 173.65 173.041 173.65Z"/>
</mask>
<path d="M93.95 74.35L130.4 168.4C131.9 172 133.5 174.5 135.2 175.9C137 177.2 138.65 177.9 140.15 178V181C137.55 180.8 134.4 180.7 130.7 180.7C127.1 180.6 123.4 180.55 119.6 180.55C115.2 180.55 111.1 180.6 107.3 180.7C103.5 180.7 100.4 180.8 98 181V178C103.1 177.8 106.35 176.95 107.75 175.45C109.15 173.85 108.85 170.5 106.85 165.4L80.45 94.15L83.15 90.85L59.15 153.1C57.25 158.1 56.1 162.2 55.7 165.4C55.3 168.6 55.55 171.1 56.45 172.9C57.35 174.7 58.85 176 60.95 176.8C63.05 177.5 65.65 177.9 68.75 178V181C65.55 180.8 62.45 180.7 59.45 180.7C56.45 180.6 53.45 180.55 50.45 180.55C48.25 180.55 46.15 180.6 44.15 180.7C42.25 180.7 40.55 180.8 39.05 181V178C41.25 177.5 43.4 176.2 45.5 174.1C47.7 172 49.8 168.35 51.8 163.15L86.15 74.35C87.35 74.45 88.65 74.5 90.05 74.5C91.45 74.5 92.75 74.45 93.95 74.35ZM107 137.8V140.8H62.3L63.8 137.8H107ZM164.041 182.05C159.741 182.05 156.091 181.25 153.091 179.65C150.091 177.95 147.841 175.7 146.341 172.9C144.841 170 144.091 166.8 144.091 163.3C144.091 159 145.091 155.5 147.091 152.8C149.091 150 151.641 147.8 154.741 146.2C157.941 144.5 161.291 143.1 164.791 142C168.291 140.8 171.591 139.7 174.691 138.7C177.791 137.6 180.341 136.35 182.341 134.95C184.341 133.55 185.341 131.7 185.341 129.4V118.45C185.341 115.25 184.841 112.65 183.841 110.65C182.941 108.55 181.541 107 179.641 106C177.841 104.9 175.541 104.35 172.741 104.35C170.641 104.35 168.441 104.65 166.141 105.25C163.841 105.85 161.941 107 160.441 108.7C163.041 109.4 165.041 110.7 166.441 112.6C167.941 114.5 168.691 116.8 168.691 119.5C168.691 122.6 167.641 125.05 165.541 126.85C163.541 128.55 160.991 129.4 157.891 129.4C154.591 129.4 152.091 128.35 150.391 126.25C148.691 124.15 147.841 121.7 147.841 118.9C147.841 116.1 148.541 113.8 149.941 112C151.341 110.1 153.291 108.4 155.791 106.9C158.291 105.2 161.491 103.85 165.391 102.85C169.291 101.85 173.541 101.35 178.141 101.35C182.541 101.35 186.441 101.85 189.841 102.85C193.241 103.75 196.141 105.4 198.541 107.8C200.941 110.1 202.491 112.95 203.191 116.35C203.891 119.75 204.241 123.9 204.241 128.8V169.9C204.241 172.4 204.541 174.2 205.141 175.3C205.741 176.3 206.691 176.8 207.991 176.8C208.991 176.8 209.941 176.55 210.841 176.05C211.741 175.55 212.741 174.85 213.841 173.95L215.491 176.5C213.291 178.2 210.991 179.55 208.591 180.55C206.191 181.55 203.291 182.05 199.891 182.05C196.391 182.05 193.591 181.55 191.491 180.55C189.491 179.55 187.991 178.1 186.991 176.2C186.091 174.3 185.591 172.05 185.491 169.45C183.091 173.45 180.141 176.55 176.641 178.75C173.141 180.95 168.941 182.05 164.041 182.05ZM173.041 173.65C175.441 173.65 177.641 173 179.641 171.7C181.741 170.4 183.641 168.45 185.341 165.85V135.55C184.341 137.05 182.891 138.4 180.991 139.6C179.191 140.8 177.241 142 175.141 143.2C173.041 144.4 171.041 145.8 169.141 147.4C167.341 148.9 165.791 150.8 164.491 153.1C163.291 155.3 162.691 158.15 162.691 161.65C162.691 165.55 163.641 168.55 165.541 170.65C167.441 172.65 169.941 173.65 173.041 173.65Z" fill="var(--pageColor)"/>
<path d="M93.95 74.35L105.139 70.0136L101.896 61.6462L92.9535 62.3914L93.95 74.35ZM130.4 168.4L119.211 172.736L119.265 172.877L119.323 173.015L130.4 168.4ZM135.2 175.9L127.572 185.163L127.865 185.405L128.174 185.628L135.2 175.9ZM140.15 178H152.15V166.773L140.948 166.027L140.15 178ZM140.15 181L139.23 192.965L152.15 193.959V181H140.15ZM130.7 180.7L130.367 192.695L130.533 192.7H130.7V180.7ZM107.3 180.7V192.7H107.458L107.616 192.696L107.3 180.7ZM98 181H86V194.042L98.9966 192.959L98 181ZM98 178L97.5298 166.009L86 166.461V178H98ZM107.75 175.45L116.523 183.638L116.654 183.497L116.781 183.352L107.75 175.45ZM106.85 165.4L95.5976 169.569L95.637 169.676L95.6783 169.781L106.85 165.4ZM80.45 94.15L71.1625 86.5511L66.8088 91.8723L69.1976 98.3193L80.45 94.15ZM83.15 90.85L94.3467 95.1668L73.8625 83.2511L83.15 90.85ZM59.15 153.1L47.9533 148.783L47.9429 148.81L47.9326 148.837L59.15 153.1ZM55.7 165.4L67.6073 166.888L55.7 165.4ZM56.45 172.9L67.1831 167.533L67.1831 167.533L56.45 172.9ZM60.95 176.8L56.6781 188.014L56.9149 188.104L57.1553 188.184L60.95 176.8ZM68.75 178H80.75V166.381L69.1369 166.006L68.75 178ZM68.75 181L68.0015 192.977L80.75 193.773V181H68.75ZM59.45 180.7L59.0502 192.693L59.2501 192.7H59.45V180.7ZM44.15 180.7V192.7H44.4498L44.7493 192.685L44.15 180.7ZM39.05 181H27.05V194.706L40.636 192.895L39.05 181ZM39.05 178L36.3905 166.298L27.05 168.421V178H39.05ZM45.5 174.1L37.2143 165.42L37.1134 165.516L37.0147 165.615L45.5 174.1ZM51.8 163.15L40.6082 158.821L40.604 158.831L40.5999 158.842L51.8 163.15ZM86.15 74.35L87.1465 62.3914L78.1978 61.6457L74.9582 70.0207L86.15 74.35ZM107 137.8H119V125.8H107V137.8ZM107 140.8V152.8H119V140.8H107ZM62.3 140.8L51.5669 135.433L42.8836 152.8H62.3V140.8ZM63.8 137.8V125.8H56.3836L53.0669 132.433L63.8 137.8ZM93.95 74.35L82.7609 78.6864L119.211 172.736L130.4 168.4L141.589 164.064L105.139 70.0136L93.95 74.35ZM130.4 168.4L119.323 173.015C121.078 177.227 123.604 181.896 127.572 185.163L135.2 175.9L142.828 166.637C143.216 166.956 143.176 167.043 142.832 166.506C142.505 165.994 142.037 165.128 141.477 163.785L130.4 168.4ZM135.2 175.9L128.174 185.628C130.982 187.656 134.778 189.669 139.352 189.973L140.15 178L140.948 166.027C141.766 166.081 142.295 166.277 142.474 166.353C142.644 166.425 142.563 166.415 142.226 166.172L135.2 175.9ZM140.15 178H128.15V181H140.15H152.15V178H140.15ZM140.15 181L141.07 169.035C138.067 168.804 134.591 168.7 130.7 168.7V180.7V192.7C134.209 192.7 137.033 192.796 139.23 192.965L140.15 181ZM130.7 180.7L131.033 168.705C127.316 168.601 123.505 168.55 119.6 168.55V180.55V192.55C123.295 192.55 126.884 192.599 130.367 192.695L130.7 180.7ZM119.6 180.55V168.55C115.111 168.55 110.904 168.601 106.984 168.704L107.3 180.7L107.616 192.696C111.296 192.599 115.289 192.55 119.6 192.55V180.55ZM107.3 180.7V168.7C103.333 168.7 99.867 168.803 97.0035 169.041L98 181L98.9966 192.959C100.933 192.797 103.667 192.7 107.3 192.7V180.7ZM98 181H110V178H98H86V181H98ZM98 178L98.4702 189.991C101.489 189.872 104.522 189.548 107.299 188.822C109.86 188.152 113.575 186.796 116.523 183.638L107.75 175.45L98.9773 167.262C99.8106 166.369 100.587 165.922 100.941 165.743C101.298 165.562 101.44 165.547 101.226 165.603C101.027 165.655 100.629 165.74 99.9809 165.822C99.3407 165.902 98.5308 165.97 97.5298 166.009L98 178ZM107.75 175.45L116.781 183.352C120.615 178.97 120.804 173.757 120.527 170.667C120.232 167.372 119.212 164.053 118.022 161.019L106.85 165.4L95.6783 169.781C96.0578 170.749 96.3024 171.497 96.4525 172.048C96.6067 172.615 96.6264 172.847 96.6228 172.808C96.6214 172.792 96.5656 172.225 96.767 171.319C96.9819 170.352 97.5116 168.928 98.7191 167.548L107.75 175.45ZM106.85 165.4L118.102 161.231L91.7024 89.9807L80.45 94.15L69.1976 98.3193L95.5976 169.569L106.85 165.4ZM80.45 94.15L89.7375 101.749L92.4375 98.4489L83.15 90.85L73.8625 83.2511L71.1625 86.5511L80.45 94.15ZM83.15 90.85L71.9533 86.5332L47.9533 148.783L59.15 153.1L70.3467 157.417L94.3467 95.1668L83.15 90.85ZM59.15 153.1L47.9326 148.837C45.884 154.228 44.3633 159.346 43.7927 163.912L55.7 165.4L67.6073 166.888C67.8367 165.054 68.616 161.972 70.3674 157.363L59.15 153.1ZM55.7 165.4L43.7927 163.912C43.2606 168.168 43.2951 173.423 45.7169 178.267L56.45 172.9L67.1831 167.533C67.5258 168.219 67.5424 168.626 67.5279 168.481C67.5218 168.419 67.5105 168.259 67.5177 167.984C67.5249 167.711 67.5498 167.349 67.6073 166.888L55.7 165.4ZM56.45 172.9L45.7169 178.267C48.1222 183.077 52.1218 186.278 56.6781 188.014L60.95 176.8L65.2219 165.586C65.3124 165.621 65.6677 165.774 66.1092 166.157C66.568 166.554 66.9378 167.043 67.1831 167.533L56.45 172.9ZM60.95 176.8L57.1553 188.184C60.6981 189.365 64.53 189.87 68.3631 189.994L68.75 178L69.1369 166.006C66.77 165.93 65.4019 165.635 64.7447 165.416L60.95 176.8ZM68.75 178H56.75V181H68.75H80.75V178H68.75ZM68.75 181L69.4985 169.023C66.0662 168.809 62.716 168.7 59.45 168.7V180.7V192.7C62.184 192.7 65.0338 192.791 68.0015 192.977L68.75 181ZM59.45 180.7L59.8498 168.707C56.7166 168.602 53.5834 168.55 50.45 168.55V180.55V192.55C53.3166 192.55 56.1834 192.598 59.0502 192.693L59.45 180.7ZM50.45 180.55V168.55C48.0694 168.55 45.7687 168.604 43.5507 168.715L44.15 180.7L44.7493 192.685C46.5313 192.596 48.4306 192.55 50.45 192.55V180.55ZM44.15 180.7V168.7C41.847 168.7 39.6025 168.82 37.464 169.105L39.05 181L40.636 192.895C41.4975 192.78 42.653 192.7 44.15 192.7V180.7ZM39.05 181H51.05V178H39.05H27.05V181H39.05ZM39.05 178L41.7095 189.702C46.7117 188.565 50.7808 185.79 53.9853 182.585L45.5 174.1L37.0147 165.615C36.0192 166.61 35.7883 166.435 36.3905 166.298L39.05 178ZM45.5 174.1L53.7857 182.78C57.934 178.821 60.8076 173.158 63.0001 167.458L51.8 163.15L40.5999 158.842C39.7559 161.036 38.9841 162.655 38.3237 163.803C37.9984 164.369 37.7271 164.773 37.5212 165.048C37.3138 165.325 37.2053 165.428 37.2143 165.42L45.5 174.1ZM51.8 163.15L62.9918 167.479L97.3418 78.6793L86.15 74.35L74.9582 70.0207L40.6082 158.821L51.8 163.15ZM86.15 74.35L85.1535 86.3085C86.733 86.4402 88.3694 86.5 90.05 86.5V74.5V62.5C88.9306 62.5 87.967 62.4598 87.1465 62.3914L86.15 74.35ZM90.05 74.5V86.5C91.7306 86.5 93.367 86.4402 94.9465 86.3085L93.95 74.35L92.9535 62.3914C92.133 62.4598 91.1694 62.5 90.05 62.5V74.5ZM107 137.8H95V140.8H107H119V137.8H107ZM107 140.8V128.8H62.3V140.8V152.8H107V140.8ZM62.3 140.8L73.0331 146.167L74.5331 143.167L63.8 137.8L53.0669 132.433L51.5669 135.433L62.3 140.8ZM63.8 137.8V149.8H107V137.8V125.8H63.8V137.8ZM153.091 179.65L147.175 190.09L147.308 190.166L147.444 190.238L153.091 179.65ZM146.341 172.9L135.682 178.413L135.722 178.49L135.763 178.567L146.341 172.9ZM147.091 152.8L156.734 159.943L156.795 159.859L156.856 159.775L147.091 152.8ZM154.741 146.2L160.245 156.863L160.308 156.831L160.371 156.797L154.741 146.2ZM164.791 142L168.389 153.448L168.537 153.402L168.683 153.351L164.791 142ZM174.691 138.7L178.375 150.121L178.54 150.067L178.704 150.009L174.691 138.7ZM182.341 134.95L175.459 125.119L175.459 125.119L182.341 134.95ZM183.841 110.65L172.811 115.377L172.95 115.701L173.108 116.017L183.841 110.65ZM179.641 106L173.384 116.239L173.712 116.44L174.052 116.619L179.641 106ZM166.141 105.25L169.17 116.861L169.17 116.861L166.141 105.25ZM160.441 108.7L151.443 100.761L138.649 115.26L157.321 120.287L160.441 108.7ZM166.441 112.6L156.78 119.718L156.899 119.879L157.022 120.036L166.441 112.6ZM165.541 126.85L173.313 135.993L173.332 135.977L173.351 135.961L165.541 126.85ZM150.391 126.25L141.064 133.8L141.064 133.8L150.391 126.25ZM149.941 112L159.413 119.367L159.509 119.244L159.602 119.118L149.941 112ZM155.791 106.9L161.965 117.19L162.257 117.015L162.539 116.823L155.791 106.9ZM189.841 102.85L186.455 114.362L186.612 114.409L186.77 114.45L189.841 102.85ZM198.541 107.8L190.056 116.285L190.146 116.376L190.238 116.464L198.541 107.8ZM205.141 175.3L194.606 181.046L194.724 181.263L194.851 181.474L205.141 175.3ZM210.841 176.05L216.669 186.54L216.669 186.54L210.841 176.05ZM213.841 173.95L223.916 167.431L216.627 156.166L206.242 164.663L213.841 173.95ZM215.491 176.5L222.828 185.995L231.562 179.247L225.566 169.981L215.491 176.5ZM208.591 180.55L203.976 169.473L203.976 169.473L208.591 180.55ZM191.491 180.55L186.124 191.283L186.228 191.335L186.332 191.384L191.491 180.55ZM186.991 176.2L176.146 181.337L176.254 181.565L176.372 181.789L186.991 176.2ZM185.491 169.45L197.482 168.989L195.933 128.722L175.201 163.276L185.491 169.45ZM176.641 178.75L170.255 168.59L176.641 178.75ZM179.641 171.7L173.325 161.497L173.212 161.567L173.101 161.639L179.641 171.7ZM185.341 165.85L195.385 172.417L197.341 169.425V165.85H185.341ZM185.341 135.55H197.341V95.9167L175.356 128.894L185.341 135.55ZM180.991 139.6L174.583 129.454L174.458 129.533L174.335 129.615L180.991 139.6ZM175.141 143.2L169.187 132.781L169.187 132.781L175.141 143.2ZM169.141 147.4L176.823 156.619L176.847 156.599L176.871 156.579L169.141 147.4ZM164.491 153.1L154.044 147.195L154 147.274L153.956 147.354L164.491 153.1ZM165.541 170.65L156.643 178.701L156.741 178.809L156.841 178.915L165.541 170.65ZM164.041 182.05V170.05C161.201 170.05 159.6 169.521 158.738 169.062L153.091 179.65L147.444 190.238C152.582 192.979 158.281 194.05 164.041 194.05V182.05ZM153.091 179.65L159.007 169.21C157.806 168.529 157.256 167.863 156.919 167.233L146.341 172.9L135.763 178.567C138.426 183.537 142.377 187.371 147.175 190.09L153.091 179.65ZM146.341 172.9L157 167.387C156.444 166.312 156.091 165.023 156.091 163.3H144.091H132.091C132.091 168.577 133.238 173.688 135.682 178.413L146.341 172.9ZM144.091 163.3H156.091C156.091 160.848 156.646 160.062 156.734 159.943L147.091 152.8L137.448 145.657C133.536 150.938 132.091 157.152 132.091 163.3H144.091ZM147.091 152.8L156.856 159.775C157.733 158.547 158.813 157.602 160.245 156.863L154.741 146.2L149.237 135.537C144.469 137.998 140.449 141.453 137.326 145.825L147.091 152.8ZM154.741 146.2L160.371 156.797C162.913 155.447 165.582 154.33 168.389 153.448L164.791 142L161.193 130.552C157 131.87 152.969 133.553 149.111 135.603L154.741 146.2ZM164.791 142L168.683 153.351C172.123 152.172 175.353 151.095 178.375 150.121L174.691 138.7L171.007 127.279C167.829 128.305 164.459 129.428 160.899 130.649L164.791 142ZM174.691 138.7L178.704 150.009C182.494 148.664 186.091 146.973 189.223 144.781L182.341 134.95L175.459 125.119C174.591 125.727 173.088 126.536 170.678 127.391L174.691 138.7ZM182.341 134.95L189.223 144.781C194.198 141.298 197.341 135.891 197.341 129.4H185.341H173.341C173.341 128.749 173.5 127.795 174.035 126.806C174.555 125.844 175.176 125.317 175.459 125.119L182.341 134.95ZM185.341 129.4H197.341V118.45H185.341H173.341V129.4H185.341ZM185.341 118.45H197.341C197.341 114.136 196.688 109.51 194.574 105.283L183.841 110.65L173.108 116.017C173.037 115.875 173.102 115.951 173.182 116.366C173.262 116.784 173.341 117.459 173.341 118.45H185.341ZM183.841 110.65L194.871 105.923C192.961 101.468 189.728 97.7486 185.23 95.381L179.641 106L174.052 116.619C173.789 116.481 173.483 116.257 173.211 115.956C172.946 115.662 172.833 115.428 172.811 115.377L183.841 110.65ZM179.641 106L185.898 95.7606C181.693 93.1906 177.046 92.35 172.741 92.35V104.35V116.35C173.368 116.35 173.688 116.413 173.775 116.433C173.848 116.451 173.678 116.419 173.384 116.239L179.641 106ZM172.741 104.35V92.35C169.495 92.35 166.273 92.8139 163.112 93.6386L166.141 105.25L169.17 116.861C170.609 116.486 171.787 116.35 172.741 116.35V104.35ZM166.141 105.25L163.112 93.6386C158.619 94.8105 154.602 97.1804 151.443 100.761L160.441 108.7L169.439 116.639C169.425 116.655 169.395 116.686 169.35 116.725C169.304 116.763 169.254 116.799 169.205 116.829C169.156 116.858 169.12 116.874 169.106 116.88C169.093 116.886 169.112 116.877 169.17 116.861L166.141 105.25ZM160.441 108.7L157.321 120.287C157.562 120.352 157.53 120.378 157.351 120.261C157.264 120.205 157.161 120.127 157.054 120.026C156.947 119.925 156.855 119.819 156.78 119.718L166.441 112.6L176.102 105.482C172.866 101.091 168.395 98.4142 163.561 97.1126L160.441 108.7ZM166.441 112.6L157.022 120.036C156.967 119.965 156.905 119.874 156.848 119.767C156.79 119.659 156.748 119.557 156.72 119.47C156.66 119.288 156.691 119.268 156.691 119.5H168.691H180.691C180.691 114.431 179.225 109.427 175.86 105.164L166.441 112.6ZM168.691 119.5H156.691C156.691 119.687 156.663 119.428 156.874 118.935C157.1 118.408 157.441 117.988 157.732 117.739L165.541 126.85L173.351 135.961C178.45 131.59 180.691 125.629 180.691 119.5H168.691ZM165.541 126.85L157.769 117.707C157.856 117.633 157.959 117.56 158.071 117.498C158.183 117.435 158.275 117.398 158.334 117.378C158.454 117.338 158.345 117.4 157.891 117.4V129.4V141.4C163.297 141.4 168.764 139.86 173.313 135.993L165.541 126.85ZM157.891 129.4V117.4C157.499 117.4 157.684 117.337 158.188 117.549C158.441 117.655 158.728 117.812 159.016 118.028C159.305 118.245 159.539 118.479 159.718 118.7L150.391 126.25L141.064 133.8C145.546 139.337 151.854 141.4 157.891 141.4V129.4ZM150.391 126.25L159.718 118.7C159.705 118.684 159.718 118.698 159.744 118.743C159.769 118.788 159.795 118.844 159.816 118.904C159.836 118.964 159.844 119.005 159.846 119.016C159.848 119.027 159.841 118.991 159.841 118.9H147.841H135.841C135.841 124.34 137.568 129.481 141.064 133.8L150.391 126.25ZM147.841 118.9H159.841C159.841 118.494 159.892 118.418 159.846 118.569C159.823 118.646 159.779 118.766 159.703 118.914C159.626 119.064 159.529 119.218 159.413 119.367L149.941 112L140.469 104.633C137.085 108.983 135.841 114.055 135.841 118.9H147.841ZM149.941 112L159.602 119.118C159.867 118.758 160.515 118.06 161.965 117.19L155.791 106.9L149.617 96.6101C146.067 98.7401 142.815 101.442 140.28 104.882L149.941 112ZM155.791 106.9L162.539 116.823C163.581 116.115 165.397 115.237 168.372 114.474L165.391 102.85L162.411 91.226C157.585 92.4634 153.001 94.2853 149.043 96.9769L155.791 106.9ZM165.391 102.85L168.372 114.474C171.171 113.756 174.407 113.35 178.141 113.35V101.35V89.35C172.676 89.35 167.411 89.9438 162.411 91.226L165.391 102.85ZM178.141 101.35V113.35C181.659 113.35 184.382 113.753 186.455 114.362L189.841 102.85L193.227 91.3376C188.5 89.9472 183.423 89.35 178.141 89.35V101.35ZM189.841 102.85L186.77 114.45C188.2 114.829 189.21 115.439 190.056 116.285L198.541 107.8L207.026 99.3147C203.072 95.3608 198.282 92.6712 192.912 91.2495L189.841 102.85ZM198.541 107.8L190.238 116.464C190.801 117.003 191.205 117.641 191.438 118.77L203.191 116.35L214.945 113.93C213.777 108.259 211.081 103.197 206.844 99.1361L198.541 107.8ZM203.191 116.35L191.438 118.77C191.922 121.123 192.241 124.409 192.241 128.8H204.241H216.241C216.241 123.391 215.86 118.377 214.945 113.93L203.191 116.35ZM204.241 128.8H192.241V169.9H204.241H216.241V128.8H204.241ZM204.241 169.9H192.241C192.241 172.783 192.488 177.163 194.606 181.046L205.141 175.3L215.676 169.554C215.976 170.104 216.133 170.544 216.208 170.787C216.285 171.034 216.306 171.169 216.303 171.152C216.301 171.139 216.284 171.031 216.268 170.809C216.253 170.589 216.241 170.289 216.241 169.9H204.241ZM205.141 175.3L194.851 181.474C197.902 186.559 203.056 188.8 207.991 188.8V176.8V164.8C208.882 164.8 210.317 164.977 211.892 165.806C213.529 166.667 214.701 167.91 215.431 169.126L205.141 175.3ZM207.991 176.8V188.8C211.092 188.8 214.041 188 216.669 186.54L210.841 176.05L205.013 165.56C205.841 165.1 206.89 164.8 207.991 164.8V176.8ZM210.841 176.05L216.669 186.54C218.379 185.59 219.979 184.433 221.44 183.237L213.841 173.95L206.242 164.663C205.503 165.267 205.103 165.51 205.013 165.56L210.841 176.05ZM213.841 173.95L203.766 180.469L205.416 183.019L215.491 176.5L225.566 169.981L223.916 167.431L213.841 173.95ZM215.491 176.5L208.154 167.005C206.73 168.105 205.338 168.905 203.976 169.473L208.591 180.55L213.206 191.627C216.644 190.195 219.852 188.295 222.828 185.995L215.491 176.5ZM208.591 180.55L203.976 169.473C203.413 169.708 202.171 170.05 199.891 170.05V182.05V194.05C204.411 194.05 208.969 193.392 213.206 191.627L208.591 180.55ZM199.891 182.05V170.05C198.694 170.05 197.842 169.963 197.276 169.862C196.706 169.76 196.545 169.666 196.65 169.716L191.491 180.55L186.332 191.384C190.649 193.44 195.427 194.05 199.891 194.05V182.05ZM191.491 180.55L196.858 169.817C196.872 169.824 197.017 169.902 197.206 170.085C197.399 170.271 197.534 170.467 197.61 170.611L186.991 176.2L176.372 181.789C178.592 186.007 181.978 189.21 186.124 191.283L191.491 180.55ZM186.991 176.2L197.836 171.063C197.774 170.932 197.534 170.342 197.482 168.989L185.491 169.45L173.5 169.911C173.648 173.758 174.408 177.668 176.146 181.337L186.991 176.2ZM185.491 169.45L175.201 163.276C173.645 165.869 171.964 167.516 170.255 168.59L176.641 178.75L183.027 188.91C188.318 185.584 192.537 181.031 195.781 175.624L185.491 169.45ZM176.641 178.75L170.255 168.59C168.998 169.381 167.106 170.05 164.041 170.05V182.05V194.05C170.777 194.05 177.284 192.519 183.027 188.91L176.641 178.75ZM173.041 173.65V185.65C177.747 185.65 182.222 184.335 186.181 181.761L179.641 171.7L173.101 161.639C173.062 161.664 173.046 161.671 173.05 161.669C173.055 161.667 173.07 161.66 173.091 161.654C173.112 161.648 173.125 161.646 173.125 161.646C173.124 161.646 173.098 161.65 173.041 161.65V173.65ZM179.641 171.7L185.957 181.903C189.884 179.472 192.964 176.119 195.385 172.417L185.341 165.85L175.297 159.283C174.318 160.781 173.598 161.328 173.325 161.497L179.641 171.7ZM185.341 165.85H197.341V135.55H185.341H173.341V165.85H185.341ZM185.341 135.55L175.356 128.894C175.491 128.692 175.4 128.938 174.583 129.454L180.991 139.6L187.399 149.746C190.382 147.862 193.191 145.408 195.326 142.206L185.341 135.55ZM180.991 139.6L174.335 129.615C172.789 130.646 171.076 131.702 169.187 132.781L175.141 143.2L181.095 153.619C183.406 152.298 185.593 150.954 187.647 149.585L180.991 139.6ZM175.141 143.2L169.187 132.781C166.442 134.35 163.85 136.168 161.411 138.221L169.141 147.4L176.871 156.579C178.232 155.432 179.64 154.45 181.095 153.619L175.141 143.2ZM169.141 147.4L161.459 138.181C158.412 140.721 155.968 143.793 154.044 147.195L164.491 153.1L174.938 159.005C175.614 157.807 176.27 157.079 176.823 156.619L169.141 147.4ZM164.491 153.1L153.956 147.354C151.489 151.877 150.691 156.896 150.691 161.65H162.691H174.691C174.691 159.404 175.093 158.723 175.026 158.846L164.491 153.1ZM162.691 161.65H150.691C150.691 167.396 152.1 173.68 156.643 178.701L165.541 170.65L174.439 162.599C174.59 162.765 174.698 162.925 174.769 163.052C174.839 163.176 174.855 163.237 174.844 163.202C174.816 163.115 174.691 162.653 174.691 161.65H162.691ZM165.541 170.65L156.841 178.915C161.298 183.606 167.1 185.65 173.041 185.65V173.65V161.65C172.789 161.65 172.933 161.612 173.298 161.758C173.474 161.829 173.66 161.926 173.839 162.048C174.017 162.169 174.151 162.29 174.241 162.385L165.541 170.65Z" fill="var(--pageColor)" mask="url(#path-2-outside-1_4249_24)"/>
<path d="M93.95 74.35L130.4 168.4C131.9 172 133.5 174.5 135.2 175.9C137 177.2 138.65 177.9 140.15 178V181C137.55 180.8 134.4 180.7 130.7 180.7C127.1 180.6 123.4 180.55 119.6 180.55C115.2 180.55 111.1 180.6 107.3 180.7C103.5 180.7 100.4 180.8 98 181V178C103.1 177.8 106.35 176.95 107.75 175.45C109.15 173.85 108.85 170.5 106.85 165.4L80.45 94.15L83.15 90.85L59.15 153.1C57.25 158.1 56.1 162.2 55.7 165.4C55.3 168.6 55.55 171.1 56.45 172.9C57.35 174.7 58.85 176 60.95 176.8C63.05 177.5 65.65 177.9 68.75 178V181C65.55 180.8 62.45 180.7 59.45 180.7C56.45 180.6 53.45 180.55 50.45 180.55C48.25 180.55 46.15 180.6 44.15 180.7C42.25 180.7 40.55 180.8 39.05 181V178C41.25 177.5 43.4 176.2 45.5 174.1C47.7 172 49.8 168.35 51.8 163.15L86.15 74.35C87.35 74.45 88.65 74.5 90.05 74.5C91.45 74.5 92.75 74.45 93.95 74.35ZM107 137.8V140.8H62.3L63.8 137.8H107ZM164.041 182.05C159.741 182.05 156.091 181.25 153.091 179.65C150.091 177.95 147.841 175.7 146.341 172.9C144.841 170 144.091 166.8 144.091 163.3C144.091 159 145.091 155.5 147.091 152.8C149.091 150 151.641 147.8 154.741 146.2C157.941 144.5 161.291 143.1 164.791 142C168.291 140.8 171.591 139.7 174.691 138.7C177.791 137.6 180.341 136.35 182.341 134.95C184.341 133.55 185.341 131.7 185.341 129.4V118.45C185.341 115.25 184.841 112.65 183.841 110.65C182.941 108.55 181.541 107 179.641 106C177.841 104.9 175.541 104.35 172.741 104.35C170.641 104.35 168.441 104.65 166.141 105.25C163.841 105.85 161.941 107 160.441 108.7C163.041 109.4 165.041 110.7 166.441 112.6C167.941 114.5 168.691 116.8 168.691 119.5C168.691 122.6 167.641 125.05 165.541 126.85C163.541 128.55 160.991 129.4 157.891 129.4C154.591 129.4 152.091 128.35 150.391 126.25C148.691 124.15 147.841 121.7 147.841 118.9C147.841 116.1 148.541 113.8 149.941 112C151.341 110.1 153.291 108.4 155.791 106.9C158.291 105.2 161.491 103.85 165.391 102.85C169.291 101.85 173.541 101.35 178.141 101.35C182.541 101.35 186.441 101.85 189.841 102.85C193.241 103.75 196.141 105.4 198.541 107.8C200.941 110.1 202.491 112.95 203.191 116.35C203.891 119.75 204.241 123.9 204.241 128.8V169.9C204.241 172.4 204.541 174.2 205.141 175.3C205.741 176.3 206.691 176.8 207.991 176.8C208.991 176.8 209.941 176.55 210.841 176.05C211.741 175.55 212.741 174.85 213.841 173.95L215.491 176.5C213.291 178.2 210.991 179.55 208.591 180.55C206.191 181.55 203.291 182.05 199.891 182.05C196.391 182.05 193.591 181.55 191.491 180.55C189.491 179.55 187.991 178.1 186.991 176.2C186.091 174.3 185.591 172.05 185.491 169.45C183.091 173.45 180.141 176.55 176.641 178.75C173.141 180.95 168.941 182.05 164.041 182.05ZM173.041 173.65C175.441 173.65 177.641 173 179.641 171.7C181.741 170.4 183.641 168.45 185.341 165.85V135.55C184.341 137.05 182.891 138.4 180.991 139.6C179.191 140.8 177.241 142 175.141 143.2C173.041 144.4 171.041 145.8 169.141 147.4C167.341 148.9 165.791 150.8 164.491 153.1C163.291 155.3 162.691 158.15 162.691 161.65C162.691 165.55 163.641 168.55 165.541 170.65C167.441 172.65 169.941 173.65 173.041 173.65Z" fill="var(--darkGray)"/>
</g>
</svg>
