<svg viewBox="0 0 256 256" fill="none" xmlns="http://www.w3.org/2000/svg">
<mask id="mask0_54_556" style="mask-type:alpha" maskUnits="userSpaceOnUse" x="0" y="0" width="256" height="256">
<rect width="256" height="256" fill="var(--gray)"/>
</mask>
<g mask="url(#mask0_54_556)">
<path d="M68.0001 128H188" stroke="var(--pageColor)" stroke-width="44" stroke-linecap="round"/>
<mask id="path-3-outside-1_54_556" maskUnits="userSpaceOnUse" x="90" y="14" width="74" height="101" fill="white">
<rect x="90" y="14" width="74" height="101"/>
<path d="M121.02 103C115.486 103 110.953 100.633 107.42 95.9C103.886 91.1 102.12 84.0667 102.12 74.8C102.12 65.4667 103.92 58.4 107.52 53.6C111.12 48.8 115.786 46.4 121.52 46.4C123.92 46.4 125.986 46.7667 127.72 47.5C129.52 48.1667 131.053 49.1 132.32 50.3C133.653 51.5 134.786 52.8667 135.72 54.4H136.12C135.92 53.3333 135.72 51.8 135.52 49.8C135.32 47.7333 135.22 45.6333 135.22 43.5V26H151.22V102H139.12L135.82 94.9H135.22C134.353 96.3667 133.286 97.7333 132.02 99C130.753 100.2 129.22 101.167 127.42 101.9C125.62 102.633 123.486 103 121.02 103ZM127.12 91.1C130.453 91.1 132.82 89.9 134.22 87.5C135.686 85.0333 136.42 81.3667 136.42 76.5V74.9C136.42 69.5667 135.753 65.5 134.42 62.7C133.086 59.9 130.586 58.5 126.92 58.5C124.32 58.5 122.22 59.9333 120.62 62.8C119.086 65.6 118.32 69.6667 118.32 75C118.32 80.3333 119.086 84.3667 120.62 87.1C122.22 89.7667 124.386 91.1 127.12 91.1Z"/>
</mask>
<path d="M121.02 103C115.486 103 110.953 100.633 107.42 95.9C103.886 91.1 102.12 84.0667 102.12 74.8C102.12 65.4667 103.92 58.4 107.52 53.6C111.12 48.8 115.786 46.4 121.52 46.4C123.92 46.4 125.986 46.7667 127.72 47.5C129.52 48.1667 131.053 49.1 132.32 50.3C133.653 51.5 134.786 52.8667 135.72 54.4H136.12C135.92 53.3333 135.72 51.8 135.52 49.8C135.32 47.7333 135.22 45.6333 135.22 43.5V26H151.22V102H139.12L135.82 94.9H135.22C134.353 96.3667 133.286 97.7333 132.02 99C130.753 100.2 129.22 101.167 127.42 101.9C125.62 102.633 123.486 103 121.02 103ZM127.12 91.1C130.453 91.1 132.82 89.9 134.22 87.5C135.686 85.0333 136.42 81.3667 136.42 76.5V74.9C136.42 69.5667 135.753 65.5 134.42 62.7C133.086 59.9 130.586 58.5 126.92 58.5C124.32 58.5 122.22 59.9333 120.62 62.8C119.086 65.6 118.32 69.6667 118.32 75C118.32 80.3333 119.086 84.3667 120.62 87.1C122.22 89.7667 124.386 91.1 127.12 91.1Z" fill="var(--pageColor)"/>
<path d="M107.42 95.9L97.7555 103.014L97.7793 103.046L97.8033 103.078L107.42 95.9ZM107.52 53.6L117.12 60.8L117.12 60.8L107.52 53.6ZM127.72 47.5L123.044 58.5516L123.296 58.6581L123.552 58.753L127.72 47.5ZM132.32 50.3L124.067 59.0114L124.178 59.1169L124.292 59.2195L132.32 50.3ZM135.72 54.4L125.469 60.6394L128.976 66.4H135.72V54.4ZM136.12 54.4V66.4H150.579L147.914 52.1885L136.12 54.4ZM135.52 49.8L123.575 50.9559L123.577 50.975L123.579 50.994L135.52 49.8ZM135.22 26V14H123.22V26H135.22ZM151.22 26H163.22V14H151.22V26ZM151.22 102V114H163.22V102H151.22ZM139.12 102L128.238 107.058L131.464 114H139.12V102ZM135.82 94.9L146.702 89.8422L143.475 82.9H135.82V94.9ZM135.22 94.9V82.9H128.372L124.888 88.7953L135.22 94.9ZM132.02 99L140.272 107.711L140.39 107.6L140.505 107.485L132.02 99ZM127.42 101.9L122.892 90.7869L122.892 90.7869L127.42 101.9ZM134.22 87.5L123.905 81.3671L123.879 81.4102L123.854 81.4535L134.22 87.5ZM134.42 62.7L145.254 57.5408L145.254 57.5408L134.42 62.7ZM120.62 62.8L110.141 56.9516L110.118 56.9938L110.094 57.0362L120.62 62.8ZM120.62 87.1L110.154 92.971L110.24 93.1238L110.33 93.2739L120.62 87.1ZM121.02 103V91C119.561 91 118.482 90.6591 117.036 88.7217L107.42 95.9L97.8033 103.078C103.424 110.608 111.412 115 121.02 115V103ZM107.42 95.9L117.084 88.7862C115.701 86.9076 114.12 82.8346 114.12 74.8H102.12H90.1195C90.1195 85.2988 92.0717 95.2924 97.7555 103.014L107.42 95.9ZM102.12 74.8H114.12C114.12 66.7118 115.729 62.6535 117.12 60.8L107.52 53.6L97.9195 46.4C92.1097 54.1464 90.1195 64.2215 90.1195 74.8H102.12ZM107.52 53.6L117.12 60.8C118.577 58.8572 119.764 58.4 121.52 58.4V46.4V34.4C111.808 34.4 103.662 38.7428 97.9195 46.4L107.52 53.6ZM121.52 46.4V58.4C122.738 58.4 123.136 58.5907 123.044 58.5516L127.72 47.5L132.395 36.4484C128.836 34.9426 125.101 34.4 121.52 34.4V46.4ZM127.72 47.5L123.552 58.753C123.78 58.8376 123.914 58.91 123.98 58.9504C124.044 58.9893 124.066 59.0106 124.067 59.0114L132.32 50.3L140.572 41.5886C138.017 39.1674 135.054 37.4198 131.887 36.247L127.72 47.5ZM132.32 50.3L124.292 59.2195C124.757 59.6384 125.142 60.102 125.469 60.6394L135.72 54.4L145.97 48.1606C144.43 45.6313 142.548 43.3616 140.347 41.3805L132.32 50.3ZM135.72 54.4V66.4H136.12V54.4V42.4H135.72V54.4ZM136.12 54.4L147.914 52.1885C147.809 51.6302 147.649 50.4994 147.46 48.606L135.52 49.8L123.579 50.994C123.79 53.1006 124.03 55.0364 124.325 56.6115L136.12 54.4ZM135.52 49.8L147.464 48.6441C147.302 46.972 147.22 45.2579 147.22 43.5H135.22H123.22C123.22 46.0088 123.337 48.4947 123.575 50.9559L135.52 49.8ZM135.22 43.5H147.22V26H135.22H123.22V43.5H135.22ZM135.22 26V38H151.22V26V14H135.22V26ZM151.22 26H139.22V102H151.22H163.22V26H151.22ZM151.22 102V90H139.12V102V114H151.22V102ZM139.12 102L150.002 96.9422L146.702 89.8422L135.82 94.9L124.938 99.9578L128.238 107.058L139.12 102ZM135.82 94.9V82.9H135.22V94.9V106.9H135.82V94.9ZM135.22 94.9L124.888 88.7953C124.56 89.3505 124.125 89.9242 123.534 90.5147L132.02 99L140.505 107.485C142.448 105.542 144.145 103.383 145.551 101.005L135.22 94.9ZM132.02 99L123.767 90.2886C123.698 90.3533 123.469 90.552 122.892 90.7869L127.42 101.9L131.947 113.013C134.97 111.781 137.807 110.047 140.272 107.711L132.02 99ZM127.42 101.9L122.892 90.7869C122.859 90.8001 122.335 91 121.02 91V103V115C124.637 115 128.38 114.467 131.947 113.013L127.42 101.9ZM127.12 91.1V103.1C133.716 103.1 140.572 100.425 144.585 93.5465L134.22 87.5L123.854 81.4535C124.26 80.7574 124.991 79.9923 125.968 79.4972C126.842 79.054 127.372 79.1 127.12 79.1V91.1ZM134.22 87.5L144.534 93.6329C147.627 88.4316 148.42 82.1998 148.42 76.5H136.42H124.42C124.42 78.3653 124.276 79.6793 124.103 80.5466C123.926 81.4288 123.769 81.5957 123.905 81.3671L134.22 87.5ZM136.42 76.5H148.42V74.9H136.42H124.42V76.5H136.42ZM136.42 74.9H148.42C148.42 68.8901 147.72 62.7195 145.254 57.5408L134.42 62.7L123.585 67.8592C123.786 68.2805 124.42 70.2432 124.42 74.9H136.42ZM134.42 62.7L145.254 57.5408C143.612 54.0932 141.005 51.0944 137.408 49.0799C133.933 47.1341 130.244 46.5 126.92 46.5V58.5V70.5C127.261 70.5 126.656 70.5659 125.681 70.0201C124.584 69.4056 123.894 68.5068 123.585 67.8592L134.42 62.7ZM126.92 58.5V46.5C118.782 46.5 113.21 51.4524 110.141 56.9516L120.62 62.8L131.098 68.6484C131.247 68.3818 131.026 68.895 130.159 69.4864C129.168 70.1628 127.975 70.5 126.92 70.5V58.5ZM120.62 62.8L110.094 57.0362C107.149 62.4156 106.32 68.844 106.32 75H118.32H130.32C130.32 72.8778 130.475 71.2991 130.687 70.1731C130.791 69.6202 130.901 69.2206 130.992 68.9488C131.083 68.6772 131.145 68.5631 131.145 68.5638L120.62 62.8ZM118.32 75H106.32C106.32 81.1242 107.138 87.5944 110.154 92.971L120.62 87.1L131.085 81.229C131.115 81.2816 130.895 80.8991 130.683 79.7841C130.475 78.687 130.32 77.1245 130.32 75H118.32ZM120.62 87.1L110.33 93.2739C113.742 98.9617 119.522 103.1 127.12 103.1V91.1V79.1C127.802 79.1 128.785 79.296 129.734 79.8801C130.614 80.422 130.937 80.9715 130.909 80.9261L120.62 87.1Z" fill="var(--pageColor)" mask="url(#path-3-outside-1_54_556)"/>
<mask id="path-5-outside-2_54_556" maskUnits="userSpaceOnUse" x="61" y="137" width="147" height="101" fill="white">
<rect x="61" y="137" width="147" height="101"/>
<path d="M92.6016 226C87.0682 226 82.5349 223.633 79.0016 218.9C75.4682 214.1 73.7016 207.067 73.7016 197.8C73.7016 188.467 75.5016 181.4 79.1016 176.6C82.7016 171.8 87.3682 169.4 93.1016 169.4C95.5016 169.4 97.5682 169.767 99.3016 170.5C101.102 171.167 102.635 172.1 103.902 173.3C105.235 174.5 106.368 175.867 107.302 177.4H107.702C107.502 176.333 107.302 174.8 107.102 172.8C106.902 170.733 106.802 168.633 106.802 166.5V149H122.802V225H110.702L107.402 217.9H106.802C105.935 219.367 104.868 220.733 103.602 222C102.335 223.2 100.802 224.167 99.0016 224.9C97.2016 225.633 95.0682 226 92.6016 226ZM98.7016 214.1C102.035 214.1 104.402 212.9 105.802 210.5C107.268 208.033 108.002 204.367 108.002 199.5V197.9C108.002 192.567 107.335 188.5 106.002 185.7C104.668 182.9 102.168 181.5 98.5016 181.5C95.9016 181.5 93.8016 182.933 92.2016 185.8C90.6682 188.6 89.9016 192.667 89.9016 198C89.9016 203.333 90.6682 207.367 92.2016 210.1C93.8016 212.767 95.9682 214.1 98.7016 214.1ZM147.163 197.1L130.863 170.4H149.063L157.963 187.8L167.063 170.4H185.163L168.663 197.1L185.863 225H167.763L157.963 206.3L148.163 225H130.063L147.163 197.1Z"/>
</mask>
<path d="M92.6016 226C87.0682 226 82.5349 223.633 79.0016 218.9C75.4682 214.1 73.7016 207.067 73.7016 197.8C73.7016 188.467 75.5016 181.4 79.1016 176.6C82.7016 171.8 87.3682 169.4 93.1016 169.4C95.5016 169.4 97.5682 169.767 99.3016 170.5C101.102 171.167 102.635 172.1 103.902 173.3C105.235 174.5 106.368 175.867 107.302 177.4H107.702C107.502 176.333 107.302 174.8 107.102 172.8C106.902 170.733 106.802 168.633 106.802 166.5V149H122.802V225H110.702L107.402 217.9H106.802C105.935 219.367 104.868 220.733 103.602 222C102.335 223.2 100.802 224.167 99.0016 224.9C97.2016 225.633 95.0682 226 92.6016 226ZM98.7016 214.1C102.035 214.1 104.402 212.9 105.802 210.5C107.268 208.033 108.002 204.367 108.002 199.5V197.9C108.002 192.567 107.335 188.5 106.002 185.7C104.668 182.9 102.168 181.5 98.5016 181.5C95.9016 181.5 93.8016 182.933 92.2016 185.8C90.6682 188.6 89.9016 192.667 89.9016 198C89.9016 203.333 90.6682 207.367 92.2016 210.1C93.8016 212.767 95.9682 214.1 98.7016 214.1ZM147.163 197.1L130.863 170.4H149.063L157.963 187.8L167.063 170.4H185.163L168.663 197.1L185.863 225H167.763L157.963 206.3L148.163 225H130.063L147.163 197.1Z" fill="var(--pageColor)"/>
<path d="M79.0016 218.9L69.3375 226.014L69.3613 226.046L69.3853 226.078L79.0016 218.9ZM79.1016 176.6L88.7016 183.8L88.7016 183.8L79.1016 176.6ZM99.3016 170.5L94.6259 181.552L94.8775 181.658L95.1338 181.753L99.3016 170.5ZM103.902 173.3L95.6486 182.011L95.76 182.117L95.874 182.22L103.902 173.3ZM107.302 177.4L97.0512 183.639L100.558 189.4H107.302V177.4ZM107.702 177.4V189.4H122.161L119.496 175.189L107.702 177.4ZM107.102 172.8L95.1574 173.956L95.1592 173.975L95.1611 173.994L107.102 172.8ZM106.802 149V137H94.8016V149H106.802ZM122.802 149H134.802V137H122.802V149ZM122.802 225V237H134.802V225H122.802ZM110.702 225L99.8195 230.058L103.046 237H110.702V225ZM107.402 217.9L118.284 212.842L115.057 205.9H107.402V217.9ZM106.802 217.9V205.9H99.954L96.4704 211.795L106.802 217.9ZM103.602 222L111.855 230.711L111.972 230.6L112.087 230.485L103.602 222ZM99.0016 224.9L94.474 213.787L94.474 213.787L99.0016 224.9ZM105.802 210.5L95.4871 204.367L95.4615 204.41L95.4362 204.454L105.802 210.5ZM106.002 185.7L116.836 180.541L116.836 180.541L106.002 185.7ZM92.2016 185.8L81.7232 179.952L81.6996 179.994L81.6764 180.036L92.2016 185.8ZM92.2016 210.1L81.7358 215.971L81.8215 216.124L81.9116 216.274L92.2016 210.1ZM92.6016 226V214C91.1429 214 90.064 213.659 88.6178 211.722L79.0016 218.9L69.3853 226.078C75.0058 233.608 82.9935 238 92.6016 238V226ZM79.0016 218.9L88.6656 211.786C87.2828 209.908 85.7016 205.835 85.7016 197.8H73.7016H61.7016C61.7016 208.299 63.6537 218.292 69.3375 226.014L79.0016 218.9ZM73.7016 197.8H85.7016C85.7016 189.712 87.3114 185.654 88.7016 183.8L79.1016 176.6L69.5016 169.4C63.6917 177.146 61.7016 187.221 61.7016 197.8H73.7016ZM79.1016 176.6L88.7016 183.8C90.1587 181.857 91.3463 181.4 93.1016 181.4V169.4V157.4C83.3902 157.4 75.2445 161.743 69.5016 169.4L79.1016 176.6ZM93.1016 169.4V181.4C94.3198 181.4 94.7184 181.591 94.6259 181.552L99.3016 170.5L103.977 159.448C100.418 157.943 96.6833 157.4 93.1016 157.4V169.4ZM99.3016 170.5L95.1338 181.753C95.3622 181.838 95.4959 181.91 95.5622 181.95C95.6261 181.989 95.6478 182.011 95.6486 182.011L103.902 173.3L112.154 164.589C109.599 162.167 106.636 160.42 103.469 159.247L99.3016 170.5ZM103.902 173.3L95.874 182.22C96.3394 182.638 96.7241 183.102 97.0512 183.639L107.302 177.4L117.552 171.161C116.012 168.631 114.13 166.362 111.929 164.38L103.902 173.3ZM107.302 177.4V189.4H107.702V177.4V165.4H107.302V177.4ZM107.702 177.4L119.496 175.189C119.391 174.63 119.231 173.499 119.042 171.606L107.102 172.8L95.1611 173.994C95.3718 176.101 95.6118 178.036 95.9071 179.611L107.702 177.4ZM107.102 172.8L119.046 171.644C118.884 169.972 118.802 168.258 118.802 166.5H106.802H94.8016C94.8016 169.009 94.9192 171.495 95.1574 173.956L107.102 172.8ZM106.802 166.5H118.802V149H106.802H94.8016V166.5H106.802ZM106.802 149V161H122.802V149V137H106.802V149ZM122.802 149H110.802V225H122.802H134.802V149H122.802ZM122.802 225V213H110.702V225V237H122.802V225ZM110.702 225L121.584 219.942L118.284 212.842L107.402 217.9L96.5195 222.958L99.8195 230.058L110.702 225ZM107.402 217.9V205.9H106.802V217.9V229.9H107.402V217.9ZM106.802 217.9L96.4704 211.795C96.1424 212.35 95.7068 212.924 95.1163 213.515L103.602 222L112.087 230.485C114.03 228.542 115.727 226.383 117.133 224.005L106.802 217.9ZM103.602 222L95.3486 213.289C95.2803 213.353 95.0507 213.552 94.474 213.787L99.0016 224.9L103.529 236.013C106.552 234.781 109.389 233.047 111.855 230.711L103.602 222ZM99.0016 224.9L94.474 213.787C94.4415 213.8 93.917 214 92.6016 214V226V238C96.2195 238 99.9616 237.467 103.529 236.013L99.0016 224.9ZM98.7016 214.1V226.1C105.299 226.1 112.154 223.425 116.167 216.546L105.802 210.5L95.4362 204.454C95.8423 203.757 96.5734 202.992 97.5498 202.497C98.4238 202.054 98.9542 202.1 98.7016 202.1V214.1ZM105.802 210.5L116.116 216.633C119.209 211.432 120.002 205.2 120.002 199.5H108.002H96.0016C96.0016 201.365 95.8581 202.679 95.6846 203.547C95.5081 204.429 95.3512 204.596 95.4871 204.367L105.802 210.5ZM108.002 199.5H120.002V197.9H108.002H96.0016V199.5H108.002ZM108.002 197.9H120.002C120.002 191.89 119.302 185.72 116.836 180.541L106.002 185.7L95.1672 190.859C95.3679 191.28 96.0016 193.243 96.0016 197.9H108.002ZM106.002 185.7L116.836 180.541C115.194 177.093 112.587 174.094 108.99 172.08C105.515 170.134 101.826 169.5 98.5016 169.5V181.5V193.5C98.8433 193.5 98.238 193.566 97.2633 193.02C96.1661 192.406 95.4756 191.507 95.1672 190.859L106.002 185.7ZM98.5016 181.5V169.5C90.3636 169.5 84.7925 174.452 81.7232 179.952L92.2016 185.8L102.68 191.648C102.829 191.382 102.608 191.895 101.741 192.486C100.75 193.163 99.5572 193.5 98.5016 193.5V181.5ZM92.2016 185.8L81.6764 180.036C78.7306 185.416 77.9016 191.844 77.9016 198H89.9016H101.902C101.902 195.878 102.057 194.299 102.269 193.173C102.373 192.62 102.483 192.221 102.574 191.949C102.665 191.677 102.727 191.563 102.727 191.564L92.2016 185.8ZM89.9016 198H77.9016C77.9016 204.124 78.7197 210.594 81.7358 215.971L92.2016 210.1L102.667 204.229C102.697 204.282 102.477 203.899 102.265 202.784C102.057 201.687 101.902 200.124 101.902 198H89.9016ZM92.2016 210.1L81.9116 216.274C85.3243 221.962 91.1043 226.1 98.7016 226.1V214.1V202.1C99.3838 202.1 100.367 202.296 101.316 202.88C102.196 203.422 102.519 203.972 102.491 203.926L92.2016 210.1ZM147.163 197.1L157.394 203.371L161.229 197.112L157.405 190.847L147.163 197.1ZM130.863 170.4V158.4H109.477L120.62 176.653L130.863 170.4ZM149.063 170.4L159.746 164.935L156.403 158.4H149.063V170.4ZM157.963 187.8L147.279 193.265L157.844 213.92L168.596 193.361L157.963 187.8ZM167.063 170.4V158.4H159.796L156.429 164.839L167.063 170.4ZM185.163 170.4L195.371 176.708L206.685 158.4H185.163V170.4ZM168.663 197.1L158.454 190.792L154.561 197.092L158.448 203.397L168.663 197.1ZM185.863 225V237H207.357L196.077 218.703L185.863 225ZM167.763 225L157.134 230.57L160.503 237H167.763V225ZM157.963 206.3L168.591 200.73L157.963 180.448L147.334 200.73L157.963 206.3ZM148.163 225V237H155.422L158.791 230.57L148.163 225ZM130.063 225L119.831 218.729L108.633 237H130.063V225ZM147.163 197.1L157.405 190.847L141.105 164.147L130.863 170.4L120.62 176.653L136.92 203.353L147.163 197.1ZM130.863 170.4V182.4H149.063V170.4V158.4H130.863V170.4ZM149.063 170.4L138.379 175.865L147.279 193.265L157.963 187.8L168.646 182.335L159.746 164.935L149.063 170.4ZM157.963 187.8L168.596 193.361L177.696 175.961L167.063 170.4L156.429 164.839L147.329 182.239L157.963 187.8ZM167.063 170.4V182.4H185.163V170.4V158.4H167.063V170.4ZM185.163 170.4L174.954 164.092L158.454 190.792L168.663 197.1L178.871 203.408L195.371 176.708L185.163 170.4ZM168.663 197.1L158.448 203.397L175.648 231.297L185.863 225L196.077 218.703L178.877 190.803L168.663 197.1ZM185.863 225V213H167.763V225V237H185.863V225ZM167.763 225L178.391 219.43L168.591 200.73L157.963 206.3L147.334 211.87L157.134 230.57L167.763 225ZM157.963 206.3L147.334 200.73L137.534 219.43L148.163 225L158.791 230.57L168.591 211.87L157.963 206.3ZM148.163 225V213H130.063V225V237H148.163V225ZM130.063 225L140.294 231.271L157.394 203.371L147.163 197.1L136.931 190.829L119.831 218.729L130.063 225Z" fill="var(--pageColor)" mask="url(#path-5-outside-2_54_556)"/>
<path d="M68.0001 128H188" stroke="var(--darkGray)" stroke-width="20" stroke-linecap="round"/>
<path d="M121.02 103C115.486 103 110.953 100.633 107.42 95.9C103.886 91.1 102.12 84.0667 102.12 74.8C102.12 65.4667 103.92 58.4 107.52 53.6C111.12 48.8 115.786 46.4 121.52 46.4C123.92 46.4 125.986 46.7667 127.72 47.5C129.52 48.1667 131.053 49.1 132.32 50.3C133.653 51.5 134.786 52.8667 135.72 54.4H136.12C135.92 53.3333 135.72 51.8 135.52 49.8C135.32 47.7333 135.22 45.6333 135.22 43.5V26H151.22V102H139.12L135.82 94.9H135.22C134.353 96.3667 133.286 97.7333 132.02 99C130.753 100.2 129.22 101.167 127.42 101.9C125.62 102.633 123.486 103 121.02 103ZM127.12 91.1C130.453 91.1 132.82 89.9 134.22 87.5C135.686 85.0333 136.42 81.3667 136.42 76.5V74.9C136.42 69.5667 135.753 65.5 134.42 62.7C133.086 59.9 130.586 58.5 126.92 58.5C124.32 58.5 122.22 59.9333 120.62 62.8C119.086 65.6 118.32 69.6667 118.32 75C118.32 80.3333 119.086 84.3667 120.62 87.1C122.22 89.7667 124.386 91.1 127.12 91.1Z" fill="var(--darkGray)"/>
<path d="M92.6016 226C87.0682 226 82.5349 223.633 79.0016 218.9C75.4682 214.1 73.7016 207.067 73.7016 197.8C73.7016 188.467 75.5016 181.4 79.1016 176.6C82.7016 171.8 87.3682 169.4 93.1016 169.4C95.5016 169.4 97.5682 169.767 99.3016 170.5C101.102 171.167 102.635 172.1 103.902 173.3C105.235 174.5 106.368 175.867 107.302 177.4H107.702C107.502 176.333 107.302 174.8 107.102 172.8C106.902 170.733 106.802 168.633 106.802 166.5V149H122.802V225H110.702L107.402 217.9H106.802C105.935 219.367 104.868 220.733 103.602 222C102.335 223.2 100.802 224.167 99.0016 224.9C97.2016 225.633 95.0682 226 92.6016 226ZM98.7016 214.1C102.035 214.1 104.402 212.9 105.802 210.5C107.268 208.033 108.002 204.367 108.002 199.5V197.9C108.002 192.567 107.335 188.5 106.002 185.7C104.668 182.9 102.168 181.5 98.5016 181.5C95.9016 181.5 93.8016 182.933 92.2016 185.8C90.6682 188.6 89.9016 192.667 89.9016 198C89.9016 203.333 90.6682 207.367 92.2016 210.1C93.8016 212.767 95.9682 214.1 98.7016 214.1ZM147.163 197.1L130.863 170.4H149.063L157.963 187.8L167.063 170.4H185.163L168.663 197.1L185.863 225H167.763L157.963 206.3L148.163 225H130.063L147.163 197.1Z" fill="var(--darkGray)"/>
</g>
</svg>
