<svg viewBox="0 0 350 350" fill="none" xmlns="http://www.w3.org/2000/svg">
<g clip-path="url(#clip0_3705_38)">
<rect width="350" height="350" rx="84" fill="#DF84FF" fill-opacity="0.25"/>
<mask id="mask0_3705_38" style="mask-type:alpha" maskUnits="userSpaceOnUse" x="0" y="0" width="350" height="350">
<rect width="350" height="350" fill="#D9D9D9"/>
</mask>
<g mask="url(#mask0_3705_38)">
<rect x="69.8874" y="138.247" width="210.225" height="169.21" rx="48.7362" stroke="#DF84FF" stroke-width="32.4908"/>
<path d="M175 42.3828C208.978 42.3828 236.523 69.9278 236.523 103.906V139.453H113.477V103.906C113.477 69.9278 141.022 42.3828 175 42.3828Z" stroke="#DF84FF" stroke-width="24.6094"/>
</g>
<rect x="168.4" y="177.601" width="13.2" height="90" rx="6.6" fill="#DF84FF"/>
<path d="M139 267.6C139 263.955 141.955 261 145.6 261H175H204.4C208.045 261 211 263.955 211 267.6V267.6C211 271.245 208.045 274.2 204.4 274.2H184.334C182.583 274.2 180.905 273.505 179.667 272.267L175 267.6L170.333 272.267C169.095 273.505 167.417 274.2 165.666 274.2H145.6C141.955 274.2 139 271.245 139 267.6V267.6Z" fill="#DF84FF"/>
<path d="M139 177.6C139 181.245 141.955 184.2 145.6 184.2H175H204.4C208.045 184.2 211 181.245 211 177.6V177.6C211 173.955 208.045 171 204.4 171H184.334C182.583 171 180.905 171.696 179.667 172.933L175 177.6L170.333 172.933C169.095 171.696 167.417 171 165.666 171H145.6C141.955 171 139 173.955 139 177.6V177.6Z" fill="#DF84FF"/>
</g>
<defs>
<clipPath id="clip0_3705_38">
<rect width="350" height="350" rx="84" fill="white"/>
</clipPath>
</defs>
</svg>
