<svg width="350" height="350" viewBox="0 0 350 350" fill="none" xmlns="http://www.w3.org/2000/svg">
<path d="M121.645 155.85L90.4852 161.344C61.8033 166.401 34.4522 147.25 29.3948 118.568C24.3374 89.886 43.4888 62.5349 72.1708 57.4775C100.853 52.4201 128.204 71.5715 133.261 100.253L138.756 131.413C140.779 142.886 133.118 153.827 121.645 155.85Z" stroke="#0084FF" stroke-width="32.8125"/>
<path d="M292.523 72.1714C297.58 100.853 278.429 128.204 249.747 133.262C221.065 138.319 193.714 119.168 188.656 90.4859C183.599 61.804 202.751 34.4528 231.432 29.3955C260.114 24.3381 287.466 43.4895 292.523 72.1714Z" stroke="#0084FF" stroke-width="32.8125"/>
<path d="M161.343 259.515C166.401 288.197 147.249 315.548 118.567 320.606C89.8853 325.663 62.5342 306.512 57.4768 277.83C52.4194 249.148 71.5709 221.797 100.253 216.739C128.935 211.682 156.286 230.833 161.343 259.515Z" stroke="#0084FF" stroke-width="32.8125"/>
<path d="M228.355 194.152L259.515 188.657C288.196 183.6 315.548 202.751 320.605 231.433C325.662 260.115 306.511 287.466 277.829 292.524C249.147 297.581 221.796 278.43 216.739 249.748L211.244 218.588C209.221 207.115 216.882 196.174 228.355 194.152Z" stroke="#0084FF" stroke-width="32.8125"/>
<g filter="url(#filter0_d_3447_8)">
<rect x="49" y="97" width="252" height="156" rx="78" fill="white" shape-rendering="crispEdges"/>
<path d="M110.188 219L110.188 156.562L91.3125 163.125L85.3125 145.125L129.688 129.625L131.188 129.625L131.188 219L110.188 219ZM161.969 220.875C158.302 220.875 155.094 219.708 152.344 217.375C149.635 215.042 148.281 211.896 148.281 207.938C148.281 205.229 148.906 202.896 150.156 200.937C151.406 198.979 153.073 197.479 155.156 196.437C157.24 195.396 159.51 194.875 161.969 194.875C165.677 194.875 168.865 196.042 171.531 198.375C174.24 200.667 175.594 203.854 175.594 207.938C175.594 210.604 174.969 212.917 173.719 214.875C172.469 216.792 170.802 218.271 168.719 219.313C166.677 220.354 164.427 220.875 161.969 220.875ZM221.991 220.875C215.991 220.875 210.658 219.688 205.991 217.313C201.325 214.938 197.387 211.646 194.179 207.438C191.012 203.229 188.595 198.375 186.929 192.875C185.262 187.375 184.429 181.5 184.429 175.25C184.429 168.958 185.262 163.062 186.929 157.562C188.595 152.062 191.012 147.229 194.179 143.062C197.387 138.854 201.325 135.562 205.991 133.187C210.658 130.812 215.991 129.625 221.991 129.625C228.033 129.625 233.387 130.812 238.054 133.187C242.72 135.562 246.637 138.854 249.804 143.062C253.012 147.229 255.45 152.062 257.116 157.562C258.783 163.062 259.616 168.958 259.616 175.25C259.616 181.5 258.783 187.375 257.116 192.875C255.45 198.375 253.012 203.229 249.804 207.438C246.637 211.646 242.72 214.938 238.054 217.313C233.387 219.688 228.033 220.875 221.991 220.875ZM221.991 201.312C224.45 201.312 226.637 200.75 228.554 199.625C230.512 198.5 232.2 196.854 233.616 194.687C235.033 192.479 236.095 189.75 236.804 186.5C237.554 183.25 237.929 179.5 237.929 175.25C237.929 169.583 237.262 164.812 235.929 160.937C234.637 157.021 232.804 154.083 230.429 152.125C228.054 150.167 225.241 149.187 221.991 149.187C219.616 149.187 217.45 149.75 215.491 150.875C213.533 152 211.845 153.667 210.429 155.875C209.012 158.042 207.929 160.75 207.179 164C206.429 167.208 206.054 170.958 206.054 175.25C206.054 180.917 206.72 185.687 208.054 189.562C209.387 193.437 211.241 196.375 213.616 198.375C215.991 200.333 218.783 201.312 221.991 201.312Z" fill="#0084FF"/>
</g>
<defs>
<filter id="filter0_d_3447_8" x="25" y="73" width="300" height="204" filterUnits="userSpaceOnUse" color-interpolation-filters="sRGB">
<feFlood flood-opacity="0" result="BackgroundImageFix"/>
<feColorMatrix in="SourceAlpha" type="matrix" values="0 0 0 0 0 0 0 0 0 0 0 0 0 0 0 0 0 0 127 0" result="hardAlpha"/>
<feOffset/>
<feGaussianBlur stdDeviation="12"/>
<feComposite in2="hardAlpha" operator="out"/>
<feColorMatrix type="matrix" values="0 0 0 0 0.784314 0 0 0 0 0.85098 0 0 0 0 0.909804 0 0 0 1 0"/>
<feBlend mode="normal" in2="BackgroundImageFix" result="effect1_dropShadow_3447_8"/>
<feBlend mode="normal" in="SourceGraphic" in2="effect1_dropShadow_3447_8" result="shape"/>
</filter>
</defs>
</svg>
