<svg viewBox="0 0 1920 1080" fill="none" xmlns="http://www.w3.org/2000/svg">
<mask id="mask0_2319_217" style="mask-type:alpha" maskUnits="userSpaceOnUse" x="0" y="0" width="1920" height="1080">
<rect width="1920" height="1080" fill="white"/>
</mask>
<g mask="url(#mask0_2319_217)">
<path d="M858.228 184.459C855.775 184.459 853.49 184.06 851.374 183.263C849.289 182.435 847.464 181.285 845.9 179.813C844.367 178.31 843.171 176.547 842.312 174.523C841.453 172.499 841.024 170.291 841.024 167.899C841.024 165.507 841.453 163.299 842.312 161.275C843.171 159.251 844.382 157.503 845.946 156.031C847.51 154.528 849.335 153.378 851.42 152.581C853.505 151.753 855.79 151.339 858.274 151.339C860.911 151.339 863.319 151.799 865.496 152.719C867.673 153.608 869.513 154.942 871.016 156.721L867.152 160.355C865.987 159.098 864.683 158.162 863.242 157.549C861.801 156.905 860.237 156.583 858.55 156.583C856.863 156.583 855.315 156.859 853.904 157.411C852.524 157.963 851.313 158.745 850.27 159.757C849.258 160.769 848.461 161.965 847.878 163.345C847.326 164.725 847.05 166.243 847.05 167.899C847.05 169.555 847.326 171.073 847.878 172.453C848.461 173.833 849.258 175.029 850.27 176.041C851.313 177.053 852.524 177.835 853.904 178.387C855.315 178.939 856.863 179.215 858.55 179.215C860.237 179.215 861.801 178.908 863.242 178.295C864.683 177.651 865.987 176.685 867.152 175.397L871.016 179.077C869.513 180.825 867.673 182.159 865.496 183.079C863.319 183.999 860.896 184.459 858.228 184.459ZM886.291 184.321C883.776 184.321 881.537 183.784 879.575 182.711C877.612 181.607 876.063 180.104 874.929 178.203C873.794 176.302 873.227 174.14 873.227 171.717C873.227 169.264 873.794 167.102 874.929 165.231C876.063 163.33 877.612 161.842 879.575 160.769C881.537 159.696 883.776 159.159 886.291 159.159C888.836 159.159 891.09 159.696 893.053 160.769C895.046 161.842 896.595 163.314 897.699 165.185C898.833 167.056 899.401 169.233 899.401 171.717C899.401 174.14 898.833 176.302 897.699 178.203C896.595 180.104 895.046 181.607 893.053 182.711C891.09 183.784 888.836 184.321 886.291 184.321ZM886.291 179.399C887.701 179.399 888.959 179.092 890.063 178.479C891.167 177.866 892.025 176.976 892.639 175.811C893.283 174.646 893.605 173.281 893.605 171.717C893.605 170.122 893.283 168.758 892.639 167.623C892.025 166.458 891.167 165.568 890.063 164.955C888.959 164.342 887.717 164.035 886.337 164.035C884.926 164.035 883.669 164.342 882.565 164.955C881.491 165.568 880.633 166.458 879.989 167.623C879.345 168.758 879.023 170.122 879.023 171.717C879.023 173.281 879.345 174.646 879.989 175.811C880.633 176.976 881.491 177.866 882.565 178.479C883.669 179.092 884.911 179.399 886.291 179.399ZM904.899 183.999V149.867H910.649V183.999H904.899ZM918.196 183.999V149.867H923.946V183.999H918.196ZM946.627 183.999V179.031L946.305 177.973V169.279C946.305 167.592 945.799 166.289 944.787 165.369C943.775 164.418 942.241 163.943 940.187 163.943C938.807 163.943 937.442 164.158 936.093 164.587C934.774 165.016 933.655 165.614 932.735 166.381L930.481 162.195C931.799 161.183 933.363 160.432 935.173 159.941C937.013 159.42 938.914 159.159 940.877 159.159C944.434 159.159 947.179 160.018 949.111 161.735C951.073 163.422 952.055 166.044 952.055 169.601V183.999H946.627ZM938.899 184.321C937.059 184.321 935.449 184.014 934.069 183.401C932.689 182.757 931.615 181.883 930.849 180.779C930.113 179.644 929.745 178.372 929.745 176.961C929.745 175.581 930.067 174.339 930.711 173.235C931.385 172.131 932.474 171.257 933.977 170.613C935.479 169.969 937.473 169.647 939.957 169.647H947.087V173.465H940.371C938.408 173.465 937.089 173.787 936.415 174.431C935.74 175.044 935.403 175.811 935.403 176.731C935.403 177.774 935.817 178.602 936.645 179.215C937.473 179.828 938.623 180.135 940.095 180.135C941.505 180.135 942.763 179.813 943.867 179.169C945.001 178.525 945.814 177.574 946.305 176.317L947.271 179.767C946.719 181.208 945.722 182.328 944.281 183.125C942.87 183.922 941.076 184.321 938.899 184.321ZM973.05 184.321C970.965 184.321 969.109 183.861 967.484 182.941C965.859 182.021 964.571 180.641 963.62 178.801C962.7 176.93 962.24 174.569 962.24 171.717C962.24 168.834 962.715 166.473 963.666 164.633C964.647 162.793 965.951 161.428 967.576 160.539C969.232 159.619 971.057 159.159 973.05 159.159C975.473 159.159 977.604 159.68 979.444 160.723C981.315 161.766 982.787 163.222 983.86 165.093C984.964 166.964 985.516 169.172 985.516 171.717C985.516 174.262 984.964 176.47 983.86 178.341C982.787 180.212 981.315 181.684 979.444 182.757C977.604 183.8 975.473 184.321 973.05 184.321ZM959.434 183.999V149.867H965.184V165.139L964.724 171.671L964.908 178.203V183.999H959.434ZM972.406 179.399C973.786 179.399 975.013 179.092 976.086 178.479C977.19 177.866 978.064 176.976 978.708 175.811C979.352 174.646 979.674 173.281 979.674 171.717C979.674 170.122 979.352 168.758 978.708 167.623C978.064 166.458 977.19 165.568 976.086 164.955C975.013 164.342 973.786 164.035 972.406 164.035C971.026 164.035 969.784 164.342 968.68 164.955C967.576 165.568 966.702 166.458 966.058 167.623C965.414 168.758 965.092 170.122 965.092 171.717C965.092 173.281 965.414 174.646 966.058 175.811C966.702 176.976 967.576 177.866 968.68 178.479C969.784 179.092 971.026 179.399 972.406 179.399ZM1002.01 184.321C999.495 184.321 997.256 183.784 995.293 182.711C993.331 181.607 991.782 180.104 990.647 178.203C989.513 176.302 988.945 174.14 988.945 171.717C988.945 169.264 989.513 167.102 990.647 165.231C991.782 163.33 993.331 161.842 995.293 160.769C997.256 159.696 999.495 159.159 1002.01 159.159C1004.55 159.159 1006.81 159.696 1008.77 160.769C1010.76 161.842 1012.31 163.314 1013.42 165.185C1014.55 167.056 1015.12 169.233 1015.12 171.717C1015.12 174.14 1014.55 176.302 1013.42 178.203C1012.31 180.104 1010.76 181.607 1008.77 182.711C1006.81 183.784 1004.55 184.321 1002.01 184.321ZM1002.01 179.399C1003.42 179.399 1004.68 179.092 1005.78 178.479C1006.89 177.866 1007.74 176.976 1008.36 175.811C1009 174.646 1009.32 173.281 1009.32 171.717C1009.32 170.122 1009 168.758 1008.36 167.623C1007.74 166.458 1006.89 165.568 1005.78 164.955C1004.68 164.342 1003.44 164.035 1002.06 164.035C1000.64 164.035 999.387 164.342 998.283 164.955C997.21 165.568 996.351 166.458 995.707 167.623C995.063 168.758 994.741 170.122 994.741 171.717C994.741 173.281 995.063 174.646 995.707 175.811C996.351 176.976 997.21 177.866 998.283 178.479C999.387 179.092 1000.63 179.399 1002.01 179.399ZM1020.62 183.999V159.435H1026.09V166.197L1025.45 164.219C1026.18 162.563 1027.33 161.306 1028.9 160.447C1030.49 159.588 1032.47 159.159 1034.83 159.159V164.633C1034.59 164.572 1034.36 164.541 1034.14 164.541C1033.93 164.51 1033.71 164.495 1033.5 164.495C1031.32 164.495 1029.59 165.139 1028.3 166.427C1027.01 167.684 1026.37 169.57 1026.37 172.085V183.999H1020.62ZM1053.09 183.999V179.031L1052.77 177.973V169.279C1052.77 167.592 1052.26 166.289 1051.25 165.369C1050.24 164.418 1048.71 163.943 1046.65 163.943C1045.27 163.943 1043.91 164.158 1042.56 164.587C1041.24 165.016 1040.12 165.614 1039.2 166.381L1036.95 162.195C1038.26 161.183 1039.83 160.432 1041.64 159.941C1043.48 159.42 1045.38 159.159 1047.34 159.159C1050.9 159.159 1053.64 160.018 1055.58 161.735C1057.54 163.422 1058.52 166.044 1058.52 169.601V183.999H1053.09ZM1045.36 184.321C1043.52 184.321 1041.91 184.014 1040.53 183.401C1039.15 182.757 1038.08 181.883 1037.31 180.779C1036.58 179.644 1036.21 178.372 1036.21 176.961C1036.21 175.581 1036.53 174.339 1037.18 173.235C1037.85 172.131 1038.94 171.257 1040.44 170.613C1041.94 169.969 1043.94 169.647 1046.42 169.647H1053.55V173.465H1046.84C1044.87 173.465 1043.55 173.787 1042.88 174.431C1042.2 175.044 1041.87 175.811 1041.87 176.731C1041.87 177.774 1042.28 178.602 1043.11 179.215C1043.94 179.828 1045.09 180.135 1046.56 180.135C1047.97 180.135 1049.23 179.813 1050.33 179.169C1051.47 178.525 1052.28 177.574 1052.77 176.317L1053.74 179.767C1053.18 181.208 1052.19 182.328 1050.75 183.125C1049.33 183.922 1047.54 184.321 1045.36 184.321ZM1075.14 184.321C1072.45 184.321 1070.36 183.631 1068.89 182.251C1067.42 180.84 1066.68 178.77 1066.68 176.041V154.007H1072.43V175.903C1072.43 177.068 1072.72 177.973 1073.3 178.617C1073.92 179.261 1074.76 179.583 1075.83 179.583C1077.12 179.583 1078.2 179.246 1079.05 178.571L1080.66 182.665C1079.99 183.217 1079.16 183.631 1078.18 183.907C1077.2 184.183 1076.19 184.321 1075.14 184.321ZM1062.63 164.219V159.619H1079.01V164.219H1062.63ZM1085.4 183.999V159.435H1091.15V183.999H1085.4ZM1088.29 155.387C1087.22 155.387 1086.33 155.05 1085.63 154.375C1084.95 153.7 1084.61 152.888 1084.61 151.937C1084.61 150.956 1084.95 150.143 1085.63 149.499C1086.33 148.824 1087.22 148.487 1088.29 148.487C1089.37 148.487 1090.24 148.809 1090.92 149.453C1091.62 150.066 1091.97 150.848 1091.97 151.799C1091.97 152.811 1091.64 153.67 1090.96 154.375C1090.29 155.05 1089.4 155.387 1088.29 155.387ZM1109.73 184.321C1107.22 184.321 1104.98 183.784 1103.02 182.711C1101.05 181.607 1099.5 180.104 1098.37 178.203C1097.24 176.302 1096.67 174.14 1096.67 171.717C1096.67 169.264 1097.24 167.102 1098.37 165.231C1099.5 163.33 1101.05 161.842 1103.02 160.769C1104.98 159.696 1107.22 159.159 1109.73 159.159C1112.28 159.159 1114.53 159.696 1116.49 160.769C1118.49 161.842 1120.04 163.314 1121.14 165.185C1122.27 167.056 1122.84 169.233 1122.84 171.717C1122.84 174.14 1122.27 176.302 1121.14 178.203C1120.04 180.104 1118.49 181.607 1116.49 182.711C1114.53 183.784 1112.28 184.321 1109.73 184.321ZM1109.73 179.399C1111.14 179.399 1112.4 179.092 1113.5 178.479C1114.61 177.866 1115.47 176.976 1116.08 175.811C1116.72 174.646 1117.05 173.281 1117.05 171.717C1117.05 170.122 1116.72 168.758 1116.08 167.623C1115.47 166.458 1114.61 165.568 1113.5 164.955C1112.4 164.342 1111.16 164.035 1109.78 164.035C1108.37 164.035 1107.11 164.342 1106.01 164.955C1104.93 165.568 1104.07 166.458 1103.43 167.623C1102.79 168.758 1102.46 170.122 1102.46 171.717C1102.46 173.281 1102.79 174.646 1103.43 175.811C1104.07 176.976 1104.93 177.866 1106.01 178.479C1107.11 179.092 1108.35 179.399 1109.73 179.399ZM1142.28 159.159C1144.24 159.159 1145.99 159.542 1147.52 160.309C1149.09 161.076 1150.31 162.256 1151.2 163.851C1152.09 165.415 1152.54 167.439 1152.54 169.923V183.999H1146.79V170.659C1146.79 168.482 1146.27 166.856 1145.22 165.783C1144.21 164.71 1142.78 164.173 1140.94 164.173C1139.6 164.173 1138.4 164.449 1137.36 165.001C1136.31 165.553 1135.5 166.381 1134.92 167.485C1134.37 168.558 1134.09 169.923 1134.09 171.579V183.999H1128.34V159.435H1133.81V166.059L1132.85 164.035C1133.71 162.471 1134.95 161.275 1136.57 160.447C1138.23 159.588 1140.13 159.159 1142.28 159.159ZM1187.68 183.999V179.031L1187.36 177.973V169.279C1187.36 167.592 1186.85 166.289 1185.84 165.369C1184.83 164.418 1183.29 163.943 1181.24 163.943C1179.86 163.943 1178.49 164.158 1177.14 164.587C1175.82 165.016 1174.71 165.614 1173.79 166.381L1171.53 162.195C1172.85 161.183 1174.41 160.432 1176.22 159.941C1178.06 159.42 1179.96 159.159 1181.93 159.159C1185.48 159.159 1188.23 160.018 1190.16 161.735C1192.12 163.422 1193.11 166.044 1193.11 169.601V183.999H1187.68ZM1179.95 184.321C1178.11 184.321 1176.5 184.014 1175.12 183.401C1173.74 182.757 1172.67 181.883 1171.9 180.779C1171.16 179.644 1170.8 178.372 1170.8 176.961C1170.8 175.581 1171.12 174.339 1171.76 173.235C1172.44 172.131 1173.52 171.257 1175.03 170.613C1176.53 169.969 1178.52 169.647 1181.01 169.647H1188.14V173.465H1181.42C1179.46 173.465 1178.14 173.787 1177.47 174.431C1176.79 175.044 1176.45 175.811 1176.45 176.731C1176.45 177.774 1176.87 178.602 1177.7 179.215C1178.52 179.828 1179.67 180.135 1181.15 180.135C1182.56 180.135 1183.81 179.813 1184.92 179.169C1186.05 178.525 1186.86 177.574 1187.36 176.317L1188.32 179.767C1187.77 181.208 1186.77 182.328 1185.33 183.125C1183.92 183.922 1182.13 184.321 1179.95 184.321ZM1211.8 184.321C1209.22 184.321 1206.92 183.784 1204.9 182.711C1202.91 181.607 1201.34 180.104 1200.21 178.203C1199.07 176.302 1198.51 174.14 1198.51 171.717C1198.51 169.264 1199.07 167.102 1200.21 165.231C1201.34 163.33 1202.91 161.842 1204.9 160.769C1206.92 159.696 1209.22 159.159 1211.8 159.159C1214.19 159.159 1216.29 159.65 1218.1 160.631C1219.94 161.582 1221.34 162.992 1222.29 164.863L1217.87 167.439C1217.14 166.274 1216.23 165.415 1215.16 164.863C1214.12 164.311 1212.98 164.035 1211.75 164.035C1210.34 164.035 1209.07 164.342 1207.94 164.955C1206.8 165.568 1205.91 166.458 1205.27 167.623C1204.62 168.758 1204.3 170.122 1204.3 171.717C1204.3 173.312 1204.62 174.692 1205.27 175.857C1205.91 176.992 1206.8 177.866 1207.94 178.479C1209.07 179.092 1210.34 179.399 1211.75 179.399C1212.98 179.399 1214.12 179.123 1215.16 178.571C1216.23 178.019 1217.14 177.16 1217.87 175.995L1222.29 178.571C1221.34 180.411 1219.94 181.837 1218.1 182.849C1216.29 183.83 1214.19 184.321 1211.8 184.321ZM1227.26 183.999V159.435H1232.73V166.197L1232.09 164.219C1232.82 162.563 1233.97 161.306 1235.54 160.447C1237.13 159.588 1239.11 159.159 1241.47 159.159V164.633C1241.23 164.572 1241 164.541 1240.78 164.541C1240.57 164.51 1240.35 164.495 1240.14 164.495C1237.96 164.495 1236.23 165.139 1234.94 166.427C1233.65 167.684 1233.01 169.57 1233.01 172.085V183.999H1227.26ZM1257.17 184.321C1254.65 184.321 1252.41 183.784 1250.45 182.711C1248.49 181.607 1246.94 180.104 1245.8 178.203C1244.67 176.302 1244.1 174.14 1244.1 171.717C1244.1 169.264 1244.67 167.102 1245.8 165.231C1246.94 163.33 1248.49 161.842 1250.45 160.769C1252.41 159.696 1254.65 159.159 1257.17 159.159C1259.71 159.159 1261.96 159.696 1263.93 160.769C1265.92 161.842 1267.47 163.314 1268.57 165.185C1269.71 167.056 1270.28 169.233 1270.28 171.717C1270.28 174.14 1269.71 176.302 1268.57 178.203C1267.47 180.104 1265.92 181.607 1263.93 182.711C1261.96 183.784 1259.71 184.321 1257.17 184.321ZM1257.17 179.399C1258.58 179.399 1259.83 179.092 1260.94 178.479C1262.04 177.866 1262.9 176.976 1263.51 175.811C1264.16 174.646 1264.48 173.281 1264.48 171.717C1264.48 170.122 1264.16 168.758 1263.51 167.623C1262.9 166.458 1262.04 165.568 1260.94 164.955C1259.83 164.342 1258.59 164.035 1257.21 164.035C1255.8 164.035 1254.54 164.342 1253.44 164.955C1252.37 165.568 1251.51 166.458 1250.86 167.623C1250.22 168.758 1249.9 170.122 1249.9 171.717C1249.9 173.281 1250.22 174.646 1250.86 175.811C1251.51 176.976 1252.37 177.866 1253.44 178.479C1254.54 179.092 1255.79 179.399 1257.17 179.399ZM1283.36 184.321C1281.31 184.321 1279.33 184.06 1277.43 183.539C1275.56 182.987 1274.07 182.328 1272.97 181.561L1275.18 177.191C1276.28 177.896 1277.6 178.479 1279.13 178.939C1280.67 179.399 1282.2 179.629 1283.73 179.629C1285.54 179.629 1286.84 179.384 1287.64 178.893C1288.47 178.402 1288.88 177.743 1288.88 176.915C1288.88 176.24 1288.61 175.734 1288.06 175.397C1287.5 175.029 1286.78 174.753 1285.89 174.569C1285 174.385 1284.01 174.216 1282.9 174.063C1281.83 173.91 1280.74 173.71 1279.64 173.465C1278.56 173.189 1277.58 172.806 1276.69 172.315C1275.8 171.794 1275.08 171.104 1274.53 170.245C1273.98 169.386 1273.7 168.252 1273.7 166.841C1273.7 165.277 1274.15 163.928 1275.04 162.793C1275.93 161.628 1277.17 160.738 1278.76 160.125C1280.39 159.481 1282.31 159.159 1284.51 159.159C1286.17 159.159 1287.84 159.343 1289.53 159.711C1291.21 160.079 1292.61 160.6 1293.71 161.275L1291.51 165.645C1290.34 164.94 1289.16 164.464 1287.96 164.219C1286.8 163.943 1285.63 163.805 1284.47 163.805C1282.72 163.805 1281.42 164.066 1280.56 164.587C1279.73 165.108 1279.32 165.768 1279.32 166.565C1279.32 167.301 1279.59 167.853 1280.14 168.221C1280.7 168.589 1281.42 168.88 1282.31 169.095C1283.2 169.31 1284.18 169.494 1285.25 169.647C1286.35 169.77 1287.44 169.969 1288.52 170.245C1289.59 170.521 1290.57 170.904 1291.46 171.395C1292.38 171.855 1293.12 172.514 1293.67 173.373C1294.22 174.232 1294.5 175.351 1294.5 176.731C1294.5 178.264 1294.04 179.598 1293.12 180.733C1292.23 181.868 1290.95 182.757 1289.3 183.401C1287.64 184.014 1285.66 184.321 1283.36 184.321ZM1307.04 184.321C1304.98 184.321 1303.01 184.06 1301.1 183.539C1299.23 182.987 1297.75 182.328 1296.64 181.561L1298.85 177.191C1299.95 177.896 1301.27 178.479 1302.81 178.939C1304.34 179.399 1305.87 179.629 1307.41 179.629C1309.22 179.629 1310.52 179.384 1311.32 178.893C1312.14 178.402 1312.56 177.743 1312.56 176.915C1312.56 176.24 1312.28 175.734 1311.73 175.397C1311.18 175.029 1310.46 174.753 1309.57 174.569C1308.68 174.385 1307.68 174.216 1306.58 174.063C1305.5 173.91 1304.42 173.71 1303.31 173.465C1302.24 173.189 1301.26 172.806 1300.37 172.315C1299.48 171.794 1298.76 171.104 1298.21 170.245C1297.65 169.386 1297.38 168.252 1297.38 166.841C1297.38 165.277 1297.82 163.928 1298.71 162.793C1299.6 161.628 1300.84 160.738 1302.44 160.125C1304.06 159.481 1305.98 159.159 1308.19 159.159C1309.84 159.159 1311.52 159.343 1313.2 159.711C1314.89 160.079 1316.28 160.6 1317.39 161.275L1315.18 165.645C1314.01 164.94 1312.83 164.464 1311.64 164.219C1310.47 163.943 1309.31 163.805 1308.14 163.805C1306.39 163.805 1305.09 164.066 1304.23 164.587C1303.4 165.108 1302.99 165.768 1302.99 166.565C1302.99 167.301 1303.27 167.853 1303.82 168.221C1304.37 168.589 1305.09 168.88 1305.98 169.095C1306.87 169.31 1307.85 169.494 1308.92 169.647C1310.03 169.77 1311.12 169.969 1312.19 170.245C1313.26 170.521 1314.24 170.904 1315.13 171.395C1316.05 171.855 1316.79 172.514 1317.34 173.373C1317.89 174.232 1318.17 175.351 1318.17 176.731C1318.17 178.264 1317.71 179.598 1316.79 180.733C1315.9 181.868 1314.63 182.757 1312.97 183.401C1311.32 184.014 1309.34 184.321 1307.04 184.321ZM1345.08 184.321C1342.38 184.321 1340.3 183.631 1338.82 182.251C1337.35 180.84 1336.62 178.77 1336.62 176.041V154.007H1342.37V175.903C1342.37 177.068 1342.66 177.973 1343.24 178.617C1343.85 179.261 1344.7 179.583 1345.77 179.583C1347.06 179.583 1348.13 179.246 1348.99 178.571L1350.6 182.665C1349.93 183.217 1349.1 183.631 1348.12 183.907C1347.14 184.183 1346.12 184.321 1345.08 184.321ZM1332.57 164.219V159.619H1348.94V164.219H1332.57ZM1369.27 159.159C1371.23 159.159 1372.98 159.542 1374.51 160.309C1376.08 161.076 1377.3 162.256 1378.19 163.851C1379.08 165.415 1379.53 167.439 1379.53 169.923V183.999H1373.78V170.659C1373.78 168.482 1373.26 166.856 1372.21 165.783C1371.2 164.71 1369.77 164.173 1367.93 164.173C1366.59 164.173 1365.39 164.449 1364.35 165.001C1363.3 165.553 1362.49 166.381 1361.91 167.485C1361.36 168.558 1361.08 169.923 1361.08 171.579V183.999H1355.33V149.867H1361.08V166.059L1359.84 164.035C1360.7 162.471 1361.94 161.275 1363.56 160.447C1365.22 159.588 1367.12 159.159 1369.27 159.159ZM1398.41 184.321C1395.68 184.321 1393.29 183.784 1391.24 182.711C1389.21 181.607 1387.63 180.104 1386.5 178.203C1385.39 176.302 1384.84 174.14 1384.84 171.717C1384.84 169.264 1385.38 167.102 1386.45 165.231C1387.56 163.33 1389.06 161.842 1390.96 160.769C1392.89 159.696 1395.08 159.159 1397.54 159.159C1399.93 159.159 1402.06 159.68 1403.93 160.723C1405.8 161.766 1407.27 163.238 1408.35 165.139C1409.42 167.04 1409.96 169.279 1409.96 171.855C1409.96 172.1 1409.94 172.376 1409.91 172.683C1409.91 172.99 1409.9 173.281 1409.87 173.557H1389.4V169.739H1406.83L1404.58 170.935C1404.61 169.524 1404.32 168.282 1403.7 167.209C1403.09 166.136 1402.25 165.292 1401.17 164.679C1400.13 164.066 1398.92 163.759 1397.54 163.759C1396.13 163.759 1394.89 164.066 1393.81 164.679C1392.77 165.292 1391.94 166.151 1391.33 167.255C1390.75 168.328 1390.45 169.601 1390.45 171.073V171.993C1390.45 173.465 1390.79 174.768 1391.47 175.903C1392.14 177.038 1393.09 177.912 1394.32 178.525C1395.54 179.138 1396.96 179.445 1398.55 179.445C1399.93 179.445 1401.17 179.23 1402.28 178.801C1403.38 178.372 1404.36 177.697 1405.22 176.777L1408.3 180.319C1407.2 181.607 1405.8 182.604 1404.12 183.309C1402.46 183.984 1400.56 184.321 1398.41 184.321ZM1443.65 184.459C1441.2 184.459 1438.91 184.06 1436.8 183.263C1434.71 182.435 1432.89 181.285 1431.32 179.813C1429.79 178.31 1428.59 176.547 1427.73 174.523C1426.88 172.499 1426.45 170.291 1426.45 167.899C1426.45 165.507 1426.88 163.299 1427.73 161.275C1428.59 159.251 1429.8 157.503 1431.37 156.031C1432.93 154.528 1434.76 153.378 1436.84 152.581C1438.93 151.753 1441.21 151.339 1443.7 151.339C1446.33 151.339 1448.74 151.799 1450.92 152.719C1453.1 153.608 1454.94 154.942 1456.44 156.721L1452.57 160.355C1451.41 159.098 1450.11 158.162 1448.66 157.549C1447.22 156.905 1445.66 156.583 1443.97 156.583C1442.29 156.583 1440.74 156.859 1439.33 157.411C1437.95 157.963 1436.73 158.745 1435.69 159.757C1434.68 160.769 1433.88 161.965 1433.3 163.345C1432.75 164.725 1432.47 166.243 1432.47 167.899C1432.47 169.555 1432.75 171.073 1433.3 172.453C1433.88 173.833 1434.68 175.029 1435.69 176.041C1436.73 177.053 1437.95 177.835 1439.33 178.387C1440.74 178.939 1442.29 179.215 1443.97 179.215C1445.66 179.215 1447.22 178.908 1448.66 178.295C1450.11 177.651 1451.41 176.685 1452.57 175.397L1456.44 179.077C1454.94 180.825 1453.1 182.159 1450.92 183.079C1448.74 183.999 1446.32 184.459 1443.65 184.459ZM1461.62 183.999V149.867H1467.37V183.999H1461.62ZM1490.05 183.999V179.031L1489.72 177.973V169.279C1489.72 167.592 1489.22 166.289 1488.21 165.369C1487.19 164.418 1485.66 163.943 1483.61 163.943C1482.23 163.943 1480.86 164.158 1479.51 164.587C1478.19 165.016 1477.07 165.614 1476.15 166.381L1473.9 162.195C1475.22 161.183 1476.78 160.432 1478.59 159.941C1480.43 159.42 1482.33 159.159 1484.3 159.159C1487.85 159.159 1490.6 160.018 1492.53 161.735C1494.49 163.422 1495.47 166.044 1495.47 169.601V183.999H1490.05ZM1482.32 184.321C1480.48 184.321 1478.87 184.014 1477.49 183.401C1476.11 182.757 1475.04 181.883 1474.27 180.779C1473.53 179.644 1473.16 178.372 1473.16 176.961C1473.16 175.581 1473.49 174.339 1474.13 173.235C1474.81 172.131 1475.89 171.257 1477.4 170.613C1478.9 169.969 1480.89 169.647 1483.38 169.647H1490.51V173.465H1483.79C1481.83 173.465 1480.51 173.787 1479.83 174.431C1479.16 175.044 1478.82 175.811 1478.82 176.731C1478.82 177.774 1479.24 178.602 1480.06 179.215C1480.89 179.828 1482.04 180.135 1483.51 180.135C1484.93 180.135 1486.18 179.813 1487.29 179.169C1488.42 178.525 1489.23 177.574 1489.72 176.317L1490.69 179.767C1490.14 181.208 1489.14 182.328 1487.7 183.125C1486.29 183.922 1484.5 184.321 1482.32 184.321ZM1510.44 184.321C1508.39 184.321 1506.41 184.06 1504.51 183.539C1502.64 182.987 1501.15 182.328 1500.05 181.561L1502.26 177.191C1503.36 177.896 1504.68 178.479 1506.21 178.939C1507.75 179.399 1509.28 179.629 1510.81 179.629C1512.62 179.629 1513.92 179.384 1514.72 178.893C1515.55 178.402 1515.96 177.743 1515.96 176.915C1515.96 176.24 1515.69 175.734 1515.14 175.397C1514.58 175.029 1513.86 174.753 1512.97 174.569C1512.08 174.385 1511.09 174.216 1509.98 174.063C1508.91 173.91 1507.82 173.71 1506.72 173.465C1505.64 173.189 1504.66 172.806 1503.77 172.315C1502.88 171.794 1502.16 171.104 1501.61 170.245C1501.06 169.386 1500.78 168.252 1500.78 166.841C1500.78 165.277 1501.23 163.928 1502.12 162.793C1503.01 161.628 1504.25 160.738 1505.84 160.125C1507.47 159.481 1509.39 159.159 1511.59 159.159C1513.25 159.159 1514.92 159.343 1516.61 159.711C1518.29 160.079 1519.69 160.6 1520.79 161.275L1518.59 165.645C1517.42 164.94 1516.24 164.464 1515.04 164.219C1513.88 163.943 1512.71 163.805 1511.55 163.805C1509.8 163.805 1508.5 164.066 1507.64 164.587C1506.81 165.108 1506.4 165.768 1506.4 166.565C1506.4 167.301 1506.67 167.853 1507.22 168.221C1507.78 168.589 1508.5 168.88 1509.39 169.095C1510.28 169.31 1511.26 169.494 1512.33 169.647C1513.43 169.77 1514.52 169.969 1515.6 170.245C1516.67 170.521 1517.65 170.904 1518.54 171.395C1519.46 171.855 1520.2 172.514 1520.75 173.373C1521.3 174.232 1521.58 175.351 1521.58 176.731C1521.58 178.264 1521.12 179.598 1520.2 180.733C1519.31 181.868 1518.03 182.757 1516.38 183.401C1514.72 184.014 1512.74 184.321 1510.44 184.321ZM1534.12 184.321C1532.06 184.321 1530.09 184.06 1528.18 183.539C1526.31 182.987 1524.83 182.328 1523.72 181.561L1525.93 177.191C1527.03 177.896 1528.35 178.479 1529.89 178.939C1531.42 179.399 1532.95 179.629 1534.49 179.629C1536.3 179.629 1537.6 179.384 1538.4 178.893C1539.22 178.402 1539.64 177.743 1539.64 176.915C1539.64 176.24 1539.36 175.734 1538.81 175.397C1538.26 175.029 1537.54 174.753 1536.65 174.569C1535.76 174.385 1534.76 174.216 1533.66 174.063C1532.58 173.91 1531.5 173.71 1530.39 173.465C1529.32 173.189 1528.34 172.806 1527.45 172.315C1526.56 171.794 1525.84 171.104 1525.29 170.245C1524.73 169.386 1524.46 168.252 1524.46 166.841C1524.46 165.277 1524.9 163.928 1525.79 162.793C1526.68 161.628 1527.92 160.738 1529.52 160.125C1531.14 159.481 1533.06 159.159 1535.27 159.159C1536.92 159.159 1538.6 159.343 1540.28 159.711C1541.97 160.079 1543.36 160.6 1544.47 161.275L1542.26 165.645C1541.09 164.94 1539.91 164.464 1538.72 164.219C1537.55 163.943 1536.39 163.805 1535.22 163.805C1533.47 163.805 1532.17 164.066 1531.31 164.587C1530.48 165.108 1530.07 165.768 1530.07 166.565C1530.07 167.301 1530.35 167.853 1530.9 168.221C1531.45 168.589 1532.17 168.88 1533.06 169.095C1533.95 169.31 1534.93 169.494 1536 169.647C1537.11 169.77 1538.2 169.969 1539.27 170.245C1540.34 170.521 1541.32 170.904 1542.21 171.395C1543.13 171.855 1543.87 172.514 1544.42 173.373C1544.97 174.232 1545.25 175.351 1545.25 176.731C1545.25 178.264 1544.79 179.598 1543.87 180.733C1542.98 181.868 1541.71 182.757 1540.05 183.401C1538.4 184.014 1536.42 184.321 1534.12 184.321ZM1550.2 183.999V159.435H1555.68V166.197L1555.03 164.219C1555.77 162.563 1556.92 161.306 1558.48 160.447C1560.08 159.588 1562.05 159.159 1564.42 159.159V164.633C1564.17 164.572 1563.94 164.541 1563.73 164.541C1563.51 164.51 1563.3 164.495 1563.08 164.495C1560.9 164.495 1559.17 165.139 1557.88 166.427C1556.6 167.684 1555.95 169.57 1555.95 172.085V183.999H1550.2ZM1580.11 184.321C1577.59 184.321 1575.36 183.784 1573.39 182.711C1571.43 181.607 1569.88 180.104 1568.75 178.203C1567.61 176.302 1567.04 174.14 1567.04 171.717C1567.04 169.264 1567.61 167.102 1568.75 165.231C1569.88 163.33 1571.43 161.842 1573.39 160.769C1575.36 159.696 1577.59 159.159 1580.11 159.159C1582.65 159.159 1584.91 159.696 1586.87 160.769C1588.86 161.842 1590.41 163.314 1591.52 165.185C1592.65 167.056 1593.22 169.233 1593.22 171.717C1593.22 174.14 1592.65 176.302 1591.52 178.203C1590.41 180.104 1588.86 181.607 1586.87 182.711C1584.91 183.784 1582.65 184.321 1580.11 184.321ZM1580.11 179.399C1581.52 179.399 1582.78 179.092 1583.88 178.479C1584.98 177.866 1585.84 176.976 1586.46 175.811C1587.1 174.646 1587.42 173.281 1587.42 171.717C1587.42 170.122 1587.1 168.758 1586.46 167.623C1585.84 166.458 1584.98 165.568 1583.88 164.955C1582.78 164.342 1581.53 164.035 1580.15 164.035C1578.74 164.035 1577.49 164.342 1576.38 164.955C1575.31 165.568 1574.45 166.458 1573.81 167.623C1573.16 168.758 1572.84 170.122 1572.84 171.717C1572.84 173.281 1573.16 174.646 1573.81 175.811C1574.45 176.976 1575.31 177.866 1576.38 178.479C1577.49 179.092 1578.73 179.399 1580.11 179.399ZM1609.76 184.321C1607.24 184.321 1605 183.784 1603.04 182.711C1601.08 181.607 1599.53 180.104 1598.4 178.203C1597.26 176.302 1596.69 174.14 1596.69 171.717C1596.69 169.264 1597.26 167.102 1598.4 165.231C1599.53 163.33 1601.08 161.842 1603.04 160.769C1605 159.696 1607.24 159.159 1609.76 159.159C1612.3 159.159 1614.56 159.696 1616.52 160.769C1618.51 161.842 1620.06 163.314 1621.17 165.185C1622.3 167.056 1622.87 169.233 1622.87 171.717C1622.87 174.14 1622.3 176.302 1621.17 178.203C1620.06 180.104 1618.51 181.607 1616.52 182.711C1614.56 183.784 1612.3 184.321 1609.76 184.321ZM1609.76 179.399C1611.17 179.399 1612.43 179.092 1613.53 178.479C1614.63 177.866 1615.49 176.976 1616.11 175.811C1616.75 174.646 1617.07 173.281 1617.07 171.717C1617.07 170.122 1616.75 168.758 1616.11 167.623C1615.49 166.458 1614.63 165.568 1613.53 164.955C1612.43 164.342 1611.18 164.035 1609.8 164.035C1608.39 164.035 1607.14 164.342 1606.03 164.955C1604.96 165.568 1604.1 166.458 1603.46 167.623C1602.81 168.758 1602.49 170.122 1602.49 171.717C1602.49 173.281 1602.81 174.646 1603.46 175.811C1604.1 176.976 1604.96 177.866 1606.03 178.479C1607.14 179.092 1608.38 179.399 1609.76 179.399ZM1659.37 159.159C1661.33 159.159 1663.07 159.542 1664.57 160.309C1666.1 161.076 1667.3 162.256 1668.16 163.851C1669.01 165.415 1669.44 167.439 1669.44 169.923V183.999H1663.69V170.659C1663.69 168.482 1663.22 166.856 1662.27 165.783C1661.32 164.71 1659.95 164.173 1658.17 164.173C1656.92 164.173 1655.8 164.449 1654.82 165.001C1653.87 165.553 1653.11 166.366 1652.56 167.439C1652.04 168.512 1651.78 169.877 1651.78 171.533V183.999H1646.03V170.659C1646.03 168.482 1645.55 166.856 1644.6 165.783C1643.65 164.71 1642.29 164.173 1640.51 164.173C1639.25 164.173 1638.13 164.449 1637.15 165.001C1636.2 165.553 1635.45 166.366 1634.9 167.439C1634.38 168.512 1634.12 169.877 1634.12 171.533V183.999H1628.37V159.435H1633.84V165.967L1632.87 164.035C1633.7 162.44 1634.9 161.229 1636.46 160.401C1638.06 159.573 1639.87 159.159 1641.89 159.159C1644.19 159.159 1646.18 159.726 1647.87 160.861C1649.59 161.996 1650.72 163.713 1651.27 166.013L1649.02 165.231C1649.82 163.391 1651.14 161.919 1652.98 160.815C1654.82 159.711 1656.95 159.159 1659.37 159.159Z" fill="#228EF2"/>
<rect x="821" y="124.999" width="871" height="85" rx="20" stroke="#0084FF" stroke-width="8"/>
<path d="M1676 129.499C1676 123.148 1681.15 117.999 1687.5 117.999V117.999C1693.85 117.999 1699 123.148 1699 129.499V129.499C1699 135.85 1693.85 140.999 1687.5 140.999V140.999C1681.15 140.999 1676 135.85 1676 129.499V129.499Z" fill="#0084FF"/>
<path d="M814 129.499C814 123.148 819.149 117.999 825.5 117.999V117.999C831.851 117.999 837 123.148 837 129.499V129.499C837 135.85 831.851 140.999 825.5 140.999V140.999C819.149 140.999 814 135.85 814 129.499V129.499Z" fill="#0084FF"/>
<path d="M1676 205.499C1676 199.148 1681.15 193.999 1687.5 193.999V193.999C1693.85 193.999 1699 199.148 1699 205.499V205.499C1699 211.85 1693.85 216.999 1687.5 216.999V216.999C1681.15 216.999 1676 211.85 1676 205.499V205.499Z" fill="#0084FF"/>
<path d="M814 205.499C814 199.148 819.149 193.999 825.5 193.999V193.999C831.851 193.999 837 199.148 837 205.499V205.499C837 211.85 831.851 216.999 825.5 216.999V216.999C819.149 216.999 814 211.85 814 205.499V205.499Z" fill="#0084FF"/>
<rect x="1238" y="202.999" width="36" height="15" rx="7.5" fill="#0084FF"/>
<rect x="1238" y="117.999" width="36" height="14" rx="7" fill="#0084FF"/>
<rect x="814" y="149.999" width="14" height="36" rx="7" fill="#0084FF"/>
<rect x="1685" y="149.999" width="14" height="36" rx="7" fill="#0084FF"/>
<path d="M1734.17 118.161C1735.73 116.599 1738.27 116.599 1739.83 118.161C1741.39 119.723 1741.39 122.256 1739.83 123.818L1734.17 118.161ZM1723.16 129.17L1734.17 118.161L1739.83 123.818L1728.82 134.826L1723.16 129.17Z" fill="#0084FF"/>
<path d="M1712.16 123.818C1710.59 122.256 1710.59 119.723 1712.16 118.161C1713.72 116.599 1716.25 116.599 1717.81 118.161L1712.16 123.818ZM1723.16 134.826L1712.16 123.818L1717.81 118.161L1728.82 129.17L1723.16 134.826Z" fill="#0084FF"/>
<path d="M1698.84 99.1887C1700.4 100.751 1700.4 103.284 1698.84 104.846C1697.27 106.408 1694.74 106.408 1693.18 104.846L1698.84 99.1887ZM1687.83 88.1804L1698.84 99.1887L1693.18 104.846L1682.17 93.8372L1687.83 88.1804Z" fill="#0084FF"/>
<path d="M1693.18 77.172C1694.74 75.6099 1697.27 75.6099 1698.84 77.172C1700.4 78.7341 1700.4 81.2667 1698.84 82.8288L1693.18 77.172ZM1682.17 88.1804L1693.18 77.172L1698.84 82.8288L1687.83 93.8372L1682.17 88.1804Z" fill="#0084FF"/>
<path d="M1725.94 131.999V117.06C1725.94 102.701 1714.3 91.0604 1699.94 91.0604H1685" stroke="#0084FF" stroke-width="8" stroke-linecap="round"/>
<path d="M337 389L267.167 458.833C214.055 511.945 214.055 598.055 267.167 651.167L418.282 802.282C461.539 845.539 470.591 912.353 440.403 965.561L302 1209.5" stroke="#DF84FF" stroke-width="40" stroke-linecap="round"/>
<g filter="url(#filter0_d_2319_217)">
<path d="M371.817 368.597C368.524 377.625 361.259 384.645 352.11 387.641L342.751 390.706C340.171 391.551 337.346 390.526 335.914 388.224L330.72 379.874C325.642 371.712 324.6 361.675 327.893 352.647L345.934 303.196L389.858 319.146L371.817 368.597Z" fill="#DF84FF"/>
<path d="M377.001 354.389L333.077 338.439L362.66 257.348C367.075 245.247 380.486 239.008 392.616 243.413C404.745 247.817 410.999 261.197 406.584 273.298L377.001 354.389Z" fill="#2F2F2F"/>
<path d="M342.176 301.825L343.545 298.073L358.902 255.978C364.076 241.797 379.784 234.497 393.981 239.653C408.183 244.81 415.517 260.484 410.342 274.669L394.989 316.753L393.616 320.517L380.758 355.76L379.389 359.512L375.575 369.968C371.86 380.151 363.668 388.065 353.355 391.443L343.996 394.508C339.668 395.925 334.925 394.207 332.518 390.337L327.323 381.987C321.596 372.781 320.42 361.46 324.135 351.277L327.946 340.832L329.319 337.068L342.176 301.825Z" stroke="white" stroke-width="8"/>
</g>
<rect x="1141" y="720" width="291" height="291" rx="42" stroke="#FF4C6C" stroke-width="40"/>
<rect x="1392" y="394" width="291" height="291" rx="145.5" stroke="#228EF2" stroke-width="40"/>
<path d="M1843.15 960.467L1716.07 736.579C1703.04 713.623 1669.96 713.623 1656.93 736.579L1529.85 960.467C1516.99 983.133 1533.36 1011.25 1559.42 1011.25H1813.58C1839.64 1011.25 1856.01 983.133 1843.15 960.467Z" stroke="#FFC24A" stroke-width="40"/>
</g>
<defs>
<filter id="filter0_d_2319_217" x="302" y="217.998" width="130.003" height="197.003" filterUnits="userSpaceOnUse" color-interpolation-filters="sRGB">
<feFlood flood-opacity="0" result="BackgroundImageFix"/>
<feColorMatrix in="SourceAlpha" type="matrix" values="0 0 0 0 0 0 0 0 0 0 0 0 0 0 0 0 0 0 127 0" result="hardAlpha"/>
<feOffset/>
<feGaussianBlur stdDeviation="8"/>
<feComposite in2="hardAlpha" operator="out"/>
<feColorMatrix type="matrix" values="0 0 0 0 0 0 0 0 0 0 0 0 0 0 0 0 0 0 0.25 0"/>
<feBlend mode="normal" in2="BackgroundImageFix" result="effect1_dropShadow_2319_217"/>
<feBlend mode="normal" in="SourceGraphic" in2="effect1_dropShadow_2319_217" result="shape"/>
</filter>
</defs>
</svg>
