<svg viewBox="0 0 60 60" fill="none" xmlns="http://www.w3.org/2000/svg">
<path d="M34.555 25.1002L35.7296 24.6726L36.1571 25.8472L40.7549 38.4794C41.7254 41.1458 41.4183 44.1102 39.922 46.5211L38.5981 48.654C37.929 49.732 36.6093 50.2123 35.4039 49.8166L33.0187 49.0337C30.3227 48.1486 28.1821 46.0752 27.2116 43.4088L22.6138 30.7766L22.1863 29.602L23.3609 29.1745L34.555 25.1002Z" fill="#0084FF" stroke="white" stroke-width="2.5"/>
<path d="M27.4928 40.5264L26.3182 40.9539L25.8907 39.7793L18.3513 19.065C16.9901 15.3251 18.9184 11.1898 22.6582 9.82865C26.3981 8.46745 30.5334 10.3957 31.8946 14.1356L39.434 34.85L39.8615 36.0246L38.6869 36.4521L27.4928 40.5264Z" fill="#2F2F2F" stroke="white" stroke-width="2.5"/>
</svg>
