<svg viewBox="0 0 60 60" fill="none" xmlns="http://www.w3.org/2000/svg">
<path d="M37.1357 29.1389L38.3103 28.7113L38.7379 29.8859L42.5001 40.2226C43.4918 42.9472 42.0869 45.9599 39.3623 46.9516L33.7241 49.0037C30.9995 49.9954 27.9868 48.5905 26.9951 45.8659L23.2329 35.5293L22.8054 34.3547L23.98 33.9271L37.1357 29.1389Z" fill="#0084FF" stroke="white" stroke-width="2.5"/>
<path d="M26.9684 42.1376L25.7938 42.5652L25.3663 41.3905L17.4998 19.7776C16.5081 17.053 17.913 14.0403 20.6376 13.0486L26.2758 10.9965C29.0004 10.0048 32.0131 11.4096 33.0047 14.1343L40.8712 35.7472L41.2987 36.9218L40.1241 37.3493L26.9684 42.1376Z" fill="#2F2F2F" stroke="white" stroke-width="2.5"/>
</svg>
