<svg viewBox="0 0 60 60" fill="none" xmlns="http://www.w3.org/2000/svg">
<path d="M8 20.75V16.75H30.5V20.75H22V43.25H17V20.75H8Z" fill="#2F2F2F"/>
<path d="M39 32.75L31.5 22.75H36.5L41.5 29.25L47 22.75H52L44.5 32.75L52 43.25H47L41.5 36.25L36.5 43.25H31L39 32.75Z" fill="#0084FF"/>
<mask id="path-3-outside-1_19_187" maskUnits="userSpaceOnUse" x="5" y="13.75" width="52" height="32" fill="black">
<rect fill="white" x="5" y="13.75" width="52" height="32"/>
<path fill-rule="evenodd" clip-rule="evenodd" d="M8 16.75V20.75H17V43.25H22V20.75H30.5V16.75H8ZM31.5 22.75L39 32.75L31 43.25H36.5L41.5 36.25L47 43.25H52L44.5 32.75L52 22.75H47L41.5 29.25L36.5 22.75H31.5Z"/>
</mask>
<path d="M8 20.75H5.5V23.25H8V20.75ZM8 16.75V14.25H5.5V16.75H8ZM17 20.75H19.5V18.25H17V20.75ZM17 43.25H14.5V45.75H17V43.25ZM22 43.25V45.75H24.5V43.25H22ZM22 20.75V18.25H19.5V20.75H22ZM30.5 20.75V23.25H33V20.75H30.5ZM30.5 16.75H33V14.25H30.5V16.75ZM39 32.75L40.9886 34.2651L42.1339 32.7619L41 31.25L39 32.75ZM31.5 22.75V20.25H26.5L29.5 24.25L31.5 22.75ZM31 43.25L29.0114 41.7349L25.9523 45.75H31V43.25ZM36.5 43.25V45.75H37.7865L38.5343 44.7031L36.5 43.25ZM41.5 36.25L43.4658 34.7054L41.4047 32.0822L39.4657 34.7969L41.5 36.25ZM47 43.25L45.0342 44.7946L45.7849 45.75H47V43.25ZM52 43.25V45.75H56.858L54.0343 41.7969L52 43.25ZM44.5 32.75L42.5 31.25L41.402 32.714L42.4657 34.2031L44.5 32.75ZM52 22.75L54 24.25L57 20.25H52V22.75ZM47 22.75V20.25H45.8405L45.0915 21.1351L47 22.75ZM41.5 29.25L39.5184 30.7743L41.4073 33.2298L43.4085 30.8649L41.5 29.25ZM36.5 22.75L38.4816 21.2257L37.731 20.25H36.5V22.75ZM10.5 20.75V16.75H5.5V20.75H10.5ZM17 18.25H8V23.25H17V18.25ZM19.5 43.25V20.75H14.5V43.25H19.5ZM22 40.75H17V45.75H22V40.75ZM19.5 20.75V43.25H24.5V20.75H19.5ZM30.5 18.25H22V23.25H30.5V18.25ZM28 16.75V20.75H33V16.75H28ZM8 19.25H30.5V14.25H8V19.25ZM41 31.25L33.5 21.25L29.5 24.25L37 34.25L41 31.25ZM32.9886 44.7651L40.9886 34.2651L37.0114 31.2349L29.0114 41.7349L32.9886 44.7651ZM36.5 40.75H31V45.75H36.5V40.75ZM39.4657 34.7969L34.4657 41.7969L38.5343 44.7031L43.5343 37.7031L39.4657 34.7969ZM48.9658 41.7054L43.4658 34.7054L39.5342 37.7946L45.0342 44.7946L48.9658 41.7054ZM52 40.75H47V45.75H52V40.75ZM42.4657 34.2031L49.9657 44.7031L54.0343 41.7969L46.5343 31.2969L42.4657 34.2031ZM50 21.25L42.5 31.25L46.5 34.25L54 24.25L50 21.25ZM47 25.25H52V20.25H47V25.25ZM43.4085 30.8649L48.9085 24.3649L45.0915 21.1351L39.5915 27.6351L43.4085 30.8649ZM34.5184 24.2743L39.5184 30.7743L43.4816 27.7257L38.4816 21.2257L34.5184 24.2743ZM31.5 25.25H36.5V20.25H31.5V25.25Z" fill="white" mask="url(#path-3-outside-1_19_187)"/>
</svg>
