<svg viewBox="0 0 350 168" fill="none" xmlns="http://www.w3.org/2000/svg">
<rect width="350" height="168" rx="84" fill="#0084FF" fill-opacity="0.25"/>
<rect x="56.915" y="50" width="12" height="68" rx="6" fill="#0084FF"/>
<rect x="89.1099" y="62.2363" width="12" height="68" rx="6" transform="rotate(60 89.1099 62.2363)" fill="#0084FF"/>
<rect x="30.2202" y="71.7627" width="12" height="68" rx="6" transform="rotate(-60 30.2202 71.7627)" fill="#0084FF"/>
<rect x="131.805" y="50" width="12" height="68" rx="6" fill="#0084FF"/>
<rect x="164" y="62.2363" width="12" height="68" rx="6" transform="rotate(60 164 62.2363)" fill="#0084FF"/>
<rect x="105.11" y="71.7627" width="12" height="68" rx="6" transform="rotate(-60 105.11 71.7627)" fill="#0084FF"/>
<rect x="206.695" y="50" width="12" height="68" rx="6" fill="#0084FF"/>
<rect x="238.89" y="62.2363" width="12" height="68" rx="6" transform="rotate(60 238.89 62.2363)" fill="#0084FF"/>
<rect x="180" y="71.7627" width="12" height="68" rx="6" transform="rotate(-60 180 71.7627)" fill="#0084FF"/>
<rect x="281.584" y="50" width="12" height="68" rx="6" fill="#0084FF"/>
<rect x="313.779" y="62.2363" width="12" height="68" rx="6" transform="rotate(60 313.779 62.2363)" fill="#0084FF"/>
<rect x="254.89" y="71.7627" width="12" height="68" rx="6" transform="rotate(-60 254.89 71.7627)" fill="#0084FF"/>
</svg>
