<svg viewBox="0 0 256 256" fill="none" xmlns="http://www.w3.org/2000/svg">
<mask id="mask0_2317_177" style="mask-type:alpha" maskUnits="userSpaceOnUse" x="0" y="0" width="256" height="256">
<rect width="256" height="256" fill="white"/>
</mask>
<g mask="url(#mask0_2317_177)">
<rect x="90" y="68" width="112" height="156" rx="19" stroke="#6AB5FB" stroke-width="26"/>
<path fill-rule="evenodd" clip-rule="evenodd" d="M146.796 19.1211H72.8252C55.1521 19.1211 40.8252 33.4479 40.8252 51.1211V168.954C40.8252 186.627 55.1521 200.954 72.8252 200.954H96.9085C100.222 200.954 102.909 198.268 102.909 194.954V180.954C102.909 177.64 100.222 174.954 96.9085 174.954H72.8252C69.5115 174.954 66.8252 172.268 66.8252 168.954V51.1211C66.8252 47.8074 69.5115 45.1211 72.8252 45.1211H146.796C150.109 45.1211 152.796 47.8074 152.796 51.1211V75.2044C152.796 78.5181 155.482 81.2044 158.796 81.2044H172.796C176.109 81.2044 178.796 78.5181 178.796 75.2044V51.1211C178.796 33.4479 164.469 19.1211 146.796 19.1211Z" fill="#6AB5FB"/>
</g>
</svg>
