<svg viewBox="0 0 346 345" fill="none" xmlns="http://www.w3.org/2000/svg">
<path d="M68.7357 284.121C39.3452 277.605 20.8014 248.497 27.3172 219.107C33.8329 189.716 62.9407 171.173 92.3313 177.688C121.722 184.204 140.266 213.312 133.75 242.702C127.234 272.093 98.1263 290.637 68.7357 284.121Z" stroke="#0084FF" stroke-width="26"/>
<path d="M102.247 133.397L132.83 140.178C145.232 142.927 157.514 135.102 160.263 122.701L167.043 92.1194C173.537 62.8277 155.055 33.8177 125.763 27.3238C96.4718 20.8301 67.462 39.3112 60.9683 68.6026C54.4745 97.894 72.9557 126.904 102.247 133.397Z" stroke="#0084FF" stroke-width="26"/>
<path d="M243.139 211.564L212.556 204.784C200.154 202.034 187.872 209.859 185.123 222.26L178.343 252.842C171.849 282.134 190.331 311.144 219.623 317.637C248.914 324.131 277.924 305.65 284.418 276.359C290.912 247.067 272.43 218.058 243.139 211.564Z" stroke="#0084FF" stroke-width="26"/>
<path d="M276.571 60.7571C305.863 67.2509 324.344 96.2608 317.851 125.552C311.357 154.843 282.347 173.325 253.055 166.831C223.764 160.337 205.282 131.327 211.776 102.036C218.269 72.7446 247.28 54.2634 276.571 60.7571Z" stroke="#0084FF" stroke-width="26"/>
</svg>
