<svg viewBox="0 0 256 256" fill="none" xmlns="http://www.w3.org/2000/svg">
<mask id="mask0_4253_44" style="mask-type:alpha" maskUnits="userSpaceOnUse" x="0" y="0" width="256" height="256">
<rect width="256" height="256" fill="var(--gray)"/>
</mask>
<g mask="url(#mask0_4253_44)">
<mask id="path-2-outside-1_4253_44" maskUnits="userSpaceOnUse" x="16" y="56" width="217" height="143" fill="black">
<rect fill="var(--pageColor)" x="16" y="56" width="217" height="143"/>
<path d="M35.6 186C33 186 31.05 184.9 29.75 182.7C28.45 180.5 28.35 178.2 29.45 175.8L72.35 73.65C73.65 70.45 75.85 68.85 78.95 68.85C82.25 68.85 84.5 70.45 85.7 73.65L128.75 176.1C129.75 178.5 129.55 180.75 128.15 182.85C126.85 184.95 124.9 186 122.3 186C121 186 119.75 185.65 118.55 184.95C117.35 184.15 116.45 183.05 115.85 181.65L77 86.25H81.35L42.2 181.65C41.6 183.15 40.7 184.25 39.5 184.95C38.3 185.65 37 186 35.6 186ZM44.3 159.45L49.85 147.6H109.4L114.8 159.45H44.3ZM176.989 186.6C169.489 186.6 162.789 184.8 156.889 181.2C150.989 177.6 146.339 172.65 142.939 166.35C139.539 160.05 137.839 152.95 137.839 145.05C137.839 137.05 139.639 129.95 143.239 123.75C146.939 117.45 151.889 112.5 158.089 108.9C164.389 105.2 171.439 103.35 179.239 103.35C187.139 103.35 194.189 105.2 200.389 108.9C206.589 112.5 211.489 117.45 215.089 123.75C218.789 130.05 220.689 137.15 220.789 145.05L215.389 146.4C215.389 154 213.689 160.85 210.289 166.95C206.889 173.05 202.289 177.85 196.489 181.35C190.789 184.85 184.289 186.6 176.989 186.6ZM179.239 174.3C184.639 174.3 189.439 173.05 193.639 170.55C197.839 167.95 201.139 164.45 203.539 160.05C206.039 155.55 207.289 150.55 207.289 145.05C207.289 139.45 206.039 134.45 203.539 130.05C201.139 125.55 197.839 122.05 193.639 119.55C189.439 116.95 184.639 115.65 179.239 115.65C174.039 115.65 169.289 116.95 164.989 119.55C160.689 122.05 157.289 125.55 154.789 130.05C152.389 134.45 151.189 139.45 151.189 145.05C151.189 150.55 152.389 155.55 154.789 160.05C157.289 164.45 160.689 167.95 164.989 170.55C169.289 173.05 174.039 174.3 179.239 174.3ZM213.739 186.15C211.739 186.15 210.089 185.5 208.789 184.2C207.489 182.9 206.839 181.25 206.839 179.25V155.25L209.689 140.85L220.789 145.05V179.25C220.789 181.25 220.089 182.9 218.689 184.2C217.389 185.5 215.739 186.15 213.739 186.15Z"/>
</mask>
<path d="M35.6 186C33 186 31.05 184.9 29.75 182.7C28.45 180.5 28.35 178.2 29.45 175.8L72.35 73.65C73.65 70.45 75.85 68.85 78.95 68.85C82.25 68.85 84.5 70.45 85.7 73.65L128.75 176.1C129.75 178.5 129.55 180.75 128.15 182.85C126.85 184.95 124.9 186 122.3 186C121 186 119.75 185.65 118.55 184.95C117.35 184.15 116.45 183.05 115.85 181.65L77 86.25H81.35L42.2 181.65C41.6 183.15 40.7 184.25 39.5 184.95C38.3 185.65 37 186 35.6 186ZM44.3 159.45L49.85 147.6H109.4L114.8 159.45H44.3ZM176.989 186.6C169.489 186.6 162.789 184.8 156.889 181.2C150.989 177.6 146.339 172.65 142.939 166.35C139.539 160.05 137.839 152.95 137.839 145.05C137.839 137.05 139.639 129.95 143.239 123.75C146.939 117.45 151.889 112.5 158.089 108.9C164.389 105.2 171.439 103.35 179.239 103.35C187.139 103.35 194.189 105.2 200.389 108.9C206.589 112.5 211.489 117.45 215.089 123.75C218.789 130.05 220.689 137.15 220.789 145.05L215.389 146.4C215.389 154 213.689 160.85 210.289 166.95C206.889 173.05 202.289 177.85 196.489 181.35C190.789 184.85 184.289 186.6 176.989 186.6ZM179.239 174.3C184.639 174.3 189.439 173.05 193.639 170.55C197.839 167.95 201.139 164.45 203.539 160.05C206.039 155.55 207.289 150.55 207.289 145.05C207.289 139.45 206.039 134.45 203.539 130.05C201.139 125.55 197.839 122.05 193.639 119.55C189.439 116.95 184.639 115.65 179.239 115.65C174.039 115.65 169.289 116.95 164.989 119.55C160.689 122.05 157.289 125.55 154.789 130.05C152.389 134.45 151.189 139.45 151.189 145.05C151.189 150.55 152.389 155.55 154.789 160.05C157.289 164.45 160.689 167.95 164.989 170.55C169.289 173.05 174.039 174.3 179.239 174.3ZM213.739 186.15C211.739 186.15 210.089 185.5 208.789 184.2C207.489 182.9 206.839 181.25 206.839 179.25V155.25L209.689 140.85L220.789 145.05V179.25C220.789 181.25 220.089 182.9 218.689 184.2C217.389 185.5 215.739 186.15 213.739 186.15Z" fill="var(--pageColor)"/>
<path d="M29.75 182.7L19.4189 188.805L19.4189 188.805L29.75 182.7ZM29.45 175.8L40.3588 180.8L40.4392 180.624L40.5139 180.447L29.45 175.8ZM72.35 73.65L83.4139 78.2965L83.4411 78.2317L83.4676 78.1665L72.35 73.65ZM85.7 73.65L74.4641 77.8635L74.5463 78.0828L74.637 78.2987L85.7 73.65ZM128.75 176.1L139.827 171.485L139.82 171.468L139.813 171.451L128.75 176.1ZM128.15 182.85L118.165 176.194L118.053 176.362L117.947 176.534L128.15 182.85ZM118.55 184.95L111.894 194.935L112.193 195.134L112.504 195.315L118.55 184.95ZM115.85 181.65L104.736 186.176L104.777 186.277L104.82 186.377L115.85 181.65ZM77 86.25V74.25H59.1563L65.8862 90.7759L77 86.25ZM81.35 86.25L92.4516 90.8058L99.2457 74.25H81.35V86.25ZM42.2 181.65L31.0984 177.094L31.0781 177.144L31.0583 177.193L42.2 181.65ZM44.3 159.45L33.4328 154.36L25.4288 171.45H44.3V159.45ZM49.85 147.6V135.6H42.2193L38.9828 142.51L49.85 147.6ZM109.4 147.6L120.32 142.624L117.119 135.6H109.4V147.6ZM114.8 159.45V171.45H133.456L125.72 154.474L114.8 159.45ZM35.6 186V174C36.0295 174 36.9873 174.105 38.0834 174.723C39.1893 175.347 39.8137 176.143 40.0811 176.595L29.75 182.7L19.4189 188.805C22.9239 194.736 28.8475 198 35.6 198V186ZM29.75 182.7L40.0811 176.595C40.3215 177.002 40.644 177.775 40.6887 178.804C40.7327 179.815 40.4842 180.526 40.3588 180.8L29.45 175.8L18.5412 170.8C15.8683 176.632 16.0418 183.09 19.4189 188.805L29.75 182.7ZM29.45 175.8L40.5139 180.447L83.4139 78.2965L72.35 73.65L61.2861 69.0035L18.3861 171.153L29.45 175.8ZM72.35 73.65L83.4676 78.1665C83.4998 78.0872 83.1728 78.9259 82.0331 79.7548C80.8028 80.6495 79.5676 80.85 78.95 80.85V68.85V56.85C75.2324 56.85 71.3472 57.8505 67.9169 60.3452C64.5772 62.7741 62.5002 66.0128 61.2324 69.1335L72.35 73.65ZM78.95 68.85V80.85C78.6056 80.85 77.4358 80.7379 76.1582 79.8295C74.9132 78.9441 74.5032 77.9679 74.4641 77.8635L85.7 73.65L96.936 69.4365C95.6968 66.1321 93.5618 62.7559 90.0668 60.2705C86.5392 57.762 82.5944 56.85 78.95 56.85V68.85ZM85.7 73.65L74.637 78.2987L117.687 180.749L128.75 176.1L139.813 171.451L96.763 69.0013L85.7 73.65ZM128.75 176.1L117.673 180.715C117.539 180.394 117.301 179.61 117.397 178.525C117.495 177.424 117.885 176.615 118.165 176.194L128.15 182.85L138.135 189.506C141.84 183.949 142.314 177.454 139.827 171.485L128.75 176.1ZM128.15 182.85L117.947 176.534C118.273 176.007 118.941 175.23 120.023 174.647C121.078 174.079 121.96 174 122.3 174V186V198C128.79 198 134.73 195.02 138.353 189.166L128.15 182.85ZM122.3 186V174C122.742 174 123.193 174.062 123.623 174.182C124.048 174.301 124.376 174.456 124.596 174.585L118.55 184.95L112.504 195.315C115.408 197.01 118.729 198 122.3 198V186ZM118.55 184.95L125.206 174.965C125.582 175.216 125.947 175.541 126.262 175.926C126.574 176.307 126.768 176.663 126.88 176.923L115.85 181.65L104.82 186.377C106.283 189.79 108.646 192.769 111.894 194.935L118.55 184.95ZM115.85 181.65L126.964 177.124L88.1138 81.7241L77 86.25L65.8862 90.7759L104.736 186.176L115.85 181.65ZM77 86.25V98.25H81.35V86.25V74.25H77V86.25ZM81.35 86.25L70.2485 81.6942L31.0984 177.094L42.2 181.65L53.3016 186.206L92.4516 90.8058L81.35 86.25ZM42.2 181.65L31.0583 177.193C31.1515 176.96 31.3653 176.517 31.7875 176.001C32.2229 175.469 32.7881 174.973 33.4535 174.585L39.5 184.95L45.5465 195.315C49.4196 193.056 51.9176 189.667 53.3417 186.107L42.2 181.65ZM39.5 184.95L33.4535 174.585C33.7414 174.417 34.0976 174.26 34.5053 174.15C34.9125 174.04 35.2887 174 35.6 174V186V198C39.1073 198 42.4963 197.095 45.5465 195.315L39.5 184.95ZM44.3 159.45L55.1672 164.54L60.7172 152.69L49.85 147.6L38.9828 142.51L33.4328 154.36L44.3 159.45ZM49.85 147.6V159.6H109.4V147.6V135.6H49.85V147.6ZM109.4 147.6L98.4803 152.576L103.88 164.426L114.8 159.45L125.72 154.474L120.32 142.624L109.4 147.6ZM114.8 159.45V147.45H44.3V159.45V171.45H114.8V159.45ZM156.889 181.2L150.639 191.444L156.889 181.2ZM142.939 166.35L132.379 172.049L132.379 172.049L142.939 166.35ZM143.239 123.75L132.892 117.673L132.877 117.699L132.862 117.724L143.239 123.75ZM158.089 108.9L164.115 119.277L164.14 119.263L164.166 119.247L158.089 108.9ZM200.389 108.9L194.24 119.205L194.301 119.241L194.363 119.277L200.389 108.9ZM215.089 123.75L204.67 129.704L204.706 129.766L204.742 129.827L215.089 123.75ZM220.789 145.05L223.699 156.692L232.908 154.39L232.788 144.898L220.789 145.05ZM215.389 146.4L212.479 134.758L203.389 137.031V146.4H215.389ZM210.289 166.95L199.807 161.108L199.807 161.108L210.289 166.95ZM196.489 181.35L190.289 171.076L190.249 171.1L190.21 171.124L196.489 181.35ZM193.639 170.55L199.777 180.862L199.867 180.808L199.955 180.753L193.639 170.55ZM203.539 160.05L193.049 154.222L193.027 154.263L193.004 154.304L203.539 160.05ZM203.539 130.05L192.951 135.697L193.026 135.839L193.106 135.978L203.539 130.05ZM193.639 119.55L187.323 129.753L187.412 129.808L187.501 129.862L193.639 119.55ZM164.989 119.55L171.021 129.924L171.11 129.872L171.198 129.819L164.989 119.55ZM154.789 130.05L144.299 124.222L144.277 124.263L144.254 124.304L154.789 130.05ZM154.789 160.05L144.201 165.697L144.276 165.839L144.356 165.978L154.789 160.05ZM164.989 170.55L158.78 180.819L158.868 180.872L158.958 180.924L164.989 170.55ZM208.789 184.2L200.304 192.685L208.789 184.2ZM206.839 155.25L195.067 152.92L194.839 154.074V155.25H206.839ZM209.689 140.85L213.936 129.627L200.671 124.607L197.917 138.52L209.689 140.85ZM220.789 145.05H232.789V136.76L225.036 133.827L220.789 145.05ZM218.689 184.2L210.524 175.406L210.361 175.558L210.204 175.715L218.689 184.2ZM176.989 186.6V174.6C171.5 174.6 166.998 173.31 163.139 170.956L156.889 181.2L150.639 191.444C158.581 196.29 167.478 198.6 176.989 198.6V186.6ZM156.889 181.2L163.139 170.956C159.12 168.504 155.928 165.151 153.499 160.651L142.939 166.35L132.379 172.049C136.75 180.149 142.858 186.696 150.639 191.444L156.889 181.2ZM142.939 166.35L153.499 160.651C151.139 156.278 149.839 151.17 149.839 145.05H137.839H125.839C125.839 154.73 127.939 163.822 132.379 172.049L142.939 166.35ZM137.839 145.05H149.839C149.839 138.916 151.199 133.94 153.617 129.776L143.239 123.75L132.862 117.724C128.08 125.96 125.839 135.184 125.839 145.05H137.839ZM143.239 123.75L153.586 129.827C156.261 125.273 159.737 121.819 164.115 119.277L158.089 108.9L152.063 98.5225C144.041 103.181 137.617 109.627 132.892 117.673L143.239 123.75ZM158.089 108.9L164.166 119.247C168.499 116.703 173.426 115.35 179.239 115.35V103.35V91.35C169.452 91.35 160.279 93.6971 152.012 98.5526L158.089 108.9ZM179.239 103.35V115.35C185.184 115.35 190.072 116.717 194.24 119.205L200.389 108.9L206.539 98.5954C198.307 93.6828 189.094 91.35 179.239 91.35V103.35ZM200.389 108.9L194.363 119.277C198.712 121.802 202.106 125.216 204.67 129.704L215.089 123.75L225.508 117.796C220.872 109.684 214.466 103.198 206.415 98.5225L200.389 108.9ZM215.089 123.75L204.742 129.827C207.3 134.184 208.714 139.212 208.79 145.202L220.789 145.05L232.788 144.898C232.664 135.088 230.278 125.916 225.436 117.673L215.089 123.75ZM220.789 145.05L217.879 133.408L212.479 134.758L215.389 146.4L218.3 158.042L223.699 156.692L220.789 145.05ZM215.389 146.4H203.389C203.389 152.14 202.125 156.949 199.807 161.108L210.289 166.95L220.771 172.792C225.253 164.751 227.389 155.86 227.389 146.4H215.389ZM210.289 166.95L199.807 161.108C197.392 165.442 194.243 168.689 190.289 171.076L196.489 181.35L202.689 191.624C210.335 187.011 216.387 180.658 220.771 172.792L210.289 166.95ZM196.489 181.35L190.21 171.124C186.57 173.359 182.282 174.6 176.989 174.6V186.6V198.6C186.296 198.6 195.008 196.341 202.768 191.576L196.489 181.35ZM179.239 174.3V186.3C186.567 186.3 193.53 184.58 199.777 180.862L193.639 170.55L187.501 160.238C185.348 161.52 182.711 162.3 179.239 162.3V174.3ZM193.639 170.55L199.955 180.753C205.951 177.042 210.693 171.994 214.074 165.796L203.539 160.05L193.004 154.304C191.585 156.906 189.727 158.858 187.323 160.347L193.639 170.55ZM203.539 160.05L214.029 165.878C217.587 159.473 219.289 152.445 219.289 145.05H207.289H195.289C195.289 148.655 194.491 151.627 193.049 154.222L203.539 160.05ZM207.289 145.05H219.289C219.289 137.598 217.606 130.516 213.973 124.122L203.539 130.05L193.106 135.978C194.472 138.384 195.289 141.302 195.289 145.05H207.289ZM203.539 130.05L214.127 124.403C210.744 118.059 205.942 112.908 199.777 109.238L193.639 119.55L187.501 129.862C189.736 131.192 191.534 133.041 192.951 135.697L203.539 130.05ZM193.639 119.55L199.955 109.347C193.683 105.464 186.655 103.65 179.239 103.65V115.65V127.65C182.623 127.65 185.195 128.436 187.323 129.753L193.639 119.55ZM179.239 115.65V103.65C171.93 103.65 165.02 105.508 158.78 109.281L164.989 119.55L171.198 129.819C173.558 128.392 176.148 127.65 179.239 127.65V115.65ZM164.989 119.55L158.958 109.176C152.722 112.801 147.81 117.902 144.299 124.222L154.789 130.05L165.279 135.878C166.768 133.198 168.656 131.299 171.021 129.924L164.989 119.55ZM154.789 130.05L144.254 124.304C140.784 130.666 139.189 137.682 139.189 145.05H151.189H163.189C163.189 141.218 163.994 138.234 165.324 135.796L154.789 130.05ZM151.189 145.05H139.189C139.189 152.361 140.802 159.324 144.201 165.697L154.789 160.05L165.377 154.403C163.976 151.776 163.189 148.739 163.189 145.05H151.189ZM154.789 160.05L144.356 165.978C147.862 172.149 152.711 177.149 158.78 180.819L164.989 170.55L171.198 160.281C168.667 158.751 166.716 156.751 165.223 154.122L154.789 160.05ZM164.989 170.55L158.958 180.924C165.174 184.538 172.021 186.3 179.239 186.3V174.3V162.3C176.057 162.3 173.404 161.562 171.021 160.176L164.989 170.55ZM213.739 186.15V174.15C214.053 174.15 214.657 174.205 215.4 174.498C216.163 174.798 216.804 175.244 217.274 175.715L208.789 184.2L200.304 192.685C204.063 196.445 208.865 198.15 213.739 198.15V186.15ZM208.789 184.2L217.274 175.715C217.745 176.185 218.191 176.826 218.491 177.589C218.784 178.332 218.839 178.936 218.839 179.25H206.839H194.839C194.839 184.124 196.544 188.926 200.304 192.685L208.789 184.2ZM206.839 179.25H218.839V155.25H206.839H194.839V179.25H206.839ZM206.839 155.25L218.611 157.58L221.461 143.18L209.689 140.85L197.917 138.52L195.067 152.92L206.839 155.25ZM209.689 140.85L205.442 152.073L216.542 156.273L220.789 145.05L225.036 133.827L213.936 129.627L209.689 140.85ZM220.789 145.05H208.789V179.25H220.789H232.789V145.05H220.789ZM220.789 179.25H208.789C208.789 178.826 208.869 178.121 209.217 177.301C209.57 176.468 210.068 175.83 210.524 175.406L218.689 184.2L226.854 192.994C230.826 189.306 232.789 184.411 232.789 179.25H220.789ZM218.689 184.2L210.204 175.715C210.674 175.244 211.315 174.798 212.078 174.498C212.822 174.205 213.425 174.15 213.739 174.15V186.15V198.15C218.614 198.15 223.415 196.445 227.174 192.685L218.689 184.2Z" fill="var(--pageColor)" mask="url(#path-2-outside-1_4253_44)"/>
<path d="M35.6 186C33 186 31.05 184.9 29.75 182.7C28.45 180.5 28.35 178.2 29.45 175.8L72.35 73.65C73.65 70.45 75.85 68.85 78.95 68.85C82.25 68.85 84.5 70.45 85.7 73.65L128.75 176.1C129.75 178.5 129.55 180.75 128.15 182.85C126.85 184.95 124.9 186 122.3 186C121 186 119.75 185.65 118.55 184.95C117.35 184.15 116.45 183.05 115.85 181.65L77 86.25H81.35L42.2 181.65C41.6 183.15 40.7 184.25 39.5 184.95C38.3 185.65 37 186 35.6 186ZM44.3 159.45L49.85 147.6H109.4L114.8 159.45H44.3ZM176.989 186.6C169.489 186.6 162.789 184.8 156.889 181.2C150.989 177.6 146.339 172.65 142.939 166.35C139.539 160.05 137.839 152.95 137.839 145.05C137.839 137.05 139.639 129.95 143.239 123.75C146.939 117.45 151.889 112.5 158.089 108.9C164.389 105.2 171.439 103.35 179.239 103.35C187.139 103.35 194.189 105.2 200.389 108.9C206.589 112.5 211.489 117.45 215.089 123.75C218.789 130.05 220.689 137.15 220.789 145.05L215.389 146.4C215.389 154 213.689 160.85 210.289 166.95C206.889 173.05 202.289 177.85 196.489 181.35C190.789 184.85 184.289 186.6 176.989 186.6ZM179.239 174.3C184.639 174.3 189.439 173.05 193.639 170.55C197.839 167.95 201.139 164.45 203.539 160.05C206.039 155.55 207.289 150.55 207.289 145.05C207.289 139.45 206.039 134.45 203.539 130.05C201.139 125.55 197.839 122.05 193.639 119.55C189.439 116.95 184.639 115.65 179.239 115.65C174.039 115.65 169.289 116.95 164.989 119.55C160.689 122.05 157.289 125.55 154.789 130.05C152.389 134.45 151.189 139.45 151.189 145.05C151.189 150.55 152.389 155.55 154.789 160.05C157.289 164.45 160.689 167.95 164.989 170.55C169.289 173.05 174.039 174.3 179.239 174.3ZM213.739 186.15C211.739 186.15 210.089 185.5 208.789 184.2C207.489 182.9 206.839 181.25 206.839 179.25V155.25L209.689 140.85L220.789 145.05V179.25C220.789 181.25 220.089 182.9 218.689 184.2C217.389 185.5 215.739 186.15 213.739 186.15Z" fill="var(--darkGray)"/>
</g>
</svg>
