<svg viewBox="0 0 963 230" fill="none" xmlns="http://www.w3.org/2000/svg">
<path d="M70.1 167.5V62.5H86.15L132.05 139.15H123.65L168.8 62.5H184.85L185 167.5H166.55L166.4 91.45H170.3L131.9 155.5H123.2L84.2 91.45H88.7V167.5H70.1ZM247.562 168.55C239.362 168.55 232.062 166.8 225.662 163.3C219.262 159.7 214.212 154.8 210.512 148.6C206.812 142.4 204.962 135.35 204.962 127.45C204.962 119.45 206.812 112.4 210.512 106.3C214.212 100.1 219.262 95.25 225.662 91.75C232.062 88.25 239.362 86.5 247.562 86.5C255.862 86.5 263.212 88.25 269.612 91.75C276.112 95.25 281.162 100.05 284.762 106.15C288.462 112.25 290.312 119.35 290.312 127.45C290.312 135.35 288.462 142.4 284.762 148.6C281.162 154.8 276.112 159.7 269.612 163.3C263.212 166.8 255.862 168.55 247.562 168.55ZM247.562 152.5C252.162 152.5 256.262 151.5 259.862 149.5C263.462 147.5 266.262 144.6 268.262 140.8C270.362 137 271.412 132.55 271.412 127.45C271.412 122.25 270.362 117.8 268.262 114.1C266.262 110.3 263.462 107.4 259.862 105.4C256.262 103.4 252.212 102.4 247.712 102.4C243.112 102.4 239.012 103.4 235.412 105.4C231.912 107.4 229.112 110.3 227.012 114.1C224.912 117.8 223.862 122.25 223.862 127.45C223.862 132.55 224.912 137 227.012 140.8C229.112 144.6 231.912 147.5 235.412 149.5C239.012 151.5 243.062 152.5 247.562 152.5ZM353.691 86.5C360.091 86.5 365.791 87.75 370.791 90.25C375.891 92.75 379.891 96.6 382.791 101.8C385.691 106.9 387.141 113.5 387.141 121.6V167.5H368.391V124C368.391 116.9 366.691 111.6 363.291 108.1C359.991 104.6 355.341 102.85 349.341 102.85C344.941 102.85 341.041 103.75 337.641 105.55C334.241 107.35 331.591 110.05 329.691 113.65C327.891 117.15 326.991 121.6 326.991 127V167.5H308.241V87.4H326.091V109L322.941 102.4C325.741 97.3 329.791 93.4 335.091 90.7C340.491 87.9 346.691 86.5 353.691 86.5ZM441.077 168.55C432.277 168.55 425.477 166.3 420.677 161.8C415.877 157.2 413.477 150.45 413.477 141.55V69.7H432.227V141.1C432.227 144.9 433.177 147.85 435.077 149.95C437.077 152.05 439.827 153.1 443.327 153.1C447.527 153.1 451.027 152 453.827 149.8L459.077 163.15C456.877 164.95 454.177 166.3 450.977 167.2C447.777 168.1 444.477 168.55 441.077 168.55ZM400.277 103V88H453.677V103H400.277ZM499.251 168.55C492.551 168.55 486.101 167.7 479.901 166C473.801 164.2 468.951 162.05 465.351 159.55L472.551 145.3C476.151 147.6 480.451 149.5 485.451 151C490.451 152.5 495.451 153.25 500.451 153.25C506.351 153.25 510.601 152.45 513.201 150.85C515.901 149.25 517.251 147.1 517.251 144.4C517.251 142.2 516.351 140.55 514.551 139.45C512.751 138.25 510.401 137.35 507.501 136.75C504.601 136.15 501.351 135.6 497.751 135.1C494.251 134.6 490.701 133.95 487.101 133.15C483.601 132.25 480.401 131 477.501 129.4C474.601 127.7 472.251 125.45 470.451 122.65C468.651 119.85 467.751 116.15 467.751 111.55C467.751 106.45 469.201 102.05 472.101 98.35C475.001 94.55 479.051 91.65 484.251 89.65C489.551 87.55 495.801 86.5 503.001 86.5C508.401 86.5 513.851 87.1 519.351 88.3C524.851 89.5 529.401 91.2 533.001 93.4L525.801 107.65C522.001 105.35 518.151 103.8 514.251 103C510.451 102.1 506.651 101.65 502.851 101.65C497.151 101.65 492.901 102.5 490.101 104.2C487.401 105.9 486.051 108.05 486.051 110.65C486.051 113.05 486.951 114.85 488.751 116.05C490.551 117.25 492.901 118.2 495.801 118.9C498.701 119.6 501.901 120.2 505.401 120.7C509.001 121.1 512.551 121.75 516.051 122.65C519.551 123.55 522.751 124.8 525.651 126.4C528.651 127.9 531.051 130.05 532.851 132.85C534.651 135.65 535.551 139.3 535.551 143.8C535.551 148.8 534.051 153.15 531.051 156.85C528.151 160.55 524.001 163.45 518.601 165.55C513.201 167.55 506.751 168.55 499.251 168.55ZM589.348 168.55C580.448 168.55 572.648 166.8 565.948 163.3C559.348 159.7 554.198 154.8 550.498 148.6C546.898 142.4 545.098 135.35 545.098 127.45C545.098 119.45 546.848 112.4 550.348 106.3C553.948 100.1 558.848 95.25 565.048 91.75C571.348 88.25 578.498 86.5 586.498 86.5C594.298 86.5 601.248 88.2 607.348 91.6C613.448 95 618.248 99.8 621.748 106C625.248 112.2 626.998 119.5 626.998 127.9C626.998 128.7 626.948 129.6 626.848 130.6C626.848 131.6 626.798 132.55 626.698 133.45H559.948V121H616.798L609.448 124.9C609.548 120.3 608.598 116.25 606.598 112.75C604.598 109.25 601.848 106.5 598.348 104.5C594.948 102.5 590.998 101.5 586.498 101.5C581.898 101.5 577.848 102.5 574.348 104.5C570.948 106.5 568.248 109.3 566.248 112.9C564.348 116.4 563.398 120.55 563.398 125.35V128.35C563.398 133.15 564.498 137.4 566.698 141.1C568.898 144.8 571.998 147.65 575.998 149.65C579.998 151.65 584.598 152.65 589.798 152.65C594.298 152.65 598.348 151.95 601.948 150.55C605.548 149.15 608.748 146.95 611.548 143.95L621.598 155.5C617.998 159.7 613.448 162.95 607.948 165.25C602.548 167.45 596.348 168.55 589.348 168.55ZM645.009 167.5V87.4H662.859V109.45L660.759 103C663.159 97.6 666.909 93.5 672.009 90.7C677.209 87.9 683.659 86.5 691.359 86.5V104.35C690.559 104.15 689.809 104.05 689.109 104.05C688.409 103.95 687.709 103.9 687.009 103.9C679.909 103.9 674.259 106 670.059 110.2C665.859 114.3 663.759 120.45 663.759 128.65V167.5H645.009ZM707.265 167.5V87.4H725.115V109.45L723.015 103C725.415 97.6 729.165 93.5 734.265 90.7C739.465 87.9 745.915 86.5 753.615 86.5V104.35C752.815 104.15 752.065 104.05 751.365 104.05C750.665 103.95 749.965 103.9 749.265 103.9C742.165 103.9 736.515 106 732.315 110.2C728.115 114.3 726.015 120.45 726.015 128.65V167.5H707.265ZM813.158 167.5V151.3L812.108 147.85V119.5C812.108 114 810.458 109.75 807.158 106.75C803.858 103.65 798.858 102.1 792.158 102.1C787.658 102.1 783.208 102.8 778.808 104.2C774.508 105.6 770.858 107.55 767.858 110.05L760.508 96.4C764.808 93.1 769.908 90.65 775.808 89.05C781.808 87.35 788.008 86.5 794.408 86.5C806.008 86.5 814.958 89.3 821.258 94.9C827.658 100.4 830.858 108.95 830.858 120.55V167.5H813.158ZM787.958 168.55C781.958 168.55 776.708 167.55 772.208 165.55C767.708 163.45 764.208 160.6 761.708 157C759.308 153.3 758.108 149.15 758.108 144.55C758.108 140.05 759.158 136 761.258 132.4C763.458 128.8 767.008 125.95 771.908 123.85C776.808 121.75 783.308 120.7 791.408 120.7H814.658V133.15H792.758C786.358 133.15 782.058 134.2 779.858 136.3C777.658 138.3 776.558 140.8 776.558 143.8C776.558 147.2 777.908 149.9 780.608 151.9C783.308 153.9 787.058 154.9 791.858 154.9C796.458 154.9 800.558 153.85 804.158 151.75C807.858 149.65 810.508 146.55 812.108 142.45L815.258 153.7C813.458 158.4 810.208 162.05 805.508 164.65C800.908 167.25 795.058 168.55 787.958 168.55ZM885.071 168.55C876.271 168.55 869.471 166.3 864.671 161.8C859.871 157.2 857.471 150.45 857.471 141.55V69.7H876.221V141.1C876.221 144.9 877.171 147.85 879.071 149.95C881.071 152.05 883.821 153.1 887.321 153.1C891.521 153.1 895.021 152 897.821 149.8L903.071 163.15C900.871 164.95 898.171 166.3 894.971 167.2C891.771 168.1 888.471 168.55 885.071 168.55ZM844.271 103V88H897.671V103H844.271Z" fill="var(--darkGray)"/>
</svg>
