<svg viewBox="0 0 256 256" fill="none" xmlns="http://www.w3.org/2000/svg">
<mask id="mask0_4249_3" style="mask-type:alpha" maskUnits="userSpaceOnUse" x="0" y="0" width="256" height="256">
<rect width="256" height="256" fill="var(--gray)"/>
</mask>
<g mask="url(#mask0_4249_3)">
<mask id="path-2-outside-1_4249_3" maskUnits="userSpaceOnUse" x="6" y="54" width="242" height="146" fill="black">
<rect fill="var(--pageColor)" x="6" y="54" width="242" height="146"/>
<path d="M44.85 178.7C43.95 181.7 42.3 183.85 39.9 185.15C37.6 186.55 34.05 187.25 29.25 187.25C25.25 187.25 22.45 186.45 20.85 184.85C19.25 183.25 18.45 181.55 18.45 179.75C18.45 177.85 18.75 175.95 19.35 174.05C19.95 172.15 20.6 170.25 21.3 168.35C24.7 159.65 28.1 151.25 31.5 143.15C35 135.05 38.45 127.25 41.85 119.75C45.35 112.15 48.8 104.8 52.2 97.7C55.6 90.6 59 83.75 62.4 77.15C64.2 73.45 66.35 70.8 68.85 69.2C71.45 67.5 74.45 66.65 77.85 66.65C82.15 66.65 85.8 67.5 88.8 69.2C91.8 70.9 93.8 73.15 94.8 75.95C95.2 76.75 96.05 79.2 97.35 83.3C98.75 87.3 100.5 92.4 102.6 98.6C104.7 104.7 106.95 111.3 109.35 118.4C111.85 125.5 114.4 132.55 117 139.55C119.6 146.45 122.05 152.8 124.35 158.6C126.75 164.4 128.8 168.95 130.5 172.25C131.1 173.25 131.6 174.45 132 175.85C132.5 177.15 132.75 178.2 132.75 179C132.75 181.2 131.55 183.2 129.15 185C126.85 186.9 123.7 187.85 119.7 187.85C117 187.85 114.55 187.5 112.35 186.8C110.25 186.2 108.55 184.6 107.25 182C104.15 175.8 101.25 168.8 98.55 161C95.85 153.2 93.3 145.25 90.9 137.15C88.6 128.95 86.3 121.15 84 113.75C81.8 106.35 79.65 99.9 77.55 94.4C72.65 104.9 68.25 115.15 64.35 125.15C60.45 135.05 56.9 144.5 53.7 153.5C50.6 162.5 47.65 170.9 44.85 178.7ZM42.75 144.95C42.75 142.55 43.4 140.6 44.7 139.1C46.1 137.6 47.65 136.5 49.35 135.8C51.05 135 52.45 134.5 53.55 134.3C55.75 133.8 58.35 133.35 61.35 132.95C64.45 132.45 68.15 132.2 72.45 132.2C76.85 132.1 82.05 132.4 88.05 133.1C88.95 133.2 90.6 133.2 93 133.1C95.5 132.9 98.2 132.7 101.1 132.5C104.1 132.2 106.85 131.9 109.35 131.6C111.95 131.3 113.8 131.1 114.9 131C117.7 130.7 119.95 131.35 121.65 132.95C123.45 134.45 124.35 136.75 124.35 139.85C124.35 142.65 123.35 145 121.35 146.9C119.35 148.8 116.75 150.35 113.55 151.55C110.45 152.65 107.25 153.45 103.95 153.95C100.75 154.35 97.9 154.55 95.4 154.55C89.7 154.55 84.4 154.55 79.5 154.55C74.7 154.45 69.95 154.55 65.25 154.85C60.55 155.05 55.4 155.5 49.8 156.2C48.3 156.3 46.75 155.2 45.15 152.9C43.55 150.5 42.75 147.85 42.75 144.95ZM141.316 149.9C141.316 143.8 142.216 137.9 144.016 132.2C145.816 126.5 148.366 121.4 151.666 116.9C155.066 112.4 159.166 108.85 163.966 106.25C168.866 103.55 174.416 102.2 180.616 102.2C184.516 102.2 187.916 102.85 190.816 104.15C193.816 105.35 196.466 107.1 198.766 109.4C199.266 107.2 200.116 105.4 201.316 104C202.516 102.6 204.666 101.9 207.766 101.9C211.366 101.9 214.516 102.8 217.216 104.6C219.916 106.3 221.216 108.5 221.116 111.2C221.016 113.9 220.566 117.6 219.766 122.3C218.966 126.9 218.266 131.45 217.666 135.95C217.466 137.35 217.166 139.15 216.766 141.35C216.466 143.55 216.166 145.75 215.866 147.95C215.666 150.05 215.516 151.85 215.416 153.35C215.316 154.85 215.266 156.75 215.266 159.05C215.266 161.25 215.566 163.2 216.166 164.9C216.766 166.6 217.766 167.45 219.166 167.45C219.966 167.45 220.666 167.25 221.266 166.85C221.866 166.45 222.466 165.9 223.066 165.2C224.066 164.5 224.916 163.95 225.616 163.55C226.416 163.05 227.416 162.8 228.616 162.8C230.016 162.8 231.266 163.3 232.366 164.3C233.566 165.2 234.466 166.45 235.066 168.05C235.766 169.65 235.816 171.45 235.216 173.45C234.816 175.35 233.516 177.3 231.316 179.3C229.116 181.3 226.516 183 223.516 184.4C220.616 185.7 217.716 186.35 214.816 186.35C211.916 186.35 209.266 185.75 206.866 184.55C204.466 183.25 202.416 181.55 200.716 179.45C199.116 177.25 198.016 174.7 197.416 171.8C194.816 175.7 191.366 178.95 187.066 181.55C182.866 184.15 178.116 185.45 172.816 185.45C166.216 185.45 160.566 183.9 155.866 180.8C151.166 177.7 147.566 173.5 145.066 168.2C142.566 162.8 141.316 156.7 141.316 149.9ZM166.666 148.85C166.666 152.05 167.016 154.95 167.716 157.55C168.416 160.05 169.466 162.05 170.866 163.55C172.366 165.05 174.316 165.8 176.716 165.8C178.716 165.8 180.466 165.35 181.966 164.45C183.466 163.45 184.816 162.15 186.016 160.55C187.216 158.85 188.166 156.9 188.866 154.7C189.666 152.4 190.366 150 190.966 147.5C191.566 145 192.066 142.45 192.466 139.85C192.866 137.25 193.216 134.7 193.516 132.2C193.816 129.7 194.066 127.25 194.266 124.85C192.866 123.55 191.266 122.55 189.466 121.85C187.666 121.05 185.766 120.65 183.766 120.65C181.066 120.65 178.666 121.4 176.566 122.9C174.466 124.3 172.666 126.3 171.166 128.9C169.666 131.5 168.516 134.5 167.716 137.9C167.016 141.3 166.666 144.95 166.666 148.85Z"/>
</mask>
<path d="M44.85 178.7C43.95 181.7 42.3 183.85 39.9 185.15C37.6 186.55 34.05 187.25 29.25 187.25C25.25 187.25 22.45 186.45 20.85 184.85C19.25 183.25 18.45 181.55 18.45 179.75C18.45 177.85 18.75 175.95 19.35 174.05C19.95 172.15 20.6 170.25 21.3 168.35C24.7 159.65 28.1 151.25 31.5 143.15C35 135.05 38.45 127.25 41.85 119.75C45.35 112.15 48.8 104.8 52.2 97.7C55.6 90.6 59 83.75 62.4 77.15C64.2 73.45 66.35 70.8 68.85 69.2C71.45 67.5 74.45 66.65 77.85 66.65C82.15 66.65 85.8 67.5 88.8 69.2C91.8 70.9 93.8 73.15 94.8 75.95C95.2 76.75 96.05 79.2 97.35 83.3C98.75 87.3 100.5 92.4 102.6 98.6C104.7 104.7 106.95 111.3 109.35 118.4C111.85 125.5 114.4 132.55 117 139.55C119.6 146.45 122.05 152.8 124.35 158.6C126.75 164.4 128.8 168.95 130.5 172.25C131.1 173.25 131.6 174.45 132 175.85C132.5 177.15 132.75 178.2 132.75 179C132.75 181.2 131.55 183.2 129.15 185C126.85 186.9 123.7 187.85 119.7 187.85C117 187.85 114.55 187.5 112.35 186.8C110.25 186.2 108.55 184.6 107.25 182C104.15 175.8 101.25 168.8 98.55 161C95.85 153.2 93.3 145.25 90.9 137.15C88.6 128.95 86.3 121.15 84 113.75C81.8 106.35 79.65 99.9 77.55 94.4C72.65 104.9 68.25 115.15 64.35 125.15C60.45 135.05 56.9 144.5 53.7 153.5C50.6 162.5 47.65 170.9 44.85 178.7ZM42.75 144.95C42.75 142.55 43.4 140.6 44.7 139.1C46.1 137.6 47.65 136.5 49.35 135.8C51.05 135 52.45 134.5 53.55 134.3C55.75 133.8 58.35 133.35 61.35 132.95C64.45 132.45 68.15 132.2 72.45 132.2C76.85 132.1 82.05 132.4 88.05 133.1C88.95 133.2 90.6 133.2 93 133.1C95.5 132.9 98.2 132.7 101.1 132.5C104.1 132.2 106.85 131.9 109.35 131.6C111.95 131.3 113.8 131.1 114.9 131C117.7 130.7 119.95 131.35 121.65 132.95C123.45 134.45 124.35 136.75 124.35 139.85C124.35 142.65 123.35 145 121.35 146.9C119.35 148.8 116.75 150.35 113.55 151.55C110.45 152.65 107.25 153.45 103.95 153.95C100.75 154.35 97.9 154.55 95.4 154.55C89.7 154.55 84.4 154.55 79.5 154.55C74.7 154.45 69.95 154.55 65.25 154.85C60.55 155.05 55.4 155.5 49.8 156.2C48.3 156.3 46.75 155.2 45.15 152.9C43.55 150.5 42.75 147.85 42.75 144.95ZM141.316 149.9C141.316 143.8 142.216 137.9 144.016 132.2C145.816 126.5 148.366 121.4 151.666 116.9C155.066 112.4 159.166 108.85 163.966 106.25C168.866 103.55 174.416 102.2 180.616 102.2C184.516 102.2 187.916 102.85 190.816 104.15C193.816 105.35 196.466 107.1 198.766 109.4C199.266 107.2 200.116 105.4 201.316 104C202.516 102.6 204.666 101.9 207.766 101.9C211.366 101.9 214.516 102.8 217.216 104.6C219.916 106.3 221.216 108.5 221.116 111.2C221.016 113.9 220.566 117.6 219.766 122.3C218.966 126.9 218.266 131.45 217.666 135.95C217.466 137.35 217.166 139.15 216.766 141.35C216.466 143.55 216.166 145.75 215.866 147.95C215.666 150.05 215.516 151.85 215.416 153.35C215.316 154.85 215.266 156.75 215.266 159.05C215.266 161.25 215.566 163.2 216.166 164.9C216.766 166.6 217.766 167.45 219.166 167.45C219.966 167.45 220.666 167.25 221.266 166.85C221.866 166.45 222.466 165.9 223.066 165.2C224.066 164.5 224.916 163.95 225.616 163.55C226.416 163.05 227.416 162.8 228.616 162.8C230.016 162.8 231.266 163.3 232.366 164.3C233.566 165.2 234.466 166.45 235.066 168.05C235.766 169.65 235.816 171.45 235.216 173.45C234.816 175.35 233.516 177.3 231.316 179.3C229.116 181.3 226.516 183 223.516 184.4C220.616 185.7 217.716 186.35 214.816 186.35C211.916 186.35 209.266 185.75 206.866 184.55C204.466 183.25 202.416 181.55 200.716 179.45C199.116 177.25 198.016 174.7 197.416 171.8C194.816 175.7 191.366 178.95 187.066 181.55C182.866 184.15 178.116 185.45 172.816 185.45C166.216 185.45 160.566 183.9 155.866 180.8C151.166 177.7 147.566 173.5 145.066 168.2C142.566 162.8 141.316 156.7 141.316 149.9ZM166.666 148.85C166.666 152.05 167.016 154.95 167.716 157.55C168.416 160.05 169.466 162.05 170.866 163.55C172.366 165.05 174.316 165.8 176.716 165.8C178.716 165.8 180.466 165.35 181.966 164.45C183.466 163.45 184.816 162.15 186.016 160.55C187.216 158.85 188.166 156.9 188.866 154.7C189.666 152.4 190.366 150 190.966 147.5C191.566 145 192.066 142.45 192.466 139.85C192.866 137.25 193.216 134.7 193.516 132.2C193.816 129.7 194.066 127.25 194.266 124.85C192.866 123.55 191.266 122.55 189.466 121.85C187.666 121.05 185.766 120.65 183.766 120.65C181.066 120.65 178.666 121.4 176.566 122.9C174.466 124.3 172.666 126.3 171.166 128.9C169.666 131.5 168.516 134.5 167.716 137.9C167.016 141.3 166.666 144.95 166.666 148.85Z" fill="var(--pageColor)"/>
<path d="M44.85 178.7L33.5557 174.646L33.4478 174.946L33.3561 175.252L44.85 178.7ZM39.9 185.15L34.1846 174.598L33.9188 174.742L33.6606 174.9L39.9 185.15ZM20.85 184.85L29.3353 176.365L29.3353 176.365L20.85 184.85ZM19.35 174.05L7.90701 170.436L7.90701 170.436L19.35 174.05ZM21.3 168.35L10.1232 163.982L10.0805 164.091L10.0399 164.202L21.3 168.35ZM31.5 143.15L20.4844 138.39L20.4595 138.448L20.4352 138.506L31.5 143.15ZM41.85 119.75L30.9503 114.73L30.9354 114.763L30.9206 114.795L41.85 119.75ZM52.2 97.7L63.023 102.883L63.023 102.883L52.2 97.7ZM62.4 77.15L73.0677 82.6455L73.1307 82.5232L73.1908 82.3996L62.4 77.15ZM68.85 69.2L75.3186 79.3073L75.368 79.2757L75.417 79.2436L68.85 69.2ZM88.8 69.2L82.8838 79.6403L82.8839 79.6403L88.8 69.2ZM94.8 75.95L83.4991 79.986L83.7428 80.6684L84.0669 81.3166L94.8 75.95ZM97.35 83.3L85.9112 86.9269L85.965 87.0964L86.0237 87.2642L97.35 83.3ZM102.6 98.6L91.2343 102.45L91.2438 102.478L91.2536 102.506L102.6 98.6ZM109.35 118.4L97.9819 122.243L98.0061 122.314L98.0312 122.385L109.35 118.4ZM117 139.55L105.751 143.728L105.761 143.755L105.771 143.781L117 139.55ZM124.35 158.6L113.195 163.024L113.228 163.106L113.262 163.188L124.35 158.6ZM130.5 172.25L119.832 177.745L120.01 178.091L120.21 178.424L130.5 172.25ZM132 175.85L120.462 179.147L120.608 179.66L120.8 180.158L132 175.85ZM129.15 185L121.95 175.4L121.725 175.569L121.507 175.748L129.15 185ZM112.35 186.8L115.988 175.365L115.818 175.311L115.647 175.262L112.35 186.8ZM107.25 182L96.5169 187.367L96.5169 187.367L107.25 182ZM98.55 161L87.2102 164.925L87.2102 164.925L98.55 161ZM90.9 137.15L79.3459 140.391L79.3696 140.475L79.3944 140.559L90.9 137.15ZM84 113.75L72.4976 117.17L72.5187 117.241L72.5407 117.312L84 113.75ZM77.55 94.4L88.7606 90.1196L78.6557 63.6542L66.6758 89.3254L77.55 94.4ZM64.35 125.15L75.5149 129.548L75.5224 129.529L75.5299 129.51L64.35 125.15ZM53.7 153.5L42.3934 149.48L42.3735 149.536L42.3542 149.592L53.7 153.5ZM44.7 139.1L35.9273 130.912L35.7765 131.074L35.6317 131.241L44.7 139.1ZM49.35 135.8L53.919 146.896L54.1922 146.784L54.4596 146.658L49.35 135.8ZM53.55 134.3L55.6966 146.106L55.9542 146.06L56.2095 146.002L53.55 134.3ZM61.35 132.95L62.936 144.845L63.0987 144.823L63.2608 144.797L61.35 132.95ZM72.45 132.2V144.2H72.5863L72.7227 144.197L72.45 132.2ZM88.05 133.1L86.6594 145.019L86.6921 145.023L86.7248 145.027L88.05 133.1ZM93 133.1L93.4996 145.09L93.7285 145.08L93.9569 145.062L93 133.1ZM101.1 132.5L101.926 144.472L102.11 144.459L102.294 144.44L101.1 132.5ZM109.35 131.6L107.975 119.679L107.947 119.682L107.92 119.685L109.35 131.6ZM114.9 131L115.986 142.951L116.082 142.942L116.178 142.932L114.9 131ZM121.65 132.95L113.426 141.688L113.689 141.937L113.968 142.169L121.65 132.95ZM121.35 146.9L113.085 138.2L113.085 138.2L121.35 146.9ZM113.55 151.55L117.563 162.859L117.664 162.823L117.763 162.786L113.55 151.55ZM103.95 153.95L105.438 165.857L105.593 165.838L105.748 165.815L103.95 153.95ZM79.5 154.55L79.2501 166.547L79.375 166.55H79.5V154.55ZM65.25 154.85L65.7602 166.839L65.8874 166.834L66.0144 166.826L65.25 154.85ZM49.8 156.2L50.5982 168.173L50.9443 168.15L51.2884 168.107L49.8 156.2ZM45.15 152.9L35.1654 159.556L35.2313 159.655L35.2991 159.753L45.15 152.9ZM44.85 178.7L33.3561 175.252C33.2604 175.571 33.2295 175.502 33.4178 175.257C33.5091 175.138 33.63 175.007 33.7778 174.881C33.9254 174.755 34.0676 174.662 34.1846 174.598L39.9 185.15L45.6154 195.702C51.2213 192.665 54.6782 187.701 56.3439 182.148L44.85 178.7ZM39.9 185.15L33.6606 174.9C34.0524 174.661 34.0271 174.787 33.191 174.952C32.3816 175.111 31.1064 175.25 29.25 175.25V187.25V199.25C34.7609 199.25 41 198.529 46.1394 195.4L39.9 185.15ZM29.25 187.25V175.25C28.6428 175.25 28.1921 175.219 27.8771 175.182C27.5597 175.145 27.4298 175.107 27.4467 175.112C27.4587 175.115 28.3373 175.367 29.3353 176.365L20.85 184.85L12.3647 193.335C17.4198 198.39 24.3176 199.25 29.25 199.25V187.25ZM20.85 184.85L29.3353 176.365C29.3207 176.35 29.6111 176.635 29.9078 177.265C30.2262 177.942 30.45 178.806 30.45 179.75H18.45H6.45C6.45 185.502 9.12423 190.095 12.3647 193.335L20.85 184.85ZM18.45 179.75H30.45C30.45 179.134 30.5441 178.452 30.793 177.664L19.35 174.05L7.90701 170.436C6.95592 173.448 6.45 176.566 6.45 179.75H18.45ZM19.35 174.05L30.793 177.664C31.3353 175.946 31.9242 174.224 32.5601 172.498L21.3 168.35L10.0399 164.202C9.27579 166.276 8.56467 168.354 7.90701 170.436L19.35 174.05ZM21.3 168.35L32.4768 172.718C35.8429 164.105 39.2056 155.797 42.5648 147.794L31.5 143.15L20.4352 138.506C16.9944 146.703 13.5571 155.195 10.1232 163.982L21.3 168.35ZM31.5 143.15L42.5156 147.91C45.9894 139.87 49.4107 132.136 52.7794 124.705L41.85 119.75L30.9206 114.795C27.4893 122.364 24.0106 130.23 20.4844 138.39L31.5 143.15ZM41.85 119.75L52.7497 124.77C56.2261 117.221 59.6506 109.925 63.023 102.883L52.2 97.7L41.377 92.5171C37.9494 99.6746 34.4739 107.079 30.9503 114.73L41.85 119.75ZM52.2 97.7L63.023 102.883C66.3758 95.8816 69.7241 89.1361 73.0677 82.6455L62.4 77.15L51.7323 71.6545C48.2759 78.3639 44.8242 85.3184 41.377 92.5171L52.2 97.7ZM62.4 77.15L73.1908 82.3996C74.3823 79.9505 75.2645 79.3419 75.3186 79.3073L68.85 69.2L62.3814 59.0927C57.4355 62.2581 54.0177 66.9495 51.6092 71.9004L62.4 77.15ZM68.85 69.2L75.417 79.2436C75.8811 78.9402 76.5532 78.65 77.85 78.65V66.65V54.65C72.3468 54.65 67.0189 56.0598 62.283 59.1564L68.85 69.2ZM77.85 66.65V78.65C80.582 78.65 82.0822 79.186 82.8838 79.6403L88.8 69.2L94.7162 58.7597C89.5178 55.814 83.718 54.65 77.85 54.65V66.65ZM88.8 69.2L82.8839 79.6403C83.4017 79.9337 83.5733 80.1261 83.5811 80.1349C83.5869 80.1414 83.57 80.1229 83.5456 80.0819C83.5212 80.0407 83.5058 80.0047 83.4991 79.986L94.8 75.95L106.101 71.914C103.98 65.9765 99.7977 61.6393 94.7161 58.7597L88.8 69.2ZM94.8 75.95L84.0669 81.3166C83.901 80.9849 83.8631 80.8521 83.9842 81.1671C84.0758 81.4053 84.2127 81.7796 84.4004 82.3208C84.7748 83.4 85.2756 84.9224 85.9112 86.9269L97.35 83.3L108.789 79.6731C107.63 76.0192 106.461 72.4399 105.533 70.5834L94.8 75.95ZM97.35 83.3L86.0237 87.2642C87.4053 91.2115 89.1411 96.2698 91.2343 102.45L102.6 98.6L113.966 94.7503C111.859 88.5302 110.095 83.3885 108.676 79.3358L97.35 83.3ZM102.6 98.6L91.2536 102.506C93.3452 108.582 95.588 115.161 97.9819 122.243L109.35 118.4L120.718 114.557C118.312 107.439 116.055 100.818 113.946 94.6938L102.6 98.6ZM109.35 118.4L98.0312 122.385C100.554 129.549 103.127 136.664 105.751 143.728L117 139.55L128.249 135.372C125.673 128.436 123.146 121.451 120.669 114.414L109.35 118.4ZM117 139.55L105.771 143.781C108.391 150.734 110.866 157.149 113.195 163.024L124.35 158.6L135.505 154.176C133.234 148.451 130.809 142.166 128.229 135.319L117 139.55ZM124.35 158.6L113.262 163.188C115.715 169.118 117.911 174.016 119.832 177.745L130.5 172.25L141.168 166.755C139.689 163.884 137.785 159.682 135.438 154.012L124.35 158.6ZM130.5 172.25L120.21 178.424C120.156 178.333 120.282 178.518 120.462 179.147L132 175.85L143.538 172.553C142.918 170.382 142.044 168.167 140.79 166.076L130.5 172.25ZM132 175.85L120.8 180.158C120.91 180.444 120.917 180.51 120.889 180.392C120.873 180.326 120.841 180.178 120.811 179.96C120.782 179.744 120.75 179.417 120.75 179H132.75H144.75C144.75 176.022 143.896 173.353 143.2 171.542L132 175.85ZM132.75 179H120.75C120.75 177.793 121.111 176.724 121.56 175.976C121.952 175.324 122.248 175.177 121.95 175.4L129.15 185L136.35 194.6C140.59 191.42 144.75 186.244 144.75 179H132.75ZM129.15 185L121.507 175.748C121.708 175.582 121.803 175.587 121.598 175.649C121.358 175.721 120.77 175.85 119.7 175.85V187.85V199.85C125.536 199.85 131.706 198.453 136.793 194.252L129.15 185ZM119.7 187.85V175.85C118.031 175.85 116.832 175.633 115.988 175.365L112.35 186.8L108.712 198.235C112.268 199.367 115.969 199.85 119.7 199.85V187.85ZM112.35 186.8L115.647 175.262C116.565 175.524 117.278 175.991 117.724 176.412C118.12 176.784 118.151 176.968 117.983 176.633L107.25 182L96.5169 187.367C98.7993 191.931 102.746 196.536 109.053 198.338L112.35 186.8ZM107.25 182L117.983 176.633C115.155 170.978 112.45 164.471 109.89 157.075L98.55 161L87.2102 164.925C90.0497 173.129 93.1445 180.622 96.5169 187.367L107.25 182ZM98.55 161L109.89 157.075C107.25 149.449 104.755 141.672 102.406 133.741L90.9 137.15L79.3944 140.559C81.8446 148.828 84.4497 156.951 87.2102 164.925L98.55 161ZM90.9 137.15L102.454 133.909C100.127 125.612 97.7954 117.705 95.4593 110.188L84 113.75L72.5407 117.312C74.8046 124.595 77.0731 132.288 79.3459 140.391L90.9 137.15ZM84 113.75L95.5024 110.33C93.2409 102.723 90.9959 95.9739 88.7606 90.1196L77.55 94.4L66.3394 98.6804C68.3041 103.826 70.3591 109.977 72.4976 117.17L84 113.75ZM77.55 94.4L66.6758 89.3254C61.6748 100.042 57.1714 110.53 53.1701 120.79L64.35 125.15L75.5299 129.51C79.3286 119.77 83.6252 109.758 88.4242 99.4746L77.55 94.4ZM64.35 125.15L53.1851 120.752C49.2412 130.763 45.6433 140.34 42.3934 149.48L53.7 153.5L65.0066 157.52C68.1567 148.66 71.6588 139.337 75.5149 129.548L64.35 125.15ZM53.7 153.5L42.3542 149.592C39.2686 158.55 36.3359 166.901 33.5557 174.646L44.85 178.7L56.1443 182.754C58.9641 174.899 61.9314 166.45 65.0458 157.408L53.7 153.5ZM42.75 144.95H54.75C54.75 144.829 54.7664 145.048 54.6217 145.482C54.4669 145.947 54.1861 146.477 53.7683 146.959L44.7 139.1L35.6317 131.241C32.0649 135.356 30.75 140.294 30.75 144.95H42.75ZM44.7 139.1L53.4727 147.288C53.6625 147.084 53.7942 146.981 53.8575 146.936C53.9176 146.893 53.9359 146.889 53.919 146.896L49.35 135.8L44.781 124.704C41.3111 126.133 38.3662 128.299 35.9273 130.912L44.7 139.1ZM49.35 135.8L54.4596 146.658C55.0457 146.382 55.456 146.217 55.711 146.126C55.9833 146.029 55.959 146.059 55.6966 146.106L53.55 134.3L51.4034 122.494C48.819 122.963 46.337 123.956 44.2404 124.942L49.35 135.8ZM53.55 134.3L56.2095 146.002C57.9587 145.604 60.1835 145.212 62.936 144.845L61.35 132.95L59.764 121.055C56.5165 121.488 53.5413 121.996 50.8906 122.598L53.55 134.3ZM61.35 132.95L63.2608 144.797C65.5465 144.428 68.5739 144.2 72.45 144.2V132.2V120.2C67.7261 120.2 63.3535 120.472 59.4392 121.103L61.35 132.95ZM72.45 132.2L72.7227 144.197C76.4058 144.113 81.0238 144.362 86.6594 145.019L88.05 133.1L89.4406 121.181C83.0762 120.438 77.2942 120.087 72.1773 120.203L72.45 132.2ZM88.05 133.1L86.7248 145.027C88.6564 145.241 91.1688 145.187 93.4996 145.09L93 133.1L92.5004 121.11C91.3993 121.156 90.5648 121.175 89.9625 121.175C89.2841 121.175 89.1656 121.15 89.3752 121.173L88.05 133.1ZM93 133.1L93.9569 145.062C96.407 144.866 99.0627 144.669 101.926 144.472L101.1 132.5L100.274 120.528C97.3373 120.731 94.593 120.934 92.0431 121.138L93 133.1ZM101.1 132.5L102.294 144.44C105.358 144.134 108.188 143.826 110.78 143.515L109.35 131.6L107.92 119.685C105.512 119.974 102.842 120.266 99.906 120.56L101.1 132.5ZM109.35 131.6L110.726 143.521C113.323 143.221 115.045 143.036 115.986 142.951L114.9 131L113.814 119.049C112.555 119.164 110.577 119.379 107.975 119.679L109.35 131.6ZM114.9 131L116.178 142.932C116.337 142.915 115.997 142.976 115.357 142.791C114.659 142.589 113.967 142.198 113.426 141.688L121.65 132.95L129.874 124.212C125.1 119.718 119.116 118.48 113.622 119.068L114.9 131ZM121.65 132.95L113.968 142.169C113.229 141.553 112.746 140.801 112.5 140.173C112.285 139.624 112.35 139.429 112.35 139.85H124.35H136.35C136.35 134.417 134.689 128.195 129.332 123.731L121.65 132.95ZM124.35 139.85H112.35C112.35 139.792 112.367 139.462 112.558 139.014C112.751 138.562 112.992 138.288 113.085 138.2L121.35 146.9L129.615 155.6C134.04 151.396 136.35 145.883 136.35 139.85H124.35ZM121.35 146.9L113.085 138.2C112.495 138.761 111.379 139.548 109.337 140.314L113.55 151.55L117.763 162.786C122.121 161.152 126.205 158.839 129.615 155.6L121.35 146.9ZM113.55 151.55L109.537 140.241C107.167 141.082 104.709 141.698 102.152 142.085L103.95 153.95L105.748 165.815C109.791 165.202 113.733 164.218 117.563 162.859L113.55 151.55ZM103.95 153.95L102.462 142.043C99.622 142.398 97.284 142.55 95.4 142.55V154.55V166.55C98.516 166.55 101.878 166.302 105.438 165.857L103.95 153.95ZM95.4 154.55V142.55C95.3889 142.55 95.3777 142.55 95.3666 142.55C95.3555 142.55 95.3444 142.55 95.3332 142.55C95.3221 142.55 95.311 142.55 95.2999 142.55C95.2887 142.55 95.2776 142.55 95.2665 142.55C95.2554 142.55 95.2442 142.55 95.2331 142.55C95.222 142.55 95.2109 142.55 95.1998 142.55C95.1887 142.55 95.1776 142.55 95.1664 142.55C95.1553 142.55 95.1442 142.55 95.1331 142.55C95.122 142.55 95.1109 142.55 95.0998 142.55C95.0887 142.55 95.0776 142.55 95.0665 142.55C95.0554 142.55 95.0443 142.55 95.0332 142.55C95.0221 142.55 95.011 142.55 94.9999 142.55C94.9888 142.55 94.9777 142.55 94.9666 142.55C94.9555 142.55 94.9444 142.55 94.9333 142.55C94.9222 142.55 94.9111 142.55 94.9001 142.55C94.889 142.55 94.8779 142.55 94.8668 142.55C94.8557 142.55 94.8446 142.55 94.8336 142.55C94.8225 142.55 94.8114 142.55 94.8003 142.55C94.7892 142.55 94.7782 142.55 94.7671 142.55C94.756 142.55 94.7449 142.55 94.7339 142.55C94.7228 142.55 94.7117 142.55 94.7007 142.55C94.6896 142.55 94.6785 142.55 94.6675 142.55C94.6564 142.55 94.6453 142.55 94.6343 142.55C94.6232 142.55 94.6121 142.55 94.6011 142.55C94.59 142.55 94.579 142.55 94.5679 142.55C94.5568 142.55 94.5458 142.55 94.5347 142.55C94.5237 142.55 94.5126 142.55 94.5016 142.55C94.4905 142.55 94.4795 142.55 94.4684 142.55C94.4574 142.55 94.4463 142.55 94.4353 142.55C94.4243 142.55 94.4132 142.55 94.4022 142.55C94.3911 142.55 94.3801 142.55 94.3691 142.55C94.358 142.55 94.347 142.55 94.3359 142.55C94.3249 142.55 94.3139 142.55 94.3028 142.55C94.2918 142.55 94.2808 142.55 94.2697 142.55C94.2587 142.55 94.2477 142.55 94.2367 142.55C94.2256 142.55 94.2146 142.55 94.2036 142.55C94.1926 142.55 94.1815 142.55 94.1705 142.55C94.1595 142.55 94.1485 142.55 94.1375 142.55C94.1265 142.55 94.1154 142.55 94.1044 142.55C94.0934 142.55 94.0824 142.55 94.0714 142.55C94.0604 142.55 94.0494 142.55 94.0384 142.55C94.0274 142.55 94.0163 142.55 94.0053 142.55C93.9943 142.55 93.9833 142.55 93.9723 142.55C93.9613 142.55 93.9503 142.55 93.9393 142.55C93.9283 142.55 93.9173 142.55 93.9063 142.55C93.8953 142.55 93.8844 142.55 93.8734 142.55C93.8624 142.55 93.8514 142.55 93.8404 142.55C93.8294 142.55 93.8184 142.55 93.8074 142.55C93.7964 142.55 93.7855 142.55 93.7745 142.55C93.7635 142.55 93.7525 142.55 93.7415 142.55C93.7305 142.55 93.7196 142.55 93.7086 142.55C93.6976 142.55 93.6866 142.55 93.6757 142.55C93.6647 142.55 93.6537 142.55 93.6427 142.55C93.6318 142.55 93.6208 142.55 93.6098 142.55C93.5989 142.55 93.5879 142.55 93.5769 142.55C93.566 142.55 93.555 142.55 93.544 142.55C93.5331 142.55 93.5221 142.55 93.5112 142.55C93.5002 142.55 93.4893 142.55 93.4783 142.55C93.4673 142.55 93.4564 142.55 93.4454 142.55C93.4345 142.55 93.4235 142.55 93.4126 142.55C93.4016 142.55 93.3907 142.55 93.3797 142.55C93.3688 142.55 93.3578 142.55 93.3469 142.55C93.336 142.55 93.325 142.55 93.3141 142.55C93.3031 142.55 93.2922 142.55 93.2813 142.55C93.2703 142.55 93.2594 142.55 93.2484 142.55C93.2375 142.55 93.2266 142.55 93.2156 142.55C93.2047 142.55 93.1938 142.55 93.1829 142.55C93.1719 142.55 93.161 142.55 93.1501 142.55C93.1392 142.55 93.1282 142.55 93.1173 142.55C93.1064 142.55 93.0955 142.55 93.0845 142.55C93.0736 142.55 93.0627 142.55 93.0518 142.55C93.0409 142.55 93.03 142.55 93.019 142.55C93.0081 142.55 92.9972 142.55 92.9863 142.55C92.9754 142.55 92.9645 142.55 92.9536 142.55C92.9427 142.55 92.9318 142.55 92.9209 142.55C92.91 142.55 92.8991 142.55 92.8882 142.55C92.8773 142.55 92.8664 142.55 92.8555 142.55C92.8446 142.55 92.8337 142.55 92.8228 142.55C92.8119 142.55 92.801 142.55 92.7901 142.55C92.7792 142.55 92.7683 142.55 92.7574 142.55C92.7465 142.55 92.7357 142.55 92.7248 142.55C92.7139 142.55 92.703 142.55 92.6921 142.55C92.6812 142.55 92.6703 142.55 92.6595 142.55C92.6486 142.55 92.6377 142.55 92.6268 142.55C92.616 142.55 92.6051 142.55 92.5942 142.55C92.5833 142.55 92.5725 142.55 92.5616 142.55C92.5507 142.55 92.5399 142.55 92.529 142.55C92.5181 142.55 92.5073 142.55 92.4964 142.55C92.4855 142.55 92.4747 142.55 92.4638 142.55C92.4529 142.55 92.4421 142.55 92.4312 142.55C92.4204 142.55 92.4095 142.55 92.3987 142.55C92.3878 142.55 92.3769 142.55 92.3661 142.55C92.3552 142.55 92.3444 142.55 92.3335 142.55C92.3227 142.55 92.3118 142.55 92.301 142.55C92.2902 142.55 92.2793 142.55 92.2685 142.55C92.2576 142.55 92.2468 142.55 92.2359 142.55C92.2251 142.55 92.2143 142.55 92.2034 142.55C92.1926 142.55 92.1818 142.55 92.1709 142.55C92.1601 142.55 92.1493 142.55 92.1384 142.55C92.1276 142.55 92.1168 142.55 92.1059 142.55C92.0951 142.55 92.0843 142.55 92.0735 142.55C92.0626 142.55 92.0518 142.55 92.041 142.55C92.0302 142.55 92.0193 142.55 92.0085 142.55C91.9977 142.55 91.9869 142.55 91.9761 142.55C91.9653 142.55 91.9544 142.55 91.9436 142.55C91.9328 142.55 91.922 142.55 91.9112 142.55C91.9004 142.55 91.8896 142.55 91.8788 142.55C91.868 142.55 91.8572 142.55 91.8464 142.55C91.8356 142.55 91.8248 142.55 91.814 142.55C91.8032 142.55 91.7924 142.55 91.7816 142.55C91.7708 142.55 91.76 142.55 91.7492 142.55C91.7384 142.55 91.7276 142.55 91.7168 142.55C91.706 142.55 91.6952 142.55 91.6844 142.55C91.6736 142.55 91.6629 142.55 91.6521 142.55C91.6413 142.55 91.6305 142.55 91.6197 142.55C91.6089 142.55 91.5982 142.55 91.5874 142.55C91.5766 142.55 91.5658 142.55 91.5551 142.55C91.5443 142.55 91.5335 142.55 91.5227 142.55C91.512 142.55 91.5012 142.55 91.4904 142.55C91.4796 142.55 91.4689 142.55 91.4581 142.55C91.4473 142.55 91.4366 142.55 91.4258 142.55C91.4151 142.55 91.4043 142.55 91.3935 142.55C91.3828 142.55 91.372 142.55 91.3613 142.55C91.3505 142.55 91.3397 142.55 91.329 142.55C91.3182 142.55 91.3075 142.55 91.2967 142.55C91.286 142.55 91.2752 142.55 91.2645 142.55C91.2537 142.55 91.243 142.55 91.2322 142.55C91.2215 142.55 91.2107 142.55 91.2 142.55C91.1893 142.55 91.1785 142.55 91.1678 142.55C91.157 142.55 91.1463 142.55 91.1356 142.55C91.1248 142.55 91.1141 142.55 91.1034 142.55C91.0926 142.55 91.0819 142.55 91.0712 142.55C91.0604 142.55 91.0497 142.55 91.039 142.55C91.0283 142.55 91.0175 142.55 91.0068 142.55C90.9961 142.55 90.9854 142.55 90.9746 142.55C90.9639 142.55 90.9532 142.55 90.9425 142.55C90.9318 142.55 90.9211 142.55 90.9103 142.55C90.8996 142.55 90.8889 142.55 90.8782 142.55C90.8675 142.55 90.8568 142.55 90.8461 142.55C90.8354 142.55 90.8247 142.55 90.8139 142.55C90.8032 142.55 90.7925 142.55 90.7818 142.55C90.7711 142.55 90.7604 142.55 90.7497 142.55C90.739 142.55 90.7283 142.55 90.7176 142.55C90.7069 142.55 90.6962 142.55 90.6856 142.55C90.6749 142.55 90.6642 142.55 90.6535 142.55C90.6428 142.55 90.6321 142.55 90.6214 142.55C90.6107 142.55 90.6 142.55 90.5894 142.55C90.5787 142.55 90.568 142.55 90.5573 142.55C90.5466 142.55 90.5359 142.55 90.5253 142.55C90.5146 142.55 90.5039 142.55 90.4932 142.55C90.4826 142.55 90.4719 142.55 90.4612 142.55C90.4505 142.55 90.4399 142.55 90.4292 142.55C90.4185 142.55 90.4079 142.55 90.3972 142.55C90.3865 142.55 90.3759 142.55 90.3652 142.55C90.3545 142.55 90.3439 142.55 90.3332 142.55C90.3226 142.55 90.3119 142.55 90.3012 142.55C90.2906 142.55 90.2799 142.55 90.2693 142.55C90.2586 142.55 90.248 142.55 90.2373 142.55C90.2267 142.55 90.216 142.55 90.2054 142.55C90.1947 142.55 90.1841 142.55 90.1734 142.55C90.1628 142.55 90.1522 142.55 90.1415 142.55C90.1309 142.55 90.1202 142.55 90.1096 142.55C90.099 142.55 90.0883 142.55 90.0777 142.55C90.067 142.55 90.0564 142.55 90.0458 142.55C90.0351 142.55 90.0245 142.55 90.0139 142.55C90.0033 142.55 89.9926 142.55 89.982 142.55C89.9714 142.55 89.9608 142.55 89.9501 142.55C89.9395 142.55 89.9289 142.55 89.9183 142.55C89.9076 142.55 89.897 142.55 89.8864 142.55C89.8758 142.55 89.8652 142.55 89.8546 142.55C89.8439 142.55 89.8333 142.55 89.8227 142.55C89.8121 142.55 89.8015 142.55 89.7909 142.55C89.7803 142.55 89.7697 142.55 89.7591 142.55C89.7485 142.55 89.7379 142.55 89.7273 142.55C89.7167 142.55 89.7061 142.55 89.6955 142.55C89.6849 142.55 89.6743 142.55 89.6637 142.55C89.6531 142.55 89.6425 142.55 89.6319 142.55C89.6213 142.55 89.6107 142.55 89.6001 142.55C89.5895 142.55 89.5789 142.55 89.5684 142.55C89.5578 142.55 89.5472 142.55 89.5366 142.55C89.526 142.55 89.5154 142.55 89.5049 142.55C89.4943 142.55 89.4837 142.55 89.4731 142.55C89.4625 142.55 89.452 142.55 89.4414 142.55C89.4308 142.55 89.4202 142.55 89.4097 142.55C89.3991 142.55 89.3885 142.55 89.378 142.55C89.3674 142.55 89.3568 142.55 89.3463 142.55C89.3357 142.55 89.3251 142.55 89.3146 142.55C89.304 142.55 89.2934 142.55 89.2829 142.55C89.2723 142.55 89.2618 142.55 89.2512 142.55C89.2407 142.55 89.2301 142.55 89.2196 142.55C89.209 142.55 89.1984 142.55 89.1879 142.55C89.1773 142.55 89.1668 142.55 89.1563 142.55C89.1457 142.55 89.1352 142.55 89.1246 142.55C89.1141 142.55 89.1035 142.55 89.093 142.55C89.0825 142.55 89.0719 142.55 89.0614 142.55C89.0508 142.55 89.0403 142.55 89.0298 142.55C89.0192 142.55 89.0087 142.55 88.9982 142.55C88.9876 142.55 88.9771 142.55 88.9666 142.55C88.956 142.55 88.9455 142.55 88.935 142.55C88.9245 142.55 88.9139 142.55 88.9034 142.55C88.8929 142.55 88.8824 142.55 88.8719 142.55C88.8613 142.55 88.8508 142.55 88.8403 142.55C88.8298 142.55 88.8193 142.55 88.8088 142.55C88.7982 142.55 88.7877 142.55 88.7772 142.55C88.7667 142.55 88.7562 142.55 88.7457 142.55C88.7352 142.55 88.7247 142.55 88.7142 142.55C88.7037 142.55 88.6932 142.55 88.6827 142.55C88.6722 142.55 88.6617 142.55 88.6512 142.55C88.6407 142.55 88.6302 142.55 88.6197 142.55C88.6092 142.55 88.5987 142.55 88.5882 142.55C88.5777 142.55 88.5672 142.55 88.5567 142.55C88.5462 142.55 88.5358 142.55 88.5253 142.55C88.5148 142.55 88.5043 142.55 88.4938 142.55C88.4833 142.55 88.4729 142.55 88.4624 142.55C88.4519 142.55 88.4414 142.55 88.4309 142.55C88.4205 142.55 88.41 142.55 88.3995 142.55C88.389 142.55 88.3786 142.55 88.3681 142.55C88.3576 142.55 88.3472 142.55 88.3367 142.55C88.3262 142.55 88.3158 142.55 88.3053 142.55C88.2948 142.55 88.2844 142.55 88.2739 142.55C88.2634 142.55 88.253 142.55 88.2425 142.55C88.2321 142.55 88.2216 142.55 88.2112 142.55C88.2007 142.55 88.1902 142.55 88.1798 142.55C88.1693 142.55 88.1589 142.55 88.1484 142.55C88.138 142.55 88.1275 142.55 88.1171 142.55C88.1067 142.55 88.0962 142.55 88.0858 142.55C88.0753 142.55 88.0649 142.55 88.0544 142.55C88.044 142.55 88.0336 142.55 88.0231 142.55C88.0127 142.55 88.0023 142.55 87.9918 142.55C87.9814 142.55 87.971 142.55 87.9605 142.55C87.9501 142.55 87.9397 142.55 87.9292 142.55C87.9188 142.55 87.9084 142.55 87.898 142.55C87.8875 142.55 87.8771 142.55 87.8667 142.55C87.8563 142.55 87.8458 142.55 87.8354 142.55C87.825 142.55 87.8146 142.55 87.8042 142.55C87.7938 142.55 87.7833 142.55 87.7729 142.55C87.7625 142.55 87.7521 142.55 87.7417 142.55C87.7313 142.55 87.7209 142.55 87.7105 142.55C87.7001 142.55 87.6897 142.55 87.6793 142.55C87.6689 142.55 87.6585 142.55 87.6481 142.55C87.6377 142.55 87.6273 142.55 87.6169 142.55C87.6065 142.55 87.5961 142.55 87.5857 142.55C87.5753 142.55 87.5649 142.55 87.5545 142.55C87.5441 142.55 87.5337 142.55 87.5233 142.55C87.5129 142.55 87.5025 142.55 87.4922 142.55C87.4818 142.55 87.4714 142.55 87.461 142.55C87.4506 142.55 87.4402 142.55 87.4299 142.55C87.4195 142.55 87.4091 142.55 87.3987 142.55C87.3884 142.55 87.378 142.55 87.3676 142.55C87.3572 142.55 87.3469 142.55 87.3365 142.55C87.3261 142.55 87.3158 142.55 87.3054 142.55C87.295 142.55 87.2847 142.55 87.2743 142.55C87.2639 142.55 87.2536 142.55 87.2432 142.55C87.2328 142.55 87.2225 142.55 87.2121 142.55C87.2018 142.55 87.1914 142.55 87.1811 142.55C87.1707 142.55 87.1604 142.55 87.15 142.55C87.1397 142.55 87.1293 142.55 87.119 142.55C87.1086 142.55 87.0983 142.55 87.0879 142.55C87.0776 142.55 87.0672 142.55 87.0569 142.55C87.0465 142.55 87.0362 142.55 87.0259 142.55C87.0155 142.55 87.0052 142.55 86.9948 142.55C86.9845 142.55 86.9742 142.55 86.9638 142.55C86.9535 142.55 86.9432 142.55 86.9328 142.55C86.9225 142.55 86.9122 142.55 86.9019 142.55C86.8915 142.55 86.8812 142.55 86.8709 142.55C86.8606 142.55 86.8502 142.55 86.8399 142.55C86.8296 142.55 86.8193 142.55 86.809 142.55C86.7986 142.55 86.7883 142.55 86.778 142.55C86.7677 142.55 86.7574 142.55 86.7471 142.55C86.7368 142.55 86.7264 142.55 86.7161 142.55C86.7058 142.55 86.6955 142.55 86.6852 142.55C86.6749 142.55 86.6646 142.55 86.6543 142.55C86.644 142.55 86.6337 142.55 86.6234 142.55C86.6131 142.55 86.6028 142.55 86.5925 142.55C86.5822 142.55 86.5719 142.55 86.5616 142.55C86.5513 142.55 86.541 142.55 86.5307 142.55C86.5205 142.55 86.5102 142.55 86.4999 142.55C86.4896 142.55 86.4793 142.55 86.469 142.55C86.4587 142.55 86.4484 142.55 86.4382 142.55C86.4279 142.55 86.4176 142.55 86.4073 142.55C86.397 142.55 86.3868 142.55 86.3765 142.55C86.3662 142.55 86.3559 142.55 86.3457 142.55C86.3354 142.55 86.3251 142.55 86.3149 142.55C86.3046 142.55 86.2943 142.55 86.2841 142.55C86.2738 142.55 86.2635 142.55 86.2533 142.55C86.243 142.55 86.2327 142.55 86.2225 142.55C86.2122 142.55 86.202 142.55 86.1917 142.55C86.1815 142.55 86.1712 142.55 86.1609 142.55C86.1507 142.55 86.1404 142.55 86.1302 142.55C86.1199 142.55 86.1097 142.55 86.0994 142.55C86.0892 142.55 86.0789 142.55 86.0687 142.55C86.0585 142.55 86.0482 142.55 86.038 142.55C86.0277 142.55 86.0175 142.55 86.0072 142.55C85.997 142.55 85.9868 142.55 85.9765 142.55C85.9663 142.55 85.9561 142.55 85.9458 142.55C85.9356 142.55 85.9254 142.55 85.9151 142.55C85.9049 142.55 85.8947 142.55 85.8845 142.55C85.8742 142.55 85.864 142.55 85.8538 142.55C85.8436 142.55 85.8333 142.55 85.8231 142.55C85.8129 142.55 85.8027 142.55 85.7925 142.55C85.7822 142.55 85.772 142.55 85.7618 142.55C85.7516 142.55 85.7414 142.55 85.7312 142.55C85.721 142.55 85.7108 142.55 85.7005 142.55C85.6903 142.55 85.6801 142.55 85.6699 142.55C85.6597 142.55 85.6495 142.55 85.6393 142.55C85.6291 142.55 85.6189 142.55 85.6087 142.55C85.5985 142.55 85.5883 142.55 85.5781 142.55C85.5679 142.55 85.5577 142.55 85.5475 142.55C85.5373 142.55 85.5272 142.55 85.517 142.55C85.5068 142.55 85.4966 142.55 85.4864 142.55C85.4762 142.55 85.466 142.55 85.4558 142.55C85.4457 142.55 85.4355 142.55 85.4253 142.55C85.4151 142.55 85.4049 142.55 85.3948 142.55C85.3846 142.55 85.3744 142.55 85.3642 142.55C85.3541 142.55 85.3439 142.55 85.3337 142.55C85.3235 142.55 85.3134 142.55 85.3032 142.55C85.293 142.55 85.2829 142.55 85.2727 142.55C85.2625 142.55 85.2524 142.55 85.2422 142.55C85.232 142.55 85.2219 142.55 85.2117 142.55C85.2016 142.55 85.1914 142.55 85.1813 142.55C85.1711 142.55 85.1609 142.55 85.1508 142.55C85.1406 142.55 85.1305 142.55 85.1203 142.55C85.1102 142.55 85.1 142.55 85.0899 142.55C85.0797 142.55 85.0696 142.55 85.0595 142.55C85.0493 142.55 85.0392 142.55 85.029 142.55C85.0189 142.55 85.0087 142.55 84.9986 142.55C84.9885 142.55 84.9783 142.55 84.9682 142.55C84.9581 142.55 84.9479 142.55 84.9378 142.55C84.9277 142.55 84.9175 142.55 84.9074 142.55C84.8973 142.55 84.8871 142.55 84.877 142.55C84.8669 142.55 84.8568 142.55 84.8467 142.55C84.8365 142.55 84.8264 142.55 84.8163 142.55C84.8062 142.55 84.7961 142.55 84.7859 142.55C84.7758 142.55 84.7657 142.55 84.7556 142.55C84.7455 142.55 84.7354 142.55 84.7253 142.55C84.7151 142.55 84.705 142.55 84.6949 142.55C84.6848 142.55 84.6747 142.55 84.6646 142.55C84.6545 142.55 84.6444 142.55 84.6343 142.55C84.6242 142.55 84.6141 142.55 84.604 142.55C84.5939 142.55 84.5838 142.55 84.5737 142.55C84.5636 142.55 84.5535 142.55 84.5434 142.55C84.5333 142.55 84.5232 142.55 84.5132 142.55C84.5031 142.55 84.493 142.55 84.4829 142.55C84.4728 142.55 84.4627 142.55 84.4526 142.55C84.4426 142.55 84.4325 142.55 84.4224 142.55C84.4123 142.55 84.4022 142.55 84.3922 142.55C84.3821 142.55 84.372 142.55 84.3619 142.55C84.3519 142.55 84.3418 142.55 84.3317 142.55C84.3216 142.55 84.3116 142.55 84.3015 142.55C84.2914 142.55 84.2814 142.55 84.2713 142.55C84.2612 142.55 84.2512 142.55 84.2411 142.55C84.2311 142.55 84.221 142.55 84.2109 142.55C84.2009 142.55 84.1908 142.55 84.1808 142.55C84.1707 142.55 84.1607 142.55 84.1506 142.55C84.1406 142.55 84.1305 142.55 84.1205 142.55C84.1104 142.55 84.1004 142.55 84.0903 142.55C84.0803 142.55 84.0702 142.55 84.0602 142.55C84.0501 142.55 84.0401 142.55 84.0301 142.55C84.02 142.55 84.01 142.55 83.9999 142.55C83.9899 142.55 83.9799 142.55 83.9698 142.55C83.9598 142.55 83.9498 142.55 83.9397 142.55C83.9297 142.55 83.9197 142.55 83.9096 142.55C83.8996 142.55 83.8896 142.55 83.8796 142.55C83.8695 142.55 83.8595 142.55 83.8495 142.55C83.8395 142.55 83.8294 142.55 83.8194 142.55C83.8094 142.55 83.7994 142.55 83.7894 142.55C83.7794 142.55 83.7693 142.55 83.7593 142.55C83.7493 142.55 83.7393 142.55 83.7293 142.55C83.7193 142.55 83.7093 142.55 83.6993 142.55C83.6893 142.55 83.6793 142.55 83.6693 142.55C83.6593 142.55 83.6493 142.55 83.6393 142.55C83.6293 142.55 83.6193 142.55 83.6093 142.55C83.5993 142.55 83.5893 142.55 83.5793 142.55C83.5693 142.55 83.5593 142.55 83.5493 142.55C83.5393 142.55 83.5293 142.55 83.5193 142.55C83.5093 142.55 83.4993 142.55 83.4894 142.55C83.4794 142.55 83.4694 142.55 83.4594 142.55C83.4494 142.55 83.4394 142.55 83.4295 142.55C83.4195 142.55 83.4095 142.55 83.3995 142.55C83.3896 142.55 83.3796 142.55 83.3696 142.55C83.3596 142.55 83.3497 142.55 83.3397 142.55C83.3297 142.55 83.3198 142.55 83.3098 142.55C83.2998 142.55 83.2899 142.55 83.2799 142.55C83.2699 142.55 83.26 142.55 83.25 142.55C83.24 142.55 83.2301 142.55 83.2201 142.55C83.2102 142.55 83.2002 142.55 83.1903 142.55C83.1803 142.55 83.1703 142.55 83.1604 142.55C83.1504 142.55 83.1405 142.55 83.1305 142.55C83.1206 142.55 83.1106 142.55 83.1007 142.55C83.0908 142.55 83.0808 142.55 83.0709 142.55C83.0609 142.55 83.051 142.55 83.041 142.55C83.0311 142.55 83.0212 142.55 83.0112 142.55C83.0013 142.55 82.9914 142.55 82.9814 142.55C82.9715 142.55 82.9616 142.55 82.9516 142.55C82.9417 142.55 82.9318 142.55 82.9218 142.55C82.9119 142.55 82.902 142.55 82.8921 142.55C82.8821 142.55 82.8722 142.55 82.8623 142.55C82.8524 142.55 82.8425 142.55 82.8325 142.55C82.8226 142.55 82.8127 142.55 82.8028 142.55C82.7929 142.55 82.783 142.55 82.7731 142.55C82.7631 142.55 82.7532 142.55 82.7433 142.55C82.7334 142.55 82.7235 142.55 82.7136 142.55C82.7037 142.55 82.6938 142.55 82.6839 142.55C82.674 142.55 82.6641 142.55 82.6542 142.55C82.6443 142.55 82.6344 142.55 82.6245 142.55C82.6146 142.55 82.6047 142.55 82.5948 142.55C82.5849 142.55 82.575 142.55 82.5651 142.55C82.5552 142.55 82.5453 142.55 82.5355 142.55C82.5256 142.55 82.5157 142.55 82.5058 142.55C82.4959 142.55 82.486 142.55 82.4761 142.55C82.4663 142.55 82.4564 142.55 82.4465 142.55C82.4366 142.55 82.4267 142.55 82.4169 142.55C82.407 142.55 82.3971 142.55 82.3873 142.55C82.3774 142.55 82.3675 142.55 82.3576 142.55C82.3478 142.55 82.3379 142.55 82.328 142.55C82.3182 142.55 82.3083 142.55 82.2984 142.55C82.2886 142.55 82.2787 142.55 82.2689 142.55C82.259 142.55 82.2491 142.55 82.2393 142.55C82.2294 142.55 82.2196 142.55 82.2097 142.55C82.1999 142.55 82.19 142.55 82.1802 142.55C82.1703 142.55 82.1605 142.55 82.1506 142.55C82.1408 142.55 82.1309 142.55 82.1211 142.55C82.1112 142.55 82.1014 142.55 82.0915 142.55C82.0817 142.55 82.0719 142.55 82.062 142.55C82.0522 142.55 82.0423 142.55 82.0325 142.55C82.0227 142.55 82.0128 142.55 82.003 142.55C81.9932 142.55 81.9833 142.55 81.9735 142.55C81.9637 142.55 81.9538 142.55 81.944 142.55C81.9342 142.55 81.9244 142.55 81.9145 142.55C81.9047 142.55 81.8949 142.55 81.8851 142.55C81.8753 142.55 81.8654 142.55 81.8556 142.55C81.8458 142.55 81.836 142.55 81.8262 142.55C81.8164 142.55 81.8065 142.55 81.7967 142.55C81.7869 142.55 81.7771 142.55 81.7673 142.55C81.7575 142.55 81.7477 142.55 81.7379 142.55C81.7281 142.55 81.7183 142.55 81.7085 142.55C81.6987 142.55 81.6889 142.55 81.6791 142.55C81.6693 142.55 81.6595 142.55 81.6497 142.55C81.6399 142.55 81.6301 142.55 81.6203 142.55C81.6105 142.55 81.6007 142.55 81.5909 142.55C81.5811 142.55 81.5713 142.55 81.5616 142.55C81.5518 142.55 81.542 142.55 81.5322 142.55C81.5224 142.55 81.5126 142.55 81.5029 142.55C81.4931 142.55 81.4833 142.55 81.4735 142.55C81.4637 142.55 81.454 142.55 81.4442 142.55C81.4344 142.55 81.4246 142.55 81.4149 142.55C81.4051 142.55 81.3953 142.55 81.3856 142.55C81.3758 142.55 81.366 142.55 81.3563 142.55C81.3465 142.55 81.3367 142.55 81.327 142.55C81.3172 142.55 81.3074 142.55 81.2977 142.55C81.2879 142.55 81.2782 142.55 81.2684 142.55C81.2586 142.55 81.2489 142.55 81.2391 142.55C81.2294 142.55 81.2196 142.55 81.2099 142.55C81.2001 142.55 81.1904 142.55 81.1806 142.55C81.1709 142.55 81.1611 142.55 81.1514 142.55C81.1417 142.55 81.1319 142.55 81.1222 142.55C81.1124 142.55 81.1027 142.55 81.093 142.55C81.0832 142.55 81.0735 142.55 81.0637 142.55C81.054 142.55 81.0443 142.55 81.0345 142.55C81.0248 142.55 81.0151 142.55 81.0054 142.55C80.9956 142.55 80.9859 142.55 80.9762 142.55C80.9664 142.55 80.9567 142.55 80.947 142.55C80.9373 142.55 80.9276 142.55 80.9178 142.55C80.9081 142.55 80.8984 142.55 80.8887 142.55C80.879 142.55 80.8692 142.55 80.8595 142.55C80.8498 142.55 80.8401 142.55 80.8304 142.55C80.8207 142.55 80.811 142.55 80.8013 142.55C80.7916 142.55 80.7819 142.55 80.7721 142.55C80.7624 142.55 80.7527 142.55 80.743 142.55C80.7333 142.55 80.7236 142.55 80.7139 142.55C80.7042 142.55 80.6945 142.55 80.6848 142.55C80.6752 142.55 80.6655 142.55 80.6558 142.55C80.6461 142.55 80.6364 142.55 80.6267 142.55C80.617 142.55 80.6073 142.55 80.5976 142.55C80.5879 142.55 80.5783 142.55 80.5686 142.55C80.5589 142.55 80.5492 142.55 80.5395 142.55C80.5299 142.55 80.5202 142.55 80.5105 142.55C80.5008 142.55 80.4911 142.55 80.4815 142.55C80.4718 142.55 80.4621 142.55 80.4524 142.55C80.4428 142.55 80.4331 142.55 80.4234 142.55C80.4138 142.55 80.4041 142.55 80.3944 142.55C80.3848 142.55 80.3751 142.55 80.3655 142.55C80.3558 142.55 80.3461 142.55 80.3365 142.55C80.3268 142.55 80.3172 142.55 80.3075 142.55C80.2978 142.55 80.2882 142.55 80.2785 142.55C80.2689 142.55 80.2592 142.55 80.2496 142.55C80.2399 142.55 80.2303 142.55 80.2206 142.55C80.211 142.55 80.2013 142.55 80.1917 142.55C80.1821 142.55 80.1724 142.55 80.1628 142.55C80.1531 142.55 80.1435 142.55 80.1339 142.55C80.1242 142.55 80.1146 142.55 80.105 142.55C80.0953 142.55 80.0857 142.55 80.0761 142.55C80.0664 142.55 80.0568 142.55 80.0472 142.55C80.0375 142.55 80.0279 142.55 80.0183 142.55C80.0087 142.55 79.999 142.55 79.9894 142.55C79.9798 142.55 79.9702 142.55 79.9606 142.55C79.9509 142.55 79.9413 142.55 79.9317 142.55C79.9221 142.55 79.9125 142.55 79.9029 142.55C79.8932 142.55 79.8836 142.55 79.874 142.55C79.8644 142.55 79.8548 142.55 79.8452 142.55C79.8356 142.55 79.826 142.55 79.8164 142.55C79.8068 142.55 79.7972 142.55 79.7876 142.55C79.778 142.55 79.7684 142.55 79.7588 142.55C79.7492 142.55 79.7396 142.55 79.73 142.55C79.7204 142.55 79.7108 142.55 79.7012 142.55C79.6916 142.55 79.682 142.55 79.6724 142.55C79.6628 142.55 79.6533 142.55 79.6437 142.55C79.6341 142.55 79.6245 142.55 79.6149 142.55C79.6053 142.55 79.5958 142.55 79.5862 142.55C79.5766 142.55 79.567 142.55 79.5574 142.55C79.5479 142.55 79.5383 142.55 79.5287 142.55C79.5191 142.55 79.5096 142.55 79.5 142.55V154.55V166.55C79.5096 166.55 79.5191 166.55 79.5287 166.55C79.5383 166.55 79.5479 166.55 79.5574 166.55C79.567 166.55 79.5766 166.55 79.5862 166.55C79.5958 166.55 79.6053 166.55 79.6149 166.55C79.6245 166.55 79.6341 166.55 79.6437 166.55C79.6533 166.55 79.6628 166.55 79.6724 166.55C79.682 166.55 79.6916 166.55 79.7012 166.55C79.7108 166.55 79.7204 166.55 79.73 166.55C79.7396 166.55 79.7492 166.55 79.7588 166.55C79.7684 166.55 79.778 166.55 79.7876 166.55C79.7972 166.55 79.8068 166.55 79.8164 166.55C79.826 166.55 79.8356 166.55 79.8452 166.55C79.8548 166.55 79.8644 166.55 79.874 166.55C79.8836 166.55 79.8932 166.55 79.9029 166.55C79.9125 166.55 79.9221 166.55 79.9317 166.55C79.9413 166.55 79.9509 166.55 79.9606 166.55C79.9702 166.55 79.9798 166.55 79.9894 166.55C79.999 166.55 80.0087 166.55 80.0183 166.55C80.0279 166.55 80.0375 166.55 80.0472 166.55C80.0568 166.55 80.0664 166.55 80.0761 166.55C80.0857 166.55 80.0953 166.55 80.105 166.55C80.1146 166.55 80.1242 166.55 80.1339 166.55C80.1435 166.55 80.1531 166.55 80.1628 166.55C80.1724 166.55 80.1821 166.55 80.1917 166.55C80.2013 166.55 80.211 166.55 80.2206 166.55C80.2303 166.55 80.2399 166.55 80.2496 166.55C80.2592 166.55 80.2689 166.55 80.2785 166.55C80.2882 166.55 80.2978 166.55 80.3075 166.55C80.3172 166.55 80.3268 166.55 80.3365 166.55C80.3461 166.55 80.3558 166.55 80.3655 166.55C80.3751 166.55 80.3848 166.55 80.3944 166.55C80.4041 166.55 80.4138 166.55 80.4234 166.55C80.4331 166.55 80.4428 166.55 80.4524 166.55C80.4621 166.55 80.4718 166.55 80.4815 166.55C80.4911 166.55 80.5008 166.55 80.5105 166.55C80.5202 166.55 80.5299 166.55 80.5395 166.55C80.5492 166.55 80.5589 166.55 80.5686 166.55C80.5783 166.55 80.5879 166.55 80.5976 166.55C80.6073 166.55 80.617 166.55 80.6267 166.55C80.6364 166.55 80.6461 166.55 80.6558 166.55C80.6655 166.55 80.6752 166.55 80.6848 166.55C80.6945 166.55 80.7042 166.55 80.7139 166.55C80.7236 166.55 80.7333 166.55 80.743 166.55C80.7527 166.55 80.7624 166.55 80.7721 166.55C80.7819 166.55 80.7916 166.55 80.8013 166.55C80.811 166.55 80.8207 166.55 80.8304 166.55C80.8401 166.55 80.8498 166.55 80.8595 166.55C80.8692 166.55 80.879 166.55 80.8887 166.55C80.8984 166.55 80.9081 166.55 80.9178 166.55C80.9276 166.55 80.9373 166.55 80.947 166.55C80.9567 166.55 80.9664 166.55 80.9762 166.55C80.9859 166.55 80.9956 166.55 81.0054 166.55C81.0151 166.55 81.0248 166.55 81.0345 166.55C81.0443 166.55 81.054 166.55 81.0637 166.55C81.0735 166.55 81.0832 166.55 81.093 166.55C81.1027 166.55 81.1124 166.55 81.1222 166.55C81.1319 166.55 81.1417 166.55 81.1514 166.55C81.1611 166.55 81.1709 166.55 81.1806 166.55C81.1904 166.55 81.2001 166.55 81.2099 166.55C81.2196 166.55 81.2294 166.55 81.2391 166.55C81.2489 166.55 81.2586 166.55 81.2684 166.55C81.2782 166.55 81.2879 166.55 81.2977 166.55C81.3074 166.55 81.3172 166.55 81.327 166.55C81.3367 166.55 81.3465 166.55 81.3563 166.55C81.366 166.55 81.3758 166.55 81.3856 166.55C81.3953 166.55 81.4051 166.55 81.4149 166.55C81.4246 166.55 81.4344 166.55 81.4442 166.55C81.454 166.55 81.4637 166.55 81.4735 166.55C81.4833 166.55 81.4931 166.55 81.5029 166.55C81.5126 166.55 81.5224 166.55 81.5322 166.55C81.542 166.55 81.5518 166.55 81.5616 166.55C81.5713 166.55 81.5811 166.55 81.5909 166.55C81.6007 166.55 81.6105 166.55 81.6203 166.55C81.6301 166.55 81.6399 166.55 81.6497 166.55C81.6595 166.55 81.6693 166.55 81.6791 166.55C81.6889 166.55 81.6987 166.55 81.7085 166.55C81.7183 166.55 81.7281 166.55 81.7379 166.55C81.7477 166.55 81.7575 166.55 81.7673 166.55C81.7771 166.55 81.7869 166.55 81.7967 166.55C81.8065 166.55 81.8164 166.55 81.8262 166.55C81.836 166.55 81.8458 166.55 81.8556 166.55C81.8654 166.55 81.8753 166.55 81.8851 166.55C81.8949 166.55 81.9047 166.55 81.9145 166.55C81.9244 166.55 81.9342 166.55 81.944 166.55C81.9538 166.55 81.9637 166.55 81.9735 166.55C81.9833 166.55 81.9932 166.55 82.003 166.55C82.0128 166.55 82.0227 166.55 82.0325 166.55C82.0423 166.55 82.0522 166.55 82.062 166.55C82.0719 166.55 82.0817 166.55 82.0915 166.55C82.1014 166.55 82.1112 166.55 82.1211 166.55C82.1309 166.55 82.1408 166.55 82.1506 166.55C82.1605 166.55 82.1703 166.55 82.1802 166.55C82.19 166.55 82.1999 166.55 82.2097 166.55C82.2196 166.55 82.2294 166.55 82.2393 166.55C82.2491 166.55 82.259 166.55 82.2689 166.55C82.2787 166.55 82.2886 166.55 82.2984 166.55C82.3083 166.55 82.3182 166.55 82.328 166.55C82.3379 166.55 82.3478 166.55 82.3576 166.55C82.3675 166.55 82.3774 166.55 82.3873 166.55C82.3971 166.55 82.407 166.55 82.4169 166.55C82.4267 166.55 82.4366 166.55 82.4465 166.55C82.4564 166.55 82.4663 166.55 82.4761 166.55C82.486 166.55 82.4959 166.55 82.5058 166.55C82.5157 166.55 82.5256 166.55 82.5355 166.55C82.5453 166.55 82.5552 166.55 82.5651 166.55C82.575 166.55 82.5849 166.55 82.5948 166.55C82.6047 166.55 82.6146 166.55 82.6245 166.55C82.6344 166.55 82.6443 166.55 82.6542 166.55C82.6641 166.55 82.674 166.55 82.6839 166.55C82.6938 166.55 82.7037 166.55 82.7136 166.55C82.7235 166.55 82.7334 166.55 82.7433 166.55C82.7532 166.55 82.7631 166.55 82.7731 166.55C82.783 166.55 82.7929 166.55 82.8028 166.55C82.8127 166.55 82.8226 166.55 82.8325 166.55C82.8425 166.55 82.8524 166.55 82.8623 166.55C82.8722 166.55 82.8821 166.55 82.8921 166.55C82.902 166.55 82.9119 166.55 82.9218 166.55C82.9318 166.55 82.9417 166.55 82.9516 166.55C82.9616 166.55 82.9715 166.55 82.9814 166.55C82.9914 166.55 83.0013 166.55 83.0112 166.55C83.0212 166.55 83.0311 166.55 83.041 166.55C83.051 166.55 83.0609 166.55 83.0709 166.55C83.0808 166.55 83.0908 166.55 83.1007 166.55C83.1106 166.55 83.1206 166.55 83.1305 166.55C83.1405 166.55 83.1504 166.55 83.1604 166.55C83.1703 166.55 83.1803 166.55 83.1903 166.55C83.2002 166.55 83.2102 166.55 83.2201 166.55C83.2301 166.55 83.24 166.55 83.25 166.55C83.26 166.55 83.2699 166.55 83.2799 166.55C83.2899 166.55 83.2998 166.55 83.3098 166.55C83.3198 166.55 83.3297 166.55 83.3397 166.55C83.3497 166.55 83.3596 166.55 83.3696 166.55C83.3796 166.55 83.3896 166.55 83.3995 166.55C83.4095 166.55 83.4195 166.55 83.4295 166.55C83.4394 166.55 83.4494 166.55 83.4594 166.55C83.4694 166.55 83.4794 166.55 83.4894 166.55C83.4993 166.55 83.5093 166.55 83.5193 166.55C83.5293 166.55 83.5393 166.55 83.5493 166.55C83.5593 166.55 83.5693 166.55 83.5793 166.55C83.5893 166.55 83.5993 166.55 83.6093 166.55C83.6193 166.55 83.6293 166.55 83.6393 166.55C83.6493 166.55 83.6593 166.55 83.6693 166.55C83.6793 166.55 83.6893 166.55 83.6993 166.55C83.7093 166.55 83.7193 166.55 83.7293 166.55C83.7393 166.55 83.7493 166.55 83.7593 166.55C83.7693 166.55 83.7794 166.55 83.7894 166.55C83.7994 166.55 83.8094 166.55 83.8194 166.55C83.8294 166.55 83.8395 166.55 83.8495 166.55C83.8595 166.55 83.8695 166.55 83.8796 166.55C83.8896 166.55 83.8996 166.55 83.9096 166.55C83.9197 166.55 83.9297 166.55 83.9397 166.55C83.9498 166.55 83.9598 166.55 83.9698 166.55C83.9799 166.55 83.9899 166.55 83.9999 166.55C84.01 166.55 84.02 166.55 84.0301 166.55C84.0401 166.55 84.0501 166.55 84.0602 166.55C84.0702 166.55 84.0803 166.55 84.0903 166.55C84.1004 166.55 84.1104 166.55 84.1205 166.55C84.1305 166.55 84.1406 166.55 84.1506 166.55C84.1607 166.55 84.1707 166.55 84.1808 166.55C84.1908 166.55 84.2009 166.55 84.2109 166.55C84.221 166.55 84.2311 166.55 84.2411 166.55C84.2512 166.55 84.2612 166.55 84.2713 166.55C84.2814 166.55 84.2914 166.55 84.3015 166.55C84.3116 166.55 84.3216 166.55 84.3317 166.55C84.3418 166.55 84.3519 166.55 84.3619 166.55C84.372 166.55 84.3821 166.55 84.3922 166.55C84.4022 166.55 84.4123 166.55 84.4224 166.55C84.4325 166.55 84.4426 166.55 84.4526 166.55C84.4627 166.55 84.4728 166.55 84.4829 166.55C84.493 166.55 84.5031 166.55 84.5132 166.55C84.5232 166.55 84.5333 166.55 84.5434 166.55C84.5535 166.55 84.5636 166.55 84.5737 166.55C84.5838 166.55 84.5939 166.55 84.604 166.55C84.6141 166.55 84.6242 166.55 84.6343 166.55C84.6444 166.55 84.6545 166.55 84.6646 166.55C84.6747 166.55 84.6848 166.55 84.6949 166.55C84.705 166.55 84.7151 166.55 84.7253 166.55C84.7354 166.55 84.7455 166.55 84.7556 166.55C84.7657 166.55 84.7758 166.55 84.7859 166.55C84.7961 166.55 84.8062 166.55 84.8163 166.55C84.8264 166.55 84.8365 166.55 84.8467 166.55C84.8568 166.55 84.8669 166.55 84.877 166.55C84.8871 166.55 84.8973 166.55 84.9074 166.55C84.9175 166.55 84.9277 166.55 84.9378 166.55C84.9479 166.55 84.9581 166.55 84.9682 166.55C84.9783 166.55 84.9885 166.55 84.9986 166.55C85.0087 166.55 85.0189 166.55 85.029 166.55C85.0392 166.55 85.0493 166.55 85.0595 166.55C85.0696 166.55 85.0797 166.55 85.0899 166.55C85.1 166.55 85.1102 166.55 85.1203 166.55C85.1305 166.55 85.1406 166.55 85.1508 166.55C85.1609 166.55 85.1711 166.55 85.1813 166.55C85.1914 166.55 85.2016 166.55 85.2117 166.55C85.2219 166.55 85.232 166.55 85.2422 166.55C85.2524 166.55 85.2625 166.55 85.2727 166.55C85.2829 166.55 85.293 166.55 85.3032 166.55C85.3134 166.55 85.3235 166.55 85.3337 166.55C85.3439 166.55 85.3541 166.55 85.3642 166.55C85.3744 166.55 85.3846 166.55 85.3948 166.55C85.4049 166.55 85.4151 166.55 85.4253 166.55C85.4355 166.55 85.4457 166.55 85.4558 166.55C85.466 166.55 85.4762 166.55 85.4864 166.55C85.4966 166.55 85.5068 166.55 85.517 166.55C85.5272 166.55 85.5373 166.55 85.5475 166.55C85.5577 166.55 85.5679 166.55 85.5781 166.55C85.5883 166.55 85.5985 166.55 85.6087 166.55C85.6189 166.55 85.6291 166.55 85.6393 166.55C85.6495 166.55 85.6597 166.55 85.6699 166.55C85.6801 166.55 85.6903 166.55 85.7005 166.55C85.7108 166.55 85.721 166.55 85.7312 166.55C85.7414 166.55 85.7516 166.55 85.7618 166.55C85.772 166.55 85.7822 166.55 85.7925 166.55C85.8027 166.55 85.8129 166.55 85.8231 166.55C85.8333 166.55 85.8436 166.55 85.8538 166.55C85.864 166.55 85.8742 166.55 85.8845 166.55C85.8947 166.55 85.9049 166.55 85.9151 166.55C85.9254 166.55 85.9356 166.55 85.9458 166.55C85.9561 166.55 85.9663 166.55 85.9765 166.55C85.9868 166.55 85.997 166.55 86.0072 166.55C86.0175 166.55 86.0277 166.55 86.038 166.55C86.0482 166.55 86.0585 166.55 86.0687 166.55C86.0789 166.55 86.0892 166.55 86.0994 166.55C86.1097 166.55 86.1199 166.55 86.1302 166.55C86.1404 166.55 86.1507 166.55 86.1609 166.55C86.1712 166.55 86.1815 166.55 86.1917 166.55C86.202 166.55 86.2122 166.55 86.2225 166.55C86.2327 166.55 86.243 166.55 86.2533 166.55C86.2635 166.55 86.2738 166.55 86.2841 166.55C86.2943 166.55 86.3046 166.55 86.3149 166.55C86.3251 166.55 86.3354 166.55 86.3457 166.55C86.3559 166.55 86.3662 166.55 86.3765 166.55C86.3868 166.55 86.397 166.55 86.4073 166.55C86.4176 166.55 86.4279 166.55 86.4382 166.55C86.4484 166.55 86.4587 166.55 86.469 166.55C86.4793 166.55 86.4896 166.55 86.4999 166.55C86.5102 166.55 86.5205 166.55 86.5307 166.55C86.541 166.55 86.5513 166.55 86.5616 166.55C86.5719 166.55 86.5822 166.55 86.5925 166.55C86.6028 166.55 86.6131 166.55 86.6234 166.55C86.6337 166.55 86.644 166.55 86.6543 166.55C86.6646 166.55 86.6749 166.55 86.6852 166.55C86.6955 166.55 86.7058 166.55 86.7161 166.55C86.7264 166.55 86.7368 166.55 86.7471 166.55C86.7574 166.55 86.7677 166.55 86.778 166.55C86.7883 166.55 86.7986 166.55 86.809 166.55C86.8193 166.55 86.8296 166.55 86.8399 166.55C86.8502 166.55 86.8606 166.55 86.8709 166.55C86.8812 166.55 86.8915 166.55 86.9019 166.55C86.9122 166.55 86.9225 166.55 86.9328 166.55C86.9432 166.55 86.9535 166.55 86.9638 166.55C86.9742 166.55 86.9845 166.55 86.9948 166.55C87.0052 166.55 87.0155 166.55 87.0259 166.55C87.0362 166.55 87.0465 166.55 87.0569 166.55C87.0672 166.55 87.0776 166.55 87.0879 166.55C87.0983 166.55 87.1086 166.55 87.119 166.55C87.1293 166.55 87.1397 166.55 87.15 166.55C87.1604 166.55 87.1707 166.55 87.1811 166.55C87.1914 166.55 87.2018 166.55 87.2121 166.55C87.2225 166.55 87.2328 166.55 87.2432 166.55C87.2536 166.55 87.2639 166.55 87.2743 166.55C87.2847 166.55 87.295 166.55 87.3054 166.55C87.3158 166.55 87.3261 166.55 87.3365 166.55C87.3469 166.55 87.3572 166.55 87.3676 166.55C87.378 166.55 87.3884 166.55 87.3987 166.55C87.4091 166.55 87.4195 166.55 87.4299 166.55C87.4402 166.55 87.4506 166.55 87.461 166.55C87.4714 166.55 87.4818 166.55 87.4922 166.55C87.5025 166.55 87.5129 166.55 87.5233 166.55C87.5337 166.55 87.5441 166.55 87.5545 166.55C87.5649 166.55 87.5753 166.55 87.5857 166.55C87.5961 166.55 87.6065 166.55 87.6169 166.55C87.6273 166.55 87.6377 166.55 87.6481 166.55C87.6585 166.55 87.6689 166.55 87.6793 166.55C87.6897 166.55 87.7001 166.55 87.7105 166.55C87.7209 166.55 87.7313 166.55 87.7417 166.55C87.7521 166.55 87.7625 166.55 87.7729 166.55C87.7833 166.55 87.7938 166.55 87.8042 166.55C87.8146 166.55 87.825 166.55 87.8354 166.55C87.8458 166.55 87.8563 166.55 87.8667 166.55C87.8771 166.55 87.8875 166.55 87.898 166.55C87.9084 166.55 87.9188 166.55 87.9292 166.55C87.9397 166.55 87.9501 166.55 87.9605 166.55C87.971 166.55 87.9814 166.55 87.9918 166.55C88.0023 166.55 88.0127 166.55 88.0231 166.55C88.0336 166.55 88.044 166.55 88.0544 166.55C88.0649 166.55 88.0753 166.55 88.0858 166.55C88.0962 166.55 88.1067 166.55 88.1171 166.55C88.1275 166.55 88.138 166.55 88.1484 166.55C88.1589 166.55 88.1693 166.55 88.1798 166.55C88.1902 166.55 88.2007 166.55 88.2112 166.55C88.2216 166.55 88.2321 166.55 88.2425 166.55C88.253 166.55 88.2634 166.55 88.2739 166.55C88.2844 166.55 88.2948 166.55 88.3053 166.55C88.3158 166.55 88.3262 166.55 88.3367 166.55C88.3472 166.55 88.3576 166.55 88.3681 166.55C88.3786 166.55 88.389 166.55 88.3995 166.55C88.41 166.55 88.4205 166.55 88.4309 166.55C88.4414 166.55 88.4519 166.55 88.4624 166.55C88.4729 166.55 88.4833 166.55 88.4938 166.55C88.5043 166.55 88.5148 166.55 88.5253 166.55C88.5358 166.55 88.5462 166.55 88.5567 166.55C88.5672 166.55 88.5777 166.55 88.5882 166.55C88.5987 166.55 88.6092 166.55 88.6197 166.55C88.6302 166.55 88.6407 166.55 88.6512 166.55C88.6617 166.55 88.6722 166.55 88.6827 166.55C88.6932 166.55 88.7037 166.55 88.7142 166.55C88.7247 166.55 88.7352 166.55 88.7457 166.55C88.7562 166.55 88.7667 166.55 88.7772 166.55C88.7877 166.55 88.7982 166.55 88.8088 166.55C88.8193 166.55 88.8298 166.55 88.8403 166.55C88.8508 166.55 88.8613 166.55 88.8719 166.55C88.8824 166.55 88.8929 166.55 88.9034 166.55C88.9139 166.55 88.9245 166.55 88.935 166.55C88.9455 166.55 88.956 166.55 88.9666 166.55C88.9771 166.55 88.9876 166.55 88.9982 166.55C89.0087 166.55 89.0192 166.55 89.0298 166.55C89.0403 166.55 89.0508 166.55 89.0614 166.55C89.0719 166.55 89.0825 166.55 89.093 166.55C89.1035 166.55 89.1141 166.55 89.1246 166.55C89.1352 166.55 89.1457 166.55 89.1563 166.55C89.1668 166.55 89.1773 166.55 89.1879 166.55C89.1984 166.55 89.209 166.55 89.2196 166.55C89.2301 166.55 89.2407 166.55 89.2512 166.55C89.2618 166.55 89.2723 166.55 89.2829 166.55C89.2934 166.55 89.304 166.55 89.3146 166.55C89.3251 166.55 89.3357 166.55 89.3463 166.55C89.3568 166.55 89.3674 166.55 89.378 166.55C89.3885 166.55 89.3991 166.55 89.4097 166.55C89.4202 166.55 89.4308 166.55 89.4414 166.55C89.452 166.55 89.4625 166.55 89.4731 166.55C89.4837 166.55 89.4943 166.55 89.5049 166.55C89.5154 166.55 89.526 166.55 89.5366 166.55C89.5472 166.55 89.5578 166.55 89.5684 166.55C89.5789 166.55 89.5895 166.55 89.6001 166.55C89.6107 166.55 89.6213 166.55 89.6319 166.55C89.6425 166.55 89.6531 166.55 89.6637 166.55C89.6743 166.55 89.6849 166.55 89.6955 166.55C89.7061 166.55 89.7167 166.55 89.7273 166.55C89.7379 166.55 89.7485 166.55 89.7591 166.55C89.7697 166.55 89.7803 166.55 89.7909 166.55C89.8015 166.55 89.8121 166.55 89.8227 166.55C89.8333 166.55 89.8439 166.55 89.8546 166.55C89.8652 166.55 89.8758 166.55 89.8864 166.55C89.897 166.55 89.9076 166.55 89.9183 166.55C89.9289 166.55 89.9395 166.55 89.9501 166.55C89.9608 166.55 89.9714 166.55 89.982 166.55C89.9926 166.55 90.0033 166.55 90.0139 166.55C90.0245 166.55 90.0351 166.55 90.0458 166.55C90.0564 166.55 90.067 166.55 90.0777 166.55C90.0883 166.55 90.099 166.55 90.1096 166.55C90.1202 166.55 90.1309 166.55 90.1415 166.55C90.1522 166.55 90.1628 166.55 90.1734 166.55C90.1841 166.55 90.1947 166.55 90.2054 166.55C90.216 166.55 90.2267 166.55 90.2373 166.55C90.248 166.55 90.2586 166.55 90.2693 166.55C90.2799 166.55 90.2906 166.55 90.3012 166.55C90.3119 166.55 90.3226 166.55 90.3332 166.55C90.3439 166.55 90.3545 166.55 90.3652 166.55C90.3759 166.55 90.3865 166.55 90.3972 166.55C90.4079 166.55 90.4185 166.55 90.4292 166.55C90.4399 166.55 90.4505 166.55 90.4612 166.55C90.4719 166.55 90.4826 166.55 90.4932 166.55C90.5039 166.55 90.5146 166.55 90.5253 166.55C90.5359 166.55 90.5466 166.55 90.5573 166.55C90.568 166.55 90.5787 166.55 90.5894 166.55C90.6 166.55 90.6107 166.55 90.6214 166.55C90.6321 166.55 90.6428 166.55 90.6535 166.55C90.6642 166.55 90.6749 166.55 90.6856 166.55C90.6962 166.55 90.7069 166.55 90.7176 166.55C90.7283 166.55 90.739 166.55 90.7497 166.55C90.7604 166.55 90.7711 166.55 90.7818 166.55C90.7925 166.55 90.8032 166.55 90.8139 166.55C90.8247 166.55 90.8354 166.55 90.8461 166.55C90.8568 166.55 90.8675 166.55 90.8782 166.55C90.8889 166.55 90.8996 166.55 90.9103 166.55C90.9211 166.55 90.9318 166.55 90.9425 166.55C90.9532 166.55 90.9639 166.55 90.9746 166.55C90.9854 166.55 90.9961 166.55 91.0068 166.55C91.0175 166.55 91.0283 166.55 91.039 166.55C91.0497 166.55 91.0604 166.55 91.0712 166.55C91.0819 166.55 91.0926 166.55 91.1034 166.55C91.1141 166.55 91.1248 166.55 91.1356 166.55C91.1463 166.55 91.157 166.55 91.1678 166.55C91.1785 166.55 91.1893 166.55 91.2 166.55C91.2107 166.55 91.2215 166.55 91.2322 166.55C91.243 166.55 91.2537 166.55 91.2645 166.55C91.2752 166.55 91.286 166.55 91.2967 166.55C91.3075 166.55 91.3182 166.55 91.329 166.55C91.3397 166.55 91.3505 166.55 91.3613 166.55C91.372 166.55 91.3828 166.55 91.3935 166.55C91.4043 166.55 91.4151 166.55 91.4258 166.55C91.4366 166.55 91.4473 166.55 91.4581 166.55C91.4689 166.55 91.4796 166.55 91.4904 166.55C91.5012 166.55 91.512 166.55 91.5227 166.55C91.5335 166.55 91.5443 166.55 91.5551 166.55C91.5658 166.55 91.5766 166.55 91.5874 166.55C91.5982 166.55 91.6089 166.55 91.6197 166.55C91.6305 166.55 91.6413 166.55 91.6521 166.55C91.6629 166.55 91.6736 166.55 91.6844 166.55C91.6952 166.55 91.706 166.55 91.7168 166.55C91.7276 166.55 91.7384 166.55 91.7492 166.55C91.76 166.55 91.7708 166.55 91.7816 166.55C91.7924 166.55 91.8032 166.55 91.814 166.55C91.8248 166.55 91.8356 166.55 91.8464 166.55C91.8572 166.55 91.868 166.55 91.8788 166.55C91.8896 166.55 91.9004 166.55 91.9112 166.55C91.922 166.55 91.9328 166.55 91.9436 166.55C91.9544 166.55 91.9653 166.55 91.9761 166.55C91.9869 166.55 91.9977 166.55 92.0085 166.55C92.0193 166.55 92.0302 166.55 92.041 166.55C92.0518 166.55 92.0626 166.55 92.0735 166.55C92.0843 166.55 92.0951 166.55 92.1059 166.55C92.1168 166.55 92.1276 166.55 92.1384 166.55C92.1493 166.55 92.1601 166.55 92.1709 166.55C92.1818 166.55 92.1926 166.55 92.2034 166.55C92.2143 166.55 92.2251 166.55 92.2359 166.55C92.2468 166.55 92.2576 166.55 92.2685 166.55C92.2793 166.55 92.2902 166.55 92.301 166.55C92.3118 166.55 92.3227 166.55 92.3335 166.55C92.3444 166.55 92.3552 166.55 92.3661 166.55C92.3769 166.55 92.3878 166.55 92.3987 166.55C92.4095 166.55 92.4204 166.55 92.4312 166.55C92.4421 166.55 92.4529 166.55 92.4638 166.55C92.4747 166.55 92.4855 166.55 92.4964 166.55C92.5073 166.55 92.5181 166.55 92.529 166.55C92.5399 166.55 92.5507 166.55 92.5616 166.55C92.5725 166.55 92.5833 166.55 92.5942 166.55C92.6051 166.55 92.616 166.55 92.6268 166.55C92.6377 166.55 92.6486 166.55 92.6595 166.55C92.6703 166.55 92.6812 166.55 92.6921 166.55C92.703 166.55 92.7139 166.55 92.7248 166.55C92.7357 166.55 92.7465 166.55 92.7574 166.55C92.7683 166.55 92.7792 166.55 92.7901 166.55C92.801 166.55 92.8119 166.55 92.8228 166.55C92.8337 166.55 92.8446 166.55 92.8555 166.55C92.8664 166.55 92.8773 166.55 92.8882 166.55C92.8991 166.55 92.91 166.55 92.9209 166.55C92.9318 166.55 92.9427 166.55 92.9536 166.55C92.9645 166.55 92.9754 166.55 92.9863 166.55C92.9972 166.55 93.0081 166.55 93.019 166.55C93.03 166.55 93.0409 166.55 93.0518 166.55C93.0627 166.55 93.0736 166.55 93.0845 166.55C93.0955 166.55 93.1064 166.55 93.1173 166.55C93.1282 166.55 93.1392 166.55 93.1501 166.55C93.161 166.55 93.1719 166.55 93.1829 166.55C93.1938 166.55 93.2047 166.55 93.2156 166.55C93.2266 166.55 93.2375 166.55 93.2484 166.55C93.2594 166.55 93.2703 166.55 93.2813 166.55C93.2922 166.55 93.3031 166.55 93.3141 166.55C93.325 166.55 93.336 166.55 93.3469 166.55C93.3578 166.55 93.3688 166.55 93.3797 166.55C93.3907 166.55 93.4016 166.55 93.4126 166.55C93.4235 166.55 93.4345 166.55 93.4454 166.55C93.4564 166.55 93.4673 166.55 93.4783 166.55C93.4893 166.55 93.5002 166.55 93.5112 166.55C93.5221 166.55 93.5331 166.55 93.544 166.55C93.555 166.55 93.566 166.55 93.5769 166.55C93.5879 166.55 93.5989 166.55 93.6098 166.55C93.6208 166.55 93.6318 166.55 93.6427 166.55C93.6537 166.55 93.6647 166.55 93.6757 166.55C93.6866 166.55 93.6976 166.55 93.7086 166.55C93.7196 166.55 93.7305 166.55 93.7415 166.55C93.7525 166.55 93.7635 166.55 93.7745 166.55C93.7855 166.55 93.7964 166.55 93.8074 166.55C93.8184 166.55 93.8294 166.55 93.8404 166.55C93.8514 166.55 93.8624 166.55 93.8734 166.55C93.8844 166.55 93.8953 166.55 93.9063 166.55C93.9173 166.55 93.9283 166.55 93.9393 166.55C93.9503 166.55 93.9613 166.55 93.9723 166.55C93.9833 166.55 93.9943 166.55 94.0053 166.55C94.0163 166.55 94.0274 166.55 94.0384 166.55C94.0494 166.55 94.0604 166.55 94.0714 166.55C94.0824 166.55 94.0934 166.55 94.1044 166.55C94.1154 166.55 94.1265 166.55 94.1375 166.55C94.1485 166.55 94.1595 166.55 94.1705 166.55C94.1815 166.55 94.1926 166.55 94.2036 166.55C94.2146 166.55 94.2256 166.55 94.2367 166.55C94.2477 166.55 94.2587 166.55 94.2697 166.55C94.2808 166.55 94.2918 166.55 94.3028 166.55C94.3139 166.55 94.3249 166.55 94.3359 166.55C94.347 166.55 94.358 166.55 94.3691 166.55C94.3801 166.55 94.3911 166.55 94.4022 166.55C94.4132 166.55 94.4243 166.55 94.4353 166.55C94.4463 166.55 94.4574 166.55 94.4684 166.55C94.4795 166.55 94.4905 166.55 94.5016 166.55C94.5126 166.55 94.5237 166.55 94.5347 166.55C94.5458 166.55 94.5568 166.55 94.5679 166.55C94.579 166.55 94.59 166.55 94.6011 166.55C94.6121 166.55 94.6232 166.55 94.6343 166.55C94.6453 166.55 94.6564 166.55 94.6675 166.55C94.6785 166.55 94.6896 166.55 94.7007 166.55C94.7117 166.55 94.7228 166.55 94.7339 166.55C94.7449 166.55 94.756 166.55 94.7671 166.55C94.7782 166.55 94.7892 166.55 94.8003 166.55C94.8114 166.55 94.8225 166.55 94.8336 166.55C94.8446 166.55 94.8557 166.55 94.8668 166.55C94.8779 166.55 94.889 166.55 94.9001 166.55C94.9111 166.55 94.9222 166.55 94.9333 166.55C94.9444 166.55 94.9555 166.55 94.9666 166.55C94.9777 166.55 94.9888 166.55 94.9999 166.55C95.011 166.55 95.0221 166.55 95.0332 166.55C95.0443 166.55 95.0554 166.55 95.0665 166.55C95.0776 166.55 95.0887 166.55 95.0998 166.55C95.1109 166.55 95.122 166.55 95.1331 166.55C95.1442 166.55 95.1553 166.55 95.1664 166.55C95.1776 166.55 95.1887 166.55 95.1998 166.55C95.2109 166.55 95.222 166.55 95.2331 166.55C95.2442 166.55 95.2554 166.55 95.2665 166.55C95.2776 166.55 95.2887 166.55 95.2999 166.55C95.311 166.55 95.3221 166.55 95.3332 166.55C95.3444 166.55 95.3555 166.55 95.3666 166.55C95.3777 166.55 95.3889 166.55 95.4 166.55V154.55ZM79.5 154.55L79.75 142.553C74.6182 142.446 69.5297 142.552 64.4856 142.874L65.25 154.85L66.0144 166.826C70.3703 166.548 74.7818 166.454 79.2501 166.547L79.5 154.55ZM65.25 154.85L64.7398 142.861C59.656 143.077 54.1747 143.56 48.3116 144.293L49.8 156.2L51.2884 168.107C56.6253 167.44 61.444 167.023 65.7602 166.839L65.25 154.85ZM49.8 156.2L49.0018 144.227C51.6699 144.049 53.5884 145.047 54.4575 145.664C55.2139 146.201 55.349 146.548 55.0009 146.047L45.15 152.9L35.2991 159.753C37.2745 162.592 42.2731 168.728 50.5982 168.173L49.8 156.2ZM45.15 152.9L55.1346 146.244C54.8563 145.826 54.75 145.495 54.75 144.95H42.75H30.75C30.75 150.205 32.2437 155.174 35.1654 159.556L45.15 152.9ZM144.016 132.2L132.573 128.586L132.573 128.586L144.016 132.2ZM151.666 116.9L142.092 109.666L142.04 109.734L141.99 109.804L151.666 116.9ZM163.966 106.25L169.682 116.801L169.72 116.781L169.758 116.76L163.966 106.25ZM190.816 104.15L185.908 115.1L186.132 115.201L186.36 115.292L190.816 104.15ZM198.766 109.4L190.281 117.885L205.651 133.255L210.468 112.059L198.766 109.4ZM201.316 104L210.427 111.81L210.427 111.809L201.316 104ZM217.216 104.6L210.56 114.585L210.69 114.671L210.823 114.755L217.216 104.6ZM221.116 111.2L233.108 111.644L233.108 111.644L221.116 111.2ZM219.766 122.3L231.589 124.356L231.593 124.335L231.596 124.314L219.766 122.3ZM217.666 135.95L229.546 137.647L229.554 137.592L229.561 137.536L217.666 135.95ZM216.766 141.35L204.96 139.203L204.912 139.465L204.876 139.729L216.766 141.35ZM215.866 147.95L203.976 146.329L203.944 146.57L203.92 146.812L215.866 147.95ZM215.416 153.35L227.39 154.148L227.39 154.148L215.416 153.35ZM216.166 164.9L227.482 160.906L227.482 160.906L216.166 164.9ZM221.266 166.85L214.61 156.865L214.61 156.865L221.266 166.85ZM223.066 165.2L216.185 155.369L214.942 156.239L213.955 157.39L223.066 165.2ZM225.616 163.55L231.57 173.969L231.776 173.851L231.976 173.726L225.616 163.55ZM232.366 164.3L224.294 173.179L224.713 173.56L225.166 173.9L232.366 164.3ZM235.066 168.05L223.83 172.263L223.943 172.565L224.073 172.86L235.066 168.05ZM235.216 173.45L223.722 170.002L223.578 170.485L223.474 170.978L235.216 173.45ZM231.316 179.3L239.388 188.179L239.388 188.179L231.316 179.3ZM223.516 184.4L228.425 195.35L228.508 195.313L228.591 195.274L223.516 184.4ZM206.866 184.55L201.151 195.102L201.324 195.195L201.5 195.283L206.866 184.55ZM200.716 179.45L191.012 186.508L191.194 186.759L191.389 187L200.716 179.45ZM197.416 171.8L209.168 169.369L203.352 141.263L187.432 165.144L197.416 171.8ZM187.066 181.55L180.857 171.281L180.804 171.314L180.75 171.347L187.066 181.55ZM155.866 180.8L149.259 190.817L149.259 190.817L155.866 180.8ZM145.066 168.2L134.177 173.241L134.195 173.281L134.213 173.319L145.066 168.2ZM167.716 157.55L156.129 160.67L156.145 160.728L156.161 160.786L167.716 157.55ZM170.866 163.55L162.094 171.738L162.235 171.889L162.381 172.035L170.866 163.55ZM181.966 164.45L188.14 174.74L188.385 174.593L188.623 174.435L181.966 164.45ZM186.016 160.55L195.616 167.75L195.72 167.612L195.82 167.47L186.016 160.55ZM188.866 154.7L177.532 150.758L177.48 150.909L177.431 151.062L188.866 154.7ZM190.966 147.5L202.635 150.3L202.635 150.3L190.966 147.5ZM192.466 139.85L180.606 138.025L180.606 138.025L192.466 139.85ZM193.516 132.2L181.602 130.77L181.602 130.77L193.516 132.2ZM194.266 124.85L206.225 125.847L206.71 120.029L202.432 116.056L194.266 124.85ZM189.466 121.85L184.593 132.816L184.852 132.931L185.117 133.034L189.466 121.85ZM176.566 122.9L183.223 132.885L183.384 132.777L183.541 132.665L176.566 122.9ZM167.716 137.9L156.035 135.152L155.997 135.315L155.963 135.48L167.716 137.9ZM141.316 149.9H153.316C153.316 145 154.036 140.321 155.459 135.814L144.016 132.2L132.573 128.586C130.397 135.479 129.316 142.6 129.316 149.9H141.316ZM144.016 132.2L155.459 135.814C156.893 131.274 158.872 127.367 161.343 123.996L151.666 116.9L141.99 109.804C137.861 115.433 134.74 121.726 132.573 128.586L144.016 132.2ZM151.666 116.9L161.241 124.134C163.642 120.956 166.441 118.557 169.682 116.801L163.966 106.25L158.251 95.6985C151.892 99.1431 146.491 103.844 142.092 109.666L151.666 116.9ZM163.966 106.25L169.758 116.76C172.698 115.14 176.218 114.2 180.616 114.2V102.2V90.2C172.615 90.2 165.035 91.96 158.175 95.7399L163.966 106.25ZM180.616 102.2V114.2C183.2 114.2 184.861 114.631 185.908 115.1L190.816 104.15L195.725 93.1999C190.972 91.0693 185.833 90.2 180.616 90.2V102.2ZM190.816 104.15L186.36 115.292C187.84 115.884 189.122 116.727 190.281 117.885L198.766 109.4L207.252 100.915C203.81 97.4735 199.792 94.816 195.273 93.0083L190.816 104.15ZM198.766 109.4L210.468 112.059C210.55 111.699 210.623 111.54 210.63 111.524C210.634 111.516 210.578 111.634 210.427 111.81L201.316 104L192.205 96.1905C189.483 99.3668 187.902 103.059 187.065 106.741L198.766 109.4ZM201.316 104L210.427 111.809C209.301 113.124 208.091 113.657 207.544 113.835C207.067 113.991 207.044 113.9 207.766 113.9V101.9V89.9C203.466 89.9 196.847 90.7753 192.205 96.1905L201.316 104ZM207.766 101.9V113.9C209.267 113.9 210.044 114.241 210.56 114.585L217.216 104.6L223.873 94.6154C218.989 91.3594 213.466 89.9 207.766 89.9V101.9ZM217.216 104.6L210.823 114.755C210.95 114.835 210.419 114.532 209.885 113.63C209.298 112.635 209.095 111.565 209.125 110.756L221.116 111.2L233.108 111.644C233.398 103.821 229.156 97.937 223.61 94.4452L217.216 104.6ZM221.116 111.2L209.125 110.756C209.053 112.678 208.704 115.778 207.937 120.286L219.766 122.3L231.596 124.314C232.429 119.422 232.979 115.122 233.108 111.644L221.116 111.2ZM219.766 122.3L207.944 120.244C207.117 124.996 206.393 129.702 205.772 134.364L217.666 135.95L229.561 137.536C230.14 133.198 230.815 128.804 231.589 124.356L219.766 122.3ZM217.666 135.95L205.787 134.253C205.617 135.443 205.346 137.078 204.96 139.203L216.766 141.35L228.573 143.497C228.986 141.222 229.316 139.257 229.546 137.647L217.666 135.95ZM216.766 141.35L204.876 139.729C204.576 141.929 204.276 144.129 203.976 146.329L215.866 147.95L227.756 149.571C228.056 147.371 228.356 145.171 228.656 142.971L216.766 141.35ZM215.866 147.95L203.92 146.812C203.714 148.984 203.553 150.904 203.443 152.552L215.416 153.35L227.39 154.148C227.48 152.796 227.619 151.116 227.812 149.088L215.866 147.95ZM215.416 153.35L203.443 152.552C203.319 154.417 203.266 156.607 203.266 159.05H215.266H227.266C227.266 156.893 227.314 155.283 227.39 154.148L215.416 153.35ZM215.266 159.05H203.266C203.266 162.321 203.71 165.664 204.851 168.894L216.166 164.9L227.482 160.906C227.422 160.736 227.266 160.179 227.266 159.05H215.266ZM216.166 164.9L204.851 168.894C205.604 171.028 206.986 173.738 209.595 175.956C212.416 178.354 215.824 179.45 219.166 179.45V167.45V155.45C221.108 155.45 223.317 156.121 225.138 157.669C226.747 159.037 227.329 160.472 227.482 160.906L216.166 164.9ZM219.166 167.45V179.45C222.066 179.45 225.139 178.691 227.923 176.835L221.266 166.85L214.61 156.865C216.194 155.809 217.867 155.45 219.166 155.45V167.45ZM221.266 166.85L227.923 176.835C229.649 175.684 231.051 174.324 232.177 173.01L223.066 165.2L213.955 157.39C213.928 157.422 213.96 157.381 214.058 157.292C214.155 157.202 214.337 157.047 214.61 156.865L221.266 166.85ZM223.066 165.2L229.948 175.031C230.783 174.446 231.305 174.12 231.57 173.969L225.616 163.55L219.663 153.131C218.528 153.78 217.35 154.554 216.185 155.369L223.066 165.2ZM225.616 163.55L231.976 173.726C230.414 174.703 229.06 174.8 228.616 174.8V162.8V150.8C225.773 150.8 222.419 151.397 219.256 153.374L225.616 163.55ZM228.616 162.8V174.8C227.852 174.8 226.996 174.656 226.147 174.317C225.31 173.982 224.694 173.543 224.294 173.179L232.366 164.3L240.438 155.421C237.279 152.549 233.198 150.8 228.616 150.8V162.8ZM232.366 164.3L225.166 173.9C224.768 173.601 224.444 173.259 224.203 172.924C223.969 172.599 223.863 172.351 223.83 172.263L235.066 168.05L246.302 163.837C245.013 160.399 242.843 157.158 239.566 154.7L232.366 164.3ZM235.066 168.05L224.073 172.86C223.785 172.202 223.65 171.527 223.634 170.933C223.618 170.368 223.712 170.036 223.722 170.002L235.216 173.45L246.71 176.898C247.961 172.731 248.114 167.934 246.06 163.24L235.066 168.05ZM235.216 173.45L223.474 170.978C223.646 170.16 223.931 169.72 223.957 169.681C223.971 169.66 223.934 169.718 223.816 169.851C223.698 169.984 223.514 170.175 223.244 170.421L231.316 179.3L239.388 188.179C242.524 185.329 245.829 181.288 246.959 175.922L235.216 173.45ZM231.316 179.3L223.244 170.421C222.032 171.522 220.471 172.579 218.442 173.526L223.516 184.4L228.591 195.274C232.562 193.421 236.2 191.078 239.388 188.179L231.316 179.3ZM223.516 184.4L218.608 173.45C217.102 174.125 215.868 174.35 214.816 174.35V186.35V198.35C219.565 198.35 224.131 197.275 228.425 195.35L223.516 184.4ZM214.816 186.35V174.35C213.626 174.35 212.835 174.118 212.233 173.817L206.866 184.55L201.5 195.283C205.698 197.382 210.207 198.35 214.816 198.35V186.35ZM206.866 184.55L212.582 173.998C211.557 173.443 210.738 172.758 210.043 171.9L200.716 179.45L191.389 187C194.094 190.342 197.376 193.057 201.151 195.102L206.866 184.55ZM200.716 179.45L210.421 172.392C209.911 171.69 209.453 170.748 209.168 169.369L197.416 171.8L185.665 174.231C186.58 178.652 188.322 182.81 191.012 186.508L200.716 179.45ZM197.416 171.8L187.432 165.144C185.879 167.473 183.759 169.526 180.857 171.281L187.066 181.55L193.275 191.819C198.973 188.374 203.754 183.927 207.401 178.456L197.416 171.8ZM187.066 181.55L180.75 171.347C178.587 172.686 176.054 173.45 172.816 173.45V185.45V197.45C180.178 197.45 187.146 195.614 193.383 191.753L187.066 181.55ZM172.816 185.45V173.45C168.152 173.45 164.894 172.379 162.474 170.783L155.866 180.8L149.259 190.817C156.239 195.421 164.281 197.45 172.816 197.45V185.45ZM155.866 180.8L162.474 170.783C159.688 168.946 157.52 166.475 155.92 163.081L145.066 168.2L134.213 173.319C137.612 180.525 142.644 186.454 149.259 190.817L155.866 180.8ZM145.066 168.2L155.956 163.159C154.285 159.549 153.316 155.207 153.316 149.9H141.316H129.316C129.316 158.193 130.848 166.051 134.177 173.241L145.066 168.2ZM166.666 148.85H154.666C154.666 152.912 155.109 156.883 156.129 160.67L167.716 157.55L179.304 154.43C178.923 153.017 178.666 151.188 178.666 148.85H166.666ZM167.716 157.55L156.161 160.786C157.245 164.657 159.081 168.51 162.094 171.738L170.866 163.55L179.639 155.362C179.851 155.59 179.588 155.443 179.272 154.314L167.716 157.55ZM170.866 163.55L162.381 172.035C166.434 176.089 171.589 177.8 176.716 177.8V165.8V153.8C176.773 153.8 177.174 153.811 177.762 154.037C178.378 154.275 178.933 154.646 179.352 155.065L170.866 163.55ZM176.716 165.8V177.8C180.574 177.8 184.521 176.912 188.14 174.74L181.966 164.45L175.792 154.16C176.067 153.995 176.332 153.894 176.54 153.841C176.739 153.789 176.814 153.8 176.716 153.8V165.8ZM181.966 164.45L188.623 174.435C191.372 172.602 193.689 170.32 195.616 167.75L186.016 160.55L176.416 153.35C175.944 153.98 175.561 154.298 175.31 154.465L181.966 164.45ZM186.016 160.55L195.82 167.47C197.802 164.663 199.269 161.583 200.302 158.338L188.866 154.7L177.431 151.062C177.064 152.217 176.631 153.037 176.213 153.63L186.016 160.55ZM188.866 154.7L200.2 158.642C201.138 155.947 201.948 153.165 202.635 150.3L190.966 147.5L179.298 144.7C178.785 146.835 178.195 148.853 177.532 150.758L188.866 154.7ZM190.966 147.5L202.635 150.3C203.314 147.471 203.878 144.595 204.327 141.675L192.466 139.85L180.606 138.025C180.255 140.305 179.819 142.529 179.298 144.7L190.966 147.5ZM192.466 139.85L204.327 141.675C204.746 138.949 205.114 136.267 205.431 133.63L193.516 132.2L181.602 130.77C181.318 133.133 180.987 135.551 180.606 138.025L192.466 139.85ZM193.516 132.2L205.431 133.63C205.747 130.992 206.012 128.398 206.225 125.847L194.266 124.85L182.308 123.853C182.12 126.102 181.885 128.408 181.602 130.77L193.516 132.2ZM194.266 124.85L202.432 116.056C199.91 113.715 197.011 111.909 193.816 110.666L189.466 121.85L185.117 133.034C185.521 133.191 185.823 133.385 186.101 133.644L194.266 124.85ZM189.466 121.85L194.34 110.884C190.982 109.392 187.419 108.65 183.766 108.65V120.65V132.65C184.114 132.65 184.351 132.708 184.593 132.816L189.466 121.85ZM183.766 120.65V108.65C178.688 108.65 173.825 110.112 169.592 113.135L176.566 122.9L183.541 132.665C183.569 132.645 183.577 132.643 183.564 132.649C183.552 132.655 183.535 132.662 183.521 132.666C183.507 132.671 183.512 132.668 183.544 132.663C183.576 132.658 183.648 132.65 183.766 132.65V120.65ZM176.566 122.9L169.91 112.915C166.009 115.516 163.022 119.004 160.772 122.903L171.166 128.9L181.561 134.897C182.311 133.596 182.923 133.084 183.223 132.885L176.566 122.9ZM171.166 128.9L160.772 122.903C158.601 126.667 157.061 130.794 156.035 135.152L167.716 137.9L179.397 140.648C179.972 138.206 180.732 136.333 181.561 134.897L171.166 128.9ZM167.716 137.9L155.963 135.48C155.08 139.767 154.666 144.235 154.666 148.85H166.666H178.666C178.666 145.665 178.952 142.833 179.47 140.32L167.716 137.9Z" fill="var(--pageColor)" mask="url(#path-2-outside-1_4249_3)"/>
<path d="M44.85 178.7C43.95 181.7 42.3 183.85 39.9 185.15C37.6 186.55 34.05 187.25 29.25 187.25C25.25 187.25 22.45 186.45 20.85 184.85C19.25 183.25 18.45 181.55 18.45 179.75C18.45 177.85 18.75 175.95 19.35 174.05C19.95 172.15 20.6 170.25 21.3 168.35C24.7 159.65 28.1 151.25 31.5 143.15C35 135.05 38.45 127.25 41.85 119.75C45.35 112.15 48.8 104.8 52.2 97.7C55.6 90.6 59 83.75 62.4 77.15C64.2 73.45 66.35 70.8 68.85 69.2C71.45 67.5 74.45 66.65 77.85 66.65C82.15 66.65 85.8 67.5 88.8 69.2C91.8 70.9 93.8 73.15 94.8 75.95C95.2 76.75 96.05 79.2 97.35 83.3C98.75 87.3 100.5 92.4 102.6 98.6C104.7 104.7 106.95 111.3 109.35 118.4C111.85 125.5 114.4 132.55 117 139.55C119.6 146.45 122.05 152.8 124.35 158.6C126.75 164.4 128.8 168.95 130.5 172.25C131.1 173.25 131.6 174.45 132 175.85C132.5 177.15 132.75 178.2 132.75 179C132.75 181.2 131.55 183.2 129.15 185C126.85 186.9 123.7 187.85 119.7 187.85C117 187.85 114.55 187.5 112.35 186.8C110.25 186.2 108.55 184.6 107.25 182C104.15 175.8 101.25 168.8 98.55 161C95.85 153.2 93.3 145.25 90.9 137.15C88.6 128.95 86.3 121.15 84 113.75C81.8 106.35 79.65 99.9 77.55 94.4C72.65 104.9 68.25 115.15 64.35 125.15C60.45 135.05 56.9 144.5 53.7 153.5C50.6 162.5 47.65 170.9 44.85 178.7ZM42.75 144.95C42.75 142.55 43.4 140.6 44.7 139.1C46.1 137.6 47.65 136.5 49.35 135.8C51.05 135 52.45 134.5 53.55 134.3C55.75 133.8 58.35 133.35 61.35 132.95C64.45 132.45 68.15 132.2 72.45 132.2C76.85 132.1 82.05 132.4 88.05 133.1C88.95 133.2 90.6 133.2 93 133.1C95.5 132.9 98.2 132.7 101.1 132.5C104.1 132.2 106.85 131.9 109.35 131.6C111.95 131.3 113.8 131.1 114.9 131C117.7 130.7 119.95 131.35 121.65 132.95C123.45 134.45 124.35 136.75 124.35 139.85C124.35 142.65 123.35 145 121.35 146.9C119.35 148.8 116.75 150.35 113.55 151.55C110.45 152.65 107.25 153.45 103.95 153.95C100.75 154.35 97.9 154.55 95.4 154.55C89.7 154.55 84.4 154.55 79.5 154.55C74.7 154.45 69.95 154.55 65.25 154.85C60.55 155.05 55.4 155.5 49.8 156.2C48.3 156.3 46.75 155.2 45.15 152.9C43.55 150.5 42.75 147.85 42.75 144.95ZM141.316 149.9C141.316 143.8 142.216 137.9 144.016 132.2C145.816 126.5 148.366 121.4 151.666 116.9C155.066 112.4 159.166 108.85 163.966 106.25C168.866 103.55 174.416 102.2 180.616 102.2C184.516 102.2 187.916 102.85 190.816 104.15C193.816 105.35 196.466 107.1 198.766 109.4C199.266 107.2 200.116 105.4 201.316 104C202.516 102.6 204.666 101.9 207.766 101.9C211.366 101.9 214.516 102.8 217.216 104.6C219.916 106.3 221.216 108.5 221.116 111.2C221.016 113.9 220.566 117.6 219.766 122.3C218.966 126.9 218.266 131.45 217.666 135.95C217.466 137.35 217.166 139.15 216.766 141.35C216.466 143.55 216.166 145.75 215.866 147.95C215.666 150.05 215.516 151.85 215.416 153.35C215.316 154.85 215.266 156.75 215.266 159.05C215.266 161.25 215.566 163.2 216.166 164.9C216.766 166.6 217.766 167.45 219.166 167.45C219.966 167.45 220.666 167.25 221.266 166.85C221.866 166.45 222.466 165.9 223.066 165.2C224.066 164.5 224.916 163.95 225.616 163.55C226.416 163.05 227.416 162.8 228.616 162.8C230.016 162.8 231.266 163.3 232.366 164.3C233.566 165.2 234.466 166.45 235.066 168.05C235.766 169.65 235.816 171.45 235.216 173.45C234.816 175.35 233.516 177.3 231.316 179.3C229.116 181.3 226.516 183 223.516 184.4C220.616 185.7 217.716 186.35 214.816 186.35C211.916 186.35 209.266 185.75 206.866 184.55C204.466 183.25 202.416 181.55 200.716 179.45C199.116 177.25 198.016 174.7 197.416 171.8C194.816 175.7 191.366 178.95 187.066 181.55C182.866 184.15 178.116 185.45 172.816 185.45C166.216 185.45 160.566 183.9 155.866 180.8C151.166 177.7 147.566 173.5 145.066 168.2C142.566 162.8 141.316 156.7 141.316 149.9ZM166.666 148.85C166.666 152.05 167.016 154.95 167.716 157.55C168.416 160.05 169.466 162.05 170.866 163.55C172.366 165.05 174.316 165.8 176.716 165.8C178.716 165.8 180.466 165.35 181.966 164.45C183.466 163.45 184.816 162.15 186.016 160.55C187.216 158.85 188.166 156.9 188.866 154.7C189.666 152.4 190.366 150 190.966 147.5C191.566 145 192.066 142.45 192.466 139.85C192.866 137.25 193.216 134.7 193.516 132.2C193.816 129.7 194.066 127.25 194.266 124.85C192.866 123.55 191.266 122.55 189.466 121.85C187.666 121.05 185.766 120.65 183.766 120.65C181.066 120.65 178.666 121.4 176.566 122.9C174.466 124.3 172.666 126.3 171.166 128.9C169.666 131.5 168.516 134.5 167.716 137.9C167.016 141.3 166.666 144.95 166.666 148.85Z" fill="var(--darkGray)"/>
</g>
</svg>
