<svg viewBox="0 0 1124 230" fill="none" xmlns="http://www.w3.org/2000/svg">
<path d="M77.744 174.765C74.6233 174.765 71.8047 174.161 69.288 172.953C66.7713 171.745 65.513 169.581 65.513 166.46C65.513 165.453 65.5633 163.994 65.664 162.081C65.8653 160.168 66.117 157.098 66.419 152.87C66.721 148.642 67.023 142.703 67.325 135.052C67.7277 127.401 68.1303 117.385 68.533 105.003C68.7343 98.1577 68.8853 91.4633 68.986 84.92C69.0867 78.276 69.137 72.1857 69.137 66.649C69.137 63.5283 70.4457 61.364 73.063 60.156C75.781 58.8473 78.7003 58.193 81.821 58.193C82.6263 58.193 83.3813 58.2937 84.086 58.495C84.8913 58.5957 85.9483 58.646 87.257 58.646C91.0823 58.646 94.8573 58.3943 98.582 57.891C102.407 57.287 106.182 56.985 109.907 56.985C117.457 56.985 124.302 58.4447 130.443 61.364C136.584 64.1827 141.466 68.2093 145.09 73.444C148.714 78.578 150.526 84.6683 150.526 91.715C150.526 99.7683 148.915 106.261 145.694 111.194C142.573 116.026 138.295 119.7 132.859 122.217C127.423 124.633 121.182 126.294 114.135 127.2C107.189 128.106 99.8907 128.559 92.24 128.559C92.0387 136.411 91.7367 142.904 91.334 148.038C90.9313 153.071 90.579 157.048 90.277 159.967C89.975 162.786 89.824 164.95 89.824 166.46C89.824 169.581 88.5657 171.745 86.049 172.953C83.5323 174.161 80.764 174.765 77.744 174.765ZM92.542 109.533C96.468 109.432 100.394 109.231 104.32 108.929C108.246 108.627 111.769 107.922 114.89 106.815C118.111 105.708 120.678 103.996 122.591 101.681C124.504 99.265 125.46 95.8423 125.46 91.413C125.46 90.0037 125.208 88.4433 124.705 86.732C124.202 84.92 123.346 83.2087 122.138 81.598C120.93 79.9873 119.219 78.6787 117.004 77.672C114.789 76.6653 112.021 76.162 108.699 76.162C106.283 76.162 103.766 76.4137 101.149 76.917C98.6323 77.3197 96.0653 77.521 93.448 77.521C93.3473 82.8563 93.2467 88.091 93.146 93.225C93.0453 98.2583 92.844 103.694 92.542 109.533ZM164.376 57.438C164.577 53.814 165.684 51.3477 167.698 50.039C169.711 48.6297 172.63 47.925 176.456 47.925C178.57 47.925 180.583 48.2773 182.496 48.982C184.509 49.586 186.069 50.5927 187.177 52.002C188.385 53.3107 188.888 55.1227 188.687 57.438C188.284 64.082 187.982 71.0783 187.781 78.427C187.68 85.7757 187.63 93.074 187.63 100.322C187.73 107.469 187.781 114.264 187.781 120.707L187.177 137.77C187.177 144.615 187.026 150.353 186.724 154.984C186.522 159.514 186.17 162.635 185.667 164.346C184.66 168.071 183.301 170.587 181.59 171.896C179.878 173.104 177.714 173.708 175.097 173.708C170.365 173.708 166.741 172.802 164.225 170.99C161.809 169.178 160.852 166.359 161.356 162.534C161.557 161.024 161.758 158.658 161.96 155.437C162.262 152.115 162.513 148.39 162.715 144.263C163.017 140.136 163.218 136.109 163.319 132.183C163.52 128.257 163.621 124.935 163.621 122.217C163.621 111.647 163.621 102.436 163.621 94.584C163.721 86.732 163.822 79.786 163.923 73.746C164.023 67.706 164.174 62.27 164.376 57.438ZM199.603 136.26C199.603 126.999 201.264 119.096 204.586 112.553C208.009 105.909 212.489 100.825 218.025 97.302C223.663 93.678 229.803 91.866 236.447 91.866C239.065 91.866 241.783 92.2183 244.601 92.923C247.42 93.6277 250.138 94.4833 252.755 95.49C255.373 96.396 257.587 97.4027 259.399 98.51L260.305 95.792C260.909 94.1813 262.017 92.772 263.627 91.564C265.339 90.356 267.352 89.752 269.667 89.752C272.889 89.752 275.808 90.8593 278.425 93.074C281.043 95.188 282.351 98.1073 282.351 101.832C282.351 103.443 282.2 105.506 281.898 108.023C281.596 110.439 281.093 113.358 280.388 116.781C279.784 120.103 278.929 123.777 277.821 127.804C276.815 131.73 275.456 135.958 273.744 140.488C273.744 143.911 273.996 146.679 274.499 148.793C275.003 150.907 275.758 152.417 276.764 153.323C277.771 154.229 279.029 154.682 280.539 154.682C281.848 154.682 282.955 154.279 283.861 153.474C284.868 152.568 285.875 151.36 286.881 149.85C287.888 148.441 288.844 147.484 289.75 146.981C290.656 146.377 291.864 146.075 293.374 146.075C295.69 146.075 297.552 146.931 298.961 148.642C300.471 150.353 301.226 152.115 301.226 153.927C301.226 155.739 300.874 157.601 300.169 159.514C299.465 161.326 298.508 162.987 297.3 164.497C294.784 167.718 291.814 170.185 288.391 171.896C284.969 173.507 281.345 174.312 277.519 174.312C274.6 174.312 271.731 173.809 268.912 172.802C266.094 171.795 263.527 170.235 261.211 168.121C258.997 166.007 257.235 163.44 255.926 160.42C252.504 164.648 248.729 167.869 244.601 170.084C240.474 172.198 235.642 173.255 230.105 173.255C224.166 173.255 218.881 171.745 214.25 168.725C209.72 165.604 206.147 161.276 203.529 155.739C200.912 150.102 199.603 143.609 199.603 136.26ZM225.273 135.354C225.273 137.267 225.475 139.28 225.877 141.394C226.28 143.407 226.934 145.32 227.84 147.132C228.746 148.944 229.904 150.454 231.313 151.662C232.723 152.769 234.434 153.323 236.447 153.323C240.273 153.323 243.293 152.165 245.507 149.85C247.722 147.434 249.786 144.414 251.698 140.79C251.598 137.871 251.648 134.901 251.849 131.881C252.151 128.76 252.504 125.791 252.906 122.972C253.41 120.053 253.913 117.536 254.416 115.422C252.101 113.912 249.886 112.754 247.772 111.949C245.759 111.043 243.544 110.59 241.128 110.59C237.907 110.59 235.088 111.647 232.672 113.761C230.256 115.875 228.394 118.794 227.085 122.519C225.877 126.244 225.273 130.522 225.273 135.354ZM310.01 99.416C309.91 95.6913 311.118 93.1747 313.634 91.866C316.151 90.4567 318.919 89.752 321.939 89.752C325.06 89.752 327.879 90.4567 330.395 91.866C332.912 93.1747 334.17 95.6913 334.17 99.416C334.17 102.335 334.019 105.758 333.717 109.684C333.516 113.61 333.264 117.637 332.962 121.764C332.761 125.791 332.66 129.666 332.66 133.391C332.66 137.116 332.862 140.387 333.264 143.206C333.667 145.924 334.321 148.038 335.227 149.548C336.234 150.957 337.694 151.662 339.606 151.662C342.828 151.662 345.546 149.85 347.76 146.226C350.076 142.501 352.039 136.562 353.649 128.408C353.951 123.173 354.203 118.744 354.404 115.12C354.606 111.496 354.857 108.426 355.159 105.909C355.562 103.292 355.965 100.926 356.367 98.812C357.173 95.3893 358.733 92.9733 361.048 91.564C363.464 90.1547 366.484 89.45 370.108 89.45C373.732 89.45 376.35 90.205 377.96 91.715C379.672 93.1243 380.527 95.3893 380.527 98.51C380.527 100.624 380.326 103.09 379.923 105.909C379.621 108.627 379.219 111.446 378.715 114.365C378.212 117.184 377.709 119.952 377.205 122.67C376.903 127.603 376.702 132.586 376.601 137.619C376.501 142.652 376.45 147.686 376.45 152.719C376.45 155.538 376.45 158.457 376.45 161.477C376.551 164.497 376.601 167.517 376.601 170.537C376.601 175.671 375.997 181.057 374.789 186.694C373.682 192.331 371.719 197.566 368.9 202.398C366.182 207.23 362.508 211.156 357.877 214.176C353.347 217.196 347.66 218.706 340.814 218.706C335.479 218.706 330.295 217.699 325.261 215.686C320.228 213.673 316 210.804 312.577 207.079C309.155 203.455 307.091 199.277 306.386 194.546C305.883 191.828 306.235 189.613 307.443 187.902C308.752 186.291 310.463 185.134 312.577 184.429C314.691 183.724 316.654 183.372 318.466 183.372C320.58 183.372 322.191 184.026 323.298 185.335C324.406 186.744 325.563 188.506 326.771 190.62C327.677 192.13 328.634 193.439 329.64 194.546C330.647 195.754 331.956 196.66 333.566 197.264C335.278 197.969 337.341 198.321 339.757 198.321C342.979 198.321 345.546 197.163 347.458 194.848C349.371 192.633 350.831 189.664 351.837 185.939C352.844 182.315 353.498 178.288 353.8 173.859C354.102 169.43 354.203 165 354.102 160.571C351.888 164.396 349.019 167.467 345.495 169.782C341.972 171.997 337.341 173.104 331.603 173.104C327.174 173.104 323.449 171.997 320.429 169.782C317.51 167.567 315.195 164.598 313.483 160.873C311.772 157.148 310.514 152.971 309.708 148.34C308.903 143.609 308.5 138.726 308.5 133.693C308.5 129.566 308.601 125.287 308.802 120.858C309.104 116.328 309.356 112.15 309.557 108.325C309.859 104.399 310.01 101.429 310.01 99.416ZM400.482 96.094C400.784 94.1813 401.69 92.621 403.2 91.413C404.81 90.1043 407.528 89.45 411.354 89.45C414.374 89.45 417.092 90.1547 419.508 91.564C422.024 92.8727 423.283 94.6847 423.283 97C423.283 98.1073 423.232 99.265 423.132 100.473C423.031 101.681 422.779 103.493 422.377 105.909C424.893 101.379 428.014 97.906 431.739 95.49C435.564 93.074 439.339 91.866 443.064 91.866C447.795 91.866 452.073 92.923 455.899 95.037C459.825 97.0503 463.197 99.8187 466.016 103.342C468.935 106.865 471.15 110.791 472.66 115.12C474.17 119.449 474.925 123.828 474.925 128.257C474.925 133.592 474.069 138.827 472.358 143.961C470.646 148.994 468.23 153.524 465.11 157.551C462.09 161.578 458.415 164.799 454.087 167.215C449.859 169.53 445.228 170.688 440.195 170.688C437.376 170.688 434.708 170.436 432.192 169.933C429.776 169.43 427.762 168.826 426.152 168.121C423.132 166.812 421.118 165.101 420.112 162.987C419.206 160.873 418.753 158.709 418.753 156.494C418.753 153.575 419.457 151.461 420.867 150.152C422.377 148.843 424.038 148.189 425.85 148.189C426.655 148.189 427.511 148.34 428.417 148.642C429.323 148.843 430.178 149.145 430.984 149.548C432.292 150.051 433.5 150.555 434.608 151.058C435.816 151.461 436.973 151.662 438.081 151.662C439.591 151.662 441 151.108 442.309 150.001C443.718 148.894 444.926 147.333 445.933 145.32C447.04 143.206 447.845 140.74 448.349 137.921C448.953 135.102 449.255 131.931 449.255 128.408C449.255 123.475 448.5 119.549 446.99 116.63C445.58 113.61 443.315 112.1 440.195 112.1C437.074 112.1 434.155 113.258 431.437 115.573C428.819 117.888 426.454 121.16 424.34 125.388C422.226 129.616 420.313 134.7 418.602 140.639C417.897 146.075 417.394 151.813 417.092 157.853C416.89 163.792 416.84 169.631 416.941 175.369C417.041 181.107 417.243 186.342 417.545 191.073C417.847 194.294 417.746 197.264 417.243 199.982C416.84 202.801 416.035 205.267 414.827 207.381C413.719 209.495 412.159 211.106 410.146 212.213C408.233 213.421 405.867 214.025 403.049 214.025C399.525 214.025 396.908 213.069 395.197 211.156C393.485 209.243 392.378 206.777 391.875 203.757C391.371 200.737 391.12 197.516 391.12 194.093C391.12 187.348 391.22 181.359 391.422 176.124C391.623 170.889 392.026 165.705 392.63 160.571C393.334 155.336 394.341 149.548 395.65 143.206C395.952 138.173 396.304 132.888 396.707 127.351C397.21 121.814 397.764 116.378 398.368 111.043C398.972 105.607 399.676 100.624 400.482 96.094ZM485.656 135.656C485.656 130.723 486.462 125.589 488.072 120.254C489.784 114.919 492.3 109.936 495.622 105.305C499.045 100.674 503.424 96.9497 508.759 94.131C514.095 91.2117 520.386 89.752 527.634 89.752C533.171 89.752 537.902 90.5573 541.828 92.168C545.855 93.678 548.976 95.943 551.19 98.963C553.405 101.983 554.512 105.708 554.512 110.137C554.512 115.271 553.153 119.851 550.435 123.878C547.818 127.905 544.295 131.378 539.865 134.297C535.537 137.216 530.856 139.582 525.822 141.394C520.789 143.105 515.907 144.263 511.175 144.867C512.484 149.095 514.497 152.065 517.215 153.776C520.034 155.487 523.759 156.343 528.389 156.343C532.315 156.343 535.99 155.387 539.412 153.474C542.835 151.561 546.409 148.592 550.133 144.565C550.737 143.961 551.392 143.508 552.096 143.206C552.902 142.904 553.657 142.753 554.361 142.753C556.073 142.753 557.683 143.307 559.193 144.414C560.703 145.421 561.861 146.729 562.666 148.34C563.572 149.951 564.025 151.461 564.025 152.87C564.025 153.575 563.824 154.38 563.421 155.286C563.019 156.192 562.566 156.997 562.062 157.702C559.445 161.326 556.173 164.447 552.247 167.064C548.321 169.581 543.993 171.493 539.261 172.802C534.53 174.111 529.547 174.765 524.312 174.765C515.554 174.765 508.306 172.903 502.568 169.178C496.83 165.353 492.552 160.47 489.733 154.531C487.015 148.491 485.656 142.199 485.656 135.656ZM510.269 128.257C515.303 127.452 519.43 126.193 522.651 124.482C525.973 122.67 528.44 120.657 530.05 118.442C531.661 116.227 532.466 114.113 532.466 112.1C532.466 110.791 531.963 109.583 530.956 108.476C529.95 107.268 528.188 106.664 525.671 106.664C523.255 106.664 520.94 107.318 518.725 108.627C516.611 109.835 514.799 111.999 513.289 115.12C511.779 118.241 510.773 122.62 510.269 128.257ZM577.687 121.462C577.687 116.831 577.486 112.855 577.083 109.533C576.681 106.211 576.228 103.392 575.724 101.077C575.322 98.7617 575.12 96.9497 575.12 95.641C575.12 93.3257 576.228 91.3627 578.442 89.752C580.657 88.1413 583.929 87.336 588.257 87.336C590.673 87.336 593.089 88.091 595.505 89.601C597.921 91.0103 599.482 93.3257 600.186 96.547C600.388 97.3523 600.539 98.7113 600.639 100.624C600.74 102.537 600.74 105.104 600.639 108.325C602.653 104.097 605.169 100.574 608.189 97.755C611.31 94.9363 614.531 92.8223 617.853 91.413C621.276 90.0037 624.548 89.299 627.668 89.299C637.03 89.299 643.574 92.47 647.298 98.812C651.023 105.154 652.885 114.315 652.885 126.294C652.885 130.321 652.634 134.8 652.13 139.733C651.627 144.565 650.973 149.397 650.167 154.229C649.362 158.96 648.557 163.239 647.751 167.064C647.248 169.581 646.09 171.342 644.278 172.349C642.466 173.356 640.503 173.859 638.389 173.859C631.846 173.859 627.618 172.903 625.705 170.99C623.793 168.977 623.189 166.208 623.893 162.685C625.303 156.645 626.309 150.655 626.913 144.716C627.517 138.777 627.819 132.535 627.819 125.992C627.819 120.858 627.366 117.033 626.46 114.516C625.655 111.999 623.793 110.741 620.873 110.741C618.357 110.741 616.092 111.446 614.078 112.855C612.166 114.264 610.454 116.278 608.944 118.895C607.434 121.412 606.126 124.482 605.018 128.106C603.911 131.73 603.005 135.807 602.3 140.337C601.998 142.35 601.747 144.615 601.545 147.132C601.445 149.548 601.394 152.266 601.394 155.286C601.394 158.205 601.394 161.427 601.394 164.95C601.394 167.869 600.438 170.034 598.525 171.443C596.613 172.752 593.492 173.406 589.163 173.406C587.251 173.406 585.338 173.104 583.425 172.5C581.513 171.795 579.952 170.738 578.744 169.329C577.536 167.92 576.932 166.057 576.932 163.742C576.932 162.031 576.983 159.514 577.083 156.192C577.184 152.87 577.234 149.196 577.234 145.169C577.335 141.142 577.436 137.065 577.536 132.938C577.637 128.811 577.687 124.985 577.687 121.462ZM788.713 69.971C789.921 71.0783 791.18 72.6387 792.488 74.652C793.797 76.5647 794.451 78.2257 794.451 79.635C794.451 81.9503 793.797 83.9133 792.488 85.524C791.18 87.034 789.67 88.1917 787.958 88.997C786.247 89.8023 784.636 90.205 783.126 90.205C781.717 90.205 780.459 89.8023 779.351 88.997C778.345 88.091 777.036 86.883 775.425 85.373C772.506 82.353 769.335 80.088 765.912 78.578C762.49 77.068 758.966 76.313 755.342 76.313C752.926 76.313 750.661 76.766 748.547 77.672C746.433 78.578 744.772 79.937 743.564 81.749C742.356 83.4603 741.752 85.4737 741.752 87.789C741.752 90.3057 742.709 92.6713 744.621 94.886C746.635 97.1007 750.108 99.3153 755.04 101.53C763.698 105.255 770.644 109.03 775.878 112.855C781.113 116.68 784.938 120.908 787.354 125.539C789.871 130.069 791.129 135.253 791.129 141.092C791.129 146.025 790.072 150.605 787.958 154.833C785.844 159.061 782.875 162.786 779.049 166.007C775.325 169.128 770.996 171.544 766.063 173.255C761.131 174.966 755.896 175.721 750.359 175.52C746.735 175.419 743.111 174.966 739.487 174.161C735.964 173.356 732.592 172.198 729.37 170.688C726.149 169.077 723.28 167.014 720.763 164.497C718.649 162.484 716.988 160.37 715.78 158.155C714.673 155.94 714.119 154.078 714.119 152.568C714.119 150.152 714.723 148.139 715.931 146.528C717.139 144.817 718.599 143.508 720.31 142.602C722.122 141.696 723.783 141.243 725.293 141.243C726.904 141.243 728.213 141.696 729.219 142.602C730.327 143.508 731.283 144.515 732.088 145.622C734.102 148.34 736.82 150.404 740.242 151.813C743.665 153.222 747.037 153.927 750.359 153.927C752.977 153.927 755.393 153.424 757.607 152.417C759.923 151.31 761.735 149.9 763.043 148.189C764.453 146.377 765.157 144.414 765.157 142.3C765.157 139.783 764.654 137.619 763.647 135.807C762.741 133.995 761.181 132.334 758.966 130.824C756.852 129.213 753.933 127.653 750.208 126.143C739.437 121.613 731.132 116.529 725.293 110.892C719.455 105.255 716.535 98.0067 716.535 89.148C716.535 82.4033 718.297 76.464 721.82 71.33C725.344 66.0953 730.025 62.0183 735.863 59.099C741.702 56.079 748.044 54.569 754.889 54.569C759.017 54.569 763.043 55.0723 766.969 56.079C770.996 57.0857 774.821 58.7467 778.445 61.062C782.17 63.2767 785.593 66.2463 788.713 69.971ZM805.815 137.166C805.815 131.025 806.721 125.086 808.533 119.348C810.345 113.61 812.912 108.476 816.234 103.946C819.657 99.416 823.784 95.8423 828.616 93.225C833.549 90.507 839.136 89.148 845.377 89.148C849.303 89.148 852.726 89.8023 855.645 91.111C858.665 92.319 861.333 94.0807 863.648 96.396C864.152 94.1813 865.007 92.3693 866.215 90.96C867.423 89.5507 869.588 88.846 872.708 88.846C876.332 88.846 879.503 89.752 882.221 91.564C884.939 93.2753 886.248 95.49 886.147 98.208C886.047 100.926 885.594 104.651 884.788 109.382C883.983 114.013 883.278 118.593 882.674 123.123C882.473 124.532 882.171 126.344 881.768 128.559C881.466 130.774 881.164 132.988 880.862 135.203C880.661 137.317 880.51 139.129 880.409 140.639C880.309 142.149 880.258 144.062 880.258 146.377C880.258 148.592 880.56 150.555 881.164 152.266C881.768 153.977 882.775 154.833 884.184 154.833C884.99 154.833 885.694 154.632 886.298 154.229C886.902 153.826 887.506 153.273 888.11 152.568C889.117 151.863 889.973 151.31 890.677 150.907C891.483 150.404 892.489 150.152 893.697 150.152C895.107 150.152 896.365 150.655 897.472 151.662C898.68 152.568 899.586 153.826 900.19 155.437C900.895 157.048 900.945 158.86 900.341 160.873C899.939 162.786 898.63 164.749 896.415 166.762C894.201 168.775 891.583 170.487 888.563 171.896C885.644 173.205 882.725 173.859 879.805 173.859C876.886 173.859 874.218 173.255 871.802 172.047C869.386 170.738 867.323 169.027 865.611 166.913C864.001 164.698 862.893 162.131 862.289 159.212C859.672 163.138 856.199 166.41 851.87 169.027C847.642 171.644 842.861 172.953 837.525 172.953C830.881 172.953 825.194 171.393 820.462 168.272C815.731 165.151 812.107 160.923 809.59 155.588C807.074 150.152 805.815 144.011 805.815 137.166ZM831.334 136.109C831.334 139.33 831.687 142.25 832.391 144.867C833.096 147.384 834.153 149.397 835.562 150.907C837.072 152.417 839.035 153.172 841.451 153.172C843.465 153.172 845.226 152.719 846.736 151.813C848.246 150.806 849.605 149.498 850.813 147.887C852.021 146.176 852.978 144.213 853.682 141.998C854.488 139.683 855.192 137.267 855.796 134.75C856.4 132.233 856.904 129.666 857.306 127.049C857.709 124.432 858.061 121.865 858.363 119.348C858.665 116.831 858.917 114.365 859.118 111.949C857.709 110.64 856.098 109.634 854.286 108.929C852.474 108.124 850.562 107.721 848.548 107.721C845.83 107.721 843.414 108.476 841.3 109.986C839.186 111.395 837.374 113.409 835.864 116.026C834.354 118.643 833.197 121.663 832.391 125.086C831.687 128.509 831.334 132.183 831.334 136.109ZM912.855 95.037C913.359 92.319 914.617 90.4567 916.63 89.45C918.644 88.3427 921.613 87.789 925.539 87.789C929.365 87.789 932.083 88.544 933.693 90.054C935.405 91.564 936.26 93.1243 936.26 94.735C936.26 95.5403 936.16 96.5973 935.958 97.906C935.757 99.2147 935.556 100.674 935.354 102.285C935.254 103.896 935.153 105.607 935.052 107.419C936.361 104.701 937.921 101.933 939.733 99.114C941.646 96.2953 944.263 93.98 947.585 92.168C950.907 90.2553 955.236 89.299 960.571 89.299C969.43 89.299 976.074 92.5203 980.503 98.963C984.933 105.305 987.147 113.66 987.147 124.029C987.147 129.364 986.795 134.398 986.09 139.129C985.386 143.76 984.681 148.29 983.976 152.719C983.272 157.048 982.919 161.477 982.919 166.007C982.919 168.121 981.862 170.084 979.748 171.896C977.634 173.607 974.363 174.463 969.933 174.463C965.605 174.463 962.534 173.557 960.722 171.745C959.011 169.933 958.155 167.769 958.155 165.252C958.155 160.722 958.558 156.544 959.363 152.719C960.169 148.793 960.924 144.817 961.628 140.79C962.434 136.763 962.836 132.233 962.836 127.2C962.836 123.173 962.484 120.053 961.779 117.838C961.175 115.523 960.169 113.862 958.759 112.855C957.451 111.748 955.84 111.194 953.927 111.194C951.813 111.194 949.85 111.949 948.038 113.459C946.226 114.969 944.565 116.932 943.055 119.348C941.545 121.764 940.237 124.432 939.129 127.351C938.022 130.17 937.066 132.938 936.26 135.656C936.562 141.193 936.713 146.679 936.713 152.115C936.814 157.551 936.713 162.383 936.411 166.611C936.311 168.725 935.254 170.587 933.24 172.198C931.328 173.809 928.207 174.614 923.878 174.614C919.952 174.614 917.033 174.01 915.12 172.802C913.308 171.594 912.1 170.034 911.496 168.121C910.993 166.108 910.741 163.994 910.741 161.779C910.741 158.256 910.892 154.531 911.194 150.605C911.496 146.679 912.05 142.854 912.855 139.129C912.654 133.592 912.453 128.609 912.251 124.18C912.151 119.751 912.05 115.724 911.949 112.1C911.949 108.476 912 105.255 912.1 102.436C912.201 99.6173 912.453 97.151 912.855 95.037ZM1060.41 98.057C1061.22 98.8623 1061.87 99.8187 1062.37 100.926C1062.98 102.033 1063.28 103.241 1063.28 104.55C1063.28 105.859 1062.78 107.369 1061.77 109.08C1060.86 110.691 1059.66 112.1 1058.15 113.308C1056.74 114.516 1055.18 115.12 1053.46 115.12C1051.95 115.12 1050.75 114.868 1049.84 114.365C1048.93 113.862 1048.08 113.258 1047.27 112.553C1045.86 111.144 1044.05 109.785 1041.84 108.476C1039.62 107.167 1037.21 106.513 1034.59 106.513C1032.88 106.513 1031.32 106.966 1029.91 107.872C1028.5 108.677 1027.79 109.885 1027.79 111.496C1027.79 113.509 1028.8 115.17 1030.81 116.479C1032.93 117.788 1036.35 119.7 1041.08 122.217C1045.01 124.331 1048.48 126.445 1051.5 128.559C1054.62 130.673 1057.04 133.24 1058.75 136.26C1060.56 139.179 1061.47 143.005 1061.47 147.736C1061.47 152.367 1060.21 156.645 1057.69 160.571C1055.28 164.497 1051.8 167.668 1047.27 170.084C1042.74 172.5 1037.41 173.708 1031.27 173.708C1025.73 173.708 1020.24 172.953 1014.81 171.443C1009.37 169.933 1004.74 167.517 1000.92 164.195C1000.11 163.49 999.356 162.685 998.652 161.779C998.048 160.772 997.746 159.464 997.746 157.853C997.746 155.236 998.652 152.82 1000.46 150.605C1002.28 148.29 1004.24 147.132 1006.35 147.132C1007.16 147.132 1007.86 147.233 1008.47 147.434C1009.07 147.635 1009.73 147.988 1010.43 148.491C1013.65 150.605 1016.72 152.316 1019.64 153.625C1022.56 154.934 1025.73 155.588 1029.15 155.588C1031.57 155.588 1033.38 155.185 1034.59 154.38C1035.9 153.575 1036.55 152.518 1036.55 151.209C1036.55 148.994 1035.5 147.182 1033.38 145.773C1031.27 144.364 1028.45 142.803 1024.93 141.092C1019.19 138.374 1014.71 135.706 1011.49 133.089C1008.27 130.371 1005.95 127.552 1004.54 124.633C1003.23 121.613 1002.58 118.291 1002.58 114.667C1002.58 109.835 1003.94 105.506 1006.65 101.681C1009.47 97.755 1013.25 94.6847 1017.98 92.47C1022.81 90.2553 1028.25 89.148 1034.29 89.148C1039.02 89.148 1043.85 89.903 1048.78 91.413C1053.72 92.8223 1057.59 95.037 1060.41 98.057Z" fill="var(--darkGray)"/>
</svg>
