<svg width="256" height="256" viewBox="0 0 256 256" fill="none" xmlns="http://www.w3.org/2000/svg">
<mask id="mask0_4249_19" style="mask-type:alpha" maskUnits="userSpaceOnUse" x="0" y="0" width="256" height="256">
<rect width="256" height="256" fill="var(--gray)"/>
</mask>
<g mask="url(#mask0_4249_19)">
<mask id="path-2-outside-1_4249_19" maskUnits="userSpaceOnUse" x="24" y="66" width="195" height="125" fill="black">
<rect fill="var(--pageColor)" x="24" y="66" width="195" height="125"/>
<path d="M41 177L72.8 78.9H93.2L125 177H106.55L91.7 124.8C90.3 119.6 88.8 114.25 87.2 108.75C85.7 103.25 84.3 97.8 83 92.4H82.4C81 97.8 79.55 103.25 78.05 108.75C76.65 114.25 75.2 119.6 73.7 124.8L58.7 177H41ZM59.75 150.45V136.8H105.8V150.45H59.75ZM163.191 178.8C158.391 178.8 154.141 177.9 150.441 176.1C146.741 174.2 143.841 171.65 141.741 168.45C139.641 165.25 138.591 161.5 138.591 157.2C138.591 149 142.491 142.75 150.291 138.45C158.191 134.05 171.241 131.2 189.441 129.9C189.241 127.2 188.491 124.75 187.191 122.55C185.991 120.35 184.141 118.65 181.641 117.45C179.141 116.15 175.891 115.5 171.891 115.5C169.091 115.5 166.341 115.85 163.641 116.55C160.941 117.25 158.241 118.2 155.541 119.4C152.941 120.6 150.341 121.9 147.741 123.3L141.441 111.75C144.441 109.95 147.741 108.3 151.341 106.8C154.941 105.2 158.741 103.95 162.741 103.05C166.741 102.05 170.841 101.55 175.041 101.55C181.941 101.55 187.691 102.8 192.291 105.3C196.991 107.7 200.541 111.3 202.941 116.1C205.441 120.8 206.691 126.55 206.691 133.35V177H192.591L191.241 167.85H190.791C186.891 170.85 182.541 173.45 177.741 175.65C173.041 177.75 168.191 178.8 163.191 178.8ZM168.441 165.3C172.141 165.3 175.691 164.5 179.091 162.9C182.591 161.2 186.041 159 189.441 156.3V140.7C180.641 141.3 173.741 142.3 168.741 143.7C163.741 145 160.241 146.7 158.241 148.8C156.241 150.9 155.241 153.25 155.241 155.85C155.241 158.05 155.841 159.85 157.041 161.25C158.241 162.65 159.791 163.7 161.691 164.4C163.691 165 165.941 165.3 168.441 165.3Z"/>
</mask>
<path d="M41 177L72.8 78.9H93.2L125 177H106.55L91.7 124.8C90.3 119.6 88.8 114.25 87.2 108.75C85.7 103.25 84.3 97.8 83 92.4H82.4C81 97.8 79.55 103.25 78.05 108.75C76.65 114.25 75.2 119.6 73.7 124.8L58.7 177H41ZM59.75 150.45V136.8H105.8V150.45H59.75ZM163.191 178.8C158.391 178.8 154.141 177.9 150.441 176.1C146.741 174.2 143.841 171.65 141.741 168.45C139.641 165.25 138.591 161.5 138.591 157.2C138.591 149 142.491 142.75 150.291 138.45C158.191 134.05 171.241 131.2 189.441 129.9C189.241 127.2 188.491 124.75 187.191 122.55C185.991 120.35 184.141 118.65 181.641 117.45C179.141 116.15 175.891 115.5 171.891 115.5C169.091 115.5 166.341 115.85 163.641 116.55C160.941 117.25 158.241 118.2 155.541 119.4C152.941 120.6 150.341 121.9 147.741 123.3L141.441 111.75C144.441 109.95 147.741 108.3 151.341 106.8C154.941 105.2 158.741 103.95 162.741 103.05C166.741 102.05 170.841 101.55 175.041 101.55C181.941 101.55 187.691 102.8 192.291 105.3C196.991 107.7 200.541 111.3 202.941 116.1C205.441 120.8 206.691 126.55 206.691 133.35V177H192.591L191.241 167.85H190.791C186.891 170.85 182.541 173.45 177.741 175.65C173.041 177.75 168.191 178.8 163.191 178.8ZM168.441 165.3C172.141 165.3 175.691 164.5 179.091 162.9C182.591 161.2 186.041 159 189.441 156.3V140.7C180.641 141.3 173.741 142.3 168.741 143.7C163.741 145 160.241 146.7 158.241 148.8C156.241 150.9 155.241 153.25 155.241 155.85C155.241 158.05 155.841 159.85 157.041 161.25C158.241 162.65 159.791 163.7 161.691 164.4C163.691 165 165.941 165.3 168.441 165.3Z" fill="var(--pageColor)"/>
<path d="M41 177L29.5848 173.3L24.4954 189H41V177ZM72.8 78.9V66.9H64.0752L61.3848 75.1996L72.8 78.9ZM93.2 78.9L104.615 75.1996L101.925 66.9H93.2V78.9ZM125 177V189H141.505L136.415 173.3L125 177ZM106.55 177L95.008 180.284L97.4877 189H106.55V177ZM91.7 124.8L80.1126 127.92L80.1347 128.002L80.158 128.084L91.7 124.8ZM87.2 108.75L75.6228 111.907L75.6494 112.005L75.6777 112.102L87.2 108.75ZM83 92.4L94.6667 89.5913L92.4539 80.4H83V92.4ZM82.4 92.4V80.4H73.1144L70.784 89.3885L82.4 92.4ZM78.05 108.75L66.4728 105.593L66.446 105.691L66.4208 105.79L78.05 108.75ZM73.7 124.8L62.1701 121.474L62.1667 121.486L73.7 124.8ZM58.7 177V189H67.7373L70.2333 180.314L58.7 177ZM59.75 150.45H47.75V162.45H59.75V150.45ZM59.75 136.8V124.8H47.75V136.8H59.75ZM105.8 136.8H117.8V124.8H105.8V136.8ZM105.8 150.45V162.45H117.8V150.45H105.8ZM41 177L52.4152 180.7L84.2152 82.6003L72.8 78.9L61.3848 75.1996L29.5848 173.3L41 177ZM72.8 78.9V90.9H93.2V78.9V66.9H72.8V78.9ZM93.2 78.9L81.7848 82.6003L113.585 180.7L125 177L136.415 173.3L104.615 75.1996L93.2 78.9ZM125 177V165H106.55V177V189H125V177ZM106.55 177L118.092 173.716L103.242 121.516L91.7 124.8L80.158 128.084L95.008 180.284L106.55 177ZM91.7 124.8L103.287 121.68C101.865 116.398 100.343 110.97 98.7223 105.398L87.2 108.75L75.6777 112.102C77.2566 117.53 78.7348 122.802 80.1126 127.92L91.7 124.8ZM87.2 108.75L98.7772 105.593C97.3079 100.205 95.9379 94.8716 94.6667 89.5913L83 92.4L71.3333 95.2086C72.6621 100.728 74.0921 106.295 75.6228 111.907L87.2 108.75ZM83 92.4V80.4H82.4V92.4V104.4H83V92.4ZM82.4 92.4L70.784 89.3885C69.3969 94.7387 67.9599 100.14 66.4728 105.593L78.05 108.75L89.6272 111.907C91.1401 106.36 92.6031 100.861 94.016 95.4115L82.4 92.4ZM78.05 108.75L66.4208 105.79C65.0505 111.173 63.6335 116.401 62.1701 121.474L73.7 124.8L85.2299 128.126C86.7665 122.799 88.2495 117.327 89.6792 111.71L78.05 108.75ZM73.7 124.8L62.1667 121.486L47.1667 173.686L58.7 177L70.2333 180.314L85.2333 128.114L73.7 124.8ZM58.7 177V165H41V177V189H58.7V177ZM59.75 150.45H71.75V136.8H59.75H47.75V150.45H59.75ZM59.75 136.8V148.8H105.8V136.8V124.8H59.75V136.8ZM105.8 136.8H93.8V150.45H105.8H117.8V136.8H105.8ZM105.8 150.45V138.45H59.75V150.45V162.45H105.8V150.45ZM150.441 176.1L144.96 186.775L145.075 186.834L145.192 186.891L150.441 176.1ZM141.741 168.45L151.774 161.866L151.774 161.866L141.741 168.45ZM150.291 138.45L156.085 148.959L156.108 148.946L156.13 148.934L150.291 138.45ZM189.441 129.9L190.296 141.87L202.297 141.012L201.409 129.014L189.441 129.9ZM187.191 122.55L176.657 128.296L176.755 128.477L176.86 128.655L187.191 122.55ZM181.641 117.45L176.105 128.097L176.276 128.185L176.449 128.268L181.641 117.45ZM163.641 116.55L160.63 104.934L160.63 104.934L163.641 116.55ZM155.541 119.4L150.668 108.434L150.59 108.469L150.513 108.504L155.541 119.4ZM147.741 123.3L137.207 129.046L142.922 139.524L153.431 133.866L147.741 123.3ZM141.441 111.75L135.267 101.46L125.392 107.386L130.907 117.496L141.441 111.75ZM151.341 106.8L155.957 117.877L156.087 117.823L156.215 117.766L151.341 106.8ZM162.741 103.05L165.376 114.757L165.514 114.726L165.652 114.692L162.741 103.05ZM192.291 105.3L186.561 115.843L186.697 115.917L186.834 115.987L192.291 105.3ZM202.941 116.1L192.208 121.467L192.276 121.602L192.347 121.735L202.941 116.1ZM206.691 177V189H218.691V177H206.691ZM192.591 177L180.72 178.752L182.232 189H192.591V177ZM191.241 167.85L203.113 166.098L201.601 155.85H191.241V167.85ZM190.791 167.85V155.85H186.71L183.475 158.339L190.791 167.85ZM177.741 175.65L182.637 186.606L182.689 186.583L182.741 186.559L177.741 175.65ZM179.091 162.9L184.201 173.758L184.268 173.726L184.334 173.694L179.091 162.9ZM189.441 156.3L196.904 165.697L201.441 162.094V156.3H189.441ZM189.441 140.7H201.441V127.854L188.625 128.728L189.441 140.7ZM168.741 143.7L171.761 155.314L171.869 155.286L171.977 155.256L168.741 143.7ZM158.241 148.8L149.552 140.524L149.552 140.524L158.241 148.8ZM157.041 161.25L147.93 169.059L147.93 169.059L157.041 161.25ZM161.691 164.4L157.543 175.66L157.889 175.788L158.243 175.894L161.691 164.4ZM163.191 178.8V166.8C159.908 166.8 157.504 166.191 155.691 165.309L150.441 176.1L145.192 186.891C150.779 189.609 156.874 190.8 163.191 190.8V178.8ZM150.441 176.1L155.923 165.425C153.903 164.388 152.639 163.184 151.774 161.866L141.741 168.45L131.709 175.034C135.044 180.116 139.579 184.012 144.96 186.775L150.441 176.1ZM141.741 168.45L151.774 161.866C151.112 160.857 150.591 159.459 150.591 157.2H138.591H126.591C126.591 163.541 128.171 169.643 131.709 175.034L141.741 168.45ZM138.591 157.2H150.591C150.591 155.084 151.067 153.724 151.697 152.715C152.358 151.656 153.605 150.326 156.085 148.959L150.291 138.45L144.498 127.941C139.178 130.874 134.575 134.819 131.336 140.01C128.065 145.251 126.591 151.116 126.591 157.2H138.591ZM150.291 138.45L156.13 148.934C161.609 145.882 172.42 143.146 190.296 141.87L189.441 129.9L188.586 117.93C170.062 119.254 154.774 122.218 144.452 127.966L150.291 138.45ZM189.441 129.9L201.409 129.014C201.08 124.584 199.818 120.33 197.523 116.445L187.191 122.55L176.86 128.655C177.165 129.17 177.402 129.816 177.474 130.786L189.441 129.9ZM187.191 122.55L197.726 116.804C195.193 112.16 191.349 108.799 186.834 106.632L181.641 117.45L176.449 128.268C176.597 128.34 176.689 128.396 176.738 128.428C176.786 128.46 176.797 128.473 176.784 128.461C176.771 128.449 176.746 128.423 176.717 128.386C176.688 128.349 176.668 128.317 176.657 128.296L187.191 122.55ZM181.641 117.45L187.178 106.803C182.402 104.32 177.061 103.5 171.891 103.5V115.5V127.5C174.722 127.5 175.88 127.98 176.105 128.097L181.641 117.45ZM171.891 115.5V103.5C168.079 103.5 164.317 103.978 160.63 104.934L163.641 116.55L166.653 128.166C168.366 127.722 170.104 127.5 171.891 127.5V115.5ZM163.641 116.55L160.63 104.934C157.256 105.809 153.934 106.982 150.668 108.434L155.541 119.4L160.415 130.366C162.549 129.418 164.627 128.691 166.653 128.166L163.641 116.55ZM155.541 119.4L150.513 108.504C147.682 109.811 144.862 111.221 142.052 112.734L147.741 123.3L153.431 133.866C155.821 132.579 158.2 131.389 160.57 130.296L155.541 119.4ZM147.741 123.3L158.276 117.554L151.976 106.004L141.441 111.75L130.907 117.496L137.207 129.046L147.741 123.3ZM141.441 111.75L147.615 122.04C150.063 120.572 152.835 119.178 155.957 117.877L151.341 106.8L146.726 95.7231C142.648 97.4221 138.82 99.3285 135.267 101.46L141.441 111.75ZM151.341 106.8L156.215 117.766C159.066 116.499 162.113 115.491 165.376 114.757L162.741 103.05L160.107 91.3427C155.369 92.4087 150.817 93.9014 146.468 95.8343L151.341 106.8ZM162.741 103.05L165.652 114.692C168.682 113.934 171.804 113.55 175.041 113.55V101.55V89.55C169.879 89.55 164.801 90.1659 159.831 91.4083L162.741 103.05ZM175.041 101.55V113.55C180.554 113.55 184.191 114.555 186.561 115.843L192.291 105.3L198.022 94.7565C191.192 91.0449 183.328 89.55 175.041 89.55V101.55ZM192.291 105.3L186.834 115.987C189.211 117.201 190.933 118.916 192.208 121.467L202.941 116.1L213.675 110.733C210.15 103.684 204.771 98.1987 197.749 94.6127L192.291 105.3ZM202.941 116.1L192.347 121.735C193.703 124.285 194.691 127.984 194.691 133.35H206.691H218.691C218.691 125.116 217.18 117.315 213.536 110.465L202.941 116.1ZM206.691 133.35H194.691V177H206.691H218.691V133.35H206.691ZM206.691 177V165H192.591V177V189H206.691V177ZM192.591 177L204.463 175.248L203.113 166.098L191.241 167.85L179.37 169.602L180.72 178.752L192.591 177ZM191.241 167.85V155.85H190.791V167.85V179.85H191.241V167.85ZM190.791 167.85L183.475 158.339C180.342 160.748 176.779 162.891 172.742 164.741L177.741 175.65L182.741 186.559C188.304 184.009 193.441 180.952 198.108 177.361L190.791 167.85ZM177.741 175.65L172.846 164.694C169.64 166.127 166.454 166.8 163.191 166.8V178.8V190.8C169.929 190.8 176.443 189.373 182.637 186.606L177.741 175.65ZM168.441 165.3V177.3C173.936 177.3 179.228 176.098 184.201 173.758L179.091 162.9L173.982 152.042C172.154 152.902 170.347 153.3 168.441 153.3V165.3ZM179.091 162.9L184.334 173.694C188.708 171.57 192.895 168.881 196.904 165.697L189.441 156.3L181.979 146.903C179.188 149.119 176.475 150.83 173.849 152.106L179.091 162.9ZM189.441 156.3H201.441V140.7H189.441H177.441V156.3H189.441ZM189.441 140.7L188.625 128.728C179.489 129.351 171.655 130.423 165.506 132.144L168.741 143.7L171.977 155.256C175.828 154.177 181.794 153.249 190.258 152.672L189.441 140.7ZM168.741 143.7L165.722 132.086C160.024 133.568 153.881 135.978 149.552 140.524L158.241 148.8L166.931 157.076C166.668 157.352 166.736 157.168 167.609 156.744C168.459 156.331 169.795 155.825 171.761 155.314L168.741 143.7ZM158.241 148.8L149.552 140.524C145.693 144.576 143.241 149.803 143.241 155.85H155.241H167.241C167.241 156.135 167.177 156.498 167.033 156.836C166.899 157.152 166.79 157.224 166.931 157.076L158.241 148.8ZM155.241 155.85H143.241C143.241 160.335 144.521 165.081 147.93 169.059L157.041 161.25L166.152 153.441C166.592 153.954 166.899 154.526 167.076 155.055C167.243 155.556 167.241 155.862 167.241 155.85H155.241ZM157.041 161.25L147.93 169.059C150.591 172.163 153.915 174.323 157.543 175.66L161.691 164.4L165.84 153.14C165.727 153.098 165.743 153.091 165.834 153.152C165.93 153.218 166.046 153.317 166.152 153.44L157.041 161.25ZM161.691 164.4L158.243 175.894C161.557 176.888 164.996 177.3 168.441 177.3V165.3V153.3C166.887 153.3 165.826 153.112 165.14 152.906L161.691 164.4Z" fill="var(--pageColor)" mask="url(#path-2-outside-1_4249_19)"/>
<path d="M41 177L72.8 78.9H93.2L125 177H106.55L91.7 124.8C90.3 119.6 88.8 114.25 87.2 108.75C85.7 103.25 84.3 97.8 83 92.4H82.4C81 97.8 79.55 103.25 78.05 108.75C76.65 114.25 75.2 119.6 73.7 124.8L58.7 177H41ZM59.75 150.45V136.8H105.8V150.45H59.75ZM163.191 178.8C158.391 178.8 154.141 177.9 150.441 176.1C146.741 174.2 143.841 171.65 141.741 168.45C139.641 165.25 138.591 161.5 138.591 157.2C138.591 149 142.491 142.75 150.291 138.45C158.191 134.05 171.241 131.2 189.441 129.9C189.241 127.2 188.491 124.75 187.191 122.55C185.991 120.35 184.141 118.65 181.641 117.45C179.141 116.15 175.891 115.5 171.891 115.5C169.091 115.5 166.341 115.85 163.641 116.55C160.941 117.25 158.241 118.2 155.541 119.4C152.941 120.6 150.341 121.9 147.741 123.3L141.441 111.75C144.441 109.95 147.741 108.3 151.341 106.8C154.941 105.2 158.741 103.95 162.741 103.05C166.741 102.05 170.841 101.55 175.041 101.55C181.941 101.55 187.691 102.8 192.291 105.3C196.991 107.7 200.541 111.3 202.941 116.1C205.441 120.8 206.691 126.55 206.691 133.35V177H192.591L191.241 167.85H190.791C186.891 170.85 182.541 173.45 177.741 175.65C173.041 177.75 168.191 178.8 163.191 178.8ZM168.441 165.3C172.141 165.3 175.691 164.5 179.091 162.9C182.591 161.2 186.041 159 189.441 156.3V140.7C180.641 141.3 173.741 142.3 168.741 143.7C163.741 145 160.241 146.7 158.241 148.8C156.241 150.9 155.241 153.25 155.241 155.85C155.241 158.05 155.841 159.85 157.041 161.25C158.241 162.65 159.791 163.7 161.691 164.4C163.691 165 165.941 165.3 168.441 165.3Z" fill="var(--darkGray)"/>
</g>
</svg>
