<svg viewBox="0 0 256 256" fill="none" xmlns="http://www.w3.org/2000/svg">
<mask id="mask0_4253_39" style="mask-type:alpha" maskUnits="userSpaceOnUse" x="0" y="0" width="256" height="256">
<rect width="256" height="256" fill="var(--gray)"/>
</mask>
<g mask="url(#mask0_4253_39)">
<mask id="path-2-outside-1_4253_39" maskUnits="userSpaceOnUse" x="6" y="63" width="224" height="131" fill="black">
<rect fill="var(--pageColor)" x="6" y="63" width="224" height="131"/>
<path d="M25.25 180L72.5 75H91.7L139.1 180H118.7L78.05 85.35H85.85L45.35 180H25.25ZM47 155.7L52.25 140.4H108.95L114.2 155.7H47ZM200.004 180V163.8L198.954 160.35V132C198.954 126.5 197.304 122.25 194.004 119.25C190.704 116.15 185.704 114.6 179.004 114.6C174.504 114.6 170.054 115.3 165.654 116.7C161.354 118.1 157.704 120.05 154.704 122.55L147.354 108.9C151.654 105.6 156.754 103.15 162.654 101.55C168.654 99.85 174.854 99 181.254 99C192.854 99 201.804 101.8 208.104 107.4C214.504 112.9 217.704 121.45 217.704 133.05V180H200.004ZM174.804 181.05C168.804 181.05 163.554 180.05 159.054 178.05C154.554 175.95 151.054 173.1 148.554 169.5C146.154 165.8 144.954 161.65 144.954 157.05C144.954 152.55 146.004 148.5 148.104 144.9C150.304 141.3 153.854 138.45 158.754 136.35C163.654 134.25 170.154 133.2 178.254 133.2H201.504V145.65H179.604C173.204 145.65 168.904 146.7 166.704 148.8C164.504 150.8 163.404 153.3 163.404 156.3C163.404 159.7 164.754 162.4 167.454 164.4C170.154 166.4 173.904 167.4 178.704 167.4C183.304 167.4 187.404 166.35 191.004 164.25C194.704 162.15 197.354 159.05 198.954 154.95L202.104 166.2C200.304 170.9 197.054 174.55 192.354 177.15C187.754 179.75 181.904 181.05 174.804 181.05Z"/>
</mask>
<path d="M25.25 180L72.5 75H91.7L139.1 180H118.7L78.05 85.35H85.85L45.35 180H25.25ZM47 155.7L52.25 140.4H108.95L114.2 155.7H47ZM200.004 180V163.8L198.954 160.35V132C198.954 126.5 197.304 122.25 194.004 119.25C190.704 116.15 185.704 114.6 179.004 114.6C174.504 114.6 170.054 115.3 165.654 116.7C161.354 118.1 157.704 120.05 154.704 122.55L147.354 108.9C151.654 105.6 156.754 103.15 162.654 101.55C168.654 99.85 174.854 99 181.254 99C192.854 99 201.804 101.8 208.104 107.4C214.504 112.9 217.704 121.45 217.704 133.05V180H200.004ZM174.804 181.05C168.804 181.05 163.554 180.05 159.054 178.05C154.554 175.95 151.054 173.1 148.554 169.5C146.154 165.8 144.954 161.65 144.954 157.05C144.954 152.55 146.004 148.5 148.104 144.9C150.304 141.3 153.854 138.45 158.754 136.35C163.654 134.25 170.154 133.2 178.254 133.2H201.504V145.65H179.604C173.204 145.65 168.904 146.7 166.704 148.8C164.504 150.8 163.404 153.3 163.404 156.3C163.404 159.7 164.754 162.4 167.454 164.4C170.154 166.4 173.904 167.4 178.704 167.4C183.304 167.4 187.404 166.35 191.004 164.25C194.704 162.15 197.354 159.05 198.954 154.95L202.104 166.2C200.304 170.9 197.054 174.55 192.354 177.15C187.754 179.75 181.904 181.05 174.804 181.05Z" fill="var(--pageColor)"/>
<path d="M25.25 180L14.3069 175.076L6.69097 192H25.25V180ZM72.5 75V63H64.741L61.5569 70.0756L72.5 75ZM91.7 75L102.637 70.0626L99.4489 63H91.7V75ZM139.1 180V192H157.683L150.037 175.063L139.1 180ZM118.7 180L107.674 184.735L110.794 192H118.7V180ZM78.05 85.35V73.35H59.8364L67.0239 90.0855L78.05 85.35ZM85.85 85.35L96.8825 90.0707L104.037 73.35H85.85V85.35ZM45.35 180V192H53.2677L56.3825 184.721L45.35 180ZM47 155.7L35.6496 151.805L30.1955 167.7H47V155.7ZM52.25 140.4V128.4H43.6808L40.8996 136.505L52.25 140.4ZM108.95 140.4L120.3 136.505L117.519 128.4H108.95V140.4ZM114.2 155.7V167.7H131.004L125.55 151.805L114.2 155.7ZM25.25 180L36.1931 184.924L83.4431 79.9244L72.5 75L61.5569 70.0756L14.3069 175.076L25.25 180ZM72.5 75V87H91.7V75V63H72.5V75ZM91.7 75L80.7628 79.9374L128.163 184.937L139.1 180L150.037 175.063L102.637 70.0626L91.7 75ZM139.1 180V168H118.7V180V192H139.1V180ZM118.7 180L129.726 175.265L89.0761 80.6145L78.05 85.35L67.0239 90.0855L107.674 184.735L118.7 180ZM78.05 85.35V97.35H85.85V85.35V73.35H78.05V85.35ZM85.85 85.35L74.8176 80.6293L34.3175 175.279L45.35 180L56.3825 184.721L96.8825 90.0707L85.85 85.35ZM45.35 180V168H25.25V180V192H45.35V180ZM47 155.7L58.3504 159.595L63.6004 144.295L52.25 140.4L40.8996 136.505L35.6496 151.805L47 155.7ZM52.25 140.4V152.4H108.95V140.4V128.4H52.25V140.4ZM108.95 140.4L97.5996 144.295L102.85 159.595L114.2 155.7L125.55 151.805L120.3 136.505L108.95 140.4ZM114.2 155.7V143.7H47V155.7V167.7H114.2V155.7ZM200.004 180H188.004V192H200.004V180ZM200.004 163.8H212.004V162.014L211.484 160.306L200.004 163.8ZM198.954 160.35H186.954V162.136L187.473 163.844L198.954 160.35ZM194.004 119.25L185.787 127.996L185.859 128.063L185.931 128.129L194.004 119.25ZM165.654 116.7L162.015 105.265L161.977 105.277L161.938 105.29L165.654 116.7ZM154.704 122.55L144.138 128.239L151.102 141.172L162.386 131.769L154.704 122.55ZM147.354 108.9L140.048 99.3803L131.946 105.598L136.788 114.589L147.354 108.9ZM162.654 101.55L165.794 113.132L165.86 113.114L165.925 113.096L162.654 101.55ZM208.104 107.4L200.131 116.369L200.206 116.436L200.282 116.501L208.104 107.4ZM217.704 180V192H229.704V180H217.704ZM159.054 178.05L153.979 188.924L154.079 188.971L154.18 189.016L159.054 178.05ZM148.554 169.5L138.486 176.03L138.589 176.189L138.697 176.345L148.554 169.5ZM148.104 144.9L137.864 138.643L137.8 138.747L137.738 138.854L148.104 144.9ZM158.754 136.35L163.481 147.38L163.481 147.38L158.754 136.35ZM201.504 133.2H213.504V121.2H201.504V133.2ZM201.504 145.65V157.65H213.504V145.65H201.504ZM166.704 148.8L174.776 157.679L174.884 157.581L174.989 157.48L166.704 148.8ZM167.454 164.4L160.311 174.043L160.311 174.043L167.454 164.4ZM191.004 164.25L185.08 153.814L185.018 153.849L184.957 153.885L191.004 164.25ZM198.954 154.95L210.509 151.714L200.828 117.139L187.775 150.587L198.954 154.95ZM202.104 166.2L213.31 170.492L214.729 166.786L213.659 162.964L202.104 166.2ZM192.354 177.15L186.545 166.65L186.497 166.676L186.449 166.703L192.354 177.15ZM200.004 180H212.004V163.8H200.004H188.004V180H200.004ZM200.004 163.8L211.484 160.306L210.434 156.856L198.954 160.35L187.473 163.844L188.523 167.294L200.004 163.8ZM198.954 160.35H210.954V132H198.954H186.954V160.35H198.954ZM198.954 132H210.954C210.954 123.969 208.444 116.16 202.076 110.371L194.004 119.25L185.931 128.129C186.163 128.34 186.954 129.031 186.954 132H198.954ZM194.004 119.25L202.22 110.504C195.829 104.5 187.315 102.6 179.004 102.6V114.6V126.6C184.092 126.6 185.578 127.8 185.787 127.996L194.004 119.25ZM179.004 114.6V102.6C173.237 102.6 167.561 103.5 162.015 105.265L165.654 116.7L169.292 128.135C172.546 127.1 175.77 126.6 179.004 126.6V114.6ZM165.654 116.7L161.938 105.29C156.415 107.088 151.362 109.714 147.021 113.331L154.704 122.55L162.386 131.769C164.045 130.386 166.292 129.112 169.369 128.11L165.654 116.7ZM154.704 122.55L165.269 116.861L157.919 103.211L147.354 108.9L136.788 114.589L144.138 128.239L154.704 122.55ZM147.354 108.9L154.659 118.42C157.57 116.186 161.212 114.374 165.794 113.132L162.654 101.55L159.513 89.9683C152.295 91.9255 145.737 95.0139 140.048 99.3803L147.354 108.9ZM162.654 101.55L165.925 113.096C170.833 111.705 175.93 111 181.254 111V99V87C173.777 87 166.474 87.9951 159.382 90.0045L162.654 101.55ZM181.254 99V111C191.024 111 196.736 113.351 200.131 116.369L208.104 107.4L216.076 98.4311C206.871 90.2493 194.683 87 181.254 87V99ZM208.104 107.4L200.282 116.501C203.141 118.958 205.704 123.575 205.704 133.05H217.704H229.704C229.704 119.325 225.866 106.842 215.925 98.299L208.104 107.4ZM217.704 133.05H205.704V180H217.704H229.704V133.05H217.704ZM217.704 180V168H200.004V180V192H217.704V180ZM174.804 181.05V169.05C170.124 169.05 166.596 168.27 163.927 167.084L159.054 178.05L154.18 189.016C160.511 191.83 167.483 193.05 174.804 193.05V181.05ZM159.054 178.05L164.128 167.176C161.29 165.851 159.546 164.291 158.41 162.655L148.554 169.5L138.697 176.345C142.561 181.909 147.817 186.049 153.979 188.924L159.054 178.05ZM148.554 169.5L158.621 162.97C157.538 161.301 156.954 159.437 156.954 157.05H144.954H132.954C132.954 163.863 134.769 170.299 138.486 176.03L148.554 169.5ZM144.954 157.05H156.954C156.954 154.5 157.524 152.566 158.469 150.946L148.104 144.9L137.738 138.854C134.483 144.434 132.954 150.6 132.954 157.05H144.954ZM148.104 144.9L158.343 151.157C158.939 150.182 160.262 148.759 163.481 147.38L158.754 136.35L154.026 125.32C147.445 128.141 141.668 132.418 137.864 138.643L148.104 144.9ZM158.754 136.35L163.481 147.38C166.318 146.164 171.017 145.2 178.254 145.2V133.2V121.2C169.29 121.2 160.99 122.336 154.026 125.32L158.754 136.35ZM178.254 133.2V145.2H201.504V133.2V121.2H178.254V133.2ZM201.504 133.2H189.504V145.65H201.504H213.504V133.2H201.504ZM201.504 145.65V133.65H179.604V145.65V157.65H201.504V145.65ZM179.604 145.65V133.65C175.83 133.65 172.126 133.951 168.732 134.78C165.41 135.591 161.577 137.104 158.418 140.12L166.704 148.8L174.989 157.48C174.03 158.396 173.447 158.334 174.425 158.095C175.331 157.874 176.977 157.65 179.604 157.65V145.65ZM166.704 148.8L158.631 139.921C153.904 144.218 151.404 149.954 151.404 156.3H163.404H175.404C175.404 156.299 175.396 156.591 175.212 157.008C175.028 157.428 174.807 157.65 174.776 157.679L166.704 148.8ZM163.404 156.3H151.404C151.404 163.449 154.513 169.748 160.311 174.043L167.454 164.4L174.596 154.757C174.589 154.752 174.889 154.987 175.149 155.508C175.407 156.025 175.404 156.374 175.404 156.3H163.404ZM167.454 164.4L160.311 174.043C165.795 178.105 172.397 179.4 178.704 179.4V167.4V155.4C175.41 155.4 174.512 154.695 174.596 154.757L167.454 164.4ZM178.704 167.4V179.4C185.202 179.4 191.429 177.894 197.05 174.615L191.004 164.25L184.957 153.885C183.378 154.806 181.405 155.4 178.704 155.4V167.4ZM191.004 164.25L196.927 174.686C203.112 171.175 207.568 165.885 210.132 159.313L198.954 154.95L187.775 150.587C187.139 152.215 186.295 153.125 185.08 153.814L191.004 164.25ZM198.954 154.95L187.398 158.186L190.548 169.436L202.104 166.2L213.659 162.964L210.509 151.714L198.954 154.95ZM202.104 166.2L190.897 161.908C190.18 163.782 188.95 165.319 186.545 166.65L192.354 177.15L198.162 187.65C205.157 183.781 210.427 178.018 213.31 170.492L202.104 166.2ZM192.354 177.15L186.449 166.703C184.165 167.994 180.519 169.05 174.804 169.05V181.05V193.05C183.288 193.05 191.342 191.506 198.258 187.597L192.354 177.15Z" fill="var(--pageColor)" mask="url(#path-2-outside-1_4253_39)"/>
<path d="M25.25 180L72.5 75H91.7L139.1 180H118.7L78.05 85.35H85.85L45.35 180H25.25ZM47 155.7L52.25 140.4H108.95L114.2 155.7H47ZM200.004 180V163.8L198.954 160.35V132C198.954 126.5 197.304 122.25 194.004 119.25C190.704 116.15 185.704 114.6 179.004 114.6C174.504 114.6 170.054 115.3 165.654 116.7C161.354 118.1 157.704 120.05 154.704 122.55L147.354 108.9C151.654 105.6 156.754 103.15 162.654 101.55C168.654 99.85 174.854 99 181.254 99C192.854 99 201.804 101.8 208.104 107.4C214.504 112.9 217.704 121.45 217.704 133.05V180H200.004ZM174.804 181.05C168.804 181.05 163.554 180.05 159.054 178.05C154.554 175.95 151.054 173.1 148.554 169.5C146.154 165.8 144.954 161.65 144.954 157.05C144.954 152.55 146.004 148.5 148.104 144.9C150.304 141.3 153.854 138.45 158.754 136.35C163.654 134.25 170.154 133.2 178.254 133.2H201.504V145.65H179.604C173.204 145.65 168.904 146.7 166.704 148.8C164.504 150.8 163.404 153.3 163.404 156.3C163.404 159.7 164.754 162.4 167.454 164.4C170.154 166.4 173.904 167.4 178.704 167.4C183.304 167.4 187.404 166.35 191.004 164.25C194.704 162.15 197.354 159.05 198.954 154.95L202.104 166.2C200.304 170.9 197.054 174.55 192.354 177.15C187.754 179.75 181.904 181.05 174.804 181.05Z" fill="var(--darkGray)"/>
</g>
</svg>
