<svg viewBox="0 0 463 230" fill="none" xmlns="http://www.w3.org/2000/svg">
<path d="M89.371 170.966C87.861 170.362 86.0993 169.506 84.086 168.399C82.0727 167.392 80.16 166.033 78.348 164.322C76.536 162.611 75.1267 160.547 74.12 158.131C73.1133 155.212 72.4087 152.343 72.006 149.524C71.704 146.705 71.6033 143.434 71.704 139.709C71.704 134.474 72.0563 129.944 72.761 126.119C73.5663 122.193 74.7743 118.217 76.385 114.19C76.5863 113.888 76.9387 113.032 77.442 111.623C78.046 110.113 78.7003 108.502 79.405 106.791C80.2103 105.08 80.8143 103.771 81.217 102.865C82.0223 101.154 83.2303 98.8887 84.841 96.07C86.5523 93.1507 88.3643 90.332 90.277 87.614C93.1963 83.2853 95.6627 79.762 97.676 77.044C99.6893 74.2253 101.602 71.8597 103.414 69.947C105.327 68.0343 107.39 66.172 109.605 64.36C111.92 62.548 114.789 60.4843 118.212 58.169C120.427 56.5583 123.245 55.5517 126.668 55.149C130.191 54.7463 133.614 55.3 136.936 56.81C140.258 58.2193 142.724 60.9373 144.335 64.964C145.442 67.078 145.946 69.7457 145.845 72.967C145.744 76.0877 145.14 79.46 144.033 83.084C142.926 86.6073 141.516 89.9293 139.805 93.05C138.094 96.1707 136.181 98.6873 134.067 100.6C132.758 101.808 130.997 102.009 128.782 101.204C126.668 100.399 124.906 99.3417 123.497 98.033C122.591 96.3217 122.088 95.315 121.987 95.013C121.987 94.711 122.188 94.5097 122.591 94.409C123.195 93.7043 124 92.4963 125.007 90.785C126.014 89.0737 127.02 87.2617 128.027 85.349C129.034 83.3357 129.738 81.725 130.141 80.517C130.946 76.289 131.5 73.5207 131.802 72.212C132.104 70.8027 131.802 69.645 130.896 68.739C130.493 68.3363 129.889 68.1853 129.084 68.286C128.379 68.3867 127.171 68.89 125.46 69.796C123.145 70.8027 120.376 72.8663 117.155 75.987C114.034 79.007 110.914 82.631 107.793 86.859C103.766 92.1943 100.394 96.9257 97.676 101.053C94.958 105.18 92.8943 109.408 91.485 113.737C91.2837 114.14 90.9313 114.895 90.428 116.002C90.0253 117.109 89.824 117.663 89.824 117.663C89.9247 118.066 89.7737 119.072 89.371 120.683C88.9683 122.193 88.5153 123.502 88.012 124.609C86.9047 129.24 86.2503 133.719 86.049 138.048C85.8477 142.276 86.0993 146.001 86.804 149.222C87.6093 152.343 88.767 154.658 90.277 156.168C91.5857 157.074 93.2467 157.376 95.26 157.074C97.2733 156.772 99.5887 156.067 102.206 154.96C104.823 153.853 107.642 152.645 110.662 151.336C113.078 150.329 115.293 149.222 117.306 148.014C119.319 146.806 120.829 145.749 121.836 144.843C122.641 144.239 123.648 143.635 124.856 143.031C126.165 142.326 127.272 141.974 128.178 141.974C129.587 141.471 130.644 141.873 131.349 143.182C132.054 144.491 132.406 146.152 132.406 148.165C132.406 149.574 131.399 151.286 129.386 153.299C127.373 155.312 125.158 157.024 122.742 158.433C121.937 159.238 120.829 159.993 119.42 160.698C118.111 161.302 116.752 161.856 115.343 162.359C113.229 163.97 110.612 165.53 107.491 167.04C104.37 168.55 101.199 169.708 97.978 170.513C94.8573 171.318 91.9883 171.469 89.371 170.966ZM146.685 157.829C146.282 157.024 145.376 156.218 143.967 155.413C142.658 154.608 142.004 154.004 142.004 153.601C142.004 153.198 141.752 152.594 141.249 151.789C140.846 150.883 140.444 150.229 140.041 149.826C139.538 149.222 139.689 147.762 140.494 145.447C141.299 143.031 142.507 140.112 144.118 136.689C145.729 133.266 147.49 129.793 149.403 126.27C150.208 125.465 151.014 124.408 151.819 123.099C152.624 121.79 153.228 120.935 153.631 120.532C153.631 120.129 153.782 119.777 154.084 119.475C154.386 119.072 154.738 118.871 155.141 118.871L156.349 116.455C156.55 116.052 157.154 115.247 158.161 114.039C159.268 112.831 160.577 111.522 162.087 110.113C163.597 108.603 165.107 107.194 166.617 105.885C168.228 104.576 169.536 103.62 170.543 103.016C172.657 101.607 174.821 100.952 177.036 101.053C179.351 101.154 181.314 101.858 182.925 103.167C183.227 103.469 183.881 104.073 184.888 104.979C185.995 105.885 187.203 106.892 188.512 107.999C189.921 109.106 191.129 110.113 192.136 111.019L197.723 116.002L195.156 123.552C193.847 127.579 193.495 131.102 194.099 134.122C194.703 137.142 195.659 139.759 196.968 141.974C197.471 143.081 198.126 143.937 198.931 144.541C199.837 145.145 200.995 145.548 202.404 145.749C203.209 145.85 203.964 146.152 204.669 146.655C205.374 147.158 205.726 147.964 205.726 149.071C205.726 151.487 205.273 153.249 204.367 154.356C203.562 155.363 202.656 155.967 201.649 156.168C198.327 156.571 195.156 156.218 192.136 155.111C189.116 154.004 186.398 151.135 183.982 146.504C183.579 145.9 183.026 144.793 182.321 143.182C181.717 141.471 181.365 140.363 181.264 139.86C180.861 140.363 180.308 141.018 179.603 141.823C178.999 142.528 178.395 143.182 177.791 143.786C170.644 151.034 164.503 155.765 159.369 157.98C154.336 160.094 150.108 160.044 146.685 157.829ZM154.99 145.296C155.695 145.397 156.802 145.044 158.312 144.239C159.822 143.333 161.835 141.873 164.352 139.86C167.775 136.941 170.593 134.525 172.808 132.612C175.023 130.699 177.187 128.233 179.301 125.213L182.623 119.777C181.616 117.462 180.71 115.952 179.905 115.247C179.1 114.542 178.294 114.19 177.489 114.19C176.18 114.19 174.62 115.046 172.808 116.757C170.996 118.368 168.932 120.784 166.617 124.005C164.402 127.126 161.886 131.052 159.067 135.783C157.758 137.998 156.752 140.162 156.047 142.276C155.342 144.289 154.99 145.296 154.99 145.296ZM219.43 152.997C218.726 152.393 217.769 150.581 216.561 147.561C215.454 144.541 214.347 141.018 213.239 136.991C212.233 132.964 211.427 129.24 210.823 125.817C210.421 123.804 209.968 122.092 209.464 120.683C209.062 119.274 208.709 118.116 208.407 117.21C207.904 115.398 208.055 113.485 208.86 111.472C209.766 109.459 210.823 108.1 212.031 107.395C212.535 107.093 213.441 106.892 214.749 106.791C216.159 106.59 217.065 106.539 217.467 106.64C218.675 107.043 219.783 108.905 220.789 112.227C221.796 115.448 222.702 119.727 223.507 125.062C223.91 128.183 224.212 130.498 224.413 132.008C224.715 133.417 224.866 134.323 224.866 134.726C225.269 135.531 225.521 136.538 225.621 137.746C225.823 138.853 226.326 139.004 227.131 138.199C227.534 137.796 228.138 137.092 228.943 136.085C229.849 135.078 230.906 133.77 232.114 132.159C234.228 129.34 235.889 127.025 237.097 125.213C238.406 123.3 239.866 121.337 241.476 119.324C242.181 118.317 243.137 117.21 244.345 116.002C245.553 114.794 246.761 113.687 247.969 112.68C249.177 111.573 250.184 110.918 250.989 110.717C253.405 110.314 254.865 111.22 255.368 113.435C255.972 115.549 255.268 118.015 253.254 120.834C252.449 122.042 251.795 123.2 251.291 124.307C250.889 125.314 250.486 126.018 250.083 126.421C249.278 128.032 248.02 130.095 246.308 132.612C244.597 135.028 242.936 137.293 241.325 139.407C239.715 141.42 238.607 142.729 238.003 143.333C237.601 143.736 236.695 144.491 235.285 145.598C233.977 146.705 232.718 148.115 231.51 149.826C229.094 152.141 226.779 153.551 224.564 154.054C222.35 154.557 220.638 154.205 219.43 152.997ZM272.742 163.718C267.205 163.718 262.927 162.107 259.907 158.886C256.987 155.665 255.528 150.732 255.528 144.088C255.528 140.464 256.182 136.488 257.491 132.159C258.9 127.83 260.712 123.602 262.927 119.475C265.242 115.348 267.759 111.774 270.477 108.754C273.195 105.633 275.913 103.469 278.631 102.261C279.637 101.758 280.694 101.405 281.802 101.204C283.01 100.902 284.167 100.751 285.275 100.751C286.483 100.751 287.791 100.852 289.201 101.053C290.711 101.154 292.12 101.456 293.429 101.959C295.744 102.664 297.757 104.023 299.469 106.036C301.281 108.049 302.187 110.969 302.187 114.794C302.187 115.801 302.086 116.908 301.885 118.116C301.683 119.223 301.331 120.331 300.828 121.438C299.519 124.76 297.506 127.931 294.788 130.951C292.17 133.971 289.402 136.085 286.483 137.293C285.677 137.696 284.872 137.998 284.067 138.199C283.362 138.3 282.607 138.35 281.802 138.35C279.688 138.35 277.775 138.048 276.064 137.444C274.453 136.84 272.943 136.035 271.534 135.028L270.326 133.971L269.571 135.481C268.866 137.394 268.363 139.004 268.061 140.313C267.859 141.622 267.759 142.578 267.759 143.182C267.759 144.39 267.809 145.648 267.91 146.957C268.01 148.165 268.312 149.172 268.816 149.977C269.218 150.48 269.722 150.883 270.326 151.185C271.03 151.487 271.886 151.638 272.893 151.638C273.497 151.638 274.05 151.638 274.554 151.638C275.158 151.537 275.661 151.437 276.064 151.336C277.876 150.933 279.335 150.279 280.443 149.373C281.651 148.366 282.909 147.511 284.218 146.806L284.822 146.504L284.671 146.051C286.382 145.145 287.54 144.591 288.144 144.39C288.748 144.088 289.201 143.836 289.503 143.635C289.905 143.232 290.358 143.031 290.862 143.031C292.271 142.83 293.63 143.232 294.939 144.239C296.348 145.145 297.053 146.303 297.053 147.712C297.053 148.316 296.6 149.272 295.694 150.581C294.888 151.89 293.831 153.198 292.523 154.507C291.315 155.715 290.056 156.671 288.748 157.376C288.446 157.477 288.144 157.628 287.842 157.829C287.54 157.93 287.238 158.081 286.936 158.282H287.087C286.181 159.49 285.275 160.094 284.369 160.094H283.161C282.758 160.799 281.449 161.554 279.235 162.359C277.02 163.265 274.856 163.718 272.742 163.718ZM280.594 127.327C281.5 127.327 282.305 127.176 283.01 126.874C283.815 126.572 284.57 126.22 285.275 125.817C287.691 124.106 289.251 121.891 289.956 119.173C290.66 116.455 290.409 114.391 289.201 112.982C288.999 112.68 288.748 112.479 288.446 112.378C288.144 112.177 287.791 112.076 287.389 112.076C286.281 112.076 285.023 112.428 283.614 113.133C282.305 113.838 280.996 114.844 279.688 116.153C278.379 117.462 277.171 119.022 276.064 120.834L274.101 124.005C274.302 123.904 274.453 123.854 274.554 123.854C274.755 123.753 274.906 123.703 275.007 123.703C275.913 123.703 276.517 124.005 276.819 124.609C277.121 125.213 277.473 125.817 277.876 126.421C278.379 127.025 279.285 127.327 280.594 127.327ZM316.831 158.282C315.623 158.584 314.264 158.232 312.754 157.225C311.244 156.218 309.885 154.96 308.677 153.45C307.469 151.94 306.714 150.581 306.412 149.373C306.01 147.259 306.11 144.692 306.714 141.672C307.419 138.551 308.577 135.28 310.187 131.857C311.798 128.334 313.811 124.911 316.227 121.589C318.643 118.166 321.361 115.096 324.381 112.378C327.401 109.66 330.673 107.546 334.196 106.036C335.706 105.231 336.763 104.727 337.367 104.526C337.971 104.224 338.575 104.224 339.179 104.526C339.783 104.727 340.84 105.231 342.35 106.036C343.76 106.439 345.169 106.942 346.578 107.546C348.088 108.049 349.397 109.056 350.504 110.566C351.31 112.076 351.914 113.586 352.316 115.096C352.719 116.606 353.071 118.317 353.373 120.23C354.179 122.747 354.481 124.408 354.279 125.213C354.078 125.918 353.776 126.471 353.373 126.874C352.568 127.881 352.367 128.384 352.769 128.384C352.769 128.384 352.719 128.585 352.618 128.988C352.618 129.29 352.417 129.793 352.014 130.498C351.31 132.713 350.756 134.827 350.353 136.84C350.051 138.753 350.102 140.464 350.504 141.974C351.31 144.189 352.367 145.497 353.675 145.9C355.085 146.303 356.897 145.397 359.111 143.182C360.219 142.377 361.477 141.873 362.886 141.672C364.296 141.37 365 141.622 365 142.427C365 142.427 365.151 142.578 365.453 142.88C365.755 143.081 366.108 143.182 366.51 143.182C367.014 143.182 367.215 143.685 367.114 144.692C367.014 145.598 366.812 146.655 366.51 147.863C366.208 149.071 365.806 150.078 365.302 150.883C363.792 152.393 363.037 153.4 363.037 153.903C363.037 153.903 362.836 154.104 362.433 154.507C362.131 154.809 361.578 155.312 360.772 156.017C358.96 157.124 356.645 157.678 353.826 157.678C351.108 157.678 348.994 157.124 347.484 156.017C345.974 154.91 344.464 153.551 342.954 151.94C341.545 150.329 340.639 148.819 340.236 147.41L339.481 145.9L335.102 148.769C333.995 149.876 333.19 150.732 332.686 151.336C332.183 151.839 331.73 152.292 331.327 152.695C331.025 153.098 330.673 153.45 330.27 153.752C329.968 154.054 329.616 154.205 329.213 154.205C328.811 154.205 328.458 154.205 328.156 154.205C327.854 154.205 327.703 154.205 327.703 154.205C327.703 154.608 326.999 155.161 325.589 155.866C324.18 156.47 322.62 157.024 320.908 157.527C319.197 158.03 317.838 158.282 316.831 158.282ZM320.002 145.598C320.606 145.598 321.512 145.246 322.72 144.541C324.029 143.736 325.438 142.779 326.948 141.672C328.458 140.565 329.817 139.457 331.025 138.35C332.334 137.243 333.29 136.337 333.894 135.632C334.297 135.229 334.75 134.575 335.253 133.669C335.857 132.763 336.512 131.958 337.216 131.253C339.532 128.636 340.991 126.572 341.595 125.062C342.199 123.451 341.948 121.74 340.84 119.928C340.438 118.821 339.934 118.217 339.33 118.116C338.726 118.015 337.468 118.368 335.555 119.173C334.347 119.878 333.039 121.035 331.629 122.646C330.22 124.257 328.76 126.069 327.25 128.082C325.841 130.095 324.532 132.159 323.324 134.273C322.116 136.387 321.11 138.3 320.304 140.011C319.6 141.722 319.247 143.081 319.247 144.088C319.247 144.491 319.348 144.843 319.549 145.145C319.851 145.447 320.002 145.598 320.002 145.598ZM390.813 161.906C389.404 161.503 387.994 160.799 386.585 159.792C385.176 158.785 383.716 157.628 382.206 156.319C380.998 154.708 380.142 153.249 379.639 151.94C379.136 150.531 378.834 148.92 378.733 147.108C378.733 145.195 378.733 142.779 378.733 139.86C378.733 138.652 378.934 136.941 379.337 134.726C379.84 132.511 380.344 130.196 380.847 127.78C381.451 125.364 382.005 123.25 382.508 121.438C383.011 119.525 383.313 118.267 383.414 117.663C383.716 116.354 383.213 115.599 381.904 115.398C380.595 115.197 379.136 115.146 377.525 115.247C376.015 115.247 375.008 115.096 374.505 114.794C374.102 114.693 373.901 114.19 373.901 113.284C373.901 112.277 373.901 111.774 373.901 111.774C373.901 111.371 373.7 111.12 373.297 111.019C372.894 110.818 372.542 110.465 372.24 109.962C372.039 109.559 372.29 108.804 372.995 107.697C373.7 106.59 374.606 105.935 375.713 105.734C376.619 105.533 377.978 105.382 379.79 105.281C381.602 105.08 383.414 104.727 385.226 104.224C387.139 103.62 388.598 102.714 389.605 101.506C390.511 99.2913 391.518 96.9257 392.625 94.409C393.732 91.7917 394.789 89.5267 395.796 87.614C396.803 85.6007 397.507 84.3423 397.91 83.839C399.621 82.933 401.383 82.5807 403.195 82.782C405.007 82.8827 406.416 83.7383 407.423 85.349C407.926 86.0537 408.329 86.557 408.631 86.859C409.034 87.161 409.185 87.614 409.084 88.218C409.084 88.822 408.681 89.9293 407.876 91.54C407.171 93.05 405.963 95.4157 404.252 98.637C403.749 99.6437 403.296 100.55 402.893 101.355C402.49 102.06 402.289 102.412 402.289 102.412C402.692 102.513 403.296 102.563 404.101 102.563C404.906 102.563 405.913 102.513 407.121 102.412C408.228 102.211 409.436 102.06 410.745 101.959C412.054 101.758 413.211 101.758 414.218 101.959C416.533 101.959 418.245 102.613 419.352 103.922C420.459 105.231 421.063 106.892 421.164 108.905C421.365 110.012 420.963 110.969 419.956 111.774C418.949 112.579 417.087 112.982 414.369 112.982C413.463 112.982 412.154 113.032 410.443 113.133C408.732 113.234 406.97 113.334 405.158 113.435C403.346 113.536 401.786 113.687 400.477 113.888C399.269 113.989 398.665 114.14 398.665 114.341C398.363 114.542 397.86 115.348 397.155 116.757C396.551 118.066 395.897 119.676 395.192 121.589C394.588 123.502 394.034 125.314 393.531 127.025C392.826 130.448 392.323 133.77 392.021 136.991C391.719 140.212 391.669 143.031 391.87 145.447C392.172 147.762 392.776 149.423 393.682 150.43C394.588 151.336 395.947 151.336 397.759 150.43C399.672 149.423 401.433 148.266 403.044 146.957C404.856 145.447 406.416 144.994 407.725 145.598C409.034 146.101 409.839 147.209 410.141 148.92C410.544 150.531 410.091 152.292 408.782 154.205C407.574 156.118 405.863 157.728 403.648 159.037C401.433 160.346 399.168 161.252 396.853 161.755C394.538 162.359 392.524 162.409 390.813 161.906Z" fill="var(--darkGray)"/>
</svg>
