<svg viewBox="0 0 856 230" fill="none" xmlns="http://www.w3.org/2000/svg">
<path d="M161 168.5H137.15L86.45 84.5H85.85C85.95 86.7 86.05 89.05 86.15 91.55C86.35 93.95 86.5 96.45 86.6 99.05C86.7 101.55 86.8 104.1 86.9 106.7C87 109.3 87.1 111.9 87.2 114.5V168.5H69.95V61.4H93.65L144.2 144.8H144.65C144.55 142.8 144.45 140.65 144.35 138.35C144.25 135.95 144.15 133.5 144.05 131C144.05 128.5 144 125.95 143.9 123.35C143.8 120.75 143.7 118.25 143.6 115.85V61.4H161V168.5ZM259.695 127.7C259.695 134.5 258.795 140.5 256.995 145.7C255.195 150.9 252.595 155.35 249.195 159.05C245.895 162.65 241.795 165.4 236.895 167.3C232.095 169.1 226.745 170 220.845 170C215.245 170 210.095 169.1 205.395 167.3C200.695 165.4 196.595 162.65 193.095 159.05C189.695 155.35 187.045 150.9 185.145 145.7C183.245 140.5 182.295 134.5 182.295 127.7C182.295 118.7 183.845 111.1 186.945 104.9C190.045 98.6 194.495 93.85 200.295 90.65C206.195 87.35 213.145 85.7 221.145 85.7C228.745 85.7 235.395 87.35 241.095 90.65C246.895 93.85 251.445 98.6 254.745 104.9C258.045 111.1 259.695 118.7 259.695 127.7ZM201.645 127.7C201.645 133.4 202.295 138.3 203.595 142.4C204.995 146.4 207.095 149.45 209.895 151.55C212.795 153.65 216.495 154.7 220.995 154.7C225.595 154.7 229.295 153.65 232.095 151.55C234.995 149.45 237.095 146.4 238.395 142.4C239.695 138.3 240.345 133.4 240.345 127.7C240.345 121.9 239.645 117.05 238.245 113.15C236.945 109.15 234.845 106.15 231.945 104.15C229.145 102.05 225.495 101 220.995 101C214.195 101 209.245 103.3 206.145 107.9C203.145 112.5 201.645 119.1 201.645 127.7ZM310.734 154.85C313.134 154.85 315.434 154.65 317.634 154.25C319.834 153.75 321.884 153.2 323.784 152.6V166.7C321.784 167.6 319.184 168.35 315.984 168.95C312.784 169.65 309.434 170 305.934 170C301.334 170 297.134 169.25 293.334 167.75C289.634 166.15 286.634 163.45 284.334 159.65C282.134 155.85 281.034 150.55 281.034 143.75V101.45H270.084V93.2L282.084 86.6L288.084 69.35H299.934V87.2H323.034V101.45H299.934V143.6C299.934 147.4 300.934 150.25 302.934 152.15C304.934 153.95 307.534 154.85 310.734 154.85ZM412.771 127.7C412.771 134.5 411.871 140.5 410.071 145.7C408.271 150.9 405.671 155.35 402.271 159.05C398.971 162.65 394.871 165.4 389.971 167.3C385.171 169.1 379.821 170 373.921 170C368.321 170 363.171 169.1 358.471 167.3C353.771 165.4 349.671 162.65 346.171 159.05C342.771 155.35 340.121 150.9 338.221 145.7C336.321 140.5 335.371 134.5 335.371 127.7C335.371 118.7 336.921 111.1 340.021 104.9C343.121 98.6 347.571 93.85 353.371 90.65C359.271 87.35 366.221 85.7 374.221 85.7C381.821 85.7 388.471 87.35 394.171 90.65C399.971 93.85 404.521 98.6 407.821 104.9C411.121 111.1 412.771 118.7 412.771 127.7ZM354.721 127.7C354.721 133.4 355.371 138.3 356.671 142.4C358.071 146.4 360.171 149.45 362.971 151.55C365.871 153.65 369.571 154.7 374.071 154.7C378.671 154.7 382.371 153.65 385.171 151.55C388.071 149.45 390.171 146.4 391.471 142.4C392.771 138.3 393.421 133.4 393.421 127.7C393.421 121.9 392.721 117.05 391.321 113.15C390.021 109.15 387.921 106.15 385.021 104.15C382.221 102.05 378.571 101 374.071 101C367.271 101 362.321 103.3 359.221 107.9C356.221 112.5 354.721 119.1 354.721 127.7ZM535.325 139.25C535.325 145.55 533.775 151 530.675 155.6C527.575 160.2 523.075 163.75 517.175 166.25C511.375 168.75 504.425 170 496.325 170C492.425 170 488.675 169.75 485.075 169.25C481.575 168.85 478.225 168.2 475.025 167.3C471.925 166.4 469.025 165.3 466.325 164V146C470.825 148 475.775 149.85 481.175 151.55C486.575 153.15 492.075 153.95 497.675 153.95C501.975 153.95 505.475 153.4 508.175 152.3C510.975 151.1 513.025 149.5 514.325 147.5C515.625 145.4 516.275 143 516.275 140.3C516.275 137.3 515.425 134.75 513.725 132.65C512.025 130.55 509.525 128.6 506.225 126.8C502.925 125 498.825 123.1 493.925 121.1C490.625 119.7 487.375 118.15 484.175 116.45C481.075 114.65 478.275 112.5 475.775 110C473.275 107.5 471.275 104.55 469.775 101.15C468.275 97.75 467.525 93.75 467.525 89.15C467.525 83.05 468.975 77.8 471.875 73.4C474.875 69 479.025 65.65 484.325 63.35C489.725 61.05 495.975 59.9 503.075 59.9C508.775 59.9 514.125 60.5 519.125 61.7C524.125 62.9 529.075 64.6 533.975 66.8L527.825 82.25C523.425 80.35 519.175 78.85 515.075 77.75C510.975 76.65 506.775 76.1 502.475 76.1C499.075 76.1 496.175 76.65 493.775 77.75C491.375 78.75 489.575 80.2 488.375 82.1C487.175 84 486.575 86.2 486.575 88.7C486.575 91.6 487.325 94.05 488.825 96.05C490.325 98.05 492.625 99.95 495.725 101.75C498.925 103.45 503.025 105.4 508.025 107.6C513.825 110.1 518.725 112.7 522.725 115.4C526.725 118.1 529.825 121.35 532.025 125.15C534.225 128.95 535.325 133.65 535.325 139.25ZM586.146 85.7C596.646 85.7 604.596 88 609.996 92.6C615.496 97.1 618.246 104.2 618.246 113.9V168.5H604.896L601.146 157.25H600.546C598.246 160.15 595.846 162.6 593.346 164.6C590.946 166.5 588.146 167.85 584.946 168.65C581.846 169.55 578.046 170 573.546 170C568.746 170 564.396 169.1 560.496 167.3C556.696 165.5 553.696 162.75 551.496 159.05C549.296 155.25 548.196 150.5 548.196 144.8C548.196 136.4 551.246 130.1 557.346 125.9C563.546 121.6 572.896 119.25 585.396 118.85L599.496 118.4V114.35C599.496 109.15 598.246 105.45 595.746 103.25C593.246 101.05 589.746 99.95 585.246 99.95C581.146 99.95 577.196 100.55 573.396 101.75C569.596 102.95 565.896 104.35 562.296 105.95L556.296 92.75C560.296 90.65 564.846 88.95 569.946 87.65C575.146 86.35 580.546 85.7 586.146 85.7ZM589.596 130.4C581.296 130.7 575.546 132.15 572.346 134.75C569.146 137.25 567.546 140.65 567.546 144.95C567.546 148.75 568.696 151.5 570.996 153.2C573.296 154.9 576.246 155.75 579.846 155.75C585.346 155.75 589.996 154.2 593.796 151.1C597.596 147.9 599.496 143.2 599.496 137V130.1L589.596 130.4ZM685.429 85.7C694.529 85.7 701.629 88.05 706.729 92.75C711.929 97.45 714.529 105.05 714.529 115.55V168.5H695.629V119.3C695.629 113.2 694.429 108.65 692.029 105.65C689.629 102.55 685.829 101 680.629 101C673.029 101 667.829 103.4 665.029 108.2C662.229 112.9 660.829 119.75 660.829 128.75V168.5H641.929V87.2H656.479L659.179 97.85H660.229C662.029 95.05 664.229 92.75 666.829 90.95C669.429 89.15 672.329 87.85 675.529 87.05C678.729 86.15 682.029 85.7 685.429 85.7ZM793.52 144.95C793.52 150.35 792.22 154.95 789.62 158.75C787.02 162.45 783.17 165.25 778.07 167.15C773.07 169.05 766.92 170 759.62 170C753.92 170 749.02 169.6 744.92 168.8C740.82 168 736.92 166.75 733.22 165.05V149C737.22 150.9 741.67 152.5 746.57 153.8C751.47 155.1 756.02 155.75 760.22 155.75C765.42 155.75 769.17 154.95 771.47 153.35C773.77 151.75 774.92 149.6 774.92 146.9C774.92 145.3 774.47 143.85 773.57 142.55C772.67 141.25 770.92 139.9 768.32 138.5C765.72 137 761.77 135.15 756.47 132.95C751.27 130.85 746.92 128.75 743.42 126.65C740.02 124.55 737.42 122.05 735.62 119.15C733.92 116.15 733.07 112.4 733.07 107.9C733.07 100.6 735.97 95.1 741.77 91.4C747.57 87.6 755.22 85.7 764.72 85.7C769.72 85.7 774.42 86.2 778.82 87.2C783.32 88.1 787.82 89.6 792.32 91.7L786.32 105.65C783.82 104.55 781.32 103.6 778.82 102.8C776.42 101.9 773.97 101.2 771.47 100.7C769.07 100.2 766.62 99.95 764.12 99.95C760.02 99.95 756.92 100.6 754.82 101.9C752.72 103.1 751.67 104.8 751.67 107C751.67 108.7 752.17 110.2 753.17 111.5C754.27 112.7 756.12 113.95 758.72 115.25C761.42 116.45 765.22 118.05 770.12 120.05C775.02 121.95 779.17 123.95 782.57 126.05C786.07 128.05 788.77 130.55 790.67 133.55C792.57 136.55 793.52 140.35 793.52 144.95Z" fill="var(--darkGray)"/>
</svg>
