<svg viewBox="0 0 1192 230" fill="none" xmlns="http://www.w3.org/2000/svg">
<path d="M61.4 61.8C63.9 61.9 67.1 62 71 62.1C74.9 62.2 78.8 62.25 82.7 62.25C87.6 62.25 92.25 62.2 96.65 62.1C101.05 62 104.15 61.95 105.95 61.95C119.35 61.95 129.3 64.7 135.8 70.2C142.4 75.7 145.7 82.8 145.7 91.5C145.7 95.1 145.05 98.9 143.75 102.9C142.45 106.8 140.2 110.45 137 113.85C133.8 117.15 129.4 119.85 123.8 121.95C118.3 124.05 111.25 125.1 102.65 125.1H87.65V122.1H101.15C107.45 122.1 112.25 120.75 115.55 118.05C118.95 115.35 121.2 111.8 122.3 107.4C123.5 103 124.1 98.25 124.1 93.15C124.1 83.65 122.55 76.55 119.45 71.85C116.35 67.15 111 64.8 103.4 64.8C99.3 64.8 96.6 65.65 95.3 67.35C94.1 69.05 93.5 72.5 93.5 77.7V151.5C93.5 155.3 93.9 158.15 94.7 160.05C95.5 161.95 97.05 163.2 99.35 163.8C101.65 164.4 104.95 164.75 109.25 164.85V168C106.35 167.8 102.6 167.7 98 167.7C93.4 167.6 88.65 167.55 83.75 167.55C79.55 167.55 75.5 167.6 71.6 167.7C67.7 167.7 64.3 167.8 61.4 168V165C64.7 164.8 67.15 164.4 68.75 163.8C70.45 163.2 71.55 162 72.05 160.2C72.65 158.4 72.95 155.7 72.95 152.1V77.7C72.95 74 72.65 71.3 72.05 69.6C71.55 67.8 70.45 66.6 68.75 66C67.15 65.3 64.7 64.9 61.4 64.8V61.8ZM179.946 50.55V154.05C179.946 158.25 180.696 161.1 182.196 162.6C183.796 164.1 186.446 164.85 190.146 164.85V168C188.346 167.9 185.596 167.8 181.896 167.7C178.296 167.5 174.596 167.4 170.796 167.4C167.096 167.4 163.296 167.5 159.396 167.7C155.596 167.8 152.746 167.9 150.846 168V164.85C154.546 164.85 157.146 164.1 158.646 162.6C160.246 161.1 161.046 158.25 161.046 154.05V68.55C161.046 64.05 160.346 60.75 158.946 58.65C157.546 56.45 154.846 55.35 150.846 55.35V52.2C154.046 52.5 157.146 52.65 160.146 52.65C163.946 52.65 167.496 52.5 170.796 52.2C174.096 51.8 177.146 51.25 179.946 50.55ZM218.006 169.05C213.706 169.05 210.056 168.25 207.056 166.65C204.056 164.95 201.806 162.7 200.306 159.9C198.806 157 198.056 153.8 198.056 150.3C198.056 146 199.056 142.5 201.056 139.8C203.056 137 205.606 134.8 208.706 133.2C211.906 131.5 215.256 130.1 218.756 129C222.256 127.8 225.556 126.7 228.656 125.7C231.756 124.6 234.306 123.35 236.306 121.95C238.306 120.55 239.306 118.7 239.306 116.4V105.45C239.306 102.25 238.806 99.65 237.806 97.65C236.906 95.55 235.506 94 233.606 93C231.806 91.9 229.506 91.35 226.706 91.35C224.606 91.35 222.406 91.65 220.106 92.25C217.806 92.85 215.906 94 214.406 95.7C217.006 96.4 219.006 97.7 220.406 99.6C221.906 101.5 222.656 103.8 222.656 106.5C222.656 109.6 221.606 112.05 219.506 113.85C217.506 115.55 214.956 116.4 211.856 116.4C208.556 116.4 206.056 115.35 204.356 113.25C202.656 111.15 201.806 108.7 201.806 105.9C201.806 103.1 202.506 100.8 203.906 99C205.306 97.1 207.256 95.4 209.756 93.9C212.256 92.2 215.456 90.85 219.356 89.85C223.256 88.85 227.506 88.35 232.106 88.35C236.506 88.35 240.406 88.85 243.806 89.85C247.206 90.75 250.106 92.4 252.506 94.8C254.906 97.1 256.456 99.95 257.156 103.35C257.856 106.75 258.206 110.9 258.206 115.8V156.9C258.206 159.4 258.506 161.2 259.106 162.3C259.706 163.3 260.656 163.8 261.956 163.8C262.956 163.8 263.906 163.55 264.806 163.05C265.706 162.55 266.706 161.85 267.806 160.95L269.456 163.5C267.256 165.2 264.956 166.55 262.556 167.55C260.156 168.55 257.256 169.05 253.856 169.05C250.356 169.05 247.556 168.55 245.456 167.55C243.456 166.55 241.956 165.1 240.956 163.2C240.056 161.3 239.556 159.05 239.456 156.45C237.056 160.45 234.106 163.55 230.606 165.75C227.106 167.95 222.906 169.05 218.006 169.05ZM227.006 160.65C229.406 160.65 231.606 160 233.606 158.7C235.706 157.4 237.606 155.45 239.306 152.85V122.55C238.306 124.05 236.856 125.4 234.956 126.6C233.156 127.8 231.206 129 229.106 130.2C227.006 131.4 225.006 132.8 223.106 134.4C221.306 135.9 219.756 137.8 218.456 140.1C217.256 142.3 216.656 145.15 216.656 148.65C216.656 152.55 217.606 155.55 219.506 157.65C221.406 159.65 223.906 160.65 227.006 160.65ZM344.595 90.45V93.6C342.695 94 340.895 95.05 339.195 96.75C337.595 98.45 336.045 101.45 334.545 105.75L312.345 166.65L307.695 173.7L276.795 102C274.895 98.2 273.095 95.85 271.395 94.95C269.695 94.05 268.295 93.6 267.195 93.6V90.45C270.095 90.75 273.095 91 276.195 91.2C279.395 91.3 282.595 91.35 285.795 91.35C289.495 91.35 293.045 91.25 296.445 91.05C299.945 90.85 303.195 90.65 306.195 90.45V93.6C303.895 93.6 301.845 93.75 300.045 94.05C298.245 94.35 297.045 95.2 296.445 96.6C295.945 97.9 296.345 100.2 297.645 103.5L316.395 149.25L315.195 149.85L328.395 114.15C330.095 109.45 330.795 105.65 330.495 102.75C330.195 99.85 329.095 97.65 327.195 96.15C325.295 94.65 322.695 93.8 319.395 93.6V90.45C320.995 90.55 322.595 90.65 324.195 90.75C325.795 90.85 327.345 90.95 328.845 91.05C330.345 91.05 331.795 91.05 333.195 91.05C335.295 91.05 337.345 91 339.345 90.9C341.445 90.8 343.195 90.65 344.595 90.45ZM312.345 166.65L306.645 181.8C305.745 184.3 304.745 186.4 303.645 188.1C302.645 189.9 301.495 191.35 300.195 192.45C298.695 193.75 296.845 194.7 294.645 195.3C292.545 195.9 290.195 196.2 287.595 196.2C285.295 196.2 283.045 195.8 280.845 195C278.745 194.2 276.945 193 275.445 191.4C274.045 189.8 273.345 187.7 273.345 185.1C273.345 182.3 274.295 180.05 276.195 178.35C278.095 176.65 280.695 175.8 283.995 175.8C286.895 175.8 289.245 176.5 291.045 177.9C292.945 179.4 293.895 181.6 293.895 184.5C293.895 186.4 293.345 188.1 292.245 189.6C291.145 191.1 289.595 192.25 287.595 193.05C288.095 193.15 288.545 193.2 288.945 193.2C289.445 193.3 289.845 193.35 290.145 193.35C293.045 193.35 295.645 192.4 297.945 190.5C300.245 188.6 302.095 185.6 303.495 181.5L308.895 166.65H312.345ZM386.588 50.7C389.888 50.7 392.738 51.15 395.138 52.05C397.638 52.85 399.788 53.95 401.588 55.35C403.088 56.55 404.288 58.05 405.188 59.85C406.188 61.65 406.688 63.65 406.688 65.85C406.688 68.55 405.738 70.85 403.838 72.75C402.038 74.65 399.738 75.6 396.938 75.6C393.938 75.6 391.438 74.75 389.438 73.05C387.538 71.25 386.588 68.8 386.588 65.7C386.588 63.3 387.238 61.25 388.538 59.55C389.938 57.75 391.888 56.5 394.388 55.8C394.088 55.1 393.438 54.5 392.438 54C391.438 53.5 390.088 53.25 388.388 53.25C386.388 53.25 384.638 53.65 383.138 54.45C381.738 55.25 380.588 56.35 379.688 57.75C378.688 59.45 377.988 61.95 377.588 65.25C377.188 68.55 376.988 73.55 376.988 80.25V90.6H393.038V93.6H376.988V152.55C376.988 157.45 378.288 160.75 380.888 162.45C383.588 164.05 387.188 164.85 391.688 164.85V168C389.188 167.9 385.688 167.8 381.188 167.7C376.688 167.5 371.888 167.4 366.788 167.4C363.188 167.4 359.588 167.5 355.988 167.7C352.388 167.8 349.688 167.9 347.888 168V164.85C351.588 164.85 354.188 164.1 355.688 162.6C357.288 161.1 358.088 158.25 358.088 154.05V93.6H347.288V90.6H358.088C358.088 84.7 358.388 79.8 358.988 75.9C359.588 71.9 360.488 68.5 361.688 65.7C362.988 62.9 364.738 60.4 366.938 58.2C369.038 56 371.788 54.2 375.188 52.8C378.688 51.4 382.488 50.7 386.588 50.7ZM420.447 169.05C416.147 169.05 412.497 168.25 409.497 166.65C406.497 164.95 404.247 162.7 402.747 159.9C401.247 157 400.497 153.8 400.497 150.3C400.497 146 401.497 142.5 403.497 139.8C405.497 137 408.047 134.8 411.147 133.2C414.347 131.5 417.697 130.1 421.197 129C424.697 127.8 427.997 126.7 431.097 125.7C434.197 124.6 436.747 123.35 438.747 121.95C440.747 120.55 441.747 118.7 441.747 116.4V105.45C441.747 102.25 441.247 99.65 440.247 97.65C439.347 95.55 437.947 94 436.047 93C434.247 91.9 431.947 91.35 429.147 91.35C427.047 91.35 424.847 91.65 422.547 92.25C420.247 92.85 418.347 94 416.847 95.7C419.447 96.4 421.447 97.7 422.847 99.6C424.347 101.5 425.097 103.8 425.097 106.5C425.097 109.6 424.047 112.05 421.947 113.85C419.947 115.55 417.397 116.4 414.297 116.4C410.997 116.4 408.497 115.35 406.797 113.25C405.097 111.15 404.247 108.7 404.247 105.9C404.247 103.1 404.947 100.8 406.347 99C407.747 97.1 409.697 95.4 412.197 93.9C414.697 92.2 417.897 90.85 421.797 89.85C425.697 88.85 429.947 88.35 434.547 88.35C438.947 88.35 442.847 88.85 446.247 89.85C449.647 90.75 452.547 92.4 454.947 94.8C457.347 97.1 458.897 99.95 459.597 103.35C460.297 106.75 460.647 110.9 460.647 115.8V156.9C460.647 159.4 460.947 161.2 461.547 162.3C462.147 163.3 463.097 163.8 464.397 163.8C465.397 163.8 466.347 163.55 467.247 163.05C468.147 162.55 469.147 161.85 470.247 160.95L471.897 163.5C469.697 165.2 467.397 166.55 464.997 167.55C462.597 168.55 459.697 169.05 456.297 169.05C452.797 169.05 449.997 168.55 447.897 167.55C445.897 166.55 444.397 165.1 443.397 163.2C442.497 161.3 441.997 159.05 441.897 156.45C439.497 160.45 436.547 163.55 433.047 165.75C429.547 167.95 425.347 169.05 420.447 169.05ZM429.447 160.65C431.847 160.65 434.047 160 436.047 158.7C438.147 157.4 440.047 155.45 441.747 152.85V122.55C440.747 124.05 439.297 125.4 437.397 126.6C435.597 127.8 433.647 129 431.547 130.2C429.447 131.4 427.447 132.8 425.547 134.4C423.747 135.9 422.197 137.8 420.897 140.1C419.697 142.3 419.097 145.15 419.097 148.65C419.097 152.55 420.047 155.55 421.947 157.65C423.847 159.65 426.347 160.65 429.447 160.65ZM494.809 52.2C498.409 52.2 501.359 53.2 503.659 55.2C505.959 57.2 507.109 59.85 507.109 63.15C507.109 66.45 505.959 69.1 503.659 71.1C501.359 73.1 498.409 74.1 494.809 74.1C491.209 74.1 488.259 73.1 485.959 71.1C483.659 69.1 482.509 66.45 482.509 63.15C482.509 59.85 483.659 57.2 485.959 55.2C488.259 53.2 491.209 52.2 494.809 52.2ZM505.309 88.8V154.05C505.309 158.25 506.059 161.1 507.559 162.6C509.159 164.1 511.809 164.85 515.509 164.85V168C513.709 167.9 510.959 167.8 507.259 167.7C503.559 167.5 499.809 167.4 496.009 167.4C492.309 167.4 488.559 167.5 484.759 167.7C480.959 167.8 478.109 167.9 476.209 168V164.85C479.909 164.85 482.509 164.1 484.009 162.6C485.609 161.1 486.409 158.25 486.409 154.05V106.95C486.409 102.35 485.659 99 484.159 96.9C482.759 94.7 480.109 93.6 476.209 93.6V90.45C479.409 90.75 482.509 90.9 485.509 90.9C489.209 90.9 492.709 90.75 496.009 90.45C499.409 90.05 502.509 89.5 505.309 88.8ZM572.151 88.35C575.251 88.35 577.801 89 579.801 90.3C581.901 91.6 583.451 93.25 584.451 95.25C585.451 97.25 585.951 99.35 585.951 101.55C585.951 104.85 584.951 107.6 582.951 109.8C581.051 112 578.501 113.1 575.301 113.1C572.301 113.1 569.851 112.3 567.951 110.7C566.051 109.1 565.101 106.9 565.101 104.1C565.101 101.6 565.701 99.5 566.901 97.8C568.201 96.1 569.651 94.75 571.251 93.75C570.151 93.15 568.901 92.95 567.501 93.15C565.101 93.35 562.901 94.2 560.901 95.7C558.901 97.2 557.201 99.05 555.801 101.25C554.401 103.45 553.301 105.8 552.501 108.3C551.801 110.8 551.451 113.2 551.451 115.5V152.55C551.451 157.45 552.701 160.75 555.201 162.45C557.701 164.05 561.351 164.85 566.151 164.85V168C563.851 167.9 560.501 167.8 556.101 167.7C551.801 167.5 547.301 167.4 542.601 167.4C538.701 167.4 534.801 167.5 530.901 167.7C527.101 167.8 524.251 167.9 522.351 168V164.85C526.051 164.85 528.651 164.1 530.151 162.6C531.751 161.1 532.551 158.25 532.551 154.05V106.8C532.551 102.3 531.801 99 530.301 96.9C528.901 94.7 526.251 93.6 522.351 93.6V90.45C525.551 90.75 528.651 90.9 531.651 90.9C535.351 90.9 538.851 90.75 542.151 90.45C545.551 90.05 548.651 89.5 551.451 88.8V104.4C552.651 101.6 554.201 99 556.101 96.6C558.101 94.2 560.451 92.25 563.151 90.75C565.951 89.15 568.951 88.35 572.151 88.35ZM669.915 61.8C689.115 61.8 703.315 66.3 712.515 75.3C721.815 84.2 726.465 97 726.465 113.7C726.465 124.6 724.165 134.15 719.565 142.35C715.065 150.45 708.515 156.75 699.915 161.25C691.315 165.75 680.865 168 668.565 168C667.065 168 665.015 167.95 662.415 167.85C659.915 167.75 657.265 167.7 654.465 167.7C651.765 167.6 649.265 167.55 646.965 167.55C642.865 167.55 638.865 167.6 634.965 167.7C631.065 167.7 627.865 167.8 625.365 168V165C628.665 164.8 631.115 164.4 632.715 163.8C634.415 163.2 635.515 162 636.015 160.2C636.615 158.4 636.915 155.7 636.915 152.1V77.7C636.915 74 636.615 71.3 636.015 69.6C635.515 67.8 634.415 66.6 632.715 66C631.115 65.3 628.665 64.9 625.365 64.8V61.8C627.865 61.9 631.065 62.05 634.965 62.25C638.865 62.35 642.765 62.35 646.665 62.25C650.265 62.15 654.315 62.05 658.815 61.95C663.315 61.85 667.015 61.8 669.915 61.8ZM668.565 64.5C663.965 64.5 660.965 65.35 659.565 67.05C658.165 68.75 657.465 72.2 657.465 77.4V152.4C657.465 157.6 658.165 161.05 659.565 162.75C661.065 164.45 664.115 165.3 668.715 165.3C678.015 165.3 685.265 163.35 690.465 159.45C695.765 155.45 699.465 149.65 701.565 142.05C703.765 134.45 704.865 125.2 704.865 114.3C704.865 103.1 703.665 93.85 701.265 86.55C698.965 79.15 695.165 73.65 689.865 70.05C684.565 66.35 677.465 64.5 668.565 64.5ZM756.137 52.2C759.737 52.2 762.687 53.2 764.987 55.2C767.287 57.2 768.437 59.85 768.437 63.15C768.437 66.45 767.287 69.1 764.987 71.1C762.687 73.1 759.737 74.1 756.137 74.1C752.537 74.1 749.587 73.1 747.287 71.1C744.987 69.1 743.837 66.45 743.837 63.15C743.837 59.85 744.987 57.2 747.287 55.2C749.587 53.2 752.537 52.2 756.137 52.2ZM766.637 88.8V154.05C766.637 158.25 767.387 161.1 768.887 162.6C770.487 164.1 773.137 164.85 776.837 164.85V168C775.037 167.9 772.287 167.8 768.587 167.7C764.887 167.5 761.137 167.4 757.337 167.4C753.637 167.4 749.887 167.5 746.087 167.7C742.287 167.8 739.437 167.9 737.537 168V164.85C741.237 164.85 743.837 164.1 745.337 162.6C746.937 161.1 747.737 158.25 747.737 154.05V106.95C747.737 102.35 746.987 99 745.487 96.9C744.087 94.7 741.437 93.6 737.537 93.6V90.45C740.737 90.75 743.837 90.9 746.837 90.9C750.537 90.9 754.037 90.75 757.337 90.45C760.737 90.05 763.837 89.5 766.637 88.8ZM812.329 88.35C816.529 88.35 820.129 88.95 823.129 90.15C826.129 91.35 828.329 92.4 829.729 93.3C833.129 95.8 835.179 94.2 835.879 88.5H839.179C838.979 91.4 838.829 94.85 838.729 98.85C838.629 102.75 838.579 108 838.579 114.6H835.279C834.779 110.9 833.829 107.3 832.429 103.8C831.029 100.3 828.979 97.4 826.279 95.1C823.579 92.7 820.029 91.5 815.629 91.5C812.529 91.5 809.929 92.4 807.829 94.2C805.829 96 804.829 98.55 804.829 101.85C804.829 104.85 805.729 107.5 807.529 109.8C809.329 112 811.629 114.1 814.429 116.1C817.329 118 820.329 120.1 823.429 122.4C827.029 124.8 830.229 127.25 833.029 129.75C835.829 132.15 838.079 134.85 839.779 137.85C841.479 140.75 842.329 144.2 842.329 148.2C842.329 152.8 841.029 156.75 838.429 160.05C835.929 163.25 832.579 165.75 828.379 167.55C824.279 169.25 819.729 170.1 814.729 170.1C812.029 170.1 809.579 169.85 807.379 169.35C805.179 168.85 803.229 168.2 801.529 167.4C800.229 166.7 799.029 166.05 797.929 165.45C796.929 164.85 795.879 164.35 794.779 163.95C793.779 163.45 792.879 163.65 792.079 164.55C791.379 165.45 790.829 166.95 790.429 169.05H787.129C787.329 165.85 787.479 161.95 787.579 157.35C787.679 152.75 787.729 146.65 787.729 139.05H791.029C791.729 144.55 792.779 149.4 794.179 153.6C795.679 157.7 797.829 160.95 800.629 163.35C803.429 165.65 807.029 166.8 811.429 166.8C813.329 166.8 815.129 166.4 816.829 165.6C818.629 164.8 820.079 163.55 821.179 161.85C822.379 160.15 822.979 157.85 822.979 154.95C822.979 150.55 821.479 146.9 818.479 144C815.479 141.1 811.729 138 807.229 134.7C803.829 132.2 800.629 129.75 797.629 127.35C794.729 124.95 792.329 122.25 790.429 119.25C788.629 116.25 787.729 112.7 787.729 108.6C787.729 104.1 788.879 100.4 791.179 97.5C793.479 94.5 796.479 92.25 800.179 90.75C803.979 89.15 808.029 88.35 812.329 88.35ZM880.434 88.95V180.6C880.434 185.1 881.634 188.1 884.034 189.6C886.534 191.2 889.934 192 894.234 192V195.15C891.834 195.05 888.434 194.9 884.034 194.7C879.734 194.6 875.134 194.55 870.234 194.55C866.834 194.55 863.434 194.6 860.034 194.7C856.634 194.9 854.034 195.05 852.234 195.15V192C855.634 192 858.034 191.3 859.434 189.9C860.834 188.5 861.534 185.9 861.534 182.1V106.95C861.534 102.45 860.834 99.15 859.434 97.05C858.034 94.85 855.334 93.75 851.334 93.75V90.6C854.534 90.9 857.634 91.05 860.634 91.05C864.434 91.05 867.984 90.9 871.284 90.6C874.584 90.2 877.634 89.65 880.434 88.95ZM903.984 88.35C909.184 88.35 913.834 89.8 917.934 92.7C922.034 95.5 925.234 99.65 927.534 105.15C929.934 110.65 931.134 117.55 931.134 125.85C931.134 132.45 930.384 138.5 928.884 144C927.384 149.4 925.134 154.05 922.134 157.95C919.234 161.85 915.634 164.85 911.334 166.95C907.034 169.05 902.134 170.1 896.634 170.1C892.434 170.1 888.684 169.3 885.384 167.7C882.084 166.1 879.684 163.95 878.184 161.25L879.684 159.15C880.884 161.25 882.534 162.95 884.634 164.25C886.734 165.55 889.234 166.2 892.134 166.2C896.934 166.2 900.734 164.65 903.534 161.55C906.334 158.35 908.284 153.9 909.384 148.2C910.584 142.5 911.184 135.9 911.184 128.4C911.184 120.1 910.634 113.45 909.534 108.45C908.434 103.45 906.784 99.85 904.584 97.65C902.384 95.35 899.784 94.2 896.784 94.2C892.684 94.2 888.984 95.85 885.684 99.15C882.484 102.35 880.534 107.05 879.834 113.25L878.784 109.05C880.384 102.45 883.434 97.35 887.934 93.75C892.434 90.15 897.784 88.35 903.984 88.35ZM969.35 50.55V154.05C969.35 158.25 970.1 161.1 971.6 162.6C973.2 164.1 975.85 164.85 979.55 164.85V168C977.75 167.9 975 167.8 971.3 167.7C967.7 167.5 964 167.4 960.2 167.4C956.5 167.4 952.7 167.5 948.8 167.7C945 167.8 942.15 167.9 940.25 168V164.85C943.95 164.85 946.55 164.1 948.05 162.6C949.65 161.1 950.45 158.25 950.45 154.05V68.55C950.45 64.05 949.75 60.75 948.35 58.65C946.95 56.45 944.25 55.35 940.25 55.35V52.2C943.45 52.5 946.55 52.65 949.55 52.65C953.35 52.65 956.9 52.5 960.2 52.2C963.5 51.8 966.55 51.25 969.35 50.55ZM1007.41 169.05C1003.11 169.05 999.46 168.25 996.46 166.65C993.46 164.95 991.21 162.7 989.71 159.9C988.21 157 987.46 153.8 987.46 150.3C987.46 146 988.46 142.5 990.46 139.8C992.46 137 995.01 134.8 998.11 133.2C1001.31 131.5 1004.66 130.1 1008.16 129C1011.66 127.8 1014.96 126.7 1018.06 125.7C1021.16 124.6 1023.71 123.35 1025.71 121.95C1027.71 120.55 1028.71 118.7 1028.71 116.4V105.45C1028.71 102.25 1028.21 99.65 1027.21 97.65C1026.31 95.55 1024.91 94 1023.01 93C1021.21 91.9 1018.91 91.35 1016.11 91.35C1014.01 91.35 1011.81 91.65 1009.51 92.25C1007.21 92.85 1005.31 94 1003.81 95.7C1006.41 96.4 1008.41 97.7 1009.81 99.6C1011.31 101.5 1012.06 103.8 1012.06 106.5C1012.06 109.6 1011.01 112.05 1008.91 113.85C1006.91 115.55 1004.36 116.4 1001.26 116.4C997.96 116.4 995.46 115.35 993.76 113.25C992.06 111.15 991.21 108.7 991.21 105.9C991.21 103.1 991.91 100.8 993.31 99C994.71 97.1 996.66 95.4 999.16 93.9C1001.66 92.2 1004.86 90.85 1008.76 89.85C1012.66 88.85 1016.91 88.35 1021.51 88.35C1025.91 88.35 1029.81 88.85 1033.21 89.85C1036.61 90.75 1039.51 92.4 1041.91 94.8C1044.31 97.1 1045.86 99.95 1046.56 103.35C1047.26 106.75 1047.61 110.9 1047.61 115.8V156.9C1047.61 159.4 1047.91 161.2 1048.51 162.3C1049.11 163.3 1050.06 163.8 1051.36 163.8C1052.36 163.8 1053.31 163.55 1054.21 163.05C1055.11 162.55 1056.11 161.85 1057.21 160.95L1058.86 163.5C1056.66 165.2 1054.36 166.55 1051.96 167.55C1049.56 168.55 1046.66 169.05 1043.26 169.05C1039.76 169.05 1036.96 168.55 1034.86 167.55C1032.86 166.55 1031.36 165.1 1030.36 163.2C1029.46 161.3 1028.96 159.05 1028.86 156.45C1026.46 160.45 1023.51 163.55 1020.01 165.75C1016.51 167.95 1012.31 169.05 1007.41 169.05ZM1016.41 160.65C1018.81 160.65 1021.01 160 1023.01 158.7C1025.11 157.4 1027.01 155.45 1028.71 152.85V122.55C1027.71 124.05 1026.26 125.4 1024.36 126.6C1022.56 127.8 1020.61 129 1018.51 130.2C1016.41 131.4 1014.41 132.8 1012.51 134.4C1010.71 135.9 1009.16 137.8 1007.86 140.1C1006.66 142.3 1006.06 145.15 1006.06 148.65C1006.06 152.55 1007.01 155.55 1008.91 157.65C1010.81 159.65 1013.31 160.65 1016.41 160.65ZM1134 90.45V93.6C1132.1 94 1130.3 95.05 1128.6 96.75C1127 98.45 1125.45 101.45 1123.95 105.75L1101.75 166.65L1097.1 173.7L1066.2 102C1064.3 98.2 1062.5 95.85 1060.8 94.95C1059.1 94.05 1057.7 93.6 1056.6 93.6V90.45C1059.5 90.75 1062.5 91 1065.6 91.2C1068.8 91.3 1072 91.35 1075.2 91.35C1078.9 91.35 1082.45 91.25 1085.85 91.05C1089.35 90.85 1092.6 90.65 1095.6 90.45V93.6C1093.3 93.6 1091.25 93.75 1089.45 94.05C1087.65 94.35 1086.45 95.2 1085.85 96.6C1085.35 97.9 1085.75 100.2 1087.05 103.5L1105.8 149.25L1104.6 149.85L1117.8 114.15C1119.5 109.45 1120.2 105.65 1119.9 102.75C1119.6 99.85 1118.5 97.65 1116.6 96.15C1114.7 94.65 1112.1 93.8 1108.8 93.6V90.45C1110.4 90.55 1112 90.65 1113.6 90.75C1115.2 90.85 1116.75 90.95 1118.25 91.05C1119.75 91.05 1121.2 91.05 1122.6 91.05C1124.7 91.05 1126.75 91 1128.75 90.9C1130.85 90.8 1132.6 90.65 1134 90.45ZM1101.75 166.65L1096.05 181.8C1095.15 184.3 1094.15 186.4 1093.05 188.1C1092.05 189.9 1090.9 191.35 1089.6 192.45C1088.1 193.75 1086.25 194.7 1084.05 195.3C1081.95 195.9 1079.6 196.2 1077 196.2C1074.7 196.2 1072.45 195.8 1070.25 195C1068.15 194.2 1066.35 193 1064.85 191.4C1063.45 189.8 1062.75 187.7 1062.75 185.1C1062.75 182.3 1063.7 180.05 1065.6 178.35C1067.5 176.65 1070.1 175.8 1073.4 175.8C1076.3 175.8 1078.65 176.5 1080.45 177.9C1082.35 179.4 1083.3 181.6 1083.3 184.5C1083.3 186.4 1082.75 188.1 1081.65 189.6C1080.55 191.1 1079 192.25 1077 193.05C1077.5 193.15 1077.95 193.2 1078.35 193.2C1078.85 193.3 1079.25 193.35 1079.55 193.35C1082.45 193.35 1085.05 192.4 1087.35 190.5C1089.65 188.6 1091.5 185.6 1092.9 181.5L1098.3 166.65H1101.75Z" fill="var(--darkGray)"/>
</svg>
