<svg viewBox="0 0 256 256" fill="none" xmlns="http://www.w3.org/2000/svg">
<mask id="mask0_5245_6" style="mask-type:alpha" maskUnits="userSpaceOnUse" x="0" y="0" width="256" height="256">
<rect x="255.5" y="255.5" width="255" height="255" transform="rotate(180 255.5 255.5)" fill="var(--gray)" stroke="var(--secondary)"/>
</mask>
<g mask="url(#mask0_5245_6)">
<path d="M75.6174 163.001C71.9354 157.49 64.4834 156.008 58.9729 159.69C53.4624 163.372 51.9801 170.824 55.6621 176.335L65.6398 169.668L75.6174 163.001ZM128 53V41H127.977L127.955 41.0001L128 53ZM71.8333 75.8333L63.4928 67.2057L63.4198 67.2763L63.348 67.348L71.8333 75.8333ZM65.6398 169.668L55.6621 176.335C65.2218 190.642 78.8094 201.793 94.7065 208.377L99.2987 197.291L103.891 186.204C92.3792 181.436 82.5399 173.361 75.6174 163.001L65.6398 169.668ZM99.2987 197.291L94.7065 208.377C110.604 214.962 128.096 216.685 144.973 213.328L142.632 201.559L140.291 189.789C128.07 192.22 115.403 190.973 103.891 186.204L99.2987 197.291ZM142.632 201.559L144.973 213.328C161.849 209.971 177.351 201.685 189.518 189.518L181.033 181.033L172.548 172.548C163.737 181.358 152.511 187.359 140.291 189.789L142.632 201.559ZM181.033 181.033L189.518 189.518C201.685 177.351 209.971 161.849 213.328 144.973L201.559 142.632L189.789 140.291C187.359 152.511 181.358 163.737 172.548 172.548L181.033 181.033ZM201.559 142.632L213.328 144.973C216.685 128.096 214.962 110.604 208.377 94.7065L197.291 99.2987L186.204 103.891C190.973 115.403 192.22 128.07 189.789 140.291L201.559 142.632ZM197.291 99.2987L208.377 94.7065C201.793 78.8094 190.642 65.2218 176.335 55.6621L169.668 65.6398L163.001 75.6174C173.361 82.5399 181.436 92.3792 186.204 103.891L197.291 99.2987ZM169.668 65.6398L176.335 55.6621C162.028 46.1025 145.207 41 128 41V53V65C140.46 65 152.641 68.6949 163.001 75.6174L169.668 65.6398ZM128 53L127.955 41.0001C103.891 41.0906 80.794 50.4802 63.4928 67.2057L71.8333 75.8333L80.1739 84.4609C93.0222 72.0401 110.175 65.0671 128.045 64.9999L128 53ZM71.8333 75.8333L63.348 67.348L44.5147 86.1814L53 94.6667L61.4853 103.152L80.3186 84.3186L71.8333 75.8333Z" fill="var(--secondary)"/>
<path d="M53 43V89C53 92.3137 55.6863 95 59 95H105" stroke="var(--secondary)" stroke-width="24" stroke-linecap="round"/>
</g>
</svg>
