<svg width="168" height="168" viewBox="0 0 168 168" fill="none" xmlns="http://www.w3.org/2000/svg">
<rect width="168" height="168" rx="84" fill="#48A7FF" fill-opacity="0.25"/>
<path d="M97.8659 70.8527L100.685 69.8266L101.711 72.6457L115.731 111.166C117.559 116.189 116.919 121.779 114.002 126.258L107.679 135.965C105.979 138.576 102.757 139.749 99.7761 138.842L88.6934 135.469C83.5796 133.913 79.4955 130.043 77.6674 125.02L63.6472 86.4998L62.6212 83.6807L65.4402 82.6547L97.8659 70.8527Z" fill="#0084FF" stroke="white" stroke-width="6"/>
<path d="M76.7929 113.909L73.9738 114.935L72.9478 112.116L51.0907 52.0638C47.2623 41.5454 52.6856 29.9151 63.2039 26.0868C73.7222 22.2584 85.3525 27.6817 89.1809 38.2L111.038 98.252L112.064 101.071L109.245 102.097L76.7929 113.909Z" fill="#0084FF" stroke="white" stroke-width="6"/>
</svg>
