<svg width="168" height="168" viewBox="0 0 168 168" fill="none" xmlns="http://www.w3.org/2000/svg">
<rect width="168" height="168" rx="84" fill="#DF84FF" fill-opacity="0.25"/>
<path fill-rule="evenodd" clip-rule="evenodd" d="M83.7624 51.2892C83.7637 51.2109 83.7644 51.1324 83.7644 51.0537C83.7644 47.2053 82.1437 43.7353 79.5476 41.2892H112.182C124.885 41.2892 135.182 51.5866 135.182 64.2892V96.18C135.182 108.883 124.885 119.18 112.182 119.18H111.283L105.51 109.18H112.182C119.362 109.18 125.182 103.36 125.182 96.18V64.2892C125.182 57.1095 119.362 51.2892 112.182 51.2892H83.7624ZM93.5532 109.18H55.8174C48.6377 109.18 42.8174 103.36 42.8174 96.18V64.2892C42.8174 57.1095 48.6377 51.2892 55.8174 51.2892H56.939C56.9376 51.2109 56.937 51.1324 56.937 51.0537C56.937 47.2053 58.5577 43.7353 61.1538 41.2892H55.8174C43.1148 41.2892 32.8174 51.5866 32.8174 64.2892V96.18C32.8174 108.883 43.1149 119.18 55.8174 119.18H87.7797L93.5532 109.18Z" fill="#DF84FF"/>
<circle cx="70.3507" cy="51.054" r="18.4137" stroke="#DE84FF" stroke-width="10"/>
<path d="M94.3355 97.8257C96.6449 93.8257 102.418 93.8257 104.728 97.8257L116.65 118.476M94.3355 97.8257L116.65 118.476M94.3355 97.8257L82.4129 118.476C80.1035 122.476 82.9903 127.476 87.6091 127.476H111.454C116.073 127.476 118.96 122.476 116.65 118.476M94.3355 97.8257L116.65 118.476" stroke="#DE84FF" stroke-width="10"/>
</svg>
