<svg width="168" height="168" viewBox="0 0 168 168" fill="none" xmlns="http://www.w3.org/2000/svg">
<rect width="168" height="168" rx="84" fill="#FFAF3F" fill-opacity="0.25"/>
<path d="M26 101.5V66.5H35.9V101.5H26ZM42.9434 101.5V66.5H59.4934C63.36 66.5 66.76 67.2167 69.6934 68.65C72.6267 70.0833 74.91 72.1 76.5434 74.7C78.21 77.3 79.0434 80.4 79.0434 84C79.0434 87.5667 78.21 90.6667 76.5434 93.3C74.91 95.9 72.6267 97.9167 69.6934 99.35C66.76 100.783 63.36 101.5 59.4934 101.5H42.9434ZM52.8434 93.6H59.0934C61.0934 93.6 62.8267 93.2333 64.2934 92.5C65.7934 91.7333 66.96 90.6333 67.7934 89.2C68.6267 87.7333 69.0434 86 69.0434 84C69.0434 81.9667 68.6267 80.2333 67.7934 78.8C66.96 77.3667 65.7934 76.2833 64.2934 75.55C62.8267 74.7833 61.0934 74.4 59.0934 74.4H52.8434V93.6ZM84.252 101.5V66.5H94.152V93.65H110.852V101.5H84.252ZM123.87 80.05H140.12V87.45H123.87V80.05ZM124.57 93.85H142.87V101.5H114.77V66.5H142.22V74.15H124.57V93.85Z" fill="#FFAF3F"/>
</svg>
