<svg width="168" height="168" viewBox="0 0 168 168" fill="none" xmlns="http://www.w3.org/2000/svg">
<rect width="168" height="168" rx="84" fill="#48A7FF" fill-opacity="0.25"/>
<mask id="mask0_41_53" style="mask-type:alpha" maskUnits="userSpaceOnUse" x="23" y="10" width="122" height="121">
<rect x="23.5002" y="70.5" width="85.5596" height="85.5596" transform="rotate(-45 23.5002 70.5)" fill="#D9D9D9"/>
</mask>
<g mask="url(#mask0_41_53)">
<path fill-rule="evenodd" clip-rule="evenodd" d="M144.5 191.5C177.913 158.087 177.913 103.913 144.5 70.5002C111.086 37.0871 56.9131 37.0871 23.5 70.5002C-9.91309 103.913 -9.91309 158.087 23.5 191.5C56.9131 224.913 111.086 224.913 144.5 191.5ZM128.579 175.579C153.199 150.959 153.199 111.042 128.579 86.4216C103.959 61.8014 64.0413 61.8014 39.4211 86.4216C14.8009 111.042 14.8009 150.959 39.4211 175.579C64.0413 200.199 103.959 200.199 128.579 175.579Z" fill="#0084FF"/>
<path fill-rule="evenodd" clip-rule="evenodd" d="M122.211 169.211C143.314 148.108 143.314 113.893 122.211 92.7903C101.108 71.6873 66.893 71.6873 45.79 92.7903C24.687 113.893 24.687 148.108 45.79 169.211C66.893 190.314 101.108 190.314 122.211 169.211ZM106.289 153.29C118.599 140.98 118.599 121.021 106.289 108.711C93.9792 96.4009 74.0206 96.4009 61.7106 108.711C49.4005 121.021 49.4005 140.98 61.7106 153.29C74.0207 165.6 93.9793 165.6 106.289 153.29Z" fill="#0084FF"/>
<circle cx="84" cy="131" r="22.5157" transform="rotate(-45 84 131)" fill="#0084FF"/>
</g>
</svg>
