<svg viewBox="0 0 350 350" fill="none" xmlns="http://www.w3.org/2000/svg">
<g clip-path="url(#clip0_3705_29)">
<rect width="350" height="350" rx="84" fill="#0084FF" fill-opacity="0.25"/>
<mask id="mask0_3705_29" style="mask-type:alpha" maskUnits="userSpaceOnUse" x="0" y="0" width="350" height="350">
<rect width="350" height="350" fill="#D9D9D9"/>
</mask>
<g mask="url(#mask0_3705_29)">
<rect x="69.8874" y="138.247" width="210.225" height="169.21" rx="48.7362" stroke="#0084FF" stroke-width="32.4908"/>
<path d="M175 42.3828C208.978 42.3828 236.523 69.9278 236.523 103.906V139.453H113.477V103.906C113.477 69.9278 141.022 42.3828 175 42.3828Z" stroke="#0084FF" stroke-width="24.6094"/>
<path d="M222 223C222 197.043 200.957 176 175 176H140C133.373 176 128 181.373 128 188V223C128 248.957 149.043 270 175 270V270C200.957 270 222 248.957 222 223V223Z" fill="#228EF2"/>
</g>
</g>
<defs>
<clipPath id="clip0_3705_29">
<rect width="350" height="350" rx="84" fill="white"/>
</clipPath>
</defs>
</svg>
