<svg viewBox="0 0 256 256" fill="none" xmlns="http://www.w3.org/2000/svg">
<mask id="mask0_4386_2" style="mask-type:alpha" maskUnits="userSpaceOnUse" x="0" y="0" width="256" height="256">
<rect width="256" height="256" fill="var(--gray)"/>
</mask>
<g mask="url(#mask0_4386_2)">
<mask id="path-2-outside-1_4386_2" maskUnits="userSpaceOnUse" x="38.1499" y="28.6748" width="124" height="192" fill="white">
<rect x="38.1499" y="28.6748" width="124" height="192"/>
<path d="M63.4099 210.475C60.8032 210.475 58.1966 210.248 55.5899 209.795C52.8699 209.455 50.6599 209.001 48.9599 208.435V188.375C50.7732 188.941 52.4166 189.338 53.8899 189.565C55.3632 189.905 56.8932 190.075 58.4799 190.075C61.8799 190.075 64.8266 188.941 67.3199 186.675C69.9266 184.408 71.7399 180.838 72.7599 175.965L89.7599 95.8948H76.1599L78.7099 83.8248L93.8399 76.8548L95.3699 69.8848C96.6166 64.2181 98.2032 59.4581 100.13 55.6048C102.17 51.7515 104.607 48.6915 107.44 46.4248C110.273 44.0448 113.503 42.3448 117.13 41.3248C120.87 40.1915 125.007 39.6248 129.54 39.6248C133.393 39.6248 136.907 40.0215 140.08 40.8148C143.367 41.4948 146.37 42.4581 149.09 43.7048L142.46 62.2348C140.873 61.5548 139.173 60.9881 137.36 60.5348C135.66 59.9681 133.677 59.6848 131.41 59.6848C128.237 59.6848 125.687 60.8181 123.76 63.0848C121.833 65.2381 120.53 68.1281 119.85 71.7548L118.83 76.8548H137.02L132.94 95.8948H114.75L96.8999 179.705C95.7666 185.371 93.8966 190.528 91.2899 195.175C88.6832 199.821 85.1132 203.505 80.5799 206.225C76.1599 209.058 70.4366 210.475 63.4099 210.475Z"/>
</mask>
<path d="M63.4099 210.475C60.8032 210.475 58.1966 210.248 55.5899 209.795C52.8699 209.455 50.6599 209.001 48.9599 208.435V188.375C50.7732 188.941 52.4166 189.338 53.8899 189.565C55.3632 189.905 56.8932 190.075 58.4799 190.075C61.8799 190.075 64.8266 188.941 67.3199 186.675C69.9266 184.408 71.7399 180.838 72.7599 175.965L89.7599 95.8948H76.1599L78.7099 83.8248L93.8399 76.8548L95.3699 69.8848C96.6166 64.2181 98.2032 59.4581 100.13 55.6048C102.17 51.7515 104.607 48.6915 107.44 46.4248C110.273 44.0448 113.503 42.3448 117.13 41.3248C120.87 40.1915 125.007 39.6248 129.54 39.6248C133.393 39.6248 136.907 40.0215 140.08 40.8148C143.367 41.4948 146.37 42.4581 149.09 43.7048L142.46 62.2348C140.873 61.5548 139.173 60.9881 137.36 60.5348C135.66 59.9681 133.677 59.6848 131.41 59.6848C128.237 59.6848 125.687 60.8181 123.76 63.0848C121.833 65.2381 120.53 68.1281 119.85 71.7548L118.83 76.8548H137.02L132.94 95.8948H114.75L96.8999 179.705C95.7666 185.371 93.8966 190.528 91.2899 195.175C88.6832 199.821 85.1132 203.505 80.5799 206.225C76.1599 209.058 70.4366 210.475 63.4099 210.475Z" fill="var(--pageColor)"/>
<path d="M55.5899 209.795L57.3376 199.746L57.0972 199.704L56.8551 199.674L55.5899 209.795ZM48.9599 208.435H38.7599V215.787L45.7344 218.111L48.9599 208.435ZM48.9599 188.375L52.0023 178.639L38.7599 174.501V188.375H48.9599ZM53.8899 189.565L56.1835 179.626L55.8148 179.541L55.4409 179.483L53.8899 189.565ZM67.3199 186.675L60.6269 178.978L60.5419 179.052L60.4586 179.127L67.3199 186.675ZM72.7599 175.965L62.7823 173.846L62.7793 173.861L62.7762 173.875L72.7599 175.965ZM89.7599 95.8948L99.7375 98.0132L102.353 85.6948H89.7599V95.8948ZM76.1599 95.8948L66.1802 93.7864L63.5798 106.095H76.1599V95.8948ZM78.7099 83.8248L74.4421 74.5606L69.7891 76.7041L68.7302 81.7164L78.7099 83.8248ZM93.8399 76.8548L98.1077 86.119L102.715 83.9965L103.803 79.0418L93.8399 76.8548ZM95.3699 69.8848L85.4081 67.6932L85.4071 67.6978L95.3699 69.8848ZM100.13 55.6048L91.1153 50.8324L91.0598 50.9372L91.0067 51.0432L100.13 55.6048ZM107.44 46.4248L113.812 54.3897L113.907 54.3135L114 54.235L107.44 46.4248ZM117.13 41.3248L119.892 51.1438L119.99 51.1161L120.088 51.0864L117.13 41.3248ZM140.08 40.8148L137.606 50.7103L137.809 50.7609L138.013 50.8033L140.08 40.8148ZM149.09 43.7048L158.694 47.141L161.846 38.331L153.34 34.4323L149.09 43.7048ZM142.46 62.2348L138.442 71.6101L148.41 75.8822L152.064 65.671L142.46 62.2348ZM137.36 60.5348L134.134 70.2114L134.506 70.3352L134.886 70.4303L137.36 60.5348ZM123.76 63.0848L131.361 69.8861L131.448 69.7895L131.532 69.6908L123.76 63.0848ZM119.85 71.7548L129.852 73.7552L129.864 73.6949L129.875 73.6345L119.85 71.7548ZM118.83 76.8548L108.828 74.8544L106.388 87.0548H118.83V76.8548ZM137.02 76.8548L146.993 78.992L149.637 66.6548H137.02V76.8548ZM132.94 95.8948V106.095H141.186L142.913 98.032L132.94 95.8948ZM114.75 95.8948V85.6948H106.494L104.774 93.77L114.75 95.8948ZM96.8999 179.705L86.9237 177.58L86.9104 177.642L86.898 177.704L96.8999 179.705ZM91.2899 195.175L82.394 190.184L82.394 190.184L91.2899 195.175ZM80.5799 206.225L75.332 197.478L75.2025 197.556L75.0753 197.638L80.5799 206.225ZM63.4099 210.475V200.275C61.3978 200.275 59.3758 200.1 57.3376 199.746L55.5899 209.795L53.8422 219.844C57.0174 220.396 60.2087 220.675 63.4099 220.675V210.475ZM55.5899 209.795L56.8551 199.674C54.491 199.378 53.0076 199.032 52.1854 198.758L48.9599 208.435L45.7344 218.111C48.3122 218.971 51.2488 219.532 54.3247 219.916L55.5899 209.795ZM48.9599 208.435H59.1599V188.375H48.9599H38.7599V208.435H48.9599ZM48.9599 188.375L45.9175 198.111C48.0933 198.79 50.2455 199.324 52.3389 199.646L53.8899 189.565L55.4409 179.483C54.5877 179.352 53.4532 179.093 52.0023 178.639L48.9599 188.375ZM53.8899 189.565L51.5963 199.504C53.858 200.026 56.1593 200.275 58.4799 200.275V190.075V179.875C57.6272 179.875 56.8685 179.784 56.1835 179.626L53.8899 189.565ZM58.4799 190.075V200.275C64.392 200.275 69.7916 198.213 74.1812 194.222L67.3199 186.675L60.4586 179.127C59.8615 179.67 59.3678 179.875 58.4799 179.875V190.075ZM67.3199 186.675L74.0129 194.372C78.8964 190.125 81.4622 184.177 82.7436 178.054L72.7599 175.965L62.7762 173.875C62.0176 177.5 60.9568 178.691 60.6269 178.978L67.3199 186.675ZM72.7599 175.965L82.7375 178.083L99.7375 98.0132L89.7599 95.8948L79.7823 93.7764L62.7823 173.846L72.7599 175.965ZM89.7599 95.8948V85.6948H76.1599V95.8948V106.095H89.7599V95.8948ZM76.1599 95.8948L86.1396 98.0032L88.6896 85.9332L78.7099 83.8248L68.7302 81.7164L66.1802 93.7864L76.1599 95.8948ZM78.7099 83.8248L82.9777 93.089L98.1077 86.119L93.8399 76.8548L89.5721 67.5906L74.4421 74.5606L78.7099 83.8248ZM93.8399 76.8548L103.803 79.0418L105.333 72.0718L95.3699 69.8848L85.4071 67.6978L83.8771 74.6678L93.8399 76.8548ZM95.3699 69.8848L105.332 72.0764C106.456 66.9676 107.807 63.059 109.253 60.1664L100.13 55.6048L91.0067 51.0432C88.5997 55.8572 86.7775 61.4687 85.4081 67.6932L95.3699 69.8848ZM100.13 55.6048L109.145 60.3773C110.66 57.5138 112.265 55.627 113.812 54.3897L107.44 46.4248L101.068 38.4599C96.948 41.756 93.6793 45.9891 91.1153 50.8324L100.13 55.6048ZM107.44 46.4248L114 54.235C115.704 52.804 117.633 51.7789 119.892 51.1438L117.13 41.3248L114.368 31.5058C109.373 32.9107 104.842 35.2856 100.879 38.6146L107.44 46.4248ZM117.13 41.3248L120.088 51.0864C122.73 50.2859 125.852 49.8248 129.54 49.8248V39.6248V29.4248C124.161 29.4248 119.01 30.097 114.172 31.5631L117.13 41.3248ZM129.54 39.6248V49.8248C132.703 49.8248 135.37 50.1513 137.606 50.7103L140.08 40.8148L142.554 30.9194C138.443 29.8917 134.084 29.4248 129.54 29.4248V39.6248ZM140.08 40.8148L138.013 50.8033C140.637 51.3461 142.897 52.0868 144.84 52.9773L149.09 43.7048L153.34 34.4323C149.843 32.8295 146.096 31.6435 142.146 30.8263L140.08 40.8148ZM149.09 43.7048L139.486 40.2686L132.856 58.7986L142.46 62.2348L152.064 65.671L158.694 47.141L149.09 43.7048ZM142.46 62.2348L146.478 52.8595C144.352 51.9485 142.132 51.2139 139.834 50.6393L137.36 60.5348L134.886 70.4303C136.215 70.7624 137.394 71.1611 138.442 71.6101L142.46 62.2348ZM137.36 60.5348L140.585 50.8582C137.612 49.867 134.496 49.4848 131.41 49.4848V59.6848V69.8848C132.857 69.8848 133.708 70.0692 134.134 70.2114L137.36 60.5348ZM131.41 59.6848V49.4848C125.471 49.4848 119.995 51.7645 115.988 56.4788L123.76 63.0848L131.532 69.6908C131.563 69.6536 131.552 69.6738 131.491 69.7201C131.428 69.7679 131.347 69.8169 131.26 69.8557C131.174 69.8939 131.123 69.9041 131.128 69.903C131.137 69.9013 131.224 69.8848 131.41 69.8848V59.6848ZM123.76 63.0848L116.158 56.2835C112.689 60.1607 110.754 64.9171 109.825 69.8751L119.85 71.7548L129.875 73.6345C130.306 71.3392 130.977 70.3155 131.361 69.8861L123.76 63.0848ZM119.85 71.7548L109.848 69.7544L108.828 74.8544L118.83 76.8548L128.832 78.8552L129.852 73.7552L119.85 71.7548ZM118.83 76.8548V87.0548H137.02V76.8548V66.6548H118.83V76.8548ZM137.02 76.8548L127.046 74.7176L122.966 93.7576L132.94 95.8948L142.913 98.032L146.993 78.992L137.02 76.8548ZM132.94 95.8948V85.6948H114.75V95.8948V106.095H132.94V95.8948ZM114.75 95.8948L104.774 93.77L86.9237 177.58L96.8999 179.705L106.876 181.83L124.726 98.0196L114.75 95.8948ZM96.8999 179.705L86.898 177.704C85.9566 182.411 84.4352 186.546 82.394 190.184L91.2899 195.175L100.186 200.165C103.358 194.51 105.577 188.332 106.902 181.705L96.8999 179.705ZM91.2899 195.175L82.394 190.184C80.6487 193.296 78.3309 195.679 75.332 197.478L80.5799 206.225L85.8278 214.971C91.8956 211.331 96.7177 206.347 100.186 200.165L91.2899 195.175ZM80.5799 206.225L75.0753 197.638C72.767 199.117 69.1289 200.275 63.4099 200.275V210.475V220.675C71.7442 220.675 79.5528 218.999 86.0845 214.812L80.5799 206.225Z" fill="var(--pageColor)" mask="url(#path-2-outside-1_4386_2)"/>
<mask id="path-4-outside-2_4386_2" maskUnits="userSpaceOnUse" x="111.9" y="115.925" width="112" height="91" fill="white">
<rect x="111.9" y="115.925" width="112" height="91"/>
<path d="M155.125 160.352L132.685 126.31H154.232L167.747 148.495L181.39 126.31H202.937L180.242 160.352L203.957 195.925H182.41L167.747 172.082L153.085 195.925H131.537L155.125 160.352Z"/>
</mask>
<path d="M155.125 160.352L132.685 126.31H154.232L167.747 148.495L181.39 126.31H202.937L180.242 160.352L203.957 195.925H182.41L167.747 172.082L153.085 195.925H131.537L155.125 160.352Z" fill="var(--pageColor)"/>
<path d="M155.125 160.352L163.626 165.989L167.353 160.369L163.641 154.739L155.125 160.352ZM132.685 126.31V116.11H113.745L124.169 131.924L132.685 126.31ZM154.232 126.31L162.943 121.003L159.962 116.11H154.232V126.31ZM167.747 148.495L159.037 153.801L167.707 168.033L176.436 153.838L167.747 148.495ZM181.39 126.31V116.11H175.688L172.701 120.967L181.39 126.31ZM202.937 126.31L211.424 131.968L221.996 116.11H202.937V126.31ZM180.242 160.352L171.755 154.694L167.984 160.352L171.755 166.01L180.242 160.352ZM203.957 195.925V206.125H223.016L212.444 190.267L203.957 195.925ZM182.41 195.925L173.721 201.268L176.708 206.125H182.41V195.925ZM167.747 172.082L176.436 166.739L167.747 152.611L159.059 166.739L167.747 172.082ZM153.085 195.925V206.125H158.787L161.773 201.268L153.085 195.925ZM131.537 195.925L123.036 190.288L112.535 206.125H131.537V195.925ZM155.125 160.352L163.641 154.739L141.201 120.696L132.685 126.31L124.169 131.924L146.609 165.966L155.125 160.352ZM132.685 126.31V136.51H154.232V126.31V116.11H132.685V126.31ZM154.232 126.31L145.522 131.616L159.037 153.801L167.747 148.495L176.458 143.188L162.943 121.003L154.232 126.31ZM167.747 148.495L176.436 153.838L190.079 131.653L181.39 126.31L172.701 120.967L159.059 143.152L167.747 148.495ZM181.39 126.31V136.51H202.937V126.31V116.11H181.39V126.31ZM202.937 126.31L194.45 120.652L171.755 154.694L180.242 160.352L188.729 166.01L211.424 131.968L202.937 126.31ZM180.242 160.352L171.755 166.01L195.47 201.583L203.957 195.925L212.444 190.267L188.729 154.694L180.242 160.352ZM203.957 195.925V185.725H182.41V195.925V206.125H203.957V195.925ZM182.41 195.925L191.098 190.582L176.436 166.739L167.747 172.082L159.059 177.426L173.721 201.268L182.41 195.925ZM167.747 172.082L159.059 166.739L144.396 190.582L153.085 195.925L161.773 201.268L176.436 177.426L167.747 172.082ZM153.085 195.925V185.725H131.537V195.925V206.125H153.085V195.925ZM131.537 195.925L140.038 201.562L163.626 165.989L155.125 160.352L146.624 154.715L123.036 190.288L131.537 195.925Z" fill="var(--pageColor)" mask="url(#path-4-outside-2_4386_2)"/>
<path d="M63.4099 210.475C60.8032 210.475 58.1966 210.248 55.5899 209.795C52.8699 209.455 50.6599 209.001 48.9599 208.435V188.375C50.7732 188.941 52.4166 189.338 53.8899 189.565C55.3632 189.905 56.8932 190.075 58.4799 190.075C61.8799 190.075 64.8266 188.941 67.3199 186.675C69.9266 184.408 71.7399 180.838 72.7599 175.965L89.7599 95.8948H76.1599L78.7099 83.8248L93.8399 76.8548L95.3699 69.8848C96.6166 64.2181 98.2032 59.4581 100.13 55.6048C102.17 51.7515 104.607 48.6915 107.44 46.4248C110.273 44.0448 113.503 42.3448 117.13 41.3248C120.87 40.1915 125.007 39.6248 129.54 39.6248C133.393 39.6248 136.907 40.0215 140.08 40.8148C143.367 41.4948 146.37 42.4581 149.09 43.7048L142.46 62.2348C140.873 61.5548 139.173 60.9881 137.36 60.5348C135.66 59.9681 133.677 59.6848 131.41 59.6848C128.237 59.6848 125.687 60.8181 123.76 63.0848C121.833 65.2381 120.53 68.1281 119.85 71.7548L118.83 76.8548H137.02L132.94 95.8948H114.75L96.8999 179.705C95.7666 185.371 93.8966 190.528 91.2899 195.175C88.6832 199.821 85.1132 203.505 80.5799 206.225C76.1599 209.058 70.4366 210.475 63.4099 210.475Z" fill="var(--darkGray)"/>
<path d="M155.125 160.352L132.685 126.31H154.232L167.747 148.495L181.39 126.31H202.937L180.242 160.352L203.957 195.925H182.41L167.747 172.082L153.085 195.925H131.537L155.125 160.352Z" fill="var(--darkGray)"/>
</g>
</svg>
