<svg viewBox="0 0 1024 256" fill="none" xmlns="http://www.w3.org/2000/svg">
<g clip-path="url(#clip0_379_83)">
<rect x="10" y="12" width="236" height="234" rx="60" fill="#FF3D64" fill-opacity="0.25"/>
<path d="M110.406 153.8L101.526 47H155.766L146.646 153.8H110.406ZM128.646 217.16C120.646 217.16 114.086 214.68 108.966 209.72C103.846 204.76 101.286 198.84 101.286 191.96C101.286 184.92 103.846 179.08 108.966 174.44C114.086 169.64 120.646 167.24 128.646 167.24C136.646 167.24 143.126 169.64 148.086 174.44C153.206 179.08 155.766 184.92 155.766 191.96C155.766 198.84 153.206 204.76 148.086 209.72C143.126 214.68 136.646 217.16 128.646 217.16Z" fill="#FF3D64"/>
</g>
<g clip-path="url(#clip1_379_83)">
<rect x="266" y="12" width="236" height="234" rx="60" fill="#0084FF" fill-opacity="0.25"/>
<path d="M365.352 208V99.6H403.352V208H365.352ZM384.352 87.6C377.419 87.6 371.819 85.6667 367.552 81.8C363.286 77.9333 361.152 73.1333 361.152 67.4C361.152 61.6667 363.286 56.8667 367.552 53C371.819 49.1333 377.419 47.2 384.352 47.2C391.286 47.2 396.886 49.0667 401.152 52.8C405.419 56.4 407.552 61.0667 407.552 66.8C407.552 72.8 405.419 77.8 401.152 81.8C397.019 85.6667 391.419 87.6 384.352 87.6Z" fill="#0084FF"/>
</g>
<rect x="522" y="12" width="236" height="234" rx="60" fill="#FFA400" fill-opacity="0.25"/>
<path d="M622.732 150C622.732 145.6 623.399 141.733 624.732 138.4C626.199 134.933 627.999 131.867 630.132 129.2C632.265 126.533 634.532 124.133 636.932 122C639.465 119.733 641.799 117.6 643.932 115.6C646.065 113.467 647.799 111.333 649.132 109.2C650.599 107.067 651.332 104.733 651.332 102.2C651.332 98.2 649.665 95.0667 646.332 92.8C643.132 90.5333 638.932 89.4 633.732 89.4C628.399 89.4 623.532 90.6667 619.132 93.2C614.865 95.7333 611.399 99.2667 608.732 103.8L578.932 87.8C584.132 78.8667 591.665 71.7333 601.532 66.4C611.399 60.9333 623.665 58.2 638.332 58.2C648.599 58.2 657.665 59.6667 665.532 62.6C673.532 65.4 679.799 69.6 684.332 75.2C688.865 80.8 691.132 87.6667 691.132 95.8C691.132 101 690.332 105.533 688.732 109.4C687.132 113.267 685.065 116.667 682.532 119.6C680.132 122.533 677.532 125.267 674.732 127.8C671.932 130.2 669.265 132.533 666.732 134.8C664.332 137.067 662.332 139.4 660.732 141.8C659.132 144.2 658.332 146.933 658.332 150H622.732ZM640.532 202.8C633.999 202.8 628.599 200.733 624.332 196.6C620.065 192.467 617.932 187.533 617.932 181.8C617.932 175.933 620.065 171.067 624.332 167.2C628.599 163.2 633.999 161.2 640.532 161.2C647.332 161.2 652.799 163.2 656.932 167.2C661.199 171.067 663.332 175.933 663.332 181.8C663.332 187.533 661.199 192.467 656.932 196.6C652.799 200.733 647.332 202.8 640.532 202.8Z" fill="#FFA400"/>
<rect x="778" y="12" width="236" height="234" rx="60" fill="#34C172" fill-opacity="0.25"/>
<path d="M962 58L887.723 193.394C886.16 196.243 882.337 196.868 879.949 194.664L831 149.493" stroke="#34C172" stroke-width="36" stroke-linecap="round"/>
<defs>
<clipPath id="clip0_379_83">
<rect width="256" height="256" fill="white"/>
</clipPath>
<clipPath id="clip1_379_83">
<rect width="256" height="256" fill="white" transform="translate(256)"/>
</clipPath>
</defs>
</svg>
