<svg viewBox="0 0 256 256" fill="none" xmlns="http://www.w3.org/2000/svg">
<mask id="mask0_800_56" style="mask-type:alpha" maskUnits="userSpaceOnUse" x="0" y="0" width="256" height="256">
<rect width="256" height="256" fill="#D9D9D9"/>
</mask>
<g mask="url(#mask0_800_56)">
<rect x="111" y="47" width="34" height="162" rx="17" stroke="white" stroke-width="12"/>
<path d="M177 186C186.389 186 194 193.611 194 203C194 212.389 186.389 220 177 220H143.557C139.189 220 134.994 218.319 131.838 215.315L131.535 215.021L128 211.484L124.465 215.021C121.277 218.209 116.952 220 112.443 220H79C69.6112 220 62 212.389 62 203C62 193.611 69.6112 186 79 186H177Z" stroke="white" stroke-width="12"/>
<path d="M177 70C186.389 70 194 62.3888 194 53C194 43.6112 186.389 36 177 36H143.557C139.189 36 134.994 37.681 131.838 40.6846L131.535 40.9795L128 44.5156L124.465 40.9795C121.277 37.7914 116.952 36 112.443 36H79C69.6112 36 62 43.6112 62 53C62 62.3888 69.6112 70 79 70H177Z" stroke="white" stroke-width="12"/>
<rect x="117" y="53" width="22" height="150" rx="11" fill="#2F2F2F"/>
<path d="M68 203C68 196.925 72.9249 192 79 192H128H177C183.075 192 188 196.925 188 203C188 209.075 183.075 214 177 214H143.556C140.639 214 137.841 212.841 135.778 210.778L128 203L120.222 210.778C118.159 212.841 115.361 214 112.444 214H79C72.9249 214 68 209.075 68 203Z" fill="#2F2F2F"/>
<path d="M68 53C68 59.0751 72.9249 64 79 64H128H177C183.075 64 188 59.0751 188 53C188 46.9249 183.075 42 177 42H143.556C140.639 42 137.841 43.1589 135.778 45.2218L128 53L120.222 45.2218C118.159 43.1589 115.361 42 112.444 42H79C72.9249 42 68 46.9249 68 53Z" fill="#2F2F2F"/>
</g>
</svg>
