<svg viewBox="0 0 256 256" fill="none" xmlns="http://www.w3.org/2000/svg">
<mask id="mask0_32_510" style="mask-type:alpha" maskUnits="userSpaceOnUse" x="0" y="0" width="256" height="256">
<rect width="256" height="256" fill="var(--gray)"/>
</mask>
<g mask="url(#mask0_32_510)">
<mask id="path-2-outside-1_32_510" maskUnits="userSpaceOnUse" x="6" y="91" width="244" height="124" fill="white">
<rect x="6" y="91" width="244" height="124"/>
<path d="M49.5142 103.5C55.5975 103.5 60.8475 104.708 65.2642 107.125C69.6808 109.542 73.0975 113.042 75.5142 117.625C77.9308 122.208 79.1392 127.833 79.1392 134.5V143.5H38.5142C38.6808 148.75 40.0142 152.875 42.5142 155.875C45.0975 158.875 48.7642 160.375 53.5142 160.375C57.6808 160.375 61.4308 159.958 64.7642 159.125C68.1808 158.208 71.6808 156.833 75.2642 155V169.375C72.1808 171.042 68.8058 172.25 65.1392 173C61.5558 173.833 57.0975 174.25 51.7642 174.25C45.2642 174.25 39.4725 173 34.3892 170.5C29.3892 167.917 25.4308 164.042 22.5142 158.875C19.6808 153.708 18.2642 147.208 18.2642 139.375C18.2642 131.375 19.5558 124.75 22.1392 119.5C24.8058 114.167 28.4725 110.167 33.1392 107.5C37.8892 104.833 43.3475 103.5 49.5142 103.5ZM49.8892 116.75C46.8892 116.75 44.3892 117.917 42.3892 120.25C40.3892 122.583 39.2225 126.208 38.8892 131.125H60.7642C60.7642 128.375 60.3475 125.917 59.5142 123.75C58.6808 121.583 57.4725 119.875 55.8892 118.625C54.3058 117.375 52.3058 116.75 49.8892 116.75ZM111.365 138.125L90.9897 104.75H113.74L124.865 126.5L136.24 104.75H158.865L138.24 138.125L159.74 173H137.115L124.865 149.625L112.615 173H89.9897L111.365 138.125ZM214.16 103.5C221.326 103.5 227.035 106.5 231.285 112.5C235.618 118.417 237.785 127.167 237.785 138.75C237.785 146.5 236.743 153.042 234.66 158.375C232.576 163.625 229.701 167.583 226.035 170.25C222.368 172.917 218.16 174.25 213.41 174.25C210.41 174.25 207.826 173.833 205.66 173C203.493 172.167 201.66 171.083 200.16 169.75C198.743 168.417 197.493 167 196.41 165.5H195.535C195.785 167.083 195.993 168.75 196.16 170.5C196.326 172.167 196.41 173.833 196.41 175.5V203H176.41V104.75H192.66L195.535 113.625H196.41C197.493 111.792 198.826 110.125 200.41 108.625C201.993 107.042 203.91 105.792 206.16 104.875C208.41 103.958 211.076 103.5 214.16 103.5ZM207.035 118.375C204.451 118.375 202.368 119.042 200.785 120.375C199.201 121.708 198.076 123.75 197.41 126.5C196.743 129.167 196.41 132.542 196.41 136.625V138.625C196.41 143.042 196.743 146.792 197.41 149.875C198.076 152.875 199.201 155.167 200.785 156.75C202.368 158.333 204.535 159.125 207.285 159.125C209.535 159.125 211.41 158.333 212.91 156.75C214.41 155.167 215.535 152.833 216.285 149.75C217.035 146.667 217.41 142.917 217.41 138.5C217.41 131.833 216.535 126.833 214.785 123.5C213.118 120.083 210.535 118.375 207.035 118.375Z"/>
</mask>
<path d="M49.5142 103.5C55.5975 103.5 60.8475 104.708 65.2642 107.125C69.6808 109.542 73.0975 113.042 75.5142 117.625C77.9308 122.208 79.1392 127.833 79.1392 134.5V143.5H38.5142C38.6808 148.75 40.0142 152.875 42.5142 155.875C45.0975 158.875 48.7642 160.375 53.5142 160.375C57.6808 160.375 61.4308 159.958 64.7642 159.125C68.1808 158.208 71.6808 156.833 75.2642 155V169.375C72.1808 171.042 68.8058 172.25 65.1392 173C61.5558 173.833 57.0975 174.25 51.7642 174.25C45.2642 174.25 39.4725 173 34.3892 170.5C29.3892 167.917 25.4308 164.042 22.5142 158.875C19.6808 153.708 18.2642 147.208 18.2642 139.375C18.2642 131.375 19.5558 124.75 22.1392 119.5C24.8058 114.167 28.4725 110.167 33.1392 107.5C37.8892 104.833 43.3475 103.5 49.5142 103.5ZM49.8892 116.75C46.8892 116.75 44.3892 117.917 42.3892 120.25C40.3892 122.583 39.2225 126.208 38.8892 131.125H60.7642C60.7642 128.375 60.3475 125.917 59.5142 123.75C58.6808 121.583 57.4725 119.875 55.8892 118.625C54.3058 117.375 52.3058 116.75 49.8892 116.75ZM111.365 138.125L90.9897 104.75H113.74L124.865 126.5L136.24 104.75H158.865L138.24 138.125L159.74 173H137.115L124.865 149.625L112.615 173H89.9897L111.365 138.125ZM214.16 103.5C221.326 103.5 227.035 106.5 231.285 112.5C235.618 118.417 237.785 127.167 237.785 138.75C237.785 146.5 236.743 153.042 234.66 158.375C232.576 163.625 229.701 167.583 226.035 170.25C222.368 172.917 218.16 174.25 213.41 174.25C210.41 174.25 207.826 173.833 205.66 173C203.493 172.167 201.66 171.083 200.16 169.75C198.743 168.417 197.493 167 196.41 165.5H195.535C195.785 167.083 195.993 168.75 196.16 170.5C196.326 172.167 196.41 173.833 196.41 175.5V203H176.41V104.75H192.66L195.535 113.625H196.41C197.493 111.792 198.826 110.125 200.41 108.625C201.993 107.042 203.91 105.792 206.16 104.875C208.41 103.958 211.076 103.5 214.16 103.5ZM207.035 118.375C204.451 118.375 202.368 119.042 200.785 120.375C199.201 121.708 198.076 123.75 197.41 126.5C196.743 129.167 196.41 132.542 196.41 136.625V138.625C196.41 143.042 196.743 146.792 197.41 149.875C198.076 152.875 199.201 155.167 200.785 156.75C202.368 158.333 204.535 159.125 207.285 159.125C209.535 159.125 211.41 158.333 212.91 156.75C214.41 155.167 215.535 152.833 216.285 149.75C217.035 146.667 217.41 142.917 217.41 138.5C217.41 131.833 216.535 126.833 214.785 123.5C213.118 120.083 210.535 118.375 207.035 118.375Z" fill="var(--pageColor)"/>
<path d="M65.2642 107.125L59.504 117.652L59.504 117.652L65.2642 107.125ZM75.5142 117.625L64.8993 123.222L75.5142 117.625ZM79.1392 143.5V155.5H91.1392V143.5H79.1392ZM38.5142 143.5V131.5H26.1272L26.5202 143.881L38.5142 143.5ZM42.5142 155.875L33.2955 163.557L33.3576 163.632L33.4209 163.705L42.5142 155.875ZM64.7642 159.125L67.6746 170.767L67.7744 170.742L67.8737 170.715L64.7642 159.125ZM75.2642 155H87.2642V135.381L69.7984 144.317L75.2642 155ZM75.2642 169.375L80.9704 179.931L87.2642 176.529V169.375H75.2642ZM65.1392 173L62.7344 161.243L62.5772 161.276L62.421 161.312L65.1392 173ZM34.3892 170.5L28.8809 181.161L28.9866 181.216L29.0933 181.268L34.3892 170.5ZM22.5142 158.875L11.9924 164.645L12.0279 164.71L12.0643 164.774L22.5142 158.875ZM22.1392 119.5L11.406 114.133L11.3889 114.168L11.3721 114.202L22.1392 119.5ZM33.1392 107.5L27.2647 97.0362L27.225 97.0585L27.1855 97.0811L33.1392 107.5ZM38.8892 131.125L26.9166 130.313L26.0481 143.125H38.8892V131.125ZM60.7642 131.125V143.125H72.7642V131.125H60.7642ZM55.8892 118.625L63.3249 109.206L63.3249 109.206L55.8892 118.625ZM49.5142 103.5V115.5C54.0013 115.5 57.1863 116.384 59.504 117.652L65.2642 107.125L71.0243 96.5979C64.5087 93.0327 57.1937 91.5 49.5142 91.5V103.5ZM65.2642 107.125L59.504 117.652C61.7905 118.903 63.5478 120.659 64.8993 123.222L75.5142 117.625L86.129 112.028C82.6472 105.425 77.5711 100.18 71.0243 96.5979L65.2642 107.125ZM75.5142 117.625L64.8993 123.222C66.1828 125.656 67.1392 129.241 67.1392 134.5H79.1392H91.1392C91.1392 126.426 89.6788 118.761 86.129 112.028L75.5142 117.625ZM79.1392 134.5H67.1392V143.5H79.1392H91.1392V134.5H79.1392ZM79.1392 143.5V131.5H38.5142V143.5V155.5H79.1392V143.5ZM38.5142 143.5L26.5202 143.881C26.7426 150.888 28.5743 157.892 33.2955 163.557L42.5142 155.875L51.7328 148.193C51.454 147.858 50.619 146.612 50.5081 143.119L38.5142 143.5ZM42.5142 155.875L33.4209 163.705C38.7401 169.882 46.0363 172.375 53.5142 172.375V160.375V148.375C52.3941 148.375 51.88 148.199 51.7453 148.143C51.708 148.128 51.6868 148.117 51.6778 148.112C51.6729 148.109 51.67 148.108 51.6686 148.107C51.6673 148.106 51.6667 148.105 51.6664 148.105C51.6662 148.105 51.6657 148.105 51.6645 148.104C51.6633 148.103 51.6609 148.101 51.657 148.097C51.6498 148.091 51.633 148.075 51.6074 148.045L42.5142 155.875ZM53.5142 160.375V172.375C58.4621 172.375 63.2133 171.882 67.6746 170.767L64.7642 159.125L61.8537 147.483C59.6484 148.035 56.8996 148.375 53.5142 148.375V160.375ZM64.7642 159.125L67.8737 170.715C72.208 169.552 76.4961 167.849 80.7299 165.683L75.2642 155L69.7984 144.317C66.8656 145.818 64.1536 146.864 61.6546 147.535L64.7642 159.125ZM75.2642 155H63.2642V169.375H75.2642H87.2642V155H75.2642ZM75.2642 169.375L69.558 158.819C67.5782 159.889 65.3258 160.713 62.7344 161.243L65.1392 173L67.5439 184.757C72.2858 183.787 76.7835 182.195 80.9704 179.931L75.2642 169.375ZM65.1392 173L62.421 161.312C60.0289 161.868 56.5528 162.25 51.7642 162.25V174.25V186.25C57.6422 186.25 63.0828 185.798 67.8573 184.688L65.1392 173ZM51.7642 174.25V162.25C46.8291 162.25 42.8933 161.31 39.685 159.732L34.3892 170.5L29.0933 181.268C36.0517 184.69 43.6992 186.25 51.7642 186.25V174.25ZM34.3892 170.5L39.8974 159.839C37.0884 158.388 34.7977 156.224 32.9641 152.976L22.5142 158.875L12.0643 164.774C16.064 171.859 21.69 177.446 28.8809 181.161L34.3892 170.5ZM22.5142 158.875L33.0359 153.105C31.4396 150.194 30.2642 145.832 30.2642 139.375H18.2642H6.26416C6.26416 148.585 7.92206 157.223 11.9924 164.645L22.5142 158.875ZM18.2642 139.375H30.2642C30.2642 132.573 31.3754 127.909 32.9063 124.798L22.1392 119.5L11.3721 114.202C7.73625 121.591 6.26416 130.177 6.26416 139.375H18.2642ZM22.1392 119.5L32.8723 124.867C34.5999 121.411 36.7051 119.283 39.0928 117.919L33.1392 107.5L27.1855 97.0811C20.2399 101.05 15.0118 106.922 11.406 114.133L22.1392 119.5ZM33.1392 107.5L39.0136 117.964C41.7432 116.431 45.1288 115.5 49.5142 115.5V103.5V91.5C41.5662 91.5 34.0351 93.2353 27.2647 97.0362L33.1392 107.5ZM49.8892 116.75V104.75C43.289 104.75 37.494 107.522 33.2781 112.44L42.3892 120.25L51.5002 128.059C51.5157 128.041 51.3052 128.282 50.8388 128.499C50.3647 128.72 49.9872 128.75 49.8892 128.75V116.75ZM42.3892 120.25L33.2781 112.44C28.851 117.605 27.3273 124.256 26.9166 130.313L38.8892 131.125L50.8617 131.937C50.9805 130.183 51.2253 129.053 51.4371 128.395C51.6452 127.748 51.7539 127.764 51.5002 128.059L42.3892 120.25ZM38.8892 131.125V143.125H60.7642V131.125V119.125H38.8892V131.125ZM60.7642 131.125H72.7642C72.7642 127.168 72.1641 123.212 70.7143 119.442L59.5142 123.75L48.314 128.058C48.5308 128.621 48.7642 129.582 48.7642 131.125H60.7642ZM59.5142 123.75L70.7143 119.442C69.2261 115.573 66.8405 111.982 63.3249 109.206L55.8892 118.625L48.4534 128.044C48.3867 127.991 48.3278 127.936 48.2788 127.884C48.2301 127.833 48.1999 127.793 48.1859 127.773C48.1567 127.732 48.2161 127.803 48.314 128.058L59.5142 123.75ZM55.8892 118.625L63.3249 109.206C59.2269 105.971 54.4509 104.75 49.8892 104.75V116.75V128.75C50.0658 128.75 49.9429 128.773 49.6224 128.673C49.2784 128.565 48.8565 128.362 48.4534 128.044L55.8892 118.625ZM111.365 138.125L121.596 144.396L125.432 138.137L121.607 131.872L111.365 138.125ZM90.9897 104.75V92.75H69.6045L80.7475 111.003L90.9897 104.75ZM113.74 104.75L124.423 99.2854L121.08 92.75H113.74V104.75ZM124.865 126.5L114.181 131.965L124.746 152.62L135.498 132.061L124.865 126.5ZM136.24 104.75V92.75H128.974L125.606 99.1888L136.24 104.75ZM158.865 104.75L169.073 111.058L180.387 92.75H158.865V104.75ZM138.24 138.125L128.032 131.817L124.138 138.117L128.025 144.422L138.24 138.125ZM159.74 173V185H181.235L169.955 166.703L159.74 173ZM137.115 173L126.486 178.57L129.856 185H137.115V173ZM124.865 149.625L135.494 144.055L124.865 123.773L114.236 144.055L124.865 149.625ZM112.615 173V185H119.874L123.244 178.57L112.615 173ZM89.9897 173L79.7585 166.729L68.5603 185H89.9897V173ZM111.365 138.125L121.607 131.872L101.232 98.4973L90.9897 104.75L80.7475 111.003L101.123 144.378L111.365 138.125ZM90.9897 104.75V116.75H113.74V104.75V92.75H90.9897V104.75ZM113.74 104.75L103.056 110.215L114.181 131.965L124.865 126.5L135.548 121.035L124.423 99.2854L113.74 104.75ZM124.865 126.5L135.498 132.061L146.873 110.311L136.24 104.75L125.606 99.1888L114.231 120.939L124.865 126.5ZM136.24 104.75V116.75H158.865V104.75V92.75H136.24V104.75ZM158.865 104.75L148.657 98.4416L128.032 131.817L138.24 138.125L148.448 144.433L169.073 111.058L158.865 104.75ZM138.24 138.125L128.025 144.422L149.525 179.297L159.74 173L169.955 166.703L148.455 131.828L138.24 138.125ZM159.74 173V161H137.115V173V185H159.74V173ZM137.115 173L147.744 167.43L135.494 144.055L124.865 149.625L114.236 155.195L126.486 178.57L137.115 173ZM124.865 149.625L114.236 144.055L101.986 167.43L112.615 173L123.244 178.57L135.494 155.195L124.865 149.625ZM112.615 173V161H89.9897V173V185H112.615V173ZM89.9897 173L100.221 179.271L121.596 144.396L111.365 138.125L101.134 131.854L79.7585 166.729L89.9897 173ZM231.285 112.5L221.492 119.436L221.547 119.514L221.603 119.59L231.285 112.5ZM234.66 158.375L245.814 162.801L245.825 162.771L245.837 162.741L234.66 158.375ZM226.035 170.25L233.093 179.955L233.093 179.955L226.035 170.25ZM200.16 169.75L191.935 178.488L192.06 178.605L192.187 178.719L200.16 169.75ZM196.41 165.5L206.138 158.474L202.545 153.5H196.41V165.5ZM195.535 165.5V153.5H181.491L183.682 167.372L195.535 165.5ZM196.16 170.5L184.214 171.638L184.216 171.666L184.219 171.694L196.16 170.5ZM196.41 203V215H208.41V203H196.41ZM176.41 203H164.41V215H176.41V203ZM176.41 104.75V92.75H164.41V104.75H176.41ZM192.66 104.75L204.076 101.052L201.386 92.75H192.66V104.75ZM195.535 113.625L184.119 117.323L186.808 125.625H195.535V113.625ZM196.41 113.625V125.625H203.257L206.741 119.73L196.41 113.625ZM200.41 108.625L208.663 117.336L208.78 117.225L208.895 117.11L200.41 108.625ZM206.16 104.875L210.687 115.988L210.687 115.988L206.16 104.875ZM200.785 120.375L193.055 111.196L193.055 111.196L200.785 120.375ZM197.41 126.5L209.051 129.41L209.062 129.369L209.072 129.327L197.41 126.5ZM197.41 149.875L185.681 152.411L185.688 152.445L185.695 152.478L197.41 149.875ZM200.785 156.75L209.27 148.265L209.27 148.265L200.785 156.75ZM212.91 156.75L204.198 148.497L204.198 148.497L212.91 156.75ZM214.785 123.5L203.999 128.761L204.077 128.921L204.16 129.078L214.785 123.5ZM214.16 103.5V115.5C217.316 115.5 219.423 116.514 221.492 119.436L231.285 112.5L241.077 105.564C234.647 96.4857 225.337 91.5 214.16 91.5V103.5ZM231.285 112.5L221.603 119.59C223.783 122.567 225.785 128.345 225.785 138.75H237.785H249.785C249.785 125.989 247.453 114.267 240.966 105.41L231.285 112.5ZM237.785 138.75H225.785C225.785 145.501 224.867 150.464 223.482 154.009L234.66 158.375L245.837 162.741C248.619 155.62 249.785 147.499 249.785 138.75H237.785ZM234.66 158.375L223.506 153.949C222.055 157.605 220.402 159.509 218.977 160.545L226.035 170.25L233.093 179.955C239.001 175.658 243.098 169.645 245.814 162.801L234.66 158.375ZM226.035 170.25L218.977 160.545C217.463 161.646 215.752 162.25 213.41 162.25V174.25V186.25C220.567 186.25 227.273 184.187 233.093 179.955L226.035 170.25ZM213.41 174.25V162.25C211.473 162.25 210.423 161.975 209.967 161.8L205.66 173L201.352 184.2C205.23 185.692 209.347 186.25 213.41 186.25V174.25ZM205.66 173L209.967 161.8C208.939 161.404 208.4 161.019 208.132 160.781L200.16 169.75L192.187 178.719C194.919 181.148 198.047 182.929 201.352 184.2L205.66 173ZM200.16 169.75L208.384 161.012C207.493 160.173 206.753 159.326 206.138 158.474L196.41 165.5L186.682 172.526C188.233 174.674 189.993 176.66 191.935 178.488L200.16 169.75ZM196.41 165.5V153.5H195.535V165.5V177.5H196.41V165.5ZM195.535 165.5L183.682 167.372C183.89 168.689 184.068 170.11 184.214 171.638L196.16 170.5L208.106 169.362C207.918 167.39 207.68 165.477 207.388 163.628L195.535 165.5ZM196.16 170.5L184.219 171.694C184.346 172.966 184.41 174.234 184.41 175.5H196.41H208.41C208.41 173.433 208.306 171.367 208.1 169.306L196.16 170.5ZM196.41 175.5H184.41V203H196.41H208.41V175.5H196.41ZM196.41 203V191H176.41V203V215H196.41V203ZM176.41 203H188.41V104.75H176.41H164.41V203H176.41ZM176.41 104.75V116.75H192.66V104.75V92.75H176.41V104.75ZM192.66 104.75L181.244 108.448L184.119 117.323L195.535 113.625L206.951 109.927L204.076 101.052L192.66 104.75ZM195.535 113.625V125.625H196.41V113.625V101.625H195.535V113.625ZM196.41 113.625L206.741 119.73C207.242 118.881 207.87 118.087 208.663 117.336L200.41 108.625L192.157 99.9136C189.783 102.163 187.744 104.702 186.079 107.52L196.41 113.625ZM200.41 108.625L208.895 117.11C209.254 116.751 209.791 116.353 210.687 115.988L206.16 104.875L201.632 93.7619C198.028 95.2302 194.732 97.3323 191.924 100.14L200.41 108.625ZM206.16 104.875L210.687 115.988C211.17 115.792 212.228 115.5 214.16 115.5V103.5V91.5C209.925 91.5 205.65 92.1251 201.632 93.7619L206.16 104.875ZM207.035 118.375V106.375C202.346 106.375 197.297 107.624 193.055 111.196L200.785 120.375L208.514 129.554C208.041 129.952 207.556 130.188 207.192 130.304C206.86 130.41 206.766 130.375 207.035 130.375V118.375ZM200.785 120.375L193.055 111.196C188.916 114.682 186.799 119.335 185.747 123.673L197.41 126.5L209.072 129.327C209.206 128.775 209.311 128.612 209.263 128.698C209.204 128.805 208.983 129.16 208.514 129.554L200.785 120.375ZM197.41 126.5L185.768 123.59C184.779 127.547 184.41 131.986 184.41 136.625H196.41H208.41C208.41 133.097 208.707 130.786 209.051 129.41L197.41 126.5ZM196.41 136.625H184.41V138.625H196.41H208.41V136.625H196.41ZM196.41 138.625H184.41C184.41 143.584 184.778 148.238 185.681 152.411L197.41 149.875L209.139 147.339C208.708 145.346 208.41 142.5 208.41 138.625H196.41ZM197.41 149.875L185.695 152.478C186.679 156.905 188.606 161.542 192.299 165.235L200.785 156.75L209.27 148.265C209.532 148.526 209.587 148.681 209.525 148.556C209.457 148.417 209.291 148.024 209.124 147.272L197.41 149.875ZM200.785 156.75L192.299 165.235C196.625 169.561 202.123 171.125 207.285 171.125V159.125V147.125C207.051 147.125 207.253 147.091 207.715 147.26C208.222 147.445 208.788 147.783 209.27 148.265L200.785 156.75ZM207.285 159.125V171.125C212.712 171.125 217.775 169.062 221.621 165.003L212.91 156.75L204.198 148.497C204.505 148.173 205.014 147.77 205.711 147.476C206.399 147.186 206.976 147.125 207.285 147.125V159.125ZM212.91 156.75L221.621 165.003C225.068 161.365 226.911 156.836 227.945 152.586L216.285 149.75L204.625 146.914C204.406 147.812 204.194 148.341 204.069 148.601C203.947 148.855 203.954 148.755 204.198 148.497L212.91 156.75ZM216.285 149.75L227.945 152.586C228.989 148.292 229.41 143.53 229.41 138.5H217.41H205.41C205.41 142.303 205.08 145.041 204.625 146.914L216.285 149.75ZM217.41 138.5H229.41C229.41 131.174 228.514 123.836 225.409 117.922L214.785 123.5L204.16 129.078C204.555 129.831 205.41 132.492 205.41 138.5H217.41ZM214.785 123.5L225.57 118.239C224.01 115.04 221.661 111.925 218.216 109.647C214.713 107.33 210.822 106.375 207.035 106.375V118.375V130.375C206.747 130.375 205.898 130.274 204.978 129.666C204.116 129.096 203.893 128.543 203.999 128.761L214.785 123.5Z" fill="var(--pageColor)" mask="url(#path-2-outside-1_32_510)"/>
<path d="M49.5142 103.5C55.5975 103.5 60.8475 104.708 65.2642 107.125C69.6808 109.542 73.0975 113.042 75.5142 117.625C77.9308 122.208 79.1392 127.833 79.1392 134.5V143.5H38.5142C38.6808 148.75 40.0142 152.875 42.5142 155.875C45.0975 158.875 48.7642 160.375 53.5142 160.375C57.6808 160.375 61.4308 159.958 64.7642 159.125C68.1808 158.208 71.6808 156.833 75.2642 155V169.375C72.1808 171.042 68.8058 172.25 65.1392 173C61.5558 173.833 57.0975 174.25 51.7642 174.25C45.2642 174.25 39.4725 173 34.3892 170.5C29.3892 167.917 25.4308 164.042 22.5142 158.875C19.6808 153.708 18.2642 147.208 18.2642 139.375C18.2642 131.375 19.5558 124.75 22.1392 119.5C24.8058 114.167 28.4725 110.167 33.1392 107.5C37.8892 104.833 43.3475 103.5 49.5142 103.5ZM49.8892 116.75C46.8892 116.75 44.3892 117.917 42.3892 120.25C40.3892 122.583 39.2225 126.208 38.8892 131.125H60.7642C60.7642 128.375 60.3475 125.917 59.5142 123.75C58.6808 121.583 57.4725 119.875 55.8892 118.625C54.3058 117.375 52.3058 116.75 49.8892 116.75ZM111.365 138.125L90.9897 104.75H113.74L124.865 126.5L136.24 104.75H158.865L138.24 138.125L159.74 173H137.115L124.865 149.625L112.615 173H89.9897L111.365 138.125ZM214.16 103.5C221.326 103.5 227.035 106.5 231.285 112.5C235.618 118.417 237.785 127.167 237.785 138.75C237.785 146.5 236.743 153.042 234.66 158.375C232.576 163.625 229.701 167.583 226.035 170.25C222.368 172.917 218.16 174.25 213.41 174.25C210.41 174.25 207.826 173.833 205.66 173C203.493 172.167 201.66 171.083 200.16 169.75C198.743 168.417 197.493 167 196.41 165.5H195.535C195.785 167.083 195.993 168.75 196.16 170.5C196.326 172.167 196.41 173.833 196.41 175.5V203H176.41V104.75H192.66L195.535 113.625H196.41C197.493 111.792 198.826 110.125 200.41 108.625C201.993 107.042 203.91 105.792 206.16 104.875C208.41 103.958 211.076 103.5 214.16 103.5ZM207.035 118.375C204.451 118.375 202.368 119.042 200.785 120.375C199.201 121.708 198.076 123.75 197.41 126.5C196.743 129.167 196.41 132.542 196.41 136.625V138.625C196.41 143.042 196.743 146.792 197.41 149.875C198.076 152.875 199.201 155.167 200.785 156.75C202.368 158.333 204.535 159.125 207.285 159.125C209.535 159.125 211.41 158.333 212.91 156.75C214.41 155.167 215.535 152.833 216.285 149.75C217.035 146.667 217.41 142.917 217.41 138.5C217.41 131.833 216.535 126.833 214.785 123.5C213.118 120.083 210.535 118.375 207.035 118.375Z" fill="var(--darkGray)"/>
</g>
</svg>
