<svg viewBox="0 0 256 256" fill="none" xmlns="http://www.w3.org/2000/svg">
<mask id="mask0_32_504" style="mask-type:alpha" maskUnits="userSpaceOnUse" x="0" y="0" width="256" height="256">
<rect width="256" height="256" fill="var(--gray)"/>
</mask>
<g mask="url(#mask0_32_504)">
<mask id="path-2-outside-1_32_504" maskUnits="userSpaceOnUse" x="63" y="66" width="131" height="119" fill="white">
<rect x="63" y="66" width="131" height="119"/>
<path d="M95.2549 173H75.2549V78H95.2549V173ZM158.242 103.5C165.076 103.5 170.576 105.5 174.742 109.5C178.992 113.417 181.117 119.75 181.117 128.5V173H161.117V133.125C161.117 128.208 160.367 124.542 158.867 122.125C157.451 119.625 155.159 118.375 151.992 118.375C147.159 118.375 143.909 120.333 142.242 124.25C140.576 128.083 139.742 133.625 139.742 140.875V173H119.742V104.75H134.867L137.617 113.5H138.492C139.909 111.167 141.576 109.292 143.492 107.875C145.492 106.375 147.742 105.292 150.242 104.625C152.742 103.875 155.409 103.5 158.242 103.5Z"/>
</mask>
<path d="M95.2549 173H75.2549V78H95.2549V173ZM158.242 103.5C165.076 103.5 170.576 105.5 174.742 109.5C178.992 113.417 181.117 119.75 181.117 128.5V173H161.117V133.125C161.117 128.208 160.367 124.542 158.867 122.125C157.451 119.625 155.159 118.375 151.992 118.375C147.159 118.375 143.909 120.333 142.242 124.25C140.576 128.083 139.742 133.625 139.742 140.875V173H119.742V104.75H134.867L137.617 113.5H138.492C139.909 111.167 141.576 109.292 143.492 107.875C145.492 106.375 147.742 105.292 150.242 104.625C152.742 103.875 155.409 103.5 158.242 103.5Z" fill="var(--pageColor)"/>
<path d="M95.2549 173V185H107.255V173H95.2549ZM75.2549 173H63.2549V185H75.2549V173ZM75.2549 78V66H63.2549V78H75.2549ZM95.2549 78H107.255V66H95.2549V78ZM95.2549 173V161H75.2549V173V185H95.2549V173ZM75.2549 173H87.2549V78H75.2549H63.2549V173H75.2549ZM75.2549 78V90H95.2549V78V66H75.2549V78ZM95.2549 78H83.2549V173H95.2549H107.255V78H95.2549ZM174.742 109.5L166.432 118.157L166.52 118.241L166.61 118.324L174.742 109.5ZM181.117 173V185H193.117V173H181.117ZM161.117 173H149.117V185H161.117V173ZM158.867 122.125L148.427 128.041L148.545 128.25L148.672 128.453L158.867 122.125ZM142.242 124.25L153.247 129.035L153.266 128.992L153.284 128.949L142.242 124.25ZM139.742 173V185H151.742V173H139.742ZM119.742 173H107.742V185H119.742V173ZM119.742 104.75V92.75H107.742V104.75H119.742ZM134.867 104.75L146.315 101.152L143.674 92.75H134.867V104.75ZM137.617 113.5L126.169 117.098L128.81 125.5H137.617V113.5ZM138.492 113.5V125.5H145.245L148.75 119.728L138.492 113.5ZM143.492 107.875L150.625 117.525L150.659 117.5L150.692 117.475L143.492 107.875ZM150.242 104.625L153.334 116.22L153.513 116.172L153.69 116.119L150.242 104.625ZM158.242 103.5V115.5C162.584 115.5 164.902 116.688 166.432 118.157L174.742 109.5L183.053 100.843C176.249 94.3122 167.567 91.5 158.242 91.5V103.5ZM174.742 109.5L166.61 118.324C167.365 119.02 169.117 121.384 169.117 128.5H181.117H193.117C193.117 118.116 190.619 107.813 182.874 100.676L174.742 109.5ZM181.117 128.5H169.117V173H181.117H193.117V128.5H181.117ZM181.117 173V161H161.117V173V185H181.117V173ZM161.117 173H173.117V133.125H161.117H149.117V173H161.117ZM161.117 133.125H173.117C173.117 127.403 172.32 121.043 169.063 115.797L158.867 122.125L148.672 128.453C148.479 128.143 148.623 128.234 148.798 129.092C148.97 129.933 149.117 131.239 149.117 133.125H161.117ZM158.867 122.125L169.307 116.209C165.508 109.504 158.944 106.375 151.992 106.375V118.375V130.375C151.992 130.375 151.295 130.368 150.34 129.847C149.326 129.294 148.707 128.535 148.427 128.041L158.867 122.125ZM151.992 118.375V106.375C147.982 106.375 143.678 107.19 139.736 109.565C135.688 112.005 132.897 115.565 131.2 119.551L142.242 124.25L153.284 128.949C153.289 128.936 153.213 129.116 152.992 129.381C152.761 129.657 152.46 129.919 152.123 130.122C151.431 130.539 151.169 130.375 151.992 130.375V118.375ZM142.242 124.25L131.237 119.465C128.6 125.532 127.742 133.013 127.742 140.875H139.742H151.742C151.742 134.237 152.551 130.635 153.247 129.035L142.242 124.25ZM139.742 140.875H127.742V173H139.742H151.742V140.875H139.742ZM139.742 173V161H119.742V173V185H139.742V173ZM119.742 173H131.742V104.75H119.742H107.742V173H119.742ZM119.742 104.75V116.75H134.867V104.75V92.75H119.742V104.75ZM134.867 104.75L123.419 108.348L126.169 117.098L137.617 113.5L149.065 109.902L146.315 101.152L134.867 104.75ZM137.617 113.5V125.5H138.492V113.5V101.5H137.617V113.5ZM138.492 113.5L148.75 119.728C149.474 118.535 150.131 117.89 150.625 117.525L143.492 107.875L136.359 98.2249C133.02 100.693 130.344 103.798 128.235 107.272L138.492 113.5ZM143.492 107.875L150.692 117.475C151.42 116.929 152.266 116.505 153.334 116.22L150.242 104.625L147.15 93.0302C143.219 94.0786 139.564 95.821 136.292 98.275L143.492 107.875ZM150.242 104.625L153.69 116.119C154.98 115.732 156.477 115.5 158.242 115.5V103.5V91.5C154.34 91.5 150.504 92.0181 146.794 93.1311L150.242 104.625Z" fill="var(--pageColor)" mask="url(#path-2-outside-1_32_504)"/>
<path d="M95.2549 173H75.2549V78H95.2549V173ZM158.242 103.5C165.076 103.5 170.576 105.5 174.742 109.5C178.992 113.417 181.117 119.75 181.117 128.5V173H161.117V133.125C161.117 128.208 160.367 124.542 158.867 122.125C157.451 119.625 155.159 118.375 151.992 118.375C147.159 118.375 143.909 120.333 142.242 124.25C140.576 128.083 139.742 133.625 139.742 140.875V173H119.742V104.75H134.867L137.617 113.5H138.492C139.909 111.167 141.576 109.292 143.492 107.875C145.492 106.375 147.742 105.292 150.242 104.625C152.742 103.875 155.409 103.5 158.242 103.5Z" fill="var(--darkGray)"/>
</g>
</svg>
