<svg viewBox="0 0 256 256" fill="none" xmlns="http://www.w3.org/2000/svg">
<mask id="mask0_3629_450" style="mask-type:alpha" maskUnits="userSpaceOnUse" x="0" y="0" width="256" height="256">
<rect width="256" height="256" fill="#C4C4C4"/>
</mask>
<g mask="url(#mask0_3629_450)">
<path d="M44 224L213 224" stroke="#0084FF" stroke-width="20" stroke-linecap="round"/>
<mask id="path-3-inside-1_3629_450" fill="white">
<path d="M111.681 32.3137C117.93 26.0653 128.06 26.0653 134.309 32.3137L200.07 98.0746C206.318 104.323 206.318 114.454 200.07 120.702L129.359 191.413C119.987 200.785 104.791 200.785 95.418 191.413L40.9707 136.966C31.5981 127.593 31.5982 112.397 40.9707 103.024L111.681 32.3137Z"/>
</mask>
<path d="M111.681 32.3137C117.93 26.0653 128.06 26.0653 134.309 32.3137L200.07 98.0746C206.318 104.323 206.318 114.454 200.07 120.702L129.359 191.413C119.987 200.785 104.791 200.785 95.418 191.413L40.9707 136.966C31.5981 127.593 31.5982 112.397 40.9707 103.024L111.681 32.3137Z" stroke="#0084FF" stroke-width="40" mask="url(#path-3-inside-1_3629_450)"/>
<path d="M186.5 115H40L112.5 189L186.5 115Z" fill="#0084FF"/>
<path d="M189.044 160.29L203.452 137.07C205.44 133.865 210.126 133.932 212.022 137.192L225.788 160.855C230.275 168.568 230.459 178.074 226.3 185.968C218.354 201.046 196.827 201.409 188.475 186.552C183.864 178.349 184.082 168.286 189.044 160.29Z" fill="#0084FF"/>
</g>
</svg>
