<svg viewBox="0 0 256 256" fill="none" xmlns="http://www.w3.org/2000/svg">
<mask id="mask0_3183_25" style="mask-type:alpha" maskUnits="userSpaceOnUse" x="0" y="0" width="256" height="256">
<rect width="256" height="256" fill="var(--gray)"/>
</mask>
<g mask="url(#mask0_3183_25)">
<mask id="path-2-outside-1_3183_25" maskUnits="userSpaceOnUse" x="49.5" y="29.5" width="158" height="196" fill="black">
<rect fill="white" x="49.5" y="29.5" width="158" height="196"/>
<path fill-rule="evenodd" clip-rule="evenodd" d="M104.553 47.6658C86.7227 34.777 61.789 47.4814 61.7358 69.4823L61.5001 166.994C61.4513 187.184 82.7687 200.283 100.758 191.117L118.855 181.896L128.286 200.405C133.927 211.477 147.476 215.879 158.548 210.237L164.547 207.181C175.619 201.539 180.022 187.99 174.38 176.918L164.949 158.409L180.021 150.73C198.01 141.564 199.943 116.619 183.58 104.791L104.553 47.6658Z"/>
</mask>
<path fill-rule="evenodd" clip-rule="evenodd" d="M104.553 47.6658C86.7227 34.777 61.789 47.4814 61.7358 69.4823L61.5001 166.994C61.4513 187.184 82.7687 200.283 100.758 191.117L118.855 181.896L128.286 200.405C133.927 211.477 147.476 215.879 158.548 210.237L164.547 207.181C175.619 201.539 180.022 187.99 174.38 176.918L164.949 158.409L180.021 150.73C198.01 141.564 199.943 116.619 183.58 104.791L104.553 47.6658Z" fill="var(--darkGray)"/>
<path d="M61.7358 69.4823L73.7358 69.5113L61.7358 69.4823ZM104.553 47.6658L111.583 37.9406L104.553 47.6658ZM61.5001 166.994L73.5 167.023L61.5001 166.994ZM100.758 191.117L106.206 201.809L106.206 201.809L100.758 191.117ZM118.855 181.896L129.547 176.448L124.099 165.756L113.407 171.204L118.855 181.896ZM128.286 200.405L117.594 205.852L117.594 205.852L128.286 200.405ZM158.548 210.237L163.996 220.93L163.996 220.93L158.548 210.237ZM164.547 207.181L159.099 196.489L159.099 196.489L164.547 207.181ZM174.38 176.918L163.688 182.366L163.688 182.366L174.38 176.918ZM164.949 158.409L159.502 147.717L148.81 153.165L154.257 163.857L164.949 158.409ZM180.021 150.73L185.469 161.422L185.469 161.422L180.021 150.73ZM183.58 104.791L176.551 114.516L176.551 114.516L183.58 104.791ZM73.7358 69.5113C73.7653 57.2886 87.6174 50.2306 97.5231 57.391L111.583 37.9406C85.828 19.3234 49.8127 37.6742 49.7359 69.4533L73.7358 69.5113ZM73.5 167.023L73.7358 69.5113L49.7359 69.4533L49.5001 166.965L73.5 167.023ZM95.3098 180.425C85.3159 185.517 73.4729 178.24 73.5 167.023L49.5001 166.965C49.4296 196.128 80.2214 215.048 106.206 201.809L95.3098 180.425ZM113.407 171.204L95.3098 180.425L106.206 201.809L124.303 192.588L113.407 171.204ZM138.978 194.957L129.547 176.448L108.163 187.344L117.594 205.852L138.978 194.957ZM153.1 199.545C147.933 202.178 141.611 200.124 138.978 194.957L117.594 205.852C126.244 222.83 147.019 229.58 163.996 220.93L153.1 199.545ZM159.099 196.489L153.1 199.545L163.996 220.93L169.995 217.873L159.099 196.489ZM163.688 182.366C166.321 187.533 164.266 193.856 159.099 196.489L169.995 217.873C186.972 209.223 193.723 188.448 185.072 171.47L163.688 182.366ZM154.257 163.857L163.688 182.366L185.072 171.47L175.642 152.961L154.257 163.857ZM174.573 140.038L159.502 147.717L170.397 169.101L185.469 161.422L174.573 140.038ZM176.551 114.516C185.641 121.087 184.567 134.946 174.573 140.038L185.469 161.422C211.453 148.183 214.245 112.15 190.61 95.0659L176.551 114.516ZM97.5231 57.391L176.551 114.516L190.61 95.0659L111.583 37.9406L97.5231 57.391Z" fill="var(--pageColor)" mask="url(#path-2-outside-1_3183_25)"/>
</g>
</svg>
