<svg viewBox="0 0 256 256" fill="none" xmlns="http://www.w3.org/2000/svg">
<mask id="mask0_3566_26" style="mask-type:alpha" maskUnits="userSpaceOnUse" x="0" y="0" width="256" height="256">
<rect width="256" height="256" fill="var(--gray)"/>
</mask>
<g mask="url(#mask0_3566_26)">
<path d="M67.5 104.909L59.6545 87.2014C55.7306 78.3449 58.2526 67.9569 65.8007 61.8856L68.3278 59.8529C74.3022 55.0475 82.4924 54.066 89.433 57.3238V57.3238C99.3088 61.9594 107.021 70.219 110.969 80.389L122.818 110.909M122.818 110.909V137.748C122.818 148.384 119.939 158.822 114.485 167.953L106.14 181.926C101.736 189.301 95.1118 195.095 87.216 198.479L83.2494 200.179C79.0851 201.964 74.2698 201.242 70.8111 198.316V198.316C65.5597 193.872 63.2002 186.886 64.6821 180.169L66.6466 171.262C69.1454 159.935 74.4404 149.412 82.0487 140.656L85.8238 136.311C94.7304 126.06 105.88 118 118.406 112.756L122.818 110.909ZM122.818 110.909L136.511 106.725C140.371 105.546 144.508 105.638 148.312 106.987V106.987C155.132 109.408 160.102 115.338 161.292 122.477L163.182 133.818L161.86 147.036C161.757 148.067 163.016 148.648 163.733 147.899L180.393 130.515C184.244 126.496 189.977 124.891 195.355 126.325L203 128.364M139.727 188.364H198.636" stroke="var(--pageColor)" stroke-width="44" stroke-linecap="round"/>
<path d="M67.5 104.909L59.6545 87.2014C55.7306 78.3449 58.2526 67.9569 65.8007 61.8856L68.3278 59.8529C74.3022 55.0475 82.4924 54.066 89.433 57.3238V57.3238C99.3088 61.9594 107.021 70.219 110.969 80.389L122.818 110.909M122.818 110.909V137.748C122.818 148.384 119.939 158.822 114.485 167.953L106.14 181.926C101.736 189.301 95.1118 195.095 87.216 198.479L83.2494 200.179C79.0851 201.964 74.2698 201.242 70.8111 198.316V198.316C65.5597 193.872 63.2002 186.886 64.6821 180.169L66.6466 171.262C69.1454 159.935 74.4404 149.412 82.0487 140.656L85.8238 136.311C94.7304 126.06 105.88 118 118.406 112.756L122.818 110.909ZM122.818 110.909L136.511 106.725C140.371 105.546 144.508 105.638 148.312 106.987V106.987C155.132 109.408 160.102 115.338 161.292 122.477L163.182 133.818L161.86 147.036C161.757 148.067 163.016 148.648 163.733 147.899L180.393 130.515C184.244 126.496 189.977 124.891 195.355 126.325L203 128.364M139.727 188.364H198.636" stroke="var(--darkGray)" stroke-width="20" stroke-linecap="round"/>
</g>
</svg>
