<svg viewBox="0 0 256 256" fill="none" xmlns="http://www.w3.org/2000/svg">
<mask id="mask0_4072_15" style="mask-type:alpha" maskUnits="userSpaceOnUse" x="0" y="0" width="256" height="256">
<rect width="256" height="256" fill="var(--gray)"/>
</mask>
<g mask="url(#mask0_4072_15)">
<path d="M63 59H193C195.209 59 197 60.7909 197 63V155.5C197 157.709 195.209 159.5 193 159.5H143.833C140.371 159.5 137.003 160.623 134.233 162.7L102.266 186.676L104.305 180.56C107.758 170.199 100.047 159.5 89.126 159.5H63C60.7909 159.5 59 157.709 59 155.5V63C59 60.7909 60.7909 59 63 59Z" stroke="var(--pageColor)" stroke-width="12" stroke-linecap="round"/>
<path d="M193 37C207.359 37 219 48.6406 219 63V155.5C219 169.859 207.359 181.5 193 181.5H145.833L105.222 211.958C91.1043 222.546 71.7654 208.607 77.3457 191.866L80.8008 181.5H63C48.6406 181.5 37 169.859 37 155.5V63C37 48.6406 48.6406 37 63 37H193Z" stroke="var(--pageColor)" stroke-width="32" stroke-linecap="round"/>
<path d="M193 43C204.046 43 213 51.9543 213 63V155.5C213 166.546 204.046 175.5 193 175.5H143.833L101.622 207.158C92.2105 214.217 79.3179 204.924 83.0381 193.764L89.126 175.5H63C51.9543 175.5 43 166.546 43 155.5V63C43 51.9543 51.9543 43 63 43H193Z" stroke="var(--darkGray)" stroke-width="20" stroke-linecap="round"/>
</g>
</svg>
