<svg viewBox="0 0 256 256" fill="none" xmlns="http://www.w3.org/2000/svg">
<mask id="mask0_4071_64" style="mask-type:alpha" maskUnits="userSpaceOnUse" x="0" y="0" width="256" height="256">
<rect width="256" height="256" fill="var(--gray)"/>
</mask>
<g mask="url(#mask0_4071_64)">
<path d="M108.179 46.2412C114.689 27.4933 141.311 27.4932 147.821 46.2412L147.973 46.6914L161.178 87.334H203.913C224.256 87.3341 232.714 113.366 216.257 125.323L181.683 150.442L194.889 191.086C201.175 210.433 179.031 226.522 162.573 214.564L128 189.445L93.4268 214.564C76.9689 226.522 54.8249 210.434 61.1113 191.086L74.3164 150.442L39.7432 125.323C23.2858 113.366 31.744 87.3341 52.0869 87.334H94.8223L108.027 46.6914L108.179 46.2412Z" stroke="var(--pageColor)" stroke-width="32"/>
<path d="M142.725 101.733C144.197 106.266 148.421 109.334 153.187 109.334H200.836L162.286 137.342C158.431 140.143 156.817 145.108 158.29 149.641L173.014 194.957L134.466 166.95L134.101 166.695C130.409 164.233 125.591 164.233 121.899 166.695L121.534 166.95L82.9854 194.957L97.71 149.641C99.1826 145.108 97.5692 140.143 93.7139 137.342L55.1641 109.334H102.813C107.579 109.334 111.803 106.266 113.275 101.733L128 56.416L142.725 101.733Z" stroke="var(--pageColor)" stroke-width="12"/>
<path d="M113.955 47.9072C118.831 34.7287 137.845 34.9414 142.266 48.5449L156.818 93.334H203.913C218.444 93.3341 224.485 111.929 212.729 120.47L174.629 148.15L189.183 192.94C193.673 206.76 177.855 218.252 166.1 209.711L128 182.029L89.9004 209.711C78.1448 218.252 62.3273 206.76 66.8174 192.94L81.3701 148.15L43.2705 120.47C31.5148 111.929 37.5561 93.3341 52.0869 93.334H99.1816L113.734 48.5449L113.955 47.9072Z" stroke="var(--darkGray)" stroke-width="20"/>
</g>
</svg>
