<svg viewBox="0 0 256 256" fill="none" xmlns="http://www.w3.org/2000/svg"> <mask id="mask0_2037_69" style="mask-type:alpha" maskUnits="userSpaceOnUse" x="0" y="0" width="256" height="256"> <rect width="256" height="256" fill="var(--gray)"/> </mask> <g mask="url(#mask0_2037_69)"> <rect x="69" y="119" width="118" height="88" rx="17.7647" stroke="var(--pageColor)" stroke-width="12"/> <rect x="45.12" y="95.12" width="165.76" height="135.76" rx="41.6447" stroke="var(--pageColor)" stroke-width="35.76"/> <rect x="-6" y="6" width="30" height="52" rx="15" transform="matrix(1 0 0 -1 119 207)" fill="var(--darkGray)" stroke="var(--pageColor)" stroke-width="12"/> <rect x="-6" y="6" width="52" height="52" rx="26" transform="matrix(1 0 0 -1 108 183)" fill="var(--darkGray)" stroke="var(--pageColor)" stroke-width="12"/> <mask id="path-6-outside-1_2037_69" maskUnits="userSpaceOnUse" x="57.7168" y="10.7168" width="136" height="107" fill="black"> <rect fill="var(--pageColor)" x="57.7168" y="10.7168" width="136" height="107"/> <path fill-rule="evenodd" clip-rule="evenodd" d="M73.1983 96.8319L88.2938 84.1652C86.0671 71.8657 90.3169 58.7503 100.578 50.1404C115.552 37.5753 137.754 39.2844 150.642 53.8204C150.863 54.0691 151.081 54.3215 151.296 54.5777L162.161 67.5263L175.95 55.9561L165.084 43.0075C145.914 20.1615 111.854 17.1816 89.0075 36.3517C70.9481 51.5053 65.3023 75.9636 73.1983 96.8319Z"/> </mask> <path fill-rule="evenodd" clip-rule="evenodd" d="M73.1983 96.8319L88.2938 84.1652C86.0671 71.8657 90.3169 58.7503 100.578 50.1404C115.552 37.5753 137.754 39.2844 150.642 53.8204C150.863 54.0691 151.081 54.3215 151.296 54.5777L162.161 67.5263L175.95 55.9561L165.084 43.0075C145.914 20.1615 111.854 17.1816 89.0075 36.3517C70.9481 51.5053 65.3023 75.9636 73.1983 96.8319Z" fill="var(--pageColor)"/> <path d="M88.2938 84.1652L96.0072 93.3578L101.343 88.8809L100.102 82.0275L88.2938 84.1652ZM73.1983 96.8319L61.9748 101.078L67.9586 116.893L80.9117 106.024L73.1983 96.8319ZM100.578 50.1404L108.291 59.333L108.291 59.333L100.578 50.1404ZM150.642 53.8204L141.664 61.7816L141.664 61.7817L150.642 53.8204ZM151.296 54.5777L160.488 46.8642L160.488 46.8641L151.296 54.5777ZM162.161 67.5263L152.968 75.2397L160.682 84.4323L169.874 76.7188L162.161 67.5263ZM175.95 55.9561L183.663 65.1486L192.856 57.4352L185.142 48.2426L175.95 55.9561ZM165.084 43.0075L174.277 35.2941L174.277 35.2941L165.084 43.0075ZM89.0075 36.3517L81.2941 27.1591L89.0075 36.3517ZM80.5803 74.9727L65.4848 87.6393L80.9117 106.024L96.0072 93.3578L80.5803 74.9727ZM100.102 82.0275C98.6109 73.7924 101.462 65.063 108.291 59.333L92.8642 40.9479C79.1714 52.4376 73.5232 69.939 76.4857 86.303L100.102 82.0275ZM108.291 59.333C118.273 50.9575 133.075 52.0957 141.664 61.7816L159.621 45.8592C142.432 26.473 112.832 24.1932 92.8642 40.9479L108.291 59.333ZM141.664 61.7817C141.812 61.9486 141.958 62.1184 142.103 62.2913L160.488 46.8641C160.203 46.5246 159.914 46.1896 159.621 45.8591L141.664 61.7817ZM142.103 62.2911L152.968 75.2397L171.353 59.8128L160.488 46.8642L142.103 62.2911ZM168.236 46.7636L154.447 58.3337L169.874 76.7188L183.663 65.1486L168.236 46.7636ZM155.892 50.721L166.757 63.6695L185.142 48.2426L174.277 35.2941L155.892 50.721ZM96.721 45.5442C114.49 30.6341 140.982 32.9518 155.892 50.721L174.277 35.2941C150.847 7.37115 109.217 3.729 81.2941 27.1591L96.721 45.5442ZM84.4217 92.5853C78.2746 76.3388 82.6891 57.3183 96.721 45.5442L81.2941 27.1591C59.2071 45.6923 52.3301 75.5884 61.9748 101.078L84.4217 92.5853Z" fill="var(--pageColor)" mask="url(#path-6-outside-1_2037_69)"/> <path fill-rule="evenodd" clip-rule="evenodd" d="M77.8308 106.198L91.8333 94.4485C84.1197 79.7826 87.3658 61.2265 100.578 50.1404C115.552 37.5753 137.754 39.2844 150.642 53.8204C150.863 54.0691 151.081 54.3215 151.296 54.5777L162.161 67.5263L175.95 55.9561L165.084 43.0075C145.914 20.1615 111.854 17.1816 89.0075 36.3517C68.1585 53.8461 63.8543 83.7418 77.8308 106.198Z" fill="var(--darkGray)"/> <rect x="51.1177" y="101.118" width="153.765" height="123.765" rx="35.647" stroke="var(--darkGray)" stroke-width="23.7647"/> <rect width="18" height="40" rx="9" transform="matrix(1 0 0 -1 119 195)" fill="var(--darkGray)"/> <rect width="40" height="40" rx="20" transform="matrix(1 0 0 -1 108 171)" fill="var(--darkGray)"/> <path fill-rule="evenodd" clip-rule="evenodd" d="M77.8308 106.198L91.8333 94.4485C84.1197 79.7826 87.3658 61.2265 100.578 50.1404C115.552 37.5753 137.754 39.2844 150.642 53.8204C150.863 54.0691 151.081 54.3215 151.296 54.5777L162.161 67.5263L175.95 55.9561L165.084 43.0075C145.914 20.1615 111.854 17.1816 89.0075 36.3517C68.1585 53.8461 63.8543 83.7418 77.8308 106.198Z" fill="var(--darkGray)"/> </g> </svg>