<svg class="eSelectHandle" handle="rotate" width="30" height="30" viewBox="0 0 39 39" fill="none" xmlns="http://www.w3.org/2000/svg"> <path d="M8.87695 14.4287C7.3039 16.0019 4.75274 16.0019 3.17969 14.4287C1.6067 12.8556 1.6067 10.3045 3.17969 8.73145L8.76172 3.15039C9.13678 2.77535 9.64538 2.56446 10.1758 2.56445C10.7062 2.56449 11.2148 2.77536 11.5898 3.15039L14.458 6.01855C15.2391 6.79959 15.239 8.06562 14.458 8.84668L8.87695 14.4287Z" stroke-width="4" stroke-linejoin="round"/> <path d="M20.04 14.4287C18.467 16.0018 15.9158 16.0018 14.3428 14.4287L8.76172 8.84668C8.38663 8.47161 8.17579 7.96306 8.17578 7.43262C8.17579 6.90233 8.38586 6.39359 8.76074 6.01855L11.6299 3.15039C12.4109 2.36943 13.677 2.3694 14.458 3.15039L20.04 8.73145C21.613 10.3045 21.613 12.8556 20.04 14.4287Z" stroke-width="4" stroke-linejoin="round"/> <path d="M30.96 30.2158C30.4297 30.2157 29.9209 30.0049 29.5459 29.6299L23.9639 24.0488V24.0479C22.3912 22.4747 22.391 19.9245 23.9639 18.3516C25.5369 16.7784 28.0881 16.7784 29.6611 18.3516L35.2422 23.9336C36.0232 24.7146 36.0231 25.9807 35.2422 26.7617L32.375 29.6299C31.9999 30.005 31.4904 30.2158 30.96 30.2158Z" stroke-width="4" stroke-linejoin="round"/> <path d="M29.6611 35.2119C28.0881 36.7851 25.5369 36.7851 23.9639 35.2119C22.391 33.6389 22.3912 31.0887 23.9639 29.5156V29.5146L29.5459 23.9336C29.9209 23.5586 30.4297 23.3477 30.96 23.3477C31.4904 23.3477 31.9999 23.5585 32.375 23.9336L35.2422 26.8018C36.0231 27.5828 36.0232 28.8489 35.2422 29.6299L29.6611 35.2119Z" stroke-width="4" stroke-linejoin="round"/> <path d="M11.638 5.99955V13.5736C11.638 20.854 17.5396 26.7559 24.8203 26.7559H32.394" stroke-width="12" stroke-linecap="round"/> <path d="M7.46244 13.0144C6.67045 13.8064 5.38612 13.8064 4.59412 13.0144C3.80213 12.2223 3.80213 10.9381 4.59412 10.1461L7.46244 13.0144ZM13.0439 7.43266L7.46244 13.0144L4.59412 10.1461L10.1756 4.56438L13.0439 7.43266Z" fill="var(--theme)"/> <path d="M18.6257 10.1461C19.4177 10.9381 19.4177 12.2223 18.6257 13.0144C17.8337 13.8064 16.5494 13.8064 15.7574 13.0144L18.6257 10.1461ZM13.0437 4.56438L18.6257 10.1461L15.7574 13.0144L10.1754 7.43266L13.0437 4.56438Z" fill="var(--theme)"/> <path d="M25.3783 22.6342C24.5863 21.8421 24.5863 20.5579 25.3783 19.7659C26.1703 18.9738 27.4546 18.9738 28.2466 19.7659L25.3783 22.6342ZM30.9603 28.2158L25.3783 22.6342L28.2466 19.7659L33.8281 25.3476L30.9603 28.2158Z" fill="var(--theme)"/> <path d="M28.2466 33.7976C27.4546 34.5896 26.1703 34.5896 25.3783 33.7976C24.5863 33.0055 24.5863 31.7214 25.3783 30.9293L28.2466 33.7976ZM33.8281 28.2158L28.2466 33.7976L25.3783 30.9293L30.9603 25.3476L33.8281 28.2158Z" fill="var(--theme)"/> <path d="M11.638 5.99955V13.5736C11.638 20.854 17.5396 26.7559 24.8203 26.7559H32.394" stroke="var(--theme)" stroke-width="4" stroke-linecap="round"/> </svg>