<svg viewBox="0 0 256 256" fill="none" xmlns="http://www.w3.org/2000/svg">
<g clip-path="url(#clip0_2213_166)">
<rect x="10" y="12" width="236" height="234" rx="60" fill="#FF3D64" fill-opacity="0.25"/>
<path d="M110.406 153.8L101.526 47H155.766L146.646 153.8H110.406ZM128.646 217.16C120.646 217.16 114.086 214.68 108.966 209.72C103.846 204.76 101.286 198.84 101.286 191.96C101.286 184.92 103.846 179.08 108.966 174.44C114.086 169.64 120.646 167.24 128.646 167.24C136.646 167.24 143.126 169.64 148.086 174.44C153.206 179.08 155.766 184.92 155.766 191.96C155.766 198.84 153.206 204.76 148.086 209.72C143.126 214.68 136.646 217.16 128.646 217.16Z" fill="#FF3D64"/>
</g>
<defs>
<clipPath id="clip0_2213_166">
<rect width="256" height="256" fill="white"/>
</clipPath>
</defs>
</svg>
