<svg viewBox="0 0 256 256" fill="none" xmlns="http://www.w3.org/2000/svg">
<g clip-path="url(#clip0_2213_169)">
<rect x="10" y="12" width="236" height="234" rx="60" fill="#0084FF" fill-opacity="0.25"/>
<path d="M109.352 208V99.6H147.352V208H109.352ZM128.352 87.6C121.419 87.6 115.819 85.6667 111.552 81.8C107.286 77.9333 105.152 73.1333 105.152 67.4C105.152 61.6667 107.286 56.8667 111.552 53C115.819 49.1333 121.419 47.2 128.352 47.2C135.286 47.2 140.886 49.0667 145.152 52.8C149.419 56.4 151.552 61.0667 151.552 66.8C151.552 72.8 149.419 77.8 145.152 81.8C141.019 85.6667 135.419 87.6 128.352 87.6Z" fill="#0084FF"/>
</g>
<defs>
<clipPath id="clip0_2213_169">
<rect width="256" height="256" fill="white"/>
</clipPath>
</defs>
</svg>
