<svg viewBox="0 0 168 168" fill="none" xmlns="http://www.w3.org/2000/svg">
<rect width="168" height="168" rx="84" fill="#34C172" fill-opacity="0.25"/>
<path fill-rule="evenodd" clip-rule="evenodd" d="M122.41 110.268L122.559 109.977C122.849 109.412 123 108.786 123 108.151V55.2174C123 54.1489 122.573 53.1249 121.813 52.3735L119.766 50.3489C119.042 49.6331 118.065 49.2316 117.048 49.2316C114.913 49.2316 113.182 50.9623 113.182 53.0973V65.1174C113.182 66.6236 111.961 67.8447 110.455 67.8447C108.948 67.8447 107.727 66.6236 107.727 65.1174V39.2044C107.727 36.9952 105.936 35.2044 103.727 35.2044H101.909C99.7 35.2044 97.9091 36.9952 97.9091 39.2044V65.1174C97.9091 66.6236 96.688 67.8447 95.1818 67.8447C93.6756 67.8447 92.4545 66.6236 92.4545 65.1174V33C92.4545 30.7909 90.6637 29 88.4545 29H86.6364C84.4272 29 82.6364 30.7909 82.6364 33V65.1174C82.6364 66.598 81.4565 67.803 79.9857 67.8436L122.41 110.268ZM115.387 131.529V135C115.387 137.209 113.596 139 111.387 139H82.5455C80.3363 139 78.5455 137.209 78.5455 135V125.325C78.5455 124.436 78.2493 123.573 77.7037 122.871L45.8417 81.8759C45.2962 81.1739 45 80.3102 45 79.4212V76.1418C45 72.7923 48.8708 70.9262 51.4913 73.0124L60.8723 80.4807C62.1163 81.471 63.6421 81.5707 64.9017 81.0439L115.387 131.529ZM67.3636 55.2215L77.1818 65.0397V43.2507C77.1818 41.0415 75.391 39.2507 73.1818 39.2507H71.3636C69.1545 39.2507 67.3636 41.0415 67.3636 43.2507V55.2215Z" fill="#34C172"/>
<path d="M45 47L129 131" stroke="#34C172" stroke-width="12" stroke-linecap="round"/>
</svg>
