<svg viewBox="0 0 256 256" fill="none" xmlns="http://www.w3.org/2000/svg">
<mask id="mask0_32_498" style="mask-type:alpha" maskUnits="userSpaceOnUse" x="0" y="0" width="256" height="256">
<rect width="256" height="256" fill="var(--gray)"/>
</mask>
<g mask="url(#mask0_32_498)">
<mask id="path-2-outside-1_32_498" maskUnits="userSpaceOnUse" x="24" y="66" width="208" height="149" fill="white">
<rect x="24" y="66" width="208" height="149"/>
<path d="M56.1655 173H36.1655V78H56.1655V173ZM140.778 138.75C140.778 144.417 140.028 149.458 138.528 153.875C137.111 158.292 135.028 162.042 132.278 165.125C129.528 168.125 126.153 170.417 122.153 172C118.236 173.5 113.819 174.25 108.903 174.25C104.319 174.25 100.069 173.5 96.1528 172C92.2362 170.417 88.8612 168.125 86.0278 165.125C83.2778 162.042 81.1112 158.292 79.5278 153.875C78.0278 149.458 77.2778 144.417 77.2778 138.75C77.2778 131.167 78.5695 124.792 81.1528 119.625C83.7362 114.375 87.4028 110.375 92.1528 107.625C96.9028 104.875 102.611 103.5 109.278 103.5C115.445 103.5 120.861 104.875 125.528 107.625C130.278 110.375 133.986 114.375 136.653 119.625C139.403 124.792 140.778 131.167 140.778 138.75ZM97.6528 138.75C97.6528 143.25 98.0278 147.042 98.7778 150.125C99.6112 153.125 100.861 155.417 102.528 157C104.278 158.5 106.486 159.25 109.153 159.25C111.903 159.25 114.07 158.5 115.653 157C117.32 155.417 118.528 153.125 119.278 150.125C120.028 147.042 120.403 143.25 120.403 138.75C120.403 134.25 120.028 130.5 119.278 127.5C118.528 124.5 117.278 122.25 115.528 120.75C113.861 119.25 111.695 118.5 109.028 118.5C104.944 118.5 102.028 120.208 100.278 123.625C98.5278 126.958 97.6528 132 97.6528 138.75ZM182.633 103.5C186.883 103.5 190.467 104.333 193.383 106C196.383 107.667 198.842 110.167 200.758 113.5H201.258L202.758 104.75H219.883V173.125C219.883 179.625 218.633 185.083 216.133 189.5C213.717 193.917 210.05 197.25 205.133 199.5C200.217 201.833 194.008 203 186.508 203C181.675 203 177.258 202.708 173.258 202.125C169.342 201.542 165.55 200.5 161.883 199V184.125C164.55 185.292 167.133 186.25 169.633 187C172.217 187.833 174.842 188.417 177.508 188.75C180.258 189.167 183.217 189.375 186.383 189.375C190.967 189.375 194.342 188.083 196.508 185.5C198.758 182.917 199.883 179.042 199.883 173.875V172.5C199.883 171.083 199.925 169.625 200.008 168.125C200.175 166.625 200.342 165.292 200.508 164.125H199.883C198.05 167.708 195.675 170.292 192.758 171.875C189.925 173.458 186.425 174.25 182.258 174.25C175.008 174.25 169.217 171.167 164.883 165C160.633 158.75 158.508 150.083 158.508 139C158.508 131.5 159.508 125.125 161.508 119.875C163.508 114.542 166.3 110.5 169.883 107.75C173.55 104.917 177.8 103.5 182.633 103.5ZM189.633 118.625C187.217 118.625 185.217 119.417 183.633 121C182.05 122.5 180.842 124.792 180.008 127.875C179.258 130.875 178.883 134.667 178.883 139.25C178.883 146.083 179.758 151.208 181.508 154.625C183.342 157.958 186.133 159.625 189.883 159.625C191.883 159.625 193.592 159.333 195.008 158.75C196.508 158.083 197.717 157.042 198.633 155.625C199.55 154.125 200.217 152.208 200.633 149.875C201.133 147.542 201.383 144.708 201.383 141.375V139.125C201.383 134.208 201.008 130.25 200.258 127.25C199.508 124.25 198.258 122.083 196.508 120.75C194.842 119.333 192.55 118.625 189.633 118.625Z"/>
</mask>
<path d="M56.1655 173H36.1655V78H56.1655V173ZM140.778 138.75C140.778 144.417 140.028 149.458 138.528 153.875C137.111 158.292 135.028 162.042 132.278 165.125C129.528 168.125 126.153 170.417 122.153 172C118.236 173.5 113.819 174.25 108.903 174.25C104.319 174.25 100.069 173.5 96.1528 172C92.2362 170.417 88.8612 168.125 86.0278 165.125C83.2778 162.042 81.1112 158.292 79.5278 153.875C78.0278 149.458 77.2778 144.417 77.2778 138.75C77.2778 131.167 78.5695 124.792 81.1528 119.625C83.7362 114.375 87.4028 110.375 92.1528 107.625C96.9028 104.875 102.611 103.5 109.278 103.5C115.445 103.5 120.861 104.875 125.528 107.625C130.278 110.375 133.986 114.375 136.653 119.625C139.403 124.792 140.778 131.167 140.778 138.75ZM97.6528 138.75C97.6528 143.25 98.0278 147.042 98.7778 150.125C99.6112 153.125 100.861 155.417 102.528 157C104.278 158.5 106.486 159.25 109.153 159.25C111.903 159.25 114.07 158.5 115.653 157C117.32 155.417 118.528 153.125 119.278 150.125C120.028 147.042 120.403 143.25 120.403 138.75C120.403 134.25 120.028 130.5 119.278 127.5C118.528 124.5 117.278 122.25 115.528 120.75C113.861 119.25 111.695 118.5 109.028 118.5C104.944 118.5 102.028 120.208 100.278 123.625C98.5278 126.958 97.6528 132 97.6528 138.75ZM182.633 103.5C186.883 103.5 190.467 104.333 193.383 106C196.383 107.667 198.842 110.167 200.758 113.5H201.258L202.758 104.75H219.883V173.125C219.883 179.625 218.633 185.083 216.133 189.5C213.717 193.917 210.05 197.25 205.133 199.5C200.217 201.833 194.008 203 186.508 203C181.675 203 177.258 202.708 173.258 202.125C169.342 201.542 165.55 200.5 161.883 199V184.125C164.55 185.292 167.133 186.25 169.633 187C172.217 187.833 174.842 188.417 177.508 188.75C180.258 189.167 183.217 189.375 186.383 189.375C190.967 189.375 194.342 188.083 196.508 185.5C198.758 182.917 199.883 179.042 199.883 173.875V172.5C199.883 171.083 199.925 169.625 200.008 168.125C200.175 166.625 200.342 165.292 200.508 164.125H199.883C198.05 167.708 195.675 170.292 192.758 171.875C189.925 173.458 186.425 174.25 182.258 174.25C175.008 174.25 169.217 171.167 164.883 165C160.633 158.75 158.508 150.083 158.508 139C158.508 131.5 159.508 125.125 161.508 119.875C163.508 114.542 166.3 110.5 169.883 107.75C173.55 104.917 177.8 103.5 182.633 103.5ZM189.633 118.625C187.217 118.625 185.217 119.417 183.633 121C182.05 122.5 180.842 124.792 180.008 127.875C179.258 130.875 178.883 134.667 178.883 139.25C178.883 146.083 179.758 151.208 181.508 154.625C183.342 157.958 186.133 159.625 189.883 159.625C191.883 159.625 193.592 159.333 195.008 158.75C196.508 158.083 197.717 157.042 198.633 155.625C199.55 154.125 200.217 152.208 200.633 149.875C201.133 147.542 201.383 144.708 201.383 141.375V139.125C201.383 134.208 201.008 130.25 200.258 127.25C199.508 124.25 198.258 122.083 196.508 120.75C194.842 119.333 192.55 118.625 189.633 118.625Z" fill="var(--pageColor)"/>
<path d="M56.1655 173V185H68.1655V173H56.1655ZM36.1655 173H24.1655V185H36.1655V173ZM36.1655 78V66H24.1655V78H36.1655ZM56.1655 78H68.1655V66H56.1655V78ZM56.1655 173V161H36.1655V173V185H56.1655V173ZM36.1655 173H48.1655V78H36.1655H24.1655V173H36.1655ZM36.1655 78V90H56.1655V78V66H36.1655V78ZM56.1655 78H44.1655V173H56.1655H68.1655V78H56.1655ZM138.528 153.875L127.165 150.016L127.132 150.113L127.101 150.21L138.528 153.875ZM132.278 165.125L141.124 173.234L141.179 173.173L141.233 173.112L132.278 165.125ZM122.153 172L126.445 183.206L126.507 183.182L126.569 183.158L122.153 172ZM96.1528 172L91.6554 183.125L91.7578 183.167L91.8611 183.206L96.1528 172ZM86.0278 165.125L77.0723 173.112L77.1862 173.24L77.3037 173.364L86.0278 165.125ZM79.5278 153.875L68.1653 157.734L68.1977 157.83L68.2318 157.925L79.5278 153.875ZM81.1528 119.625L91.886 124.992L91.903 124.957L91.9199 124.923L81.1528 119.625ZM92.1528 107.625L98.1653 118.01L98.1653 118.01L92.1528 107.625ZM125.528 107.625L119.436 117.963L119.475 117.987L119.515 118.01L125.528 107.625ZM136.653 119.625L125.954 125.059L126.006 125.162L126.06 125.263L136.653 119.625ZM98.7778 150.125L87.1178 152.961L87.1637 153.15L87.2156 153.337L98.7778 150.125ZM102.528 157L94.2628 165.7L94.4853 165.911L94.7183 166.111L102.528 157ZM115.653 157L123.906 165.711L123.912 165.706L123.918 165.7L115.653 157ZM119.278 150.125L130.92 153.035L130.929 152.998L130.938 152.961L119.278 150.125ZM119.278 127.5L107.636 130.41L107.636 130.41L119.278 127.5ZM115.528 120.75L107.5 129.67L107.608 129.767L107.718 129.861L115.528 120.75ZM100.278 123.625L110.903 129.203L110.931 129.149L110.958 129.096L100.278 123.625ZM140.778 138.75H128.778C128.778 143.377 128.164 147.076 127.165 150.016L138.528 153.875L149.89 157.734C151.892 151.84 152.778 145.457 152.778 138.75H140.778ZM138.528 153.875L127.101 150.21C126.134 153.225 124.826 155.452 123.322 157.138L132.278 165.125L141.233 173.112C145.23 168.632 148.088 163.358 149.954 157.54L138.528 153.875ZM132.278 165.125L123.432 157.016C121.979 158.602 120.147 159.888 117.736 160.842L122.153 172L126.569 183.158C132.159 180.945 137.077 177.648 141.124 173.234L132.278 165.125ZM122.153 172L117.861 160.794C115.528 161.687 112.601 162.25 108.903 162.25V174.25V186.25C115.038 186.25 120.944 185.313 126.445 183.206L122.153 172ZM108.903 174.25V162.25C105.65 162.25 102.869 161.722 100.445 160.794L96.1528 172L91.8611 183.206C97.2696 185.278 102.989 186.25 108.903 186.25V174.25ZM96.1528 172L100.65 160.875C98.2945 159.922 96.3717 158.6 94.752 156.886L86.0278 165.125L77.3037 173.364C81.3507 177.65 86.1778 180.911 91.6554 183.125L96.1528 172ZM86.0278 165.125L94.9834 157.138C93.3889 155.35 91.9572 152.987 90.8239 149.825L79.5278 153.875L68.2318 157.925C70.2651 163.596 73.1668 168.733 77.0723 173.112L86.0278 165.125ZM79.5278 153.875L90.8904 150.016C89.892 147.076 89.2778 143.377 89.2778 138.75H77.2778H65.2778C65.2778 145.457 66.1637 151.84 68.1653 157.734L79.5278 153.875ZM77.2778 138.75H89.2778C89.2778 132.47 90.3545 128.054 91.886 124.992L81.1528 119.625L70.4197 114.258C66.7845 121.529 65.2778 129.864 65.2778 138.75H77.2778ZM81.1528 119.625L91.9199 124.923C93.5287 121.654 95.6061 119.492 98.1653 118.01L92.1528 107.625L86.1404 97.2399C79.1996 101.258 73.9437 107.096 70.3857 114.327L81.1528 119.625ZM92.1528 107.625L98.1653 118.01C100.733 116.523 104.27 115.5 109.278 115.5V103.5V91.5C100.952 91.5 93.0726 93.2265 86.1404 97.2399L92.1528 107.625ZM109.278 103.5V115.5C113.604 115.5 116.859 116.445 119.436 117.963L125.528 107.625L131.62 97.2865C124.863 93.3049 117.285 91.5 109.278 91.5V103.5ZM125.528 107.625L119.515 118.01C122.11 119.512 124.258 121.72 125.954 125.059L136.653 119.625L147.352 114.191C143.714 107.03 138.446 101.238 131.54 97.2399L125.528 107.625ZM136.653 119.625L126.06 125.263C127.653 128.257 128.778 132.569 128.778 138.75H140.778H152.778C152.778 129.764 151.153 121.327 147.246 113.987L136.653 119.625ZM97.6528 138.75H85.6528C85.6528 143.843 86.0699 148.653 87.1178 152.961L98.7778 150.125L110.438 147.289C109.986 145.43 109.653 142.657 109.653 138.75H97.6528ZM98.7778 150.125L87.2156 153.337C88.4318 157.715 90.5569 162.179 94.2628 165.7L102.528 157L110.793 148.3C111.165 148.654 110.791 148.535 110.34 146.913L98.7778 150.125ZM102.528 157L94.7183 166.111C98.9791 169.763 104.097 171.25 109.153 171.25V159.25V147.25C108.947 147.25 109.053 147.222 109.356 147.325C109.682 147.436 110.037 147.631 110.337 147.889L102.528 157ZM109.153 159.25V171.25C114.137 171.25 119.552 169.836 123.906 165.711L115.653 157L107.4 148.289C107.911 147.805 108.47 147.502 108.915 147.348C109.317 147.208 109.45 147.25 109.153 147.25V159.25ZM115.653 157L123.918 165.7C127.716 162.092 129.802 157.505 130.92 153.035L119.278 150.125L107.636 147.215C107.253 148.745 106.923 148.741 107.388 148.3L115.653 157ZM119.278 150.125L130.938 152.961C131.986 148.653 132.403 143.843 132.403 138.75H120.403H108.403C108.403 142.657 108.07 145.43 107.618 147.289L119.278 150.125ZM120.403 138.75H132.403C132.403 133.671 131.988 128.865 130.92 124.59L119.278 127.5L107.636 130.41C108.067 132.135 108.403 134.829 108.403 138.75H120.403ZM119.278 127.5L130.92 124.59C129.769 119.987 127.526 115.229 123.337 111.639L115.528 120.75L107.718 129.861C107.393 129.583 107.274 129.366 107.288 129.39C107.313 129.435 107.466 129.732 107.636 130.41L119.278 127.5ZM115.528 120.75L123.555 111.83C119.281 107.984 114.066 106.5 109.028 106.5V118.5V130.5C109.239 130.5 109.094 130.529 108.728 130.402C108.33 130.265 107.886 130.017 107.5 129.67L115.528 120.75ZM109.028 118.5V106.5C105.298 106.5 101.359 107.291 97.713 109.427C94.0244 111.587 91.3691 114.695 89.5973 118.154L100.278 123.625L110.958 129.096C110.963 129.087 110.886 129.238 110.682 129.462C110.47 129.694 110.185 129.935 109.843 130.136C109.113 130.563 108.674 130.5 109.028 130.5V118.5ZM100.278 123.625L89.6531 118.047C86.5407 123.975 85.6528 131.371 85.6528 138.75H97.6528H109.653C109.653 132.629 110.515 129.941 110.903 129.203L100.278 123.625ZM193.383 106L187.43 116.419L187.492 116.455L187.556 116.49L193.383 106ZM200.758 113.5L190.355 119.482L193.816 125.5H200.758V113.5ZM201.258 113.5V125.5H211.376L213.086 115.528L201.258 113.5ZM202.758 104.75V92.75H192.64L190.931 102.722L202.758 104.75ZM219.883 104.75H231.883V92.75H219.883V104.75ZM216.133 189.5L205.69 183.589L205.648 183.664L205.606 183.74L216.133 189.5ZM205.133 199.5L200.14 188.588L200.064 188.623L199.988 188.659L205.133 199.5ZM173.258 202.125L171.491 213.994L171.509 213.997L171.527 213.999L173.258 202.125ZM161.883 199H149.883V207.056L157.34 210.107L161.883 199ZM161.883 184.125L166.693 173.131L149.883 165.777V184.125H161.883ZM169.633 187L173.317 175.579L173.2 175.542L173.081 175.506L169.633 187ZM177.508 188.75L179.306 176.885L179.152 176.862L178.997 176.843L177.508 188.75ZM196.508 185.5L187.459 177.619L187.386 177.703L187.314 177.789L196.508 185.5ZM200.008 168.125L188.082 166.8L188.045 167.129L188.027 167.459L200.008 168.125ZM200.508 164.125L212.388 165.822L214.344 152.125H200.508V164.125ZM199.883 164.125V152.125H192.543L189.2 158.659L199.883 164.125ZM192.758 171.875L187.033 161.329L186.969 161.364L186.904 161.4L192.758 171.875ZM164.883 165L154.96 171.748L155.012 171.824L155.065 171.899L164.883 165ZM161.508 119.875L172.722 124.147L172.733 124.118L172.744 124.088L161.508 119.875ZM169.883 107.75L177.189 117.27L177.205 117.258L177.221 117.245L169.883 107.75ZM183.633 121L191.886 129.711L192.004 129.6L192.119 129.485L183.633 121ZM180.008 127.875L168.424 124.744L168.394 124.854L168.367 124.965L180.008 127.875ZM181.508 154.625L170.828 160.096L170.908 160.253L170.994 160.408L181.508 154.625ZM195.008 158.75L199.577 169.846L199.731 169.783L199.882 169.716L195.008 158.75ZM198.633 155.625L208.708 162.144L208.792 162.014L208.873 161.882L198.633 155.625ZM200.633 149.875L188.9 147.361L188.856 147.562L188.82 147.766L200.633 149.875ZM200.258 127.25L211.9 124.34L211.9 124.34L200.258 127.25ZM196.508 120.75L188.737 129.893L188.981 130.101L189.236 130.295L196.508 120.75ZM182.633 103.5V115.5C185.339 115.5 186.747 116.029 187.43 116.419L193.383 106L199.337 95.5811C194.187 92.638 188.427 91.5 182.633 91.5V103.5ZM193.383 106L187.556 116.49C188.427 116.974 189.392 117.805 190.355 119.482L200.758 113.5L211.161 107.518C208.292 102.528 204.34 98.3594 199.211 95.5101L193.383 106ZM200.758 113.5V125.5H201.258V113.5V101.5H200.758V113.5ZM201.258 113.5L213.086 115.528L214.586 106.778L202.758 104.75L190.931 102.722L189.431 111.472L201.258 113.5ZM202.758 104.75V116.75H219.883V104.75V92.75H202.758V104.75ZM219.883 104.75H207.883V173.125H219.883H231.883V104.75H219.883ZM219.883 173.125H207.883C207.883 178.122 206.922 181.413 205.69 183.589L216.133 189.5L226.576 195.411C230.345 188.754 231.883 181.128 231.883 173.125H219.883ZM216.133 189.5L205.606 183.74C204.525 185.716 202.89 187.33 200.14 188.588L205.133 199.5L210.127 210.412C217.21 207.17 222.908 202.117 226.66 195.26L216.133 189.5ZM205.133 199.5L199.988 188.659C197.168 189.998 192.862 191 186.508 191V203V215C195.154 215 203.266 213.669 210.278 210.341L205.133 199.5ZM186.508 203V191C182.146 191 178.319 190.736 174.99 190.251L173.258 202.125L171.527 213.999C176.198 214.681 181.204 215 186.508 215V203ZM173.258 202.125L175.026 190.256C172.062 189.815 169.203 189.029 166.427 187.893L161.883 199L157.34 210.107C161.897 211.971 166.621 213.269 171.491 213.994L173.258 202.125ZM161.883 199H173.883V184.125H161.883H149.883V199H161.883ZM161.883 184.125L157.073 195.119C160.134 196.458 163.172 197.59 166.185 198.494L169.633 187L173.081 175.506C171.094 174.91 168.966 174.126 166.693 173.131L161.883 184.125ZM169.633 187L165.949 198.421C169.24 199.482 172.6 200.23 176.02 200.657L177.508 188.75L178.997 176.843C177.083 176.603 175.193 176.185 173.317 175.579L169.633 187ZM177.508 188.75L175.711 200.615C179.131 201.133 182.696 201.375 186.383 201.375V189.375V177.375C183.738 177.375 181.386 177.201 179.306 176.885L177.508 188.75ZM186.383 189.375V201.375C193.168 201.375 200.513 199.399 205.703 193.211L196.508 185.5L187.314 177.789C187.45 177.626 187.613 177.478 187.78 177.361C187.944 177.247 188.054 177.202 188.063 177.199C188.066 177.198 187.949 177.243 187.672 177.288C187.392 177.333 186.971 177.375 186.383 177.375V189.375ZM196.508 185.5L205.557 193.381C210.473 187.737 211.883 180.516 211.883 173.875H199.883H187.883C187.883 175.626 187.688 176.715 187.515 177.311C187.353 177.869 187.254 177.854 187.459 177.619L196.508 185.5ZM199.883 173.875H211.883V172.5H199.883H187.883V173.875H199.883ZM199.883 172.5H211.883C211.883 171.318 211.918 170.082 211.99 168.791L200.008 168.125L188.027 167.459C187.932 169.168 187.883 170.848 187.883 172.5H199.883ZM200.008 168.125L211.935 169.45C212.091 168.042 212.243 166.836 212.388 165.822L200.508 164.125L188.629 162.428C188.44 163.747 188.259 165.208 188.082 166.8L200.008 168.125ZM200.508 164.125V152.125H199.883V164.125V176.125H200.508V164.125ZM199.883 164.125L189.2 158.659C188.231 160.553 187.406 161.127 187.033 161.329L192.758 171.875L198.483 182.421C203.944 179.457 207.869 174.864 210.566 169.591L199.883 164.125ZM192.758 171.875L186.904 161.4C186.298 161.739 184.943 162.25 182.258 162.25V174.25V186.25C187.906 186.25 193.552 185.178 198.612 182.35L192.758 171.875ZM182.258 174.25V162.25C179.096 162.25 176.894 161.22 174.702 158.101L164.883 165L155.065 171.899C161.54 181.113 170.92 186.25 182.258 186.25V174.25ZM164.883 165L174.806 158.252C172.405 154.721 170.508 148.741 170.508 139H158.508H146.508C146.508 151.425 148.862 162.779 154.96 171.748L164.883 165ZM158.508 139H170.508C170.508 132.5 171.384 127.66 172.722 124.147L161.508 119.875L150.294 115.603C147.633 122.59 146.508 130.5 146.508 139H158.508ZM161.508 119.875L172.744 124.088C174.16 120.312 175.797 118.338 177.189 117.27L169.883 107.75L162.577 98.2303C156.803 102.662 152.856 108.771 150.272 115.662L161.508 119.875ZM169.883 107.75L177.221 117.245C178.691 116.109 180.333 115.5 182.633 115.5V103.5V91.5C175.267 91.5 168.409 93.7239 162.546 98.2546L169.883 107.75ZM189.633 118.625V106.625C184.313 106.625 179.171 108.491 175.148 112.515L183.633 121L192.119 129.485C191.799 129.804 191.325 130.144 190.737 130.376C190.168 130.602 189.751 130.625 189.633 130.625V118.625ZM183.633 121L175.38 112.289C171.616 115.855 169.582 120.459 168.424 124.744L180.008 127.875L191.593 131.006C191.829 130.13 192.046 129.646 192.154 129.441C192.259 129.243 192.206 129.408 191.886 129.711L183.633 121ZM180.008 127.875L168.367 124.965C167.294 129.254 166.883 134.108 166.883 139.25H178.883H190.883C190.883 135.225 191.222 132.496 191.65 130.785L180.008 127.875ZM178.883 139.25H166.883C166.883 146.719 167.775 154.135 170.828 160.096L181.508 154.625L192.189 149.154C191.742 148.282 190.883 145.448 190.883 139.25H178.883ZM181.508 154.625L170.994 160.408C172.761 163.621 175.309 166.579 178.826 168.678C182.351 170.783 186.18 171.625 189.883 171.625V159.625V147.625C189.837 147.625 190.395 147.633 191.128 148.072C191.853 148.504 192.089 148.962 192.023 148.842L181.508 154.625ZM189.883 159.625V171.625C192.995 171.625 196.342 171.178 199.577 169.846L195.008 158.75L190.439 147.654C190.65 147.567 190.737 147.562 190.645 147.577C190.55 147.594 190.307 147.625 189.883 147.625V159.625ZM195.008 158.75L199.882 169.716C203.573 168.075 206.564 165.458 208.708 162.144L198.633 155.625L188.558 149.106C188.685 148.911 188.895 148.647 189.204 148.38C189.516 148.111 189.842 147.914 190.135 147.784L195.008 158.75ZM198.633 155.625L208.873 161.882C210.786 158.751 211.853 155.306 212.446 151.984L200.633 149.875L188.82 147.766C188.58 149.111 188.314 149.499 188.394 149.368L198.633 155.625ZM200.633 149.875L212.367 152.389C213.098 148.977 213.383 145.248 213.383 141.375H201.383H189.383C189.383 144.169 189.168 146.107 188.9 147.361L200.633 149.875ZM201.383 141.375H213.383V139.125H201.383H189.383V141.375H201.383ZM201.383 139.125H213.383C213.383 133.731 212.985 128.68 211.9 124.34L200.258 127.25L188.617 130.16C189.032 131.82 189.383 134.686 189.383 139.125H201.383ZM200.258 127.25L211.9 124.34C210.752 119.749 208.427 114.745 203.781 111.205L196.508 120.75L189.236 130.295C188.97 130.093 188.765 129.889 188.616 129.716C188.469 129.545 188.391 129.419 188.364 129.372C188.319 129.293 188.451 129.498 188.617 130.16L200.258 127.25ZM196.508 120.75L204.28 111.607C199.811 107.808 194.44 106.625 189.633 106.625V118.625V130.625C190.14 130.625 190.214 130.689 189.996 130.621C189.741 130.542 189.256 130.335 188.737 129.893L196.508 120.75Z" fill="var(--pageColor)" mask="url(#path-2-outside-1_32_498)"/>
<path d="M56.1655 173H36.1655V78H56.1655V173ZM140.778 138.75C140.778 144.417 140.028 149.458 138.528 153.875C137.111 158.292 135.028 162.042 132.278 165.125C129.528 168.125 126.153 170.417 122.153 172C118.236 173.5 113.819 174.25 108.903 174.25C104.319 174.25 100.069 173.5 96.1528 172C92.2362 170.417 88.8612 168.125 86.0278 165.125C83.2778 162.042 81.1112 158.292 79.5278 153.875C78.0278 149.458 77.2778 144.417 77.2778 138.75C77.2778 131.167 78.5695 124.792 81.1528 119.625C83.7362 114.375 87.4028 110.375 92.1528 107.625C96.9028 104.875 102.611 103.5 109.278 103.5C115.445 103.5 120.861 104.875 125.528 107.625C130.278 110.375 133.986 114.375 136.653 119.625C139.403 124.792 140.778 131.167 140.778 138.75ZM97.6528 138.75C97.6528 143.25 98.0278 147.042 98.7778 150.125C99.6112 153.125 100.861 155.417 102.528 157C104.278 158.5 106.486 159.25 109.153 159.25C111.903 159.25 114.07 158.5 115.653 157C117.32 155.417 118.528 153.125 119.278 150.125C120.028 147.042 120.403 143.25 120.403 138.75C120.403 134.25 120.028 130.5 119.278 127.5C118.528 124.5 117.278 122.25 115.528 120.75C113.861 119.25 111.695 118.5 109.028 118.5C104.944 118.5 102.028 120.208 100.278 123.625C98.5278 126.958 97.6528 132 97.6528 138.75ZM182.633 103.5C186.883 103.5 190.467 104.333 193.383 106C196.383 107.667 198.842 110.167 200.758 113.5H201.258L202.758 104.75H219.883V173.125C219.883 179.625 218.633 185.083 216.133 189.5C213.717 193.917 210.05 197.25 205.133 199.5C200.217 201.833 194.008 203 186.508 203C181.675 203 177.258 202.708 173.258 202.125C169.342 201.542 165.55 200.5 161.883 199V184.125C164.55 185.292 167.133 186.25 169.633 187C172.217 187.833 174.842 188.417 177.508 188.75C180.258 189.167 183.217 189.375 186.383 189.375C190.967 189.375 194.342 188.083 196.508 185.5C198.758 182.917 199.883 179.042 199.883 173.875V172.5C199.883 171.083 199.925 169.625 200.008 168.125C200.175 166.625 200.342 165.292 200.508 164.125H199.883C198.05 167.708 195.675 170.292 192.758 171.875C189.925 173.458 186.425 174.25 182.258 174.25C175.008 174.25 169.217 171.167 164.883 165C160.633 158.75 158.508 150.083 158.508 139C158.508 131.5 159.508 125.125 161.508 119.875C163.508 114.542 166.3 110.5 169.883 107.75C173.55 104.917 177.8 103.5 182.633 103.5ZM189.633 118.625C187.217 118.625 185.217 119.417 183.633 121C182.05 122.5 180.842 124.792 180.008 127.875C179.258 130.875 178.883 134.667 178.883 139.25C178.883 146.083 179.758 151.208 181.508 154.625C183.342 157.958 186.133 159.625 189.883 159.625C191.883 159.625 193.592 159.333 195.008 158.75C196.508 158.083 197.717 157.042 198.633 155.625C199.55 154.125 200.217 152.208 200.633 149.875C201.133 147.542 201.383 144.708 201.383 141.375V139.125C201.383 134.208 201.008 130.25 200.258 127.25C199.508 124.25 198.258 122.083 196.508 120.75C194.842 119.333 192.55 118.625 189.633 118.625Z" fill="var(--darkGray)"/>
</g>
</svg>
