<svg width="40" height="40" viewBox="0 0 45 45" fill="none" xmlns="http://www.w3.org/2000/svg"> <g filter="url(#filter0_d_257_10)"> <path d="M36 19V27C36 29.2091 34.2091 31 32 31L12 31C9.79086 31 8 29.2091 8 27V19C8 16.7909 9.79086 15 12 15L32 15C34.2091 15 36 16.7909 36 19Z" fill="white" stroke="white" stroke-width="2"/> <path d="M36 19V27C36 29.2091 34.2091 31 32 31L12 31C9.79086 31 8 29.2091 8 27V19C8 16.7909 9.79086 15 12 15L32 15C34.2091 15 36 16.7909 36 19Z" fill="MEMBER_COLOR_REPLACE" stroke="white" stroke-width="2"/> <rect x="20.5557" y="16" width="2.88889" height="14" fill="white"/> </g> <defs> <filter id="filter0_d_257_10" x="3" y="10" width="38" height="26" filterUnits="userSpaceOnUse" color-interpolation-filters="sRGB"> <feFlood flood-opacity="0" result="BackgroundImageFix"/> <feColorMatrix in="SourceAlpha" type="matrix" values="0 0 0 0 0 0 0 0 0 0 0 0 0 0 0 0 0 0 127 0" result="hardAlpha"/> <feOffset/> <feGaussianBlur stdDeviation="2"/> <feComposite in2="hardAlpha" operator="out"/> <feColorMatrix type="matrix" values="0 0 0 0 0 0 0 0 0 0 0 0 0 0 0 0 0 0 0.25 0"/> <feBlend mode="normal" in2="BackgroundImageFix" result="effect1_dropShadow_257_10"/> <feBlend mode="normal" in="SourceGraphic" in2="effect1_dropShadow_257_10" result="shape"/> </filter> </defs> </svg>