<svg width="40" height="40" viewBox="0 0 45 45" fill="none" xmlns="http://www.w3.org/2000/svg"> <g filter="url(#filter0_d_254_26)"> <path d="M16.3781 22.4071L15.4384 22.0651L15.0964 23.0048L12.0871 31.2728C11.3315 33.3487 12.4019 35.644 14.4778 36.3996L19.1875 38.1138C21.2634 38.8694 23.5588 37.799 24.3144 35.7231L27.3237 27.4551L27.6657 26.5155L26.726 26.1734L16.3781 22.4071Z" toolcoloropacity stroke="white" stroke-width="2"/> <path d="M24.3631 32.6623L25.3028 33.0044L25.6448 32.0647L31.8824 14.927C32.6379 12.8511 31.5676 10.5557 29.4917 9.80018L24.7819 8.08596C22.706 7.33039 20.4106 8.40074 19.655 10.4767L13.4175 27.6143L13.0754 28.554L14.0151 28.896L24.3631 32.6623Z" fill="MEMBER_COLOR_REPLACE" stroke="white" stroke-width="2"/> </g> <defs> <filter id="filter0_d_254_26" x="6.84473" y="2.84375" width="30.2803" height="40.5127" filterUnits="userSpaceOnUse" color-interpolation-filters="sRGB"> <feFlood flood-opacity="0" result="BackgroundImageFix"/> <feColorMatrix in="SourceAlpha" type="matrix" values="0 0 0 0 0 0 0 0 0 0 0 0 0 0 0 0 0 0 127 0" result="hardAlpha"/> <feOffset/> <feGaussianBlur stdDeviation="2"/> <feComposite in2="hardAlpha" operator="out"/> <feColorMatrix type="matrix" values="0 0 0 0 0 0 0 0 0 0 0 0 0 0 0 0 0 0 0.25 0"/> <feBlend mode="normal" in2="BackgroundImageFix" result="effect1_dropShadow_254_26"/> <feBlend mode="normal" in="SourceGraphic" in2="effect1_dropShadow_254_26" result="shape"/> </filter> </defs> </svg>