<svg width="40" height="40" viewBox="0 0 45 45" fill="none" xmlns="http://www.w3.org/2000/svg"> <g filter="url(#filter0_d_257_2)"> <path d="M18.6315 19.2186L17.6918 18.8766L17.3498 19.8163L14.5155 27.6032C13.5713 30.1976 13.87 33.0818 15.3259 35.4275L15.6683 35.9791C16.1549 36.7631 17.1147 37.1125 17.9914 36.8247L18.6082 36.6222C21.2313 35.7611 23.3141 33.7437 24.2584 31.1493L27.0926 23.3624L27.4346 22.4227L26.4949 22.0807L18.6315 19.2186Z" toolcoloropacity stroke="white" stroke-width="2"/> <path d="M23.5076 30.2844L24.4473 30.6264L24.7893 29.6867L30.0855 15.1356C31.0647 12.4452 29.6775 9.47036 26.9871 8.49113C24.2967 7.51191 21.3219 8.89909 20.3427 11.5895L15.0465 26.1406L14.7045 27.0803L15.6441 27.4224L23.5076 30.2844Z" fill="MEMBER_COLOR_REPLACE" stroke="white" stroke-width="2"/> </g> <defs> <filter id="filter0_d_257_2" x="8.97266" y="3.17676" width="26.4268" height="38.748" filterUnits="userSpaceOnUse" color-interpolation-filters="sRGB"> <feFlood flood-opacity="0" result="BackgroundImageFix"/> <feColorMatrix in="SourceAlpha" type="matrix" values="0 0 0 0 0 0 0 0 0 0 0 0 0 0 0 0 0 0 127 0" result="hardAlpha"/> <feOffset/> <feGaussianBlur stdDeviation="2"/> <feComposite in2="hardAlpha" operator="out"/> <feColorMatrix type="matrix" values="0 0 0 0 0 0 0 0 0 0 0 0 0 0 0 0 0 0 0.25 0"/> <feBlend mode="normal" in2="BackgroundImageFix" result="effect1_dropShadow_257_2"/> <feBlend mode="normal" in="SourceGraphic" in2="effect1_dropShadow_257_2" result="shape"/> </filter> </defs> </svg>