<svg viewBox="0 0 256 256" fill="none" xmlns="http://www.w3.org/2000/svg">
<mask id="mask0_1292_32" style="mask-type:alpha" maskUnits="userSpaceOnUse" x="0" y="0" width="256" height="256">
<rect width="256" height="256" fill="#C4C4C4"/>
</mask>
<g mask="url(#mask0_1292_32)">
<circle cx="128" cy="128" r="92" stroke="#20BA6C" stroke-width="16"/>
<path d="M106.009 104.392L109.793 107.66L106.009 104.392ZM139.499 65.5987L143.284 68.8661L139.499 65.5987ZM96.427 133.881L101.409 133.463L101.409 133.463L96.427 133.881ZM100.719 184.951L95.7369 185.37L95.7369 185.37L100.719 184.951ZM116.5 190.079L112.715 186.812L112.715 186.812L116.5 190.079ZM149.991 151.285L146.206 148.018L146.206 148.018L149.991 151.285ZM159.573 121.796L154.59 122.215L154.59 122.215L159.573 121.796ZM155.28 70.7263L160.263 70.3075L160.263 70.3075L155.28 70.7263ZM109.793 107.66L143.284 68.8661L135.715 62.3314L102.224 101.125L109.793 107.66ZM101.409 133.463C100.621 124.084 103.643 114.784 109.793 107.66L102.224 101.125C94.3165 110.284 90.4311 122.242 91.4446 134.3L101.409 133.463ZM105.702 184.533L101.409 133.463L91.4446 134.3L95.7369 185.37L105.702 184.533ZM112.715 186.812C110.4 189.494 105.998 188.063 105.702 184.533L95.7369 185.37C96.7755 197.728 112.181 202.733 120.285 193.346L112.715 186.812ZM146.206 148.018L112.715 186.812L120.285 193.346L153.776 154.553L146.206 148.018ZM154.59 122.215C155.378 131.593 152.356 140.894 146.206 148.018L153.776 154.553C161.683 145.393 165.568 133.435 164.555 121.378L154.59 122.215ZM150.298 71.145L154.59 122.215L164.555 121.378L160.263 70.3075L150.298 71.145ZM143.284 68.8661C145.599 66.1842 150.001 67.6143 150.298 71.145L160.263 70.3075C159.224 57.95 143.818 52.9444 135.715 62.3314L143.284 68.8661ZM132.16 129.507C131.443 131.712 129.075 132.918 126.87 132.202L123.78 141.712C131.238 144.136 139.247 140.054 141.67 132.597L132.16 129.507ZM129.465 124.217C131.67 124.934 132.876 127.302 132.16 129.507L141.67 132.597C144.094 125.139 140.012 117.13 132.555 114.707L129.465 124.217ZM124.175 126.912C124.892 124.707 127.26 123.501 129.465 124.217L132.555 114.707C125.097 112.284 117.088 116.365 114.665 123.822L124.175 126.912ZM126.87 132.202C124.665 131.485 123.459 129.117 124.175 126.912L114.665 123.822C112.241 131.28 116.323 139.289 123.78 141.712L126.87 132.202Z" fill="#20BA6C"/>
</g>
</svg>
