<svg viewBox="0 0 256 256" fill="none" xmlns="http://www.w3.org/2000/svg">
<mask id="mask0_1288_2" style="mask-type:alpha" maskUnits="userSpaceOnUse" x="0" y="0" width="256" height="256">
<rect width="256" height="256" fill="#C4C4C4"/>
</mask>
<g mask="url(#mask0_1288_2)">
<path d="M94 86L95.2026 84.78C98.3358 81.6013 103.464 81.6013 106.597 84.78L107.8 86L109.003 87.22C112.136 90.3987 117.264 90.3987 120.397 87.22L121.6 86L122.803 84.78C125.936 81.6013 131.064 81.6013 134.197 84.78L136.603 87.22C139.736 90.3987 144.864 90.3987 147.997 87.22L150.403 84.78C153.536 81.6013 158.664 81.6013 161.797 84.78L163 86" stroke="#FFAF3F" stroke-width="4" stroke-linecap="round"/>
<path d="M102.125 173L75.0731 112.351C65.3749 90.608 69.9609 65.1459 86.6357 48.1531V48.1531C109.353 25.0025 146.647 25.0025 169.364 48.1531V48.1531C186.039 65.1459 190.625 90.608 180.927 112.351L153.875 173" stroke="#FFAF3F" stroke-width="12"/>
<path d="M153 169H103C97.4772 169 93 173.477 93 179V207C93 216.941 101.059 225 111 225H145C154.941 225 163 216.941 163 207V179C163 173.477 158.523 169 153 169Z" stroke="#FFAF3F" stroke-width="12"/>
<rect x="99" y="183" width="58" height="8" fill="#FFAF3F"/>
<rect x="99" y="184" width="58" height="9" fill="#FFAF3F"/>
<path d="M96.9157 85.2937C96.5256 83.6834 94.904 82.6943 93.2937 83.0843C91.6834 83.4744 90.6943 85.096 91.0843 86.7063L96.9157 85.2937ZM116.416 165.794L96.9157 85.2937L91.0843 86.7063L110.584 167.206L116.416 165.794Z" fill="#FFAF3F"/>
<rect x="99" y="201" width="58" height="9" fill="#FFAF3F"/>
<path d="M160.084 85.2937C160.474 83.6834 162.096 82.6943 163.706 83.0843C165.317 83.4744 166.306 85.096 165.916 86.7063L160.084 85.2937ZM140.584 165.794L160.084 85.2937L165.916 86.7063L146.416 167.206L140.584 165.794Z" fill="#FFAF3F"/>
</g>
</svg>
