<svg viewBox="0 0 256 256" fill="none" xmlns="http://www.w3.org/2000/svg">
<mask id="mask0_1293_66" style="mask-type:alpha" maskUnits="userSpaceOnUse" x="0" y="0" width="256" height="256">
<rect width="256" height="256" fill="#C4C4C4"/>
</mask>
<g mask="url(#mask0_1293_66)">
<path d="M112.4 50.3108L41.0807 192.95C35.0966 204.918 43.7994 219 57.1803 219H199.82C213.201 219 221.903 204.918 215.919 192.95L144.6 50.3109C137.966 37.044 119.034 37.0439 112.4 50.3108Z" stroke="#FF3D64" stroke-width="16"/>
<path d="M118.576 157.125L113.951 101.5H142.201L137.451 157.125H118.576ZM128.076 190.125C123.91 190.125 120.493 188.833 117.826 186.25C115.16 183.667 113.826 180.583 113.826 177C113.826 173.333 115.16 170.292 117.826 167.875C120.493 165.375 123.91 164.125 128.076 164.125C132.243 164.125 135.618 165.375 138.201 167.875C140.868 170.292 142.201 173.333 142.201 177C142.201 180.583 140.868 183.667 138.201 186.25C135.618 188.833 132.243 190.125 128.076 190.125Z" fill="#FF3D64"/>
</g>
</svg>
