<svg viewBox="0 0 256 256" fill="none" xmlns="http://www.w3.org/2000/svg">
<mask id="mask0_72_452" style="mask-type:alpha" maskUnits="userSpaceOnUse" x="0" y="0" width="256" height="256">
<rect width="256" height="256" fill="var(--gray)"/>
</mask>
<g mask="url(#mask0_72_452)">
<path d="M127.8 55C134.987 55 141.629 56.8127 147.567 60.5039C153.344 64.0946 157.97 68.8822 161.393 74.7939C164.892 80.8385 166.6 87.5545 166.6 94.7998C166.6 102.045 164.892 108.762 161.393 114.807C157.97 120.718 153.344 125.505 147.567 129.096L147.518 129.127L147.467 129.157C141.542 132.68 134.936 134.4 127.8 134.4C120.772 134.4 114.197 132.668 108.193 129.192L108.112 129.146L108.032 129.096C102.256 125.505 97.6296 120.718 94.207 114.807C90.7075 108.762 89 102.045 89 94.7998C89 87.5546 90.7077 80.8384 94.207 74.7939C97.6296 68.8822 102.256 64.0946 108.032 60.5039L108.093 60.4668C114.109 56.8252 120.72 55 127.8 55ZM127.8 85.4004C126.176 85.4004 124.627 85.9896 122.941 87.9219L122.668 88.251C121.343 89.926 120.6 92.0035 120.6 94.7998C120.6 97.568 121.398 99.6665 122.895 101.423C124.532 103.2 126.091 103.8 127.8 103.8C129.013 103.8 130.056 103.485 131.072 102.808C132.169 102.076 133.1 101.071 133.859 99.6611C134.627 98.1062 135 96.5089 135 94.7998C135 91.9019 134.143 89.7765 132.561 88.0361L132.465 87.9307L132.374 87.8213C130.845 85.9705 129.408 85.4004 127.8 85.4004Z" fill="var(--pageColor)" stroke="var(--pageColor)" stroke-width="12"/>
<path d="M95 94.8C95 88.5333 96.4667 82.8667 99.4 77.8C102.333 72.7333 106.267 68.6667 111.2 65.6C116.267 62.5333 121.8 61 127.8 61C133.933 61 139.467 62.5333 144.4 65.6C149.333 68.6667 153.267 72.7333 156.2 77.8C159.133 82.8667 160.6 88.5333 160.6 94.8C160.6 101.067 159.133 106.733 156.2 111.8C153.267 116.867 149.333 120.933 144.4 124C139.467 126.933 133.933 128.4 127.8 128.4C121.8 128.4 116.267 126.933 111.2 124C106.267 120.933 102.333 116.867 99.4 111.8C96.4667 106.733 95 101.067 95 94.8ZM114.6 94.8C114.6 98.9333 115.867 102.467 118.4 105.4C121.067 108.333 124.2 109.8 127.8 109.8C130.2 109.8 132.4 109.133 134.4 107.8C136.4 106.467 138 104.667 139.2 102.4C140.4 100 141 97.4667 141 94.8C141 90.5333 139.667 86.9333 137 84C134.467 80.9333 131.4 79.4 127.8 79.4C124.2 79.4 121.067 80.9333 118.4 84C115.867 86.9333 114.6 90.5333 114.6 94.8Z" fill="var(--darkGray)"/>
</g>
</svg>
