<svg viewBox="0 0 256 256" fill="none" xmlns="http://www.w3.org/2000/svg">
<mask id="mask0_72_569" style="mask-type:alpha" maskUnits="userSpaceOnUse" x="0" y="0" width="256" height="256">
<rect width="256" height="256" fill="var(--gray)"/>
</mask>
<g mask="url(#mask0_72_569)">
<path d="M167.9 156.6C176.792 156.6 184 163.809 184 172.7C184 181.592 176.792 188.8 167.9 188.8H88.0996C79.3468 188.8 72.2251 181.815 72.0049 173.115L72 172.7L72.0049 172.284C72.2254 163.585 79.347 156.6 88.0996 156.6H167.9ZM167.9 111.8C176.792 111.8 184 119.009 184 127.9C184 136.792 176.792 144 167.9 144H88.0996C79.3469 144 72.2252 137.015 72.0049 128.315L72 127.9L72.0049 127.484C72.2253 118.785 79.347 111.8 88.0996 111.8H167.9ZM167.9 67C176.792 67.0002 184 74.2081 184 83.0996C184 91.9913 176.792 99.2 167.9 99.2002H88.0996C79.208 99.2 72 91.9913 72 83.0996C72.0002 74.2081 79.2081 67.0002 88.0996 67H167.9Z" fill="var(--pageColor)" stroke="var(--pageColor)" stroke-width="18"/>
<path d="M167.9 162.6C173.478 162.6 178 167.122 178 172.7C178 178.278 173.478 182.8 167.9 182.8H88.0996C82.5218 182.8 78.0001 178.278 78 172.7C78 167.122 82.5217 162.6 88.0996 162.6H167.9ZM167.9 117.8C173.478 117.8 178 122.322 178 127.9C178 133.478 173.478 138 167.9 138H88.0996C82.5218 138 78.0002 133.478 78 127.9C78 122.322 82.5217 117.8 88.0996 117.8H167.9ZM167.9 73C173.478 73.0002 178 77.5218 178 83.0996C178 88.6776 173.478 93.2 167.9 93.2002H88.0996C82.5217 93.2 78 88.6776 78 83.0996C78.0002 77.5218 82.5218 73.0002 88.0996 73H167.9Z" fill="var(--darkGray)" stroke="var(--darkGray)" stroke-width="6"/>
</g>
</svg>
