<svg viewBox="0 0 256 256" fill="none" xmlns="http://www.w3.org/2000/svg">
<mask id="mask0_3927_18" style="mask-type:alpha" maskUnits="userSpaceOnUse" x="0" y="0" width="256" height="256">
<rect width="256" height="256" fill="var(--gray)"/>
</mask>
<g mask="url(#mask0_3927_18)">
<path d="M82 33C93.598 33 103 42.402 103 54V82C103 93.598 93.598 103 82 103H44C32.402 103 23 93.598 23 82V54L23.0068 53.458C23.2943 42.1105 32.5832 33 44 33H82Z" stroke="var(--theme)" stroke-width="30"/>
<path d="M212 33C223.598 33 233 42.402 233 54V82C233 93.598 223.598 103 212 103H174C162.402 103 153 93.598 153 82V54L153.007 53.458C153.294 42.1105 162.583 33 174 33H212Z" stroke="var(--theme)" stroke-width="30"/>
<path d="M82 153C93.598 153 103 162.402 103 174V202C103 213.598 93.598 223 82 223H44C32.402 223 23 213.598 23 202V174L23.0068 173.458C23.2943 162.111 32.5832 153 44 153H82Z" stroke="var(--theme)" stroke-width="30"/>
<path d="M212 153C223.598 153 233 162.402 233 174V202C233 213.598 223.598 223 212 223H174C162.402 223 153 213.598 153 202V174L153.007 173.458C153.294 162.111 162.583 153 174 153H212Z" stroke="var(--theme)" stroke-width="30"/>
</g>
</svg>
