<svg  viewBox="0 0 256 256" fill="none" xmlns="http://www.w3.org/2000/svg">
<mask id="mask0_4820_4" style="mask-type:alpha" maskUnits="userSpaceOnUse" x="0" y="0" width="256" height="256">
<rect width="256" height="256" fill="var(--gray)"/>
</mask>
<g mask="url(#mask0_4820_4)">
<path d="M112.999 10C118.522 10 122.999 14.4772 122.999 20V27H116.574C106.846 27.0003 98.2994 33.4094 95.5537 42.7061L95.4277 43.1514L91.6143 57.1338C89.128 58.4202 86.7196 59.8338 84.3984 61.3672L70.3027 57.6582C60.7456 55.1431 50.6861 59.3339 45.7432 67.8936L45.7422 67.8945L34.9365 86.6094C29.9937 95.1707 31.3949 105.98 38.3516 112.999L48.2627 123H19.999C14.4762 123 9.99902 118.523 9.99902 113V30C9.99902 18.9543 18.9533 10 29.999 10H112.999ZM122.999 113C122.999 118.523 118.522 123 112.999 123H103.871C105.563 113.131 113.22 105.299 122.999 103.351V113Z" fill="var(--secondary)"/>
<path d="M225.999 10C237.045 10 245.999 18.9543 245.999 30V113C245.999 118.523 241.522 123 235.999 123H206.492L216.407 112.998H216.408C223.366 105.978 224.764 95.1692 219.822 86.6094L209.018 67.8945L208.781 67.4961C203.76 59.2057 193.866 55.1812 184.457 57.6572L170.901 61.2246C168.373 59.5663 165.743 58.0486 163.021 56.6836L159.331 43.1514V43.1504L159.204 42.7061C156.458 33.4098 147.913 27.0001 138.185 27H132.999V20C132.999 14.4772 137.476 10 142.999 10H225.999ZM132.999 103.451C142.551 105.555 149.987 113.291 151.651 123H142.999C137.476 123 132.999 118.523 132.999 113V103.451Z" fill="var(--secondary)"/>
<path d="M47.2812 133L38.3506 142.012C31.3929 149.032 29.9947 159.841 34.9365 168.4L45.7412 187.115L45.9766 187.514C50.9976 195.805 60.8929 199.828 70.3018 197.353H70.3027L85.2314 193.423C87.2185 194.7 89.267 195.89 91.3721 196.988L95.4277 211.859L95.5537 212.305C98.2994 221.601 106.846 228.01 116.574 228.011H122.999V236C122.999 241.523 118.522 246 112.999 246H29.999C18.9533 246 9.99902 237.046 9.99902 226V143C9.99902 137.477 14.4762 133 19.999 133H47.2812ZM112.999 133C118.522 133 122.999 137.477 122.999 143V150.896C113.806 149.065 106.489 142.035 104.239 133H112.999Z" fill="var(--secondary)"/>
<path d="M235.999 133C241.522 133 245.999 137.477 245.999 143V226C245.999 237.046 237.045 246 225.999 246H142.999C137.476 246 132.999 241.523 132.999 236V228.011H138.185L138.647 228.006C148.337 227.803 156.771 221.246 159.331 211.859L163.263 197.44C165.6 196.258 167.869 194.963 170.063 193.563L184.456 197.353H184.457C194.016 199.868 204.076 195.675 209.018 187.115L219.822 168.4L220.049 167.997C224.719 159.503 223.257 148.922 216.408 142.012L207.478 133H235.999ZM208.714 151.409C208.789 151.507 208.862 151.605 208.933 151.705C208.862 151.605 208.789 151.507 208.714 151.409ZM208.462 151.095C208.528 151.174 208.591 151.254 208.654 151.334C208.591 151.254 208.528 151.174 208.462 151.095ZM208.173 150.762C208.261 150.858 208.346 150.957 208.43 151.057L208.173 150.762ZM151.285 133C149.074 141.879 141.969 148.82 132.999 150.796V143C132.999 137.477 137.476 133 142.999 133H151.285Z" fill="var(--secondary)"/>
<path d="M154.704 69.5191L148.374 46.3089C147.197 41.9937 143.278 39 138.805 39H117.195C112.722 39 108.803 41.9937 107.626 46.3089L101.296 69.5191H154.704Z" fill="var(--theme)"/>
<path d="M101.296 185.492L107.626 208.702C108.803 213.017 112.722 216.011 117.195 216.011H138.805C143.278 216.011 147.197 213.017 148.374 208.702L154.704 185.492H101.296Z" fill="var(--theme)"/>
<path d="M91.1345 75.3854L67.8689 69.2623C63.5433 68.1239 58.991 70.0214 56.7546 73.895L45.9496 92.6098C43.7132 96.4834 44.3461 101.375 47.4947 104.551L64.4303 121.638L91.1345 75.3854Z" fill="var(--theme)"/>
<path d="M164.866 179.624L188.131 185.747C192.457 186.886 197.009 184.988 199.245 181.115L210.05 162.4C212.287 158.526 211.654 153.635 208.505 150.458L191.57 133.371L164.866 179.624Z" fill="var(--theme)"/>
<path d="M64.4302 133.372L47.4946 150.459C44.346 153.636 43.7131 158.527 45.9495 162.401L56.7545 181.116C58.9909 184.989 63.5432 186.887 67.8688 185.748L91.1344 179.625L64.4302 133.372Z" fill="var(--theme)"/>
<path d="M191.57 121.639L208.505 104.551C211.654 101.375 212.287 96.4834 210.05 92.6098L199.246 73.8951C197.009 70.0215 192.457 68.124 188.131 69.2624L164.866 75.3855L191.57 121.639Z" fill="var(--theme)"/>
<path d="M128.382 75.623C156.825 75.6232 179.883 98.6809 179.883 127.124C179.883 155.567 156.825 178.625 128.382 178.625C99.9387 178.625 76.881 155.567 76.8809 127.124C76.8809 98.6808 99.9386 75.623 128.382 75.623Z" stroke="var(--theme)" stroke-width="30.5191"/>
</g>
</svg>
