<svg viewBox="0 0 256 256" fill="none" xmlns="http://www.w3.org/2000/svg">
<mask id="mask0_4791_2" style="mask-type:alpha" maskUnits="userSpaceOnUse" x="0" y="0" width="256" height="256">
<rect width="256" height="256" fill="var(--gray)"/>
</mask>
<g mask="url(#mask0_4791_2)">
<path d="M178.887 9.0127C199.98 9.54694 216.916 26.8138 216.916 48.0361V91.4089C216.916 98.5952 211.09 104.421 203.904 104.421C196.717 104.421 190.892 98.5952 190.892 91.4089V48.0361C190.892 40.85 185.066 35.0246 177.88 35.0244H77.0361C69.8498 35.0244 64.0244 40.8498 64.0244 48.0361V208.519C64.0247 215.705 69.8499 221.53 77.0361 221.53H177.88C185.066 221.53 190.891 215.705 190.892 208.519V165.144C190.892 157.958 196.717 152.132 203.904 152.132C211.09 152.132 216.916 157.958 216.916 165.144V208.519C216.916 229.741 199.98 247.007 178.887 247.541L177.88 247.555H77.0361L76.0283 247.541C54.9352 247.006 38.0003 229.74 38 208.519V48.0361C38 26.4771 55.4771 9 77.0361 9H177.88L178.887 9.0127Z" fill="var(--error)"/>
<path d="M257.036 128.277L98.7229 128.277" stroke="var(--error)" stroke-width="26.0241" stroke-linecap="round"/>
<path d="M154.295 71.6206L97.6383 128.277" stroke="var(--error)" stroke-width="26.0241" stroke-linecap="round"/>
<path d="M154.295 184.933L97.6383 128.276" stroke="var(--error)" stroke-width="26.0241" stroke-linecap="round"/>
</g>
</svg>
