<svg viewBox="0 0 256 256" fill="none" xmlns="http://www.w3.org/2000/svg">
<mask id="mask0_4820_11" style="mask-type:alpha" maskUnits="userSpaceOnUse" x="0" y="0" width="256" height="256">
<rect width="256" height="256" fill="var(--gray)"/>
</mask>
<g mask="url(#mask0_4820_11)">
<path d="M163 52L154.703 21.5795C153.161 15.9237 148.024 12 142.162 12H113.838C107.976 12 102.839 15.9237 101.297 21.5795L93 52H163Z" fill="var(--theme)"/>
<path d="M93 204L101.297 234.421C102.839 240.076 107.976 244 113.838 244H142.162C148.024 244 153.161 240.076 154.703 234.421L163 204H93Z" fill="var(--theme)"/>
<path d="M79.682 59.6888L49.1888 51.6635C43.5195 50.1714 37.553 52.6584 34.6218 57.7354L20.4602 82.2639C17.5291 87.3409 18.3585 93.7516 22.4853 97.9153L44.682 120.311L79.682 59.6888Z" fill="var(--theme)"/>
<path d="M176.318 196.31L206.811 204.336C212.48 205.828 218.447 203.341 221.378 198.264L235.54 173.735C238.471 168.658 237.641 162.247 233.515 158.084L211.318 135.688L176.318 196.31Z" fill="var(--theme)"/>
<path d="M44.682 135.689L22.4853 158.084C18.3585 162.248 17.5291 168.658 20.4602 173.735L34.6218 198.264C37.553 203.341 43.5195 205.828 49.1888 204.336L79.682 196.311L44.682 135.689Z" fill="var(--theme)"/>
<path d="M211.318 120.31L233.515 97.915C237.641 93.7513 238.471 87.3406 235.54 82.2636L221.378 57.7351C218.447 52.6581 212.48 50.1711 206.811 51.6632L176.318 59.6885L211.318 120.31Z" fill="var(--theme)"/>
<path d="M128.5 60C165.779 60 196 90.2208 196 127.5C196 164.779 165.779 195 128.5 195C91.2208 195 61 164.779 61 127.5C61 90.2208 91.2208 60 128.5 60Z" stroke="var(--theme)" stroke-width="40"/>
</g>
</svg>
