<svg viewBox="0 0 1920 1080" fill="none" xmlns="http://www.w3.org/2000/svg">
<mask id="mask0_2319_217" style="mask-type:alpha" maskUnits="userSpaceOnUse" x="0" y="0" width="1920" height="1080">
<rect width="1920" height="1080" fill="white"/>
</mask>
<g mask="url(#mask0_2319_217)">
<path d="M1160.01 155.363C1158.25 155.363 1156.61 155.077 1155.09 154.505C1153.59 153.911 1152.29 153.086 1151.16 152.03C1150.06 150.952 1149.21 149.687 1148.59 148.235C1147.97 146.783 1147.67 145.199 1147.67 143.483C1147.67 141.767 1147.97 140.183 1148.59 138.731C1149.21 137.279 1150.07 136.025 1151.2 134.969C1152.32 133.891 1153.63 133.066 1155.12 132.494C1156.62 131.9 1158.26 131.603 1160.04 131.603C1161.93 131.603 1163.66 131.933 1165.22 132.593C1166.78 133.231 1168.1 134.188 1169.18 135.464L1166.41 138.071C1165.57 137.169 1164.64 136.498 1163.6 136.058C1162.57 135.596 1161.45 135.365 1160.24 135.365C1159.03 135.365 1157.92 135.563 1156.91 135.959C1155.92 136.355 1155.05 136.916 1154.3 137.642C1153.57 138.368 1153 139.226 1152.58 140.216C1152.19 141.206 1151.99 142.295 1151.99 143.483C1151.99 144.671 1152.19 145.76 1152.58 146.75C1153 147.74 1153.57 148.598 1154.3 149.324C1155.05 150.05 1155.92 150.611 1156.91 151.007C1157.92 151.403 1159.03 151.601 1160.24 151.601C1161.45 151.601 1162.57 151.381 1163.6 150.941C1164.64 150.479 1165.57 149.786 1166.41 148.862L1169.18 151.502C1168.1 152.756 1166.78 153.713 1165.22 154.373C1163.66 155.033 1161.92 155.363 1160.01 155.363ZM1180.14 155.264C1178.34 155.264 1176.73 154.879 1175.32 154.109C1173.91 153.317 1172.8 152.239 1171.99 150.875C1171.17 149.511 1170.77 147.96 1170.77 146.222C1170.77 144.462 1171.17 142.911 1171.99 141.569C1172.8 140.205 1173.91 139.138 1175.32 138.368C1176.73 137.598 1178.34 137.213 1180.14 137.213C1181.97 137.213 1183.58 137.598 1184.99 138.368C1186.42 139.138 1187.53 140.194 1188.32 141.536C1189.14 142.878 1189.54 144.44 1189.54 146.222C1189.54 147.96 1189.14 149.511 1188.32 150.875C1187.53 152.239 1186.42 153.317 1184.99 154.109C1183.58 154.879 1181.97 155.264 1180.14 155.264ZM1180.14 151.733C1181.15 151.733 1182.05 151.513 1182.85 151.073C1183.64 150.633 1184.25 149.995 1184.69 149.159C1185.16 148.323 1185.39 147.344 1185.39 146.222C1185.39 145.078 1185.16 144.099 1184.69 143.285C1184.25 142.449 1183.64 141.811 1182.85 141.371C1182.05 140.931 1181.16 140.711 1180.17 140.711C1179.16 140.711 1178.26 140.931 1177.47 141.371C1176.7 141.811 1176.08 142.449 1175.62 143.285C1175.16 144.099 1174.93 145.078 1174.93 146.222C1174.93 147.344 1175.16 148.323 1175.62 149.159C1176.08 149.995 1176.7 150.633 1177.47 151.073C1178.26 151.513 1179.15 151.733 1180.14 151.733ZM1193.49 155.033V130.547H1197.61V155.033H1193.49ZM1203.03 155.033V130.547H1207.15V155.033H1203.03ZM1223.42 155.033V151.469L1223.19 150.71V144.473C1223.19 143.263 1222.83 142.328 1222.1 141.668C1221.38 140.986 1220.28 140.645 1218.8 140.645C1217.81 140.645 1216.84 140.799 1215.87 141.107C1214.92 141.415 1214.12 141.844 1213.46 142.394L1211.84 139.391C1212.79 138.665 1213.91 138.126 1215.21 137.774C1216.53 137.4 1217.89 137.213 1219.3 137.213C1221.85 137.213 1223.82 137.829 1225.21 139.061C1226.61 140.271 1227.32 142.152 1227.32 144.704V155.033H1223.42ZM1217.88 155.264C1216.56 155.264 1215.41 155.044 1214.42 154.604C1213.43 154.142 1212.66 153.515 1212.11 152.723C1211.58 151.909 1211.31 150.996 1211.31 149.984C1211.31 148.994 1211.54 148.103 1212.01 147.311C1212.49 146.519 1213.27 145.892 1214.35 145.43C1215.43 144.968 1216.86 144.737 1218.64 144.737H1223.75V147.476H1218.94C1217.53 147.476 1216.58 147.707 1216.1 148.169C1215.61 148.609 1215.37 149.159 1215.37 149.819C1215.37 150.567 1215.67 151.161 1216.26 151.601C1216.86 152.041 1217.68 152.261 1218.74 152.261C1219.75 152.261 1220.65 152.03 1221.44 151.568C1222.26 151.106 1222.84 150.424 1223.19 149.522L1223.89 151.997C1223.49 153.031 1222.78 153.834 1221.74 154.406C1220.73 154.978 1219.44 155.264 1217.88 155.264ZM1242.38 155.264C1240.88 155.264 1239.55 154.934 1238.39 154.274C1237.22 153.614 1236.3 152.624 1235.62 151.304C1234.96 149.962 1234.63 148.268 1234.63 146.222C1234.63 144.154 1234.97 142.46 1235.65 141.14C1236.35 139.82 1237.29 138.841 1238.45 138.203C1239.64 137.543 1240.95 137.213 1242.38 137.213C1244.12 137.213 1245.65 137.587 1246.97 138.335C1248.31 139.083 1249.37 140.128 1250.14 141.47C1250.93 142.812 1251.32 144.396 1251.32 146.222C1251.32 148.048 1250.93 149.632 1250.14 150.974C1249.37 152.316 1248.31 153.372 1246.97 154.142C1245.65 154.89 1244.12 155.264 1242.38 155.264ZM1232.61 155.033V130.547H1236.74V141.503L1236.41 146.189L1236.54 150.875V155.033H1232.61ZM1241.92 151.733C1242.91 151.733 1243.79 151.513 1244.56 151.073C1245.35 150.633 1245.98 149.995 1246.44 149.159C1246.9 148.323 1247.13 147.344 1247.13 146.222C1247.13 145.078 1246.9 144.099 1246.44 143.285C1245.98 142.449 1245.35 141.811 1244.56 141.371C1243.79 140.931 1242.91 140.711 1241.92 140.711C1240.93 140.711 1240.04 140.931 1239.25 141.371C1238.45 141.811 1237.83 142.449 1237.36 143.285C1236.9 144.099 1236.67 145.078 1236.67 146.222C1236.67 147.344 1236.9 148.323 1237.36 149.159C1237.83 149.995 1238.45 150.633 1239.25 151.073C1240.04 151.513 1240.93 151.733 1241.92 151.733ZM1263.16 155.264C1261.35 155.264 1259.75 154.879 1258.34 154.109C1256.93 153.317 1255.82 152.239 1255 150.875C1254.19 149.511 1253.78 147.96 1253.78 146.222C1253.78 144.462 1254.19 142.911 1255 141.569C1255.82 140.205 1256.93 139.138 1258.34 138.368C1259.75 137.598 1261.35 137.213 1263.16 137.213C1264.98 137.213 1266.6 137.598 1268.01 138.368C1269.44 139.138 1270.55 140.194 1271.34 141.536C1272.15 142.878 1272.56 144.44 1272.56 146.222C1272.56 147.96 1272.15 149.511 1271.34 150.875C1270.55 152.239 1269.44 153.317 1268.01 154.109C1266.6 154.879 1264.98 155.264 1263.16 155.264ZM1263.16 151.733C1264.17 151.733 1265.07 151.513 1265.86 151.073C1266.65 150.633 1267.27 149.995 1267.71 149.159C1268.17 148.323 1268.4 147.344 1268.4 146.222C1268.4 145.078 1268.17 144.099 1267.71 143.285C1267.27 142.449 1266.65 141.811 1265.86 141.371C1265.07 140.931 1264.18 140.711 1263.19 140.711C1262.18 140.711 1261.27 140.931 1260.48 141.371C1259.71 141.811 1259.1 142.449 1258.63 143.285C1258.17 144.099 1257.94 145.078 1257.94 146.222C1257.94 147.344 1258.17 148.323 1258.63 149.159C1259.1 149.995 1259.71 150.633 1260.48 151.073C1261.27 151.513 1262.17 151.733 1263.16 151.733ZM1276.5 155.033V137.411H1280.43V142.262L1279.97 140.843C1280.5 139.655 1281.32 138.753 1282.44 138.137C1283.59 137.521 1285.01 137.213 1286.7 137.213V141.14C1286.53 141.096 1286.36 141.074 1286.21 141.074C1286.05 141.052 1285.9 141.041 1285.74 141.041C1284.18 141.041 1282.94 141.503 1282.02 142.427C1281.09 143.329 1280.63 144.682 1280.63 146.486V155.033H1276.5ZM1299.8 155.033V151.469L1299.57 150.71V144.473C1299.57 143.263 1299.21 142.328 1298.48 141.668C1297.76 140.986 1296.66 140.645 1295.18 140.645C1294.19 140.645 1293.21 140.799 1292.24 141.107C1291.3 141.415 1290.5 141.844 1289.84 142.394L1288.22 139.391C1289.16 138.665 1290.29 138.126 1291.58 137.774C1292.9 137.4 1294.27 137.213 1295.68 137.213C1298.23 137.213 1300.2 137.829 1301.58 139.061C1302.99 140.271 1303.7 142.152 1303.7 144.704V155.033H1299.8ZM1294.26 155.264C1292.94 155.264 1291.78 155.044 1290.79 154.604C1289.8 154.142 1289.03 153.515 1288.48 152.723C1287.95 151.909 1287.69 150.996 1287.69 149.984C1287.69 148.994 1287.92 148.103 1288.38 147.311C1288.87 146.519 1289.65 145.892 1290.73 145.43C1291.8 144.968 1293.23 144.737 1295.02 144.737H1300.13V147.476H1295.31C1293.91 147.476 1292.96 147.707 1292.48 148.169C1291.99 148.609 1291.75 149.159 1291.75 149.819C1291.75 150.567 1292.05 151.161 1292.64 151.601C1293.23 152.041 1294.06 152.261 1295.12 152.261C1296.13 152.261 1297.03 152.03 1297.82 151.568C1298.64 151.106 1299.22 150.424 1299.57 149.522L1300.26 151.997C1299.87 153.031 1299.15 153.834 1298.12 154.406C1297.11 154.978 1295.82 155.264 1294.26 155.264ZM1315.62 155.264C1313.69 155.264 1312.19 154.769 1311.13 153.779C1310.08 152.767 1309.55 151.282 1309.55 149.324V133.517H1313.67V149.225C1313.67 150.061 1313.88 150.71 1314.3 151.172C1314.74 151.634 1315.35 151.865 1316.12 151.865C1317.04 151.865 1317.81 151.623 1318.43 151.139L1319.58 154.076C1319.1 154.472 1318.5 154.769 1317.8 154.967C1317.1 155.165 1316.37 155.264 1315.62 155.264ZM1306.65 140.843V137.543H1318.39V140.843H1306.65ZM1322.98 155.033V137.411H1327.1V155.033H1322.98ZM1325.05 134.507C1324.28 134.507 1323.65 134.265 1323.14 133.781C1322.66 133.297 1322.41 132.714 1322.41 132.032C1322.41 131.328 1322.66 130.745 1323.14 130.283C1323.65 129.799 1324.28 129.557 1325.05 129.557C1325.82 129.557 1326.45 129.788 1326.94 130.25C1327.44 130.69 1327.69 131.251 1327.69 131.933C1327.69 132.659 1327.45 133.275 1326.97 133.781C1326.48 134.265 1325.85 134.507 1325.05 134.507ZM1340.43 155.264C1338.63 155.264 1337.02 154.879 1335.62 154.109C1334.21 153.317 1333.1 152.239 1332.28 150.875C1331.47 149.511 1331.06 147.96 1331.06 146.222C1331.06 144.462 1331.47 142.911 1332.28 141.569C1333.1 140.205 1334.21 139.138 1335.62 138.368C1337.02 137.598 1338.63 137.213 1340.43 137.213C1342.26 137.213 1343.88 137.598 1345.29 138.368C1346.72 139.138 1347.83 140.194 1348.62 141.536C1349.43 142.878 1349.84 144.44 1349.84 146.222C1349.84 147.96 1349.43 149.511 1348.62 150.875C1347.83 152.239 1346.72 153.317 1345.29 154.109C1343.88 154.879 1342.26 155.264 1340.43 155.264ZM1340.43 151.733C1341.45 151.733 1342.35 151.513 1343.14 151.073C1343.93 150.633 1344.55 149.995 1344.99 149.159C1345.45 148.323 1345.68 147.344 1345.68 146.222C1345.68 145.078 1345.45 144.099 1344.99 143.285C1344.55 142.449 1343.93 141.811 1343.14 141.371C1342.35 140.931 1341.46 140.711 1340.47 140.711C1339.46 140.711 1338.55 140.931 1337.76 141.371C1336.99 141.811 1336.38 142.449 1335.91 143.285C1335.45 144.099 1335.22 145.078 1335.22 146.222C1335.22 147.344 1335.45 148.323 1335.91 149.159C1336.38 149.995 1336.99 150.633 1337.76 151.073C1338.55 151.513 1339.44 151.733 1340.43 151.733ZM1363.78 137.213C1365.19 137.213 1366.44 137.488 1367.54 138.038C1368.67 138.588 1369.55 139.435 1370.18 140.579C1370.82 141.701 1371.14 143.153 1371.14 144.935V155.033H1367.02V145.463C1367.02 143.901 1366.64 142.735 1365.89 141.965C1365.17 141.195 1364.15 140.81 1362.83 140.81C1361.86 140.81 1361 141.008 1360.25 141.404C1359.5 141.8 1358.92 142.394 1358.5 143.186C1358.11 143.956 1357.91 144.935 1357.91 146.123V155.033H1353.78V137.411H1357.71V142.163L1357.02 140.711C1357.63 139.589 1358.52 138.731 1359.69 138.137C1360.88 137.521 1362.24 137.213 1363.78 137.213ZM1396.35 155.033V151.469L1396.12 150.71V144.473C1396.12 143.263 1395.76 142.328 1395.03 141.668C1394.31 140.986 1393.21 140.645 1391.73 140.645C1390.74 140.645 1389.76 140.799 1388.79 141.107C1387.85 141.415 1387.05 141.844 1386.39 142.394L1384.77 139.391C1385.71 138.665 1386.84 138.126 1388.13 137.774C1389.45 137.4 1390.82 137.213 1392.23 137.213C1394.78 137.213 1396.75 137.829 1398.13 139.061C1399.54 140.271 1400.25 142.152 1400.25 144.704V155.033H1396.35ZM1390.81 155.264C1389.49 155.264 1388.33 155.044 1387.34 154.604C1386.35 154.142 1385.58 153.515 1385.03 152.723C1384.5 151.909 1384.24 150.996 1384.24 149.984C1384.24 148.994 1384.47 148.103 1384.93 147.311C1385.42 146.519 1386.2 145.892 1387.28 145.43C1388.35 144.968 1389.78 144.737 1391.57 144.737H1396.68V147.476H1391.86C1390.46 147.476 1389.51 147.707 1389.03 148.169C1388.54 148.609 1388.3 149.159 1388.3 149.819C1388.3 150.567 1388.6 151.161 1389.19 151.601C1389.78 152.041 1390.61 152.261 1391.67 152.261C1392.68 152.261 1393.58 152.03 1394.37 151.568C1395.19 151.106 1395.77 150.424 1396.12 149.522L1396.81 151.997C1396.42 153.031 1395.7 153.834 1394.67 154.406C1393.66 154.978 1392.37 155.264 1390.81 155.264ZM1413.66 155.264C1411.81 155.264 1410.16 154.879 1408.71 154.109C1407.28 153.317 1406.15 152.239 1405.34 150.875C1404.53 149.511 1404.12 147.96 1404.12 146.222C1404.12 144.462 1404.53 142.911 1405.34 141.569C1406.15 140.205 1407.28 139.138 1408.71 138.368C1410.16 137.598 1411.81 137.213 1413.66 137.213C1415.37 137.213 1416.88 137.565 1418.18 138.269C1419.5 138.951 1420.5 139.963 1421.18 141.305L1418.01 143.153C1417.48 142.317 1416.84 141.701 1416.07 141.305C1415.32 140.909 1414.5 140.711 1413.62 140.711C1412.61 140.711 1411.7 140.931 1410.88 141.371C1410.07 141.811 1409.43 142.449 1408.97 143.285C1408.51 144.099 1408.28 145.078 1408.28 146.222C1408.28 147.366 1408.51 148.356 1408.97 149.192C1409.43 150.006 1410.07 150.633 1410.88 151.073C1411.7 151.513 1412.61 151.733 1413.62 151.733C1414.5 151.733 1415.32 151.535 1416.07 151.139C1416.84 150.743 1417.48 150.127 1418.01 149.291L1421.18 151.139C1420.5 152.459 1419.5 153.482 1418.18 154.208C1416.88 154.912 1415.37 155.264 1413.66 155.264ZM1424.75 155.033V137.411H1428.67V142.262L1428.21 140.843C1428.74 139.655 1429.56 138.753 1430.69 138.137C1431.83 137.521 1433.25 137.213 1434.94 137.213V141.14C1434.77 141.096 1434.6 141.074 1434.45 141.074C1434.29 141.052 1434.14 141.041 1433.99 141.041C1432.42 141.041 1431.18 141.503 1430.26 142.427C1429.33 143.329 1428.87 144.682 1428.87 146.486V155.033H1424.75ZM1446.2 155.264C1444.4 155.264 1442.79 154.879 1441.38 154.109C1439.98 153.317 1438.86 152.239 1438.05 150.875C1437.24 149.511 1436.83 147.96 1436.83 146.222C1436.83 144.462 1437.24 142.911 1438.05 141.569C1438.86 140.205 1439.98 139.138 1441.38 138.368C1442.79 137.598 1444.4 137.213 1446.2 137.213C1448.03 137.213 1449.64 137.598 1451.05 138.368C1452.48 139.138 1453.59 140.194 1454.39 141.536C1455.2 142.878 1455.61 144.44 1455.61 146.222C1455.61 147.96 1455.2 149.511 1454.39 150.875C1453.59 152.239 1452.48 153.317 1451.05 154.109C1449.64 154.879 1448.03 155.264 1446.2 155.264ZM1446.2 151.733C1447.21 151.733 1448.12 151.513 1448.91 151.073C1449.7 150.633 1450.32 149.995 1450.76 149.159C1451.22 148.323 1451.45 147.344 1451.45 146.222C1451.45 145.078 1451.22 144.099 1450.76 143.285C1450.32 142.449 1449.7 141.811 1448.91 141.371C1448.12 140.931 1447.22 140.711 1446.23 140.711C1445.22 140.711 1444.32 140.931 1443.53 141.371C1442.76 141.811 1442.14 142.449 1441.68 143.285C1441.22 144.099 1440.99 145.078 1440.99 146.222C1440.99 147.344 1441.22 148.323 1441.68 149.159C1442.14 149.995 1442.76 150.633 1443.53 151.073C1444.32 151.513 1445.21 151.733 1446.2 151.733ZM1465 155.264C1463.52 155.264 1462.1 155.077 1460.74 154.703C1459.4 154.307 1458.33 153.834 1457.54 153.284L1459.12 150.149C1459.91 150.655 1460.86 151.073 1461.96 151.403C1463.06 151.733 1464.16 151.898 1465.26 151.898C1466.56 151.898 1467.49 151.722 1468.07 151.37C1468.66 151.018 1468.96 150.545 1468.96 149.951C1468.96 149.467 1468.76 149.104 1468.36 148.862C1467.97 148.598 1467.45 148.4 1466.81 148.268C1466.17 148.136 1465.46 148.015 1464.67 147.905C1463.9 147.795 1463.12 147.652 1462.32 147.476C1461.55 147.278 1460.85 147.003 1460.21 146.651C1459.57 146.277 1459.06 145.782 1458.66 145.166C1458.26 144.55 1458.07 143.736 1458.07 142.724C1458.07 141.602 1458.39 140.634 1459.02 139.82C1459.66 138.984 1460.55 138.346 1461.7 137.906C1462.86 137.444 1464.24 137.213 1465.82 137.213C1467.01 137.213 1468.21 137.345 1469.42 137.609C1470.63 137.873 1471.63 138.247 1472.42 138.731L1470.84 141.866C1470 141.36 1469.15 141.019 1468.3 140.843C1467.46 140.645 1466.62 140.546 1465.79 140.546C1464.53 140.546 1463.6 140.733 1462.98 141.107C1462.39 141.481 1462.09 141.954 1462.09 142.526C1462.09 143.054 1462.29 143.45 1462.69 143.714C1463.08 143.978 1463.6 144.187 1464.24 144.341C1464.88 144.495 1465.58 144.627 1466.35 144.737C1467.14 144.825 1467.92 144.968 1468.69 145.166C1469.46 145.364 1470.17 145.639 1470.8 145.991C1471.46 146.321 1471.99 146.794 1472.39 147.41C1472.78 148.026 1472.98 148.829 1472.98 149.819C1472.98 150.919 1472.65 151.876 1471.99 152.69C1471.35 153.504 1470.44 154.142 1469.25 154.604C1468.07 155.044 1466.65 155.264 1465 155.264ZM1481.98 155.264C1480.51 155.264 1479.09 155.077 1477.72 154.703C1476.38 154.307 1475.31 153.834 1474.52 153.284L1476.11 150.149C1476.9 150.655 1477.84 151.073 1478.94 151.403C1480.04 151.733 1481.14 151.898 1482.24 151.898C1483.54 151.898 1484.48 151.722 1485.05 151.37C1485.64 151.018 1485.94 150.545 1485.94 149.951C1485.94 149.467 1485.74 149.104 1485.35 148.862C1484.95 148.598 1484.43 148.4 1483.79 148.268C1483.16 148.136 1482.44 148.015 1481.65 147.905C1480.88 147.795 1480.1 147.652 1479.31 147.476C1478.54 147.278 1477.83 147.003 1477.19 146.651C1476.56 146.277 1476.04 145.782 1475.64 145.166C1475.25 144.55 1475.05 143.736 1475.05 142.724C1475.05 141.602 1475.37 140.634 1476.01 139.82C1476.64 138.984 1477.54 138.346 1478.68 137.906C1479.85 137.444 1481.22 137.213 1482.8 137.213C1483.99 137.213 1485.19 137.345 1486.4 137.609C1487.61 137.873 1488.61 138.247 1489.4 138.731L1487.82 141.866C1486.98 141.36 1486.14 141.019 1485.28 140.843C1484.44 140.645 1483.61 140.546 1482.77 140.546C1481.52 140.546 1480.58 140.733 1479.97 141.107C1479.37 141.481 1479.08 141.954 1479.08 142.526C1479.08 143.054 1479.27 143.45 1479.67 143.714C1480.07 143.978 1480.58 144.187 1481.22 144.341C1481.86 144.495 1482.56 144.627 1483.33 144.737C1484.12 144.825 1484.91 144.968 1485.68 145.166C1486.45 145.364 1487.15 145.639 1487.79 145.991C1488.45 146.321 1488.98 146.794 1489.37 147.41C1489.77 148.026 1489.97 148.829 1489.97 149.819C1489.97 150.919 1489.64 151.876 1488.98 152.69C1488.34 153.504 1487.42 154.142 1486.24 154.604C1485.05 155.044 1483.63 155.264 1481.98 155.264ZM1509.27 155.264C1507.34 155.264 1505.84 154.769 1504.78 153.779C1503.73 152.767 1503.2 151.282 1503.2 149.324V133.517H1507.32V149.225C1507.32 150.061 1507.53 150.71 1507.95 151.172C1508.39 151.634 1509 151.865 1509.77 151.865C1510.69 151.865 1511.46 151.623 1512.08 151.139L1513.23 154.076C1512.75 154.472 1512.15 154.769 1511.45 154.967C1510.75 155.165 1510.02 155.264 1509.27 155.264ZM1500.3 140.843V137.543H1512.04V140.843H1500.3ZM1526.62 137.213C1528.03 137.213 1529.29 137.488 1530.39 138.038C1531.51 138.588 1532.39 139.435 1533.03 140.579C1533.66 141.701 1533.98 143.153 1533.98 144.935V155.033H1529.86V145.463C1529.86 143.901 1529.48 142.735 1528.74 141.965C1528.01 141.195 1526.99 140.81 1525.67 140.81C1524.7 140.81 1523.84 141.008 1523.09 141.404C1522.34 141.8 1521.76 142.394 1521.34 143.186C1520.95 143.956 1520.75 144.935 1520.75 146.123V155.033H1516.62V130.547H1520.75V142.163L1519.86 140.711C1520.47 139.589 1521.37 138.731 1522.53 138.137C1523.72 137.521 1525.08 137.213 1526.62 137.213ZM1547.53 155.264C1545.57 155.264 1543.86 154.879 1542.38 154.109C1540.93 153.317 1539.8 152.239 1538.98 150.875C1538.19 149.511 1537.8 147.96 1537.8 146.222C1537.8 144.462 1538.18 142.911 1538.95 141.569C1539.74 140.205 1540.82 139.138 1542.18 138.368C1543.57 137.598 1545.14 137.213 1546.9 137.213C1548.62 137.213 1550.15 137.587 1551.49 138.335C1552.83 139.083 1553.89 140.139 1554.66 141.503C1555.43 142.867 1555.81 144.473 1555.81 146.321C1555.81 146.497 1555.8 146.695 1555.78 146.915C1555.78 147.135 1555.77 147.344 1555.75 147.542H1541.06V144.803H1553.57L1551.95 145.661C1551.97 144.649 1551.77 143.758 1551.33 142.988C1550.89 142.218 1550.28 141.613 1549.51 141.173C1548.76 140.733 1547.89 140.513 1546.9 140.513C1545.89 140.513 1545 140.733 1544.23 141.173C1543.48 141.613 1542.89 142.229 1542.45 143.021C1542.03 143.791 1541.82 144.704 1541.82 145.76V146.42C1541.82 147.476 1542.06 148.411 1542.55 149.225C1543.03 150.039 1543.71 150.666 1544.59 151.106C1545.47 151.546 1546.49 151.766 1547.63 151.766C1548.62 151.766 1549.51 151.612 1550.3 151.304C1551.09 150.996 1551.8 150.512 1552.41 149.852L1554.63 152.393C1553.83 153.317 1552.83 154.032 1551.62 154.538C1550.43 155.022 1549.07 155.264 1547.53 155.264ZM1579.98 155.363C1578.22 155.363 1576.59 155.077 1575.07 154.505C1573.57 153.911 1572.26 153.086 1571.14 152.03C1570.04 150.952 1569.18 149.687 1568.57 148.235C1567.95 146.783 1567.64 145.199 1567.64 143.483C1567.64 141.767 1567.95 140.183 1568.57 138.731C1569.18 137.279 1570.05 136.025 1571.17 134.969C1572.3 133.891 1573.6 133.066 1575.1 132.494C1576.6 131.9 1578.24 131.603 1580.02 131.603C1581.91 131.603 1583.64 131.933 1585.2 132.593C1586.76 133.231 1588.08 134.188 1589.16 135.464L1586.39 138.071C1585.55 137.169 1584.62 136.498 1583.58 136.058C1582.55 135.596 1581.43 135.365 1580.22 135.365C1579.01 135.365 1577.89 135.563 1576.88 135.959C1575.89 136.355 1575.02 136.916 1574.28 137.642C1573.55 138.368 1572.98 139.226 1572.56 140.216C1572.16 141.206 1571.97 142.295 1571.97 143.483C1571.97 144.671 1572.16 145.76 1572.56 146.75C1572.98 147.74 1573.55 148.598 1574.28 149.324C1575.02 150.05 1575.89 150.611 1576.88 151.007C1577.89 151.403 1579.01 151.601 1580.22 151.601C1581.43 151.601 1582.55 151.381 1583.58 150.941C1584.62 150.479 1585.55 149.786 1586.39 148.862L1589.16 151.502C1588.08 152.756 1586.76 153.713 1585.2 154.373C1583.64 155.033 1581.9 155.363 1579.98 155.363ZM1592.87 155.033V130.547H1597V155.033H1592.87ZM1613.27 155.033V151.469L1613.04 150.71V144.473C1613.04 143.263 1612.67 142.328 1611.95 141.668C1611.22 140.986 1610.12 140.645 1608.65 140.645C1607.66 140.645 1606.68 140.799 1605.71 141.107C1604.77 141.415 1603.96 141.844 1603.3 142.394L1601.69 139.391C1602.63 138.665 1603.75 138.126 1605.05 137.774C1606.37 137.4 1607.74 137.213 1609.14 137.213C1611.7 137.213 1613.66 137.829 1615.05 139.061C1616.46 140.271 1617.16 142.152 1617.16 144.704V155.033H1613.27ZM1607.72 155.264C1606.4 155.264 1605.25 155.044 1604.26 154.604C1603.27 154.142 1602.5 153.515 1601.95 152.723C1601.42 151.909 1601.16 150.996 1601.16 149.984C1601.16 148.994 1601.39 148.103 1601.85 147.311C1602.33 146.519 1603.12 145.892 1604.19 145.43C1605.27 144.968 1606.7 144.737 1608.48 144.737H1613.6V147.476H1608.78C1607.37 147.476 1606.43 147.707 1605.94 148.169C1605.46 148.609 1605.22 149.159 1605.22 149.819C1605.22 150.567 1605.51 151.161 1606.11 151.601C1606.7 152.041 1607.53 152.261 1608.58 152.261C1609.59 152.261 1610.5 152.03 1611.29 151.568C1612.1 151.106 1612.69 150.424 1613.04 149.522L1613.73 151.997C1613.33 153.031 1612.62 153.834 1611.59 154.406C1610.57 154.978 1609.29 155.264 1607.72 155.264ZM1627.9 155.264C1626.43 155.264 1625.01 155.077 1623.64 154.703C1622.3 154.307 1621.24 153.834 1620.44 153.284L1622.03 150.149C1622.82 150.655 1623.77 151.073 1624.87 151.403C1625.97 151.733 1627.07 151.898 1628.17 151.898C1629.46 151.898 1630.4 151.722 1630.97 151.37C1631.56 151.018 1631.86 150.545 1631.86 149.951C1631.86 149.467 1631.66 149.104 1631.27 148.862C1630.87 148.598 1630.35 148.4 1629.72 148.268C1629.08 148.136 1628.36 148.015 1627.57 147.905C1626.8 147.795 1626.02 147.652 1625.23 147.476C1624.46 147.278 1623.75 147.003 1623.12 146.651C1622.48 146.277 1621.96 145.782 1621.57 145.166C1621.17 144.55 1620.97 143.736 1620.97 142.724C1620.97 141.602 1621.29 140.634 1621.93 139.82C1622.57 138.984 1623.46 138.346 1624.6 137.906C1625.77 137.444 1627.14 137.213 1628.73 137.213C1629.91 137.213 1631.11 137.345 1632.32 137.609C1633.53 137.873 1634.53 138.247 1635.33 138.731L1633.74 141.866C1632.91 141.36 1632.06 141.019 1631.2 140.843C1630.37 140.645 1629.53 140.546 1628.69 140.546C1627.44 140.546 1626.5 140.733 1625.89 141.107C1625.29 141.481 1625 141.954 1625 142.526C1625 143.054 1625.2 143.45 1625.59 143.714C1625.99 143.978 1626.5 144.187 1627.14 144.341C1627.78 144.495 1628.48 144.627 1629.25 144.737C1630.05 144.825 1630.83 144.968 1631.6 145.166C1632.37 145.364 1633.07 145.639 1633.71 145.991C1634.37 146.321 1634.9 146.794 1635.29 147.41C1635.69 148.026 1635.89 148.829 1635.89 149.819C1635.89 150.919 1635.56 151.876 1634.9 152.69C1634.26 153.504 1633.35 154.142 1632.16 154.604C1630.97 155.044 1629.55 155.264 1627.9 155.264ZM1644.89 155.264C1643.41 155.264 1641.99 155.077 1640.63 154.703C1639.29 154.307 1638.22 153.834 1637.43 153.284L1639.01 150.149C1639.8 150.655 1640.75 151.073 1641.85 151.403C1642.95 151.733 1644.05 151.898 1645.15 151.898C1646.45 151.898 1647.38 151.722 1647.95 151.37C1648.55 151.018 1648.85 150.545 1648.85 149.951C1648.85 149.467 1648.65 149.104 1648.25 148.862C1647.86 148.598 1647.34 148.4 1646.7 148.268C1646.06 148.136 1645.35 148.015 1644.56 147.905C1643.79 147.795 1643 147.652 1642.21 147.476C1641.44 147.278 1640.74 147.003 1640.1 146.651C1639.46 146.277 1638.95 145.782 1638.55 145.166C1638.15 144.55 1637.96 143.736 1637.96 142.724C1637.96 141.602 1638.27 140.634 1638.91 139.82C1639.55 138.984 1640.44 138.346 1641.59 137.906C1642.75 137.444 1644.13 137.213 1645.71 137.213C1646.9 137.213 1648.1 137.345 1649.31 137.609C1650.52 137.873 1651.52 138.247 1652.31 138.731L1650.73 141.866C1649.89 141.36 1649.04 141.019 1648.19 140.843C1647.35 140.645 1646.51 140.546 1645.68 140.546C1644.42 140.546 1643.49 140.733 1642.87 141.107C1642.28 141.481 1641.98 141.954 1641.98 142.526C1641.98 143.054 1642.18 143.45 1642.58 143.714C1642.97 143.978 1643.49 144.187 1644.13 144.341C1644.76 144.495 1645.47 144.627 1646.24 144.737C1647.03 144.825 1647.81 144.968 1648.58 145.166C1649.35 145.364 1650.06 145.639 1650.69 145.991C1651.35 146.321 1651.88 146.794 1652.28 147.41C1652.67 148.026 1652.87 148.829 1652.87 149.819C1652.87 150.919 1652.54 151.876 1651.88 152.69C1651.24 153.504 1650.33 154.142 1649.14 154.604C1647.95 155.044 1646.54 155.264 1644.89 155.264ZM1656.42 155.033V137.411H1660.35V142.262L1659.89 140.843C1660.42 139.655 1661.24 138.753 1662.36 138.137C1663.51 137.521 1664.93 137.213 1666.62 137.213V141.14C1666.44 141.096 1666.28 141.074 1666.13 141.074C1665.97 141.052 1665.82 141.041 1665.66 141.041C1664.1 141.041 1662.86 141.503 1661.93 142.427C1661.01 143.329 1660.55 144.682 1660.55 146.486V155.033H1656.42ZM1677.88 155.264C1676.07 155.264 1674.47 154.879 1673.06 154.109C1671.65 153.317 1670.54 152.239 1669.73 150.875C1668.91 149.511 1668.51 147.96 1668.51 146.222C1668.51 144.462 1668.91 142.911 1669.73 141.569C1670.54 140.205 1671.65 139.138 1673.06 138.368C1674.47 137.598 1676.07 137.213 1677.88 137.213C1679.7 137.213 1681.32 137.598 1682.73 138.368C1684.16 139.138 1685.27 140.194 1686.06 141.536C1686.88 142.878 1687.28 144.44 1687.28 146.222C1687.28 147.96 1686.88 149.511 1686.06 150.875C1685.27 152.239 1684.16 153.317 1682.73 154.109C1681.32 154.879 1679.7 155.264 1677.88 155.264ZM1677.88 151.733C1678.89 151.733 1679.79 151.513 1680.58 151.073C1681.38 150.633 1681.99 149.995 1682.43 149.159C1682.89 148.323 1683.13 147.344 1683.13 146.222C1683.13 145.078 1682.89 144.099 1682.43 143.285C1681.99 142.449 1681.38 141.811 1680.58 141.371C1679.79 140.931 1678.9 140.711 1677.91 140.711C1676.9 140.711 1676 140.931 1675.21 141.371C1674.44 141.811 1673.82 142.449 1673.36 143.285C1672.9 144.099 1672.66 145.078 1672.66 146.222C1672.66 147.344 1672.9 148.323 1673.36 149.159C1673.82 149.995 1674.44 150.633 1675.21 151.073C1676 151.513 1676.89 151.733 1677.88 151.733ZM1699.15 155.264C1697.34 155.264 1695.74 154.879 1694.33 154.109C1692.92 153.317 1691.81 152.239 1691 150.875C1690.18 149.511 1689.78 147.96 1689.78 146.222C1689.78 144.462 1690.18 142.911 1691 141.569C1691.81 140.205 1692.92 139.138 1694.33 138.368C1695.74 137.598 1697.34 137.213 1699.15 137.213C1700.97 137.213 1702.59 137.598 1704 138.368C1705.43 139.138 1706.54 140.194 1707.33 141.536C1708.15 142.878 1708.55 144.44 1708.55 146.222C1708.55 147.96 1708.15 149.511 1707.33 150.875C1706.54 152.239 1705.43 153.317 1704 154.109C1702.59 154.879 1700.97 155.264 1699.15 155.264ZM1699.15 151.733C1700.16 151.733 1701.06 151.513 1701.85 151.073C1702.65 150.633 1703.26 149.995 1703.7 149.159C1704.16 148.323 1704.4 147.344 1704.4 146.222C1704.4 145.078 1704.16 144.099 1703.7 143.285C1703.26 142.449 1702.65 141.811 1701.85 141.371C1701.06 140.931 1700.17 140.711 1699.18 140.711C1698.17 140.711 1697.27 140.931 1696.48 141.371C1695.71 141.811 1695.09 142.449 1694.63 143.285C1694.17 144.099 1693.93 145.078 1693.93 146.222C1693.93 147.344 1694.17 148.323 1694.63 149.159C1695.09 149.995 1695.71 150.633 1696.48 151.073C1697.27 151.513 1698.16 151.733 1699.15 151.733ZM1734.74 137.213C1736.15 137.213 1737.39 137.488 1738.47 138.038C1739.57 138.588 1740.43 139.435 1741.04 140.579C1741.66 141.701 1741.97 143.153 1741.97 144.935V155.033H1737.84V145.463C1737.84 143.901 1737.5 142.735 1736.82 141.965C1736.14 141.195 1735.16 140.81 1733.88 140.81C1732.98 140.81 1732.18 141.008 1731.47 141.404C1730.79 141.8 1730.25 142.383 1729.86 143.153C1729.48 143.923 1729.29 144.902 1729.29 146.09V155.033H1725.17V145.463C1725.17 143.901 1724.83 142.735 1724.15 141.965C1723.46 141.195 1722.49 140.81 1721.21 140.81C1720.31 140.81 1719.5 141.008 1718.8 141.404C1718.12 141.8 1717.58 142.383 1717.18 143.153C1716.81 143.923 1716.62 144.902 1716.62 146.09V155.033H1712.5V137.411H1716.42V142.097L1715.73 140.711C1716.33 139.567 1717.18 138.698 1718.31 138.104C1719.45 137.51 1720.75 137.213 1722.2 137.213C1723.85 137.213 1725.28 137.62 1726.49 138.434C1727.72 139.248 1728.54 140.48 1728.93 142.13L1727.31 141.569C1727.89 140.249 1728.83 139.193 1730.15 138.401C1731.47 137.609 1733 137.213 1734.74 137.213Z" fill="#228EF2"/>
<rect x="1133.39" y="112.644" width="623.967" height="60.2265" rx="18.5" stroke="#0084FF" stroke-width="5"/>
<path d="M1744 116.5C1744 111.253 1748.25 107 1753.5 107V107C1758.75 107 1763 111.253 1763 116.5V116.5C1763 121.747 1758.75 126 1753.5 126V126C1748.25 126 1744 121.747 1744 116.5V116.5Z" fill="#0084FF"/>
<path d="M1128 116.5C1128 111.253 1132.25 107 1137.5 107V107C1142.75 107 1147 111.253 1147 116.5V116.5C1147 121.747 1142.75 126 1137.5 126V126C1132.25 126 1128 121.747 1128 116.5V116.5Z" fill="#0084FF"/>
<path d="M1744 169.5C1744 164.253 1748.25 160 1753.5 160V160C1758.75 160 1763 164.253 1763 169.5V169.5C1763 174.747 1758.75 179 1753.5 179V179C1748.25 179 1744 174.747 1744 169.5V169.5Z" fill="#0084FF"/>
<path d="M1128 168.5C1128 163.253 1132.25 159 1137.5 159V159C1142.75 159 1147 163.253 1147 168.5V168.5C1147 173.747 1142.75 178 1137.5 178V178C1132.25 178 1128 173.747 1128 168.5V168.5Z" fill="#0084FF"/>
<rect x="1432.1" y="168.218" width="25.8202" height="10.7584" rx="5.3792" fill="#0084FF"/>
<rect x="1432.1" y="107.254" width="25.8202" height="10.0412" rx="5.02059" fill="#0084FF"/>
<rect x="1128" y="130.205" width="10.0412" height="25.8202" rx="5.02059" fill="#0084FF"/>
<rect x="1752.7" y="130.205" width="10.0412" height="25.8202" rx="5.02059" fill="#0084FF"/>
<path d="M1788.23 107.631C1789.21 106.654 1790.79 106.654 1791.77 107.631C1792.74 108.607 1792.74 110.19 1791.77 111.166L1788.23 107.631ZM1780.34 115.526L1788.23 107.631L1791.77 111.166L1783.87 119.062L1780.34 115.526Z" fill="#0084FF"/>
<path d="M1772.44 111.166C1771.46 110.19 1771.46 108.607 1772.44 107.631C1773.42 106.654 1775 106.654 1775.98 107.631L1772.44 111.166ZM1780.34 119.062L1772.44 111.166L1775.98 107.631L1783.87 115.526L1780.34 119.062Z" fill="#0084FF"/>
<path d="M1762.37 94.0232C1763.34 94.9996 1763.34 96.5825 1762.37 97.5588C1761.39 98.5351 1759.81 98.5351 1758.83 97.5588L1762.37 94.0232ZM1754.47 86.1277L1762.37 94.0232L1758.83 97.5588L1750.94 89.6633L1754.47 86.1277Z" fill="#0084FF"/>
<path d="M1758.83 78.2322C1759.81 77.2559 1761.39 77.2559 1762.37 78.2322C1763.34 79.2085 1763.34 80.7915 1762.37 81.7678L1758.83 78.2322ZM1750.94 86.1277L1758.83 78.2322L1762.37 81.7678L1754.47 89.6633L1750.94 86.1277Z" fill="#0084FF"/>
<path d="M1782.07 117.295V106.933C1782.07 96.4392 1773.56 87.9326 1763.07 87.9326H1752.7" stroke="#0084FF" stroke-width="5" stroke-linecap="round"/>
<path d="M368.832 528.844L327.292 570.385C274.18 623.496 274.18 709.606 327.292 762.718L423.782 859.208C467.039 902.465 476.091 969.28 445.903 1022.49L339.798 1209.5" stroke="#DF84FF" stroke-width="30" stroke-linecap="round"/>
<g filter="url(#filter0_d_2319_217)">
<path d="M397.715 511.918C394.983 519.407 388.957 525.231 381.367 527.716L373.603 530.259C371.463 530.96 369.12 530.109 367.932 528.199L363.623 521.273C359.41 514.501 358.546 506.176 361.278 498.687L376.244 457.663L412.682 470.895L397.715 511.918Z" fill="#DF84FF"/>
<path d="M402.015 500.131L365.578 486.9L390.119 419.63C393.782 409.591 404.907 404.416 414.969 408.069C425.031 411.723 430.219 422.823 426.557 432.861L402.015 500.131Z" fill="#2F2F2F"/>
<path d="M373.426 456.635L374.452 453.821L387.301 418.602C391.532 407.004 404.38 401.032 415.993 405.249C427.609 409.468 433.608 422.288 429.375 433.889L416.53 469.1L415.5 471.923L404.834 501.16L403.807 503.974L400.534 512.946C397.486 521.301 390.763 527.796 382.301 530.567L374.537 533.11C371.086 534.24 367.304 532.87 365.385 529.784L361.075 522.857C356.376 515.303 355.411 506.014 358.459 497.658L361.73 488.694L362.759 485.872L373.426 456.635Z" stroke="white" stroke-width="6"/>
</g>
<rect x="1378" y="838" width="198" height="198" rx="37" stroke="#FF4C6C" stroke-width="30"/>
<rect x="1546" y="620" width="198" height="198" rx="99" stroke="#228EF2" stroke-width="30"/>
<path d="M1846.57 992.435L1769.72 857.046C1758.61 837.466 1730.39 837.466 1719.28 857.046L1642.43 992.435C1631.46 1011.77 1645.42 1035.75 1667.65 1035.75H1821.35C1843.58 1035.75 1857.54 1011.77 1846.57 992.435Z" stroke="#FFC24A" stroke-width="30"/>
</g>
<defs>
<filter id="filter0_d_2319_217" x="337.707" y="384.896" width="112.026" height="167.606" filterUnits="userSpaceOnUse" color-interpolation-filters="sRGB">
<feFlood flood-opacity="0" result="BackgroundImageFix"/>
<feColorMatrix in="SourceAlpha" type="matrix" values="0 0 0 0 0 0 0 0 0 0 0 0 0 0 0 0 0 0 127 0" result="hardAlpha"/>
<feOffset/>
<feGaussianBlur stdDeviation="8"/>
<feComposite in2="hardAlpha" operator="out"/>
<feColorMatrix type="matrix" values="0 0 0 0 0 0 0 0 0 0 0 0 0 0 0 0 0 0 0.25 0"/>
<feBlend mode="normal" in2="BackgroundImageFix" result="effect1_dropShadow_2319_217"/>
<feBlend mode="normal" in="SourceGraphic" in2="effect1_dropShadow_2319_217" result="shape"/>
</filter>
</defs>
</svg>
