<svg viewBox="0 0 168 168" fill="none" xmlns="http://www.w3.org/2000/svg">
<path fill-rule="evenodd" clip-rule="evenodd" d="M0 84C0 37.6081 37.6081 0 84 0C130.392 0 168 37.6081 168 84C168 130.392 130.392 168 84 168C37.6081 168 0 130.392 0 84ZM74.1768 124.848C76.9829 132.558 83.5328 138.3 91.5434 140.073L101.799 142.342C104.074 142.846 106.435 141.986 107.854 140.138L114.251 131.808C119.248 125.3 120.575 116.691 117.769 108.982L113.917 98.399L113.918 98.3987L91.5882 37.0487C87.2437 25.1122 73.8622 19.0244 61.9257 23.3689C49.9892 27.7134 43.6516 40.9785 47.9961 52.9149L59.9939 85.8785L59.9931 85.8788L74.1768 124.848Z" fill="#0084FF" fill-opacity="0.25"/>
<mask id="mask0_2342_25" style="mask-type:alpha" maskUnits="userSpaceOnUse" x="77" y="104" width="44" height="42">
<rect x="120.956" y="133.292" width="34.8743" height="30.3138" transform="rotate(160 120.956 133.292)" fill="#D9D9D9"/>
</mask>
<g mask="url(#mask0_2342_25)">
<path d="M80.4718 123.954C81.9855 128.113 85.3764 131.311 89.6166 132.579L100.838 135.934C102.53 136.44 104.354 135.777 105.325 134.301L111.764 124.518C114.197 120.821 114.739 116.192 113.225 112.033L99.2194 73.5525L66.4661 85.4738L80.4718 123.954Z" fill="#0084FF"/>
</g>
<path d="M75.7666 111.09L108.219 99.2783L86.3616 39.2263C83.0999 30.265 73.1911 25.6444 64.2297 28.9061V28.9061C55.2683 32.1678 50.6478 42.0765 53.9095 51.0379L75.7666 111.09Z" fill="#0084FF"/>
</svg>
