<svg viewBox="0 0 350 168" fill="none" xmlns="http://www.w3.org/2000/svg">
<rect width="350" height="168" rx="84" fill="var(--theme)" fill-opacity="0.25"/>
<path d="M175.171 139.72C166.531 139.72 158.691 138.32 151.651 135.52C144.611 132.8 138.531 128.96 133.411 124C128.371 119.04 124.451 113.2 121.651 106.48C118.931 99.76 117.571 92.44 117.571 84.52C117.571 76.68 118.931 69.44 121.651 62.8C124.451 56.16 128.411 50.36 133.531 45.4C138.651 40.44 144.771 36.6 151.891 33.88C159.011 31.16 166.931 29.8 175.651 29.8C184.051 29.8 191.731 31.12 198.691 33.76C205.651 36.32 211.651 39.96 216.691 44.68C221.731 49.4 225.611 54.96 228.331 61.36C231.051 67.68 232.411 74.6 232.411 82.12C232.411 89.24 231.371 95.32 229.291 100.36C227.291 105.4 224.451 109.24 220.771 111.88C217.091 114.52 212.771 115.84 207.811 115.84C202.371 115.84 198.051 114.24 194.851 111.04C191.651 107.84 190.051 103.16 190.051 97V91.48L190.411 85L189.331 67.6V56.08H205.651V94.96C205.651 97.84 206.211 99.84 207.331 100.96C208.451 102.08 209.811 102.64 211.411 102.64C213.251 102.64 214.811 101.92 216.091 100.48C217.451 99.04 218.491 96.84 219.211 93.88C219.931 90.84 220.291 87 220.291 82.36C220.291 76.28 219.211 70.72 217.051 65.68C214.971 60.64 211.931 56.28 207.931 52.6C204.011 48.92 199.291 46.12 193.771 44.2C188.331 42.2 182.291 41.2 175.651 41.2C169.011 41.2 162.931 42.28 157.411 44.44C151.891 46.6 147.171 49.64 143.251 53.56C139.331 57.4 136.291 61.96 134.131 67.24C132.051 72.52 131.011 78.28 131.011 84.52C131.011 90.92 132.051 96.8 134.131 102.16C136.211 107.44 139.171 112 143.011 115.84C146.931 119.76 151.611 122.8 157.051 124.96C162.491 127.12 168.531 128.2 175.171 128.2C179.011 128.2 182.971 127.76 187.051 126.88C191.131 126.08 195.051 124.76 198.811 122.92L202.651 133.96C198.971 135.8 194.651 137.2 189.691 138.16C184.811 139.2 179.971 139.72 175.171 139.72ZM170.851 115.84C165.731 115.84 161.051 114.6 156.811 112.12C152.651 109.56 149.331 106 146.851 101.44C144.371 96.8 143.131 91.48 143.131 85.48C143.131 79.48 144.331 74.2 146.731 69.64C149.211 65.08 152.531 61.56 156.691 59.08C160.931 56.52 165.651 55.24 170.851 55.24C176.131 55.24 180.651 56.44 184.411 58.84C188.171 61.24 191.051 64.68 193.051 69.16C195.051 73.64 196.051 79.08 196.051 85.48C196.051 91.8 195.091 97.24 193.171 101.8C191.251 106.36 188.411 109.84 184.651 112.24C180.971 114.64 176.371 115.84 170.851 115.84ZM174.571 102.04C177.451 102.04 180.011 101.4 182.251 100.12C184.571 98.76 186.371 96.84 187.651 94.36C188.931 91.88 189.571 88.92 189.571 85.48C189.571 81.96 188.931 79 187.651 76.6C186.371 74.2 184.571 72.36 182.251 71.08C180.011 69.8 177.451 69.16 174.571 69.16C171.691 69.16 169.131 69.8 166.891 71.08C164.651 72.36 162.891 74.24 161.611 76.72C160.331 79.12 159.691 82.04 159.691 85.48C159.691 88.92 160.331 91.88 161.611 94.36C162.891 96.76 164.651 98.64 166.891 100C169.131 101.36 171.691 102.04 174.571 102.04Z" fill="var(--theme)"/>
</svg>
