<svg width="256" height="256" viewBox="0 0 256 256" fill="none" xmlns="http://www.w3.org/2000/svg">
<path d="M106.258 104.578L100.62 102.525L98.5675 108.164L80.7933 156.998C73.3929 177.33 75.7341 199.935 87.1446 218.319C90.1745 223.2 96.1509 225.376 101.61 223.584C122.168 216.835 138.491 201.024 145.892 180.692L163.666 131.857L165.718 126.219L160.08 124.167L106.258 104.578Z" fill="#FF2F5A" stroke="white" stroke-width="12"/>
<path d="M140.212 178.735L145.85 180.787L147.902 175.149L184.152 75.5526C190.695 57.5761 181.426 37.6993 163.45 31.1564C145.473 24.6135 125.597 33.8822 119.054 51.8587L82.8034 151.455L80.7513 157.094L86.3895 159.146L140.212 178.735Z" fill="#FF2F5A" stroke="white" stroke-width="12"/>
<path d="M68 68L188 189" stroke="#FF2F5A" stroke-width="54" stroke-linecap="round"/>
<path d="M68 68L188 189" stroke="white" stroke-width="30" stroke-linecap="round"/>
</svg>
