<svg viewBox="0 0 350 168" fill="none" xmlns="http://www.w3.org/2000/svg">
<rect width="350" height="168" rx="84" fill="var(--theme)" fill-opacity="0.25"/>
<path fill-rule="evenodd" clip-rule="evenodd" d="M158.075 62H177.5C193.718 62 207.36 73.0313 211.332 88H198.672C195.17 79.7702 187.009 74 177.5 74H155.764C155.59 73.0262 155.5 72.0237 155.5 71C155.5 67.6949 156.443 64.6101 158.075 62ZM132.491 62H117.5C98.17 62 82.5 77.67 82.5 97C82.5 116.33 98.17 132 117.5 132H177.5C191.462 132 203.515 123.825 209.132 112H194.936C190.718 116.898 184.471 120 177.5 120H117.5C104.797 120 94.5 109.703 94.5 97C94.5 84.2975 104.797 74 117.5 74H131.608C131.536 73.0093 131.5 72.0089 131.5 71C131.5 67.9081 131.842 64.8962 132.491 62Z" fill="var(--theme)"/>
<rect x="143.5" y="42" width="118" height="58" rx="29" stroke="var(--theme)" stroke-width="12"/>
</svg>
