<svg viewBox="0 0 30 30" fill="none" xmlns="http://www.w3.org/2000/svg">
<g clip-path="url(#clip0_299_3959)">
<path d="M20.0393 17.959C21.6412 15.1845 20.6906 11.6368 17.9161 10.035C15.1416 8.43311 11.5939 9.38371 9.99208 12.1582C8.39024 14.9327 9.34084 18.4804 12.1153 20.0822C14.8898 21.684 18.4375 20.7334 20.0393 17.959Z" stroke="#48A7FF" stroke-width="3.4375"/>
<path d="M14.3391 22.16L12.4145 24.0675C12.0567 24.4222 11.5058 24.4935 11.0695 24.2416L8.96159 23.0246C8.52529 22.7727 8.31156 22.2599 8.43978 21.7727L9.12946 19.1522L14.3391 22.16Z" fill="#48A7FF"/>
<path d="M15.6607 7.83969L17.5853 5.93217C17.9431 5.57752 18.494 5.50624 18.9303 5.75813L21.0382 6.97514C21.4745 7.22704 21.6883 7.73979 21.56 8.227L20.8704 10.8475L15.6607 7.83969Z" fill="#48A7FF"/>
<path d="M8.46869 18.0078L5.85443 17.2948C5.36838 17.1622 5.03119 16.7207 5.03119 16.2169L5.03119 13.7829C5.03119 13.2791 5.36838 12.8377 5.85442 12.7051L8.46869 11.9921L8.46869 18.0078Z" fill="#48A7FF"/>
<path d="M21.5313 11.9921L24.1456 12.7051C24.6316 12.8377 24.9688 13.2791 24.9688 13.7829L24.9688 16.2169C24.9688 16.7207 24.6316 17.1622 24.1456 17.2948L21.5313 18.0078L21.5313 11.9921Z" fill="#48A7FF"/>
<path d="M9.12949 10.8476L8.43982 8.22706C8.31159 7.73985 8.52532 7.2271 8.96162 6.9752L11.0695 5.75819C11.5058 5.5063 12.0568 5.57758 12.4146 5.93223L14.3392 7.83976L9.12949 10.8476Z" fill="#48A7FF"/>
<path d="M20.8705 19.1522L21.5602 21.7728C21.6884 22.26 21.4747 22.7727 21.0384 23.0246L18.9305 24.2416C18.4942 24.4935 17.9432 24.4222 17.5854 24.0676L15.6608 22.1601L20.8705 19.1522Z" fill="#48A7FF"/>
</g>
<defs>
<clipPath id="clip0_299_3959">
<rect width="22" height="22" fill="white" transform="matrix(0.866025 0.5 0.5 -0.866025 -0.0263062 19.0262)"/>
</clipPath>
</defs>
</svg>
