<svg viewBox="0 0 256 256" fill="none" xmlns="http://www.w3.org/2000/svg">
<mask id="mask0_71_368" style="mask-type:alpha" maskUnits="userSpaceOnUse" x="0" y="0" width="256" height="256">
<rect width="256" height="256" fill="var(--gray)"/>
</mask>
<g mask="url(#mask0_71_368)">
<path d="M224 134.43L218.938 136.894C215.397 138.616 211.525 141.777 207.256 146.171C203.014 150.537 198.948 155.508 194.698 160.58L192.001 163.8H159.296L164 151.569C164.792 149.51 165.636 147.52 166.529 145.6H66V111.2H166.701C165.821 109.265 164.986 107.275 164.2 105.23L159.496 93H191.964L194.66 96.1738C198.94 101.213 203.002 106.169 207.277 110.602C211.566 115.048 215.487 118.333 219.111 120.194L224 122.704V134.43Z" fill="var(--pageColor)" stroke="var(--pageColor)" stroke-width="18"/>
<path d="M32 134.43L37.0625 136.894C40.6035 138.616 44.4755 141.777 48.7441 146.171C52.9858 150.537 57.052 155.508 61.3018 160.58L63.999 163.8H96.7041L92 151.569C91.208 149.51 90.364 147.52 89.4707 145.6H190V111.2H89.2988C90.1793 109.265 91.0136 107.275 91.7998 105.23L96.5039 93H64.0361L61.3398 96.1738C57.0596 101.213 52.9982 106.169 48.7227 110.602C44.4336 115.048 40.5129 118.333 36.8887 120.194L32 122.704V134.43Z" fill="var(--pageColor)" stroke="var(--pageColor)" stroke-width="18"/>
<path d="M38 131.677L39.6875 132.498C48.8761 136.968 57.545 146.754 65.9004 156.727L66.7998 157.8H87.9678L86.4004 153.723C85.1968 150.593 83.8816 147.659 82.4531 144.924L81.834 143.764C81.0873 142.335 80.2957 140.948 79.4639 139.6H184V117.2H79.3418C80.1327 115.905 80.8984 114.585 81.6338 113.236L81.6465 113.212L81.6602 113.188C83.3164 110.013 84.8291 106.642 86.2002 103.077L87.7686 99H66.8115L65.9131 100.058C61.7307 104.982 57.4885 110.157 53.041 114.768C48.5892 119.383 44.1268 123.222 39.6299 125.531L38 126.368V131.677Z" fill="var(--darkGray)" stroke="var(--darkGray)" stroke-width="6"/>
<path d="M218 131.677L216.312 132.498C207.124 136.968 198.455 146.754 190.1 156.727L189.2 157.8H168.032L169.6 153.723C170.803 150.593 172.118 147.659 173.547 144.924L174.166 143.764C174.913 142.335 175.704 140.948 176.536 139.6H72V117.2H176.658C175.867 115.905 175.102 114.585 174.366 113.236L174.354 113.212L174.34 113.188C172.684 110.013 171.171 106.642 169.8 103.077L168.231 99H189.188L190.087 100.058C194.269 104.982 198.512 110.157 202.959 114.768C207.411 119.383 211.873 123.222 216.37 125.531L218 126.368V131.677Z" fill="var(--darkGray)" stroke="var(--darkGray)" stroke-width="6"/>
</g>
</svg>
