<svg viewBox="0 0 256 256" fill="none" xmlns="http://www.w3.org/2000/svg">
<mask id="mask0_72_490" style="mask-type:alpha" maskUnits="userSpaceOnUse" x="0" y="0" width="256" height="256">
<rect width="256" height="256" fill="var(--gray)"/>
</mask>
<g mask="url(#mask0_72_490)">
<path d="M123.669 129.762L126.794 131.264C126.797 130.913 126.8 130.558 126.8 130.2C126.8 129.516 126.79 128.816 126.771 128.1L123.669 129.762ZM184 191.187L171.379 185.64L139.979 171.84H139.978C139.969 171.836 139.96 171.832 139.951 171.828L139.882 171.798L138.558 171.224C138.554 171.222 138.549 171.221 138.545 171.219L138.487 171.193L136.466 170.317C136.456 170.313 136.445 170.309 136.436 170.305C136.423 170.299 136.41 170.294 136.397 170.288C136.393 170.286 136.39 170.284 136.386 170.282L134.168 169.321H134.166C134.165 169.321 134.164 169.32 134.163 169.319L134.018 169.257V169.256L133.933 169.22H133.932C133.93 169.219 133.929 169.218 133.928 169.218C133.926 169.217 133.924 169.216 133.923 169.216C133.922 169.215 133.92 169.214 133.919 169.214L133.918 169.213L133.865 169.19H133.864C133.862 169.19 133.86 169.188 133.858 169.188L133.845 169.182L133.743 169.138C133.74 169.136 133.736 169.135 133.733 169.134C133.732 169.133 133.732 169.132 133.73 169.132L133.254 168.926C133.248 168.923 133.241 168.921 133.235 168.918C133.233 168.917 133.231 168.916 133.229 168.915L132.512 168.604C132.508 168.602 132.504 168.601 132.501 168.6L132.473 168.587L131.877 168.328C131.873 168.327 131.869 168.326 131.865 168.324C131.854 168.319 131.842 168.314 131.83 168.309C131.818 168.303 131.806 168.298 131.794 168.293H131.796L131.424 168.133C131.419 168.131 131.415 168.129 131.41 168.127C131.397 168.121 131.384 168.115 131.37 168.109L131.367 168.107L131.16 168.019C131.146 168.012 131.132 168.006 131.117 168C131.113 167.998 131.108 167.995 131.104 167.993L128.021 166.658L127.989 166.644L127.957 166.63L77.3564 144.229L72 141.858V120.428L76.9883 117.943L127.188 92.9434L127.258 92.9082C127.281 92.8967 127.304 92.8845 127.326 92.873C127.348 92.8617 127.37 92.8501 127.393 92.8389C127.415 92.8275 127.438 92.816 127.46 92.8047C127.482 92.7935 127.505 92.7826 127.526 92.7715L127.657 92.7051C127.679 92.6941 127.7 92.6827 127.722 92.6719L127.912 92.5752C127.933 92.5645 127.954 92.5535 127.975 92.543C127.995 92.5324 128.017 92.5222 128.037 92.5117C128.058 92.5013 128.078 92.4908 128.099 92.4805C128.119 92.4701 128.139 92.4595 128.159 92.4492C128.179 92.439 128.2 92.4291 128.22 92.4189C128.24 92.4087 128.26 92.3978 128.28 92.3877C128.288 92.3835 128.297 92.3792 128.305 92.375L128.409 92.3213C128.425 92.3133 128.441 92.3058 128.457 92.2979L128.63 92.21C128.649 92.2005 128.667 92.191 128.686 92.1816C128.704 92.1721 128.724 92.1628 128.742 92.1533C128.761 92.1439 128.779 92.1344 128.798 92.125C128.816 92.1157 128.834 92.1059 128.853 92.0967C128.871 92.0874 128.889 92.0785 128.907 92.0693L129.068 91.9873C129.072 91.9856 129.075 91.9832 129.078 91.9814L129.139 91.9512C129.15 91.9453 129.161 91.9394 129.173 91.9336C129.19 91.9248 129.207 91.9159 129.225 91.9072C129.242 91.8985 129.259 91.8905 129.276 91.8818C129.293 91.8732 129.31 91.864 129.327 91.8555C129.344 91.847 129.36 91.8385 129.377 91.8301C129.394 91.8216 129.411 91.8131 129.428 91.8047C129.444 91.7963 129.46 91.7876 129.477 91.7793C129.493 91.771 129.509 91.7631 129.525 91.7549C129.542 91.7466 129.558 91.7377 129.574 91.7295C129.59 91.7213 129.606 91.7132 129.622 91.7051C129.638 91.697 129.654 91.6896 129.67 91.6816C129.686 91.6737 129.701 91.6651 129.717 91.6572C129.732 91.6493 129.748 91.6416 129.764 91.6338C129.765 91.633 129.767 91.6317 129.769 91.6309L129.875 91.5762C129.884 91.5717 129.893 91.5679 129.901 91.5635C129.916 91.5559 129.931 91.5485 129.946 91.541C129.961 91.5334 129.976 91.5251 129.991 91.5176C130.001 91.5127 130.01 91.5077 130.02 91.5029L130.092 91.4658C130.102 91.4607 130.112 91.4562 130.122 91.4512C130.136 91.4439 130.151 91.4369 130.165 91.4297L130.291 91.3652L130.373 91.3242L130.453 91.2832C130.466 91.2765 130.479 91.2693 130.492 91.2627L130.57 91.2236L130.646 91.1846C130.659 91.1783 130.671 91.1723 130.684 91.166C130.696 91.1597 130.708 91.1527 130.721 91.1465C130.733 91.1402 130.746 91.1341 130.758 91.1279C130.77 91.1218 130.782 91.1155 130.794 91.1094C130.806 91.1033 130.818 91.0978 130.83 91.0918C130.842 91.0858 130.854 91.0792 130.865 91.0732L130.936 91.0381L131.004 91.0029C131.015 90.9973 131.026 90.9919 131.037 90.9863C131.048 90.9807 131.059 90.9743 131.07 90.9688C131.081 90.9631 131.093 90.9577 131.104 90.9521C131.114 90.9466 131.125 90.941 131.136 90.9355C131.146 90.9301 131.157 90.9253 131.168 90.9199C131.179 90.9145 131.19 90.9087 131.2 90.9033L131.231 90.8877L131.498 90.751L131.607 90.6963C131.616 90.6918 131.625 90.687 131.634 90.6826C131.637 90.6808 131.641 90.6786 131.645 90.6768L131.786 90.6045C131.794 90.6005 131.802 90.5967 131.81 90.5928C131.818 90.5887 131.826 90.5851 131.834 90.5811L131.857 90.5693L131.933 90.5303C131.938 90.5276 131.943 90.5251 131.948 90.5225C131.956 90.5187 131.963 90.5154 131.971 90.5117C131.978 90.508 131.985 90.5037 131.992 90.5L132.035 90.4785C132.042 90.475 132.049 90.4712 132.056 90.4678C132.062 90.4643 132.069 90.4614 132.076 90.458C132.083 90.4546 132.09 90.4507 132.097 90.4473L132.155 90.418L132.196 90.3965C132.202 90.3938 132.207 90.3913 132.212 90.3887C132.214 90.3875 132.216 90.386 132.219 90.3848L132.301 90.3438C132.306 90.3409 132.312 90.3377 132.317 90.335C132.32 90.3334 132.323 90.3316 132.326 90.3301L132.367 90.3096C132.372 90.307 132.377 90.3042 132.382 90.3018L132.413 90.2861C132.418 90.2837 132.423 90.2817 132.428 90.2793C132.433 90.2768 132.438 90.274 132.443 90.2715C132.448 90.269 132.453 90.2661 132.458 90.2637C132.463 90.2613 132.467 90.2591 132.472 90.2568C132.476 90.2544 132.482 90.2514 132.486 90.249L132.514 90.2354C132.518 90.2332 132.522 90.2307 132.526 90.2285C132.531 90.2263 132.536 90.2239 132.54 90.2217C132.544 90.2196 132.549 90.2179 132.553 90.2158C132.557 90.2137 132.561 90.2111 132.565 90.209C132.567 90.2083 132.568 90.2068 132.569 90.2061L132.583 90.1992C132.585 90.1981 132.588 90.1974 132.59 90.1963L132.637 90.1729C132.64 90.171 132.644 90.1688 132.647 90.167C132.651 90.1652 132.655 90.1639 132.658 90.1621C132.662 90.1603 132.665 90.158 132.669 90.1562C132.671 90.1554 132.672 90.1542 132.674 90.1533L132.683 90.1494C132.685 90.1482 132.687 90.1467 132.689 90.1455C132.693 90.1438 132.697 90.1423 132.7 90.1406L132.72 90.1309C132.723 90.1293 132.726 90.1275 132.729 90.126C132.732 90.1244 132.735 90.1226 132.738 90.1211C132.739 90.1206 132.74 90.1197 132.741 90.1191L132.754 90.1123C132.757 90.1108 132.762 90.1089 132.765 90.1074C132.767 90.1061 132.77 90.1048 132.772 90.1035C132.775 90.1021 132.779 90.101 132.781 90.0996C132.784 90.0983 132.786 90.097 132.789 90.0957C132.792 90.0943 132.794 90.0921 132.797 90.0908L132.834 90.0723C132.836 90.0711 132.839 90.0704 132.841 90.0693C132.843 90.0682 132.845 90.0665 132.848 90.0654C132.85 90.0644 132.852 90.0635 132.854 90.0625L132.855 90.0605L132.862 90.0576L132.89 90.0439C132.891 90.0431 132.893 90.0428 132.895 90.042C132.896 90.0411 132.899 90.0399 132.9 90.0391C132.902 90.0382 132.904 90.037 132.905 90.0361L132.907 90.0352L132.921 90.0273C132.922 90.0269 132.923 90.0268 132.924 90.0264C132.925 90.0256 132.927 90.0251 132.929 90.0244L132.937 90.0205H132.936L132.959 90.0088C132.96 90.0083 132.961 90.0074 132.962 90.0068L132.981 89.9971L132.984 89.9961L132.988 89.9941V89.9932L133.002 89.9863H133.004L133.006 89.9854L133.007 89.9844H133.008L133.009 89.9834L133.011 89.9824H133.012V89.9814H133.014L133.015 89.9805H133.016L133.017 89.9795L133.018 89.9785H133.02V89.9775H133.021L133.022 89.9766L133.025 89.9746H133.026L133.027 89.9736H133.028L133.031 89.9717L133.033 89.9707H133.034L133.036 89.9697L133.037 89.9688H133.038L133.041 89.9668L133.055 89.96L133.058 89.959L133.06 89.958L133.062 89.9561L133.064 89.9551L133.067 89.9541C133.068 89.9536 133.069 89.9526 133.07 89.9521C133.071 89.9517 133.072 89.9516 133.073 89.9512C133.074 89.9507 133.075 89.9497 133.076 89.9492L133.077 89.9482L133.108 89.9326C133.11 89.9319 133.112 89.9314 133.113 89.9307C133.115 89.93 133.116 89.9294 133.117 89.9287C133.119 89.928 133.121 89.9266 133.122 89.9258C133.124 89.925 133.125 89.9246 133.127 89.9238C133.128 89.9231 133.13 89.9217 133.132 89.9209L133.134 89.9189L133.142 89.916C133.143 89.9152 133.145 89.9139 133.146 89.9131C133.148 89.9126 133.148 89.9117 133.149 89.9111L133.176 89.8984L133.188 89.8926C133.189 89.8921 133.189 89.8911 133.19 89.8906L133.213 89.8789C133.215 89.8777 133.219 89.8762 133.222 89.875C133.224 89.8738 133.227 89.8724 133.229 89.8711C133.232 89.87 133.234 89.8693 133.236 89.8682C133.239 89.8669 133.242 89.8655 133.244 89.8643C133.247 89.863 133.249 89.8607 133.252 89.8594C133.255 89.858 133.258 89.8569 133.261 89.8555C133.263 89.8542 133.266 89.8529 133.269 89.8516L133.27 89.8506L133.295 89.8379C133.298 89.8365 133.301 89.8355 133.304 89.834C133.307 89.8325 133.31 89.8306 133.312 89.8291L133.352 89.8096C133.355 89.8079 133.359 89.8055 133.362 89.8037C133.366 89.8021 133.369 89.8005 133.372 89.7988C133.376 89.7971 133.379 89.7948 133.383 89.793C133.386 89.7912 133.39 89.7899 133.394 89.7881C133.397 89.7862 133.402 89.7841 133.405 89.7822C133.409 89.7804 133.412 89.7782 133.416 89.7764L133.451 89.7588C133.455 89.7567 133.46 89.754 133.464 89.752C133.468 89.7499 133.472 89.7482 133.477 89.7461C133.481 89.744 133.485 89.7414 133.489 89.7393C133.49 89.7387 133.491 89.7378 133.492 89.7373L133.562 89.7021C133.564 89.7008 133.567 89.6996 133.569 89.6982C133.574 89.6959 133.579 89.6938 133.584 89.6914L133.613 89.6758C133.616 89.6745 133.618 89.6732 133.621 89.6719L133.664 89.6494C133.668 89.6476 133.671 89.6463 133.675 89.6445C133.68 89.6418 133.686 89.6395 133.691 89.6367C133.697 89.634 133.703 89.6307 133.708 89.6279C133.71 89.6267 133.712 89.6252 133.715 89.624L133.741 89.6104C133.747 89.6076 133.752 89.6053 133.758 89.6025L133.793 89.585C133.799 89.5819 133.805 89.5783 133.812 89.5752C133.815 89.5734 133.819 89.5712 133.822 89.5693L133.835 89.5625C133.839 89.5604 133.843 89.5588 133.848 89.5566C133.854 89.5535 133.861 89.5501 133.867 89.5469C133.873 89.5437 133.879 89.5403 133.886 89.5371L133.937 89.5117L133.951 89.5039C133.956 89.5016 133.96 89.4994 133.965 89.4971L133.985 89.4873L134.115 89.4209C134.123 89.4171 134.13 89.413 134.138 89.4092C134.145 89.4053 134.153 89.4014 134.161 89.3975C134.169 89.3937 134.176 89.3896 134.184 89.3857L134.208 89.374L134.256 89.3496L134.305 89.3242L134.355 89.2988C134.364 89.2945 134.373 89.2896 134.382 89.2852C134.387 89.2827 134.392 89.2799 134.396 89.2773L134.544 89.2031L134.601 89.1738C134.61 89.169 134.62 89.1641 134.63 89.1592C134.639 89.1544 134.649 89.1494 134.658 89.1445C134.668 89.1395 134.679 89.1349 134.688 89.1299C134.698 89.1249 134.708 89.1193 134.718 89.1143C134.728 89.1092 134.738 89.1038 134.748 89.0986L134.842 89.0518C134.852 89.0464 134.862 89.0405 134.873 89.0352L134.905 89.0195L134.979 88.9814C134.987 88.9772 134.995 88.9731 135.004 88.9688C135.011 88.9649 135.019 88.9609 135.026 88.957L135.106 88.917C135.118 88.9112 135.129 88.9053 135.141 88.8994C135.152 88.8935 135.164 88.8878 135.176 88.8818C135.188 88.8758 135.2 88.8693 135.212 88.8633L135.247 88.8457L135.332 88.8018L135.395 88.7705L135.471 88.7314L135.549 88.6924C135.562 88.6857 135.576 88.6786 135.589 88.6719C135.602 88.6652 135.615 88.6581 135.628 88.6514C135.641 88.6446 135.655 88.6377 135.669 88.6309C135.682 88.6241 135.696 88.6172 135.709 88.6104C135.715 88.6072 135.721 88.6037 135.728 88.6006L135.792 88.5684C135.806 88.5613 135.82 88.554 135.834 88.5469C135.848 88.5397 135.863 88.5326 135.877 88.5254C135.891 88.5183 135.905 88.5111 135.919 88.5039C135.933 88.4966 135.948 88.4888 135.963 88.4814C135.977 88.4742 135.991 88.4663 136.006 88.459C136.015 88.4545 136.023 88.4498 136.032 88.4453L136.072 88.4248C136.08 88.4211 136.087 88.4178 136.095 88.4141C136.11 88.4065 136.125 88.3992 136.14 88.3916L136.277 88.3213C136.293 88.3134 136.309 88.3058 136.324 88.2979C136.34 88.2899 136.355 88.2814 136.371 88.2734C136.382 88.2678 136.393 88.2615 136.404 88.2559L136.481 88.2168C136.493 88.2111 136.504 88.206 136.516 88.2002C136.532 88.192 136.548 88.1841 136.564 88.1758L136.664 88.125C136.668 88.123 136.672 88.1202 136.676 88.1182L136.884 88.0127L136.974 87.9678C136.991 87.9588 137.009 87.9494 137.026 87.9404L137.134 87.8857C137.152 87.8766 137.17 87.8676 137.188 87.8584L137.355 87.7734C137.359 87.7716 137.363 87.7694 137.366 87.7676L137.644 87.627C137.663 87.6171 137.683 87.6067 137.702 87.5967C137.714 87.5909 137.725 87.5849 137.736 87.5791L137.787 87.5527C137.798 87.547 137.81 87.5419 137.821 87.5361C137.841 87.526 137.862 87.5161 137.882 87.5059L138.066 87.4121C138.087 87.4016 138.108 87.3905 138.129 87.3799L138.256 87.3154C138.266 87.3101 138.277 87.3042 138.287 87.2988L138.731 87.0732C138.749 87.0645 138.766 87.0557 138.783 87.0469C138.806 87.0354 138.829 87.0243 138.852 87.0127C138.874 87.0011 138.898 86.9893 138.921 86.9775L138.948 86.9639L138.975 86.9502L184 64.4375V100.305L178.841 102.739L156.827 113.125C157.767 118.778 158.2 124.403 158.2 130.2C158.2 135.048 157.914 139.849 157.276 144.652L178.466 153.494L184 155.804V191.187Z" fill="var(--pageColor)" stroke="var(--pageColor)" stroke-width="18"/>
<path d="M107.116 130.052L132.223 140.729C132.603 137.591 132.8 134.062 132.8 130.2C132.8 126.614 132.567 122.663 132.01 118.252L107.116 130.052ZM178 181.995L173.793 180.146L142.393 166.347V166.346C142.374 166.338 142.355 166.33 142.337 166.322C142.314 166.312 142.291 166.302 142.268 166.292C142.245 166.282 142.221 166.273 142.198 166.263C142.175 166.253 142.153 166.242 142.13 166.232L141.995 166.174C141.973 166.164 141.951 166.155 141.929 166.146C141.907 166.136 141.884 166.126 141.862 166.116C141.84 166.107 141.818 166.097 141.796 166.088C141.774 166.079 141.753 166.069 141.731 166.06C141.71 166.05 141.687 166.041 141.666 166.031L141.476 165.949L141.351 165.895C141.33 165.886 141.309 165.877 141.289 165.868L141.168 165.815C141.148 165.807 141.128 165.799 141.108 165.79C141.089 165.781 141.068 165.772 141.049 165.764C141.029 165.755 141.009 165.747 140.989 165.738L140.931 165.713C140.911 165.705 140.892 165.696 140.873 165.688C140.854 165.679 140.834 165.671 140.815 165.663C140.797 165.655 140.778 165.647 140.759 165.639C140.748 165.634 140.737 165.629 140.726 165.624L140.683 165.605C140.67 165.6 140.658 165.595 140.646 165.59C140.627 165.582 140.609 165.573 140.591 165.565C140.572 165.557 140.553 165.55 140.535 165.542C140.517 165.534 140.499 165.525 140.48 165.518C140.462 165.51 140.445 165.502 140.427 165.494C140.409 165.486 140.391 165.479 140.373 165.472C140.355 165.464 140.338 165.456 140.32 165.448C140.303 165.441 140.285 165.433 140.268 165.426C140.25 165.418 140.232 165.41 140.215 165.402C140.198 165.395 140.18 165.388 140.163 165.381L140.062 165.336C140.045 165.329 140.028 165.322 140.012 165.314C139.995 165.307 139.977 165.3 139.961 165.293L139.863 165.25C139.847 165.243 139.831 165.236 139.814 165.229C139.803 165.224 139.792 165.219 139.78 165.214L139.66 165.162C139.649 165.157 139.637 165.152 139.625 165.147C139.61 165.141 139.594 165.134 139.579 165.127C139.564 165.12 139.548 165.114 139.533 165.107L139.398 165.049C139.384 165.043 139.369 165.037 139.354 165.03C139.344 165.026 139.334 165.021 139.324 165.017L139.216 164.969C139.205 164.964 139.194 164.961 139.184 164.956C139.17 164.95 139.155 164.943 139.142 164.938C139.128 164.931 139.113 164.926 139.1 164.92C139.086 164.914 139.072 164.907 139.059 164.901L139.004 164.877C138.996 164.873 138.987 164.871 138.979 164.867C138.965 164.861 138.952 164.855 138.938 164.85C138.933 164.847 138.928 164.845 138.923 164.843L138.852 164.812C138.842 164.807 138.831 164.803 138.821 164.799C138.809 164.793 138.796 164.788 138.783 164.782C138.779 164.78 138.775 164.778 138.771 164.776L138.729 164.759C138.722 164.756 138.715 164.753 138.708 164.75C138.696 164.745 138.684 164.74 138.672 164.734C138.66 164.729 138.647 164.723 138.635 164.718C138.623 164.713 138.611 164.707 138.599 164.702C138.597 164.701 138.595 164.7 138.593 164.699L138.551 164.682C138.543 164.678 138.535 164.675 138.527 164.672C138.516 164.667 138.505 164.661 138.493 164.656C138.482 164.651 138.469 164.647 138.458 164.642C138.447 164.637 138.435 164.632 138.424 164.627C138.413 164.622 138.402 164.617 138.391 164.612C138.379 164.607 138.368 164.602 138.356 164.598C138.346 164.593 138.335 164.588 138.324 164.583C138.313 164.578 138.302 164.574 138.291 164.569C138.28 164.565 138.269 164.559 138.259 164.555C138.248 164.55 138.237 164.546 138.227 164.541L138.164 164.514C138.154 164.509 138.144 164.505 138.134 164.501C138.124 164.497 138.113 164.492 138.103 164.487L138.073 164.475C138.063 164.47 138.053 164.466 138.043 164.462L137.984 164.437C137.975 164.432 137.965 164.428 137.956 164.424C137.951 164.422 137.947 164.419 137.942 164.417L137.916 164.406C137.911 164.404 137.905 164.402 137.899 164.399L137.817 164.364L137.765 164.341C137.756 164.337 137.748 164.334 137.739 164.33C137.731 164.326 137.721 164.322 137.713 164.318C137.705 164.315 137.697 164.311 137.688 164.308C137.68 164.304 137.671 164.3 137.663 164.297L137.614 164.275C137.606 164.272 137.598 164.269 137.59 164.266C137.582 164.262 137.574 164.258 137.566 164.255C137.559 164.252 137.551 164.248 137.543 164.245C137.535 164.242 137.528 164.239 137.521 164.235C137.513 164.232 137.505 164.229 137.497 164.226C137.49 164.222 137.482 164.219 137.475 164.216L137.432 164.196C137.425 164.193 137.417 164.191 137.41 164.188C137.403 164.184 137.396 164.181 137.389 164.178C137.382 164.175 137.374 164.172 137.367 164.169C137.36 164.166 137.353 164.163 137.347 164.16C137.34 164.157 137.334 164.154 137.327 164.151C137.32 164.148 137.313 164.145 137.307 164.143C137.3 164.14 137.294 164.137 137.287 164.134C137.281 164.131 137.274 164.129 137.268 164.126C137.261 164.123 137.255 164.12 137.249 164.117C137.243 164.114 137.236 164.112 137.229 164.109C137.223 164.107 137.217 164.103 137.211 164.101L137.172 164.084C137.167 164.082 137.162 164.08 137.157 164.078C137.151 164.076 137.145 164.073 137.14 164.07C137.134 164.068 137.129 164.065 137.123 164.062C137.117 164.06 137.111 164.058 137.105 164.056C137.1 164.053 137.094 164.05 137.089 164.048C137.083 164.046 137.078 164.043 137.072 164.041L137.01 164.014C137.008 164.013 137.007 164.012 137.006 164.012L136.988 164.004C136.986 164.003 136.982 164.002 136.979 164.001C136.976 164 136.974 163.997 136.971 163.996L136.938 163.982C136.933 163.98 136.927 163.979 136.923 163.977C136.918 163.975 136.914 163.973 136.909 163.971C136.905 163.969 136.901 163.967 136.896 163.965C136.892 163.963 136.887 163.961 136.883 163.959C136.879 163.957 136.874 163.955 136.87 163.953C136.866 163.951 136.862 163.95 136.857 163.948C136.853 163.946 136.85 163.944 136.846 163.942C136.842 163.941 136.837 163.939 136.833 163.938C136.83 163.936 136.827 163.934 136.824 163.933L136.763 163.906C136.76 163.905 136.757 163.905 136.754 163.903C136.751 163.902 136.747 163.9 136.744 163.898C136.741 163.897 136.737 163.896 136.733 163.895C136.73 163.893 136.727 163.891 136.724 163.89L136.704 163.882C136.702 163.881 136.7 163.879 136.697 163.878L136.665 163.864C136.663 163.863 136.661 163.863 136.659 163.862C136.656 163.861 136.654 163.86 136.651 163.858C136.649 163.857 136.645 163.856 136.643 163.854C136.64 163.853 136.637 163.853 136.635 163.852C136.632 163.85 136.63 163.849 136.627 163.848C136.624 163.847 136.622 163.846 136.619 163.845C136.617 163.844 136.614 163.842 136.611 163.841L136.598 163.835C136.595 163.834 136.592 163.833 136.59 163.832C136.588 163.831 136.586 163.83 136.584 163.829L136.57 163.823L136.562 163.819C136.561 163.819 136.559 163.819 136.558 163.818L136.546 163.812C136.544 163.812 136.543 163.811 136.541 163.811C136.539 163.81 136.537 163.809 136.535 163.809C136.533 163.808 136.532 163.806 136.53 163.806C136.529 163.805 136.526 163.804 136.524 163.804C136.523 163.803 136.521 163.802 136.52 163.802C136.518 163.801 136.516 163.8 136.515 163.799C136.513 163.798 136.511 163.798 136.51 163.797L136.495 163.79H136.492L136.48 163.784C136.479 163.784 136.478 163.784 136.477 163.783C136.475 163.783 136.475 163.782 136.474 163.781C136.472 163.781 136.471 163.781 136.47 163.78C136.469 163.78 136.468 163.779 136.467 163.778C136.466 163.778 136.465 163.778 136.464 163.777C136.463 163.777 136.461 163.776 136.46 163.775L136.457 163.774L136.455 163.773L136.452 163.772L136.449 163.771L136.446 163.77L136.442 163.768L136.439 163.767L136.434 163.764H136.432L136.43 163.763L136.429 163.762L136.427 163.761H136.426L136.424 163.76H136.423L136.421 163.759L136.42 163.758H136.419L136.418 163.757H136.416L136.415 163.756H136.413V163.755H136.411V163.754H136.409L136.408 163.753H136.406V163.752H136.404V163.751H136.402L136.401 163.75H136.4L136.399 163.749H136.398L136.397 163.748H136.396L136.394 163.746H136.392L136.391 163.745H136.389L136.388 163.744L136.386 163.743H136.385L136.375 163.738L136.372 163.737L136.37 163.736L136.367 163.735L136.365 163.734L136.359 163.732L136.356 163.73L136.351 163.729C136.35 163.728 136.349 163.727 136.348 163.727C136.347 163.726 136.346 163.726 136.345 163.726C136.344 163.725 136.342 163.724 136.341 163.724C136.34 163.723 136.338 163.723 136.337 163.723C136.336 163.722 136.335 163.721 136.334 163.721L136.333 163.72L136.328 163.718H136.326C136.325 163.717 136.324 163.716 136.322 163.716C136.321 163.715 136.319 163.714 136.317 163.714C136.316 163.713 136.315 163.712 136.313 163.712C136.312 163.711 136.31 163.711 136.309 163.71C136.307 163.709 136.306 163.709 136.305 163.708L136.29 163.702C136.288 163.701 136.286 163.7 136.284 163.699C136.283 163.699 136.281 163.698 136.279 163.697C136.277 163.696 136.275 163.696 136.273 163.695C136.272 163.695 136.269 163.693 136.268 163.692C136.267 163.692 136.266 163.691 136.265 163.69L136.26 163.688C136.259 163.688 136.257 163.688 136.256 163.688L136.244 163.682L136.203 163.664C136.201 163.663 136.198 163.662 136.195 163.661C136.193 163.66 136.19 163.658 136.188 163.657C136.185 163.656 136.182 163.655 136.18 163.654C136.177 163.653 136.175 163.652 136.172 163.65C136.169 163.649 136.166 163.649 136.163 163.647C136.16 163.646 136.158 163.645 136.155 163.644L136.129 163.632C136.126 163.631 136.122 163.629 136.119 163.628C136.116 163.627 136.113 163.625 136.11 163.624C136.107 163.623 136.104 163.621 136.101 163.62C136.097 163.619 136.094 163.617 136.091 163.615C136.088 163.614 136.084 163.613 136.081 163.611C136.078 163.61 136.074 163.608 136.07 163.606C136.067 163.605 136.064 163.604 136.061 163.603L136.039 163.593C136.035 163.591 136.031 163.59 136.027 163.588C136.024 163.586 136.02 163.585 136.017 163.583L135.981 163.568C135.977 163.567 135.973 163.564 135.969 163.562C135.965 163.561 135.961 163.559 135.957 163.558C135.953 163.556 135.949 163.554 135.944 163.552C135.94 163.55 135.936 163.549 135.932 163.547L135.904 163.535C135.9 163.533 135.896 163.531 135.892 163.529C135.887 163.527 135.882 163.525 135.877 163.523C135.872 163.521 135.868 163.519 135.863 163.517L135.834 163.505L135.805 163.491C135.8 163.489 135.794 163.488 135.789 163.485L135.758 163.472C135.752 163.469 135.747 163.466 135.741 163.464C135.736 163.462 135.731 163.459 135.726 163.457C135.72 163.455 135.714 163.453 135.709 163.45C135.703 163.448 135.697 163.445 135.691 163.442C135.686 163.44 135.68 163.438 135.675 163.436L135.64 163.42C135.634 163.417 135.627 163.415 135.621 163.412C135.615 163.41 135.609 163.407 135.604 163.404C135.597 163.402 135.591 163.399 135.585 163.396C135.579 163.394 135.572 163.39 135.565 163.388C135.559 163.385 135.553 163.383 135.547 163.38C135.54 163.377 135.534 163.374 135.527 163.371C135.521 163.368 135.514 163.366 135.508 163.363C135.501 163.36 135.494 163.357 135.487 163.354C135.481 163.352 135.474 163.349 135.468 163.346C135.461 163.343 135.453 163.34 135.446 163.337C135.439 163.334 135.433 163.33 135.426 163.327C135.419 163.324 135.411 163.321 135.404 163.318C135.397 163.315 135.39 163.312 135.383 163.309C135.376 163.306 135.368 163.303 135.361 163.3C135.354 163.297 135.346 163.293 135.339 163.29C135.332 163.287 135.325 163.283 135.317 163.28C135.31 163.277 135.302 163.274 135.294 163.271C135.287 163.267 135.279 163.264 135.271 163.261C135.264 163.257 135.256 163.253 135.248 163.25C135.24 163.247 135.232 163.244 135.225 163.24L135.151 163.208L135.075 163.176C135.067 163.172 135.058 163.168 135.05 163.164C135.041 163.16 135.032 163.157 135.023 163.153C135.015 163.15 135.006 163.145 134.997 163.142L134.942 163.118C134.937 163.116 134.931 163.113 134.926 163.11L134.897 163.098C134.894 163.096 134.89 163.095 134.887 163.094C134.877 163.09 134.868 163.085 134.858 163.081C134.849 163.077 134.84 163.073 134.83 163.069L134.771 163.044C134.762 163.04 134.751 163.036 134.741 163.031C134.731 163.027 134.722 163.022 134.712 163.018C134.702 163.013 134.691 163.009 134.681 163.005C134.671 163.001 134.661 162.996 134.65 162.991L134.588 162.964L134.523 162.937C134.513 162.932 134.501 162.927 134.49 162.922C134.479 162.917 134.468 162.913 134.457 162.908L134.391 162.879C134.379 162.874 134.368 162.869 134.356 162.864C134.345 162.859 134.333 162.854 134.321 162.849C134.31 162.844 134.298 162.839 134.286 162.834L134.216 162.803C134.204 162.798 134.192 162.792 134.18 162.787L134.105 162.756L134.031 162.723L133.954 162.689L133.876 162.656L133.756 162.604C133.742 162.598 133.728 162.592 133.715 162.586C133.701 162.58 133.687 162.573 133.673 162.567C133.659 162.561 133.645 162.556 133.631 162.55C133.617 162.544 133.603 162.537 133.589 162.531L133.503 162.494C133.489 162.488 133.474 162.482 133.459 162.476L133.371 162.437C133.356 162.43 133.341 162.424 133.326 162.418C133.316 162.414 133.306 162.408 133.296 162.403L133.236 162.378C133.221 162.371 133.204 162.365 133.188 162.358C133.173 162.352 133.158 162.345 133.143 162.338C133.127 162.331 133.11 162.324 133.095 162.317C133.079 162.311 133.064 162.304 133.048 162.297C133.032 162.29 133.016 162.283 133 162.276C132.984 162.269 132.967 162.262 132.951 162.255C132.935 162.248 132.919 162.241 132.902 162.234C132.886 162.227 132.869 162.22 132.853 162.213C132.836 162.206 132.819 162.198 132.803 162.19C132.786 162.183 132.77 162.176 132.753 162.169C132.736 162.162 132.719 162.155 132.702 162.147C132.685 162.14 132.668 162.132 132.65 162.125C132.633 162.118 132.617 162.11 132.6 162.103C132.582 162.095 132.564 162.088 132.547 162.08C132.529 162.073 132.512 162.064 132.494 162.057C132.477 162.049 132.459 162.042 132.441 162.034L132.334 161.987C132.316 161.979 132.297 161.972 132.279 161.964C132.261 161.956 132.242 161.948 132.224 161.94L132.112 161.892L131.999 161.843C131.98 161.835 131.961 161.826 131.941 161.817C131.928 161.812 131.915 161.806 131.901 161.8L131.766 161.741C131.746 161.733 131.726 161.724 131.706 161.716C131.686 161.707 131.666 161.698 131.646 161.689C131.626 161.681 131.606 161.672 131.586 161.663L131.463 161.61C131.442 161.601 131.422 161.592 131.401 161.583C131.381 161.574 131.36 161.566 131.339 161.557C131.318 161.548 131.297 161.538 131.275 161.529C131.254 161.52 131.233 161.51 131.212 161.501C131.191 161.492 131.169 161.483 131.147 161.474C131.126 161.464 131.105 161.455 131.083 161.445L130.952 161.389C130.93 161.379 130.908 161.37 130.886 161.36C130.864 161.351 130.842 161.341 130.819 161.331C130.797 161.321 130.774 161.312 130.752 161.302L130.615 161.243C130.592 161.233 130.57 161.223 130.547 161.213C130.524 161.203 130.501 161.193 130.478 161.183C130.454 161.173 130.431 161.163 130.407 161.152L130.396 161.148L130.386 161.144L79.7852 138.743L78 137.953V124.143L79.6631 123.314L129.862 98.3145C129.878 98.3065 129.894 98.2989 129.909 98.291C129.932 98.2794 129.955 98.2674 129.978 98.2559L130.18 98.1533C130.202 98.1422 130.223 98.1312 130.245 98.1201C130.267 98.1089 130.29 98.097 130.312 98.0859C130.333 98.075 130.355 98.0646 130.376 98.0537C130.397 98.0428 130.419 98.0313 130.44 98.0205C130.462 98.0096 130.484 97.9991 130.505 97.9883C130.526 97.9775 130.547 97.9658 130.568 97.9551C130.582 97.9479 130.596 97.9407 130.61 97.9336L130.851 97.8125C130.86 97.8077 130.869 97.8027 130.879 97.7979C130.899 97.7876 130.919 97.7768 130.939 97.7666L131.118 97.6758C131.138 97.6659 131.157 97.6563 131.177 97.6465L131.292 97.5879C131.311 97.5782 131.33 97.5682 131.349 97.5586L131.405 97.5303L131.572 97.4453C131.591 97.436 131.609 97.4262 131.627 97.417L131.734 97.3623C131.746 97.3565 131.757 97.3505 131.769 97.3447L131.82 97.3184C131.827 97.315 131.834 97.3119 131.841 97.3086L131.996 97.2295C132.013 97.2209 132.03 97.2126 132.047 97.2041L132.196 97.1279C132.213 97.1196 132.229 97.1108 132.245 97.1025C132.261 97.0943 132.278 97.0863 132.294 97.0781L132.39 97.0293C132.405 97.0213 132.421 97.0137 132.437 97.0059C132.452 96.9979 132.468 96.9893 132.483 96.9814L132.575 96.9346C132.59 96.9268 132.606 96.9198 132.621 96.9121C132.636 96.9044 132.651 96.8963 132.666 96.8887C132.681 96.8811 132.696 96.8737 132.711 96.8662L132.799 96.8213C132.813 96.814 132.828 96.807 132.842 96.7998C132.844 96.7987 132.846 96.797 132.848 96.7959L133.068 96.6846C133.076 96.6805 133.085 96.6759 133.093 96.6719C133.106 96.6651 133.12 96.6581 133.133 96.6514C133.141 96.6471 133.15 96.6429 133.158 96.6387L133.19 96.6221L133.251 96.5918L133.252 96.5908L133.364 96.5332L133.478 96.4766L133.55 96.4395L133.62 96.4043C133.632 96.3984 133.644 96.3916 133.655 96.3857C133.663 96.382 133.67 96.3777 133.677 96.374L133.727 96.3496C133.737 96.3444 133.747 96.3391 133.757 96.334L133.823 96.3008L133.888 96.2676C133.898 96.2623 133.909 96.2572 133.919 96.252C133.929 96.2466 133.941 96.2406 133.951 96.2354C133.961 96.2302 133.971 96.2248 133.981 96.2197C133.992 96.2145 134.003 96.2093 134.013 96.2041C134.023 96.199 134.033 96.1935 134.043 96.1885C134.053 96.1834 134.063 96.1788 134.073 96.1738C134.083 96.1688 134.093 96.1631 134.103 96.1582C134.112 96.1533 134.122 96.1484 134.132 96.1436C134.141 96.1387 134.151 96.1337 134.16 96.1289L134.217 96.1006C134.226 96.0958 134.236 96.0906 134.245 96.0859L134.3 96.0586L134.354 96.0303C134.362 96.026 134.371 96.0218 134.379 96.0176C134.388 96.0132 134.397 96.0092 134.405 96.0049C134.414 96.0006 134.422 95.9964 134.431 95.9922C134.439 95.9879 134.448 95.9828 134.456 95.9785C134.464 95.9743 134.472 95.97 134.48 95.9658C134.489 95.9617 134.497 95.9582 134.505 95.9541C134.513 95.95 134.521 95.9455 134.529 95.9414C134.537 95.9373 134.546 95.9337 134.554 95.9297C134.562 95.9257 134.569 95.9209 134.577 95.917C134.585 95.9131 134.593 95.9091 134.601 95.9053C134.608 95.9014 134.616 95.8974 134.623 95.8936C134.63 95.8898 134.638 95.8865 134.646 95.8828L134.69 95.8594L134.755 95.8271L134.796 95.8057C134.803 95.8022 134.81 95.7993 134.816 95.7959C134.823 95.7925 134.829 95.7885 134.836 95.7852L134.895 95.7559C134.901 95.7527 134.907 95.7492 134.913 95.7461C134.919 95.743 134.926 95.7404 134.932 95.7373C134.938 95.7342 134.943 95.7306 134.949 95.7275C134.955 95.7245 134.962 95.7218 134.968 95.7188L135.003 95.7012C135.009 95.6983 135.014 95.6952 135.02 95.6924C135.025 95.6895 135.032 95.6864 135.037 95.6836C135.043 95.6808 135.048 95.6776 135.054 95.6748C135.059 95.6721 135.064 95.6696 135.069 95.667C135.075 95.6642 135.081 95.6609 135.086 95.6582L135.133 95.6348C135.138 95.6322 135.143 95.6294 135.147 95.627C135.152 95.6245 135.157 95.6225 135.162 95.6201L135.191 95.6045C135.196 95.6022 135.201 95.5999 135.205 95.5977C135.21 95.5953 135.215 95.5931 135.22 95.5908C135.224 95.5886 135.228 95.5861 135.232 95.584L135.26 95.5703C135.264 95.5682 135.268 95.5656 135.272 95.5635C135.277 95.5614 135.281 95.5597 135.285 95.5576C135.289 95.5556 135.293 95.5528 135.297 95.5508C135.301 95.5487 135.306 95.547 135.31 95.5449L135.356 95.5215L135.378 95.5098C135.381 95.508 135.385 95.5066 135.389 95.5049C135.392 95.5031 135.396 95.5008 135.399 95.499L135.448 95.4746C135.451 95.4731 135.454 95.4712 135.457 95.4697C135.46 95.4682 135.464 95.4664 135.467 95.4648C135.47 95.4634 135.473 95.4624 135.476 95.4609C135.478 95.4595 135.482 95.4575 135.484 95.4561C135.487 95.4547 135.49 95.4535 135.492 95.4521C135.495 95.4507 135.498 95.4487 135.501 95.4473L135.532 95.4316C135.535 95.4304 135.537 95.4289 135.539 95.4277C135.541 95.4266 135.544 95.4259 135.546 95.4248C135.548 95.4236 135.551 95.4221 135.554 95.4209C135.556 95.4198 135.558 95.4181 135.561 95.417C135.563 95.416 135.564 95.415 135.566 95.4141C135.569 95.413 135.571 95.4122 135.573 95.4111C135.575 95.41 135.578 95.4083 135.58 95.4072L135.609 95.3926C135.611 95.3917 135.613 95.3905 135.614 95.3896C135.616 95.3887 135.618 95.3876 135.62 95.3867C135.622 95.3859 135.624 95.3855 135.625 95.3848C135.627 95.3839 135.628 95.3826 135.63 95.3818C135.631 95.3811 135.633 95.3806 135.635 95.3799C135.636 95.3791 135.637 95.3777 135.639 95.377L135.648 95.373C135.65 95.3723 135.651 95.3708 135.652 95.3701L135.672 95.3604C135.673 95.3599 135.674 95.3598 135.675 95.3594C135.676 95.3588 135.678 95.358 135.679 95.3574C135.68 95.3569 135.681 95.356 135.682 95.3555C135.683 95.355 135.684 95.3549 135.685 95.3545L135.69 95.3506L135.696 95.3486L135.699 95.3467L135.701 95.3457L135.704 95.3447L135.706 95.3428L135.718 95.3369H135.719L135.722 95.335L135.724 95.334H135.725L135.726 95.333L135.728 95.332H135.729L135.729 95.3311H135.73L135.731 95.3301H135.732L135.733 95.3291H135.734L135.735 95.3281H135.736L135.737 95.3271H135.738L135.739 95.3262L135.74 95.3252H135.742L135.744 95.3242V95.3232H135.746V95.3223H135.748L135.749 95.3213H135.75L135.751 95.3203H135.752L135.754 95.3184H135.755L135.757 95.3174L135.758 95.3164H135.76L135.761 95.3154L135.776 95.3076L135.779 95.3057L135.781 95.3047L135.784 95.3037C135.785 95.3033 135.786 95.3022 135.787 95.3018L135.79 95.3008C135.791 95.3003 135.792 95.2993 135.793 95.2988L135.796 95.2979C135.797 95.2974 135.798 95.2964 135.799 95.2959C135.8 95.2954 135.801 95.2954 135.802 95.2949C135.803 95.2944 135.805 95.2935 135.806 95.293C135.807 95.2924 135.808 95.2916 135.809 95.291L135.832 95.2793C135.833 95.2786 135.835 95.2771 135.837 95.2764C135.838 95.2756 135.84 95.2752 135.842 95.2744C135.843 95.2738 135.844 95.2731 135.846 95.2725C135.847 95.2717 135.849 95.2703 135.851 95.2695C135.852 95.2688 135.854 95.2684 135.855 95.2676C135.857 95.2667 135.86 95.2655 135.861 95.2646L135.871 95.2588L135.9 95.2441C135.902 95.2431 135.905 95.2423 135.907 95.2412C135.909 95.2401 135.912 95.2384 135.914 95.2373C135.916 95.2363 135.918 95.2354 135.92 95.2344C135.922 95.2333 135.925 95.2316 135.927 95.2305C135.929 95.2293 135.932 95.2287 135.935 95.2275L135.948 95.2197L135.979 95.2041C135.982 95.2027 135.986 95.2016 135.988 95.2002C135.991 95.1988 135.994 95.1968 135.997 95.1953C136 95.194 136.002 95.1927 136.005 95.1914C136.008 95.19 136.011 95.188 136.014 95.1865C136.017 95.185 136.02 95.1832 136.023 95.1816C136.026 95.1802 136.029 95.1792 136.032 95.1777L136.052 95.168L136.064 95.1611C136.067 95.16 136.069 95.1584 136.071 95.1572C136.075 95.1556 136.078 95.154 136.081 95.1523C136.084 95.1506 136.088 95.1492 136.092 95.1475L136.113 95.1357L136.16 95.1123C136.164 95.1105 136.167 95.1083 136.171 95.1064C136.175 95.1044 136.179 95.1027 136.184 95.1006C136.187 95.0986 136.191 95.0967 136.195 95.0947C136.199 95.0926 136.204 95.09 136.208 95.0879C136.212 95.0857 136.217 95.0833 136.222 95.0811C136.226 95.0789 136.23 95.0764 136.234 95.0742L136.289 95.0469C136.294 95.0445 136.299 95.0415 136.304 95.0391C136.308 95.0367 136.314 95.0347 136.318 95.0322L136.348 95.0166L136.395 94.9932C136.397 94.9917 136.4 94.9898 136.403 94.9883L136.416 94.9814C136.42 94.9797 136.423 94.9784 136.427 94.9766C136.432 94.9738 136.438 94.9706 136.443 94.9678C136.449 94.9649 136.455 94.9628 136.461 94.96C136.466 94.9571 136.472 94.954 136.478 94.9512C136.483 94.9483 136.489 94.9453 136.495 94.9424C136.501 94.9394 136.507 94.9356 136.513 94.9326C136.519 94.9296 136.525 94.9269 136.531 94.9238C136.537 94.9209 136.543 94.918 136.549 94.915L136.586 94.8955L136.645 94.8662C136.651 94.8629 136.657 94.8588 136.664 94.8555C136.671 94.8521 136.678 94.8491 136.685 94.8457L136.726 94.8242L136.79 94.792C136.797 94.7883 136.805 94.784 136.812 94.7803C136.82 94.7766 136.828 94.7733 136.835 94.7695L136.88 94.7461L136.927 94.7227C136.935 94.7186 136.943 94.714 136.951 94.71C136.959 94.7059 136.968 94.7023 136.976 94.6982L137.024 94.6729L137.075 94.6475C137.084 94.6431 137.093 94.6382 137.102 94.6338C137.11 94.6295 137.118 94.6245 137.127 94.6201C137.136 94.6157 137.145 94.6119 137.154 94.6074C137.163 94.603 137.172 94.5983 137.181 94.5938C137.19 94.5892 137.199 94.5847 137.208 94.5801C137.217 94.5754 137.226 94.5701 137.235 94.5654C137.245 94.5607 137.254 94.5565 137.264 94.5518C137.273 94.5471 137.282 94.5418 137.291 94.5371C137.3 94.5323 137.311 94.5273 137.32 94.5225C137.33 94.5177 137.339 94.5127 137.349 94.5078C137.358 94.5029 137.368 94.4981 137.378 94.4932C137.388 94.4882 137.398 94.4826 137.408 94.4775C137.418 94.4726 137.428 94.4679 137.438 94.4629C137.447 94.4578 137.458 94.4524 137.468 94.4473C137.478 94.4421 137.489 94.4369 137.499 94.4316C137.509 94.4265 137.519 94.4212 137.529 94.416C137.54 94.4107 137.551 94.4057 137.562 94.4004C137.572 94.3951 137.582 94.3892 137.593 94.3838L137.657 94.3506L137.724 94.3174C137.735 94.3117 137.746 94.3055 137.757 94.2998C137.768 94.2941 137.78 94.289 137.791 94.2832C137.802 94.2775 137.814 94.2714 137.825 94.2656L137.896 94.2305C137.907 94.2245 137.919 94.2179 137.931 94.2119L138.003 94.1748L138.077 94.1377C138.09 94.1314 138.102 94.1245 138.114 94.1182C138.127 94.1118 138.14 94.106 138.152 94.0996C138.165 94.0932 138.178 94.0866 138.19 94.0801C138.203 94.0736 138.217 94.0671 138.229 94.0605C138.242 94.054 138.255 94.0467 138.269 94.04C138.281 94.0335 138.295 94.0271 138.308 94.0205L138.388 93.9795C138.401 93.9727 138.415 93.9659 138.429 93.959C138.442 93.9521 138.456 93.9445 138.47 93.9375C138.484 93.9305 138.498 93.9241 138.512 93.917L138.596 93.874C138.61 93.8668 138.624 93.8589 138.639 93.8516C138.653 93.8443 138.667 93.8374 138.682 93.8301L138.77 93.7852L138.859 93.7402L138.997 93.6699C139.013 93.662 139.028 93.6544 139.044 93.6465C139.06 93.6385 139.075 93.6301 139.091 93.6221L139.187 93.5732C139.203 93.5651 139.219 93.5571 139.235 93.5488C139.252 93.5406 139.268 93.5318 139.284 93.5234C139.301 93.5151 139.317 93.5074 139.334 93.499C139.351 93.4906 139.367 93.4821 139.384 93.4736C139.4 93.4652 139.417 93.4558 139.434 93.4473C139.45 93.4388 139.467 93.4305 139.484 93.4219L139.64 93.3428C139.657 93.334 139.675 93.3253 139.692 93.3164L139.854 93.2344C139.872 93.2252 139.89 93.2154 139.908 93.2061C139.926 93.1968 139.945 93.1881 139.964 93.1787C139.982 93.1694 140 93.1597 140.019 93.1504C140.037 93.1409 140.056 93.1316 140.075 93.1221C140.094 93.1125 140.113 93.1024 140.132 93.0928C140.151 93.0832 140.17 93.0741 140.188 93.0645L140.246 93.0352C140.265 93.0254 140.284 93.0147 140.304 93.0049C140.323 92.9951 140.343 92.9855 140.362 92.9756L140.541 92.8848C140.561 92.8746 140.581 92.8638 140.602 92.8535C140.622 92.8432 140.643 92.8336 140.663 92.8232C140.683 92.8129 140.704 92.8024 140.725 92.792C140.745 92.7815 140.765 92.7703 140.786 92.7598C140.807 92.7493 140.828 92.7391 140.849 92.7285L140.976 92.6641C140.997 92.6532 141.019 92.6418 141.04 92.6309C141.061 92.62 141.083 92.6095 141.104 92.5986C141.126 92.5877 141.147 92.5764 141.169 92.5654C141.191 92.5543 141.213 92.5434 141.235 92.5322C141.257 92.5211 141.279 92.5092 141.301 92.498L141.503 92.3955C141.526 92.384 141.549 92.3729 141.571 92.3613C141.594 92.3497 141.618 92.3379 141.641 92.3262L141.658 92.3164L178 74.1455V96.502L176.28 97.3135L150.062 109.683C151.536 116.498 152.2 123.196 152.2 130.2C152.2 136.346 151.721 142.361 150.617 148.375L176.155 159.031L178 159.801V181.995Z" fill="var(--darkGray)" stroke="var(--darkGray)" stroke-width="6"/>
</g>
</svg>
