<svg viewBox="0 0 256 256" fill="none" xmlns="http://www.w3.org/2000/svg">
<mask id="mask0_56_654" style="mask-type:alpha" maskUnits="userSpaceOnUse" x="0" y="0" width="256" height="256">
<rect width="256" height="256" fill="var(--gray)"/>
</mask>
<g mask="url(#mask0_56_654)">
<rect x="159" y="33" width="60" height="76" rx="20" stroke="var(--pageColor)" stroke-width="32"/>
<rect x="108" y="148" width="60" height="76" rx="20" stroke="var(--pageColor)" stroke-width="32"/>
<mask id="path-4-inside-1_56_654" fill="var(--pageColor)">
<rect x="175" y="49" width="28" height="44" rx="4"/>
</mask>
<rect x="175" y="49" width="28" height="44" rx="4" stroke="var(--pageColor)" stroke-width="24" mask="url(#path-4-inside-1_56_654)"/>
<mask id="path-5-inside-2_56_654" fill="var(--pageColor)">
<rect x="124" y="164" width="28" height="44" rx="4"/>
</mask>
<rect x="124" y="164" width="28" height="44" rx="4" stroke="var(--pageColor)" stroke-width="24" mask="url(#path-5-inside-2_56_654)"/>
<path d="M124.706 39C129.384 39 134.022 39.8597 138.47 41.2637C147.192 44.0171 150.099 53.5535 146.87 60.6465C143.871 67.2342 136.82 70.1775 130.467 68.9189C128.359 68.5014 126.656 68.3174 125.272 68.3174C122.844 68.3174 121.494 68.8571 120.368 69.7793C119.009 70.8929 117.118 73.2921 115.145 78.5879L115.124 78.6426L115.103 78.6982C110.411 90.7988 107.156 110.052 103.538 131.148C100.195 150.895 96.6662 172.101 91.0635 187.22L91.0508 187.254L91.0371 187.288C83.8026 206.331 70.202 217 53.2939 217C48.6161 217 43.9779 216.14 39.5303 214.736C30.808 211.983 27.9008 202.446 31.1299 195.354L31.2734 195.047C34.2516 188.877 40.8431 186.025 46.9355 186.975L47.5332 187.081L48.3047 187.227C50.0617 187.542 51.5165 187.683 52.7275 187.683C55.1584 187.683 56.5225 187.14 57.6562 186.218C59.0165 185.111 60.9001 182.738 62.8672 177.521C67.3026 165.657 70.4215 146.926 73.8916 126.427L73.8936 126.418L73.8955 126.408C77.3765 106.111 81.0538 84.1516 86.9609 68.5752L86.9629 68.5703C90.5248 59.1947 95.635 51.7448 102.237 46.6201C108.912 41.4392 116.653 39 124.706 39Z" fill="var(--pageColor)" stroke="var(--pageColor)" stroke-width="18"/>
<rect x="165" y="39" width="48" height="64" rx="14" stroke="var(--darkGray)" stroke-width="20"/>
<rect x="114" y="154" width="48" height="64" rx="14" stroke="var(--darkGray)" stroke-width="20"/>
<path d="M124.706 45C128.654 45 132.676 45.7269 136.663 46.9854C141.527 48.5208 143.336 53.9281 141.409 58.1602C139.667 61.9875 135.509 63.802 131.633 63.0342C129.274 62.567 127.164 62.3174 125.272 62.3174C121.771 62.3174 118.983 63.1575 116.565 65.1387C114.07 67.1839 111.692 70.6716 109.522 76.4922L109.509 76.5293C104.545 89.3324 101.192 109.328 97.625 130.127C94.2434 150.103 90.8007 170.662 85.4375 185.135L85.4326 185.146L85.4287 185.157C78.861 202.445 67.1479 211 53.2939 211C49.3464 211 45.3239 210.273 41.3369 209.015C36.4725 207.479 34.6643 202.072 36.5908 197.84C38.3333 194.012 42.491 192.198 46.3672 192.966C48.7256 193.433 50.836 193.683 52.7275 193.683C56.2299 193.683 59.0227 192.842 61.4434 190.872C63.7834 188.968 66.0175 185.812 68.0732 180.689L68.4814 179.639C73.1716 167.102 76.3838 147.655 79.8076 127.429L79.8086 127.422C83.3304 106.887 86.9184 85.6093 92.5713 70.7031V70.7012C95.8367 62.1058 100.375 55.6612 105.917 51.3594C111.483 47.039 117.913 45 124.706 45Z" fill="var(--darkGray)" stroke="var(--darkGray)" stroke-width="6"/>
</g>
</svg>
