<svg viewBox="0 0 350 350" fill="none" xmlns="http://www.w3.org/2000/svg">
<rect width="350" height="350" rx="84" fill="var(--theme)" fill-opacity="0.25"/>
<path fill-rule="evenodd" clip-rule="evenodd" d="M84 40C59.6995 40 40 59.6995 40 84V196C40 220.301 59.6995 240 84 240H200V234.56C200 215.473 215.473 200 234.56 200H240V84C240 59.6995 220.301 40 196 40H84ZM76 60C76 56.6863 78.6863 54 82 54H106C109.314 54 112 56.6863 112 60V84C112 87.3137 109.314 90 106 90H82C78.6863 90 76 87.3137 76 84V60ZM128 124C124.686 124 122 126.686 122 130V154C122 157.314 124.686 160 128 160H152C155.314 160 158 157.314 158 154V130C158 126.686 155.314 124 152 124H128ZM168 90C168 80.0589 176.059 72 186 72C195.941 72 204 80.0589 204 90C204 99.9411 195.941 108 186 108C176.059 108 168 99.9411 168 90ZM122 189C112.059 189 104 197.059 104 207C104 216.941 112.059 225 122 225C131.941 225 140 216.941 140 207C140 197.059 131.941 189 122 189ZM71.1334 128.733C73.3446 124.311 79.6554 124.311 81.8666 128.733L95.6584 156.317C97.6531 160.306 94.7521 165 90.2918 165H62.7082C58.2479 165 55.3469 160.306 57.3416 156.317L71.1334 128.733ZM209.867 152.733C207.655 148.311 201.345 148.311 199.133 152.733L185.342 180.317C183.347 184.306 186.248 189 190.708 189H218.292C222.752 189 225.653 184.306 223.658 180.317L209.867 152.733Z" fill="var(--theme)"/>
<path d="M260 220H234C226.268 220 220 226.268 220 234V260C220 282.091 237.909 300 260 300C282.091 300 300 282.091 300 260C300 237.909 282.091 220 260 220Z" stroke="var(--theme)" stroke-width="20"/>
</svg>
