<svg viewBox="0 0 256 256" fill="none" xmlns="http://www.w3.org/2000/svg">
<mask id="mask0_523_93" style="mask-type:alpha" maskUnits="userSpaceOnUse" x="0" y="0" width="256" height="256">
<rect width="256" height="256" fill="var(--gray)"/>
</mask>
<g mask="url(#mask0_523_93)">
<path d="M212 203V89C212 74.0883 199.912 62 185 62H115.932C108.708 62 101.786 64.8948 96.7123 70.0372L88.7799 78.0772C83.7949 83.1298 81 89.9422 81 97.04V203C81 217.912 93.0883 230 108 230H185C199.912 230 212 217.912 212 203Z" stroke="var(--theme)" stroke-width="30"/>
<path fill-rule="evenodd" clip-rule="evenodd" d="M29 60.1243V167C29 190.196 47.804 209 71 209H86V179H71C64.3726 179 59 173.627 59 167V60.1243C59 56.9847 60.2304 53.9701 62.4274 51.7272L70.3852 43.603C72.6424 41.2986 75.7322 40 78.9578 40H148C154.627 40 160 45.3726 160 52V67H190V52C190 28.8041 171.196 10 148 10H78.9578C67.6681 10 56.8537 14.5451 48.9536 22.6104L40.9958 30.7347C33.3065 38.5848 29 49.1357 29 60.1243Z" fill="var(--theme)"/>
</g>
</svg>
