<svg viewBox="0 0 256 256" fill="none" xmlns="http://www.w3.org/2000/svg">
<mask id="mask0_526_147" style="mask-type:alpha" maskUnits="userSpaceOnUse" x="0" y="0" width="256" height="256">
<rect width="256" height="256" fill="#C4C4C4"/>
</mask>
<g mask="url(#mask0_526_147)">
<circle cx="128" cy="128" r="102" stroke="#48A7FF" stroke-width="30"/>
<path d="M114.674 193V101.54H141.194V193H114.674ZM127.934 88.79C123.06 88.79 119.094 87.3733 116.034 84.54C112.974 81.7067 111.444 78.1933 111.444 74C111.444 69.8067 112.974 66.2933 116.034 63.46C119.094 60.6267 123.06 59.21 127.934 59.21C132.807 59.21 136.774 60.57 139.834 63.29C142.894 65.8967 144.424 69.2967 144.424 73.49C144.424 77.91 142.894 81.5933 139.834 84.54C136.887 87.3733 132.92 88.79 127.934 88.79Z" fill="#48A7FF"/>
</g>
</svg>
