<svg viewBox="0 0 256 256" fill="none" xmlns="http://www.w3.org/2000/svg">
<mask id="mask0_527_153" style="mask-type:alpha" maskUnits="userSpaceOnUse" x="0" y="0" width="256" height="256">
<rect width="256" height="256" fill="#C4C4C4"/>
</mask>
<g mask="url(#mask0_527_153)">
<path d="M54.5891 165.4C48.9891 165.4 43.8224 164.5 39.0891 162.7C34.3557 160.9 30.2224 158.367 26.6891 155.1C23.2224 151.767 20.5224 147.9 18.5891 143.5C16.6557 139.1 15.6891 134.267 15.6891 129C15.6891 123.733 16.6557 118.9 18.5891 114.5C20.5224 110.1 23.2224 106.267 26.6891 103C30.2224 99.6667 34.3557 97.1 39.0891 95.3C43.8224 93.5 48.9891 92.6 54.5891 92.6C60.2557 92.6 65.4224 93.5 70.0891 95.3C74.8224 97.1 78.9224 99.6667 82.3891 103C85.8557 106.267 88.5557 110.1 90.4891 114.5C92.4891 118.9 93.4891 123.733 93.4891 129C93.4891 134.267 92.4891 139.133 90.4891 143.6C88.5557 148 85.8557 151.833 82.3891 155.1C78.9224 158.367 74.8224 160.9 70.0891 162.7C65.4224 164.5 60.2557 165.4 54.5891 165.4ZM54.5891 149C57.2557 149 59.7224 148.533 61.9891 147.6C64.3224 146.667 66.3224 145.333 67.9891 143.6C69.7224 141.8 71.0557 139.667 71.9891 137.2C72.9891 134.733 73.4891 132 73.4891 129C73.4891 125.933 72.9891 123.2 71.9891 120.8C71.0557 118.333 69.7224 116.233 67.9891 114.5C66.3224 112.7 64.3224 111.333 61.9891 110.4C59.7224 109.467 57.2557 109 54.5891 109C51.9224 109 49.4224 109.467 47.0891 110.4C44.8224 111.333 42.8224 112.7 41.0891 114.5C39.4224 116.233 38.0891 118.333 37.0891 120.8C36.1557 123.2 35.6891 125.933 35.6891 129C35.6891 132 36.1557 134.733 37.0891 137.2C38.0891 139.667 39.4224 141.8 41.0891 143.6C42.8224 145.333 44.8224 146.667 47.0891 147.6C49.4224 148.533 51.9224 149 54.5891 149ZM138.759 165.4C133.226 165.4 128.093 164.533 123.359 162.8C118.693 161 114.626 158.467 111.159 155.2C107.759 151.933 105.093 148.1 103.159 143.7C101.226 139.233 100.259 134.333 100.259 129C100.259 123.667 101.226 118.8 103.159 114.4C105.093 109.933 107.759 106.067 111.159 102.8C114.626 99.5333 118.693 97.0333 123.359 95.3C128.093 93.5 133.226 92.6 138.759 92.6C145.226 92.6 150.993 93.7333 156.059 96C161.193 98.2667 165.459 101.533 168.859 105.8L156.259 117.2C153.993 114.533 151.493 112.5 148.759 111.1C146.093 109.7 143.093 109 139.759 109C136.893 109 134.259 109.467 131.859 110.4C129.459 111.333 127.393 112.7 125.659 114.5C123.993 116.233 122.659 118.333 121.659 120.8C120.726 123.267 120.259 126 120.259 129C120.259 132 120.726 134.733 121.659 137.2C122.659 139.667 123.993 141.8 125.659 143.6C127.393 145.333 129.459 146.667 131.859 147.6C134.259 148.533 136.893 149 139.759 149C143.093 149 146.093 148.3 148.759 146.9C151.493 145.5 153.993 143.467 156.259 140.8L168.859 152.2C165.459 156.4 161.193 159.667 156.059 162C150.993 164.267 145.226 165.4 138.759 165.4ZM177.688 164V94H209.688C216.088 94 221.588 95.0333 226.188 97.1C230.854 99.1667 234.454 102.167 236.988 106.1C239.521 109.967 240.788 114.567 240.788 119.9C240.788 125.167 239.521 129.733 236.988 133.6C234.454 137.4 230.854 140.333 226.188 142.4C221.588 144.4 216.088 145.4 209.688 145.4H188.688L197.488 137.1V164H177.688ZM220.988 164L203.588 138.5H224.688L242.188 164H220.988ZM197.488 139.2L188.688 130.1H208.488C212.621 130.1 215.688 129.2 217.688 127.4C219.754 125.6 220.788 123.1 220.788 119.9C220.788 116.633 219.754 114.1 217.688 112.3C215.688 110.5 212.621 109.6 208.488 109.6H188.688L197.488 100.5V139.2Z" fill="#0084FF"/>
<path fill-rule="evenodd" clip-rule="evenodd" d="M225 68V49C225 25.8041 206.196 7 183 7H86.6631C75.4148 7 64.6366 11.5119 56.7427 19.5251L44.0796 32.3796C36.3389 40.2373 32 50.8245 32 61.8545V68H62V61.8545C62 58.7031 63.2397 55.6781 65.4513 53.4331L78.1144 40.5786C80.3698 38.2891 83.4493 37 86.6631 37H183C189.627 37 195 42.3726 195 49V68H225ZM225 188H195V207C195 213.627 189.627 219 183 219H74C67.3726 219 62 213.627 62 207V188H32V207C32 230.196 50.804 249 74 249H183C206.196 249 225 230.196 225 207V188Z" fill="#0084FF"/>
<rect x="32" y="44" width="30" height="40" rx="15" fill="#0084FF"/>
<rect x="195" y="44" width="30" height="40" rx="15" fill="#0084FF"/>
<rect x="32" y="172" width="30" height="40" rx="15" fill="#0084FF"/>
<rect x="195" y="172" width="30" height="40" rx="15" fill="#0084FF"/>
</g>
</svg>
