<svg viewBox="0 0 256 256" fill="none" xmlns="http://www.w3.org/2000/svg">
<mask id="mask0_4241_2" style="mask-type:alpha" maskUnits="userSpaceOnUse" x="0" y="0" width="256" height="256">
<rect width="256" height="256" fill="var(--gray)"/>
</mask>
<g mask="url(#mask0_4241_2)">
<rect x="36" y="189" width="184" height="34" rx="17" fill="var(--pageColor)" stroke="var(--pageColor)" stroke-width="12"/>
<mask id="path-3-outside-1_4241_2" maskUnits="userSpaceOnUse" x="39" y="27" width="175" height="164" fill="var(--pageColor)">
<rect fill="var(--pageColor)" x="39" y="27" width="175" height="164"/>
<path d="M54.2 179L82.2 39H153C168.867 39 180.933 41.8667 189.2 47.6C197.467 53.2 201.6 61.2667 201.6 71.8C201.6 80.4667 199.2 87.8 194.4 93.8C189.6 99.8 183.133 104.4 175 107.6C166.867 110.667 157.733 112.2 147.6 112.2L153.2 102.6C166.133 102.6 176.4 105.4 184 111C191.6 116.6 195.4 124.467 195.4 134.6C195.4 144.733 192.533 153.067 186.8 159.6C181.2 166.133 173.533 171 163.8 174.2C154.2 177.4 143.333 179 131.2 179H54.2ZM99 150.4H133.4C140.333 150.4 145.8 149 149.8 146.2C153.933 143.4 156 139.267 156 133.8C156 129.667 154.467 126.667 151.4 124.8C148.333 122.933 144.4 122 139.6 122H101.4L106.8 94.6H138.6C143.267 94.6 147.2 94 150.4 92.8C153.733 91.6 156.2 89.8 157.8 87.4C159.4 85 160.2 82.0667 160.2 78.6C160.2 74.7333 158.733 71.9333 155.8 70.2C152.867 68.4667 148.8 67.6 143.6 67.6H115.6L99 150.4Z"/>
</mask>
<path d="M54.2 179L82.2 39H153C168.867 39 180.933 41.8667 189.2 47.6C197.467 53.2 201.6 61.2667 201.6 71.8C201.6 80.4667 199.2 87.8 194.4 93.8C189.6 99.8 183.133 104.4 175 107.6C166.867 110.667 157.733 112.2 147.6 112.2L153.2 102.6C166.133 102.6 176.4 105.4 184 111C191.6 116.6 195.4 124.467 195.4 134.6C195.4 144.733 192.533 153.067 186.8 159.6C181.2 166.133 173.533 171 163.8 174.2C154.2 177.4 143.333 179 131.2 179H54.2ZM99 150.4H133.4C140.333 150.4 145.8 149 149.8 146.2C153.933 143.4 156 139.267 156 133.8C156 129.667 154.467 126.667 151.4 124.8C148.333 122.933 144.4 122 139.6 122H101.4L106.8 94.6H138.6C143.267 94.6 147.2 94 150.4 92.8C153.733 91.6 156.2 89.8 157.8 87.4C159.4 85 160.2 82.0667 160.2 78.6C160.2 74.7333 158.733 71.9333 155.8 70.2C152.867 68.4667 148.8 67.6 143.6 67.6H115.6L99 150.4Z" fill="var(--pageColor)"/>
<path d="M54.2 179L42.433 176.647L39.5624 191H54.2V179ZM82.2 39V27H72.3624L70.433 36.6466L82.2 39ZM189.2 47.6L182.361 57.4606L182.415 57.4981L182.47 57.535L189.2 47.6ZM194.4 93.8L185.03 86.3037L185.03 86.3037L194.4 93.8ZM175 107.6L179.234 118.828L179.314 118.798L179.393 118.767L175 107.6ZM147.6 112.2L137.235 106.154L126.708 124.2H147.6V112.2ZM153.2 102.6V90.6H146.308L142.835 96.5535L153.2 102.6ZM184 111L176.882 120.661L176.882 120.661L184 111ZM186.8 159.6L177.78 151.685L177.734 151.737L177.689 151.791L186.8 159.6ZM163.8 174.2L160.052 162.8L160.029 162.808L160.005 162.816L163.8 174.2ZM99 150.4L87.2341 148.041L84.3554 162.4H99V150.4ZM149.8 146.2L143.07 136.265L142.994 136.317L142.918 136.369L149.8 146.2ZM151.4 124.8L157.639 114.55L157.639 114.55L151.4 124.8ZM101.4 122L89.6265 119.68L86.8042 134H101.4V122ZM106.8 94.6V82.6H96.9341L95.0265 92.2797L106.8 94.6ZM150.4 92.8L146.335 81.5093L146.261 81.5362L146.187 81.564L150.4 92.8ZM157.8 87.4L167.785 94.0564L167.785 94.0564L157.8 87.4ZM155.8 70.2L161.905 59.8689L161.905 59.8689L155.8 70.2ZM115.6 67.6V55.6H105.767L103.834 65.2411L115.6 67.6ZM54.2 179L65.967 181.353L93.967 41.3534L82.2 39L70.433 36.6466L42.433 176.647L54.2 179ZM82.2 39V51H153V39V27H82.2V39ZM153 39V51C167.725 51 176.958 53.7133 182.361 57.4606L189.2 47.6L196.039 37.7394C184.909 30.02 170.008 27 153 27V39ZM189.2 47.6L182.47 57.535C187.231 60.7603 189.6 64.9872 189.6 71.8H201.6H213.6C213.6 57.5461 207.702 45.6397 195.93 37.665L189.2 47.6ZM201.6 71.8H189.6C189.6 78.11 187.911 82.7022 185.03 86.3037L194.4 93.8L203.77 101.296C210.489 92.8978 213.6 82.8233 213.6 71.8H201.6ZM194.4 93.8L185.03 86.3037C181.711 90.4517 177.061 93.8935 170.607 96.4332L175 107.6L179.393 118.767C189.205 114.906 197.489 109.148 203.77 101.296L194.4 93.8ZM175 107.6L170.766 96.3716C164.19 98.8511 156.523 100.2 147.6 100.2V112.2V124.2C158.944 124.2 169.543 122.482 179.234 118.828L175 107.6ZM147.6 112.2L157.965 118.246L163.565 108.646L153.2 102.6L142.835 96.5535L137.235 106.154L147.6 112.2ZM153.2 102.6V114.6C164.502 114.6 171.984 117.052 176.882 120.661L184 111L191.118 101.339C180.816 93.7478 167.765 90.6 153.2 90.6V102.6ZM184 111L176.882 120.661C181.158 123.812 183.4 127.953 183.4 134.6H195.4H207.4C207.4 120.98 202.042 109.388 191.118 101.339L184 111ZM195.4 134.6H183.4C183.4 142.332 181.28 147.697 177.78 151.685L186.8 159.6L195.82 167.515C203.786 158.436 207.4 147.135 207.4 134.6H195.4ZM186.8 159.6L177.689 151.791C173.767 156.367 168.104 160.153 160.052 162.8L163.8 174.2L167.548 185.6C178.963 181.847 188.634 175.9 195.911 167.409L186.8 159.6ZM163.8 174.2L160.005 162.816C151.844 165.536 142.292 167 131.2 167V179V191C144.374 191 156.556 189.264 167.595 185.584L163.8 174.2ZM131.2 179V167H54.2V179V191H131.2V179ZM99 150.4V162.4H133.4V150.4V138.4H99V150.4ZM133.4 150.4V162.4C141.8 162.4 149.979 160.723 156.682 156.031L149.8 146.2L142.918 136.369C141.621 137.277 138.867 138.4 133.4 138.4V150.4ZM149.8 146.2L156.53 156.135C164.312 150.864 168 142.802 168 133.8H156H144C144 135.009 143.778 135.512 143.717 135.633C143.677 135.713 143.573 135.924 143.07 136.265L149.8 146.2ZM156 133.8H168C168 126.229 164.881 118.957 157.639 114.55L151.4 124.8L145.161 135.05C145.08 135.001 144.902 134.878 144.692 134.655C144.478 134.429 144.297 134.171 144.165 133.911C143.893 133.38 144 133.208 144 133.8H156ZM151.4 124.8L157.639 114.55C152.161 111.215 145.881 110 139.6 110V122V134C142.919 134 144.506 134.652 145.161 135.05L151.4 124.8ZM139.6 122V110H101.4V122V134H139.6V122ZM101.4 122L113.174 124.32L118.574 96.9203L106.8 94.6L95.0265 92.2797L89.6265 119.68L101.4 122ZM106.8 94.6V106.6H138.6V94.6V82.6H106.8V94.6ZM138.6 94.6V106.6C144.215 106.6 149.673 105.889 154.613 104.036L150.4 92.8L146.187 81.564C144.727 82.1112 142.318 82.6 138.6 82.6V94.6ZM150.4 92.8L154.465 104.091C159.654 102.222 164.459 99.0445 167.785 94.0564L157.8 87.4L147.815 80.7436C147.844 80.7001 147.836 80.7403 147.676 80.8565C147.499 80.9862 147.096 81.2356 146.335 81.5093L150.4 92.8ZM157.8 87.4L167.785 94.0564C170.944 89.3169 172.2 83.9507 172.2 78.6H160.2H148.2C148.2 80.1827 147.856 80.6831 147.815 80.7436L157.8 87.4ZM160.2 78.6H172.2C172.2 71.174 169.045 64.0881 161.905 59.8689L155.8 70.2L149.695 80.5311C149.581 80.4636 149.364 80.3151 149.114 80.0577C148.86 79.7958 148.638 79.4895 148.47 79.1681C148.124 78.5076 148.2 78.1786 148.2 78.6H160.2ZM155.8 70.2L161.905 59.8689C156.395 56.6132 149.906 55.6 143.6 55.6V67.6V79.6C147.694 79.6 149.338 80.3201 149.695 80.5311L155.8 70.2ZM143.6 67.6V55.6H115.6V67.6V79.6H143.6V67.6ZM115.6 67.6L103.834 65.2411L87.2341 148.041L99 150.4L110.766 152.759L127.366 69.9589L115.6 67.6Z" fill="var(--pageColor)" mask="url(#path-3-outside-1_4241_2)"/>
<rect x="42" y="195" width="172" height="22" rx="11" fill="var(--darkGray)"/>
<path d="M54.2 179L82.2 39H153C168.867 39 180.933 41.8667 189.2 47.6C197.467 53.2 201.6 61.2667 201.6 71.8C201.6 80.4667 199.2 87.8 194.4 93.8C189.6 99.8 183.133 104.4 175 107.6C166.867 110.667 157.733 112.2 147.6 112.2L153.2 102.6C166.133 102.6 176.4 105.4 184 111C191.6 116.6 195.4 124.467 195.4 134.6C195.4 144.733 192.533 153.067 186.8 159.6C181.2 166.133 173.533 171 163.8 174.2C154.2 177.4 143.333 179 131.2 179H54.2ZM99 150.4H133.4C140.333 150.4 145.8 149 149.8 146.2C153.933 143.4 156 139.267 156 133.8C156 129.667 154.467 126.667 151.4 124.8C148.333 122.933 144.4 122 139.6 122H101.4L106.8 94.6H138.6C143.267 94.6 147.2 94 150.4 92.8C153.733 91.6 156.2 89.8 157.8 87.4C159.4 85 160.2 82.0667 160.2 78.6C160.2 74.7333 158.733 71.9333 155.8 70.2C152.867 68.4667 148.8 67.6 143.6 67.6H115.6L99 150.4Z" fill="var(--darkGray)"/>
</g>
</svg>
