<svg viewBox="0 0 256 256" fill="none" xmlns="http://www.w3.org/2000/svg">
<mask id="mask0_4280_257" style="mask-type:alpha" maskUnits="userSpaceOnUse" x="0" y="0" width="256" height="256">
<rect width="256" height="256" fill="var(--gray)"/>
</mask>
<g mask="url(#mask0_4280_257)">
<rect x="72.5059" y="158.773" width="122" height="34" rx="17" transform="rotate(-45 72.5059 158.773)" fill="var(--pageColor)" stroke="var(--pageColor)" stroke-width="12"/>
<rect x="60.4853" y="180.693" width="54" height="20" rx="10" transform="rotate(-45 60.4853 180.693)" stroke="var(--pageColor)" stroke-width="12"/>
<rect x="142.51" y="98.6689" width="54" height="20" rx="10" transform="rotate(-45 142.51 98.6689)" stroke="var(--pageColor)" stroke-width="12"/>
<rect x="27.9584" y="180.693" width="100" height="66" rx="33" transform="rotate(-45 27.9584 180.693)" stroke="var(--pageColor)" stroke-width="34"/>
<rect x="109.983" y="98.6689" width="100" height="66" rx="33" transform="rotate(-45 109.983 98.6689)" stroke="var(--pageColor)" stroke-width="34"/>
<rect x="36.4437" y="180.693" width="88" height="54" rx="27" transform="rotate(-45 36.4437 180.693)" stroke="var(--darkGray)" stroke-width="22"/>
<rect x="118.468" y="98.6689" width="88" height="54" rx="27" transform="rotate(-45 118.468 98.6689)" stroke="var(--darkGray)" stroke-width="22"/>
<rect x="80.9912" y="158.773" width="110" height="22" rx="11" transform="rotate(-45 80.9912 158.773)" fill="var(--darkGray)"/>
</g>
</svg>
