<svg viewBox="0 0 256 256" fill="none" xmlns="http://www.w3.org/2000/svg">
<mask id="mask0_3183_2" style="mask-type:alpha" maskUnits="userSpaceOnUse" x="0" y="0" width="256" height="256">
<rect width="256" height="256" fill="var(--gray)"/>
</mask>
<g mask="url(#mask0_3183_2)">
<path d="M121.039 186.067C124.816 196.444 133.147 204.514 143.64 207.958L154.373 211.481C157.332 212.453 160.571 211.274 162.214 208.628L168.171 199.03C173.995 189.647 175.19 178.11 171.412 167.732L150.723 110.887L100.349 129.222L121.039 186.067Z" fill="var(--pageColor)"/>
<path d="M148.671 105.249L154.309 103.197L156.361 108.835L177.051 165.68C181.457 177.787 180.063 191.247 173.269 202.194L167.312 211.792C164.209 216.79 158.091 219.017 152.502 217.182L141.769 213.659C129.527 209.64 119.808 200.226 115.401 188.119L94.7113 131.274L92.6592 125.636L98.2974 123.584L148.671 105.249Z" fill="var(--toolColorOpacity)" stroke="var(--pageColor)" stroke-width="12"/>
<path d="M117.147 175.374L111.509 177.427L109.457 171.788L75.5292 78.5738C69.333 61.5497 78.1106 42.726 95.1347 36.5297C112.159 30.3335 130.982 39.1112 137.179 56.1352L171.106 149.35L173.158 154.988L167.52 157.04L117.147 175.374Z" fill="var(--darkGray)" stroke="var(--pageColor)" stroke-width="12"/>
</g>
</svg>
