<svg viewBox="0 0 256 256" fill="none" xmlns="http://www.w3.org/2000/svg">
<mask id="mask0_4102_2" style="mask-type:alpha" maskUnits="userSpaceOnUse" x="0" y="0" width="256" height="256">
<rect width="256" height="256" fill="var(--gray)"/>
</mask>
<g mask="url(#mask0_4102_2)">
<path d="M152.333 58V85.667C152.333 95.6079 160.392 103.667 170.333 103.667H198V152.333H170.333C160.392 152.333 152.333 160.392 152.333 170.333V198H103.667V170.333C103.667 160.392 95.6078 152.333 85.667 152.333H58V103.667H85.667C95.6079 103.667 103.667 95.6079 103.667 85.667V58H152.333Z" stroke="var(--pageColor)" stroke-width="12"/>
<path d="M154.333 36L154.85 36.0068C165.657 36.2807 174.333 45.1269 174.333 56V81.667H200C211.046 81.667 220 90.6213 220 101.667V154.333C220 165.379 211.046 174.333 200 174.333H174.333V200C174.333 211.046 165.379 220 154.333 220H101.667C90.6213 220 81.667 211.046 81.667 200V174.333H56C44.9543 174.333 36 165.379 36 154.333V101.667C36 90.6213 44.9543 81.667 56 81.667H81.667V56C81.667 44.9543 90.6213 36 101.667 36H154.333Z" stroke="var(--pageColor)" stroke-width="32"/>
<path d="M154.333 42C162.065 42 168.333 48.268 168.333 56V85.667C168.333 86.7713 169.229 87.6668 170.333 87.667H200C207.732 87.667 214 93.935 214 101.667V154.333C214 162.065 207.732 168.333 200 168.333H170.333C169.229 168.333 168.333 169.229 168.333 170.333V200C168.333 207.732 162.065 214 154.333 214H101.667C93.935 214 87.667 207.732 87.667 200V170.333C87.6668 169.229 86.7713 168.333 85.667 168.333H56C48.268 168.333 42 162.065 42 154.333V101.667C42 93.935 48.268 87.667 56 87.667H85.667C86.7713 87.6668 87.6668 86.7713 87.667 85.667V56C87.667 48.268 93.935 42 101.667 42H154.333Z" stroke="var(--darkGray)" stroke-width="20"/>
</g>
</svg>
