<svg viewBox="0 0 256 256" fill="none" xmlns="http://www.w3.org/2000/svg"> <mask id="mask0_2384_8" style="mask-type:alpha" maskUnits="userSpaceOnUse" x="0" y="0" width="256" height="256"> <rect width="256" height="256" fill="var(--gray)"/> </mask> <g mask="url(#mask0_2384_8)"> <rect x="50" y="49" width="157" height="157" rx="36" stroke="var(--pageColor)" stroke-width="32"/> <rect x="72" y="71" width="113" height="113" rx="14" stroke="var(--pageColor)" stroke-width="12"/> <rect x="56" y="55" width="145" height="145" rx="30" stroke="var(--darkGray)" stroke-width="20"/> <path d="M140 84H172" stroke="var(--pageColor)" stroke-width="24" stroke-linecap="round"/> <path d="M172 116.5L172 84.5" stroke="var(--pageColor)" stroke-width="24" stroke-linecap="round"/> <path d="M117 171H85" stroke="var(--pageColor)" stroke-width="24" stroke-linecap="round"/> <path d="M85 138.5L85 170.5" stroke="var(--pageColor)" stroke-width="24" stroke-linecap="round"/> <path d="M85 171L172 84" stroke="var(--pageColor)" stroke-width="24" stroke-linecap="round"/> <path d="M135 121L172 84" stroke="var(--darkGray)" stroke-width="12" stroke-linecap="round"/> <path d="M140 84H172" stroke="var(--darkGray)" stroke-width="12" stroke-linecap="round"/> <path d="M172 116.5L172 84.5" stroke="var(--darkGray)" stroke-width="12" stroke-linecap="round"/> <path d="M122 134L85 171" stroke="var(--darkGray)" stroke-width="12" stroke-linecap="round"/> <path d="M117 171H85" stroke="var(--darkGray)" stroke-width="12" stroke-linecap="round"/> <path d="M85 138.5L85 170.5" stroke="var(--darkGray)" stroke-width="12" stroke-linecap="round"/> </g> </svg>