<svg viewBox="0 0 256 256" fill="none" xmlns="http://www.w3.org/2000/svg"> <mask id="mask0_800_56" style="mask-type:alpha" maskUnits="userSpaceOnUse" x="0" y="0" width="256" height="256"> <rect width="256" height="256" fill="var(--gray)"/> </mask> <g mask="url(#mask0_800_56)"> <rect x="111" y="47" width="34" height="162" rx="17" stroke="var(--pageColor)" stroke-width="12"/> <path d="M128 211.485L131.536 215.021C134.724 218.209 139.048 220 143.556 220H177C186.389 220 194 212.389 194 203C194 193.611 186.389 186 177 186H128H79C69.6112 186 62 193.611 62 203C62 212.389 69.6112 220 79 220H112.444C116.952 220 121.276 218.209 124.464 215.021L128 211.485Z" stroke="var(--pageColor)" stroke-width="12"/> <path d="M128 44.5147L131.536 40.9792C134.724 37.7911 139.048 36 143.556 36H177C186.389 36 194 43.6112 194 53C194 62.3888 186.389 70 177 70H128H79C69.6112 70 62 62.3888 62 53C62 43.6112 69.6112 36 79 36H112.444C116.952 36 121.276 37.7911 124.464 40.9792L128 44.5147Z" stroke="var(--pageColor)" stroke-width="12"/> <rect x="117" y="53" width="22" height="150" rx="11" fill="var(--darkGray)"/> <path d="M68 203C68 196.925 72.9249 192 79 192H128H177C183.075 192 188 196.925 188 203V203C188 209.075 183.075 214 177 214H143.556C140.639 214 137.841 212.841 135.778 210.778L128 203L120.222 210.778C118.159 212.841 115.361 214 112.444 214H79C72.9249 214 68 209.075 68 203V203Z" fill="var(--darkGray)"/> <path d="M68 53C68 59.0751 72.9249 64 79 64H128H177C183.075 64 188 59.0751 188 53V53C188 46.9249 183.075 42 177 42H143.556C140.639 42 137.841 43.1589 135.778 45.2218L128 53L120.222 45.2218C118.159 43.1589 115.361 42 112.444 42H79C72.9249 42 68 46.9249 68 53V53Z" fill="var(--darkGray)"/> </g> </svg>