<svg viewBox="0 0 256 256" fill="none" xmlns="http://www.w3.org/2000/svg">
<mask id="mask0_3540_2" style="mask-type:alpha" maskUnits="userSpaceOnUse" x="0" y="0" width="256" height="256">
<rect width="256" height="256" fill="var(--gray)"/>
</mask>
<g mask="url(#mask0_3540_2)">
<path d="M218 87H48C33.6406 87 22 98.6406 22 113V153C22 161.837 29.1634 169 38 169H208C222.359 169 234 157.359 234 143V103C234 94.1634 226.837 87 218 87Z" fill="var(--pageColor)" stroke="var(--pageColor)" stroke-width="12"/>
<path d="M28 113C28 101.954 36.9543 93 48 93H218C223.523 93 228 97.4772 228 103V143C228 154.046 219.046 163 208 163H38C32.4772 163 28 158.523 28 153V113Z" fill="var(--darkGray)"/>
<rect x="159" y="66" width="28" height="124" rx="14" fill="var(--pageColor)" stroke="var(--pageColor)" stroke-width="12"/>
<path d="M171.327 193.98L173 192.358L174.673 193.98C177.332 196.558 180.89 198 184.593 198H210C217.732 198 224 191.732 224 184C224 176.268 217.732 170 210 170H173H136C128.268 170 122 176.268 122 184C122 191.732 128.268 198 136 198H161.407C165.11 198 168.668 196.558 171.327 193.98Z" fill="var(--pageColor)" stroke="var(--pageColor)" stroke-width="12"/>
<path d="M171.327 62.0199L173 63.6423L174.673 62.0199C177.332 59.4418 180.89 58 184.593 58H210C217.732 58 224 64.268 224 72C224 79.732 217.732 86 210 86H173H136C128.268 86 122 79.732 122 72C122 64.268 128.268 58 136 58H161.407C165.11 58 168.668 59.4418 171.327 62.0199Z" fill="var(--pageColor)" stroke="var(--pageColor)" stroke-width="12"/>
<rect x="165" y="72" width="16" height="112" rx="8" fill="var(--darkGray)"/>
<path d="M128 184C128 179.582 131.582 176 136 176H173H210C214.418 176 218 179.582 218 184V184C218 188.418 214.418 192 210 192H184.593C182.449 192 180.389 191.165 178.85 189.673L173 184L167.15 189.673C165.611 191.165 163.551 192 161.407 192H136C131.582 192 128 188.418 128 184V184Z" fill="var(--darkGray)"/>
<path d="M128 72C128 76.4183 131.582 80 136 80H173H210C214.418 80 218 76.4183 218 72V72C218 67.5817 214.418 64 210 64H184.593C182.449 64 180.389 64.8347 178.85 66.3273L173 72L167.15 66.3273C165.611 64.8347 163.551 64 161.407 64H136C131.582 64 128 67.5817 128 72V72Z" fill="var(--darkGray)"/>
</g>
</svg>
