<svg viewBox="0 0 350 350" fill="none" xmlns="http://www.w3.org/2000/svg">
<rect width="350" height="350" rx="84" fill="var(--theme)" fill-opacity="0.25"/>
<path d="M109 140V82C109 76.4772 104.523 72 99 72H41C35.4772 72 31 76.4772 31 82V140C31 145.523 35.4772 150 41 150H99C104.523 150 109 145.523 109 140Z" stroke="var(--theme)" stroke-width="8"/>
<path d="M33 74H66V78C66 81.3137 63.3137 84 60 84H33V74Z" fill="var(--theme)"/>
<path d="M216 311V224C216 218.477 211.523 214 206 214H148C142.477 214 138 218.477 138 224V311C138 316.523 142.477 321 148 321H206C211.523 321 216 316.523 216 311Z" stroke="var(--theme)" stroke-width="8"/>
<path d="M140 216H173V220C173 223.314 170.314 226 167 226H140V216Z" fill="var(--theme)"/>
<path d="M306 115V54C306 48.4772 301.523 44 296 44H204C198.477 44 194 48.4772 194 54V115C194 120.523 198.477 125 204 125H296C301.523 125 306 120.523 306 115Z" stroke="var(--theme)" stroke-width="8"/>
<path d="M196 46H229V50C229 53.3137 226.314 56 223 56H196V46Z" fill="var(--theme)"/>
<path d="M44 196C44 192.686 46.6863 190 50 190H74C77.3137 190 80 192.686 80 196V220C80 223.314 77.3137 226 74 226H50C46.6863 226 44 223.314 44 220V196Z" fill="var(--theme)"/>
<path d="M258 254C258 250.686 260.686 248 264 248H288C291.314 248 294 250.686 294 254V278C294 281.314 291.314 284 288 284H264C260.686 284 258 281.314 258 278V254Z" fill="var(--theme)"/>
<path d="M266 178C266 168.059 274.059 160 284 160V160C293.941 160 302 168.059 302 178V178C302 187.941 293.941 196 284 196V196C274.059 196 266 187.941 266 178V178Z" fill="var(--theme)"/>
<path d="M120 46C120 36.0589 128.059 28 138 28V28C147.941 28 156 36.0589 156 46V46C156 55.9411 147.941 64 138 64V64C128.059 64 120 55.9411 120 46V46Z" fill="var(--theme)"/>
<path d="M80.1334 261.733C82.3446 257.311 88.6554 257.311 90.8666 261.733L104.658 289.317C106.653 293.306 103.752 298 99.2918 298H71.7082C67.2479 298 64.3469 293.306 66.3416 289.317L80.1334 261.733Z" fill="var(--theme)"/>
<path d="M158.133 138.733C160.345 134.311 166.655 134.311 168.867 138.733L182.658 166.317C184.653 170.306 181.752 175 177.292 175H149.708C145.248 175 142.347 170.306 144.342 166.317L158.133 138.733Z" fill="var(--theme)"/>
</svg>
