<svg viewBox="0 0 350 350" fill="none" xmlns="http://www.w3.org/2000/svg">
<g clip-path="url(#clip0_2627_2)">
<rect width="350" height="350" rx="84" fill="var(--theme)" fill-opacity="0.25"/>
<path d="M261 4V-160C261 -175.464 248.464 -188 233 -188H119C103.536 -188 91 -175.464 91 -160V4C91 19.464 103.536 32 119 32H233C248.464 32 261 19.464 261 4Z" stroke="var(--theme)" stroke-width="20"/>
<path d="M261 259V95C261 79.536 248.464 67 233 67H119C103.536 67 91 79.536 91 95V259C91 274.464 103.536 287 119 287H233C248.464 287 261 274.464 261 259Z" stroke="var(--theme)" stroke-width="20"/>
<path d="M99 75H178V83C178 91.8366 170.837 99 162 99H99V75Z" fill="var(--theme)"/>
<path d="M260 512V348C260 332.536 247.464 320 232 320H118C102.536 320 90 332.536 90 348V512C90 527.464 102.536 540 118 540H232C247.464 540 260 527.464 260 512Z" stroke="var(--theme)" stroke-width="20"/>
<path d="M100 330H179V338C179 346.837 171.837 354 163 354H100V330Z" fill="var(--theme)"/>
</g>
<defs>
<clipPath id="clip0_2627_2">
<rect width="350" height="350" rx="84" fill="white"/>
</clipPath>
</defs>
</svg>
