<svg viewBox="0 0 256 256" fill="none" xmlns="http://www.w3.org/2000/svg">
<mask id="mask0_2329_7" style="mask-type:alpha" maskUnits="userSpaceOnUse" x="0" y="0" width="256" height="256">
<rect width="256" height="256" fill="#C4C4C4"/>
</mask>
<g mask="url(#mask0_2329_7)">
<path fill-rule="evenodd" clip-rule="evenodd" d="M110.83 99H131.063C150.762 99 167.565 111.438 174.093 128.875H151.4C146.643 122.859 139.291 119 131.063 119H108.191C106.969 116.576 106.281 113.837 106.281 110.937C106.281 106.353 108.001 102.171 110.83 99ZM71.6025 99.0191C46.8493 99.7276 27 120.076 27 145C27 170.371 47.5669 191 72.9375 191H131.063C149.318 191 165.087 180.318 172.495 164.875H147.771C143.253 168.697 137.419 171 131.063 171H72.9375C58.648 171 47 159.36 47 145C47 131.331 57.5528 120.128 70.8918 119.08C70.4897 116.424 70.2813 113.705 70.2813 110.937C70.2813 106.842 70.7377 102.853 71.6025 99.0191Z" fill="#0084FF"/>
<rect x="88" y="75" width="130" height="72" rx="35.9375" stroke="#0084FF" stroke-width="20"/>
</g>
</svg>
