<svg viewBox="0 0 256 256" fill="none" xmlns="http://www.w3.org/2000/svg">
<mask id="mask0_1053_485" style="mask-type:alpha" maskUnits="userSpaceOnUse" x="0" y="0" width="256" height="256">
<rect width="256" height="256" fill="#D9D9D9"/>
</mask>
<g mask="url(#mask0_1053_485)">
<path d="M188.671 193.612L199.046 173.197C200.331 170.67 201 167.876 201 165.041V77.2327C201 72.4543 199.1 67.872 195.719 64.4956L193.725 62.505C191.367 60.15 188.17 58.8272 184.837 58.8272C180.831 58.8272 177.262 60.7005 174.958 63.619V49.051C174.958 41.1143 168.524 34.6804 160.587 34.6804C155.781 34.6804 151.525 37.0404 148.916 40.6649V38.3706C148.916 30.434 142.482 24 134.545 24C126.609 24 120.175 30.434 120.175 38.3706V47.6304C117.566 44.0058 113.31 41.6458 108.503 41.6458C100.567 41.6458 94.1329 48.0798 94.1329 56.0164V103.055C94.1329 107.86 88.5701 110.525 84.8252 107.516L80.696 104.197C70.7597 96.2109 56 103.284 56 116.032C56 119.383 57.1084 122.639 59.1525 125.295L111.954 193.88C112.761 194.929 113.199 196.216 113.199 197.54V259C113.199 268.941 121.258 277 131.199 277H170.019C179.961 277 188.019 268.941 188.019 259V196.33C188.019 195.385 188.243 194.454 188.671 193.612Z" fill="white" stroke="white" stroke-width="12"/>
<path d="M193.698 170.478L183.322 190.893C182.466 192.578 182.019 194.441 182.019 196.33V259C182.019 265.627 176.647 271 170.019 271H131.199C124.572 271 119.199 265.627 119.199 259V197.54C119.199 194.892 118.323 192.318 116.708 190.22L63.9067 121.634C62.6704 120.029 62 118.059 62 116.032C62 108.322 70.9273 104.043 76.9373 108.874L81.0664 112.192C88.7377 118.358 100.133 112.897 100.133 103.055V56.0164C100.133 51.3935 103.881 47.6458 108.503 47.6458C113.126 47.6458 116.874 51.3935 116.874 56.0164V92.2179C116.874 94.7863 118.956 96.8683 121.524 96.8683C124.093 96.8683 126.175 94.7863 126.175 92.2179V38.3706C126.175 33.7477 129.922 30 134.545 30C139.168 30 142.916 33.7477 142.916 38.3706V92.2179C142.916 94.7863 144.998 96.8683 147.566 96.8683C150.135 96.8683 152.217 94.7863 152.217 92.2179V49.051C152.217 44.428 155.964 40.6804 160.587 40.6804C165.21 40.6804 168.958 44.428 168.958 49.051V92.2179C168.958 94.7863 171.04 96.8683 173.608 96.8683C176.177 96.8683 178.259 94.7863 178.259 92.2179V71.4058C178.259 67.7726 181.204 64.8272 184.837 64.8272C186.58 64.8272 188.252 65.519 189.486 66.7507L191.479 68.7413C193.733 70.9922 195 74.0471 195 77.2327V165.041C195 166.931 194.554 168.794 193.698 170.478Z" fill="#2F2F2F"/>
</g>
</svg>
