<svg viewBox="0 0 256 256" fill="none" xmlns="http://www.w3.org/2000/svg">
<mask id="mask0_3887_2" style="mask-type:alpha" maskUnits="userSpaceOnUse" x="0" y="0" width="256" height="256">
<rect width="256" height="256" fill="var(--gray)"/>
</mask>
<g mask="url(#mask0_3887_2)">
<path d="M128 10.5C164.644 10.5 197.368 27.275 218.917 53.5635C209.587 51.9123 199.642 54.5776 192.296 61.5605L191.727 62.1162L188.203 65.6387C172.61 50.5823 151.387 41.3193 128 41.3193C80.1278 41.3193 41.3193 80.1278 41.3193 128C41.3193 175.872 80.1278 214.681 128 214.681C175.872 214.681 214.681 175.872 214.681 128C214.681 127.449 214.673 126.899 214.663 126.351L235.312 105.702L235.867 105.133C238.183 102.697 240.022 99.975 241.389 97.085C244.068 106.936 245.5 117.301 245.5 128C245.5 192.893 192.893 245.5 128 245.5C63.1065 245.5 10.5 192.893 10.5 128C10.5 63.1065 63.1065 10.5 128 10.5Z" fill="var(--secondary)"/>
<path d="M80.3584 132.592L117.41 167.668C120.381 170.481 125.033 170.481 128.004 167.668L216.479 83.9092" stroke="var(--secondary)" stroke-width="30.8197" stroke-linecap="round"/>
</g>
</svg>
