<svg viewBox="0 0 256 256" fill="none" xmlns="http://www.w3.org/2000/svg">
<mask id="mask0_26_397" style="mask-type:alpha" maskUnits="userSpaceOnUse" x="0" y="0" width="256" height="256">
<rect width="256" height="256" fill="var(--gray)"/>
</mask>
<g mask="url(#mask0_26_397)">
<mask id="path-2-outside-1_26_397" maskUnits="userSpaceOnUse" x="37" y="20" width="48" height="222" fill="black">
<rect fill="var(--pageColor)" x="37" y="20" width="48" height="222"/>
<path d="M49.9906 32.6H72.3906V229.4H49.9906V32.6Z"/>
</mask>
<path d="M49.9906 32.6H72.3906V229.4H49.9906V32.6Z" fill="var(--pageColor)"/>
<path d="M49.9906 32.6V20.6H37.9906V32.6H49.9906ZM72.3906 32.6H84.3906V20.6H72.3906V32.6ZM72.3906 229.4V241.4H84.3906V229.4H72.3906ZM49.9906 229.4H37.9906V241.4H49.9906V229.4ZM49.9906 32.6V44.6H72.3906V32.6V20.6H49.9906V32.6ZM72.3906 32.6H60.3906V229.4H72.3906H84.3906V32.6H72.3906ZM72.3906 229.4V217.4H49.9906V229.4V241.4H72.3906V229.4ZM49.9906 229.4H61.9906V32.6H49.9906H37.9906V229.4H49.9906Z" fill="var(--pageColor)" mask="url(#path-2-outside-1_26_397)"/>
<mask id="path-4-outside-2_26_397" maskUnits="userSpaceOnUse" x="171" y="20" width="47" height="222" fill="black">
<rect fill="var(--pageColor)" x="171" y="20" width="47" height="222"/>
<path d="M183.6 32.6H206V229.4H183.6V32.6Z"/>
</mask>
<path d="M183.6 32.6H206V229.4H183.6V32.6Z" fill="var(--pageColor)"/>
<path d="M183.6 32.6V20.6H171.6V32.6H183.6ZM206 32.6H218V20.6H206V32.6ZM206 229.4V241.4H218V229.4H206ZM183.6 229.4H171.6V241.4H183.6V229.4ZM183.6 32.6V44.6H206V32.6V20.6H183.6V32.6ZM206 32.6H194V229.4H206H218V32.6H206ZM206 229.4V217.4H183.6V229.4V241.4H206V229.4ZM183.6 229.4H195.6V32.6H183.6H171.6V229.4H183.6Z" fill="var(--pageColor)" mask="url(#path-4-outside-2_26_397)"/>
<path d="M49.9906 32.6H72.3906V229.4H49.9906V32.6Z" fill="var(--darkGray)"/>
<path d="M183.6 32.6H206V229.4H183.6V32.6Z" fill="var(--darkGray)"/>
</g>
</svg>
