<svg viewBox="0 0 256 256" fill="none" xmlns="http://www.w3.org/2000/svg">
<mask id="mask0_26_389" style="mask-type:alpha" maskUnits="userSpaceOnUse" x="0" y="0" width="256" height="256">
<rect width="256" height="256" fill="var(--gray)"/>
</mask>
<g mask="url(#mask0_26_389)">
<mask id="path-2-outside-1_26_389" maskUnits="userSpaceOnUse" x="15" y="29" width="92" height="199" fill="white">
<rect x="15" y="29" width="92" height="199"/>
<path d="M94.2656 215.6C82.5323 215.6 73.4656 214.667 67.0656 212.8C60.799 210.933 56.4656 208 54.0656 204C51.6656 200 50.4656 194.8 50.4656 188.4V157.6C50.4656 153.333 49.4656 149.933 47.4656 147.4C45.4656 144.867 42.7323 143.067 39.2656 142C35.799 140.8 31.8656 140.2 27.4656 140.2V116.8C31.999 116.8 35.9323 116.267 39.2656 115.2C42.7323 114 45.4656 112.133 47.4656 109.6C49.4656 106.933 50.4656 103.533 50.4656 99.4V68.4C50.4656 63.6 51.0656 59.4667 52.2656 56C53.599 52.5333 55.8656 49.7333 59.0656 47.6C62.2656 45.4667 66.6656 43.8667 72.2656 42.8C77.999 41.7333 85.3323 41.2 94.2656 41.2V63.2C91.3323 63.2 88.599 63.6 86.0656 64.4C83.5323 65.2 81.4656 66.6 79.8656 68.6C78.2656 70.4667 77.4656 73.2667 77.4656 77V106.2C77.4656 112.333 75.599 117.2 71.8656 120.8C68.1323 124.4 62.7323 126.733 55.6656 127.8V129C62.7323 130.067 68.1323 132.4 71.8656 136C75.599 139.6 77.4656 144.467 77.4656 150.6V179.8C77.4656 183.533 78.2656 186.333 79.8656 188.2C81.4656 190.2 83.5323 191.533 86.0656 192.2C88.7323 193 91.4656 193.467 94.2656 193.6V215.6Z"/>
</mask>
<path d="M94.2656 215.6C82.5323 215.6 73.4656 214.667 67.0656 212.8C60.799 210.933 56.4656 208 54.0656 204C51.6656 200 50.4656 194.8 50.4656 188.4V157.6C50.4656 153.333 49.4656 149.933 47.4656 147.4C45.4656 144.867 42.7323 143.067 39.2656 142C35.799 140.8 31.8656 140.2 27.4656 140.2V116.8C31.999 116.8 35.9323 116.267 39.2656 115.2C42.7323 114 45.4656 112.133 47.4656 109.6C49.4656 106.933 50.4656 103.533 50.4656 99.4V68.4C50.4656 63.6 51.0656 59.4667 52.2656 56C53.599 52.5333 55.8656 49.7333 59.0656 47.6C62.2656 45.4667 66.6656 43.8667 72.2656 42.8C77.999 41.7333 85.3323 41.2 94.2656 41.2V63.2C91.3323 63.2 88.599 63.6 86.0656 64.4C83.5323 65.2 81.4656 66.6 79.8656 68.6C78.2656 70.4667 77.4656 73.2667 77.4656 77V106.2C77.4656 112.333 75.599 117.2 71.8656 120.8C68.1323 124.4 62.7323 126.733 55.6656 127.8V129C62.7323 130.067 68.1323 132.4 71.8656 136C75.599 139.6 77.4656 144.467 77.4656 150.6V179.8C77.4656 183.533 78.2656 186.333 79.8656 188.2C81.4656 190.2 83.5323 191.533 86.0656 192.2C88.7323 193 91.4656 193.467 94.2656 193.6V215.6Z" fill="var(--pageColor)"/>
<path d="M94.2656 215.6V227.6H106.266V215.6H94.2656ZM67.0656 212.8L63.6399 224.301L63.6727 224.31L63.7056 224.32L67.0656 212.8ZM54.0656 204L64.3555 197.826L64.3555 197.826L54.0656 204ZM47.4656 147.4L56.8842 139.964L56.8842 139.964L47.4656 147.4ZM39.2656 142L35.3403 153.34L35.5373 153.408L35.7366 153.469L39.2656 142ZM27.4656 140.2H15.4656V152.2H27.4656V140.2ZM27.4656 116.8V104.8H15.4656V116.8H27.4656ZM39.2656 115.2L42.9229 126.629L43.0575 126.586L43.191 126.54L39.2656 115.2ZM47.4656 109.6L56.8842 117.036L56.9764 116.919L57.0656 116.8L47.4656 109.6ZM52.2656 56L41.0655 51.6922L40.9924 51.8823L40.9258 52.0747L52.2656 56ZM59.0656 47.6L52.4092 37.6154L52.4092 37.6154L59.0656 47.6ZM72.2656 42.8L70.0707 31.0024L70.0455 31.0071L70.0203 31.0119L72.2656 42.8ZM94.2656 41.2H106.266V29.2H94.2656V41.2ZM94.2656 63.2V75.2H106.266V63.2H94.2656ZM86.0656 64.4L82.4521 52.957L82.452 52.957L86.0656 64.4ZM79.8656 68.6L88.9767 76.4095L89.109 76.2551L89.2361 76.0963L79.8656 68.6ZM71.8656 120.8L80.1953 129.438L71.8656 120.8ZM55.6656 127.8L53.8746 115.934L43.6656 117.475V127.8H55.6656ZM55.6656 129H43.6656V139.325L53.8746 140.866L55.6656 129ZM71.8656 136L63.536 144.638L63.536 144.638L71.8656 136ZM79.8656 188.2L89.2361 180.704L89.109 180.545L88.9767 180.391L79.8656 188.2ZM86.0656 192.2L89.5138 180.706L89.3176 180.647L89.1195 180.595L86.0656 192.2ZM94.2656 193.6H106.266V182.158L94.8364 181.614L94.2656 193.6ZM94.2656 215.6V203.6C82.9466 203.6 75.2081 202.675 70.4256 201.28L67.0656 212.8L63.7056 224.32C71.7232 226.658 82.1179 227.6 94.2656 227.6V215.6ZM67.0656 212.8L70.4913 201.299C65.9423 199.944 64.6885 198.381 64.3555 197.826L54.0656 204L43.7757 210.174C48.2427 217.619 55.6556 221.922 63.6399 224.301L67.0656 212.8ZM54.0656 204L64.3555 197.826C63.4162 196.26 62.4656 193.402 62.4656 188.4H50.4656H38.4656C38.4656 196.198 39.9151 203.74 43.7757 210.174L54.0656 204ZM50.4656 188.4H62.4656V157.6H50.4656H38.4656V188.4H50.4656ZM50.4656 157.6H62.4656C62.4656 151.506 61.0258 145.21 56.8842 139.964L47.4656 147.4L38.047 154.836C37.9055 154.656 38.4656 155.161 38.4656 157.6H50.4656ZM47.4656 147.4L56.8842 139.964C53.1927 135.288 48.2891 132.221 42.7947 130.531L39.2656 142L35.7366 153.469C37.1755 153.912 37.7386 154.445 38.047 154.836L47.4656 147.4ZM39.2656 142L43.191 130.66C38.2386 128.946 32.9431 128.2 27.4656 128.2V140.2V152.2C30.7881 152.2 33.3594 152.654 35.3403 153.34L39.2656 142ZM27.4656 140.2H39.4656V116.8H27.4656H15.4656V140.2H27.4656ZM27.4656 116.8V128.8C32.8942 128.8 38.1176 128.167 42.9229 126.629L39.2656 115.2L35.6083 103.771C33.747 104.367 31.1037 104.8 27.4656 104.8V116.8ZM39.2656 115.2L43.191 126.54C48.5201 124.695 53.2767 121.605 56.8842 117.036L47.4656 109.6L38.047 102.164C37.6546 102.661 36.9445 103.305 35.3403 103.86L39.2656 115.2ZM47.4656 109.6L57.0656 116.8C60.9653 111.6 62.4656 105.496 62.4656 99.4H50.4656H38.4656C38.4656 101.571 37.9659 102.266 37.8656 102.4L47.4656 109.6ZM50.4656 99.4H62.4656V68.4H50.4656H38.4656V99.4H50.4656ZM50.4656 68.4H62.4656C62.4656 64.5472 62.9538 61.808 63.6055 59.9253L52.2656 56L40.9258 52.0747C39.1775 57.1253 38.4656 62.6528 38.4656 68.4H50.4656ZM52.2656 56L63.4658 60.3077C63.875 59.2438 64.5092 58.3931 65.722 57.5846L59.0656 47.6L52.4092 37.6154C47.222 41.0735 43.3229 45.8229 41.0655 51.6922L52.2656 56ZM59.0656 47.6L65.722 57.5846C67.1047 56.6628 69.7951 55.4863 74.511 54.5881L72.2656 42.8L70.0203 31.0119C63.5361 32.247 57.4266 34.2705 52.4092 37.6154L59.0656 47.6ZM72.2656 42.8L74.4605 54.5976C79.1961 53.7165 85.7246 53.2 94.2656 53.2V41.2V29.2C84.9399 29.2 76.8018 29.7501 70.0707 31.0024L72.2656 42.8ZM94.2656 41.2H82.2656V63.2H94.2656H106.266V41.2H94.2656ZM94.2656 63.2V51.2C90.233 51.2 86.2693 51.7516 82.4521 52.957L86.0656 64.4L89.6792 75.843C90.9287 75.4484 92.4316 75.2 94.2656 75.2V63.2ZM86.0656 64.4L82.452 52.957C77.7405 54.4449 73.6382 57.1749 70.4952 61.1037L79.8656 68.6L89.2361 76.0963C89.3032 76.0124 89.3359 75.9917 89.3458 75.985C89.3588 75.9762 89.4478 75.9161 89.6792 75.843L86.0656 64.4ZM79.8656 68.6L70.7545 60.7905C66.5339 65.7146 65.4656 71.8308 65.4656 77H77.4656H89.4656C89.4656 76.4907 89.4932 76.1071 89.5267 75.8335C89.5602 75.5597 89.5964 75.4229 89.6039 75.3966C89.6157 75.3553 89.4896 75.8111 88.9767 76.4095L79.8656 68.6ZM77.4656 77H65.4656V106.2H77.4656H89.4656V77H77.4656ZM77.4656 106.2H65.4656C65.4656 109.718 64.4979 111.234 63.536 112.162L71.8656 120.8L80.1953 129.438C86.7 123.166 89.4656 114.948 89.4656 106.2H77.4656ZM71.8656 120.8L63.536 112.162C62.1581 113.491 59.3872 115.102 53.8746 115.934L55.6656 127.8L57.4567 139.666C66.0774 138.364 74.1065 135.309 80.1953 129.438L71.8656 120.8ZM55.6656 127.8H43.6656V129H55.6656H67.6656V127.8H55.6656ZM55.6656 129L53.8746 140.866C59.3872 141.698 62.1581 143.309 63.536 144.638L71.8656 136L80.1953 127.362C74.1065 121.491 66.0774 118.436 57.4567 117.134L55.6656 129ZM71.8656 136L63.536 144.638C64.4979 145.566 65.4656 147.082 65.4656 150.6H77.4656H89.4656C89.4656 141.852 86.7 133.634 80.1953 127.362L71.8656 136ZM77.4656 150.6H65.4656V179.8H77.4656H89.4656V150.6H77.4656ZM77.4656 179.8H65.4656C65.4656 184.969 66.5339 191.085 70.7545 196.009L79.8656 188.2L88.9767 180.391C89.4896 180.989 89.6157 181.445 89.6039 181.403C89.5964 181.377 89.5602 181.24 89.5267 180.967C89.4932 180.693 89.4656 180.309 89.4656 179.8H77.4656ZM79.8656 188.2L70.4952 195.696C73.7439 199.757 78.0474 202.498 83.0117 203.805L86.0656 192.2L89.1195 180.595C89.0515 180.577 89.0278 180.566 89.0378 180.57C89.0487 180.575 89.0795 180.59 89.1212 180.616C89.163 180.643 89.199 180.672 89.2252 180.696C89.251 180.719 89.2537 180.726 89.2361 180.704L79.8656 188.2ZM86.0656 192.2L82.6175 203.694C86.2261 204.777 89.926 205.407 93.6948 205.586L94.2656 193.6L94.8364 181.614C93.0053 181.526 91.2385 181.223 89.5138 180.706L86.0656 192.2ZM94.2656 193.6H82.2656V215.6H94.2656H106.266V193.6H94.2656Z" fill="var(--pageColor)" mask="url(#path-2-outside-1_26_389)"/>
<mask id="path-4-outside-2_26_389" maskUnits="userSpaceOnUse" x="149" y="29" width="92" height="199" fill="white">
<rect x="149" y="29" width="92" height="199"/>
<path d="M161.8 193.6C164.733 193.467 167.467 193 170 192.2C172.533 191.533 174.6 190.2 176.2 188.2C177.8 186.333 178.6 183.533 178.6 179.8V150.6C178.6 144.467 180.467 139.6 184.2 136C187.933 132.4 193.267 130.067 200.2 129V127.8C193.267 126.733 187.933 124.4 184.2 120.8C180.467 117.2 178.6 112.333 178.6 106.2V77C178.6 73.2667 177.8 70.4667 176.2 68.6C174.6 66.6 172.533 65.2 170 64.4C167.467 63.6 164.733 63.2 161.8 63.2V41.2C170.733 41.2 178 41.7333 183.6 42.8C189.333 43.8667 193.733 45.4667 196.8 47.6C200 49.7333 202.267 52.5333 203.6 56C204.933 59.4667 205.6 63.6 205.6 68.4V99.4C205.6 103.533 206.533 106.933 208.4 109.6C210.4 112.133 213.133 114 216.6 115.2C220.067 116.267 224.067 116.8 228.6 116.8V140.2C224.2 140.2 220.2 140.8 216.6 142C213.133 143.067 210.4 144.867 208.4 147.4C206.533 149.933 205.6 153.333 205.6 157.6V188.4C205.6 194.8 204.4 200 202 204C199.6 208 195.267 210.933 189 212.8C182.733 214.667 173.667 215.6 161.8 215.6V193.6Z"/>
</mask>
<path d="M161.8 193.6C164.733 193.467 167.467 193 170 192.2C172.533 191.533 174.6 190.2 176.2 188.2C177.8 186.333 178.6 183.533 178.6 179.8V150.6C178.6 144.467 180.467 139.6 184.2 136C187.933 132.4 193.267 130.067 200.2 129V127.8C193.267 126.733 187.933 124.4 184.2 120.8C180.467 117.2 178.6 112.333 178.6 106.2V77C178.6 73.2667 177.8 70.4667 176.2 68.6C174.6 66.6 172.533 65.2 170 64.4C167.467 63.6 164.733 63.2 161.8 63.2V41.2C170.733 41.2 178 41.7333 183.6 42.8C189.333 43.8667 193.733 45.4667 196.8 47.6C200 49.7333 202.267 52.5333 203.6 56C204.933 59.4667 205.6 63.6 205.6 68.4V99.4C205.6 103.533 206.533 106.933 208.4 109.6C210.4 112.133 213.133 114 216.6 115.2C220.067 116.267 224.067 116.8 228.6 116.8V140.2C224.2 140.2 220.2 140.8 216.6 142C213.133 143.067 210.4 144.867 208.4 147.4C206.533 149.933 205.6 153.333 205.6 157.6V188.4C205.6 194.8 204.4 200 202 204C199.6 208 195.267 210.933 189 212.8C182.733 214.667 173.667 215.6 161.8 215.6V193.6Z" fill="var(--pageColor)"/>
<path d="M161.8 193.6L161.255 181.612L149.8 182.133V193.6H161.8ZM170 192.2L166.946 180.595L166.664 180.669L166.386 180.757L170 192.2ZM176.2 188.2L167.089 180.391L166.957 180.545L166.83 180.704L176.2 188.2ZM184.2 136L192.53 144.638L192.53 144.638L184.2 136ZM200.2 129L202.025 140.86L212.2 139.295V129H200.2ZM200.2 127.8H212.2V117.505L202.025 115.94L200.2 127.8ZM184.2 120.8L192.53 112.162L192.53 112.162L184.2 120.8ZM176.2 68.6L166.83 76.0963L166.957 76.2551L167.089 76.4095L176.2 68.6ZM170 64.4L173.614 52.957L173.614 52.957L170 64.4ZM161.8 63.2H149.8V75.2H161.8V63.2ZM161.8 41.2V29.2H149.8V41.2H161.8ZM183.6 42.8L181.355 54.5881L181.38 54.5929L181.405 54.5976L183.6 42.8ZM196.8 47.6L189.947 57.4509L190.045 57.5187L190.144 57.5846L196.8 47.6ZM203.6 56L214.8 51.6922L214.8 51.6922L203.6 56ZM208.4 109.6L198.569 116.482L198.767 116.765L198.981 117.036L208.4 109.6ZM216.6 115.2L212.675 126.54L212.872 126.608L213.071 126.669L216.6 115.2ZM228.6 116.8H240.6V104.8H228.6V116.8ZM228.6 140.2V152.2H240.6V140.2H228.6ZM216.6 142L220.129 153.469L220.262 153.428L220.395 153.384L216.6 142ZM208.4 147.4L198.981 139.964L198.858 140.121L198.739 140.282L208.4 147.4ZM202 204L191.71 197.826L191.71 197.826L202 204ZM189 212.8L185.574 201.299L185.574 201.299L189 212.8ZM161.8 215.6H149.8V227.6H161.8V215.6ZM161.8 193.6L162.345 205.588C166.212 205.412 169.987 204.788 173.614 203.643L170 192.2L166.386 180.757C164.946 181.212 163.254 181.521 161.255 181.612L161.8 193.6ZM170 192.2L173.054 203.805C178.018 202.498 182.322 199.757 185.57 195.696L176.2 188.2L166.83 180.704C166.812 180.726 166.815 180.719 166.84 180.696C166.867 180.672 166.903 180.643 166.944 180.616C166.986 180.59 167.017 180.575 167.028 180.57C167.038 180.566 167.014 180.577 166.946 180.595L170 192.2ZM176.2 188.2L185.311 196.009C189.532 191.085 190.6 184.969 190.6 179.8H178.6H166.6C166.6 180.309 166.572 180.693 166.539 180.967C166.505 181.24 166.469 181.377 166.462 181.403C166.45 181.445 166.576 180.989 167.089 180.391L176.2 188.2ZM178.6 179.8H190.6V150.6H178.6H166.6V179.8H178.6ZM178.6 150.6H190.6C190.6 147.082 191.568 145.566 192.53 144.638L184.2 136L175.87 127.362C169.366 133.634 166.6 141.852 166.6 150.6H178.6ZM184.2 136L192.53 144.638C193.948 143.27 196.693 141.681 202.025 140.86L200.2 129L198.375 117.14C189.84 118.453 181.918 121.53 175.87 127.362L184.2 136ZM200.2 129H212.2V127.8H200.2H188.2V129H200.2ZM200.2 127.8L202.025 115.94C196.693 115.119 193.948 113.53 192.53 112.162L184.2 120.8L175.87 129.438C181.918 135.27 189.84 138.347 198.375 139.66L200.2 127.8ZM184.2 120.8L192.53 112.162C191.568 111.234 190.6 109.718 190.6 106.2H178.6H166.6C166.6 114.948 169.366 123.166 175.87 129.438L184.2 120.8ZM178.6 106.2H190.6V77H178.6H166.6V106.2H178.6ZM178.6 77H190.6C190.6 71.8308 189.532 65.7146 185.311 60.7905L176.2 68.6L167.089 76.4095C166.576 75.8111 166.45 75.3553 166.462 75.3966C166.469 75.4229 166.505 75.5597 166.539 75.8335C166.572 76.1071 166.6 76.4907 166.6 77H178.6ZM176.2 68.6L185.57 61.1036C182.427 57.1749 178.325 54.4449 173.614 52.957L170 64.4L166.386 75.843C166.618 75.9161 166.707 75.9762 166.72 75.985C166.73 75.9917 166.762 76.0124 166.83 76.0963L176.2 68.6ZM170 64.4L173.614 52.957C169.796 51.7516 165.833 51.2 161.8 51.2V63.2V75.2C163.634 75.2 165.137 75.4484 166.386 75.843L170 64.4ZM161.8 63.2H173.8V41.2H161.8H149.8V63.2H161.8ZM161.8 41.2V53.2C170.352 53.2 176.788 53.7181 181.355 54.5881L183.6 42.8L185.845 31.0119C179.212 29.7485 171.115 29.2 161.8 29.2V41.2ZM183.6 42.8L181.405 54.5976C186.306 55.5093 188.841 56.6812 189.947 57.4509L196.8 47.6L203.653 37.7491C198.626 34.2521 192.361 32.224 185.795 31.0024L183.6 42.8ZM196.8 47.6L190.144 57.5846C191.356 58.3931 191.991 59.2438 192.4 60.3077L203.6 56L214.8 51.6922C212.543 45.8229 208.644 41.0735 203.456 37.6154L196.8 47.6ZM203.6 56L192.4 60.3077C193.075 62.0631 193.6 64.6631 193.6 68.4H205.6H217.6C217.6 62.5369 216.792 56.8702 214.8 51.6922L203.6 56ZM205.6 68.4H193.6V99.4H205.6H217.6V68.4H205.6ZM205.6 99.4H193.6C193.6 105.33 194.952 111.314 198.569 116.482L208.4 109.6L218.231 102.718C218.115 102.553 217.6 101.737 217.6 99.4H205.6ZM208.4 109.6L198.981 117.036C202.589 121.605 207.346 124.695 212.675 126.54L216.6 115.2L220.525 103.86C218.921 103.305 218.211 102.661 217.819 102.164L208.4 109.6ZM216.6 115.2L213.071 126.669C217.925 128.163 223.156 128.8 228.6 128.8V116.8V104.8C224.978 104.8 222.209 104.37 220.129 103.731L216.6 115.2ZM228.6 116.8H216.6V140.2H228.6H240.6V116.8H228.6ZM228.6 140.2V128.2C223.112 128.2 217.806 128.949 212.805 130.616L216.6 142L220.395 153.384C222.594 152.651 225.288 152.2 228.6 152.2V140.2ZM216.6 142L213.071 130.531C207.577 132.221 202.673 135.288 198.981 139.964L208.4 147.4L217.819 154.836C218.127 154.445 218.69 153.912 220.129 153.469L216.6 142ZM208.4 147.4L198.739 140.282C194.895 145.499 193.6 151.67 193.6 157.6H205.6H217.6C217.6 154.997 218.172 154.368 218.061 154.518L208.4 147.4ZM205.6 157.6H193.6V188.4H205.6H217.6V157.6H205.6ZM205.6 188.4H193.6C193.6 193.402 192.649 196.26 191.71 197.826L202 204L212.29 210.174C216.151 203.74 217.6 196.198 217.6 188.4H205.6ZM202 204L191.71 197.826C191.377 198.381 190.123 199.944 185.574 201.299L189 212.8L192.426 224.301C200.41 221.922 207.823 217.619 212.29 210.174L202 204ZM189 212.8L185.574 201.299C180.978 202.668 173.287 203.6 161.8 203.6V215.6V227.6C174.046 227.6 184.488 226.665 192.426 224.301L189 212.8ZM161.8 215.6H173.8V193.6H161.8H149.8V215.6H161.8Z" fill="var(--pageColor)" mask="url(#path-4-outside-2_26_389)"/>
<path d="M94.2656 215.6C82.5323 215.6 73.4656 214.667 67.0656 212.8C60.799 210.933 56.4656 208 54.0656 204C51.6656 200 50.4656 194.8 50.4656 188.4V157.6C50.4656 153.333 49.4656 149.933 47.4656 147.4C45.4656 144.867 42.7323 143.067 39.2656 142C35.799 140.8 31.8656 140.2 27.4656 140.2V116.8C31.999 116.8 35.9323 116.267 39.2656 115.2C42.7323 114 45.4656 112.133 47.4656 109.6C49.4656 106.933 50.4656 103.533 50.4656 99.4V68.4C50.4656 63.6 51.0656 59.4667 52.2656 56C53.599 52.5333 55.8656 49.7333 59.0656 47.6C62.2656 45.4667 66.6656 43.8667 72.2656 42.8C77.999 41.7333 85.3323 41.2 94.2656 41.2V63.2C91.3323 63.2 88.599 63.6 86.0656 64.4C83.5323 65.2 81.4656 66.6 79.8656 68.6C78.2656 70.4667 77.4656 73.2667 77.4656 77V106.2C77.4656 112.333 75.599 117.2 71.8656 120.8C68.1323 124.4 62.7323 126.733 55.6656 127.8V129C62.7323 130.067 68.1323 132.4 71.8656 136C75.599 139.6 77.4656 144.467 77.4656 150.6V179.8C77.4656 183.533 78.2656 186.333 79.8656 188.2C81.4656 190.2 83.5323 191.533 86.0656 192.2C88.7323 193 91.4656 193.467 94.2656 193.6V215.6Z" fill="var(--darkGray)"/>
<path d="M161.8 193.6C164.733 193.467 167.467 193 170 192.2C172.533 191.533 174.6 190.2 176.2 188.2C177.8 186.333 178.6 183.533 178.6 179.8V150.6C178.6 144.467 180.467 139.6 184.2 136C187.933 132.4 193.267 130.067 200.2 129V127.8C193.267 126.733 187.933 124.4 184.2 120.8C180.467 117.2 178.6 112.333 178.6 106.2V77C178.6 73.2667 177.8 70.4667 176.2 68.6C174.6 66.6 172.533 65.2 170 64.4C167.467 63.6 164.733 63.2 161.8 63.2V41.2C170.733 41.2 178 41.7333 183.6 42.8C189.333 43.8667 193.733 45.4667 196.8 47.6C200 49.7333 202.267 52.5333 203.6 56C204.933 59.4667 205.6 63.6 205.6 68.4V99.4C205.6 103.533 206.533 106.933 208.4 109.6C210.4 112.133 213.133 114 216.6 115.2C220.067 116.267 224.067 116.8 228.6 116.8V140.2C224.2 140.2 220.2 140.8 216.6 142C213.133 143.067 210.4 144.867 208.4 147.4C206.533 149.933 205.6 153.333 205.6 157.6V188.4C205.6 194.8 204.4 200 202 204C199.6 208 195.267 210.933 189 212.8C182.733 214.667 173.667 215.6 161.8 215.6V193.6Z" fill="var(--darkGray)"/>
</g>
</svg>
