<svg viewBox="0 0 256 256" fill="none" xmlns="http://www.w3.org/2000/svg">
<mask id="mask0_26_376" style="mask-type:alpha" maskUnits="userSpaceOnUse" x="0" y="0" width="256" height="256">
<rect width="256" height="256" fill="var(--gray)"/>
</mask>
<g mask="url(#mask0_26_376)">
<mask id="path-2-outside-1_26_376" maskUnits="userSpaceOnUse" x="29" y="29" width="70" height="199" fill="black">
<rect fill="var(--pageColor)" x="29" y="29" width="70" height="199"/>
<path d="M86.4813 215.6H41.2813V41.2H86.4813V61.8H67.6813V195H86.4813V215.6Z"/>
</mask>
<path d="M86.4813 215.6H41.2813V41.2H86.4813V61.8H67.6813V195H86.4813V215.6Z" fill="var(--pageColor)"/>
<path d="M86.4813 215.6V227.6H98.4813V215.6H86.4813ZM41.2813 215.6H29.2813V227.6H41.2813V215.6ZM41.2813 41.2V29.2H29.2813V41.2H41.2813ZM86.4813 41.2H98.4813V29.2H86.4813V41.2ZM86.4813 61.8V73.8H98.4813V61.8H86.4813ZM67.6813 61.8V49.8H55.6813V61.8H67.6813ZM67.6813 195H55.6813V207H67.6813V195ZM86.4813 195H98.4813V183H86.4813V195ZM86.4813 215.6V203.6H41.2813V215.6V227.6H86.4813V215.6ZM41.2813 215.6H53.2813V41.2H41.2813H29.2813V215.6H41.2813ZM41.2813 41.2V53.2H86.4813V41.2V29.2H41.2813V41.2ZM86.4813 41.2H74.4813V61.8H86.4813H98.4813V41.2H86.4813ZM86.4813 61.8V49.8H67.6813V61.8V73.8H86.4813V61.8ZM67.6813 61.8H55.6813V195H67.6813H79.6813V61.8H67.6813ZM67.6813 195V207H86.4813V195V183H67.6813V195ZM86.4813 195H74.4813V215.6H86.4813H98.4813V195H86.4813Z" fill="var(--pageColor)" mask="url(#path-2-outside-1_26_376)"/>
<mask id="path-4-outside-2_26_376" maskUnits="userSpaceOnUse" x="157" y="29" width="70" height="199" fill="black">
<rect fill="var(--pageColor)" x="157" y="29" width="70" height="199"/>
<path d="M169.6 195H188.2V61.8H169.6V41.2H214.8V215.6H169.6V195Z"/>
</mask>
<path d="M169.6 195H188.2V61.8H169.6V41.2H214.8V215.6H169.6V195Z" fill="var(--pageColor)"/>
<path d="M169.6 195V183H157.6V195H169.6ZM188.2 195V207H200.2V195H188.2ZM188.2 61.8H200.2V49.8H188.2V61.8ZM169.6 61.8H157.6V73.8H169.6V61.8ZM169.6 41.2V29.2H157.6V41.2H169.6ZM214.8 41.2H226.8V29.2H214.8V41.2ZM214.8 215.6V227.6H226.8V215.6H214.8ZM169.6 215.6H157.6V227.6H169.6V215.6ZM169.6 195V207H188.2V195V183H169.6V195ZM188.2 195H200.2V61.8H188.2H176.2V195H188.2ZM188.2 61.8V49.8H169.6V61.8V73.8H188.2V61.8ZM169.6 61.8H181.6V41.2H169.6H157.6V61.8H169.6ZM169.6 41.2V53.2H214.8V41.2V29.2H169.6V41.2ZM214.8 41.2H202.8V215.6H214.8H226.8V41.2H214.8ZM214.8 215.6V203.6H169.6V215.6V227.6H214.8V215.6ZM169.6 215.6H181.6V195H169.6H157.6V215.6H169.6Z" fill="var(--pageColor)" mask="url(#path-4-outside-2_26_376)"/>
<path d="M86.4813 215.6H41.2813V41.2H86.4813V61.8H67.6813V195H86.4813V215.6Z" fill="var(--darkGray)"/>
<path d="M169.6 195H188.2V61.8H169.6V41.2H214.8V215.6H169.6V195Z" fill="var(--darkGray)"/>
</g>
</svg>
