<svg width="256" height="256" viewBox="0 0 256 256" fill="none" xmlns="http://www.w3.org/2000/svg">
<mask id="mask0_20_238" style="mask-type:alpha" maskUnits="userSpaceOnUse" x="0" y="0" width="256" height="256">
<rect width="256" height="256" fill="var(--gray)"/>
</mask>
<g mask="url(#mask0_20_238)">
<mask id="path-2-outside-1_20_238" maskUnits="userSpaceOnUse" x="40" y="54" width="59" height="156" fill="black">
<rect fill="var(--pageColor)" x="40" y="54" width="59" height="156"/>
<path d="M81.36 152.34H57.78L53.46 66.48H85.68L81.36 152.34ZM53.46 182.4C53.46 176.88 55.02 173.04 58.14 170.88C61.26 168.6 65.04 167.46 69.48 167.46C73.8 167.46 77.46 168.6 80.46 170.88C83.58 173.04 85.14 176.88 85.14 182.4C85.14 187.68 83.58 191.52 80.46 193.92C77.46 196.2 73.8 197.34 69.48 197.34C65.04 197.34 61.26 196.2 58.14 193.92C55.02 191.52 53.46 187.68 53.46 182.4Z"/>
</mask>
<path d="M81.36 152.34H57.78L53.46 66.48H85.68L81.36 152.34ZM53.46 182.4C53.46 176.88 55.02 173.04 58.14 170.88C61.26 168.6 65.04 167.46 69.48 167.46C73.8 167.46 77.46 168.6 80.46 170.88C83.58 173.04 85.14 176.88 85.14 182.4C85.14 187.68 83.58 191.52 80.46 193.92C77.46 196.2 73.8 197.34 69.48 197.34C65.04 197.34 61.26 196.2 58.14 193.92C55.02 191.52 53.46 187.68 53.46 182.4Z" fill="var(--pageColor)"/>
<path d="M81.36 152.34V164.34H92.7714L93.3448 152.943L81.36 152.34ZM57.78 152.34L45.7952 152.943L46.3686 164.34H57.78V152.34ZM53.46 66.48V54.48H40.841L41.4752 67.083L53.46 66.48ZM85.68 66.48L97.6648 67.083L98.299 54.48H85.68V66.48ZM58.14 170.88L64.9705 180.746L65.0965 180.659L65.2202 180.569L58.14 170.88ZM80.46 170.88L73.199 180.434L73.4108 180.595L73.6295 180.746L80.46 170.88ZM80.46 193.92L87.721 203.474L87.7488 203.453L87.7765 203.431L80.46 193.92ZM58.14 193.92L50.8235 203.431L50.9405 203.522L51.0598 203.609L58.14 193.92ZM81.36 152.34V140.34H57.78V152.34V164.34H81.36V152.34ZM57.78 152.34L69.7648 151.737L65.4448 65.877L53.46 66.48L41.4752 67.083L45.7952 152.943L57.78 152.34ZM53.46 66.48V78.48H85.68V66.48V54.48H53.46V66.48ZM85.68 66.48L73.6952 65.877L69.3752 151.737L81.36 152.34L93.3448 152.943L97.6648 67.083L85.68 66.48ZM53.46 182.4H65.46C65.46 180.703 65.7087 179.992 65.7476 179.897C65.7576 179.872 65.7088 179.998 65.5545 180.195C65.3951 180.4 65.191 180.594 64.9705 180.746L58.14 170.88L51.3095 161.014C43.6499 166.316 41.46 174.848 41.46 182.4H53.46ZM58.14 170.88L65.2202 180.569C65.9882 180.007 67.1915 179.46 69.48 179.46V167.46V155.46C62.8885 155.46 56.5318 157.193 51.0598 161.191L58.14 170.88ZM69.48 167.46V179.46C71.5787 179.46 72.5854 179.968 73.199 180.434L80.46 170.88L87.721 161.326C82.3346 157.232 76.0213 155.46 69.48 155.46V167.46ZM80.46 170.88L73.6295 180.746C73.409 180.594 73.2049 180.4 73.0455 180.195C72.8912 179.998 72.8424 179.872 72.8524 179.897C72.8913 179.992 73.14 180.703 73.14 182.4H85.14H97.14C97.14 174.848 94.9501 166.316 87.2905 161.014L80.46 170.88ZM85.14 182.4H73.14C73.14 183.898 72.914 184.572 72.8524 184.723C72.8265 184.787 72.8358 184.746 72.9075 184.65C72.9815 184.551 73.0692 184.466 73.1435 184.409L80.46 193.92L87.7765 203.431C94.7881 198.038 97.14 190.036 97.14 182.4H85.14ZM80.46 193.92L73.199 184.366C72.5854 184.832 71.5787 185.34 69.48 185.34V197.34V209.34C76.0213 209.34 82.3346 207.568 87.721 203.474L80.46 193.92ZM69.48 197.34V185.34C67.1915 185.34 65.9882 184.793 65.2202 184.231L58.14 193.92L51.0598 203.609C56.5318 207.607 62.8885 209.34 69.48 209.34V197.34ZM58.14 193.92L65.4565 184.409C65.5308 184.466 65.6185 184.551 65.6925 184.65C65.7642 184.746 65.7735 184.787 65.7476 184.723C65.686 184.572 65.46 183.898 65.46 182.4H53.46H41.46C41.46 190.036 43.8119 198.038 50.8235 203.431L58.14 193.92Z" fill="var(--pageColor)" mask="url(#path-2-outside-1_20_238)"/>
<mask id="path-4-inside-2_20_238" fill="var(--pageColor)">
<rect x="123" y="78" width="60" height="100" rx="4"/>
</mask>
<rect x="123" y="78" width="60" height="100" rx="4" stroke="var(--pageColor)" stroke-width="24" mask="url(#path-4-inside-2_20_238)"/>
<rect x="107" y="62" width="92" height="132" rx="20" stroke="var(--pageColor)" stroke-width="32"/>
<rect x="113" y="68" width="80" height="120" rx="14" stroke="var(--darkGray)" stroke-width="20"/>
<path d="M81.36 152.34H57.78L53.46 66.48H85.68L81.36 152.34ZM53.46 182.4C53.46 176.88 55.02 173.04 58.14 170.88C61.26 168.6 65.04 167.46 69.48 167.46C73.8 167.46 77.46 168.6 80.46 170.88C83.58 173.04 85.14 176.88 85.14 182.4C85.14 187.68 83.58 191.52 80.46 193.92C77.46 196.2 73.8 197.34 69.48 197.34C65.04 197.34 61.26 196.2 58.14 193.92C55.02 191.52 53.46 187.68 53.46 182.4Z" fill="var(--darkGray)"/>
</g>
</svg>
