<svg viewBox="0 0 256 256" fill="none" xmlns="http://www.w3.org/2000/svg">
<mask id="mask0_26_354" style="mask-type:alpha" maskUnits="userSpaceOnUse" x="0" y="0" width="256" height="256">
<rect width="256" height="256" fill="var(--gray)"/>
</mask>
<g mask="url(#mask0_26_354)">
<mask id="path-2-outside-1_26_354" maskUnits="userSpaceOnUse" x="20" y="29" width="89" height="199" fill="white">
<rect x="20" y="29" width="89" height="199"/>
<path d="M32.575 129.2C32.575 118.267 33.4417 107.6 35.175 97.2C37.0417 86.8 39.975 76.8667 43.975 67.4C47.975 57.9333 53.1083 49.2 59.375 41.2H85.575C79.975 49.4667 75.3083 58.4 71.575 68C67.8417 77.6 65.0417 87.5333 63.175 97.8C61.4417 108.067 60.575 118.467 60.575 129C60.575 139.267 61.4417 149.533 63.175 159.8C65.0417 169.933 67.8417 179.667 71.575 189C75.3083 198.467 79.975 207.333 85.575 215.6H59.375C53.1083 207.733 47.975 199.133 43.975 189.8C39.975 180.6 37.0417 170.867 35.175 160.6C33.4417 150.333 32.575 139.867 32.575 129.2Z"/>
</mask>
<path d="M32.575 129.2C32.575 118.267 33.4417 107.6 35.175 97.2C37.0417 86.8 39.975 76.8667 43.975 67.4C47.975 57.9333 53.1083 49.2 59.375 41.2H85.575C79.975 49.4667 75.3083 58.4 71.575 68C67.8417 77.6 65.0417 87.5333 63.175 97.8C61.4417 108.067 60.575 118.467 60.575 129C60.575 139.267 61.4417 149.533 63.175 159.8C65.0417 169.933 67.8417 179.667 71.575 189C75.3083 198.467 79.975 207.333 85.575 215.6H59.375C53.1083 207.733 47.975 199.133 43.975 189.8C39.975 180.6 37.0417 170.867 35.175 160.6C33.4417 150.333 32.575 139.867 32.575 129.2Z" fill="var(--pageColor)"/>
<path d="M35.175 97.2L23.3637 95.08L23.3506 95.1535L23.3383 95.2272L35.175 97.2ZM43.975 67.4L55.0288 72.0706L55.0288 72.0706L43.975 67.4ZM59.375 41.2V29.2H53.5316L49.9283 33.8L59.375 41.2ZM85.575 41.2L95.51 47.9302L108.198 29.2H85.575V41.2ZM71.575 68L60.3909 63.6506L60.3909 63.6506L71.575 68ZM63.175 97.8L51.3686 95.6534L51.355 95.7277L51.3425 95.8023L63.175 97.8ZM63.175 159.8L51.3425 161.798L51.3574 161.886L51.3736 161.974L63.175 159.8ZM71.575 189L82.7383 184.598L82.7276 184.57L82.7167 184.543L71.575 189ZM85.575 215.6V227.6H108.198L95.51 208.87L85.575 215.6ZM59.375 215.6L49.9891 223.077L53.5922 227.6H59.375V215.6ZM43.975 189.8L55.0047 185.073L54.9924 185.044L54.9798 185.015L43.975 189.8ZM35.175 160.6L23.3425 162.598L23.355 162.672L23.3686 162.747L35.175 160.6ZM32.575 129.2H44.575C44.575 118.903 45.391 108.897 47.0117 99.1728L35.175 97.2L23.3383 95.2272C21.4923 106.303 20.575 117.63 20.575 129.2H32.575ZM35.175 97.2L46.9863 99.32C48.7002 89.7709 51.3847 80.695 55.0288 72.0706L43.975 67.4L32.9212 62.7294C28.5653 73.0384 25.3832 83.8291 23.3637 95.08L35.175 97.2ZM43.975 67.4L55.0288 72.0706C58.6207 63.5696 63.2164 55.7557 68.8217 48.5999L59.375 41.2L49.9283 33.8C43.0003 42.6443 37.3293 52.2971 32.9212 62.7294L43.975 67.4ZM59.375 41.2V53.2H85.575V41.2V29.2H59.375V41.2ZM85.575 41.2L75.64 34.4698C69.5201 43.504 64.4398 53.2393 60.3909 63.6506L71.575 68L82.7591 72.3493C86.1769 63.5607 90.4299 55.4293 95.51 47.9302L85.575 41.2ZM71.575 68L60.3909 63.6506C56.3768 73.9727 53.3702 84.6442 51.3686 95.6534L63.175 97.8L74.9814 99.9466C76.7131 90.4225 79.3065 81.2273 82.7591 72.3493L71.575 68ZM63.175 97.8L51.3425 95.8023C49.4964 106.737 48.575 117.805 48.575 129H60.575H72.575C72.575 119.128 73.387 109.397 75.0075 99.7977L63.175 97.8ZM60.575 129H48.575C48.575 139.945 49.4993 150.88 51.3425 161.798L63.175 159.8L75.0075 157.802C73.3841 148.186 72.575 138.588 72.575 129H60.575ZM63.175 159.8L51.3736 161.974C53.3805 172.869 56.3978 183.368 60.4333 193.457L71.575 189L82.7167 184.543C79.2856 175.965 76.7029 166.998 74.9764 157.626L63.175 159.8ZM71.575 189L60.4117 193.402C64.4617 203.672 69.537 213.321 75.64 222.33L85.575 215.6L95.51 208.87C90.413 201.346 86.155 193.261 82.7383 184.598L71.575 189ZM85.575 215.6V203.6H59.375V215.6V227.6H85.575V215.6ZM59.375 215.6L68.7609 208.123C63.1691 201.104 58.5863 193.43 55.0047 185.073L43.975 189.8L32.9453 194.527C37.3637 204.837 43.0476 214.363 49.9891 223.077L59.375 215.6ZM43.975 189.8L54.9798 185.015C51.362 176.694 48.6898 167.849 46.9814 158.453L35.175 160.6L23.3686 162.747C25.3936 173.884 28.588 184.506 32.9702 194.585L43.975 189.8ZM35.175 160.6L47.0075 158.602C45.3883 149.012 44.575 139.214 44.575 129.2H32.575H20.575C20.575 140.52 21.495 151.655 23.3425 162.598L35.175 160.6Z" fill="var(--pageColor)" mask="url(#path-2-outside-1_26_354)"/>
<mask id="path-4-outside-2_26_354" maskUnits="userSpaceOnUse" x="147" y="29" width="89" height="199" fill="white">
<rect x="147" y="29" width="89" height="199"/>
<path d="M223.4 129.2C223.4 139.867 222.467 150.333 220.6 160.6C218.867 170.867 216.067 180.6 212.2 189.8C208.333 199.133 203.2 207.733 196.8 215.6H170.6C176.2 207.333 180.8 198.467 184.4 189C188.133 179.667 190.933 169.933 192.8 159.8C194.667 149.533 195.6 139.267 195.6 129C195.6 118.467 194.667 108.067 192.8 97.8C190.933 87.5333 188.133 77.6 184.4 68C180.8 58.4 176.133 49.4667 170.4 41.2H196.8C203.2 49.2 208.333 57.9333 212.2 67.4C216.067 76.8667 218.867 86.8 220.6 97.2C222.467 107.6 223.4 118.267 223.4 129.2Z"/>
</mask>
<path d="M223.4 129.2C223.4 139.867 222.467 150.333 220.6 160.6C218.867 170.867 216.067 180.6 212.2 189.8C208.333 199.133 203.2 207.733 196.8 215.6H170.6C176.2 207.333 180.8 198.467 184.4 189C188.133 179.667 190.933 169.933 192.8 159.8C194.667 149.533 195.6 139.267 195.6 129C195.6 118.467 194.667 108.067 192.8 97.8C190.933 87.5333 188.133 77.6 184.4 68C180.8 58.4 176.133 49.4667 170.4 41.2H196.8C203.2 49.2 208.333 57.9333 212.2 67.4C216.067 76.8667 218.867 86.8 220.6 97.2C222.467 107.6 223.4 118.267 223.4 129.2Z" fill="var(--pageColor)"/>
<path d="M220.6 160.6L208.794 158.453L208.78 158.528L208.767 158.602L220.6 160.6ZM212.2 189.8L201.137 185.15L201.125 185.179L201.114 185.207L212.2 189.8ZM196.8 215.6V227.6H202.507L206.109 223.173L196.8 215.6ZM170.6 215.6L160.665 208.87L147.977 227.6H170.6V215.6ZM184.4 189L173.258 184.543L173.22 184.639L173.184 184.735L184.4 189ZM192.8 159.8L204.601 161.974L204.604 161.96L204.606 161.947L192.8 159.8ZM192.8 97.8L204.606 95.6534L204.606 95.6534L192.8 97.8ZM184.4 68L173.164 72.2135L173.19 72.2816L173.216 72.3493L184.4 68ZM170.4 41.2V29.2H147.474L160.539 48.0388L170.4 41.2ZM196.8 41.2L206.17 33.7036L202.567 29.2H196.8V41.2ZM212.2 67.4L201.091 71.9375L201.091 71.9375L212.2 67.4ZM220.6 97.2L208.763 99.1728L208.776 99.2465L208.789 99.32L220.6 97.2ZM223.4 129.2H211.4C211.4 139.163 210.529 148.911 208.794 158.453L220.6 160.6L232.406 162.747C234.405 151.756 235.4 140.571 235.4 129.2H223.4ZM220.6 160.6L208.767 158.602C207.181 167.998 204.631 176.838 201.137 185.15L212.2 189.8L223.263 194.45C227.502 184.362 230.552 173.736 232.433 162.598L220.6 160.6ZM212.2 189.8L201.114 185.207C197.694 193.462 193.16 201.059 187.491 208.027L196.8 215.6L206.109 223.173C213.24 214.408 218.973 204.805 223.286 194.393L212.2 189.8ZM196.8 215.6V203.6H170.6V215.6V227.6H196.8V215.6ZM170.6 215.6L180.535 222.33C186.664 213.283 191.691 203.588 195.616 193.265L184.4 189L173.184 184.735C169.909 193.345 165.736 201.383 160.665 208.87L170.6 215.6ZM184.4 189L195.542 193.457C199.577 183.368 202.595 172.869 204.601 161.974L192.8 159.8L180.999 157.626C179.272 166.998 176.689 175.965 173.258 184.543L184.4 189ZM192.8 159.8L204.606 161.947C206.6 150.983 207.6 139.998 207.6 129H195.6H183.6C183.6 138.535 182.734 148.083 180.994 157.653L192.8 159.8ZM195.6 129H207.6C207.6 117.754 206.603 106.635 204.606 95.6534L192.8 97.8L180.994 99.9466C182.73 109.498 183.6 119.18 183.6 129H195.6ZM192.8 97.8L204.606 95.6534C202.605 84.6442 199.598 73.9727 195.584 63.6506L184.4 68L173.216 72.3493C176.668 81.2273 179.262 90.4225 180.994 99.9466L192.8 97.8ZM184.4 68L195.636 63.7865C191.694 53.2758 186.57 43.4583 180.261 34.3612L170.4 41.2L160.539 48.0388C165.697 55.475 169.906 63.5242 173.164 72.2135L184.4 68ZM170.4 41.2V53.2H196.8V41.2V29.2H170.4V41.2ZM196.8 41.2L187.43 48.6963C193.113 55.8001 197.66 63.5373 201.091 71.9375L212.2 67.4L223.309 62.8625C219.007 52.3293 213.287 42.5998 206.17 33.7036L196.8 41.2ZM212.2 67.4L201.091 71.9375C204.61 80.5537 207.172 89.6247 208.763 99.1728L220.6 97.2L232.437 95.2272C230.561 83.9753 227.523 73.1797 223.309 62.8625L212.2 67.4ZM220.6 97.2L208.789 99.32C210.526 108.996 211.4 118.953 211.4 129.2H223.4H235.4C235.4 117.58 234.408 106.204 232.411 95.08L220.6 97.2Z" fill="var(--pageColor)" mask="url(#path-4-outside-2_26_354)"/>
<path d="M32.575 129.2C32.575 118.267 33.4417 107.6 35.175 97.2C37.0417 86.8 39.975 76.8667 43.975 67.4C47.975 57.9333 53.1083 49.2 59.375 41.2H85.575C79.975 49.4667 75.3083 58.4 71.575 68C67.8417 77.6 65.0417 87.5333 63.175 97.8C61.4417 108.067 60.575 118.467 60.575 129C60.575 139.267 61.4417 149.533 63.175 159.8C65.0417 169.933 67.8417 179.667 71.575 189C75.3083 198.467 79.975 207.333 85.575 215.6H59.375C53.1083 207.733 47.975 199.133 43.975 189.8C39.975 180.6 37.0417 170.867 35.175 160.6C33.4417 150.333 32.575 139.867 32.575 129.2Z" fill="var(--darkGray)"/>
<path d="M223.4 129.2C223.4 139.867 222.467 150.333 220.6 160.6C218.867 170.867 216.067 180.6 212.2 189.8C208.333 199.133 203.2 207.733 196.8 215.6H170.6C176.2 207.333 180.8 198.467 184.4 189C188.133 179.667 190.933 169.933 192.8 159.8C194.667 149.533 195.6 139.267 195.6 129C195.6 118.467 194.667 108.067 192.8 97.8C190.933 87.5333 188.133 77.6 184.4 68C180.8 58.4 176.133 49.4667 170.4 41.2H196.8C203.2 49.2 208.333 57.9333 212.2 67.4C216.067 76.8667 218.867 86.8 220.6 97.2C222.467 107.6 223.4 118.267 223.4 129.2Z" fill="var(--darkGray)"/>
</g>
</svg>
