<svg viewBox="0 0 256 256" fill="none" xmlns="http://www.w3.org/2000/svg">
<mask id="mask0_1_2" style="mask-type:alpha" maskUnits="userSpaceOnUse" x="0" y="0" width="256" height="256">
<rect width="256" height="256" fill="var(--gray)"/>
</mask>
<g mask="url(#mask0_1_2)">
<mask id="path-2-outside-1_1_2" maskUnits="userSpaceOnUse" x="120" y="89" width="124" height="102" fill="black">
<rect fill="var(--pageColor)" x="120" y="89" width="124" height="102"/>
<path d="M166.638 139.382L143.492 101.468H169.336L181.974 126.176L194.896 101.468H220.598L197.168 139.382L221.592 179H195.89L181.974 152.446L168.058 179H142.356L166.638 139.382Z"/>
</mask>
<path d="M166.638 139.382L143.492 101.468H169.336L181.974 126.176L194.896 101.468H220.598L197.168 139.382L221.592 179H195.89L181.974 152.446L168.058 179H142.356L166.638 139.382Z" fill="var(--pageColor)"/>
<path d="M166.638 139.382L176.87 145.653L180.705 139.394L176.881 133.129L166.638 139.382ZM143.492 101.468V89.468H122.107L133.25 107.721L143.492 101.468ZM169.336 101.468L180.02 96.0034L176.677 89.468H169.336V101.468ZM181.974 126.176L171.291 131.641L181.856 152.296L192.608 131.737L181.974 126.176ZM194.896 101.468V89.468H187.63L184.263 95.9068L194.896 101.468ZM220.598 101.468L230.807 107.776L242.121 89.468H220.598V101.468ZM197.168 139.382L186.96 133.074L183.067 139.374L186.954 145.679L197.168 139.382ZM221.592 179V191H243.087L231.807 172.703L221.592 179ZM195.89 179L185.262 184.57L188.631 191H195.89V179ZM181.974 152.446L192.603 146.876L181.974 126.594L171.346 146.876L181.974 152.446ZM168.058 179V191H175.318L178.687 184.57L168.058 179ZM142.356 179L132.125 172.729L120.927 191H142.356V179ZM166.638 139.382L176.881 133.129L153.735 95.2153L143.492 101.468L133.25 107.721L156.396 145.635L166.638 139.382ZM143.492 101.468V113.468H169.336V101.468V89.468H143.492V101.468ZM169.336 101.468L158.653 106.933L171.291 131.641L181.974 126.176L192.658 120.711L180.02 96.0034L169.336 101.468ZM181.974 126.176L192.608 131.737L205.53 107.029L194.896 101.468L184.263 95.9068L171.341 120.615L181.974 126.176ZM194.896 101.468V113.468H220.598V101.468V89.468H194.896V101.468ZM220.598 101.468L210.39 95.1596L186.96 133.074L197.168 139.382L207.377 145.69L230.807 107.776L220.598 101.468ZM197.168 139.382L186.954 145.679L211.378 185.297L221.592 179L231.807 172.703L207.383 133.085L197.168 139.382ZM221.592 179V167H195.89V179V191H221.592V179ZM195.89 179L206.519 173.43L192.603 146.876L181.974 152.446L171.346 158.016L185.262 184.57L195.89 179ZM181.974 152.446L171.346 146.876L157.43 173.43L168.058 179L178.687 184.57L192.603 158.016L181.974 152.446ZM168.058 179V167H142.356V179V191H168.058V179ZM142.356 179L152.588 185.271L176.87 145.653L166.638 139.382L156.407 133.111L132.125 172.729L142.356 179Z" fill="var(--pageColor)" mask="url(#path-2-outside-1_1_2)"/>
<path d="M37 133.5H73.1117C73.9465 133.5 74.6935 134.019 74.9855 134.801L98.1692 196.916C98.8993 198.872 101.762 198.541 102.027 196.47L120.277 53.7463C120.404 52.748 121.254 52 122.261 52H219" stroke="var(--pageColor)" stroke-width="44" stroke-linecap="round"/>
<path d="M166.638 139.382L143.492 101.468H169.336L181.974 126.176L194.896 101.468H220.598L197.168 139.382L221.592 179H195.89L181.974 152.446L168.058 179H142.356L166.638 139.382Z" fill="var(--darkGray)"/>
<path d="M37 133.5H73.1117C73.9465 133.5 74.6935 134.019 74.9855 134.801L98.1692 196.916C98.8993 198.872 101.762 198.541 102.027 196.47L120.277 53.7463C120.404 52.748 121.254 52 122.261 52H219" stroke="var(--darkGray)" stroke-width="20" stroke-linecap="round"/>
</g>
</svg>
