<svg viewBox="0 0 256 256" fill="none" xmlns="http://www.w3.org/2000/svg">
<mask id="mask0_32_486" style="mask-type:alpha" maskUnits="userSpaceOnUse" x="0" y="0" width="256" height="256">
<rect width="256" height="256" fill="var(--gray)"/>
</mask>
<g mask="url(#mask0_32_486)">
<mask id="path-2-outside-1_32_486" maskUnits="userSpaceOnUse" x="16" y="91" width="228" height="96" fill="white">
<rect x="16" y="91" width="228" height="96"/>
<path d="M59.2798 174.25C52.7798 174.25 47.1965 173.042 42.5298 170.625C37.8631 168.125 34.2798 164.292 31.7798 159.125C29.2798 153.958 28.0298 147.333 28.0298 139.25C28.0298 130.917 29.4048 124.125 32.1548 118.875C34.9881 113.625 38.8631 109.75 43.7798 107.25C48.7798 104.75 54.4881 103.5 60.9048 103.5C65.0715 103.5 68.9465 103.958 72.5298 104.875C76.1131 105.792 79.1131 106.875 81.5298 108.125L75.6548 122.125C73.1548 121.042 70.8631 120.167 68.7798 119.5C66.7798 118.833 64.5715 118.5 62.1548 118.5C59.2381 118.5 56.7381 119.292 54.6548 120.875C52.6548 122.375 51.1131 124.667 50.0298 127.75C48.9465 130.75 48.4048 134.542 48.4048 139.125C48.4048 143.625 48.9465 147.375 50.0298 150.375C51.1965 153.292 52.7798 155.5 54.7798 157C56.8631 158.417 59.3215 159.125 62.1548 159.125C65.3215 159.125 68.3215 158.625 71.1548 157.625C74.0715 156.542 76.8215 155.083 79.4048 153.25V169.125C76.6548 170.958 73.6965 172.25 70.5298 173C67.4465 173.833 63.6965 174.25 59.2798 174.25ZM160.919 138.75C160.919 144.417 160.169 149.458 158.669 153.875C157.253 158.292 155.169 162.042 152.419 165.125C149.669 168.125 146.294 170.417 142.294 172C138.378 173.5 133.961 174.25 129.044 174.25C124.461 174.25 120.211 173.5 116.294 172C112.378 170.417 109.003 168.125 106.169 165.125C103.419 162.042 101.253 158.292 99.6694 153.875C98.1694 149.458 97.4194 144.417 97.4194 138.75C97.4194 131.167 98.7111 124.792 101.294 119.625C103.878 114.375 107.544 110.375 112.294 107.625C117.044 104.875 122.753 103.5 129.419 103.5C135.586 103.5 141.003 104.875 145.669 107.625C150.419 110.375 154.128 114.375 156.794 119.625C159.544 124.792 160.919 131.167 160.919 138.75ZM117.794 138.75C117.794 143.25 118.169 147.042 118.919 150.125C119.753 153.125 121.003 155.417 122.669 157C124.419 158.5 126.628 159.25 129.294 159.25C132.044 159.25 134.211 158.5 135.794 157C137.461 155.417 138.669 153.125 139.419 150.125C140.169 147.042 140.544 143.25 140.544 138.75C140.544 134.25 140.169 130.5 139.419 127.5C138.669 124.5 137.419 122.25 135.669 120.75C134.003 119.25 131.836 118.5 129.169 118.5C125.086 118.5 122.169 120.208 120.419 123.625C118.669 126.958 117.794 132 117.794 138.75ZM228.525 152.75C228.525 157.333 227.525 161.25 225.525 164.5C223.608 167.667 220.65 170.083 216.65 171.75C212.65 173.417 207.483 174.25 201.15 174.25C196.567 174.25 192.567 173.917 189.15 173.25C185.733 172.667 182.275 171.667 178.775 170.25V154.875C182.608 156.542 186.567 157.917 190.65 159C194.733 160.083 198.15 160.625 200.9 160.625C203.9 160.625 206.025 160.083 207.275 159C208.608 157.917 209.275 156.5 209.275 154.75C209.275 153.583 208.942 152.542 208.275 151.625C207.608 150.708 206.275 149.667 204.275 148.5C202.275 147.333 199.317 145.833 195.4 144C191.567 142.167 188.4 140.375 185.9 138.625C183.483 136.792 181.65 134.625 180.4 132.125C179.233 129.542 178.65 126.333 178.65 122.5C178.65 116.167 181.025 111.417 185.775 108.25C190.608 105.083 196.942 103.5 204.775 103.5C208.942 103.5 212.858 103.917 216.525 104.75C220.192 105.583 223.983 106.958 227.9 108.875L222.275 122.25C220.108 121.25 217.983 120.375 215.9 119.625C213.817 118.875 211.817 118.292 209.9 117.875C208.067 117.458 206.317 117.25 204.65 117.25C202.483 117.25 200.817 117.625 199.65 118.375C198.567 119.125 198.025 120.25 198.025 121.75C198.025 122.833 198.358 123.833 199.025 124.75C199.692 125.583 200.983 126.542 202.9 127.625C204.817 128.625 207.608 129.917 211.275 131.5C215.025 133.083 218.15 134.75 220.65 136.5C223.233 138.167 225.192 140.292 226.525 142.875C227.858 145.375 228.525 148.667 228.525 152.75Z"/>
</mask>
<path d="M59.2798 174.25C52.7798 174.25 47.1965 173.042 42.5298 170.625C37.8631 168.125 34.2798 164.292 31.7798 159.125C29.2798 153.958 28.0298 147.333 28.0298 139.25C28.0298 130.917 29.4048 124.125 32.1548 118.875C34.9881 113.625 38.8631 109.75 43.7798 107.25C48.7798 104.75 54.4881 103.5 60.9048 103.5C65.0715 103.5 68.9465 103.958 72.5298 104.875C76.1131 105.792 79.1131 106.875 81.5298 108.125L75.6548 122.125C73.1548 121.042 70.8631 120.167 68.7798 119.5C66.7798 118.833 64.5715 118.5 62.1548 118.5C59.2381 118.5 56.7381 119.292 54.6548 120.875C52.6548 122.375 51.1131 124.667 50.0298 127.75C48.9465 130.75 48.4048 134.542 48.4048 139.125C48.4048 143.625 48.9465 147.375 50.0298 150.375C51.1965 153.292 52.7798 155.5 54.7798 157C56.8631 158.417 59.3215 159.125 62.1548 159.125C65.3215 159.125 68.3215 158.625 71.1548 157.625C74.0715 156.542 76.8215 155.083 79.4048 153.25V169.125C76.6548 170.958 73.6965 172.25 70.5298 173C67.4465 173.833 63.6965 174.25 59.2798 174.25ZM160.919 138.75C160.919 144.417 160.169 149.458 158.669 153.875C157.253 158.292 155.169 162.042 152.419 165.125C149.669 168.125 146.294 170.417 142.294 172C138.378 173.5 133.961 174.25 129.044 174.25C124.461 174.25 120.211 173.5 116.294 172C112.378 170.417 109.003 168.125 106.169 165.125C103.419 162.042 101.253 158.292 99.6694 153.875C98.1694 149.458 97.4194 144.417 97.4194 138.75C97.4194 131.167 98.7111 124.792 101.294 119.625C103.878 114.375 107.544 110.375 112.294 107.625C117.044 104.875 122.753 103.5 129.419 103.5C135.586 103.5 141.003 104.875 145.669 107.625C150.419 110.375 154.128 114.375 156.794 119.625C159.544 124.792 160.919 131.167 160.919 138.75ZM117.794 138.75C117.794 143.25 118.169 147.042 118.919 150.125C119.753 153.125 121.003 155.417 122.669 157C124.419 158.5 126.628 159.25 129.294 159.25C132.044 159.25 134.211 158.5 135.794 157C137.461 155.417 138.669 153.125 139.419 150.125C140.169 147.042 140.544 143.25 140.544 138.75C140.544 134.25 140.169 130.5 139.419 127.5C138.669 124.5 137.419 122.25 135.669 120.75C134.003 119.25 131.836 118.5 129.169 118.5C125.086 118.5 122.169 120.208 120.419 123.625C118.669 126.958 117.794 132 117.794 138.75ZM228.525 152.75C228.525 157.333 227.525 161.25 225.525 164.5C223.608 167.667 220.65 170.083 216.65 171.75C212.65 173.417 207.483 174.25 201.15 174.25C196.567 174.25 192.567 173.917 189.15 173.25C185.733 172.667 182.275 171.667 178.775 170.25V154.875C182.608 156.542 186.567 157.917 190.65 159C194.733 160.083 198.15 160.625 200.9 160.625C203.9 160.625 206.025 160.083 207.275 159C208.608 157.917 209.275 156.5 209.275 154.75C209.275 153.583 208.942 152.542 208.275 151.625C207.608 150.708 206.275 149.667 204.275 148.5C202.275 147.333 199.317 145.833 195.4 144C191.567 142.167 188.4 140.375 185.9 138.625C183.483 136.792 181.65 134.625 180.4 132.125C179.233 129.542 178.65 126.333 178.65 122.5C178.65 116.167 181.025 111.417 185.775 108.25C190.608 105.083 196.942 103.5 204.775 103.5C208.942 103.5 212.858 103.917 216.525 104.75C220.192 105.583 223.983 106.958 227.9 108.875L222.275 122.25C220.108 121.25 217.983 120.375 215.9 119.625C213.817 118.875 211.817 118.292 209.9 117.875C208.067 117.458 206.317 117.25 204.65 117.25C202.483 117.25 200.817 117.625 199.65 118.375C198.567 119.125 198.025 120.25 198.025 121.75C198.025 122.833 198.358 123.833 199.025 124.75C199.692 125.583 200.983 126.542 202.9 127.625C204.817 128.625 207.608 129.917 211.275 131.5C215.025 133.083 218.15 134.75 220.65 136.5C223.233 138.167 225.192 140.292 226.525 142.875C227.858 145.375 228.525 148.667 228.525 152.75Z" fill="var(--pageColor)"/>
<path d="M42.5298 170.625L36.8631 181.203L36.9371 181.242L37.0115 181.281L42.5298 170.625ZM31.7798 159.125L42.5817 153.898L42.5817 153.898L31.7798 159.125ZM32.1548 118.875L21.5945 113.176L21.5593 113.241L21.5248 113.307L32.1548 118.875ZM43.7798 107.25L38.4132 96.5169L38.377 96.535L38.3408 96.5534L43.7798 107.25ZM72.5298 104.875L69.5558 116.501L69.5558 116.501L72.5298 104.875ZM81.5298 108.125L92.595 112.768L96.881 102.555L87.0429 97.4664L81.5298 108.125ZM75.6548 122.125L70.8835 133.136L82.0225 137.963L86.72 126.768L75.6548 122.125ZM68.7798 119.5L64.9851 130.884L65.0536 130.907L65.1225 130.929L68.7798 119.5ZM54.6548 120.875L61.8548 130.475L61.8854 130.452L61.9158 130.429L54.6548 120.875ZM50.0298 127.75L61.3164 131.826L61.3341 131.777L61.3513 131.728L50.0298 127.75ZM50.0298 150.375L38.7431 154.451L38.8124 154.642L38.8881 154.832L50.0298 150.375ZM54.7798 157L47.5798 166.6L47.8022 166.767L48.0321 166.923L54.7798 157ZM71.1548 157.625L75.1486 168.941L75.2411 168.908L75.333 168.874L71.1548 157.625ZM79.4048 153.25H91.4048V130.019L72.4598 143.464L79.4048 153.25ZM79.4048 169.125L86.0612 179.11L91.4048 175.547V169.125H79.4048ZM70.5298 173L67.7642 161.323L67.5808 161.366L67.3989 161.416L70.5298 173ZM59.2798 174.25V162.25C54.2532 162.25 50.6523 161.318 48.048 159.969L42.5298 170.625L37.0115 181.281C43.7406 184.766 51.3064 186.25 59.2798 186.25V174.25ZM42.5298 170.625L48.1964 160.047C45.9543 158.846 44.076 156.986 42.5817 153.898L31.7798 159.125L20.9779 164.352C24.4836 171.597 29.772 177.404 36.8631 181.203L42.5298 170.625ZM31.7798 159.125L42.5817 153.898C41.1243 150.886 40.0298 146.214 40.0298 139.25H28.0298H16.0298C16.0298 148.452 17.4352 157.03 20.9779 164.352L31.7798 159.125ZM28.0298 139.25H40.0298C40.0298 132.115 41.2252 127.421 42.7848 124.443L32.1548 118.875L21.5248 113.307C17.5844 120.829 16.0298 129.719 16.0298 139.25H28.0298ZM32.1548 118.875L42.7151 124.574C44.4886 121.288 46.657 119.249 49.2187 117.947L43.7798 107.25L38.3408 96.5534C31.0692 100.251 25.4877 105.962 21.5945 113.176L32.1548 118.875ZM43.7798 107.25L49.1464 117.983C52.2494 116.432 56.0748 115.5 60.9048 115.5V103.5V91.5C52.9015 91.5 45.3102 93.0684 38.4132 96.5169L43.7798 107.25ZM60.9048 103.5V115.5C64.1927 115.5 67.0578 115.862 69.5558 116.501L72.5298 104.875L75.5038 93.2494C70.8351 92.0551 65.9502 91.5 60.9048 91.5V103.5ZM72.5298 104.875L69.5558 116.501C72.5503 117.267 74.6364 118.07 76.0167 118.784L81.5298 108.125L87.0429 97.4664C83.5898 95.6803 79.676 94.3167 75.5038 93.2494L72.5298 104.875ZM81.5298 108.125L70.4646 103.482L64.5896 117.482L75.6548 122.125L86.72 126.768L92.595 112.768L81.5298 108.125ZM75.6548 122.125L80.4261 111.114C77.6461 109.91 74.9768 108.884 72.4371 108.071L68.7798 119.5L65.1225 130.929C66.7495 131.45 68.6635 132.174 70.8835 133.136L75.6548 122.125ZM68.7798 119.5L72.5745 108.116C69.1866 106.986 65.6758 106.5 62.1548 106.5V118.5V130.5C63.4671 130.5 64.373 130.68 64.9851 130.884L68.7798 119.5ZM62.1548 118.5V106.5C56.9321 106.5 51.8039 107.969 47.3938 111.321L54.6548 120.875L61.9158 130.429C61.8968 130.443 61.8623 130.467 61.8164 130.49C61.7705 130.514 61.7336 130.528 61.715 130.534C61.6974 130.539 61.7157 130.532 61.7808 130.522C61.8472 130.513 61.9688 130.5 62.1548 130.5V118.5ZM54.6548 120.875L47.4548 111.275C43.0506 114.578 40.3401 119.128 38.7083 123.772L50.0298 127.75L61.3513 131.728C61.8862 130.206 62.259 130.172 61.8548 130.475L54.6548 120.875ZM50.0298 127.75L38.7431 123.674C37.0303 128.418 36.4048 133.707 36.4048 139.125H48.4048H60.4048C60.4048 135.376 60.8626 133.082 61.3164 131.826L50.0298 127.75ZM48.4048 139.125H36.4048C36.4048 144.489 37.0374 149.727 38.7431 154.451L50.0298 150.375L61.3164 146.299C60.8555 145.023 60.4048 142.761 60.4048 139.125H48.4048ZM50.0298 150.375L38.8881 154.832C40.6643 159.272 43.4196 163.48 47.5798 166.6L54.7798 157L61.9798 147.4C62.14 147.52 61.7286 147.311 61.1715 145.918L50.0298 150.375ZM54.7798 157L48.0321 166.923C52.348 169.858 57.2259 171.125 62.1548 171.125V159.125V147.125C61.7428 147.125 61.5486 147.074 61.5085 147.063C61.4798 147.055 61.5033 147.06 61.5275 147.077L54.7798 157ZM62.1548 159.125V171.125C66.6079 171.125 70.9645 170.418 75.1486 168.941L71.1548 157.625L67.1609 146.309C65.6784 146.832 64.035 147.125 62.1548 147.125V159.125ZM71.1548 157.625L75.333 168.874C79.2496 167.419 82.9276 165.465 86.3498 163.036L79.4048 153.25L72.4598 143.464C70.7153 144.702 68.8933 145.664 66.9765 146.376L71.1548 157.625ZM79.4048 153.25H67.4048V169.125H79.4048H91.4048V153.25H79.4048ZM79.4048 169.125L72.7484 159.14C71.1656 160.196 69.5218 160.907 67.7642 161.323L70.5298 173L73.2954 184.677C77.8711 183.593 82.144 181.721 86.0612 179.11L79.4048 169.125ZM70.5298 173L67.3989 161.416C65.6419 161.891 63.0109 162.25 59.2798 162.25V174.25V186.25C64.382 186.25 69.251 185.776 73.6607 184.584L70.5298 173ZM158.669 153.875L147.307 150.016L147.274 150.113L147.243 150.21L158.669 153.875ZM152.419 165.125L161.265 173.234L161.321 173.173L161.375 173.112L152.419 165.125ZM142.294 172L146.586 183.206L146.649 183.182L146.711 183.158L142.294 172ZM116.294 172L111.797 183.125L111.899 183.167L112.003 183.206L116.294 172ZM106.169 165.125L97.2139 173.112L97.3278 173.24L97.4453 173.364L106.169 165.125ZM99.6694 153.875L88.3069 157.734L88.3393 157.83L88.3734 157.925L99.6694 153.875ZM101.294 119.625L112.028 124.992L112.045 124.957L112.062 124.923L101.294 119.625ZM112.294 107.625L118.307 118.01L118.307 118.01L112.294 107.625ZM145.669 107.625L139.577 117.963L139.617 117.987L139.657 118.01L145.669 107.625ZM156.794 119.625L146.095 125.059L146.148 125.162L146.201 125.263L156.794 119.625ZM118.919 150.125L107.259 152.961L107.305 153.15L107.357 153.337L118.919 150.125ZM122.669 157L114.404 165.7L114.627 165.911L114.86 166.111L122.669 157ZM135.794 157L144.047 165.711L144.053 165.706L144.059 165.7L135.794 157ZM139.419 150.125L151.061 153.035L151.07 152.998L151.079 152.961L139.419 150.125ZM139.419 127.5L127.778 130.41L127.778 130.41L139.419 127.5ZM135.669 120.75L127.642 129.67L127.75 129.767L127.86 129.861L135.669 120.75ZM120.419 123.625L131.044 129.203L131.072 129.149L131.1 129.096L120.419 123.625ZM160.919 138.75H148.919C148.919 143.377 148.305 147.076 147.307 150.016L158.669 153.875L170.032 157.734C172.034 151.84 172.919 145.457 172.919 138.75H160.919ZM158.669 153.875L147.243 150.21C146.276 153.225 144.968 155.452 143.464 157.138L152.419 165.125L161.375 173.112C165.371 168.632 168.23 163.358 170.096 157.54L158.669 153.875ZM152.419 165.125L143.574 157.016C142.12 158.602 140.289 159.888 137.878 160.842L142.294 172L146.711 183.158C152.3 180.945 157.219 177.648 161.265 173.234L152.419 165.125ZM142.294 172L138.003 160.794C135.67 161.687 132.742 162.25 129.044 162.25V174.25V186.25C135.18 186.25 141.085 185.313 146.586 183.206L142.294 172ZM129.044 174.25V162.25C125.792 162.25 123.011 161.722 120.586 160.794L116.294 172L112.003 183.206C117.411 185.278 123.13 186.25 129.044 186.25V174.25ZM116.294 172L120.792 160.875C118.436 159.922 116.513 158.6 114.894 156.886L106.169 165.125L97.4453 173.364C101.492 177.65 106.319 180.911 111.797 183.125L116.294 172ZM106.169 165.125L115.125 157.138C113.53 155.35 112.099 152.987 110.966 149.825L99.6694 153.875L88.3734 157.925C90.4067 163.596 93.3084 168.733 97.2139 173.112L106.169 165.125ZM99.6694 153.875L111.032 150.016C110.034 147.076 109.419 143.377 109.419 138.75H97.4194H85.4194C85.4194 145.457 86.3053 151.84 88.3069 157.734L99.6694 153.875ZM97.4194 138.75H109.419C109.419 132.47 110.496 128.054 112.028 124.992L101.294 119.625L90.5613 114.258C86.9261 121.529 85.4194 129.864 85.4194 138.75H97.4194ZM101.294 119.625L112.062 124.923C113.67 121.654 115.748 119.492 118.307 118.01L112.294 107.625L106.282 97.2399C99.3412 101.258 94.0853 107.096 90.5273 114.327L101.294 119.625ZM112.294 107.625L118.307 118.01C120.875 116.523 124.412 115.5 129.419 115.5V103.5V91.5C121.093 91.5 113.214 93.2265 106.282 97.2399L112.294 107.625ZM129.419 103.5V115.5C133.746 115.5 137.001 116.445 139.577 117.963L145.669 107.625L151.762 97.2865C145.005 93.3049 137.427 91.5 129.419 91.5V103.5ZM145.669 107.625L139.657 118.01C142.251 119.512 144.399 121.72 146.095 125.059L156.794 119.625L167.493 114.191C163.856 107.03 158.587 101.238 151.682 97.2399L145.669 107.625ZM156.794 119.625L146.201 125.263C147.795 128.257 148.919 132.569 148.919 138.75H160.919H172.919C172.919 129.764 171.294 121.327 167.387 113.987L156.794 119.625ZM117.794 138.75H105.794C105.794 143.843 106.211 148.653 107.259 152.961L118.919 150.125L130.579 147.289C130.127 145.43 129.794 142.657 129.794 138.75H117.794ZM118.919 150.125L107.357 153.337C108.573 157.715 110.699 162.179 114.404 165.7L122.669 157L130.934 148.3C131.307 148.654 130.932 148.535 130.482 146.913L118.919 150.125ZM122.669 157L114.86 166.111C119.121 169.763 124.239 171.25 129.294 171.25V159.25V147.25C129.088 147.25 129.195 147.222 129.497 147.325C129.824 147.436 130.179 147.631 130.479 147.889L122.669 157ZM129.294 159.25V171.25C134.278 171.25 139.694 169.836 144.047 165.711L135.794 157L127.541 148.289C128.052 147.805 128.611 147.502 129.057 147.348C129.459 147.208 129.592 147.25 129.294 147.25V159.25ZM135.794 157L144.059 165.7C147.857 162.092 149.944 157.505 151.061 153.035L139.419 150.125L127.778 147.215C127.395 148.745 127.065 148.741 127.529 148.3L135.794 157ZM139.419 150.125L151.079 152.961C152.127 148.653 152.544 143.843 152.544 138.75H140.544H128.544C128.544 142.657 128.211 145.43 127.759 147.289L139.419 150.125ZM140.544 138.75H152.544C152.544 133.671 152.13 128.865 151.061 124.59L139.419 127.5L127.778 130.41C128.209 132.135 128.544 134.829 128.544 138.75H140.544ZM139.419 127.5L151.061 124.59C149.911 119.987 147.668 115.229 143.479 111.639L135.669 120.75L127.86 129.861C127.535 129.583 127.416 129.366 127.43 129.39C127.454 129.435 127.608 129.732 127.778 130.41L139.419 127.5ZM135.669 120.75L143.697 111.83C139.423 107.984 134.208 106.5 129.169 106.5V118.5V130.5C129.38 130.5 129.235 130.529 128.869 130.402C128.472 130.265 128.028 130.017 127.642 129.67L135.669 120.75ZM129.169 118.5V106.5C125.439 106.5 121.501 107.291 117.855 109.427C114.166 111.587 111.511 114.695 109.739 118.154L120.419 123.625L131.1 129.096C131.104 129.087 131.028 129.238 130.823 129.462C130.612 129.694 130.327 129.935 129.984 130.136C129.255 130.563 128.816 130.5 129.169 130.5V118.5ZM120.419 123.625L109.795 118.047C106.682 123.975 105.794 131.371 105.794 138.75H117.794H129.794C129.794 132.629 130.657 129.941 131.044 129.203L120.419 123.625ZM225.525 164.5L215.305 158.211L215.282 158.249L215.259 158.286L225.525 164.5ZM216.65 171.75L221.265 182.827L221.265 182.827L216.65 171.75ZM189.15 173.25L191.448 161.472L191.309 161.445L191.169 161.421L189.15 173.25ZM178.775 170.25H166.775V178.339L174.273 181.373L178.775 170.25ZM178.775 154.875L183.56 143.87L166.775 136.572V154.875H178.775ZM190.65 159L193.727 147.401L193.727 147.401L190.65 159ZM207.275 159L199.708 149.687L199.56 149.807L199.416 149.932L207.275 159ZM208.275 151.625L217.98 144.567L217.98 144.567L208.275 151.625ZM204.275 148.5L198.228 158.865L198.228 158.865L204.275 148.5ZM195.4 144L190.222 154.826L190.267 154.847L190.313 154.868L195.4 144ZM185.9 138.625L178.647 148.185L178.83 148.324L179.018 148.456L185.9 138.625ZM180.4 132.125L169.463 137.064L169.561 137.28L169.667 137.492L180.4 132.125ZM185.775 108.25L179.199 98.2125L179.158 98.2388L179.119 98.2654L185.775 108.25ZM216.525 104.75L213.865 116.452L213.865 116.452L216.525 104.75ZM227.9 108.875L238.961 113.527L243.356 103.079L233.175 98.0964L227.9 108.875ZM222.275 122.25L217.246 133.146L228.522 138.35L233.336 126.902L222.275 122.25ZM209.9 117.875L207.24 129.577L207.296 129.589L207.351 129.601L209.9 117.875ZM199.65 118.375L193.161 108.281L192.988 108.392L192.819 108.509L199.65 118.375ZM199.025 124.75L189.32 131.808L189.482 132.031L189.654 132.246L199.025 124.75ZM202.9 127.625L196.995 138.072L197.171 138.171L197.349 138.264L202.9 127.625ZM211.275 131.5L206.518 142.517L206.562 142.536L206.607 142.555L211.275 131.5ZM220.65 136.5L213.768 146.331L213.954 146.461L214.144 146.584L220.65 136.5ZM226.525 142.875L215.861 148.379L215.899 148.451L215.937 148.522L226.525 142.875ZM228.525 152.75H216.525C216.525 155.562 215.926 157.201 215.305 158.211L225.525 164.5L235.745 170.789C239.124 165.299 240.525 159.105 240.525 152.75H228.525ZM225.525 164.5L215.259 158.286C214.877 158.918 214.097 159.814 212.035 160.673L216.65 171.75L221.265 182.827C227.203 180.353 232.34 176.416 235.791 170.714L225.525 164.5ZM216.65 171.75L212.035 160.673C210.008 161.517 206.568 162.25 201.15 162.25V174.25V186.25C208.399 186.25 215.291 185.316 221.265 182.827L216.65 171.75ZM201.15 174.25V162.25C197.111 162.25 193.913 161.953 191.448 161.472L189.15 173.25L186.852 185.028C191.22 185.88 196.022 186.25 201.15 186.25V174.25ZM189.15 173.25L191.169 161.421C188.675 160.995 186.048 160.248 183.277 159.127L178.775 170.25L174.273 181.373C178.502 183.085 182.791 184.338 187.13 185.079L189.15 173.25ZM178.775 170.25H190.775V154.875H178.775H166.775V170.25H178.775ZM178.775 154.875L173.99 165.88C178.383 167.79 182.912 169.362 187.573 170.599L190.65 159L193.727 147.401C190.221 146.471 186.834 145.294 183.56 143.87L178.775 154.875ZM190.65 159L187.573 170.599C192.185 171.822 196.713 172.625 200.9 172.625V160.625V148.625C199.586 148.625 197.282 148.344 193.727 147.401L190.65 159ZM200.9 160.625V172.625C204.691 172.625 210.518 172.069 215.134 168.068L207.275 159L199.416 149.932C200.584 148.919 201.598 148.637 201.78 148.591C201.967 148.543 201.739 148.625 200.9 148.625V160.625ZM207.275 159L214.842 168.313C219.04 164.902 221.275 160.035 221.275 154.75H209.275H197.275C197.275 154.068 197.414 153.085 197.917 152.015C198.423 150.94 199.114 150.169 199.708 149.687L207.275 159ZM209.275 154.75H221.275C221.275 151.127 220.184 147.598 217.98 144.567L208.275 151.625L198.57 158.683C198.179 158.145 197.833 157.492 197.596 156.751C197.36 156.013 197.275 155.325 197.275 154.75H209.275ZM208.275 151.625L217.98 144.567C215.764 141.52 212.57 139.446 210.321 138.135L204.275 148.5L198.228 158.865C198.561 159.06 198.823 159.223 199.022 159.355C199.224 159.489 199.339 159.575 199.387 159.613C199.438 159.653 199.381 159.612 199.254 159.488C199.188 159.424 199.094 159.327 198.981 159.198C198.868 159.07 198.727 158.899 198.57 158.683L208.275 151.625ZM204.275 148.5L210.321 138.135C207.849 136.692 204.503 135.011 200.487 133.132L195.4 144L190.313 154.868C194.13 156.655 196.701 157.974 198.228 158.865L204.275 148.5ZM195.4 144L200.577 133.174C197.126 131.524 194.578 130.052 192.781 128.794L185.9 138.625L179.018 148.456C182.221 150.698 186.007 152.809 190.222 154.826L195.4 144ZM185.9 138.625L193.153 129.065C192.075 128.247 191.491 127.475 191.133 126.758L180.4 132.125L169.667 137.492C171.809 141.775 174.891 145.336 178.647 148.185L185.9 138.625ZM180.4 132.125L191.336 127.186C191.072 126.6 190.65 125.197 190.65 122.5H178.65H166.65C166.65 127.469 167.395 132.484 169.463 137.064L180.4 132.125ZM178.65 122.5H190.65C190.65 119.662 191.428 118.904 192.431 118.235L185.775 108.25L179.119 98.2654C170.622 103.93 166.65 112.671 166.65 122.5H178.65ZM185.775 108.25L192.351 118.288C194.649 116.782 198.47 115.5 204.775 115.5V103.5V91.5C195.413 91.5 186.567 93.3846 179.199 98.2125L185.775 108.25ZM204.775 103.5V115.5C208.142 115.5 211.159 115.837 213.865 116.452L216.525 104.75L219.184 93.0484C214.557 91.9967 209.741 91.5 204.775 91.5V103.5ZM216.525 104.75L213.865 116.452C216.498 117.05 219.413 118.081 222.625 119.654L227.9 108.875L233.175 98.0964C228.554 95.8352 223.886 94.1169 219.184 93.0484L216.525 104.75ZM227.9 108.875L216.838 104.223L211.213 117.598L222.275 122.25L233.336 126.902L238.961 113.527L227.9 108.875ZM222.275 122.25L227.304 111.354C224.846 110.22 222.399 109.211 219.965 108.334L215.9 119.625L211.835 130.916C213.568 131.539 215.371 132.28 217.246 133.146L222.275 122.25ZM215.9 119.625L219.965 108.334C217.448 107.428 214.94 106.69 212.449 106.149L209.9 117.875L207.351 129.601C208.693 129.893 210.185 130.322 211.835 130.916L215.9 119.625ZM209.9 117.875L212.559 106.173C209.963 105.583 207.317 105.25 204.65 105.25V117.25V129.25C205.316 129.25 206.171 129.333 207.24 129.577L209.9 117.875ZM204.65 117.25V105.25C201.372 105.25 197.066 105.77 193.161 108.281L199.65 118.375L206.139 128.469C205.304 129.006 204.639 129.187 204.409 129.239C204.184 129.289 204.229 129.25 204.65 129.25V117.25ZM199.65 118.375L192.819 108.509C188.011 111.837 186.025 116.944 186.025 121.75H198.025H210.025C210.025 122.444 209.896 123.631 209.243 124.987C208.562 126.401 207.549 127.501 206.48 128.241L199.65 118.375ZM198.025 121.75H186.025C186.025 125.492 187.235 128.942 189.32 131.808L199.025 124.75L208.73 117.692C209.066 118.154 209.408 118.766 209.659 119.518C209.912 120.275 210.025 121.038 210.025 121.75H198.025ZM199.025 124.75L189.654 132.246C191.84 134.979 194.859 136.864 196.995 138.072L202.9 127.625L208.805 117.178C208.48 116.995 208.222 116.839 208.022 116.712C207.821 116.584 207.7 116.498 207.644 116.457C207.584 116.412 207.629 116.441 207.742 116.545C207.802 116.599 207.889 116.682 207.996 116.795C208.103 116.907 208.24 117.06 208.395 117.254L199.025 124.75ZM202.9 127.625L197.349 138.264C199.657 139.468 202.766 140.897 206.518 142.517L211.275 131.5L216.032 120.483C212.45 118.937 209.976 117.782 208.451 116.986L202.9 127.625ZM211.275 131.5L206.607 142.555C209.819 143.911 212.147 145.196 213.768 146.331L220.65 136.5L227.531 126.669C224.153 124.304 220.231 122.256 215.943 120.445L211.275 131.5ZM220.65 136.5L214.144 146.584C215.071 147.181 215.546 147.767 215.861 148.379L226.525 142.875L237.188 137.371C234.837 132.816 231.396 129.152 227.155 126.416L220.65 136.5ZM226.525 142.875L215.937 148.522C216.024 148.687 216.525 149.825 216.525 152.75H228.525H240.525C240.525 147.509 239.692 142.063 237.113 137.228L226.525 142.875Z" fill="var(--pageColor)" mask="url(#path-2-outside-1_32_486)"/>
<path d="M59.2798 174.25C52.7798 174.25 47.1965 173.042 42.5298 170.625C37.8631 168.125 34.2798 164.292 31.7798 159.125C29.2798 153.958 28.0298 147.333 28.0298 139.25C28.0298 130.917 29.4048 124.125 32.1548 118.875C34.9881 113.625 38.8631 109.75 43.7798 107.25C48.7798 104.75 54.4881 103.5 60.9048 103.5C65.0715 103.5 68.9465 103.958 72.5298 104.875C76.1131 105.792 79.1131 106.875 81.5298 108.125L75.6548 122.125C73.1548 121.042 70.8631 120.167 68.7798 119.5C66.7798 118.833 64.5715 118.5 62.1548 118.5C59.2381 118.5 56.7381 119.292 54.6548 120.875C52.6548 122.375 51.1131 124.667 50.0298 127.75C48.9465 130.75 48.4048 134.542 48.4048 139.125C48.4048 143.625 48.9465 147.375 50.0298 150.375C51.1965 153.292 52.7798 155.5 54.7798 157C56.8631 158.417 59.3215 159.125 62.1548 159.125C65.3215 159.125 68.3215 158.625 71.1548 157.625C74.0715 156.542 76.8215 155.083 79.4048 153.25V169.125C76.6548 170.958 73.6965 172.25 70.5298 173C67.4465 173.833 63.6965 174.25 59.2798 174.25ZM160.919 138.75C160.919 144.417 160.169 149.458 158.669 153.875C157.253 158.292 155.169 162.042 152.419 165.125C149.669 168.125 146.294 170.417 142.294 172C138.378 173.5 133.961 174.25 129.044 174.25C124.461 174.25 120.211 173.5 116.294 172C112.378 170.417 109.003 168.125 106.169 165.125C103.419 162.042 101.253 158.292 99.6694 153.875C98.1694 149.458 97.4194 144.417 97.4194 138.75C97.4194 131.167 98.7111 124.792 101.294 119.625C103.878 114.375 107.544 110.375 112.294 107.625C117.044 104.875 122.753 103.5 129.419 103.5C135.586 103.5 141.003 104.875 145.669 107.625C150.419 110.375 154.128 114.375 156.794 119.625C159.544 124.792 160.919 131.167 160.919 138.75ZM117.794 138.75C117.794 143.25 118.169 147.042 118.919 150.125C119.753 153.125 121.003 155.417 122.669 157C124.419 158.5 126.628 159.25 129.294 159.25C132.044 159.25 134.211 158.5 135.794 157C137.461 155.417 138.669 153.125 139.419 150.125C140.169 147.042 140.544 143.25 140.544 138.75C140.544 134.25 140.169 130.5 139.419 127.5C138.669 124.5 137.419 122.25 135.669 120.75C134.003 119.25 131.836 118.5 129.169 118.5C125.086 118.5 122.169 120.208 120.419 123.625C118.669 126.958 117.794 132 117.794 138.75ZM228.525 152.75C228.525 157.333 227.525 161.25 225.525 164.5C223.608 167.667 220.65 170.083 216.65 171.75C212.65 173.417 207.483 174.25 201.15 174.25C196.567 174.25 192.567 173.917 189.15 173.25C185.733 172.667 182.275 171.667 178.775 170.25V154.875C182.608 156.542 186.567 157.917 190.65 159C194.733 160.083 198.15 160.625 200.9 160.625C203.9 160.625 206.025 160.083 207.275 159C208.608 157.917 209.275 156.5 209.275 154.75C209.275 153.583 208.942 152.542 208.275 151.625C207.608 150.708 206.275 149.667 204.275 148.5C202.275 147.333 199.317 145.833 195.4 144C191.567 142.167 188.4 140.375 185.9 138.625C183.483 136.792 181.65 134.625 180.4 132.125C179.233 129.542 178.65 126.333 178.65 122.5C178.65 116.167 181.025 111.417 185.775 108.25C190.608 105.083 196.942 103.5 204.775 103.5C208.942 103.5 212.858 103.917 216.525 104.75C220.192 105.583 223.983 106.958 227.9 108.875L222.275 122.25C220.108 121.25 217.983 120.375 215.9 119.625C213.817 118.875 211.817 118.292 209.9 117.875C208.067 117.458 206.317 117.25 204.65 117.25C202.483 117.25 200.817 117.625 199.65 118.375C198.567 119.125 198.025 120.25 198.025 121.75C198.025 122.833 198.358 123.833 199.025 124.75C199.692 125.583 200.983 126.542 202.9 127.625C204.817 128.625 207.608 129.917 211.275 131.5C215.025 133.083 218.15 134.75 220.65 136.5C223.233 138.167 225.192 140.292 226.525 142.875C227.858 145.375 228.525 148.667 228.525 152.75Z" fill="var(--darkGray)"/>
</g>
</svg>
