<svg viewBox="0 0 256 256" fill="none" xmlns="http://www.w3.org/2000/svg">
<mask id="mask0_33_516" style="mask-type:alpha" maskUnits="userSpaceOnUse" x="0" y="0" width="256" height="256">
<rect width="256" height="256" fill="var(--gray)"/>
</mask>
<g mask="url(#mask0_33_516)">
<mask id="path-2-outside-1_33_516" maskUnits="userSpaceOnUse" x="7" y="62" width="224" height="156" fill="black">
<rect fill="var(--pageColor)" x="7" y="62" width="224" height="156"/>
<path d="M29.858 205.2C28.038 205.2 26.218 205.027 24.398 204.68C22.578 204.42 21.0613 204.117 19.848 203.77V190.51C21.148 190.943 22.3613 191.29 23.488 191.55C24.6146 191.81 25.828 191.94 27.128 191.94C29.9013 191.94 32.198 190.9 34.018 188.82C35.9246 186.827 37.3546 183.75 38.308 179.59L51.698 115.89H40.648L42.208 108.35L54.428 103.41L55.598 97.69C56.638 93.3567 57.8946 89.7167 59.368 86.77C60.8413 83.7367 62.5746 81.3533 64.568 79.62C66.648 77.8 69.0313 76.5 71.718 75.72C74.4046 74.94 77.438 74.55 80.818 74.55C83.5046 74.55 86.018 74.81 88.358 75.33C90.7846 75.85 92.908 76.5433 94.728 77.41L90.438 89.5C89.2246 89.0667 87.9246 88.6767 86.538 88.33C85.238 87.8967 83.7213 87.68 81.988 87.68C79.128 87.68 76.8746 88.59 75.228 90.41C73.5813 92.1433 72.368 94.8733 71.588 98.6L70.548 103.54H84.848L82.248 115.89H67.948L54.038 181.93C53.0846 186.35 51.6546 190.337 49.748 193.89C47.8413 197.443 45.2846 200.217 42.078 202.21C38.8713 204.203 34.798 205.2 29.858 205.2ZM91.1211 146.6C91.1211 141.133 91.5544 135.8 92.4211 130.6C93.3544 125.4 94.8211 120.433 96.8211 115.7C98.8211 110.967 101.388 106.6 104.521 102.6H117.621C114.821 106.733 112.488 111.2 110.621 116C108.754 120.8 107.354 125.767 106.421 130.9C105.554 136.033 105.121 141.233 105.121 146.5C105.121 151.633 105.554 156.767 106.421 161.9C107.354 166.967 108.754 171.833 110.621 176.5C112.488 181.233 114.821 185.667 117.621 189.8H104.521C101.388 185.867 98.8211 181.567 96.8211 176.9C94.8211 172.3 93.3544 167.433 92.4211 162.3C91.5544 157.167 91.1211 151.933 91.1211 146.6ZM143.934 146.1L127.634 119.4H145.834L154.734 136.8L163.834 119.4H181.934L165.434 146.1L182.634 174H164.534L154.734 155.3L144.934 174H126.834L143.934 146.1ZM218.37 146.6C218.37 151.933 217.903 157.167 216.97 162.3C216.103 167.433 214.703 172.3 212.77 176.9C210.836 181.567 208.27 185.867 205.07 189.8H191.97C194.77 185.667 197.07 181.233 198.87 176.5C200.736 171.833 202.136 166.967 203.07 161.9C204.003 156.767 204.47 151.633 204.47 146.5C204.47 141.233 204.003 136.033 203.07 130.9C202.136 125.767 200.736 120.8 198.87 116C197.07 111.2 194.736 106.733 191.87 102.6H205.07C208.27 106.6 210.836 110.967 212.77 115.7C214.703 120.433 216.103 125.4 216.97 130.6C217.903 135.8 218.37 141.133 218.37 146.6Z"/>
</mask>
<path d="M29.858 205.2C28.038 205.2 26.218 205.027 24.398 204.68C22.578 204.42 21.0613 204.117 19.848 203.77V190.51C21.148 190.943 22.3613 191.29 23.488 191.55C24.6146 191.81 25.828 191.94 27.128 191.94C29.9013 191.94 32.198 190.9 34.018 188.82C35.9246 186.827 37.3546 183.75 38.308 179.59L51.698 115.89H40.648L42.208 108.35L54.428 103.41L55.598 97.69C56.638 93.3567 57.8946 89.7167 59.368 86.77C60.8413 83.7367 62.5746 81.3533 64.568 79.62C66.648 77.8 69.0313 76.5 71.718 75.72C74.4046 74.94 77.438 74.55 80.818 74.55C83.5046 74.55 86.018 74.81 88.358 75.33C90.7846 75.85 92.908 76.5433 94.728 77.41L90.438 89.5C89.2246 89.0667 87.9246 88.6767 86.538 88.33C85.238 87.8967 83.7213 87.68 81.988 87.68C79.128 87.68 76.8746 88.59 75.228 90.41C73.5813 92.1433 72.368 94.8733 71.588 98.6L70.548 103.54H84.848L82.248 115.89H67.948L54.038 181.93C53.0846 186.35 51.6546 190.337 49.748 193.89C47.8413 197.443 45.2846 200.217 42.078 202.21C38.8713 204.203 34.798 205.2 29.858 205.2ZM91.1211 146.6C91.1211 141.133 91.5544 135.8 92.4211 130.6C93.3544 125.4 94.8211 120.433 96.8211 115.7C98.8211 110.967 101.388 106.6 104.521 102.6H117.621C114.821 106.733 112.488 111.2 110.621 116C108.754 120.8 107.354 125.767 106.421 130.9C105.554 136.033 105.121 141.233 105.121 146.5C105.121 151.633 105.554 156.767 106.421 161.9C107.354 166.967 108.754 171.833 110.621 176.5C112.488 181.233 114.821 185.667 117.621 189.8H104.521C101.388 185.867 98.8211 181.567 96.8211 176.9C94.8211 172.3 93.3544 167.433 92.4211 162.3C91.5544 157.167 91.1211 151.933 91.1211 146.6ZM143.934 146.1L127.634 119.4H145.834L154.734 136.8L163.834 119.4H181.934L165.434 146.1L182.634 174H164.534L154.734 155.3L144.934 174H126.834L143.934 146.1ZM218.37 146.6C218.37 151.933 217.903 157.167 216.97 162.3C216.103 167.433 214.703 172.3 212.77 176.9C210.836 181.567 208.27 185.867 205.07 189.8H191.97C194.77 185.667 197.07 181.233 198.87 176.5C200.736 171.833 202.136 166.967 203.07 161.9C204.003 156.767 204.47 151.633 204.47 146.5C204.47 141.233 204.003 136.033 203.07 130.9C202.136 125.767 200.736 120.8 198.87 116C197.07 111.2 194.736 106.733 191.87 102.6H205.07C208.27 106.6 210.836 110.967 212.77 115.7C214.703 120.433 216.103 125.4 216.97 130.6C217.903 135.8 218.37 141.133 218.37 146.6Z" fill="var(--pageColor)"/>
<path d="M24.398 204.68L26.6433 192.892L26.3702 192.84L26.095 192.801L24.398 204.68ZM19.848 203.77H7.84797V212.822L16.5513 215.308L19.848 203.77ZM19.848 190.51L23.6427 179.126L7.84797 173.861V190.51H19.848ZM23.488 191.55L26.1863 179.857L26.1863 179.857L23.488 191.55ZM34.018 188.82L25.3463 180.525L25.1623 180.718L24.987 180.918L34.018 188.82ZM38.308 179.59L50.0048 182.271L50.029 182.165L50.0513 182.059L38.308 179.59ZM51.698 115.89L63.4413 118.358L66.4827 103.89H51.698V115.89ZM40.648 115.89L28.8968 113.459L25.9111 127.89H40.648V115.89ZM42.208 108.35L37.7105 97.2247L31.7577 99.6311L30.4568 105.919L42.208 108.35ZM54.428 103.41L58.9254 114.535L64.8944 112.122L66.1845 105.815L54.428 103.41ZM55.598 97.69L43.9293 94.8895L43.882 95.0866L43.8414 95.2852L55.598 97.69ZM59.368 86.77L70.1011 92.1366L70.1319 92.0749L70.1621 92.0128L59.368 86.77ZM64.568 79.62L72.4421 88.6753L72.4561 88.6631L72.47 88.6509L64.568 79.62ZM71.718 75.72L75.0637 87.2441L75.0637 87.2441L71.718 75.72ZM88.358 75.33L85.7548 87.0442L85.7992 87.0541L85.8436 87.0636L88.358 75.33ZM94.728 77.41L106.037 81.4229L109.655 71.227L99.8872 66.5757L94.728 77.41ZM90.438 89.5L86.4019 100.801L97.726 104.845L101.747 93.5129L90.438 89.5ZM86.538 88.33L82.7432 99.7142L83.1804 99.8599L83.6275 99.9717L86.538 88.33ZM75.228 90.41L83.928 98.675L84.0285 98.5692L84.1264 98.461L75.228 90.41ZM71.588 98.6L83.3306 101.072L83.3335 101.058L71.588 98.6ZM70.548 103.54L58.8054 101.068L55.7586 115.54H70.548V103.54ZM84.848 103.54L96.5906 106.012L99.6373 91.54H84.848V103.54ZM82.248 115.89V127.89H91.9847L93.9906 118.362L82.248 115.89ZM67.948 115.89V103.89H58.2122L56.2056 113.417L67.948 115.89ZM54.038 181.93L65.7682 184.46L65.7743 184.432L65.7803 184.403L54.038 181.93ZM49.748 193.89L60.3219 199.564L60.3219 199.564L49.748 193.89ZM42.078 202.21L35.7428 192.019L35.7428 192.019L42.078 202.21ZM29.858 205.2V193.2C28.8049 193.2 27.7365 193.1 26.6433 192.892L24.398 204.68L22.1526 216.468C24.6994 216.953 27.2711 217.2 29.858 217.2V205.2ZM24.398 204.68L26.095 192.801C24.5949 192.586 23.6555 192.378 23.1446 192.232L19.848 203.77L16.5513 215.308C18.4671 215.856 20.561 216.254 22.7009 216.559L24.398 204.68ZM19.848 203.77H31.848V190.51H19.848H7.84797V203.77H19.848ZM19.848 190.51L16.0532 201.894C17.6499 202.426 19.2327 202.883 20.7896 203.243L23.488 191.55L26.1863 179.857C25.4899 179.697 24.6461 179.46 23.6427 179.126L19.848 190.51ZM23.488 191.55L20.7896 203.243C22.9027 203.73 25.0302 203.94 27.128 203.94V191.94V179.94C26.6257 179.94 26.3265 179.89 26.1863 179.857L23.488 191.55ZM27.128 191.94V203.94C33.348 203.94 38.9412 201.417 43.0489 196.722L34.018 188.82L24.987 180.918C25.0957 180.794 25.4228 180.481 25.9804 180.229C26.5369 179.977 26.9797 179.94 27.128 179.94V191.94ZM34.018 188.82L42.6897 197.115C46.6979 192.924 48.8105 187.482 50.0048 182.271L38.308 179.59L26.6112 176.909C26.2765 178.37 25.9225 179.349 25.6385 179.96C25.3552 180.569 25.2089 180.669 25.3463 180.525L34.018 188.82ZM38.308 179.59L50.0513 182.059L63.4413 118.358L51.698 115.89L39.9546 113.421L26.5646 177.121L38.308 179.59ZM51.698 115.89V103.89H40.648V115.89V127.89H51.698V115.89ZM40.648 115.89L52.3991 118.321L53.9591 110.781L42.208 108.35L30.4568 105.919L28.8968 113.459L40.648 115.89ZM42.208 108.35L46.7054 119.475L58.9254 114.535L54.428 103.41L49.9305 92.2847L37.7105 97.2247L42.208 108.35ZM54.428 103.41L66.1845 105.815L67.3545 100.095L55.598 97.69L43.8414 95.2852L42.6714 101.005L54.428 103.41ZM55.598 97.69L67.2666 100.49C68.1628 96.7563 69.1506 94.0375 70.1011 92.1366L59.368 86.77L48.6348 81.4034C46.6386 85.3958 45.1131 89.957 43.9293 94.8895L55.598 97.69ZM59.368 86.77L70.1621 92.0128C71.1166 90.0476 71.9561 89.0979 72.4421 88.6753L64.568 79.62L56.6938 70.5647C53.1931 73.6088 50.566 77.4257 48.5739 81.5272L59.368 86.77ZM64.568 79.62L72.47 88.6509C73.2149 87.9991 74.0384 87.5418 75.0637 87.2441L71.718 75.72L68.3722 64.1958C64.0242 65.4582 60.081 67.6009 56.6659 70.5891L64.568 79.62ZM71.718 75.72L75.0637 87.2441C76.4649 86.8374 78.3432 86.55 80.818 86.55V74.55V62.55C76.5328 62.55 72.3444 63.0426 68.3722 64.1958L71.718 75.72ZM80.818 74.55V86.55C82.7326 86.55 84.365 86.7354 85.7548 87.0442L88.358 75.33L90.9611 63.6157C87.671 62.8846 84.2767 62.55 80.818 62.55V74.55ZM88.358 75.33L85.8436 87.0636C87.5578 87.4309 88.7598 87.8591 89.5688 88.2443L94.728 77.41L99.8872 66.5757C97.0561 65.2276 94.0115 64.269 90.8723 63.5964L88.358 75.33ZM94.728 77.41L83.4188 73.3971L79.1288 85.4871L90.438 89.5L101.747 93.5129L106.037 81.4229L94.728 77.41ZM90.438 89.5L94.474 78.1991C92.8539 77.6205 91.175 77.1199 89.4484 76.6883L86.538 88.33L83.6275 99.9717C84.6742 100.233 85.5954 100.513 86.4019 100.801L90.438 89.5ZM86.538 88.33L90.3327 76.9458C87.5343 76.013 84.6855 75.68 81.988 75.68V87.68V99.68C82.7571 99.68 82.9416 99.7803 82.7432 99.7142L86.538 88.33ZM81.988 87.68V75.68C76.3523 75.68 70.6336 77.6019 66.3295 82.359L75.228 90.41L84.1264 98.461C83.7454 98.8821 83.219 99.2582 82.6465 99.4894C82.1164 99.7035 81.8302 99.68 81.988 99.68V87.68ZM75.228 90.41L66.528 82.145C62.6895 86.1855 60.833 91.4091 59.8425 96.1416L71.588 98.6L83.3335 101.058C83.5945 99.8111 83.8654 99.0436 84.0487 98.6312C84.2323 98.2181 84.2499 98.3361 83.928 98.675L75.228 90.41ZM71.588 98.6L59.8454 96.1279L58.8054 101.068L70.548 103.54L82.2906 106.012L83.3306 101.072L71.588 98.6ZM70.548 103.54V115.54H84.848V103.54V91.54H70.548V103.54ZM84.848 103.54L73.1054 101.068L70.5054 113.418L82.248 115.89L93.9906 118.362L96.5906 106.012L84.848 103.54ZM82.248 115.89V103.89H67.948V115.89V127.89H82.248V115.89ZM67.948 115.89L56.2056 113.417L42.2956 179.457L54.038 181.93L65.7803 184.403L79.6903 118.363L67.948 115.89ZM54.038 181.93L42.3077 179.4C41.5627 182.854 40.4904 185.763 39.174 188.216L49.748 193.89L60.3219 199.564C62.8189 194.91 64.6066 189.846 65.7682 184.46L54.038 181.93ZM49.748 193.89L39.174 188.216C38.1906 190.049 37.0439 191.21 35.7428 192.019L42.078 202.21L48.4132 212.401C53.5254 209.224 57.492 204.838 60.3219 199.564L49.748 193.89ZM42.078 202.21L35.7428 192.019C34.9403 192.517 33.2353 193.2 29.858 193.2V205.2V217.2C36.3607 217.2 42.8023 215.889 48.4132 212.401L42.078 202.21ZM92.4211 130.6L80.6098 128.48L80.5966 128.554L80.5844 128.627L92.4211 130.6ZM96.8211 115.7L107.875 120.371L107.875 120.371L96.8211 115.7ZM104.521 102.6V90.6H98.6777L95.0744 95.2001L104.521 102.6ZM117.621 102.6L127.556 109.33L140.244 90.6H117.621V102.6ZM110.621 116L99.437 111.651L99.437 111.651L110.621 116ZM106.421 130.9L94.6146 128.753L94.6011 128.828L94.5885 128.902L106.421 130.9ZM106.421 161.9L94.5885 163.898L94.6034 163.986L94.6197 164.074L106.421 161.9ZM110.621 176.5L121.784 172.098L121.774 172.07L121.763 172.043L110.621 176.5ZM117.621 189.8V201.8H140.244L127.556 183.07L117.621 189.8ZM104.521 189.8L95.1352 197.277L98.7383 201.8H104.521V189.8ZM96.8211 176.9L107.851 172.173L107.838 172.144L107.826 172.115L96.8211 176.9ZM92.4211 162.3L80.5885 164.298L80.6011 164.372L80.6146 164.447L92.4211 162.3ZM91.1211 146.6H103.121C103.121 141.77 103.504 137.097 104.258 132.573L92.4211 130.6L80.5844 128.627C79.6051 134.503 79.1211 140.497 79.1211 146.6H91.1211ZM92.4211 130.6L104.232 132.72C105.013 128.371 106.231 124.262 107.875 120.371L96.8211 115.7L85.7673 111.029C83.4114 116.605 81.6959 122.429 80.6098 128.48L92.4211 130.6ZM96.8211 115.7L107.875 120.371C109.467 116.603 111.496 113.156 113.968 110L104.521 102.6L95.0744 95.2001C91.2797 100.044 88.1753 105.33 85.7673 111.029L96.8211 115.7ZM104.521 102.6V114.6H117.621V102.6V90.6H104.521V102.6ZM117.621 102.6L107.686 95.8698C104.366 100.771 101.619 106.039 99.437 111.651L110.621 116L121.805 120.349C123.356 116.361 125.276 112.696 127.556 109.33L117.621 102.6ZM110.621 116L99.437 111.651C97.2896 117.173 95.683 122.878 94.6146 128.753L106.421 130.9L118.228 133.047C119.026 128.656 120.219 124.427 121.805 120.349L110.621 116ZM106.421 130.9L94.5885 128.902C93.6091 134.703 93.1211 140.572 93.1211 146.5H105.121H117.121C117.121 141.895 117.5 137.363 118.254 132.898L106.421 130.9ZM105.121 146.5H93.1211C93.1211 152.312 93.612 158.114 94.5885 163.898L106.421 161.9L118.254 159.902C117.497 155.42 117.121 150.955 117.121 146.5H105.121ZM106.421 161.9L94.6197 164.074C95.6932 169.902 97.3105 175.535 99.4794 180.957L110.621 176.5L121.763 172.043C120.198 168.132 119.016 164.031 118.223 159.726L106.421 161.9ZM110.621 176.5L99.4578 180.902C101.641 186.439 104.383 191.654 107.686 196.53L117.621 189.8L127.556 183.07C125.259 179.679 123.334 176.028 121.784 172.098L110.621 176.5ZM117.621 189.8V177.8H104.521V189.8V201.8H117.621V189.8ZM104.521 189.8L113.907 182.323C111.449 179.237 109.432 175.863 107.851 172.173L96.8211 176.9L85.7913 181.627C88.2098 187.27 91.327 192.496 95.1352 197.277L104.521 189.8ZM96.8211 176.9L107.826 172.115C106.208 168.394 105.003 164.416 104.228 160.153L92.4211 162.3L80.6146 164.447C81.7063 170.451 83.4341 176.206 85.8162 181.685L96.8211 176.9ZM92.4211 162.3L104.254 160.302C103.501 155.845 103.121 151.28 103.121 146.6H91.1211H79.1211C79.1211 152.586 79.6077 158.488 80.5885 164.298L92.4211 162.3ZM143.934 146.1L154.165 152.371L158.001 146.112L154.176 139.847L143.934 146.1ZM127.634 119.4V107.4H106.248L117.391 125.653L127.634 119.4ZM145.834 119.4L156.517 113.935L153.174 107.4H145.834V119.4ZM154.734 136.8L144.05 142.265L154.615 162.92L165.367 142.361L154.734 136.8ZM163.834 119.4V107.4H156.567L153.2 113.839L163.834 119.4ZM181.934 119.4L192.142 125.708L203.456 107.4H181.934V119.4ZM165.434 146.1L155.226 139.792L151.332 146.092L155.219 152.397L165.434 146.1ZM182.634 174V186H204.129L192.848 167.703L182.634 174ZM164.534 174L153.905 179.57L157.274 186H164.534V174ZM154.734 155.3L165.362 149.73L154.734 129.448L144.105 149.73L154.734 155.3ZM144.934 174V186H152.193L155.562 179.57L144.934 174ZM126.834 174L116.602 167.729L105.404 186H126.834V174ZM143.934 146.1L154.176 139.847L137.876 113.147L127.634 119.4L117.391 125.653L133.691 152.353L143.934 146.1ZM127.634 119.4V131.4H145.834V119.4V107.4H127.634V119.4ZM145.834 119.4L135.15 124.865L144.05 142.265L154.734 136.8L165.417 131.335L156.517 113.935L145.834 119.4ZM154.734 136.8L165.367 142.361L174.467 124.961L163.834 119.4L153.2 113.839L144.1 131.239L154.734 136.8ZM163.834 119.4V131.4H181.934V119.4V107.4H163.834V119.4ZM181.934 119.4L171.726 113.092L155.226 139.792L165.434 146.1L175.642 152.408L192.142 125.708L181.934 119.4ZM165.434 146.1L155.219 152.397L172.419 180.297L182.634 174L192.848 167.703L175.648 139.803L165.434 146.1ZM182.634 174V162H164.534V174V186H182.634V174ZM164.534 174L175.162 168.43L165.362 149.73L154.734 155.3L144.105 160.87L153.905 179.57L164.534 174ZM154.734 155.3L144.105 149.73L134.305 168.43L144.934 174L155.562 179.57L165.362 160.87L154.734 155.3ZM144.934 174V162H126.834V174V186H144.934V174ZM126.834 174L137.065 180.271L154.165 152.371L143.934 146.1L133.702 139.829L116.602 167.729L126.834 174ZM216.97 162.3L205.163 160.153L205.15 160.228L205.137 160.302L216.97 162.3ZM212.77 176.9L201.707 172.25L201.695 172.279L201.683 172.307L212.77 176.9ZM205.07 189.8V201.8H210.776L214.378 197.373L205.07 189.8ZM191.97 189.8L182.035 183.07L169.346 201.8H191.97V189.8ZM198.87 176.5L187.728 172.043L187.69 172.139L187.653 172.235L198.87 176.5ZM203.07 161.9L214.871 164.074L214.873 164.06L214.876 164.047L203.07 161.9ZM203.07 130.9L214.876 128.753L214.876 128.753L203.07 130.9ZM198.87 116L187.634 120.213L187.659 120.282L187.685 120.349L198.87 116ZM191.87 102.6V90.6H168.943L182.009 109.439L191.87 102.6ZM205.07 102.6L214.44 95.1037L210.837 90.6H205.07V102.6ZM212.77 115.7L201.66 120.237L201.66 120.238L212.77 115.7ZM216.97 130.6L205.133 132.573L205.145 132.646L205.158 132.72L216.97 130.6ZM218.37 146.6H206.37C206.37 151.229 205.965 155.744 205.163 160.153L216.97 162.3L228.776 164.447C229.841 158.589 230.37 152.637 230.37 146.6H218.37ZM216.97 162.3L205.137 160.302C204.417 164.564 203.267 168.538 201.707 172.25L212.77 176.9L223.832 181.55C226.138 176.062 227.788 170.302 228.802 164.298L216.97 162.3ZM212.77 176.9L201.683 172.307C200.197 175.895 198.23 179.192 195.761 182.227L205.07 189.8L214.378 197.373C218.309 192.541 221.476 187.238 223.856 181.493L212.77 176.9ZM205.07 189.8V177.8H191.97V189.8V201.8H205.07V189.8ZM191.97 189.8L201.905 196.53C205.233 191.617 207.96 186.355 210.086 180.765L198.87 176.5L187.653 172.235C186.179 176.112 184.306 179.717 182.035 183.07L191.97 189.8ZM198.87 176.5L210.011 180.957C212.18 175.535 213.797 169.902 214.871 164.074L203.07 161.9L191.268 159.726C190.475 164.031 189.292 168.132 187.728 172.043L198.87 176.5ZM203.07 161.9L214.876 164.047C215.936 158.217 216.47 152.365 216.47 146.5H204.47H192.47C192.47 150.902 192.07 155.317 191.263 159.753L203.07 161.9ZM204.47 146.5H216.47C216.47 140.52 215.939 134.602 214.876 128.753L203.07 130.9L191.263 133.047C192.066 137.465 192.47 141.946 192.47 146.5H204.47ZM203.07 130.9L214.876 128.753C213.808 122.878 212.201 117.173 210.054 111.651L198.87 116L187.685 120.349C189.271 124.427 190.465 128.656 191.263 133.047L203.07 130.9ZM198.87 116L210.105 111.787C207.964 106.076 205.173 100.725 201.73 95.7612L191.87 102.6L182.009 109.439C184.3 112.742 186.175 116.324 187.634 120.213L198.87 116ZM191.87 102.6V114.6H205.07V102.6V90.6H191.87V102.6ZM205.07 102.6L195.699 110.096C198.182 113.2 200.163 116.571 201.66 120.237L212.77 115.7L223.879 111.163C221.51 105.363 218.357 99.9998 214.44 95.1037L205.07 102.6ZM212.77 115.7L201.66 120.238C203.246 124.12 204.408 128.225 205.133 132.573L216.97 130.6L228.806 128.627C227.798 122.575 226.159 116.746 223.879 111.162L212.77 115.7ZM216.97 130.6L205.158 132.72C205.962 137.196 206.37 141.82 206.37 146.6H218.37H230.37C230.37 140.447 229.844 134.404 228.781 128.48L216.97 130.6Z" fill="var(--pageColor)" mask="url(#path-2-outside-1_33_516)"/>
<path d="M29.858 205.2C28.038 205.2 26.218 205.027 24.398 204.68C22.578 204.42 21.0613 204.117 19.848 203.77V190.51C21.148 190.943 22.3613 191.29 23.488 191.55C24.6146 191.81 25.828 191.94 27.128 191.94C29.9013 191.94 32.198 190.9 34.018 188.82C35.9246 186.827 37.3546 183.75 38.308 179.59L51.698 115.89H40.648L42.208 108.35L54.428 103.41L55.598 97.69C56.638 93.3567 57.8946 89.7167 59.368 86.77C60.8413 83.7367 62.5746 81.3533 64.568 79.62C66.648 77.8 69.0313 76.5 71.718 75.72C74.4046 74.94 77.438 74.55 80.818 74.55C83.5046 74.55 86.018 74.81 88.358 75.33C90.7846 75.85 92.908 76.5433 94.728 77.41L90.438 89.5C89.2246 89.0667 87.9246 88.6767 86.538 88.33C85.238 87.8967 83.7213 87.68 81.988 87.68C79.128 87.68 76.8746 88.59 75.228 90.41C73.5813 92.1433 72.368 94.8733 71.588 98.6L70.548 103.54H84.848L82.248 115.89H67.948L54.038 181.93C53.0846 186.35 51.6546 190.337 49.748 193.89C47.8413 197.443 45.2846 200.217 42.078 202.21C38.8713 204.203 34.798 205.2 29.858 205.2ZM91.1211 146.6C91.1211 141.133 91.5544 135.8 92.4211 130.6C93.3544 125.4 94.8211 120.433 96.8211 115.7C98.8211 110.967 101.388 106.6 104.521 102.6H117.621C114.821 106.733 112.488 111.2 110.621 116C108.754 120.8 107.354 125.767 106.421 130.9C105.554 136.033 105.121 141.233 105.121 146.5C105.121 151.633 105.554 156.767 106.421 161.9C107.354 166.967 108.754 171.833 110.621 176.5C112.488 181.233 114.821 185.667 117.621 189.8H104.521C101.388 185.867 98.8211 181.567 96.8211 176.9C94.8211 172.3 93.3544 167.433 92.4211 162.3C91.5544 157.167 91.1211 151.933 91.1211 146.6ZM143.934 146.1L127.634 119.4H145.834L154.734 136.8L163.834 119.4H181.934L165.434 146.1L182.634 174H164.534L154.734 155.3L144.934 174H126.834L143.934 146.1ZM218.37 146.6C218.37 151.933 217.903 157.167 216.97 162.3C216.103 167.433 214.703 172.3 212.77 176.9C210.836 181.567 208.27 185.867 205.07 189.8H191.97C194.77 185.667 197.07 181.233 198.87 176.5C200.736 171.833 202.136 166.967 203.07 161.9C204.003 156.767 204.47 151.633 204.47 146.5C204.47 141.233 204.003 136.033 203.07 130.9C202.136 125.767 200.736 120.8 198.87 116C197.07 111.2 194.736 106.733 191.87 102.6H205.07C208.27 106.6 210.836 110.967 212.77 115.7C214.703 120.433 216.103 125.4 216.97 130.6C217.903 135.8 218.37 141.133 218.37 146.6Z" fill="var(--darkGray)"/>
</g>
</svg>
