<svg viewBox="0 0 256 256" fill="none" xmlns="http://www.w3.org/2000/svg">
<mask id="mask0_32_466" style="mask-type:alpha" maskUnits="userSpaceOnUse" x="0" y="0" width="256" height="256">
<rect width="256" height="256" fill="var(--gray)"/>
</mask>
<g mask="url(#mask0_32_466)">
<mask id="path-2-outside-1_32_466" maskUnits="userSpaceOnUse" x="26" y="66" width="201" height="121" fill="black">
<rect fill="var(--pageColor)" x="26" y="66" width="201" height="121"/>
<path d="M88.2197 152.75C88.2197 157.333 87.2197 161.25 85.2197 164.5C83.3031 167.667 80.3447 170.083 76.3447 171.75C72.3447 173.417 67.1781 174.25 60.8447 174.25C56.2614 174.25 52.2614 173.917 48.8447 173.25C45.4281 172.667 41.9697 171.667 38.4697 170.25V154.875C42.3031 156.542 46.2614 157.917 50.3447 159C54.4281 160.083 57.8447 160.625 60.5947 160.625C63.5947 160.625 65.7197 160.083 66.9697 159C68.3031 157.917 68.9697 156.5 68.9697 154.75C68.9697 153.583 68.6364 152.542 67.9697 151.625C67.3031 150.708 65.9697 149.667 63.9697 148.5C61.9697 147.333 59.0114 145.833 55.0947 144C51.2614 142.167 48.0947 140.375 45.5947 138.625C43.1781 136.792 41.3447 134.625 40.0947 132.125C38.9281 129.542 38.3447 126.333 38.3447 122.5C38.3447 116.167 40.7197 111.417 45.4697 108.25C50.3031 105.083 56.6364 103.5 64.4697 103.5C68.6364 103.5 72.5531 103.917 76.2197 104.75C79.8864 105.583 83.6781 106.958 87.5947 108.875L81.9697 122.25C79.8031 121.25 77.6781 120.375 75.5947 119.625C73.5114 118.875 71.5114 118.292 69.5947 117.875C67.7614 117.458 66.0114 117.25 64.3447 117.25C62.1781 117.25 60.5114 117.625 59.3447 118.375C58.2614 119.125 57.7197 120.25 57.7197 121.75C57.7197 122.833 58.0531 123.833 58.7197 124.75C59.3864 125.583 60.6781 126.542 62.5947 127.625C64.5114 128.625 67.3031 129.917 70.9697 131.5C74.7197 133.083 77.8447 134.75 80.3447 136.5C82.9281 138.167 84.8864 140.292 86.2197 142.875C87.5531 145.375 88.2197 148.667 88.2197 152.75ZM128.79 104.75V173H108.79V104.75H128.79ZM118.915 78C121.832 78 124.332 78.6667 126.415 80C128.498 81.25 129.54 83.625 129.54 87.125C129.54 90.5417 128.498 92.9167 126.415 94.25C124.332 95.5833 121.832 96.25 118.915 96.25C115.915 96.25 113.373 95.5833 111.29 94.25C109.207 92.9167 108.165 90.5417 108.165 87.125C108.165 83.625 109.207 81.25 111.29 80C113.373 78.6667 115.915 78 118.915 78ZM191.777 103.5C198.611 103.5 204.111 105.5 208.277 109.5C212.527 113.417 214.652 119.75 214.652 128.5V173H194.652V133.125C194.652 128.208 193.902 124.542 192.402 122.125C190.986 119.625 188.694 118.375 185.527 118.375C180.694 118.375 177.444 120.333 175.777 124.25C174.111 128.083 173.277 133.625 173.277 140.875V173H153.277V104.75H168.402L171.152 113.5H172.027C173.444 111.167 175.111 109.292 177.027 107.875C179.027 106.375 181.277 105.292 183.777 104.625C186.277 103.875 188.944 103.5 191.777 103.5Z"/>
</mask>
<path d="M88.2197 152.75C88.2197 157.333 87.2197 161.25 85.2197 164.5C83.3031 167.667 80.3447 170.083 76.3447 171.75C72.3447 173.417 67.1781 174.25 60.8447 174.25C56.2614 174.25 52.2614 173.917 48.8447 173.25C45.4281 172.667 41.9697 171.667 38.4697 170.25V154.875C42.3031 156.542 46.2614 157.917 50.3447 159C54.4281 160.083 57.8447 160.625 60.5947 160.625C63.5947 160.625 65.7197 160.083 66.9697 159C68.3031 157.917 68.9697 156.5 68.9697 154.75C68.9697 153.583 68.6364 152.542 67.9697 151.625C67.3031 150.708 65.9697 149.667 63.9697 148.5C61.9697 147.333 59.0114 145.833 55.0947 144C51.2614 142.167 48.0947 140.375 45.5947 138.625C43.1781 136.792 41.3447 134.625 40.0947 132.125C38.9281 129.542 38.3447 126.333 38.3447 122.5C38.3447 116.167 40.7197 111.417 45.4697 108.25C50.3031 105.083 56.6364 103.5 64.4697 103.5C68.6364 103.5 72.5531 103.917 76.2197 104.75C79.8864 105.583 83.6781 106.958 87.5947 108.875L81.9697 122.25C79.8031 121.25 77.6781 120.375 75.5947 119.625C73.5114 118.875 71.5114 118.292 69.5947 117.875C67.7614 117.458 66.0114 117.25 64.3447 117.25C62.1781 117.25 60.5114 117.625 59.3447 118.375C58.2614 119.125 57.7197 120.25 57.7197 121.75C57.7197 122.833 58.0531 123.833 58.7197 124.75C59.3864 125.583 60.6781 126.542 62.5947 127.625C64.5114 128.625 67.3031 129.917 70.9697 131.5C74.7197 133.083 77.8447 134.75 80.3447 136.5C82.9281 138.167 84.8864 140.292 86.2197 142.875C87.5531 145.375 88.2197 148.667 88.2197 152.75ZM128.79 104.75V173H108.79V104.75H128.79ZM118.915 78C121.832 78 124.332 78.6667 126.415 80C128.498 81.25 129.54 83.625 129.54 87.125C129.54 90.5417 128.498 92.9167 126.415 94.25C124.332 95.5833 121.832 96.25 118.915 96.25C115.915 96.25 113.373 95.5833 111.29 94.25C109.207 92.9167 108.165 90.5417 108.165 87.125C108.165 83.625 109.207 81.25 111.29 80C113.373 78.6667 115.915 78 118.915 78ZM191.777 103.5C198.611 103.5 204.111 105.5 208.277 109.5C212.527 113.417 214.652 119.75 214.652 128.5V173H194.652V133.125C194.652 128.208 193.902 124.542 192.402 122.125C190.986 119.625 188.694 118.375 185.527 118.375C180.694 118.375 177.444 120.333 175.777 124.25C174.111 128.083 173.277 133.625 173.277 140.875V173H153.277V104.75H168.402L171.152 113.5H172.027C173.444 111.167 175.111 109.292 177.027 107.875C179.027 106.375 181.277 105.292 183.777 104.625C186.277 103.875 188.944 103.5 191.777 103.5Z" fill="var(--pageColor)"/>
<path d="M85.2197 164.5L74.9998 158.211L74.9766 158.249L74.9537 158.286L85.2197 164.5ZM76.3447 171.75L80.9601 182.827L80.9601 182.827L76.3447 171.75ZM48.8447 173.25L51.1429 161.472L51.0039 161.445L50.8643 161.421L48.8447 173.25ZM38.4697 170.25H26.4697V178.339L33.9674 181.373L38.4697 170.25ZM38.4697 154.875L43.2544 143.87L26.4697 136.572L26.4697 154.875H38.4697ZM50.3447 159L53.4219 147.401L53.4219 147.401L50.3447 159ZM66.9697 159L59.4026 149.687L59.2546 149.807L59.1106 149.932L66.9697 159ZM67.9697 151.625L77.6746 144.567L77.6746 144.567L67.9697 151.625ZM63.9697 148.5L57.9233 158.865L57.9233 158.865L63.9697 148.5ZM55.0947 144L49.9173 154.826L49.9623 154.847L50.0074 154.868L55.0947 144ZM45.5947 138.625L38.3421 148.185L38.525 148.324L38.7132 148.456L45.5947 138.625ZM40.0947 132.125L29.1583 137.064L29.2557 137.28L29.3616 137.492L40.0947 132.125ZM45.4697 108.25L38.8934 98.2125L38.8533 98.2388L38.8133 98.2654L45.4697 108.25ZM76.2197 104.75L73.5603 116.452L73.5603 116.452L76.2197 104.75ZM87.5947 108.875L98.6563 113.527L103.05 103.079L92.8694 98.0964L87.5947 108.875ZM81.9697 122.25L76.941 133.146L88.2169 138.35L93.0313 126.902L81.9697 122.25ZM69.5947 117.875L66.9353 129.577L66.9904 129.589L67.0456 129.601L69.5947 117.875ZM59.3447 118.375L52.8556 108.281L52.683 108.392L52.5142 108.509L59.3447 118.375ZM58.7197 124.75L49.0149 131.808L49.1771 132.031L49.3493 132.246L58.7197 124.75ZM62.5947 127.625L56.69 138.072L56.8654 138.171L57.0439 138.264L62.5947 127.625ZM70.9697 131.5L66.2125 142.517L66.2572 142.536L66.3021 142.555L70.9697 131.5ZM80.3447 136.5L73.4632 146.331L73.6488 146.461L73.8392 146.584L80.3447 136.5ZM86.2197 142.875L75.5563 148.379L75.5934 148.451L75.6315 148.522L86.2197 142.875ZM88.2197 152.75H76.2197C76.2197 155.562 75.621 157.201 74.9998 158.211L85.2197 164.5L95.4396 170.789C98.8185 165.299 100.22 159.105 100.22 152.75H88.2197ZM85.2197 164.5L74.9537 158.286C74.5716 158.918 73.7921 159.814 71.7293 160.673L76.3447 171.75L80.9601 182.827C86.8974 180.353 92.0345 176.416 95.4857 170.714L85.2197 164.5ZM76.3447 171.75L71.7293 160.673C69.7033 161.517 66.2625 162.25 60.8447 162.25V174.25V186.25C68.0936 186.25 74.9861 185.316 80.9601 182.827L76.3447 171.75ZM60.8447 174.25V162.25C56.806 162.25 53.6082 161.953 51.1429 161.472L48.8447 173.25L46.5466 185.028C50.9145 185.88 55.7168 186.25 60.8447 186.25V174.25ZM48.8447 173.25L50.8643 161.421C48.37 160.995 45.7427 160.248 42.972 159.127L38.4697 170.25L33.9674 181.373C38.1967 183.085 42.4861 184.338 46.8252 185.079L48.8447 173.25ZM38.4697 170.25H50.4697V154.875H38.4697H26.4697V170.25H38.4697ZM38.4697 154.875L33.685 165.88C38.0777 167.79 42.6071 169.362 47.2675 170.599L50.3447 159L53.4219 147.401C49.9157 146.471 46.5285 145.294 43.2544 143.87L38.4697 154.875ZM50.3447 159L47.2675 170.599C51.8797 171.822 56.4083 172.625 60.5947 172.625V160.625V148.625C59.2812 148.625 56.9765 148.344 53.4219 147.401L50.3447 159ZM60.5947 160.625V172.625C64.3862 172.625 70.2126 172.069 74.8289 168.068L66.9697 159L59.1106 149.932C60.2786 148.919 61.2928 148.637 61.4744 148.591C61.6615 148.543 61.4338 148.625 60.5947 148.625V160.625ZM66.9697 159L74.5368 168.313C78.7349 164.902 80.9697 160.035 80.9697 154.75H68.9697H56.9697C56.9697 154.068 57.1087 153.085 57.6119 152.015C58.1181 150.94 58.8085 150.169 59.4026 149.687L66.9697 159ZM68.9697 154.75H80.9697C80.9697 151.127 79.879 147.598 77.6746 144.567L67.9697 151.625L58.2649 158.683C57.8735 158.145 57.5279 157.492 57.2906 156.751C57.0545 156.013 56.9697 155.325 56.9697 154.75H68.9697ZM67.9697 151.625L77.6746 144.567C75.4585 141.52 72.2645 139.446 70.0162 138.135L63.9697 148.5L57.9233 158.865C58.2562 159.06 58.5176 159.223 58.7172 159.355C58.9187 159.489 59.0342 159.575 59.082 159.613C59.1332 159.653 59.0761 159.612 58.9492 159.488C58.8832 159.424 58.7892 159.327 58.676 159.198C58.5631 159.07 58.4217 158.899 58.2649 158.683L67.9697 151.625ZM63.9697 148.5L70.0162 138.135C67.5437 136.692 64.1976 135.011 60.182 133.132L55.0947 144L50.0074 154.868C53.8252 156.655 56.3957 157.974 57.9233 158.865L63.9697 148.5ZM55.0947 144L60.2722 133.174C56.8212 131.524 54.2732 130.052 52.4763 128.794L45.5947 138.625L38.7132 148.456C41.9163 150.698 45.7016 152.809 49.9173 154.826L55.0947 144ZM45.5947 138.625L52.8474 129.065C51.7698 128.247 51.1861 127.475 50.8279 126.758L40.0947 132.125L29.3616 137.492C31.5034 141.775 34.5863 145.336 38.3421 148.185L45.5947 138.625ZM40.0947 132.125L51.0312 127.186C50.7664 126.6 50.3447 125.197 50.3447 122.5H38.3447H26.3447C26.3447 127.469 27.0897 132.484 29.1583 137.064L40.0947 132.125ZM38.3447 122.5H50.3447C50.3447 119.662 51.1226 118.904 52.1261 118.235L45.4697 108.25L38.8133 98.2654C30.3169 103.93 26.3447 112.671 26.3447 122.5H38.3447ZM45.4697 108.25L52.046 118.288C54.3439 116.782 58.1646 115.5 64.4697 115.5V103.5V91.5C55.1082 91.5 46.2622 93.3846 38.8934 98.2125L45.4697 108.25ZM64.4697 103.5V115.5C67.8366 115.5 70.8542 115.837 73.5603 116.452L76.2197 104.75L78.8792 93.0484C74.2519 91.9967 69.4362 91.5 64.4697 91.5V103.5ZM76.2197 104.75L73.5603 116.452C76.1924 117.05 79.1075 118.081 82.3201 119.654L87.5947 108.875L92.8694 98.0964C88.2486 95.8352 83.5804 94.1169 78.8792 93.0484L76.2197 104.75ZM87.5947 108.875L76.5332 104.223L70.9082 117.598L81.9697 122.25L93.0313 126.902L98.6563 113.527L87.5947 108.875ZM81.9697 122.25L86.9984 111.354C84.5404 110.22 82.0937 109.211 79.6594 108.334L75.5947 119.625L71.5301 130.916C73.2625 131.539 75.0658 132.28 76.941 133.146L81.9697 122.25ZM75.5947 119.625L79.6594 108.334C77.1429 107.428 74.6353 106.69 72.1439 106.149L69.5947 117.875L67.0456 129.601C68.3875 129.893 69.8799 130.322 71.5301 130.916L75.5947 119.625ZM69.5947 117.875L72.2542 106.173C69.6575 105.583 67.0117 105.25 64.3447 105.25V117.25V129.25C65.0111 129.25 65.8653 129.333 66.9353 129.577L69.5947 117.875ZM64.3447 117.25V105.25C61.067 105.25 56.7611 105.77 52.8556 108.281L59.3447 118.375L65.8338 128.469C64.9985 129.006 64.3339 129.187 64.1039 129.239C63.8785 129.289 63.9235 129.25 64.3447 129.25V117.25ZM59.3447 118.375L52.5142 108.509C47.7062 111.837 45.7197 116.944 45.7197 121.75H57.7197H69.7197C69.7197 122.444 69.5909 123.631 68.938 124.987C68.2572 126.401 67.2439 127.501 66.1752 128.241L59.3447 118.375ZM57.7197 121.75H45.7197C45.7197 125.492 46.9301 128.942 49.0149 131.808L58.7197 124.75L68.4246 117.692C68.7606 118.154 69.1032 118.766 69.3539 119.518C69.6064 120.275 69.7197 121.038 69.7197 121.75H57.7197ZM58.7197 124.75L49.3493 132.246C51.5353 134.979 54.5538 136.864 56.69 138.072L62.5947 127.625L68.4994 117.178C68.1747 116.995 67.9167 116.839 67.7169 116.712C67.5154 116.584 67.3947 116.498 67.3386 116.457C67.2792 116.412 67.3234 116.441 67.4371 116.545C67.4964 116.599 67.5838 116.682 67.6912 116.795C67.7981 116.907 67.9352 117.06 68.0901 117.254L58.7197 124.75ZM62.5947 127.625L57.0439 138.264C59.3522 139.468 62.4609 140.897 66.2125 142.517L70.9697 131.5L75.727 120.483C72.1452 118.937 69.6706 117.782 68.1455 116.986L62.5947 127.625ZM70.9697 131.5L66.3021 142.555C69.5139 143.911 71.8415 145.196 73.4632 146.331L80.3447 136.5L87.2263 126.669C83.8479 124.304 79.9256 122.256 75.6374 120.445L70.9697 131.5ZM80.3447 136.5L73.8392 146.584C74.7653 147.181 75.2407 147.767 75.5563 148.379L86.2197 142.875L96.8832 137.371C94.5321 132.816 91.0908 129.152 86.8502 126.416L80.3447 136.5ZM86.2197 142.875L75.6315 148.522C75.7193 148.687 76.2197 149.825 76.2197 152.75H88.2197H100.22C100.22 147.509 99.3869 142.063 96.808 137.228L86.2197 142.875ZM128.79 104.75H140.79V92.75H128.79V104.75ZM128.79 173V185H140.79V173H128.79ZM108.79 173H96.79V185H108.79V173ZM108.79 104.75V92.75H96.79V104.75H108.79ZM126.415 80L119.946 90.1072L120.092 90.2007L120.241 90.2899L126.415 80ZM126.415 94.25L119.946 84.1427L119.946 84.1427L126.415 94.25ZM111.29 94.25L117.759 84.1427L117.759 84.1427L111.29 94.25ZM111.29 80L117.464 90.2899L117.613 90.2007L117.759 90.1072L111.29 80ZM128.79 104.75H116.79V173H128.79H140.79V104.75H128.79ZM128.79 173V161H108.79V173V185H128.79V173ZM108.79 173H120.79V104.75H108.79H96.79V173H108.79ZM108.79 104.75V116.75H128.79V104.75V92.75H108.79V104.75ZM118.915 78V90C119.46 90 119.763 90.0621 119.886 90.0948C119.995 90.1241 119.994 90.1378 119.946 90.1072L126.415 80L132.884 69.8927C128.545 67.1162 123.707 66 118.915 66V78ZM126.415 80L120.241 90.2899C119.683 89.9549 119.15 89.5137 118.693 88.9837C118.241 88.4595 117.949 87.9478 117.769 87.5387C117.434 86.7746 117.54 86.4866 117.54 87.125H129.54H141.54C141.54 81.4477 139.746 74.0041 132.589 69.7101L126.415 80ZM129.54 87.125H117.54C117.54 87.6755 117.448 87.3812 117.769 86.6488C117.939 86.2628 118.206 85.7964 118.606 85.3219C119.009 84.8436 119.471 84.4469 119.946 84.1427L126.415 94.25L132.884 104.357C139.647 100.028 141.54 92.9139 141.54 87.125H129.54ZM126.415 94.25L119.946 84.1427C119.994 84.1122 119.995 84.1259 119.886 84.1552C119.763 84.1879 119.46 84.25 118.915 84.25V96.25V108.25C123.707 108.25 128.545 107.134 132.884 104.357L126.415 94.25ZM118.915 96.25V84.25C118.3 84.25 117.952 84.1815 117.803 84.1426C117.669 84.1075 117.68 84.0926 117.759 84.1427L111.29 94.25L104.821 104.357C109.212 107.167 114.114 108.25 118.915 108.25V96.25ZM111.29 94.25L117.759 84.1427C118.234 84.4469 118.696 84.8436 119.099 85.3219C119.499 85.7964 119.766 86.2628 119.936 86.6488C120.257 87.3812 120.165 87.6755 120.165 87.125H108.165H96.165C96.165 92.9139 98.0577 100.028 104.821 104.357L111.29 94.25ZM108.165 87.125H120.165C120.165 86.4866 120.271 86.7746 119.936 87.5387C119.756 87.9478 119.464 88.4595 119.012 88.9837C118.555 89.5137 118.022 89.9549 117.464 90.2899L111.29 80L105.116 69.7101C97.9595 74.0041 96.165 81.4477 96.165 87.125H108.165ZM111.29 80L117.759 90.1072C117.68 90.1574 117.669 90.1425 117.803 90.1073C117.952 90.0685 118.3 90 118.915 90V78V66C114.114 66 109.212 67.0828 104.821 69.8927L111.29 80ZM208.277 109.5L199.967 118.157L200.055 118.241L200.145 118.324L208.277 109.5ZM214.652 173V185H226.652V173H214.652ZM194.652 173H182.652V185H194.652V173ZM192.402 122.125L181.962 128.041L182.08 128.25L182.207 128.453L192.402 122.125ZM175.777 124.25L186.782 129.035L186.801 128.992L186.819 128.949L175.777 124.25ZM173.277 173V185H185.277V173H173.277ZM153.277 173H141.277V185H153.277V173ZM153.277 104.75V92.75H141.277V104.75H153.277ZM168.402 104.75L179.85 101.152L177.21 92.75H168.402V104.75ZM171.152 113.5L159.704 117.098L162.345 125.5H171.152V113.5ZM172.027 113.5V125.5H178.78L182.285 119.728L172.027 113.5ZM177.027 107.875L184.16 117.525L184.194 117.5L184.227 117.475L177.027 107.875ZM183.777 104.625L186.869 116.22L187.048 116.172L187.226 116.119L183.777 104.625ZM191.777 103.5V115.5C196.119 115.5 198.437 116.688 199.967 118.157L208.277 109.5L216.588 100.843C209.784 94.3122 201.103 91.5 191.777 91.5V103.5ZM208.277 109.5L200.145 118.324C200.9 119.02 202.652 121.384 202.652 128.5H214.652H226.652C226.652 118.116 224.154 107.813 216.41 100.676L208.277 109.5ZM214.652 128.5H202.652V173H214.652H226.652V128.5H214.652ZM214.652 173V161H194.652V173V185H214.652V173ZM194.652 173H206.652V133.125H194.652H182.652V173H194.652ZM194.652 133.125H206.652C206.652 127.403 205.855 121.043 202.598 115.797L192.402 122.125L182.207 128.453C182.014 128.143 182.158 128.234 182.333 129.092C182.505 129.933 182.652 131.239 182.652 133.125H194.652ZM192.402 122.125L202.843 116.209C199.043 109.504 192.479 106.375 185.527 106.375V118.375V130.375C185.528 130.375 184.83 130.368 183.875 129.847C182.861 129.294 182.242 128.535 181.962 128.041L192.402 122.125ZM185.527 118.375V106.375C181.517 106.375 177.213 107.19 173.272 109.565C169.224 112.005 166.432 115.565 164.735 119.551L175.777 124.25L186.819 128.949C186.825 128.936 186.749 129.116 186.527 129.381C186.296 129.657 185.996 129.919 185.658 130.122C184.966 130.539 184.704 130.375 185.527 130.375V118.375ZM175.777 124.25L164.773 119.465C162.135 125.532 161.277 133.013 161.277 140.875H173.277H185.277C185.277 134.237 186.087 130.635 186.782 129.035L175.777 124.25ZM173.277 140.875H161.277V173H173.277H185.277V140.875H173.277ZM173.277 173V161H153.277V173V185H173.277V173ZM153.277 173H165.277V104.75H153.277H141.277V173H153.277ZM153.277 104.75V116.75H168.402V104.75V92.75H153.277V104.75ZM168.402 104.75L156.954 108.348L159.704 117.098L171.152 113.5L182.6 109.902L179.85 101.152L168.402 104.75ZM171.152 113.5V125.5H172.027V113.5V101.5H171.152V113.5ZM172.027 113.5L182.285 119.728C183.009 118.535 183.666 117.89 184.16 117.525L177.027 107.875L169.895 98.2249C166.555 100.693 163.879 103.798 161.77 107.272L172.027 113.5ZM177.027 107.875L184.227 117.475C184.955 116.929 185.801 116.505 186.869 116.22L183.777 104.625L180.685 93.0302C176.754 94.0786 173.099 95.821 169.827 98.275L177.027 107.875ZM183.777 104.625L187.226 116.119C188.516 115.732 190.013 115.5 191.777 115.5V103.5V91.5C187.875 91.5 184.039 92.0181 180.329 93.1311L183.777 104.625Z" fill="var(--pageColor)" mask="url(#path-2-outside-1_32_466)"/>
<path d="M88.2197 152.75C88.2197 157.333 87.2197 161.25 85.2197 164.5C83.3031 167.667 80.3447 170.083 76.3447 171.75C72.3447 173.417 67.1781 174.25 60.8447 174.25C56.2614 174.25 52.2614 173.917 48.8447 173.25C45.4281 172.667 41.9697 171.667 38.4697 170.25V154.875C42.3031 156.542 46.2614 157.917 50.3447 159C54.4281 160.083 57.8447 160.625 60.5947 160.625C63.5947 160.625 65.7197 160.083 66.9697 159C68.3031 157.917 68.9697 156.5 68.9697 154.75C68.9697 153.583 68.6364 152.542 67.9697 151.625C67.3031 150.708 65.9697 149.667 63.9697 148.5C61.9697 147.333 59.0114 145.833 55.0947 144C51.2614 142.167 48.0947 140.375 45.5947 138.625C43.1781 136.792 41.3447 134.625 40.0947 132.125C38.9281 129.542 38.3447 126.333 38.3447 122.5C38.3447 116.167 40.7197 111.417 45.4697 108.25C50.3031 105.083 56.6364 103.5 64.4697 103.5C68.6364 103.5 72.5531 103.917 76.2197 104.75C79.8864 105.583 83.6781 106.958 87.5947 108.875L81.9697 122.25C79.8031 121.25 77.6781 120.375 75.5947 119.625C73.5114 118.875 71.5114 118.292 69.5947 117.875C67.7614 117.458 66.0114 117.25 64.3447 117.25C62.1781 117.25 60.5114 117.625 59.3447 118.375C58.2614 119.125 57.7197 120.25 57.7197 121.75C57.7197 122.833 58.0531 123.833 58.7197 124.75C59.3864 125.583 60.6781 126.542 62.5947 127.625C64.5114 128.625 67.3031 129.917 70.9697 131.5C74.7197 133.083 77.8447 134.75 80.3447 136.5C82.9281 138.167 84.8864 140.292 86.2197 142.875C87.5531 145.375 88.2197 148.667 88.2197 152.75ZM128.79 104.75V173H108.79V104.75H128.79ZM118.915 78C121.832 78 124.332 78.6667 126.415 80C128.498 81.25 129.54 83.625 129.54 87.125C129.54 90.5417 128.498 92.9167 126.415 94.25C124.332 95.5833 121.832 96.25 118.915 96.25C115.915 96.25 113.373 95.5833 111.29 94.25C109.207 92.9167 108.165 90.5417 108.165 87.125C108.165 83.625 109.207 81.25 111.29 80C113.373 78.6667 115.915 78 118.915 78ZM191.777 103.5C198.611 103.5 204.111 105.5 208.277 109.5C212.527 113.417 214.652 119.75 214.652 128.5V173H194.652V133.125C194.652 128.208 193.902 124.542 192.402 122.125C190.986 119.625 188.694 118.375 185.527 118.375C180.694 118.375 177.444 120.333 175.777 124.25C174.111 128.083 173.277 133.625 173.277 140.875V173H153.277V104.75H168.402L171.152 113.5H172.027C173.444 111.167 175.111 109.292 177.027 107.875C179.027 106.375 181.277 105.292 183.777 104.625C186.277 103.875 188.944 103.5 191.777 103.5Z" fill="var(--darkGray)"/>
</g>
</svg>
