<svg viewBox="0 0 256 256" fill="none" xmlns="http://www.w3.org/2000/svg">
<mask id="mask0_32_492" style="mask-type:alpha" maskUnits="userSpaceOnUse" x="0" y="0" width="256" height="256">
<rect width="256" height="256" fill="var(--gray)"/>
</mask>
<g mask="url(#mask0_32_492)">
<mask id="path-2-outside-1_32_492" maskUnits="userSpaceOnUse" x="10" y="78" width="231" height="109" fill="black">
<rect fill="var(--pageColor)" x="10" y="78" width="231" height="109"/>
<path d="M57.0566 159.375C59.0566 159.375 60.89 159.167 62.5566 158.75C64.3066 158.333 66.0983 157.833 67.9316 157.25V171.125C65.8483 171.958 63.39 172.667 60.5566 173.25C57.8066 173.917 54.5566 174.25 50.8066 174.25C46.8066 174.25 43.2233 173.583 40.0566 172.25C36.9733 170.917 34.5566 168.625 32.8066 165.375C31.0566 162.042 30.1816 157.458 30.1816 151.625V118.75H22.0566V110.875L31.8066 104.625L37.3066 90.25H50.1816V104.75H67.1816V118.75H50.1816V151.625C50.1816 154.208 50.8066 156.167 52.0566 157.5C53.3066 158.75 54.9733 159.375 57.0566 159.375ZM116.672 103.375C125.089 103.375 131.589 105.375 136.172 109.375C140.839 113.292 143.172 119.333 143.172 127.5V173H129.297L125.422 163.75H124.922C123.089 166.167 121.214 168.167 119.297 169.75C117.38 171.333 115.172 172.458 112.672 173.125C110.172 173.875 107.13 174.25 103.547 174.25C99.7969 174.25 96.4219 173.5 93.4219 172C90.5052 170.417 88.1719 168.042 86.4219 164.875C84.6719 161.625 83.7969 157.542 83.7969 152.625C83.7969 145.375 86.1719 140.042 90.9219 136.625C95.7552 133.125 102.839 131.208 112.172 130.875L123.172 130.5V127.5C123.172 123.917 122.38 121.292 120.797 119.625C119.214 117.958 117.047 117.125 114.297 117.125C111.464 117.125 108.505 117.625 105.422 118.625C102.339 119.542 99.2552 120.708 96.1719 122.125L90.0469 109.5C93.7135 107.583 97.7552 106.083 102.172 105C106.672 103.917 111.505 103.375 116.672 103.375ZM117.422 141.625C112.505 141.792 109.047 142.875 107.047 144.875C105.13 146.875 104.172 149.5 104.172 152.75C104.172 155.583 104.839 157.625 106.172 158.875C107.589 160.042 109.422 160.625 111.672 160.625C114.839 160.625 117.547 159.458 119.797 157.125C122.13 154.708 123.297 151.333 123.297 147V141.375L117.422 141.625ZM205.815 103.5C212.649 103.5 218.149 105.5 222.315 109.5C226.565 113.417 228.69 119.75 228.69 128.5V173H208.69V133.125C208.69 128.208 207.94 124.542 206.44 122.125C205.024 119.625 202.732 118.375 199.565 118.375C194.732 118.375 191.482 120.333 189.815 124.25C188.149 128.083 187.315 133.625 187.315 140.875V173H167.315V104.75H182.44L185.19 113.5H186.065C187.482 111.167 189.149 109.292 191.065 107.875C193.065 106.375 195.315 105.292 197.815 104.625C200.315 103.875 202.982 103.5 205.815 103.5Z"/>
</mask>
<path d="M57.0566 159.375C59.0566 159.375 60.89 159.167 62.5566 158.75C64.3066 158.333 66.0983 157.833 67.9316 157.25V171.125C65.8483 171.958 63.39 172.667 60.5566 173.25C57.8066 173.917 54.5566 174.25 50.8066 174.25C46.8066 174.25 43.2233 173.583 40.0566 172.25C36.9733 170.917 34.5566 168.625 32.8066 165.375C31.0566 162.042 30.1816 157.458 30.1816 151.625V118.75H22.0566V110.875L31.8066 104.625L37.3066 90.25H50.1816V104.75H67.1816V118.75H50.1816V151.625C50.1816 154.208 50.8066 156.167 52.0566 157.5C53.3066 158.75 54.9733 159.375 57.0566 159.375ZM116.672 103.375C125.089 103.375 131.589 105.375 136.172 109.375C140.839 113.292 143.172 119.333 143.172 127.5V173H129.297L125.422 163.75H124.922C123.089 166.167 121.214 168.167 119.297 169.75C117.38 171.333 115.172 172.458 112.672 173.125C110.172 173.875 107.13 174.25 103.547 174.25C99.7969 174.25 96.4219 173.5 93.4219 172C90.5052 170.417 88.1719 168.042 86.4219 164.875C84.6719 161.625 83.7969 157.542 83.7969 152.625C83.7969 145.375 86.1719 140.042 90.9219 136.625C95.7552 133.125 102.839 131.208 112.172 130.875L123.172 130.5V127.5C123.172 123.917 122.38 121.292 120.797 119.625C119.214 117.958 117.047 117.125 114.297 117.125C111.464 117.125 108.505 117.625 105.422 118.625C102.339 119.542 99.2552 120.708 96.1719 122.125L90.0469 109.5C93.7135 107.583 97.7552 106.083 102.172 105C106.672 103.917 111.505 103.375 116.672 103.375ZM117.422 141.625C112.505 141.792 109.047 142.875 107.047 144.875C105.13 146.875 104.172 149.5 104.172 152.75C104.172 155.583 104.839 157.625 106.172 158.875C107.589 160.042 109.422 160.625 111.672 160.625C114.839 160.625 117.547 159.458 119.797 157.125C122.13 154.708 123.297 151.333 123.297 147V141.375L117.422 141.625ZM205.815 103.5C212.649 103.5 218.149 105.5 222.315 109.5C226.565 113.417 228.69 119.75 228.69 128.5V173H208.69V133.125C208.69 128.208 207.94 124.542 206.44 122.125C205.024 119.625 202.732 118.375 199.565 118.375C194.732 118.375 191.482 120.333 189.815 124.25C188.149 128.083 187.315 133.625 187.315 140.875V173H167.315V104.75H182.44L185.19 113.5H186.065C187.482 111.167 189.149 109.292 191.065 107.875C193.065 106.375 195.315 105.292 197.815 104.625C200.315 103.875 202.982 103.5 205.815 103.5Z" fill="var(--pageColor)"/>
<path d="M62.5566 158.75L59.7772 147.076L59.7116 147.092L59.6462 147.108L62.5566 158.75ZM67.9316 157.25H79.9316V140.839L64.2932 145.815L67.9316 157.25ZM67.9316 171.125L72.3883 182.267L79.9316 179.249V171.125H67.9316ZM60.5566 173.25L58.1368 161.497L57.9323 161.539L57.7294 161.588L60.5566 173.25ZM40.0566 172.25L35.2937 183.264L35.3467 183.287L35.4 183.31L40.0566 172.25ZM32.8066 165.375L22.1819 170.953L22.2111 171.009L22.241 171.064L32.8066 165.375ZM30.1816 118.75H42.1816V106.75H30.1816V118.75ZM22.0566 118.75H10.0566V130.75H22.0566V118.75ZM22.0566 110.875L15.5806 100.772L10.0566 104.313V110.875H22.0566ZM31.8066 104.625L38.2826 114.728L41.6044 112.598L43.0143 108.913L31.8066 104.625ZM37.3066 90.25V78.25H29.0496L26.099 85.9618L37.3066 90.25ZM50.1816 90.25H62.1816V78.25H50.1816V90.25ZM50.1816 104.75H38.1816V116.75H50.1816V104.75ZM67.1816 104.75H79.1816V92.75H67.1816V104.75ZM67.1816 118.75V130.75H79.1816V118.75H67.1816ZM50.1816 118.75V106.75H38.1816V118.75H50.1816ZM52.0566 157.5L43.3022 165.707L43.4345 165.848L43.5714 165.985L52.0566 157.5ZM57.0566 159.375V171.375C59.8815 171.375 62.7081 171.081 65.4671 170.392L62.5566 158.75L59.6462 147.108C59.0719 147.252 58.2318 147.375 57.0566 147.375V159.375ZM62.5566 158.75L65.3361 170.424C67.3944 169.934 69.4728 169.352 71.5701 168.685L67.9316 157.25L64.2932 145.815C62.7238 146.314 61.2189 146.733 59.7772 147.076L62.5566 158.75ZM67.9316 157.25H55.9316V171.125H67.9316H79.9316V157.25H67.9316ZM67.9316 171.125L63.475 159.983C62.2082 160.49 60.4624 161.018 58.1368 161.497L60.5566 173.25L62.9765 185.003C66.3175 184.316 69.4885 183.427 72.3883 182.267L67.9316 171.125ZM60.5566 173.25L57.7294 161.588C56.1485 161.971 53.8923 162.25 50.8066 162.25V174.25V186.25C55.221 186.25 59.4648 185.862 63.3838 184.912L60.5566 173.25ZM50.8066 174.25V162.25C48.1465 162.25 46.1843 161.81 44.7133 161.19L40.0566 172.25L35.4 183.31C40.2624 185.357 45.4668 186.25 50.8066 186.25V174.25ZM40.0566 172.25L44.8196 161.236C44.4627 161.081 43.9766 160.808 43.3723 159.686L32.8066 165.375L22.241 171.064C25.1367 176.442 29.4839 180.752 35.2937 183.264L40.0566 172.25ZM32.8066 165.375L43.4314 159.797C42.9474 158.875 42.1816 156.484 42.1816 151.625H30.1816H18.1816C18.1816 158.433 19.1659 165.208 22.1819 170.953L32.8066 165.375ZM30.1816 151.625H42.1816V118.75H30.1816H18.1816V151.625H30.1816ZM30.1816 118.75V106.75H22.0566V118.75V130.75H30.1816V118.75ZM22.0566 118.75H34.0566V110.875H22.0566H10.0566V118.75H22.0566ZM22.0566 110.875L28.5326 120.978L38.2826 114.728L31.8066 104.625L25.3306 94.5224L15.5806 100.772L22.0566 110.875ZM31.8066 104.625L43.0143 108.913L48.5143 94.5381L37.3066 90.25L26.099 85.9618L20.599 100.337L31.8066 104.625ZM37.3066 90.25V102.25H50.1816V90.25V78.25H37.3066V90.25ZM50.1816 90.25H38.1816V104.75H50.1816H62.1816V90.25H50.1816ZM50.1816 104.75V116.75H67.1816V104.75V92.75H50.1816V104.75ZM67.1816 104.75H55.1816V118.75H67.1816H79.1816V104.75H67.1816ZM67.1816 118.75V106.75H50.1816V118.75V130.75H67.1816V118.75ZM50.1816 118.75H38.1816V151.625H50.1816H62.1816V118.75H50.1816ZM50.1816 151.625H38.1816C38.1816 155.995 39.2397 161.374 43.3022 165.707L52.0566 157.5L60.8111 149.293C62.3736 150.959 62.1816 152.422 62.1816 151.625H50.1816ZM52.0566 157.5L43.5714 165.985C47.4702 169.884 52.4022 171.375 57.0566 171.375V159.375V147.375C57.2133 147.375 57.7354 147.399 58.4576 147.67C59.2168 147.955 59.947 148.42 60.5419 149.015L52.0566 157.5ZM136.172 109.375L128.281 118.416L128.369 118.492L128.457 118.567L136.172 109.375ZM143.172 173V185H155.172V173H143.172ZM129.297 173L118.229 177.637L121.313 185H129.297V173ZM125.422 163.75L136.49 159.113L133.405 151.75H125.422V163.75ZM124.922 163.75V151.75H118.963L115.362 156.497L124.922 163.75ZM119.297 169.75L126.939 179.002L126.939 179.002L119.297 169.75ZM112.672 173.125L109.58 161.53L109.401 161.578L109.224 161.631L112.672 173.125ZM93.4219 172L87.6968 182.546L87.8745 182.643L88.0553 182.733L93.4219 172ZM86.4219 164.875L75.8562 170.564L75.8873 170.622L75.919 170.679L86.4219 164.875ZM90.9219 136.625L97.929 146.367L97.9445 146.356L97.96 146.344L90.9219 136.625ZM112.172 130.875L111.763 118.882L111.753 118.882L111.744 118.883L112.172 130.875ZM123.172 130.5L123.581 142.493L135.172 142.098V130.5H123.172ZM120.797 119.625L112.097 127.89L112.097 127.89L120.797 119.625ZM105.422 118.625L108.842 130.127L108.983 130.085L109.124 130.04L105.422 118.625ZM96.1719 122.125L85.3754 127.363L90.5044 137.935L101.182 133.029L96.1719 122.125ZM90.0469 109.5L84.4878 98.8653L74.1671 104.26L79.2504 114.738L90.0469 109.5ZM102.172 105L99.3632 93.3333L99.3382 93.3393L99.3132 93.3455L102.172 105ZM117.422 141.625L117.828 153.618L117.88 153.616L117.932 153.614L117.422 141.625ZM107.047 144.875L98.5616 136.39L98.4713 136.48L98.383 136.572L107.047 144.875ZM106.172 158.875L97.9646 167.629L98.2458 167.893L98.5434 168.138L106.172 158.875ZM119.797 157.125L111.164 148.79L111.159 148.795L119.797 157.125ZM123.297 141.375H135.297V128.853L122.787 129.386L123.297 141.375ZM116.672 103.375V115.375C123.299 115.375 126.597 116.946 128.281 118.416L136.172 109.375L144.062 100.334C136.58 93.8038 126.878 91.375 116.672 91.375V103.375ZM136.172 109.375L128.457 118.567C129.559 119.491 131.172 121.599 131.172 127.5H143.172H155.172C155.172 117.068 152.118 107.092 143.886 100.183L136.172 109.375ZM143.172 127.5H131.172V173H143.172H155.172V127.5H143.172ZM143.172 173V161H129.297V173V185H143.172V173ZM129.297 173L140.365 168.363L136.49 159.113L125.422 163.75L114.354 168.387L118.229 177.637L129.297 173ZM125.422 163.75V151.75H124.922V163.75V175.75H125.422V163.75ZM124.922 163.75L115.362 156.497C113.97 158.331 112.721 159.617 111.654 160.498L119.297 169.75L126.939 179.002C129.706 176.716 132.207 174.002 134.482 171.003L124.922 163.75ZM119.297 169.75L111.654 160.498C111.123 160.938 110.482 161.29 109.58 161.53L112.672 173.125L115.764 184.72C119.862 183.627 123.638 181.729 126.939 179.002L119.297 169.75ZM112.672 173.125L109.224 161.631C108.171 161.947 106.364 162.25 103.547 162.25V174.25V186.25C107.896 186.25 112.172 185.803 116.12 184.619L112.672 173.125ZM103.547 174.25V162.25C101.438 162.25 99.9341 161.84 98.7884 161.267L93.4219 172L88.0553 182.733C92.9096 185.16 98.1562 186.25 103.547 186.25V174.25ZM93.4219 172L99.147 161.454C98.4234 161.061 97.6711 160.421 96.9248 159.071L86.4219 164.875L75.919 170.679C78.6727 175.662 82.587 179.772 87.6968 182.546L93.4219 172ZM86.4219 164.875L96.9875 159.186C96.4397 158.168 95.7969 156.19 95.7969 152.625H83.7969H71.7969C71.7969 158.894 72.9041 165.082 75.8562 170.564L86.4219 164.875ZM83.7969 152.625H95.7969C95.7969 148.202 97.0687 146.985 97.929 146.367L90.9219 136.625L83.9147 126.883C75.275 133.098 71.7969 142.548 71.7969 152.625H83.7969ZM90.9219 136.625L97.96 146.344C100.058 144.825 104.405 143.16 112.6 142.867L112.172 130.875L111.744 118.883C101.272 119.257 91.4527 121.425 83.8838 126.906L90.9219 136.625ZM112.172 130.875L112.581 142.868L123.581 142.493L123.172 130.5L122.763 118.507L111.763 118.882L112.172 130.875ZM123.172 130.5H135.172V127.5H123.172H111.172V130.5H123.172ZM123.172 127.5H135.172C135.172 122.5 134.117 116.224 129.497 111.36L120.797 119.625L112.097 127.89C111.37 127.125 111.132 126.449 111.089 126.309C111.071 126.247 111.093 126.303 111.12 126.51C111.146 126.717 111.172 127.04 111.172 127.5H123.172ZM120.797 119.625L129.497 111.36C125.209 106.846 119.639 105.125 114.297 105.125V117.125V129.125C114.465 129.125 114.196 129.15 113.677 128.95C113.113 128.733 112.545 128.362 112.097 127.89L120.797 119.625ZM114.297 117.125V105.125C110.04 105.125 105.83 105.877 101.72 107.21L105.422 118.625L109.124 130.04C111.181 129.373 112.887 129.125 114.297 129.125V117.125ZM105.422 118.625L102.002 107.123C98.3466 108.209 94.7325 109.58 91.1619 111.221L96.1719 122.125L101.182 133.029C103.778 131.836 106.331 130.874 108.842 130.127L105.422 118.625ZM96.1719 122.125L106.968 116.887L100.843 104.262L90.0469 109.5L79.2504 114.738L85.3754 127.363L96.1719 122.125ZM90.0469 109.5L95.6059 120.135C98.337 118.707 101.46 117.53 105.031 116.655L102.172 105L99.3132 93.3455C94.0503 94.6364 89.0901 96.4596 84.4878 98.8653L90.0469 109.5ZM102.172 105L104.981 116.667C108.461 115.829 112.343 115.375 116.672 115.375V103.375V91.375C110.667 91.375 104.882 92.0046 99.3632 93.3333L102.172 105ZM117.422 141.625L117.015 129.632C111.123 129.832 103.827 131.124 98.5616 136.39L107.047 144.875L115.532 153.36C114.832 154.061 114.341 154.135 114.728 154.014C115.133 153.887 116.093 153.677 117.828 153.618L117.422 141.625ZM107.047 144.875L98.383 136.572C93.9587 141.189 92.1719 146.98 92.1719 152.75H104.172H116.172C116.172 152.304 116.237 152.257 116.163 152.459C116.127 152.558 116.068 152.686 115.98 152.827C115.893 152.969 115.798 153.087 115.711 153.178L107.047 144.875ZM104.172 152.75H92.1719C92.1719 157.103 93.1549 163.12 97.9646 167.629L106.172 158.875L114.379 150.121C115.424 151.1 115.896 152.12 116.079 152.681C116.241 153.177 116.172 153.281 116.172 152.75H104.172ZM106.172 158.875L98.5434 168.138C102.562 171.448 107.289 172.625 111.672 172.625V160.625V148.625C111.577 148.625 111.808 148.612 112.248 148.752C112.716 148.901 113.273 149.177 113.8 149.612L106.172 158.875ZM111.672 160.625V172.625C118.182 172.625 123.984 170.071 128.435 165.455L119.797 157.125L111.159 148.795C111.086 148.871 111.065 148.88 111.103 148.853C111.144 148.824 111.221 148.776 111.331 148.729C111.44 148.682 111.543 148.652 111.624 148.636C111.702 148.621 111.723 148.625 111.672 148.625V160.625ZM119.797 157.125L128.43 165.46C133.497 160.212 135.297 153.506 135.297 147H123.297H111.297C111.297 148.108 111.146 148.671 111.08 148.861C111.031 149.003 111.042 148.917 111.164 148.79L119.797 157.125ZM123.297 147H135.297V141.375H123.297H111.297V147H123.297ZM123.297 141.375L122.787 129.386L116.912 129.636L117.422 141.625L117.932 153.614L123.807 153.364L123.297 141.375ZM222.315 109.5L214.005 118.157L214.093 118.241L214.183 118.324L222.315 109.5ZM228.69 173V185H240.69V173H228.69ZM208.69 173H196.69V185H208.69V173ZM206.44 122.125L196 128.041L196.118 128.25L196.245 128.453L206.44 122.125ZM189.815 124.25L200.82 129.035L200.839 128.992L200.857 128.949L189.815 124.25ZM187.315 173V185H199.315V173H187.315ZM167.315 173H155.315V185H167.315V173ZM167.315 104.75V92.75H155.315V104.75H167.315ZM182.44 104.75L193.888 101.152L191.248 92.75H182.44V104.75ZM185.19 113.5L173.743 117.098L176.383 125.5H185.19V113.5ZM186.065 113.5V125.5H192.818L196.323 119.728L186.065 113.5ZM191.065 107.875L198.198 117.525L198.232 117.5L198.265 117.475L191.065 107.875ZM197.815 104.625L200.907 116.22L201.086 116.172L201.264 116.119L197.815 104.625ZM205.815 103.5V115.5C210.157 115.5 212.475 116.688 214.005 118.157L222.315 109.5L230.626 100.843C223.822 94.3122 215.141 91.5 205.815 91.5V103.5ZM222.315 109.5L214.183 118.324C214.938 119.02 216.69 121.384 216.69 128.5H228.69H240.69C240.69 118.116 238.193 107.813 230.448 100.676L222.315 109.5ZM228.69 128.5H216.69V173H228.69H240.69V128.5H228.69ZM228.69 173V161H208.69V173V185H228.69V173ZM208.69 173H220.69V133.125H208.69H196.69V173H208.69ZM208.69 133.125H220.69C220.69 127.403 219.893 121.043 216.636 115.797L206.44 122.125L196.245 128.453C196.052 128.143 196.196 128.234 196.371 129.092C196.543 129.933 196.69 131.239 196.69 133.125H208.69ZM206.44 122.125L216.881 116.209C213.082 109.504 206.518 106.375 199.565 106.375V118.375V130.375C199.566 130.375 198.868 130.368 197.913 129.847C196.899 129.294 196.28 128.535 196 128.041L206.44 122.125ZM199.565 118.375V106.375C195.555 106.375 191.251 107.19 187.31 109.565C183.262 112.005 180.47 115.565 178.774 119.551L189.815 124.25L200.857 128.949C200.863 128.936 200.787 129.116 200.565 129.381C200.334 129.657 200.034 129.919 199.696 130.122C199.005 130.539 198.742 130.375 199.565 130.375V118.375ZM189.815 124.25L178.811 119.465C176.173 125.532 175.315 133.013 175.315 140.875H187.315H199.315C199.315 134.237 200.125 130.635 200.82 129.035L189.815 124.25ZM187.315 140.875H175.315V173H187.315H199.315V140.875H187.315ZM187.315 173V161H167.315V173V185H187.315V173ZM167.315 173H179.315V104.75H167.315H155.315V173H167.315ZM167.315 104.75V116.75H182.44V104.75V92.75H167.315V104.75ZM182.44 104.75L170.993 108.348L173.743 117.098L185.19 113.5L196.638 109.902L193.888 101.152L182.44 104.75ZM185.19 113.5V125.5H186.065V113.5V101.5H185.19V113.5ZM186.065 113.5L196.323 119.728C197.047 118.535 197.704 117.89 198.198 117.525L191.065 107.875L183.933 98.2249C180.593 100.693 177.917 103.798 175.808 107.272L186.065 113.5ZM191.065 107.875L198.265 117.475C198.993 116.929 199.839 116.505 200.907 116.22L197.815 104.625L194.723 93.0302C190.792 94.0786 187.137 95.821 183.865 98.275L191.065 107.875ZM197.815 104.625L201.264 116.119C202.554 115.732 204.051 115.5 205.815 115.5V103.5V91.5C201.914 91.5 198.077 92.0181 194.367 93.1311L197.815 104.625Z" fill="var(--pageColor)" mask="url(#path-2-outside-1_32_492)"/>
<path d="M57.0566 159.375C59.0566 159.375 60.89 159.167 62.5566 158.75C64.3066 158.333 66.0983 157.833 67.9316 157.25V171.125C65.8483 171.958 63.39 172.667 60.5566 173.25C57.8066 173.917 54.5566 174.25 50.8066 174.25C46.8066 174.25 43.2233 173.583 40.0566 172.25C36.9733 170.917 34.5566 168.625 32.8066 165.375C31.0566 162.042 30.1816 157.458 30.1816 151.625V118.75H22.0566V110.875L31.8066 104.625L37.3066 90.25H50.1816V104.75H67.1816V118.75H50.1816V151.625C50.1816 154.208 50.8066 156.167 52.0566 157.5C53.3066 158.75 54.9733 159.375 57.0566 159.375ZM116.672 103.375C125.089 103.375 131.589 105.375 136.172 109.375C140.839 113.292 143.172 119.333 143.172 127.5V173H129.297L125.422 163.75H124.922C123.089 166.167 121.214 168.167 119.297 169.75C117.38 171.333 115.172 172.458 112.672 173.125C110.172 173.875 107.13 174.25 103.547 174.25C99.7969 174.25 96.4219 173.5 93.4219 172C90.5052 170.417 88.1719 168.042 86.4219 164.875C84.6719 161.625 83.7969 157.542 83.7969 152.625C83.7969 145.375 86.1719 140.042 90.9219 136.625C95.7552 133.125 102.839 131.208 112.172 130.875L123.172 130.5V127.5C123.172 123.917 122.38 121.292 120.797 119.625C119.214 117.958 117.047 117.125 114.297 117.125C111.464 117.125 108.505 117.625 105.422 118.625C102.339 119.542 99.2552 120.708 96.1719 122.125L90.0469 109.5C93.7135 107.583 97.7552 106.083 102.172 105C106.672 103.917 111.505 103.375 116.672 103.375ZM117.422 141.625C112.505 141.792 109.047 142.875 107.047 144.875C105.13 146.875 104.172 149.5 104.172 152.75C104.172 155.583 104.839 157.625 106.172 158.875C107.589 160.042 109.422 160.625 111.672 160.625C114.839 160.625 117.547 159.458 119.797 157.125C122.13 154.708 123.297 151.333 123.297 147V141.375L117.422 141.625ZM205.815 103.5C212.649 103.5 218.149 105.5 222.315 109.5C226.565 113.417 228.69 119.75 228.69 128.5V173H208.69V133.125C208.69 128.208 207.94 124.542 206.44 122.125C205.024 119.625 202.732 118.375 199.565 118.375C194.732 118.375 191.482 120.333 189.815 124.25C188.149 128.083 187.315 133.625 187.315 140.875V173H167.315V104.75H182.44L185.19 113.5H186.065C187.482 111.167 189.149 109.292 191.065 107.875C193.065 106.375 195.315 105.292 197.815 104.625C200.315 103.875 202.982 103.5 205.815 103.5Z" fill="var(--darkGray)"/>
</g>
</svg>
