<svg width="3001" height="2001" viewBox="0 0 3001 2001" fill="none" xmlns="http://www.w3.org/2000/svg">
<mask id="mask0_149_3" style="mask-type:alpha" maskUnits="userSpaceOnUse" x="0" y="0" width="3001" height="2001">
<rect x="0.984863" y="0.00390625" width="3000" height="2000" fill="#D9D9D9"/>
</mask>
<g mask="url(#mask0_149_3)">
<path d="M-172.185 1133.73C-306.462 1087.5 -377.837 941.161 -331.599 806.877C-285.361 672.592 -139.022 601.218 -4.74527 647.454C129.532 693.689 200.906 840.027 154.668 974.312C108.43 1108.6 -37.9081 1179.97 -172.185 1133.73ZM255.639 422.231L93.5497 366.419C-40.7274 320.184 -112.102 173.846 -65.8636 39.5611C-19.6257 -94.7235 126.713 -166.097 260.99 -119.862C395.267 -73.6267 466.641 72.7116 420.403 206.996L364.59 369.089C349.177 413.852 300.397 437.642 255.639 422.231ZM602.357 858.87L764.446 914.681C898.724 960.917 970.098 1107.25 923.86 1241.54C877.622 1375.82 731.283 1447.2 597.006 1400.96C462.729 1354.73 391.355 1208.39 437.593 1074.1L493.406 912.012C508.819 867.249 557.6 843.458 602.357 858.87ZM1029.55 144.773C1163.82 191.009 1235.2 337.347 1188.96 471.632C1142.72 605.916 996.384 677.29 862.107 631.055C727.83 584.819 656.456 438.481 702.694 304.197C748.931 169.912 895.27 98.5381 1029.55 144.773Z" stroke="#0084FF" stroke-opacity="0.25" stroke-width="171.429"/>
<path d="M3173.82 1853.73C3308.09 1807.5 3379.47 1661.16 3333.23 1526.88C3286.99 1392.59 3140.65 1321.22 3006.38 1367.45C2872.1 1413.69 2800.72 1560.03 2846.96 1694.31C2893.2 1828.6 3039.54 1899.97 3173.82 1853.73ZM2745.99 1142.23L2908.08 1086.42C3042.36 1040.18 3113.73 893.846 3067.49 759.561C3021.26 625.276 2874.92 553.903 2740.64 600.138C2606.36 646.373 2534.99 792.712 2581.23 926.996L2637.04 1089.09C2652.45 1133.85 2701.23 1157.64 2745.99 1142.23ZM2399.27 1578.87L2237.18 1634.68C2102.91 1680.92 2031.53 1827.25 2077.77 1961.54C2124.01 2095.82 2270.35 2167.2 2404.62 2120.96C2538.9 2074.73 2610.28 1928.39 2564.04 1794.1L2508.22 1632.01C2492.81 1587.25 2444.03 1563.46 2399.27 1578.87ZM1972.08 864.773C1837.81 911.009 1766.43 1057.35 1812.67 1191.63C1858.91 1325.92 2005.25 1397.29 2139.52 1351.05C2273.8 1304.82 2345.17 1158.48 2298.94 1024.2C2252.7 889.912 2106.36 818.538 1972.08 864.773Z" stroke="#0084FF" stroke-opacity="0.25" stroke-width="171.429"/>
</g>
</svg>
