<svg viewBox="0 0 256 256" fill="none" xmlns="http://www.w3.org/2000/svg">
<mask id="mask0_54_549" style="mask-type:alpha" maskUnits="userSpaceOnUse" x="0" y="0" width="256" height="256">
<rect width="256" height="256" fill="var(--gray)"/>
</mask>
<g mask="url(#mask0_54_549)">
<mask id="path-2-outside-1_54_549" maskUnits="userSpaceOnUse" x="112" y="89" width="124" height="102" fill="black">
<rect fill="var(--pageColor)" x="112" y="89" width="124" height="102"/>
<path d="M158.638 139.382L135.492 101.468H161.336L173.974 126.176L186.896 101.468H212.598L189.168 139.382L213.592 179H187.89L173.974 152.446L160.058 179H134.356L158.638 139.382Z"/>
</mask>
<path d="M158.638 139.382L135.492 101.468H161.336L173.974 126.176L186.896 101.468H212.598L189.168 139.382L213.592 179H187.89L173.974 152.446L160.058 179H134.356L158.638 139.382Z" fill="var(--pageColor)"/>
<path d="M158.638 139.382L168.87 145.653L172.705 139.394L168.881 133.129L158.638 139.382ZM135.492 101.468V89.468H114.107L125.25 107.721L135.492 101.468ZM161.336 101.468L172.02 96.0034L168.677 89.468H161.336V101.468ZM173.974 126.176L163.291 131.641L173.856 152.296L184.608 131.737L173.974 126.176ZM186.896 101.468V89.468H179.63L176.263 95.9068L186.896 101.468ZM212.598 101.468L222.807 107.776L234.121 89.468H212.598V101.468ZM189.168 139.382L178.96 133.074L175.067 139.374L178.954 145.679L189.168 139.382ZM213.592 179V191H235.087L223.807 172.703L213.592 179ZM187.89 179L177.262 184.57L180.631 191H187.89V179ZM173.974 152.446L184.603 146.876L173.974 126.594L163.346 146.876L173.974 152.446ZM160.058 179V191H167.318L170.687 184.57L160.058 179ZM134.356 179L124.125 172.729L112.927 191H134.356V179ZM158.638 139.382L168.881 133.129L145.735 95.2153L135.492 101.468L125.25 107.721L148.396 145.635L158.638 139.382ZM135.492 101.468V113.468H161.336V101.468V89.468H135.492V101.468ZM161.336 101.468L150.653 106.933L163.291 131.641L173.974 126.176L184.658 120.711L172.02 96.0034L161.336 101.468ZM173.974 126.176L184.608 131.737L197.53 107.029L186.896 101.468L176.263 95.9068L163.341 120.615L173.974 126.176ZM186.896 101.468V113.468H212.598V101.468V89.468H186.896V101.468ZM212.598 101.468L202.39 95.1596L178.96 133.074L189.168 139.382L199.377 145.69L222.807 107.776L212.598 101.468ZM189.168 139.382L178.954 145.679L203.378 185.297L213.592 179L223.807 172.703L199.383 133.085L189.168 139.382ZM213.592 179V167H187.89V179V191H213.592V179ZM187.89 179L198.519 173.43L184.603 146.876L173.974 152.446L163.346 158.016L177.262 184.57L187.89 179ZM173.974 152.446L163.346 146.876L149.43 173.43L160.058 179L170.687 184.57L184.603 158.016L173.974 152.446ZM160.058 179V167H134.356V179V191H160.058V179ZM134.356 179L144.588 185.271L168.87 145.653L158.638 139.382L148.407 133.111L124.125 172.729L134.356 179Z" fill="var(--pageColor)" mask="url(#path-2-outside-1_54_549)"/>
<path d="M136.898 35C141.586 35.0001 146.233 35.8627 150.689 37.2715C159.416 40.0304 162.324 49.571 159.098 56.6699C156.096 63.2739 149.029 66.2244 142.664 64.9629C140.555 64.5449 138.851 64.3604 137.466 64.3604C135.032 64.3604 133.676 64.9019 132.544 65.8311C131.177 66.9529 129.278 69.3663 127.299 74.6865L127.278 74.7422L127.257 74.7969C122.553 86.9481 119.291 106.28 115.665 127.453C112.315 147.276 108.778 168.556 103.165 183.728L103.152 183.762L103.139 183.796C95.8941 202.895 82.2736 213.602 65.3301 213.602C60.6428 213.602 55.9955 212.739 51.5391 211.33C42.8124 208.571 39.904 199.031 43.1309 191.932C46.039 185.534 52.7615 182.565 58.9658 183.533L59.5645 183.64L60.3359 183.785C62.0937 184.1 63.5494 184.242 64.7617 184.242C67.1982 184.242 68.5676 183.698 69.708 182.769C71.0762 181.653 72.9681 179.267 74.9414 174.025C79.3884 162.111 82.5148 143.305 85.9922 122.73L85.9932 122.721L85.9951 122.711C89.484 102.336 93.1687 80.299 99.0869 64.6689L99.0889 64.6641C102.656 55.2589 107.775 47.7862 114.388 42.6455C121.074 37.448 128.829 35 136.898 35Z" fill="var(--pageColor)" stroke="var(--pageColor)" stroke-width="18"/>
<path d="M158.638 139.382L135.492 101.468H161.336L173.974 126.176L186.896 101.468H212.598L189.168 139.382L213.592 179H187.89L173.974 152.446L160.058 179H134.356L158.638 139.382Z" fill="var(--darkGray)"/>
<path d="M136.898 41C140.854 41.0001 144.886 41.7301 148.881 42.9932C153.752 44.5333 155.563 49.9478 153.636 54.1875C151.89 58.028 147.718 59.8477 143.83 59.0771C141.471 58.6095 139.359 58.3604 137.466 58.3604C133.957 58.3604 131.162 59.2034 128.737 61.1934C126.235 63.2476 123.85 66.7499 121.676 72.5938L121.662 72.6309C116.686 85.4853 113.326 105.561 109.751 126.44C106.362 146.49 102.911 167.122 97.5371 181.646L97.5332 181.656L97.5293 181.668C90.9491 199.016 79.2139 207.602 65.3301 207.602C61.3742 207.602 57.343 206.872 53.3477 205.609C48.4765 204.069 46.6655 198.654 48.5928 194.414C50.3386 190.574 54.5097 188.755 58.3975 189.525C60.7569 189.993 62.8687 190.242 64.7617 190.242C68.2719 190.242 71.0717 189.398 73.499 187.42C76.0023 185.38 78.3842 181.909 80.5566 176.139C85.2575 163.553 88.4771 144.031 91.9082 123.73L91.9092 123.724C95.4388 103.111 99.0336 81.7546 104.698 66.7939L104.699 66.792C107.971 58.1663 112.517 51.6997 118.07 47.3828C123.648 43.047 130.091 41 136.898 41Z" fill="var(--darkGray)" stroke="var(--darkGray)" stroke-width="6"/>
</g>
</svg>
