<svg viewBox="0 0 256 256" fill="none" xmlns="http://www.w3.org/2000/svg">
<mask id="mask0_56_725" style="mask-type:alpha" maskUnits="userSpaceOnUse" x="0" y="0" width="256" height="256">
<rect width="256" height="256" fill="var(--gray)"/>
</mask>
<g mask="url(#mask0_56_725)">
<mask id="path-2-outside-1_56_725" maskUnits="userSpaceOnUse" x="44" y="66" width="182" height="121" fill="black">
<rect fill="var(--pageColor)" x="44" y="66" width="182" height="121"/>
<path d="M80.002 174.25C73.0853 174.25 67.4186 171.292 63.002 165.375C58.5853 159.375 56.377 150.583 56.377 139C56.377 127.333 58.627 118.5 63.127 112.5C67.627 106.5 73.4603 103.5 80.627 103.5C83.627 103.5 86.2103 103.958 88.377 104.875C90.627 105.708 92.5436 106.875 94.127 108.375C95.7936 109.875 97.2103 111.583 98.377 113.5H98.877C98.627 112.167 98.377 110.25 98.127 107.75C97.877 105.167 97.752 102.542 97.752 99.875V78H117.752V173H102.627L98.502 164.125H97.752C96.6686 165.958 95.3353 167.667 93.752 169.25C92.1686 170.75 90.252 171.958 88.002 172.875C85.752 173.792 83.0853 174.25 80.002 174.25ZM87.627 159.375C91.7936 159.375 94.752 157.875 96.502 154.875C98.3353 151.792 99.252 147.208 99.252 141.125V139.125C99.252 132.458 98.4186 127.375 96.752 123.875C95.0853 120.375 91.9603 118.625 87.377 118.625C84.127 118.625 81.502 120.417 79.502 124C77.5853 127.5 76.627 132.583 76.627 139.25C76.627 145.917 77.5853 150.958 79.502 154.375C81.502 157.708 84.2103 159.375 87.627 159.375ZM155.703 138.125L135.328 104.75H158.078L169.203 126.5L180.578 104.75H203.203L182.578 138.125L204.078 173H181.453L169.203 149.625L156.953 173H134.328L155.703 138.125Z"/>
</mask>
<path d="M80.002 174.25C73.0853 174.25 67.4186 171.292 63.002 165.375C58.5853 159.375 56.377 150.583 56.377 139C56.377 127.333 58.627 118.5 63.127 112.5C67.627 106.5 73.4603 103.5 80.627 103.5C83.627 103.5 86.2103 103.958 88.377 104.875C90.627 105.708 92.5436 106.875 94.127 108.375C95.7936 109.875 97.2103 111.583 98.377 113.5H98.877C98.627 112.167 98.377 110.25 98.127 107.75C97.877 105.167 97.752 102.542 97.752 99.875V78H117.752V173H102.627L98.502 164.125H97.752C96.6686 165.958 95.3353 167.667 93.752 169.25C92.1686 170.75 90.252 171.958 88.002 172.875C85.752 173.792 83.0853 174.25 80.002 174.25ZM87.627 159.375C91.7936 159.375 94.752 157.875 96.502 154.875C98.3353 151.792 99.252 147.208 99.252 141.125V139.125C99.252 132.458 98.4186 127.375 96.752 123.875C95.0853 120.375 91.9603 118.625 87.377 118.625C84.127 118.625 81.502 120.417 79.502 124C77.5853 127.5 76.627 132.583 76.627 139.25C76.627 145.917 77.5853 150.958 79.502 154.375C81.502 157.708 84.2103 159.375 87.627 159.375ZM155.703 138.125L135.328 104.75H158.078L169.203 126.5L180.578 104.75H203.203L182.578 138.125L204.078 173H181.453L169.203 149.625L156.953 173H134.328L155.703 138.125Z" fill="var(--pageColor)"/>
<path d="M63.002 165.375L53.3379 172.489L53.3617 172.521L53.3857 172.553L63.002 165.375ZM63.127 112.5L72.727 119.7L72.727 119.7L63.127 112.5ZM88.377 104.875L83.7013 115.927L83.9529 116.033L84.2092 116.128L88.377 104.875ZM94.127 108.375L85.874 117.086L85.9854 117.192L86.0994 117.295L94.127 108.375ZM98.377 113.5L88.1266 119.739L91.633 125.5H98.377V113.5ZM98.877 113.5V125.5H113.336L110.671 111.289L98.877 113.5ZM98.127 107.75L86.1828 108.906L86.1846 108.925L86.1865 108.944L98.127 107.75ZM97.752 78V66H85.752V78H97.752ZM117.752 78H129.752V66H117.752V78ZM117.752 173V185H129.752V173H117.752ZM102.627 173L91.7449 178.058L94.9716 185H102.627V173ZM98.502 164.125L109.384 159.067L106.157 152.125H98.502V164.125ZM97.752 164.125V152.125H90.9044L87.4208 158.02L97.752 164.125ZM93.752 169.25L102.005 177.961L102.123 177.85L102.237 177.735L93.752 169.25ZM88.002 172.875L83.4744 161.762L83.4744 161.762L88.002 172.875ZM96.502 154.875L86.1875 148.742L86.1619 148.785L86.1366 148.829L96.502 154.875ZM96.752 123.875L107.586 118.716L107.586 118.716L96.752 123.875ZM79.502 124L69.0236 118.152L69 118.194L68.9768 118.236L79.502 124ZM79.502 154.375L69.0362 160.246L69.1219 160.399L69.212 160.549L79.502 154.375ZM80.002 174.25V162.25C77.16 162.25 74.9478 161.317 72.6182 158.197L63.002 165.375L53.3857 172.553C59.8895 181.266 69.0106 186.25 80.002 186.25V174.25ZM63.002 165.375L72.666 158.261C70.3998 155.183 68.377 149.351 68.377 139H56.377H44.377C44.377 151.815 46.7707 163.567 53.3379 172.489L63.002 165.375ZM56.377 139H68.377C68.377 128.579 70.4368 122.754 72.727 119.7L63.127 112.5L53.527 105.3C46.8171 114.246 44.377 126.088 44.377 139H56.377ZM63.127 112.5L72.727 119.7C75.084 116.557 77.4383 115.5 80.627 115.5V103.5V91.5C69.4822 91.5 60.1699 96.4428 53.527 105.3L63.127 112.5ZM80.627 103.5V115.5C82.4452 115.5 83.3604 115.782 83.7013 115.927L88.377 104.875L93.0527 93.8234C89.0601 92.1343 84.8087 91.5 80.627 91.5V103.5ZM88.377 104.875L84.2092 116.128C85.0928 116.455 85.5797 116.808 85.874 117.086L94.127 108.375L102.38 99.6636C99.5075 96.9424 96.1611 94.9614 92.5447 93.622L88.377 104.875ZM94.127 108.375L86.0994 117.295C86.8981 118.013 87.5662 118.819 88.1266 119.739L98.377 113.5L108.627 107.261C106.854 104.348 104.689 101.737 102.155 99.4555L94.127 108.375ZM98.377 113.5V125.5H98.877V113.5V101.5H98.377V113.5ZM98.877 113.5L110.671 111.289C110.517 110.464 110.307 108.949 110.067 106.556L98.127 107.75L86.1865 108.944C86.4472 111.551 86.7372 113.87 87.0825 115.711L98.877 113.5ZM98.127 107.75L110.071 106.594C109.859 104.405 109.752 102.166 109.752 99.875H97.752H85.752C85.752 102.917 85.8946 105.928 86.1828 108.906L98.127 107.75ZM97.752 99.875H109.752V78H97.752H85.752V99.875H97.752ZM97.752 78V90H117.752V78V66H97.752V78ZM117.752 78H105.752V173H117.752H129.752V78H117.752ZM117.752 173V161H102.627V173V185H117.752V173ZM102.627 173L113.509 167.942L109.384 159.067L98.502 164.125L87.6199 169.183L91.7449 178.058L102.627 173ZM98.502 164.125V152.125H97.752V164.125V176.125H98.502V164.125ZM97.752 164.125L87.4208 158.02C86.8761 158.942 86.1739 159.858 85.2667 160.765L93.752 169.25L102.237 177.735C104.497 175.476 106.461 172.975 108.083 170.23L97.752 164.125ZM93.752 169.25L85.499 160.539C85.114 160.903 84.5011 161.344 83.4744 161.762L88.002 172.875L92.5295 183.988C96.0028 182.573 99.2232 180.597 102.005 177.961L93.752 169.25ZM88.002 172.875L83.4744 161.762C82.9919 161.958 81.934 162.25 80.002 162.25V174.25V186.25C84.2365 186.25 88.512 185.625 92.5295 183.988L88.002 172.875ZM87.627 159.375V171.375C95.0572 171.375 102.505 168.4 106.867 160.921L96.502 154.875L86.1366 148.829C86.2267 148.674 86.3973 148.431 86.6717 148.169C86.9492 147.903 87.2542 147.694 87.5439 147.547C88.1221 147.254 88.2963 147.375 87.627 147.375V159.375ZM96.502 154.875L106.816 161.008C110.276 155.19 111.252 148.041 111.252 141.125H99.252H87.252C87.252 146.375 86.3948 148.393 86.1875 148.742L96.502 154.875ZM99.252 141.125H111.252V139.125H99.252H87.252V141.125H99.252ZM99.252 139.125H111.252C111.252 131.782 110.386 124.595 107.586 118.716L96.752 123.875L85.9176 129.034C86.4516 130.155 87.252 133.135 87.252 139.125H99.252ZM96.752 123.875L107.586 118.716C105.778 114.918 102.931 111.657 99.0214 109.467C95.2343 107.347 91.1602 106.625 87.377 106.625V118.625V130.625C88.177 130.625 87.9571 130.778 87.295 130.408C86.9641 130.222 86.6392 129.968 86.3652 129.668C86.0973 129.374 85.9639 129.131 85.9176 129.034L96.752 123.875ZM87.377 118.625V106.625C78.589 106.625 72.4929 111.936 69.0236 118.152L79.502 124L89.9803 129.848C90.3291 129.224 90.3396 129.468 89.7356 129.88C89.4245 130.093 89.024 130.297 88.5571 130.439C88.0925 130.581 87.6814 130.625 87.377 130.625V118.625ZM79.502 124L68.9768 118.236C65.6476 124.316 64.627 131.761 64.627 139.25H76.627H88.627C88.627 133.406 89.523 130.684 90.0271 129.764L79.502 124ZM76.627 139.25H64.627C64.627 146.708 65.6368 154.186 69.0362 160.246L79.502 154.375L89.9677 148.504C89.5338 147.731 88.627 145.126 88.627 139.25H76.627ZM79.502 154.375L69.212 160.549C73.0247 166.903 79.3464 171.375 87.627 171.375V159.375V147.375C87.7561 147.375 88.0114 147.392 88.348 147.484C88.6902 147.577 89.0255 147.722 89.3224 147.905C89.9322 148.28 90.0192 148.58 89.7919 148.201L79.502 154.375ZM155.703 138.125L165.934 144.396L169.77 138.137L165.945 131.872L155.703 138.125ZM135.328 104.75V92.75H113.943L125.086 111.003L135.328 104.75ZM158.078 104.75L168.762 99.2854L165.419 92.75H158.078V104.75ZM169.203 126.5L158.52 131.965L169.085 152.62L179.837 132.061L169.203 126.5ZM180.578 104.75V92.75H173.312L169.945 99.1888L180.578 104.75ZM203.203 104.75L213.411 111.058L224.725 92.75H203.203V104.75ZM182.578 138.125L172.37 131.817L168.476 138.117L172.363 144.422L182.578 138.125ZM204.078 173V185H225.573L214.293 166.703L204.078 173ZM181.453 173L170.824 178.57L174.194 185H181.453V173ZM169.203 149.625L179.832 144.055L169.203 123.773L158.574 144.055L169.203 149.625ZM156.953 173V185H164.212L167.582 178.57L156.953 173ZM134.328 173L124.097 166.729L112.899 185H134.328V173ZM155.703 138.125L165.945 131.872L145.57 98.4973L135.328 104.75L125.086 111.003L145.461 144.378L155.703 138.125ZM135.328 104.75V116.75H158.078V104.75V92.75H135.328V104.75ZM158.078 104.75L147.395 110.215L158.52 131.965L169.203 126.5L179.887 121.035L168.762 99.2854L158.078 104.75ZM169.203 126.5L179.837 132.061L191.212 110.311L180.578 104.75L169.945 99.1888L158.57 120.939L169.203 126.5ZM180.578 104.75V116.75H203.203V104.75V92.75H180.578V104.75ZM203.203 104.75L192.995 98.4416L172.37 131.817L182.578 138.125L192.786 144.433L213.411 111.058L203.203 104.75ZM182.578 138.125L172.363 144.422L193.863 179.297L204.078 173L214.293 166.703L192.793 131.828L182.578 138.125ZM204.078 173V161H181.453V173V185H204.078V173ZM181.453 173L192.082 167.43L179.832 144.055L169.203 149.625L158.574 155.195L170.824 178.57L181.453 173ZM169.203 149.625L158.574 144.055L146.324 167.43L156.953 173L167.582 178.57L179.832 155.195L169.203 149.625ZM156.953 173V161H134.328V173V185H156.953V173ZM134.328 173L144.559 179.271L165.934 144.396L155.703 138.125L145.472 131.854L124.097 166.729L134.328 173Z" fill="var(--pageColor)" mask="url(#path-2-outside-1_56_725)"/>
<path d="M80.002 174.25C73.0853 174.25 67.4186 171.292 63.002 165.375C58.5853 159.375 56.377 150.583 56.377 139C56.377 127.333 58.627 118.5 63.127 112.5C67.627 106.5 73.4603 103.5 80.627 103.5C83.627 103.5 86.2103 103.958 88.377 104.875C90.627 105.708 92.5436 106.875 94.127 108.375C95.7936 109.875 97.2103 111.583 98.377 113.5H98.877C98.627 112.167 98.377 110.25 98.127 107.75C97.877 105.167 97.752 102.542 97.752 99.875V78H117.752V173H102.627L98.502 164.125H97.752C96.6686 165.958 95.3353 167.667 93.752 169.25C92.1686 170.75 90.252 171.958 88.002 172.875C85.752 173.792 83.0853 174.25 80.002 174.25ZM87.627 159.375C91.7936 159.375 94.752 157.875 96.502 154.875C98.3353 151.792 99.252 147.208 99.252 141.125V139.125C99.252 132.458 98.4186 127.375 96.752 123.875C95.0853 120.375 91.9603 118.625 87.377 118.625C84.127 118.625 81.502 120.417 79.502 124C77.5853 127.5 76.627 132.583 76.627 139.25C76.627 145.917 77.5853 150.958 79.502 154.375C81.502 157.708 84.2103 159.375 87.627 159.375ZM155.703 138.125L135.328 104.75H158.078L169.203 126.5L180.578 104.75H203.203L182.578 138.125L204.078 173H181.453L169.203 149.625L156.953 173H134.328L155.703 138.125Z" fill="var(--darkGray)"/>
</g>
</svg>
