<svg viewBox="0 0 256 256" fill="none" xmlns="http://www.w3.org/2000/svg">
<mask id="mask0_56_731" style="mask-type:alpha" maskUnits="userSpaceOnUse" x="0" y="0" width="256" height="256">
<rect width="256" height="256" fill="var(--gray)"/>
</mask>
<g mask="url(#mask0_56_731)">
<mask id="path-2-outside-1_56_731" maskUnits="userSpaceOnUse" x="45" y="66" width="176" height="149" fill="white">
<rect x="45" y="66" width="176" height="149"/>
<path d="M80.9175 174.25C74.0008 174.25 68.3341 171.292 63.9175 165.375C59.5008 159.375 57.2925 150.583 57.2925 139C57.2925 127.333 59.5425 118.5 64.0425 112.5C68.5425 106.5 74.3758 103.5 81.5425 103.5C84.5425 103.5 87.1258 103.958 89.2925 104.875C91.5425 105.708 93.4591 106.875 95.0425 108.375C96.7091 109.875 98.1258 111.583 99.2925 113.5H99.7925C99.5425 112.167 99.2925 110.25 99.0425 107.75C98.7925 105.167 98.6675 102.542 98.6675 99.875V78H118.667V173H103.542L99.4175 164.125H98.6675C97.5841 165.958 96.2508 167.667 94.6675 169.25C93.0841 170.75 91.1675 171.958 88.9175 172.875C86.6675 173.792 84.0008 174.25 80.9175 174.25ZM88.5425 159.375C92.7091 159.375 95.6675 157.875 97.4175 154.875C99.2508 151.792 100.167 147.208 100.167 141.125V139.125C100.167 132.458 99.3341 127.375 97.6675 123.875C96.0008 120.375 92.8758 118.625 88.2925 118.625C85.0425 118.625 82.4175 120.417 80.4175 124C78.5008 127.5 77.5425 132.583 77.5425 139.25C77.5425 145.917 78.5008 150.958 80.4175 154.375C82.4175 157.708 85.1258 159.375 88.5425 159.375ZM134.619 104.75H155.994L167.369 143.125C167.785 144.292 168.077 145.542 168.244 146.875C168.494 148.125 168.66 149.417 168.744 150.75C168.91 152.083 169.035 153.5 169.119 155H169.619C169.785 152.833 169.994 150.792 170.244 148.875C170.577 146.875 171.035 144.958 171.619 143.125L182.994 104.75H203.994L177.244 181.625C175.577 186.375 173.452 190.333 170.869 193.5C168.285 196.667 165.16 199.042 161.494 200.625C157.827 202.208 153.535 203 148.619 203C146.619 203 144.869 202.875 143.369 202.625C141.952 202.458 140.702 202.25 139.619 202V187.25C140.452 187.417 141.452 187.583 142.619 187.75C143.869 187.917 145.16 188 146.494 188C148.994 188 151.077 187.458 152.744 186.375C154.41 185.292 155.785 183.833 156.869 182C157.952 180.167 158.744 178.125 159.244 175.875L160.119 172.5L134.619 104.75Z"/>
</mask>
<path d="M80.9175 174.25C74.0008 174.25 68.3341 171.292 63.9175 165.375C59.5008 159.375 57.2925 150.583 57.2925 139C57.2925 127.333 59.5425 118.5 64.0425 112.5C68.5425 106.5 74.3758 103.5 81.5425 103.5C84.5425 103.5 87.1258 103.958 89.2925 104.875C91.5425 105.708 93.4591 106.875 95.0425 108.375C96.7091 109.875 98.1258 111.583 99.2925 113.5H99.7925C99.5425 112.167 99.2925 110.25 99.0425 107.75C98.7925 105.167 98.6675 102.542 98.6675 99.875V78H118.667V173H103.542L99.4175 164.125H98.6675C97.5841 165.958 96.2508 167.667 94.6675 169.25C93.0841 170.75 91.1675 171.958 88.9175 172.875C86.6675 173.792 84.0008 174.25 80.9175 174.25ZM88.5425 159.375C92.7091 159.375 95.6675 157.875 97.4175 154.875C99.2508 151.792 100.167 147.208 100.167 141.125V139.125C100.167 132.458 99.3341 127.375 97.6675 123.875C96.0008 120.375 92.8758 118.625 88.2925 118.625C85.0425 118.625 82.4175 120.417 80.4175 124C78.5008 127.5 77.5425 132.583 77.5425 139.25C77.5425 145.917 78.5008 150.958 80.4175 154.375C82.4175 157.708 85.1258 159.375 88.5425 159.375ZM134.619 104.75H155.994L167.369 143.125C167.785 144.292 168.077 145.542 168.244 146.875C168.494 148.125 168.66 149.417 168.744 150.75C168.91 152.083 169.035 153.5 169.119 155H169.619C169.785 152.833 169.994 150.792 170.244 148.875C170.577 146.875 171.035 144.958 171.619 143.125L182.994 104.75H203.994L177.244 181.625C175.577 186.375 173.452 190.333 170.869 193.5C168.285 196.667 165.16 199.042 161.494 200.625C157.827 202.208 153.535 203 148.619 203C146.619 203 144.869 202.875 143.369 202.625C141.952 202.458 140.702 202.25 139.619 202V187.25C140.452 187.417 141.452 187.583 142.619 187.75C143.869 187.917 145.16 188 146.494 188C148.994 188 151.077 187.458 152.744 186.375C154.41 185.292 155.785 183.833 156.869 182C157.952 180.167 158.744 178.125 159.244 175.875L160.119 172.5L134.619 104.75Z" fill="var(--pageColor)"/>
<path d="M63.9175 165.375L54.2534 172.489L54.2772 172.521L54.3013 172.553L63.9175 165.375ZM64.0425 112.5L73.6425 119.7L73.6425 119.7L64.0425 112.5ZM89.2925 104.875L84.6168 115.927L84.8685 116.033L85.1247 116.128L89.2925 104.875ZM95.0425 108.375L86.7896 117.086L86.9009 117.192L87.0149 117.295L95.0425 108.375ZM99.2925 113.5L89.0421 119.739L92.5486 125.5H99.2925V113.5ZM99.7925 113.5V125.5H114.252L111.587 111.289L99.7925 113.5ZM99.0425 107.75L87.0983 108.906L87.1001 108.925L87.102 108.944L99.0425 107.75ZM98.6675 78V66H86.6675V78H98.6675ZM118.667 78H130.667V66H118.667V78ZM118.667 173V185H130.667V173H118.667ZM103.542 173L92.6605 178.058L95.8871 185H103.542V173ZM99.4175 164.125L110.299 159.067L107.073 152.125H99.4175V164.125ZM98.6675 164.125V152.125H91.8199L88.3364 158.02L98.6675 164.125ZM94.6675 169.25L102.92 177.961L103.038 177.85L103.153 177.735L94.6675 169.25ZM88.9175 172.875L84.3899 161.762L84.3899 161.762L88.9175 172.875ZM97.4175 154.875L87.1031 148.742L87.0774 148.785L87.0521 148.829L97.4175 154.875ZM97.6675 123.875L108.502 118.716L108.502 118.716L97.6675 123.875ZM80.4175 124L69.9391 118.152L69.9155 118.194L69.8923 118.236L80.4175 124ZM80.4175 154.375L69.9518 160.246L70.0375 160.399L70.1276 160.549L80.4175 154.375ZM80.9175 174.25V162.25C78.0755 162.25 75.8633 161.317 73.5337 158.197L63.9175 165.375L54.3013 172.553C60.805 181.266 69.9261 186.25 80.9175 186.25V174.25ZM63.9175 165.375L73.5815 158.261C71.3154 155.183 69.2925 149.351 69.2925 139H57.2925H45.2925C45.2925 151.815 47.6863 163.567 54.2534 172.489L63.9175 165.375ZM57.2925 139H69.2925C69.2925 128.579 71.3523 122.754 73.6425 119.7L64.0425 112.5L54.4425 105.3C47.7326 114.246 45.2925 126.088 45.2925 139H57.2925ZM64.0425 112.5L73.6425 119.7C75.9996 116.557 78.3539 115.5 81.5425 115.5V103.5V91.5C70.3978 91.5 61.0854 96.4428 54.4425 105.3L64.0425 112.5ZM81.5425 103.5V115.5C83.3608 115.5 84.276 115.782 84.6168 115.927L89.2925 104.875L93.9682 93.8234C89.9757 92.1343 85.7242 91.5 81.5425 91.5V103.5ZM89.2925 104.875L85.1247 116.128C86.0083 116.455 86.4953 116.808 86.7896 117.086L95.0425 108.375L103.295 99.6636C100.423 96.9424 97.0767 94.9614 93.4603 93.622L89.2925 104.875ZM95.0425 108.375L87.0149 117.295C87.8137 118.013 88.4817 118.819 89.0421 119.739L99.2925 113.5L109.543 107.261C107.77 104.348 105.605 101.737 103.07 99.4555L95.0425 108.375ZM99.2925 113.5V125.5H99.7925V113.5V101.5H99.2925V113.5ZM99.7925 113.5L111.587 111.289C111.432 110.464 111.222 108.949 110.983 106.556L99.0425 107.75L87.102 108.944C87.3627 111.551 87.6527 113.87 87.998 115.711L99.7925 113.5ZM99.0425 107.75L110.987 106.594C110.775 104.405 110.667 102.166 110.667 99.875H98.6675H86.6675C86.6675 102.917 86.8101 105.928 87.0983 108.906L99.0425 107.75ZM98.6675 99.875H110.667V78H98.6675H86.6675V99.875H98.6675ZM98.6675 78V90H118.667V78V66H98.6675V78ZM118.667 78H106.667V173H118.667H130.667V78H118.667ZM118.667 173V161H103.542V173V185H118.667V173ZM103.542 173L114.424 167.942L110.299 159.067L99.4175 164.125L88.5355 169.183L92.6605 178.058L103.542 173ZM99.4175 164.125V152.125H98.6675V164.125V176.125H99.4175V164.125ZM98.6675 164.125L88.3364 158.02C87.7916 158.942 87.0894 159.858 86.1822 160.765L94.6675 169.25L103.153 177.735C105.412 175.476 107.377 172.975 108.999 170.23L98.6675 164.125ZM94.6675 169.25L86.4145 160.539C86.0296 160.903 85.4166 161.344 84.3899 161.762L88.9175 172.875L93.445 183.988C96.9184 182.573 100.139 180.597 102.92 177.961L94.6675 169.25ZM88.9175 172.875L84.3899 161.762C83.9074 161.958 82.8496 162.25 80.9175 162.25V174.25V186.25C85.1521 186.25 89.4276 185.625 93.445 183.988L88.9175 172.875ZM88.5425 159.375V171.375C95.9728 171.375 103.42 168.4 107.783 160.921L97.4175 154.875L87.0521 148.829C87.1423 148.674 87.3128 148.431 87.5872 148.169C87.8648 147.903 88.1697 147.694 88.4595 147.547C89.0377 147.254 89.2118 147.375 88.5425 147.375V159.375ZM97.4175 154.875L107.732 161.008C111.191 155.19 112.167 148.041 112.167 141.125H100.167H88.1675C88.1675 146.375 87.3104 148.393 87.1031 148.742L97.4175 154.875ZM100.167 141.125H112.167V139.125H100.167H88.1675V141.125H100.167ZM100.167 139.125H112.167C112.167 131.782 111.301 124.595 108.502 118.716L97.6675 123.875L86.8332 129.034C87.3671 130.155 88.1675 133.135 88.1675 139.125H100.167ZM97.6675 123.875L108.502 118.716C106.693 114.918 103.847 111.657 99.937 109.467C96.1498 107.347 92.0757 106.625 88.2925 106.625V118.625V130.625C89.0926 130.625 88.8727 130.778 88.2105 130.408C87.8796 130.222 87.5547 129.968 87.2807 129.668C87.0128 129.374 86.8795 129.131 86.8332 129.034L97.6675 123.875ZM88.2925 118.625V106.625C79.5045 106.625 73.4084 111.936 69.9391 118.152L80.4175 124L90.8959 129.848C91.2446 129.224 91.2552 129.468 90.6512 129.88C90.34 130.093 89.9395 130.297 89.4726 130.439C89.008 130.581 88.5969 130.625 88.2925 130.625V118.625ZM80.4175 124L69.8923 118.236C66.5631 124.316 65.5425 131.761 65.5425 139.25H77.5425H89.5425C89.5425 133.406 90.4385 130.684 90.9426 129.764L80.4175 124ZM77.5425 139.25H65.5425C65.5425 146.708 66.5523 154.186 69.9518 160.246L80.4175 154.375L90.8832 148.504C90.4493 147.731 89.5425 145.126 89.5425 139.25H77.5425ZM80.4175 154.375L70.1276 160.549C73.9402 166.903 80.2619 171.375 88.5425 171.375V159.375V147.375C88.6717 147.375 88.927 147.392 89.2635 147.484C89.6058 147.577 89.941 147.722 90.2379 147.905C90.8477 148.28 90.9347 148.58 90.7074 148.201L80.4175 154.375ZM134.619 104.75V92.75H117.28L123.388 108.977L134.619 104.75ZM155.994 104.75L167.499 101.34L164.953 92.75H155.994V104.75ZM167.369 143.125L155.863 146.535L155.957 146.851L156.068 147.161L167.369 143.125ZM168.244 146.875L156.336 148.363L156.391 148.798L156.477 149.228L168.244 146.875ZM168.744 150.75L156.767 151.499L156.79 151.87L156.836 152.238L168.744 150.75ZM169.119 155L157.137 155.666L157.767 167H169.119V155ZM169.619 155V167H180.731L181.583 155.92L169.619 155ZM170.244 148.875L158.407 146.902L158.372 147.112L158.344 147.323L170.244 148.875ZM171.619 143.125L183.054 146.763L183.09 146.65L183.124 146.535L171.619 143.125ZM182.994 104.75V92.75H174.035L171.488 101.34L182.994 104.75ZM203.994 104.75L215.327 108.694L220.875 92.75H203.994V104.75ZM177.244 181.625L188.567 185.598L188.572 185.583L188.577 185.569L177.244 181.625ZM170.869 193.5L180.167 201.086L180.167 201.086L170.869 193.5ZM161.494 200.625L166.251 211.642L166.251 211.642L161.494 200.625ZM143.369 202.625L145.341 190.788L145.057 190.741L144.771 190.707L143.369 202.625ZM139.619 202H127.619V211.546L136.92 213.693L139.619 202ZM139.619 187.25L141.972 175.483L127.619 172.612V187.25H139.619ZM142.619 187.75L140.922 199.629L140.977 199.637L141.033 199.645L142.619 187.75ZM152.744 186.375L159.284 196.436L159.284 196.436L152.744 186.375ZM156.869 182L146.538 175.895L146.538 175.895L156.869 182ZM159.244 175.875L147.628 172.863L147.575 173.067L147.529 173.272L159.244 175.875ZM160.119 172.5L171.735 175.512L172.689 171.831L171.349 168.273L160.119 172.5ZM134.619 104.75V116.75H155.994V104.75V92.75H134.619V104.75ZM155.994 104.75L144.488 108.16L155.863 146.535L167.369 143.125L178.874 139.715L167.499 101.34L155.994 104.75ZM167.369 143.125L156.068 147.161C156.166 147.437 156.269 147.826 156.336 148.363L168.244 146.875L180.151 145.387C179.885 143.257 179.404 141.146 178.67 139.089L167.369 143.125ZM168.244 146.875L156.477 149.228C156.616 149.924 156.716 150.679 156.767 151.499L168.744 150.75L180.72 150.001C180.605 148.155 180.371 146.326 180.011 144.522L168.244 146.875ZM168.744 150.75L156.836 152.238C156.965 153.269 157.067 154.409 157.137 155.666L169.119 155L181.1 154.334C181.003 152.591 180.856 150.898 180.651 149.262L168.744 150.75ZM169.119 155V167H169.619V155V143H169.119V155ZM169.619 155L181.583 155.92C181.736 153.939 181.923 152.11 182.143 150.427L170.244 148.875L158.344 147.323C158.064 149.473 157.835 151.727 157.654 154.08L169.619 155ZM170.244 148.875L182.08 150.848C182.325 149.382 182.653 148.024 183.054 146.763L171.619 143.125L160.184 139.487C159.418 141.893 158.829 144.368 158.407 146.902L170.244 148.875ZM171.619 143.125L183.124 146.535L194.499 108.16L182.994 104.75L171.488 101.34L160.113 139.715L171.619 143.125ZM182.994 104.75V116.75H203.994V104.75V92.75H182.994V104.75ZM203.994 104.75L192.66 100.806L165.91 177.681L177.244 181.625L188.577 185.569L215.327 108.694L203.994 104.75ZM177.244 181.625L165.92 177.652C164.611 181.383 163.097 184.043 161.57 185.914L170.869 193.5L180.167 201.086C183.807 196.624 186.543 191.367 188.567 185.598L177.244 181.625ZM170.869 193.5L161.57 185.914C160.174 187.626 158.594 188.806 156.736 189.608L161.494 200.625L166.251 211.642C171.727 209.277 176.396 205.708 180.167 201.086L170.869 193.5ZM161.494 200.625L156.736 189.608C154.876 190.412 152.267 191 148.619 191V203V215C154.804 215 160.778 214.005 166.251 211.642L161.494 200.625ZM148.619 203V191C147.086 191 146.023 190.902 145.341 190.788L143.369 202.625L141.396 214.462C143.714 214.848 146.151 215 148.619 215V203ZM143.369 202.625L144.771 190.707C143.675 190.578 142.873 190.436 142.317 190.307L139.619 202L136.92 213.693C138.531 214.064 140.229 214.338 141.967 214.543L143.369 202.625ZM139.619 202H151.619V187.25H139.619H127.619V202H139.619ZM139.619 187.25L137.265 199.017C138.381 199.24 139.612 199.442 140.922 199.629L142.619 187.75L144.316 175.871C143.292 175.724 142.523 175.593 141.972 175.483L139.619 187.25ZM142.619 187.75L141.033 199.645C142.837 199.885 144.66 200 146.494 200V188V176C145.661 176 144.9 175.948 144.205 175.855L142.619 187.75ZM146.494 188V200C150.719 200 155.224 199.075 159.284 196.436L152.744 186.375L146.204 176.314C146.365 176.209 146.515 176.131 146.644 176.075C146.772 176.02 146.865 175.992 146.912 175.98C146.999 175.957 146.885 176 146.494 176V188ZM152.744 186.375L159.284 196.436C162.611 194.273 165.243 191.416 167.2 188.105L156.869 182L146.538 175.895C146.327 176.251 146.209 176.31 146.204 176.314L152.744 186.375ZM156.869 182L167.2 188.105C168.976 185.098 170.206 181.86 170.958 178.478L159.244 175.875L147.529 173.272C147.281 174.39 146.928 175.235 146.538 175.895L156.869 182ZM159.244 175.875L170.86 178.887L171.735 175.512L160.119 172.5L148.503 169.488L147.628 172.863L159.244 175.875ZM160.119 172.5L171.349 168.273L145.849 100.523L134.619 104.75L123.388 108.977L148.888 176.727L160.119 172.5Z" fill="var(--pageColor)" mask="url(#path-2-outside-1_56_731)"/>
<path d="M80.9175 174.25C74.0008 174.25 68.3341 171.292 63.9175 165.375C59.5008 159.375 57.2925 150.583 57.2925 139C57.2925 127.333 59.5425 118.5 64.0425 112.5C68.5425 106.5 74.3758 103.5 81.5425 103.5C84.5425 103.5 87.1258 103.958 89.2925 104.875C91.5425 105.708 93.4591 106.875 95.0425 108.375C96.7091 109.875 98.1258 111.583 99.2925 113.5H99.7925C99.5425 112.167 99.2925 110.25 99.0425 107.75C98.7925 105.167 98.6675 102.542 98.6675 99.875V78H118.667V173H103.542L99.4175 164.125H98.6675C97.5841 165.958 96.2508 167.667 94.6675 169.25C93.0841 170.75 91.1675 171.958 88.9175 172.875C86.6675 173.792 84.0008 174.25 80.9175 174.25ZM88.5425 159.375C92.7091 159.375 95.6675 157.875 97.4175 154.875C99.2508 151.792 100.167 147.208 100.167 141.125V139.125C100.167 132.458 99.3341 127.375 97.6675 123.875C96.0008 120.375 92.8758 118.625 88.2925 118.625C85.0425 118.625 82.4175 120.417 80.4175 124C78.5008 127.5 77.5425 132.583 77.5425 139.25C77.5425 145.917 78.5008 150.958 80.4175 154.375C82.4175 157.708 85.1258 159.375 88.5425 159.375ZM134.619 104.75H155.994L167.369 143.125C167.785 144.292 168.077 145.542 168.244 146.875C168.494 148.125 168.66 149.417 168.744 150.75C168.91 152.083 169.035 153.5 169.119 155H169.619C169.785 152.833 169.994 150.792 170.244 148.875C170.577 146.875 171.035 144.958 171.619 143.125L182.994 104.75H203.994L177.244 181.625C175.577 186.375 173.452 190.333 170.869 193.5C168.285 196.667 165.16 199.042 161.494 200.625C157.827 202.208 153.535 203 148.619 203C146.619 203 144.869 202.875 143.369 202.625C141.952 202.458 140.702 202.25 139.619 202V187.25C140.452 187.417 141.452 187.583 142.619 187.75C143.869 187.917 145.16 188 146.494 188C148.994 188 151.077 187.458 152.744 186.375C154.41 185.292 155.785 183.833 156.869 182C157.952 180.167 158.744 178.125 159.244 175.875L160.119 172.5L134.619 104.75Z" fill="var(--darkGray)"/>
</g>
</svg>
