<svg viewBox="0 0 256 256" fill="none" xmlns="http://www.w3.org/2000/svg">
<mask id="mask0_56_678" style="mask-type:alpha" maskUnits="userSpaceOnUse" x="0" y="0" width="256" height="256">
<rect width="256" height="256" fill="var(--gray)"/>
</mask>
<g mask="url(#mask0_56_678)">
<mask id="path-2-outside-1_56_678" maskUnits="userSpaceOnUse" x="21" y="66" width="214" height="119" fill="white">
<rect x="21" y="66" width="214" height="119"/>
<path d="M53.8462 173H33.8462V78H53.8462V173ZM98.3335 104.75V173H78.3335V104.75H98.3335ZM88.4585 78C91.3752 78 93.8752 78.6667 95.9585 80C98.0418 81.25 99.0835 83.625 99.0835 87.125C99.0835 90.5417 98.0418 92.9167 95.9585 94.25C93.8752 95.5833 91.3752 96.25 88.4585 96.25C85.4585 96.25 82.9168 95.5833 80.8335 94.25C78.7502 92.9167 77.7085 90.5417 77.7085 87.125C77.7085 83.625 78.7502 81.25 80.8335 80C82.9168 78.6667 85.4585 78 88.4585 78ZM200.071 103.5C207.487 103.5 213.071 105.5 216.821 109.5C220.654 113.417 222.571 119.75 222.571 128.5V173H202.696V133.125C202.696 128.208 201.946 124.542 200.446 122.125C199.029 119.625 196.862 118.375 193.946 118.375C189.779 118.375 186.862 120.125 185.196 123.625C183.529 127.125 182.696 132.167 182.696 138.75V173H162.696V133.125C162.696 129.875 162.362 127.167 161.696 125C161.112 122.833 160.196 121.208 158.946 120.125C157.696 118.958 156.029 118.375 153.946 118.375C151.112 118.375 148.862 119.25 147.196 121C145.612 122.75 144.487 125.292 143.821 128.625C143.154 131.958 142.821 136.042 142.821 140.875V173H122.821V104.75H137.946L140.821 113.5H141.571C142.821 111.167 144.362 109.292 146.196 107.875C148.112 106.375 150.279 105.292 152.696 104.625C155.196 103.875 157.862 103.5 160.696 103.5C165.362 103.5 169.279 104.333 172.446 106C175.696 107.583 178.237 110.083 180.071 113.5H181.196C183.196 110 185.862 107.458 189.196 105.875C192.612 104.292 196.237 103.5 200.071 103.5Z"/>
</mask>
<path d="M53.8462 173H33.8462V78H53.8462V173ZM98.3335 104.75V173H78.3335V104.75H98.3335ZM88.4585 78C91.3752 78 93.8752 78.6667 95.9585 80C98.0418 81.25 99.0835 83.625 99.0835 87.125C99.0835 90.5417 98.0418 92.9167 95.9585 94.25C93.8752 95.5833 91.3752 96.25 88.4585 96.25C85.4585 96.25 82.9168 95.5833 80.8335 94.25C78.7502 92.9167 77.7085 90.5417 77.7085 87.125C77.7085 83.625 78.7502 81.25 80.8335 80C82.9168 78.6667 85.4585 78 88.4585 78ZM200.071 103.5C207.487 103.5 213.071 105.5 216.821 109.5C220.654 113.417 222.571 119.75 222.571 128.5V173H202.696V133.125C202.696 128.208 201.946 124.542 200.446 122.125C199.029 119.625 196.862 118.375 193.946 118.375C189.779 118.375 186.862 120.125 185.196 123.625C183.529 127.125 182.696 132.167 182.696 138.75V173H162.696V133.125C162.696 129.875 162.362 127.167 161.696 125C161.112 122.833 160.196 121.208 158.946 120.125C157.696 118.958 156.029 118.375 153.946 118.375C151.112 118.375 148.862 119.25 147.196 121C145.612 122.75 144.487 125.292 143.821 128.625C143.154 131.958 142.821 136.042 142.821 140.875V173H122.821V104.75H137.946L140.821 113.5H141.571C142.821 111.167 144.362 109.292 146.196 107.875C148.112 106.375 150.279 105.292 152.696 104.625C155.196 103.875 157.862 103.5 160.696 103.5C165.362 103.5 169.279 104.333 172.446 106C175.696 107.583 178.237 110.083 180.071 113.5H181.196C183.196 110 185.862 107.458 189.196 105.875C192.612 104.292 196.237 103.5 200.071 103.5Z" fill="var(--pageColor)"/>
<path d="M53.8462 173V185H65.8462V173H53.8462ZM33.8462 173H21.8462V185H33.8462V173ZM33.8462 78V66H21.8462V78H33.8462ZM53.8462 78H65.8462V66H53.8462V78ZM53.8462 173V161H33.8462V173V185H53.8462V173ZM33.8462 173H45.8462V78H33.8462H21.8462V173H33.8462ZM33.8462 78V90H53.8462V78V66H33.8462V78ZM53.8462 78H41.8462V173H53.8462H65.8462V78H53.8462ZM98.3335 104.75H110.333V92.75H98.3335V104.75ZM98.3335 173V185H110.333V173H98.3335ZM78.3335 173H66.3335V185H78.3335V173ZM78.3335 104.75V92.75H66.3335V104.75H78.3335ZM95.9585 80L89.4898 90.1072L89.6359 90.2007L89.7846 90.2899L95.9585 80ZM95.9585 94.25L89.4899 84.1427L89.4898 84.1427L95.9585 94.25ZM80.8335 94.25L87.3022 84.1427L87.3021 84.1427L80.8335 94.25ZM80.8335 80L87.0074 90.2899L87.1561 90.2007L87.3022 90.1072L80.8335 80ZM98.3335 104.75H86.3335V173H98.3335H110.333V104.75H98.3335ZM98.3335 173V161H78.3335V173V185H98.3335V173ZM78.3335 173H90.3335V104.75H78.3335H66.3335V173H78.3335ZM78.3335 104.75V116.75H98.3335V104.75V92.75H78.3335V104.75ZM88.4585 78V90C89.0032 90 89.3063 90.0621 89.429 90.0948C89.5389 90.1241 89.5375 90.1378 89.4898 90.1072L95.9585 80L102.427 69.8927C98.0889 67.1162 93.2505 66 88.4585 66V78ZM95.9585 80L89.7846 90.2899C89.2262 89.9549 88.6937 89.5137 88.2368 88.9837C87.7848 88.4595 87.4922 87.9478 87.3128 87.5387C86.9777 86.7746 87.0835 86.4866 87.0835 87.125H99.0835H111.083C111.083 81.4477 109.289 74.0041 102.132 69.7101L95.9585 80ZM99.0835 87.125H87.0835C87.0835 87.6755 86.9916 87.3812 87.3128 86.6488C87.4821 86.2628 87.7495 85.7964 88.1494 85.3219C88.5524 84.8436 89.0145 84.4469 89.4899 84.1427L95.9585 94.25L102.427 104.357C109.191 100.028 111.083 92.9139 111.083 87.125H99.0835ZM95.9585 94.25L89.4898 84.1427C89.5375 84.1122 89.5389 84.1259 89.429 84.1552C89.3063 84.1879 89.0032 84.25 88.4585 84.25V96.25V108.25C93.2505 108.25 98.0889 107.134 102.427 104.357L95.9585 94.25ZM88.4585 96.25V84.25C87.8438 84.25 87.495 84.1815 87.3468 84.1426C87.2129 84.1075 87.2238 84.0926 87.3022 84.1427L80.8335 94.25L74.3648 104.357C78.7554 107.167 83.6573 108.25 88.4585 108.25V96.25ZM80.8335 94.25L87.3021 84.1427C87.7775 84.4469 88.2396 84.8436 88.6426 85.3219C89.0425 85.7964 89.3099 86.2628 89.4792 86.6488C89.8004 87.3812 89.7085 87.6755 89.7085 87.125H77.7085H65.7085C65.7085 92.9139 67.6012 100.028 74.3649 104.357L80.8335 94.25ZM77.7085 87.125H89.7085C89.7085 86.4866 89.8143 86.7746 89.4792 87.5387C89.2997 87.9478 89.0072 88.4595 88.5552 88.9837C88.0983 89.5137 87.5658 89.9549 87.0074 90.2899L80.8335 80L74.6596 69.7101C67.5029 74.0041 65.7085 81.4477 65.7085 87.125H77.7085ZM80.8335 80L87.3022 90.1072C87.2238 90.1574 87.2129 90.1425 87.3468 90.1073C87.495 90.0685 87.8438 90 88.4585 90V78V66C83.6573 66 78.7554 67.0828 74.3648 69.8927L80.8335 80ZM216.821 109.5L208.066 117.707L208.155 117.801L208.245 117.894L216.821 109.5ZM222.571 173V185H234.571V173H222.571ZM202.696 173H190.696V185H202.696V173ZM200.446 122.125L190.006 128.041L190.124 128.25L190.25 128.453L200.446 122.125ZM182.696 173V185H194.696V173H182.696ZM162.696 173H150.696V185H162.696V173ZM161.696 125L150.108 128.12L150.164 128.325L150.226 128.529L161.696 125ZM158.946 120.125L150.758 128.898L150.92 129.048L151.087 129.193L158.946 120.125ZM147.196 121L138.506 112.724L138.4 112.835L138.297 112.949L147.196 121ZM142.821 173V185H154.821V173H142.821ZM122.821 173H110.821V185H122.821V173ZM122.821 104.75V92.75H110.821V104.75H122.821ZM137.946 104.75L149.346 101.004L146.634 92.75H137.946V104.75ZM140.821 113.5L129.42 117.246L132.133 125.5H140.821V113.5ZM141.571 113.5V125.5H148.756L152.149 119.167L141.571 113.5ZM146.196 107.875L153.533 117.37L153.562 117.348L153.592 117.325L146.196 107.875ZM152.696 104.625L155.887 116.193L156.016 116.157L156.144 116.119L152.696 104.625ZM172.446 106L166.857 116.619L167.022 116.706L167.19 116.788L172.446 106ZM180.071 113.5L169.497 119.174L172.891 125.5H180.071V113.5ZM181.196 113.5V125.5H188.16L191.615 119.454L181.196 113.5ZM189.196 105.875L184.15 94.9873L184.099 95.0112L184.047 95.0357L189.196 105.875ZM200.071 103.5V115.5C205.385 115.5 207.3 116.89 208.066 117.707L216.821 109.5L225.575 101.293C218.842 94.1102 209.59 91.5 200.071 91.5V103.5ZM216.821 109.5L208.245 117.894C208.885 118.547 210.571 121.091 210.571 128.5H222.571H234.571C234.571 118.409 232.424 108.286 225.397 101.106L216.821 109.5ZM222.571 128.5H210.571V173H222.571H234.571V128.5H222.571ZM222.571 173V161H202.696V173V185H222.571V173ZM202.696 173H214.696V133.125H202.696H190.696V173H202.696ZM202.696 133.125H214.696C214.696 127.403 213.898 121.043 210.641 115.797L200.446 122.125L190.25 128.453C190.057 128.143 190.201 128.234 190.377 129.092C190.549 129.933 190.696 131.239 190.696 133.125H202.696ZM200.446 122.125L210.886 116.209C207.299 109.879 201.103 106.375 193.946 106.375V118.375V130.375C193.652 130.375 192.785 130.297 191.762 129.707C190.729 129.111 190.193 128.372 190.006 128.041L200.446 122.125ZM193.946 118.375V106.375C190.176 106.375 186.161 107.177 182.459 109.398C178.704 111.651 176.064 114.891 174.361 118.466L185.196 123.625L196.03 128.784C196.028 128.788 195.943 128.965 195.72 129.22C195.489 129.484 195.179 129.754 194.807 129.977C194.022 130.448 193.549 130.375 193.946 130.375V118.375ZM185.196 123.625L174.361 118.466C171.569 124.33 170.696 131.463 170.696 138.75H182.696H194.696C194.696 132.87 195.489 129.92 196.03 128.784L185.196 123.625ZM182.696 138.75H170.696V173H182.696H194.696V138.75H182.696ZM182.696 173V161H162.696V173V185H182.696V173ZM162.696 173H174.696V133.125H162.696H150.696V173H162.696ZM162.696 133.125H174.696C174.696 129.151 174.3 125.158 173.165 121.471L161.696 125L150.226 128.529C150.425 129.175 150.696 130.599 150.696 133.125H162.696ZM161.696 125L173.283 121.88C172.294 118.207 170.403 114.175 166.805 111.057L158.946 120.125L151.087 129.193C149.988 128.241 149.931 127.46 150.108 128.12L161.696 125ZM158.946 120.125L167.134 111.352C163.198 107.679 158.369 106.375 153.946 106.375V118.375V130.375C153.874 130.375 153.441 130.365 152.794 130.139C152.11 129.9 151.389 129.486 150.758 128.898L158.946 120.125ZM153.946 118.375V106.375C148.444 106.375 142.83 108.184 138.506 112.724L147.196 121L155.885 129.276C155.504 129.676 155.002 130.013 154.483 130.215C154.003 130.402 153.763 130.375 153.946 130.375V118.375ZM147.196 121L138.297 112.949C134.758 116.861 132.969 121.697 132.054 126.272L143.821 128.625L155.588 130.978C155.786 129.99 155.999 129.389 156.138 129.076C156.273 128.771 156.297 128.827 156.094 129.051L147.196 121ZM143.821 128.625L132.054 126.272C131.183 130.628 130.821 135.553 130.821 140.875H142.821H154.821C154.821 136.53 155.126 133.289 155.588 130.978L143.821 128.625ZM142.821 140.875H130.821V173H142.821H154.821V140.875H142.821ZM142.821 173V161H122.821V173V185H142.821V173ZM122.821 173H134.821V104.75H122.821H110.821V173H122.821ZM122.821 104.75V116.75H137.946V104.75V92.75H122.821V104.75ZM137.946 104.75L126.545 108.496L129.42 117.246L140.821 113.5L152.221 109.754L149.346 101.004L137.946 104.75ZM140.821 113.5V125.5H141.571V113.5V101.5H140.821V113.5ZM141.571 113.5L152.149 119.167C152.714 118.112 153.216 117.616 153.533 117.37L146.196 107.875L138.858 98.3796C135.509 100.967 132.928 104.222 130.993 107.833L141.571 113.5ZM146.196 107.875L153.592 117.325C154.222 116.831 154.951 116.451 155.887 116.193L152.696 104.625L149.505 93.0571C145.607 94.1322 142.002 95.9188 138.8 98.4249L146.196 107.875ZM152.696 104.625L156.144 116.119C157.434 115.732 158.931 115.5 160.696 115.5V103.5V91.5C156.794 91.5 152.958 92.0181 149.248 93.1311L152.696 104.625ZM160.696 103.5V115.5C163.988 115.5 165.858 116.093 166.857 116.619L172.446 106L178.035 95.381C172.701 92.5736 166.737 91.5 160.696 91.5V103.5ZM172.446 106L167.19 116.788C168.006 117.186 168.764 117.808 169.497 119.174L180.071 113.5L190.645 107.826C187.711 102.359 183.385 97.9811 177.701 95.2121L172.446 106ZM180.071 113.5V125.5H181.196V113.5V101.5H180.071V113.5ZM181.196 113.5L191.615 119.454C192.516 117.876 193.431 117.148 194.344 116.714L189.196 105.875L184.047 95.0357C178.294 97.7684 173.875 102.124 170.777 107.546L181.196 113.5ZM189.196 105.875L194.241 116.763C196.048 115.926 197.948 115.5 200.071 115.5V103.5V91.5C194.527 91.5 189.177 92.6578 184.15 94.9873L189.196 105.875Z" fill="var(--pageColor)" mask="url(#path-2-outside-1_56_678)"/>
<path d="M53.8462 173H33.8462V78H53.8462V173ZM98.3335 104.75V173H78.3335V104.75H98.3335ZM88.4585 78C91.3752 78 93.8752 78.6667 95.9585 80C98.0418 81.25 99.0835 83.625 99.0835 87.125C99.0835 90.5417 98.0418 92.9167 95.9585 94.25C93.8752 95.5833 91.3752 96.25 88.4585 96.25C85.4585 96.25 82.9168 95.5833 80.8335 94.25C78.7502 92.9167 77.7085 90.5417 77.7085 87.125C77.7085 83.625 78.7502 81.25 80.8335 80C82.9168 78.6667 85.4585 78 88.4585 78ZM200.071 103.5C207.487 103.5 213.071 105.5 216.821 109.5C220.654 113.417 222.571 119.75 222.571 128.5V173H202.696V133.125C202.696 128.208 201.946 124.542 200.446 122.125C199.029 119.625 196.862 118.375 193.946 118.375C189.779 118.375 186.862 120.125 185.196 123.625C183.529 127.125 182.696 132.167 182.696 138.75V173H162.696V133.125C162.696 129.875 162.362 127.167 161.696 125C161.112 122.833 160.196 121.208 158.946 120.125C157.696 118.958 156.029 118.375 153.946 118.375C151.112 118.375 148.862 119.25 147.196 121C145.612 122.75 144.487 125.292 143.821 128.625C143.154 131.958 142.821 136.042 142.821 140.875V173H122.821V104.75H137.946L140.821 113.5H141.571C142.821 111.167 144.362 109.292 146.196 107.875C148.112 106.375 150.279 105.292 152.696 104.625C155.196 103.875 157.862 103.5 160.696 103.5C165.362 103.5 169.279 104.333 172.446 106C175.696 107.583 178.237 110.083 180.071 113.5H181.196C183.196 110 185.862 107.458 189.196 105.875C192.612 104.292 196.237 103.5 200.071 103.5Z" fill="var(--darkGray)"/>
</g>
</svg>
