<svg viewBox="0 0 256 256" fill="none" xmlns="http://www.w3.org/2000/svg">
<mask id="mask0_56_695" style="mask-type:alpha" maskUnits="userSpaceOnUse" x="0" y="0" width="256" height="256">
<rect width="256" height="256" fill="var(--gray)"/>
</mask>
<g mask="url(#mask0_56_695)">
<path d="M175.08 36C185.485 36 193.92 44.4349 193.92 54.8398C193.92 65.2449 185.485 73.6796 175.08 73.6797H119.735L152.967 111.482C155.695 114.586 157.2 118.577 157.2 122.709C157.2 126.712 155.788 130.586 153.213 133.65L112.88 181.64C112.879 181.641 112.877 181.642 112.876 181.644C112.88 181.655 112.883 181.669 112.89 181.683C112.903 181.709 112.919 181.732 112.933 181.747C112.936 181.751 112.94 181.754 112.942 181.757C112.953 181.758 112.972 181.761 113.002 181.76C113.758 181.732 114.507 181.707 115.246 181.684L115.253 181.683C120.444 181.52 126.027 181.44 132 181.44H177.36C187.832 181.441 196.32 189.929 196.32 200.4C196.32 210.871 187.831 219.36 177.36 219.36H72C65.3727 219.36 60.0002 213.988 60 207.36V192.513C60 188.758 61.3204 185.122 63.7305 182.243L112.324 124.189L66.4199 72.335C63.83 69.4093 62.4004 65.6369 62.4004 61.7295V48C62.4004 41.3726 67.773 36 74.4004 36H175.08Z" fill="var(--pageColor)" stroke="var(--pageColor)" stroke-width="12"/>
<path d="M72 213.36C68.6863 213.36 66 210.674 66 207.36V192.513C66 190.166 66.8254 187.894 68.3318 186.094L116.925 128.041C118.83 125.764 118.784 122.436 116.816 120.213L70.9124 68.3581C69.2937 66.5295 68.4 64.1718 68.4 61.7297V48C68.4 44.6863 71.0863 42 74.4 42H175.08C182.171 42 187.92 47.7487 187.92 54.84C187.92 61.9313 182.171 67.68 175.08 67.68H129.36C126.16 67.68 122.32 67.68 117.84 67.68C113.494 67.519 110.907 72.7236 113.778 75.9899L148.46 115.444C150.226 117.452 151.2 120.035 151.2 122.709C151.2 125.3 150.286 127.807 148.62 129.79L108.286 177.779C104.904 181.803 107.966 187.946 113.219 187.756C113.968 187.729 114.708 187.704 115.44 187.68C120.56 187.52 126.08 187.44 132 187.44H177.36C184.518 187.44 190.32 193.242 190.32 200.4C190.32 207.558 184.518 213.36 177.36 213.36H72Z" fill="var(--darkGray)"/>
</g>
</svg>
