<svg viewBox="0 0 1113 332" fill="none" xmlns="http://www.w3.org/2000/svg">
<mask id="mask0_4181_2" style="mask-type:alpha" maskUnits="userSpaceOnUse" x="36" y="36" width="260" height="260">
<rect x="36" y="36" width="260" height="260" fill="#D9D9D9"/>
</mask>
<g mask="url(#mask0_4181_2)">
<path d="M231.276 49.6627C249.925 37.1889 274.561 52.5834 271.524 74.8126L244.744 270.877C241.816 292.311 215.532 301.02 200.385 285.576L161.979 246.416L210.608 143.485C215.067 134.044 202.302 126.067 195.772 134.215L124.565 223.055L73.1201 205.962C52.5776 199.137 48.8646 171.675 66.8572 159.64L231.276 49.6627Z" fill="#DF84FF"/>
</g>
<path d="M337.1 236V96H365.6L420.1 185.8L408.4 186L460.4 96H488.7V236H460L460.5 134.2L465.8 136.1L423 208.4H402.8L358.7 136.1L363.7 134.2L364.2 236H337.1ZM548.142 239C541.342 239 535.276 237.7 529.942 235.1C524.609 232.5 520.409 228.8 517.342 224C514.276 219.133 512.742 213.333 512.742 206.6C512.742 200.867 514.176 195.767 517.042 191.3C519.909 186.833 524.242 183.167 530.042 180.3C535.909 177.367 543.309 175.4 552.242 174.4C561.242 173.333 571.842 173.4 584.042 174.6L584.342 193.2C577.076 192 570.642 191.433 565.042 191.5C559.509 191.567 554.842 192.133 551.042 193.2C547.309 194.267 544.476 195.833 542.542 197.9C540.609 199.9 539.642 202.333 539.642 205.2C539.642 209.133 541.109 212.167 544.042 214.3C546.976 216.367 550.942 217.4 555.942 217.4C560.276 217.4 564.176 216.633 567.642 215.1C571.109 213.567 573.876 211.333 575.942 208.4C578.009 205.467 579.042 201.9 579.042 197.7V173.5C579.042 169.567 578.209 166.133 576.542 163.2C574.942 160.2 572.409 157.9 568.942 156.3C565.476 154.633 560.942 153.8 555.342 153.8C550.142 153.8 544.942 154.6 539.742 156.2C534.609 157.733 529.909 160.1 525.642 163.3L517.942 142.9C524.409 138.767 531.276 135.767 538.542 133.9C545.809 131.967 552.909 131 559.842 131C569.309 131 577.576 132.5 584.642 135.5C591.709 138.5 597.176 143.133 601.042 149.4C604.976 155.6 606.942 163.5 606.942 173.1V236H581.542V224.9C578.209 229.433 573.642 232.933 567.842 235.4C562.042 237.8 555.476 239 548.142 239ZM634.005 236V135H663.205V147.5C666.471 141.9 670.671 137.9 675.805 135.5C680.938 133.1 686.538 131.9 692.605 131.9C694.738 131.9 696.705 132.033 698.505 132.3C700.305 132.5 702.071 132.767 703.805 133.1L700.205 163.2C698.071 162.4 695.805 161.8 693.405 161.4C691.005 160.933 688.638 160.7 686.305 160.7C679.571 160.7 674.038 162.667 669.705 166.6C665.371 170.533 663.205 176.133 663.205 183.4V236H634.005ZM720.528 236V92H749.728V171L783.128 135H817.128L781.728 175.1L821.028 236H786.328L760.528 194.2L749.728 205.4V236H720.528ZM838.106 236V135H867.306V236H838.106ZM852.706 119C847.84 119 843.64 117.5 840.106 114.5C836.573 111.433 834.806 107.367 834.806 102.3C834.806 97.1667 836.573 93.1 840.106 90.1C843.64 87.0333 847.84 85.5 852.706 85.5C857.573 85.5 861.773 87.0333 865.306 90.1C868.84 93.1 870.606 97.1667 870.606 102.3C870.606 107.367 868.84 111.433 865.306 114.5C861.773 117.5 857.573 119 852.706 119ZM904.623 236V123.4C904.623 112.867 907.723 104.5 913.923 98.3C920.19 92.1 929.023 89 940.423 89C944.223 89 947.857 89.4 951.323 90.2C954.79 91 958.123 92.2 961.323 93.8L956.823 116.2C954.89 115.133 953.023 114.4 951.223 114C949.423 113.6 947.723 113.4 946.123 113.4C942.323 113.4 939.29 114.3 937.023 116.1C934.823 117.9 933.723 120.833 933.723 124.9V135H958.923V158.4H933.723V236H904.623ZM886.123 158.4V135H907.523V158.4H886.123ZM990.264 280.7C985.997 280.7 981.797 280.267 977.664 279.4C973.531 278.533 969.631 277.1 965.964 275.1L972.264 250.5C974.397 251.7 976.731 252.633 979.264 253.3C981.864 253.967 984.264 254.3 986.464 254.3C990.464 254.3 993.764 253.433 996.364 251.7C998.964 249.967 1000.9 247.133 1002.16 243.2L1004.26 236.8L964.864 135H996.564L1020.76 207.2L1044.26 135H1075.16L1032.76 247.5C1029.43 255.9 1025.6 262.5 1021.26 267.3C1016.93 272.167 1012.16 275.6 1006.96 277.6C1001.76 279.667 996.197 280.7 990.264 280.7Z" fill="#DF84FF"/>
</svg>
